  0
SECTION
  2
HEADER
  9
$ANGBASE
  50
0.0
  9
$ANGDIR
  70
1
  9
$MEASUREMENT
  70
1
  0
ENDSEC
  0
SECTION
  2
TABLES
  0
TABLE
  2
LTYPE
  70
4
  0
LTYPE
  5
40F
  2
CONTINUOUS
  70
0
  3
Solid line
  72
65
  73
0
  40
0.0
  0
LTYPE
  5
410
  2
DASHDOT
 70
0
  3
Dash Dot ____ _ ____ _
 72
65
 73
4
 40
2.0
 49
1.25
 49
-0.25
 49
0.25
 49
-0.25
  0
LTYPE
  5
411
  2
DASHED
 70
0
  3
Dashed __ __ __ __ __
 72
65
 73
2
 40
0.75
 49
0.5
 49
-0.25
  0
LTYPE
  5
43B
  2
DOTTED
 70
0
  3
Dotted .  .  .  .
 72
65
 73
2
 40
0.2
 49
0.0
 49
-0.2
  0
ENDTAB
  0
TABLE
  2
STYLE
  70
4
  0
STYLE
  2
KICAD
  70
0
  40
0
  41
1
  42
1
  50
0
  71
0
  3
isocp.shx
  0
STYLE
  2
KICADB
  70
0
  40
0
  41
1
  42
1
  50
0
  71
0
  3
isocp.shx
  0
STYLE
  2
KICADI
  70
0
  40
0
  41
1
  42
1
  50
15
  71
0
  3
isocp.shx
  0
STYLE
  2
KICADBI
  70
0
  40
0
  41
1
  42
1
  50
15
  71
0
  3
isocp.shx
  0
ENDTAB
  0
TABLE
  2
LAYER
  70
1
  0
LAYER
  2
BLACK
  70
0
  62
7
  6
CONTINUOUS
  0
ENDTAB
  0
ENDSEC
  0
SECTION
  2
ENTITIES
0
LINE
8
BLACK
6
CONTINUOUS
10
141.401
20
-47.5505
11
141.402
21
-47.55
0
LINE
8
BLACK
6
CONTINUOUS
10
141.402
20
-47.55
11
161.202
21
-48.35
0
LINE
8
BLACK
6
CONTINUOUS
10
161.202
20
-48.35
11
161.21
21
-48.3537
0
LINE
8
BLACK
6
CONTINUOUS
10
161.21
20
-48.3537
11
161.219
21
-48.3537
0
LINE
8
BLACK
6
CONTINUOUS
10
161.219
20
-48.3537
11
168.619
21
-51.3537
0
LINE
8
BLACK
6
CONTINUOUS
10
168.619
20
-51.3537
11
168.632
21
-51.3671
0
LINE
8
BLACK
6
CONTINUOUS
10
168.632
20
-51.3671
11
168.646
21
-51.3803
0
LINE
8
BLACK
6
CONTINUOUS
10
168.646
20
-51.3803
11
170.446
21
-55.5803
0
LINE
8
BLACK
6
CONTINUOUS
10
170.446
20
-55.5803
11
170.446
21
-55.5831
0
LINE
8
BLACK
6
CONTINUOUS
10
170.446
20
-55.5831
11
170.448
21
-55.5853
0
LINE
8
BLACK
6
CONTINUOUS
10
170.448
20
-55.5853
11
170.446
21
-55.6019
0
LINE
8
BLACK
6
CONTINUOUS
10
170.446
20
-55.6019
11
170.446
21
-55.6186
0
LINE
8
BLACK
6
CONTINUOUS
10
170.446
20
-55.6186
11
170.444
21
-55.6206
0
LINE
8
BLACK
6
CONTINUOUS
10
170.444
20
-55.6206
11
170.444
21
-55.6234
0
LINE
8
BLACK
6
CONTINUOUS
10
170.444
20
-55.6234
11
168.644
21
-59.0234
0
LINE
8
BLACK
6
CONTINUOUS
10
168.644
20
-59.0234
11
168.642
21
-59.0255
0
LINE
8
BLACK
6
CONTINUOUS
10
168.642
20
-59.0255
11
168.641
21
-59.0288
0
LINE
8
BLACK
6
CONTINUOUS
10
168.641
20
-59.0288
11
166.254
21
-62.4096
0
LINE
8
BLACK
6
CONTINUOUS
10
166.254
20
-62.4096
11
168.248
21
-69.787
0
LINE
8
BLACK
6
CONTINUOUS
10
168.248
20
-69.787
11
168.247
21
-69.7978
0
LINE
8
BLACK
6
CONTINUOUS
10
168.247
20
-69.7978
11
168.249
21
-69.8084
0
LINE
8
BLACK
6
CONTINUOUS
10
168.249
20
-69.8084
11
167.054
21
-76.7811
0
LINE
8
BLACK
6
CONTINUOUS
10
167.054
20
-76.7811
11
172.633
21
-81.7627
0
LINE
8
BLACK
6
CONTINUOUS
10
172.633
20
-81.7627
11
172.638
21
-81.7722
0
LINE
8
BLACK
6
CONTINUOUS
10
172.638
20
-81.7722
11
172.646
21
-81.7793
0
LINE
8
BLACK
6
CONTINUOUS
10
172.646
20
-81.7793
11
173.646
21
-83.9793
0
LINE
8
BLACK
6
CONTINUOUS
10
173.646
20
-83.9793
11
173.646
21
-83.9866
0
LINE
8
BLACK
6
CONTINUOUS
10
173.646
20
-83.9866
11
173.649
21
-83.9929
0
LINE
8
BLACK
6
CONTINUOUS
10
173.649
20
-83.9929
11
173.646
21
-84.0051
0
LINE
8
BLACK
6
CONTINUOUS
10
173.646
20
-84.0051
11
173.647
21
-84.0176
0
LINE
8
BLACK
6
CONTINUOUS
10
173.647
20
-84.0176
11
173.642
21
-84.0229
0
LINE
8
BLACK
6
CONTINUOUS
10
173.642
20
-84.0229
11
173.64
21
-84.03
0
LINE
8
BLACK
6
CONTINUOUS
10
173.64
20
-84.03
11
173.041
21
-84.8289
0
LINE
8
BLACK
6
CONTINUOUS
10
173.041
20
-84.8289
11
172.242
21
-86.0277
0
LINE
8
BLACK
6
CONTINUOUS
10
172.242
20
-86.0277
11
172.241
21
-86.0281
0
LINE
8
BLACK
6
CONTINUOUS
10
172.241
20
-86.0281
11
172.241
21
-86.0287
0
LINE
8
BLACK
6
CONTINUOUS
10
172.241
20
-86.0287
11
169.443
21
-90.0263
0
LINE
8
BLACK
6
CONTINUOUS
10
169.443
20
-90.0263
11
166.854
21
-94.8048
0
LINE
8
BLACK
6
CONTINUOUS
10
166.854
20
-94.8048
11
167.844
21
-97.7743
0
LINE
8
BLACK
6
CONTINUOUS
10
167.844
20
-97.7743
11
171.437
21
-101.767
0
LINE
8
BLACK
6
CONTINUOUS
10
171.437
20
-101.767
11
171.443
21
-101.783
0
LINE
8
BLACK
6
CONTINUOUS
10
171.443
20
-101.783
11
171.45
21
-101.8
0
LINE
8
BLACK
6
CONTINUOUS
10
171.45
20
-101.8
11
171.449
21
-101.801
0
LINE
8
BLACK
6
CONTINUOUS
10
171.449
20
-101.801
11
171.45
21
-101.803
0
LINE
8
BLACK
6
CONTINUOUS
10
171.45
20
-101.803
11
171.442
21
-101.819
0
LINE
8
BLACK
6
CONTINUOUS
10
171.442
20
-101.819
11
171.435
21
-101.835
0
LINE
8
BLACK
6
CONTINUOUS
10
171.435
20
-101.835
11
170.264
21
-103.006
0
LINE
8
BLACK
6
CONTINUOUS
10
170.264
20
-103.006
11
171.442
21
-104.772
0
LINE
8
BLACK
6
CONTINUOUS
10
171.442
20
-104.772
11
171.444
21
-104.785
0
LINE
8
BLACK
6
CONTINUOUS
10
171.444
20
-104.785
11
171.45
21
-104.798
0
LINE
8
BLACK
6
CONTINUOUS
10
171.45
20
-104.798
11
171.448
21
-104.804
0
LINE
8
BLACK
6
CONTINUOUS
10
171.448
20
-104.804
11
171.449
21
-104.81
0
LINE
8
BLACK
6
CONTINUOUS
10
171.449
20
-104.81
11
171.442
21
-104.821
0
LINE
8
BLACK
6
CONTINUOUS
10
171.442
20
-104.821
11
171.437
21
-104.834
0
LINE
8
BLACK
6
CONTINUOUS
10
171.437
20
-104.834
11
169.448
21
-107.022
0
LINE
8
BLACK
6
CONTINUOUS
10
169.448
20
-107.022
11
168.85
21
-112.006
0
LINE
8
BLACK
6
CONTINUOUS
10
168.85
20
-112.006
11
168.844
21
-112.015
0
LINE
8
BLACK
6
CONTINUOUS
10
168.844
20
-112.015
11
168.843
21
-112.026
0
LINE
8
BLACK
6
CONTINUOUS
10
168.843
20
-112.026
11
165.243
21
-118.026
0
LINE
8
BLACK
6
CONTINUOUS
10
165.243
20
-118.026
11
165.243
21
-118.026
0
LINE
8
BLACK
6
CONTINUOUS
10
165.243
20
-118.026
11
165.243
21
-118.026
0
LINE
8
BLACK
6
CONTINUOUS
10
165.243
20
-118.026
11
165.227
21
-118.037
0
LINE
8
BLACK
6
CONTINUOUS
10
165.227
20
-118.037
11
165.212
21
-118.049
0
LINE
8
BLACK
6
CONTINUOUS
10
165.212
20
-118.049
11
165.212
21
-118.048
0
LINE
8
BLACK
6
CONTINUOUS
10
165.212
20
-118.048
11
165.212
21
-118.049
0
LINE
8
BLACK
6
CONTINUOUS
10
165.212
20
-118.049
11
153.012
21
-121.049
0
LINE
8
BLACK
6
CONTINUOUS
10
153.012
20
-121.049
11
153.005
21
-121.048
0
LINE
8
BLACK
6
CONTINUOUS
10
153.005
20
-121.048
11
152.999
21
-121.05
0
LINE
8
BLACK
6
CONTINUOUS
10
152.999
20
-121.05
11
122.401
21
-120.65
0
LINE
8
BLACK
6
CONTINUOUS
10
122.401
20
-120.65
11
98.6029
21
-122.05
0
LINE
8
BLACK
6
CONTINUOUS
10
98.6029
20
-122.05
11
98.5894
21
-122.045
0
LINE
8
BLACK
6
CONTINUOUS
10
98.5894
20
-122.045
11
98.5752
21
-122.043
0
LINE
8
BLACK
6
CONTINUOUS
10
98.5752
20
-122.043
11
88.7752
21
-116.443
0
LINE
8
BLACK
6
CONTINUOUS
10
88.7752
20
-116.443
11
88.7518
21
-116.413
0
LINE
8
BLACK
6
CONTINUOUS
10
88.7518
20
-116.413
11
88.1544
21
-114.223
0
LINE
8
BLACK
6
CONTINUOUS
10
88.1544
20
-114.223
11
87.8689
21
-113.857
0
LINE
8
BLACK
6
CONTINUOUS
10
87.8689
20
-113.857
11
87.6039
21
-113.461
0
LINE
8
BLACK
6
CONTINUOUS
10
87.6039
20
-113.461
11
87.3683
21
-113.047
0
LINE
8
BLACK
6
CONTINUOUS
10
87.3683
20
-113.047
11
87.1632
21
-112.618
0
LINE
8
BLACK
6
CONTINUOUS
10
87.1632
20
-112.618
11
86.9897
21
-112.174
0
LINE
8
BLACK
6
CONTINUOUS
10
86.9897
20
-112.174
11
86.8487
21
-111.72
0
LINE
8
BLACK
6
CONTINUOUS
10
86.8487
20
-111.72
11
86.741
21
-111.256
0
LINE
8
BLACK
6
CONTINUOUS
10
86.741
20
-111.256
11
86.6671
21
-110.785
0
LINE
8
BLACK
6
CONTINUOUS
10
86.6671
20
-110.785
11
86.6274
21
-110.311
0
LINE
8
BLACK
6
CONTINUOUS
10
86.6274
20
-110.311
11
86.6221
21
-109.835
0
LINE
8
BLACK
6
CONTINUOUS
10
86.6221
20
-109.835
11
86.6513
21
-109.36
0
LINE
8
BLACK
6
CONTINUOUS
10
86.6513
20
-109.36
11
86.7147
21
-108.888
0
LINE
8
BLACK
6
CONTINUOUS
10
86.7147
20
-108.888
11
86.8122
21
-108.422
0
LINE
8
BLACK
6
CONTINUOUS
10
86.8122
20
-108.422
11
86.943
21
-107.964
0
LINE
8
BLACK
6
CONTINUOUS
10
86.943
20
-107.964
11
87.1066
21
-107.517
0
LINE
8
BLACK
6
CONTINUOUS
10
87.1066
20
-107.517
11
87.3021
21
-107.083
0
LINE
8
BLACK
6
CONTINUOUS
10
87.3021
20
-107.083
11
87.5221
21
-106.676
0
LINE
8
BLACK
6
CONTINUOUS
10
87.5221
20
-106.676
11
87.9498
21
-96.203
0
LINE
8
BLACK
6
CONTINUOUS
10
87.9498
20
-96.203
11
85.3506
21
-80.0079
0
LINE
8
BLACK
6
CONTINUOUS
10
85.3506
20
-80.0079
11
85.352
21
-80.0021
0
LINE
8
BLACK
6
CONTINUOUS
10
85.352
20
-80.0021
11
85.3501
21
-79.9965
0
LINE
8
BLACK
6
CONTINUOUS
10
85.3501
20
-79.9965
11
87.3501
21
-51.7965
0
LINE
8
BLACK
6
CONTINUOUS
10
87.3501
20
-51.7965
11
87.3559
21
-51.7849
0
LINE
8
BLACK
6
CONTINUOUS
10
87.3559
20
-51.7849
11
87.3584
21
-51.7723
0
LINE
8
BLACK
6
CONTINUOUS
10
87.3584
20
-51.7723
11
87.3584
21
-51.7723
0
LINE
8
BLACK
6
CONTINUOUS
10
87.3584
20
-51.7723
11
87.6239
21
-51.4057
0
LINE
8
BLACK
6
CONTINUOUS
10
87.6239
20
-51.4057
11
87.9172
21
-51.0609
0
LINE
8
BLACK
6
CONTINUOUS
10
87.9172
20
-51.0609
11
88.2363
21
-50.7399
0
LINE
8
BLACK
6
CONTINUOUS
10
88.2363
20
-50.7399
11
88.5794
21
-50.4447
0
LINE
8
BLACK
6
CONTINUOUS
10
88.5794
20
-50.4447
11
88.9445
21
-50.177
0
LINE
8
BLACK
6
CONTINUOUS
10
88.9445
20
-50.177
11
89.3292
21
-49.9386
0
LINE
8
BLACK
6
CONTINUOUS
10
89.3292
20
-49.9386
11
89.7313
21
-49.7308
0
LINE
8
BLACK
6
CONTINUOUS
10
89.7313
20
-49.7308
11
90.1483
21
-49.5548
0
LINE
8
BLACK
6
CONTINUOUS
10
90.1483
20
-49.5548
11
90.5778
21
-49.4118
0
LINE
8
BLACK
6
CONTINUOUS
10
90.5778
20
-49.4118
11
91.0171
21
-49.3026
0
LINE
8
BLACK
6
CONTINUOUS
10
91.0171
20
-49.3026
11
91.4635
21
-49.2279
0
LINE
8
BLACK
6
CONTINUOUS
10
91.4635
20
-49.2279
11
91.9144
21
-49.1881
0
LINE
8
BLACK
6
CONTINUOUS
10
91.9144
20
-49.1881
11
92.367
21
-49.1835
0
LINE
8
BLACK
6
CONTINUOUS
10
92.367
20
-49.1835
11
92.8186
21
-49.2141
0
LINE
8
BLACK
6
CONTINUOUS
10
92.8186
20
-49.2141
11
93.2665
21
-49.2797
0
LINE
8
BLACK
6
CONTINUOUS
10
93.2665
20
-49.2797
11
93.7079
21
-49.3799
0
LINE
8
BLACK
6
CONTINUOUS
10
93.7079
20
-49.3799
11
94.1402
21
-49.5141
0
LINE
8
BLACK
6
CONTINUOUS
10
94.1402
20
-49.5141
11
94.5607
21
-49.6815
0
LINE
8
BLACK
6
CONTINUOUS
10
94.5607
20
-49.6815
11
94.9521
21
-49.8738
0
LINE
8
BLACK
6
CONTINUOUS
10
94.9521
20
-49.8738
11
113.994
21
-47.7503
0
LINE
8
BLACK
6
CONTINUOUS
10
113.994
20
-47.7503
11
113.997
21
-47.7511
0
LINE
8
BLACK
6
CONTINUOUS
10
113.997
20
-47.7511
11
114
21
-47.75
0
LINE
8
BLACK
6
CONTINUOUS
10
114
20
-47.75
11
141.4
21
-47.55
0
LINE
8
BLACK
6
CONTINUOUS
10
141.4
20
-47.55
11
141.401
21
-47.5505
0
LINE
8
BLACK
6
CONTINUOUS
10
114.003
20
-47.85
11
94.9487
21
-49.9748
0
LINE
8
BLACK
6
CONTINUOUS
10
94.9487
20
-49.9748
11
94.9343
21
-49.9706
0
LINE
8
BLACK
6
CONTINUOUS
10
94.9343
20
-49.9706
11
94.9194
21
-49.9691
0
LINE
8
BLACK
6
CONTINUOUS
10
94.9194
20
-49.9691
11
94.9165
21
-49.9654
0
LINE
8
BLACK
6
CONTINUOUS
10
94.9165
20
-49.9654
11
94.912
21
-49.9641
0
LINE
8
BLACK
6
CONTINUOUS
10
94.912
20
-49.9641
11
94.9093
21
-49.9593
0
LINE
8
BLACK
6
CONTINUOUS
10
94.9093
20
-49.9593
11
94.5219
21
-49.769
0
LINE
8
BLACK
6
CONTINUOUS
10
94.5219
20
-49.769
11
94.1083
21
-49.6043
0
LINE
8
BLACK
6
CONTINUOUS
10
94.1083
20
-49.6043
11
93.6831
21
-49.4723
0
LINE
8
BLACK
6
CONTINUOUS
10
93.6831
20
-49.4723
11
93.2489
21
-49.3738
0
LINE
8
BLACK
6
CONTINUOUS
10
93.2489
20
-49.3738
11
92.8084
21
-49.3092
0
LINE
8
BLACK
6
CONTINUOUS
10
92.8084
20
-49.3092
11
92.3643
21
-49.2792
0
LINE
8
BLACK
6
CONTINUOUS
10
92.3643
20
-49.2792
11
91.9191
21
-49.2837
0
LINE
8
BLACK
6
CONTINUOUS
10
91.9191
20
-49.2837
11
91.4756
21
-49.3228
0
LINE
8
BLACK
6
CONTINUOUS
10
91.4756
20
-49.3228
11
91.0365
21
-49.3963
0
LINE
8
BLACK
6
CONTINUOUS
10
91.0365
20
-49.3963
11
90.6045
21
-49.5037
0
LINE
8
BLACK
6
CONTINUOUS
10
90.6045
20
-49.5037
11
90.1821
21
-49.6444
0
LINE
8
BLACK
6
CONTINUOUS
10
90.1821
20
-49.6444
11
89.7719
21
-49.8174
0
LINE
8
BLACK
6
CONTINUOUS
10
89.7719
20
-49.8174
11
89.3764
21
-50.0218
0
LINE
8
BLACK
6
CONTINUOUS
10
89.3764
20
-50.0218
11
88.998
21
-50.2564
0
LINE
8
BLACK
6
CONTINUOUS
10
88.998
20
-50.2564
11
88.639
21
-50.5196
0
LINE
8
BLACK
6
CONTINUOUS
10
88.639
20
-50.5196
11
88.3015
21
-50.81
0
LINE
8
BLACK
6
CONTINUOUS
10
88.3015
20
-50.81
11
87.9876
21
-51.1257
0
LINE
8
BLACK
6
CONTINUOUS
10
87.9876
20
-51.1257
11
87.6992
21
-51.4648
0
LINE
8
BLACK
6
CONTINUOUS
10
87.6992
20
-51.4648
11
87.4494
21
-51.8096
0
LINE
8
BLACK
6
CONTINUOUS
10
87.4494
20
-51.8096
11
85.4503
21
-79.9978
0
LINE
8
BLACK
6
CONTINUOUS
10
85.4503
20
-79.9978
11
88.0494
21
-96.1921
0
LINE
8
BLACK
6
CONTINUOUS
10
88.0494
20
-96.1921
11
88.0482
21
-96.1971
0
LINE
8
BLACK
6
CONTINUOUS
10
88.0482
20
-96.1971
11
88.05
21
-96.202
0
LINE
8
BLACK
6
CONTINUOUS
10
88.05
20
-96.202
11
87.6216
21
-106.691
0
LINE
8
BLACK
6
CONTINUOUS
10
87.6216
20
-106.691
11
87.6164
21
-106.702
0
LINE
8
BLACK
6
CONTINUOUS
10
87.6164
20
-106.702
11
87.6147
21
-106.715
0
LINE
8
BLACK
6
CONTINUOUS
10
87.6147
20
-106.715
11
87.6087
21
-106.719
0
LINE
8
BLACK
6
CONTINUOUS
10
87.6087
20
-106.719
11
87.6055
21
-106.726
0
LINE
8
BLACK
6
CONTINUOUS
10
87.6055
20
-106.726
11
87.6033
21
-106.727
0
LINE
8
BLACK
6
CONTINUOUS
10
87.6033
20
-106.727
11
87.388
21
-107.125
0
LINE
8
BLACK
6
CONTINUOUS
10
87.388
20
-107.125
11
87.1953
21
-107.553
0
LINE
8
BLACK
6
CONTINUOUS
10
87.1953
20
-107.553
11
87.0341
21
-107.994
0
LINE
8
BLACK
6
CONTINUOUS
10
87.0341
20
-107.994
11
86.9051
21
-108.445
0
LINE
8
BLACK
6
CONTINUOUS
10
86.9051
20
-108.445
11
86.8091
21
-108.904
0
LINE
8
BLACK
6
CONTINUOUS
10
86.8091
20
-108.904
11
86.7466
21
-109.369
0
LINE
8
BLACK
6
CONTINUOUS
10
86.7466
20
-109.369
11
86.7179
21
-109.837
0
LINE
8
BLACK
6
CONTINUOUS
10
86.7179
20
-109.837
11
86.7231
21
-110.306
0
LINE
8
BLACK
6
CONTINUOUS
10
86.7231
20
-110.306
11
86.7622
21
-110.774
0
LINE
8
BLACK
6
CONTINUOUS
10
86.7622
20
-110.774
11
86.835
21
-111.238
0
LINE
8
BLACK
6
CONTINUOUS
10
86.835
20
-111.238
11
86.9412
21
-111.695
0
LINE
8
BLACK
6
CONTINUOUS
10
86.9412
20
-111.695
11
87.0801
21
-112.143
0
LINE
8
BLACK
6
CONTINUOUS
10
87.0801
20
-112.143
11
87.2511
21
-112.58
0
LINE
8
BLACK
6
CONTINUOUS
10
87.2511
20
-112.58
11
87.4532
21
-113.003
0
LINE
8
BLACK
6
CONTINUOUS
10
87.4532
20
-113.003
11
87.6854
21
-113.411
0
LINE
8
BLACK
6
CONTINUOUS
10
87.6854
20
-113.411
11
87.9465
21
-113.801
0
LINE
8
BLACK
6
CONTINUOUS
10
87.9465
20
-113.801
11
88.2241
21
-114.156
0
LINE
8
BLACK
6
CONTINUOUS
10
88.2241
20
-114.156
11
88.2248
21
-114.157
0
LINE
8
BLACK
6
CONTINUOUS
10
88.2248
20
-114.157
11
88.2303
21
-114.164
0
LINE
8
BLACK
6
CONTINUOUS
10
88.2303
20
-114.164
11
88.2383
21
-114.168
0
LINE
8
BLACK
6
CONTINUOUS
10
88.2383
20
-114.168
11
88.2416
21
-114.178
0
LINE
8
BLACK
6
CONTINUOUS
10
88.2416
20
-114.178
11
88.2482
21
-114.187
0
LINE
8
BLACK
6
CONTINUOUS
10
88.2482
20
-114.187
11
88.8428
21
-116.367
0
LINE
8
BLACK
6
CONTINUOUS
10
88.8428
20
-116.367
11
98.6119
21
-121.949
0
LINE
8
BLACK
6
CONTINUOUS
10
98.6119
20
-121.949
11
122.397
21
-120.55
0
LINE
8
BLACK
6
CONTINUOUS
10
122.397
20
-120.55
11
122.399
21
-120.551
0
LINE
8
BLACK
6
CONTINUOUS
10
122.399
20
-120.551
11
122.401
21
-120.55
0
LINE
8
BLACK
6
CONTINUOUS
10
122.401
20
-120.55
11
152.994
21
-120.95
0
LINE
8
BLACK
6
CONTINUOUS
10
152.994
20
-120.95
11
165.168
21
-117.956
0
LINE
8
BLACK
6
CONTINUOUS
10
165.168
20
-117.956
11
168.752
21
-111.983
0
LINE
8
BLACK
6
CONTINUOUS
10
168.752
20
-111.983
11
169.35
21
-106.994
0
LINE
8
BLACK
6
CONTINUOUS
10
169.35
20
-106.994
11
169.358
21
-106.981
0
LINE
8
BLACK
6
CONTINUOUS
10
169.358
20
-106.981
11
169.363
21
-106.966
0
LINE
8
BLACK
6
CONTINUOUS
10
169.363
20
-106.966
11
171.337
21
-104.795
0
LINE
8
BLACK
6
CONTINUOUS
10
171.337
20
-104.795
11
170.158
21
-103.028
0
LINE
8
BLACK
6
CONTINUOUS
10
170.158
20
-103.028
11
170.156
21
-103.013
0
LINE
8
BLACK
6
CONTINUOUS
10
170.156
20
-103.013
11
170.15
21
-103
0
LINE
8
BLACK
6
CONTINUOUS
10
170.15
20
-103
11
170.152
21
-102.995
0
LINE
8
BLACK
6
CONTINUOUS
10
170.152
20
-102.995
11
170.151
21
-102.99
0
LINE
8
BLACK
6
CONTINUOUS
10
170.151
20
-102.99
11
170.159
21
-102.978
0
LINE
8
BLACK
6
CONTINUOUS
10
170.159
20
-102.978
11
170.165
21
-102.965
0
LINE
8
BLACK
6
CONTINUOUS
10
170.165
20
-102.965
11
171.331
21
-101.798
0
LINE
8
BLACK
6
CONTINUOUS
10
171.331
20
-101.798
11
167.763
21
-97.8334
0
LINE
8
BLACK
6
CONTINUOUS
10
167.763
20
-97.8334
11
167.759
21
-97.8237
0
LINE
8
BLACK
6
CONTINUOUS
10
167.759
20
-97.8237
11
167.753
21
-97.8158
0
LINE
8
BLACK
6
CONTINUOUS
10
167.753
20
-97.8158
11
166.753
21
-94.8158
0
LINE
8
BLACK
6
CONTINUOUS
10
166.753
20
-94.8158
11
166.753
21
-94.8149
0
LINE
8
BLACK
6
CONTINUOUS
10
166.753
20
-94.8149
11
166.752
21
-94.8142
0
LINE
8
BLACK
6
CONTINUOUS
10
166.752
20
-94.8142
11
166.754
21
-94.796
0
LINE
8
BLACK
6
CONTINUOUS
10
166.754
20
-94.796
11
166.755
21
-94.7776
0
LINE
8
BLACK
6
CONTINUOUS
10
166.755
20
-94.7776
11
166.756
21
-94.7771
0
LINE
8
BLACK
6
CONTINUOUS
10
166.756
20
-94.7771
11
166.756
21
-94.7762
0
LINE
8
BLACK
6
CONTINUOUS
10
166.756
20
-94.7762
11
169.356
21
-89.9762
0
LINE
8
BLACK
6
CONTINUOUS
10
169.356
20
-89.9762
11
169.358
21
-89.9743
0
LINE
8
BLACK
6
CONTINUOUS
10
169.358
20
-89.9743
11
169.359
21
-89.9713
0
LINE
8
BLACK
6
CONTINUOUS
10
169.359
20
-89.9713
11
172.159
21
-85.9718
0
LINE
8
BLACK
6
CONTINUOUS
10
172.159
20
-85.9718
11
172.958
21
-84.7723
0
LINE
8
BLACK
6
CONTINUOUS
10
172.958
20
-84.7723
11
172.96
21
-84.7714
0
LINE
8
BLACK
6
CONTINUOUS
10
172.96
20
-84.7714
11
172.96
21
-84.77
0
LINE
8
BLACK
6
CONTINUOUS
10
172.96
20
-84.77
11
173.542
21
-83.9937
0
LINE
8
BLACK
6
CONTINUOUS
10
173.542
20
-83.9937
11
172.559
21
-81.8303
0
LINE
8
BLACK
6
CONTINUOUS
10
172.559
20
-81.8303
11
166.967
21
-76.8373
0
LINE
8
BLACK
6
CONTINUOUS
10
166.967
20
-76.8373
11
166.964
21
-76.832
0
LINE
8
BLACK
6
CONTINUOUS
10
166.964
20
-76.832
11
166.959
21
-76.8289
0
LINE
8
BLACK
6
CONTINUOUS
10
166.959
20
-76.8289
11
166.956
21
-76.8153
0
LINE
8
BLACK
6
CONTINUOUS
10
166.956
20
-76.8153
11
166.95
21
-76.8028
0
LINE
8
BLACK
6
CONTINUOUS
10
166.95
20
-76.8028
11
166.952
21
-76.7973
0
LINE
8
BLACK
6
CONTINUOUS
10
166.952
20
-76.7973
11
166.951
21
-76.7916
0
LINE
8
BLACK
6
CONTINUOUS
10
166.951
20
-76.7916
11
168.149
21
-69.8024
0
LINE
8
BLACK
6
CONTINUOUS
10
168.149
20
-69.8024
11
166.152
21
-62.413
0
LINE
8
BLACK
6
CONTINUOUS
10
166.152
20
-62.413
11
166.152
21
-62.4106
0
LINE
8
BLACK
6
CONTINUOUS
10
166.152
20
-62.4106
11
166.151
21
-62.4085
0
LINE
8
BLACK
6
CONTINUOUS
10
166.151
20
-62.4085
11
166.154
21
-62.3919
0
LINE
8
BLACK
6
CONTINUOUS
10
166.154
20
-62.3919
11
166.157
21
-62.3751
0
LINE
8
BLACK
6
CONTINUOUS
10
166.157
20
-62.3751
11
166.159
21
-62.3736
0
LINE
8
BLACK
6
CONTINUOUS
10
166.159
20
-62.3736
11
166.159
21
-62.3712
0
LINE
8
BLACK
6
CONTINUOUS
10
166.159
20
-62.3712
11
168.557
21
-58.9738
0
LINE
8
BLACK
6
CONTINUOUS
10
168.557
20
-58.9738
11
170.345
21
-55.5977
0
LINE
8
BLACK
6
CONTINUOUS
10
170.345
20
-55.5977
11
168.562
21
-51.4386
0
LINE
8
BLACK
6
CONTINUOUS
10
168.562
20
-51.4386
11
161.189
21
-48.4496
0
LINE
8
BLACK
6
CONTINUOUS
10
161.189
20
-48.4496
11
141.399
21
-47.65
0
LINE
8
BLACK
6
CONTINUOUS
10
141.399
20
-47.65
11
114.003
21
-47.85
  0
ENDSEC
  0
EOF
