<?xml version="1.0" standalone="no"?>
 <!DOCTYPE svg PUBLIC "-//W3C//DTD SVG 1.1//EN" 
 "http://www.w3.org/Graphics/SVG/1.1/DTD/svg11.dtd"> 
<svg
  xmlns:svg="http://www.w3.org/2000/svg"
  xmlns="http://www.w3.org/2000/svg"
  xmlns:xlink="http://www.w3.org/1999/xlink"
  version="1.1"
  width="29.700220cm" height="21.000720cm" viewBox="0 0 297002200 210007200">
<title>SVG Picture created as pwm_pcb_larger-Edge_Cuts.svg date 2023/03/26 16:57:26 </title>
  <desc>Picture generated by PCBNEW </desc>
<g style="fill:#000000; fill-opacity:1.000000;stroke:#000000; stroke-opacity:1.000000;
stroke-linecap:round; stroke-linejoin:round;"
 transform="translate(0 0) scale(1 1)">
</g>
<g style="fill:#000000; fill-opacity:0.0; 
stroke:#000000; stroke-width:0.000000; stroke-opacity:1; 
stroke-linecap:round; stroke-linejoin:round;">
</g>
<g style="fill:#000000; fill-opacity:1.0; 
stroke:#000000; stroke-width:21200.000000; stroke-opacity:1; 
stroke-linecap:round; stroke-linejoin:round;">
<rect x="66000000.000000" y="36200000.000000" width="127234143.000000" height="109200000.000000" rx="0.000000" />
</g>
<g style="fill:#FFFFFF; fill-opacity:1.0; 
stroke:#FFFFFF; stroke-width:21200.000000; stroke-opacity:1; 
stroke-linecap:round; stroke-linejoin:round;">
</g>
<g style="fill:#FFFFFF; fill-opacity:1.0; 
stroke:#FFFFFF; stroke-width:100000.000000; stroke-opacity:1; 
stroke-linecap:round; stroke-linejoin:round;">
</g>
<g style="fill:#FFFFFF; fill-opacity:0.0; 
stroke:#FFFFFF; stroke-width:100000.000000; stroke-opacity:1; 
stroke-linecap:round; stroke-linejoin:round;">
<path d="M122400000 120600000
L98600000 122000000
" />
<path d="M172600000 81800000
L173600000 84000000
" />
<path d="M170400000 55600000
L168600000 59000000
" />
<path d="M168800000 112000000
L165200000 118000000
" />
<path d="M173000000 84800000
L172200000 86000000
" />
<path d="M166200000 62400000
L168200000 69800000
" />
<path d="M171400000 101800000
L170200000 103000000
" />
<path d="M169400000 107000000
L168800000 112000000
" />
<path d="M94943202 49925077
L114000000 47800000
" />
<path d="M171400000 104800000
L169400000 107000000
" />
<path d="M167800000 97800000
L171400000 101800000
" />
<path d="M85400000 80000000
L87400000 51800000
" />
<path d="M88000000 96200000
L85400000 80000000
" />
<path d="M172200000 86000000
L169400000 90000000
" />
<path d="M141400000 47600000
L161200000 48400000
" />
<path d="M168600000 59000000
L166200000 62400000
" />
<path d="M165200000 118000000
L153000000 121000000
" />
<path d="M114000000 47800000
L141400000 47600000
" />
<path d="M169400000 90000000
L166800000 94800000
" />
<path d="M87571629 106689194
L88000000 96200000
" />
<path d="M173600000 84000000
L173000000 84800000
" />
<path d="M166800000 94800000
L167800000 97800000
" />
<path d="M87571628.842825 106689193.907544 A6529931.000000 6529931.000000 0.0 0 0 88200000.066560 114199999.944090" />
<path d="M153000000 121000000
L122400000 120600000
" />
<path d="M161200000 48400000
L168600000 51400000
" />
<path d="M168600000 51400000
L170400000 55600000
" />
<path d="M168200000 69800000
L167000000 76800000
" />
<path d="M167000000 76800000
L172600000 81800000
" />
<path d="M88800000 116400000
L88200000 114200000
" />
<path d="M170200000 103000000
L171400000 104800000
" />
<path d="M98600000 122000000
L88800000 116400000
" />
<path d="M94943201.953065 49925077.086829 A5768882.000000 5768882.000000 0.0 0 0 87400000.033900 51800000.022600" />
<g >
</g>
<g >
</g>
<g >
</g>
<g >
</g>
<g >
</g>
<g >
</g>
<g >
</g>
<g >
</g>
<g >
</g>
<g >
</g>
<g >
</g>
<g >
</g>
<g >
</g>
<g >
</g>
<g >
</g>
<g >
</g>
<g >
</g>
<g >
</g>
<g >
</g>
<g >
</g>
<g >
</g>
<g >
</g>
<g >
</g>
<g >
</g>
<g >
</g>
<g >
</g>
<g >
</g>
<g >
</g>
<g >
</g>
<g >
</g>
<g >
</g>
<g >
</g>
<g >
</g>
<g >
</g>
<g >
</g>
<g >
</g>
<g >
</g>
<g >
</g>
<g >
</g>
<g >
</g>
<g >
</g>
<g >
</g>
<g >
</g>
<g >
</g>
<g >
</g>
<g >
</g>
<g >
</g>
<g >
</g>
<g >
</g>
<g >
</g>
<g >
</g>
<g >
</g>
<g >
</g>
<g >
</g>
<g >
</g>
<g >
</g>
<g >
</g>
<g >
</g>
<g >
</g>
<g >
</g>
<g >
</g>
<g >
</g>
<g >
</g>
<g >
</g>
<g >
</g>
<g >
</g>
<g >
</g>
<g >
</g>
<g >
</g>
<g >
</g>
<g >
</g>
<g >
</g>
<g >
</g>
<g >
</g>
<g >
</g>
<g >
</g>
<g >
</g>
<g >
</g>
</g> 
</svg>
