<?xml version="1.0" standalone="no"?>
 <!DOCTYPE svg PUBLIC "-//W3C//DTD SVG 1.1//EN" 
 "http://www.w3.org/Graphics/SVG/1.1/DTD/svg11.dtd"> 
<svg
  xmlns:svg="http://www.w3.org/2000/svg"
  xmlns="http://www.w3.org/2000/svg"
  xmlns:xlink="http://www.w3.org/1999/xlink"
  version="1.1"
  width="29.700220cm" height="21.000720cm" viewBox="0 0 116930 82680">
<title>SVG Picture created as pwm_pcb_larger-NPTH-drl_map.svg date 2023/03/26 17:01:43 </title>
  <desc>Picture generated by PCBNEW </desc>
<g style="fill:#000000; fill-opacity:1.000000;stroke:#000000; stroke-opacity:1.000000;
stroke-linecap:round; stroke-linejoin:round;"
 transform="translate(0 0) scale(1 1)">
</g>
<g style="fill:#000000; fill-opacity:0.0; 
stroke:#000000; stroke-width:0.000000; stroke-opacity:1; 
stroke-linecap:round; stroke-linejoin:round;">
</g>
<g style="fill:#000000; fill-opacity:0.0; 
stroke:#000000; stroke-width:61.303345; stroke-opacity:1; 
stroke-linecap:round; stroke-linejoin:round;">
<path d="M54112 46750
L39522 47608
" />
<path d="M84886 22964
L85499 24313
" />
<path d="M83538 6903
L82434 8987
" />
<path d="M82557 41478
L80350 45156
" />
<path d="M85131 24803
L84641 25539
" />
<path d="M80963 11072
L82189 15608
" />
<path d="M84151 35225
L83415 35961
" />
<path d="M82925 38413
L82557 41478
" />
<path d="M37280 3424
L48962 2121
" />
<path d="M84151 37064
L82925 38413
" />
<path d="M81944 32773
L84151 35225
" />
<path d="M31430 21861
L32656 4573
" />
<path d="M33024 31792
L31430 21861
" />
<path d="M84641 25539
L82925 27991
" />
<path d="M65760 1999
L77898 2489
" />
<path d="M82434 8987
L80963 11072
" />
<path d="M80350 45156
L72871 46995
" />
<path d="M48962 2121
L65760 1999
" />
<path d="M82925 27991
L81331 30934
" />
<path d="M32761 38222
L33024 31792
" />
<path d="M85499 24313
L85131 24803
" />
<path d="M81331 30934
L81944 32773
" />
<path d="M32761.506176 38222.807898 A4003.066138 4003.066138 0.0 0 0 33146.718756 42827.183245" />
<path d="M72871 46995
L54112 46750
" />
<path d="M77898 2489
L82434 4328
" />
<path d="M82434 4328
L83538 6903
" />
<path d="M82189 15608
L81453 19899
" />
<path d="M81453 19899
L84886 22964
" />
<path d="M33514 44175
L33146 42827
" />
<path d="M83415 35961
L84151 37064
" />
<path d="M39522 47608
L33514 44175
" />
<path d="M37280.527081 3424.505450 A3536.517643 3536.517643 0.0 0 0 32656.291974 4573.895928" />
</g>
<g style="fill:#000000; fill-opacity:0.0; 
stroke:#000000; stroke-width:122.606690; stroke-opacity:1; 
stroke-linecap:round; stroke-linejoin:round;">
</g>
<g style="fill:#000000; fill-opacity:0.0; 
stroke:#000000; stroke-width:196.170704; stroke-opacity:1; 
stroke-linecap:round; stroke-linejoin:round;">
<path d="M33759 39271
L35721 41233
" />
<path d="M35721 39271
L33759 41233
" />
<path d="M33759 39271
L35721 41233
" />
<path d="M35721 39271
L33759 41233
" />
<path d="M35164 5471
L37125 7433
" />
<path d="M37125 5471
L35164 7433
" />
<path d="M77898 4819
L79859 6780
" />
<path d="M79859 4819
L77898 6780
" />
<path d="M78143 40375
L80105 42336
" />
<path d="M80105 40375
L78143 42336
" />
</g>
<g style="fill:#000000; fill-opacity:0.0; 
stroke:#000000; stroke-width:122.606690; stroke-opacity:1; 
stroke-linecap:round; stroke-linejoin:round;">
</g>
<g style="fill:#000000; fill-opacity:0.0; 
stroke:#000000; stroke-width:78.739856; stroke-opacity:1; 
stroke-linecap:round; stroke-linejoin:round;">
<text x="32186.975000" y="48899.337853"
textLength="5853.018410" font-size="1049.868828" lengthAdjust="spacingAndGlyphs"
text-anchor="start" opacity="0">Drill Map:</text>
<g class="stroked-text"><desc>Drill Map:</desc>
<path d="M32413 48861
L32413 48074
L32601 48074
L32713 48111
L32788 48186
L32826 48261
L32863 48411
L32863 48524
L32826 48674
L32788 48749
L32713 48824
L32601 48861
L32413 48861
" />
<path d="M33201 48861
L33201 48336
" />
<path d="M33201 48486
L33238 48411
L33276 48374
L33351 48336
L33426 48336
" />
<path d="M33688 48861
L33688 48336
" />
<path d="M33688 48074
L33651 48111
L33688 48149
L33726 48111
L33688 48074
L33688 48149
" />
<path d="M34176 48861
L34101 48824
L34063 48749
L34063 48074
" />
<path d="M34588 48861
L34513 48824
L34476 48749
L34476 48074
" />
<path d="M35488 48861
L35488 48074
L35750 48636
L36013 48074
L36013 48861
" />
<path d="M36725 48861
L36725 48449
L36688 48374
L36613 48336
L36463 48336
L36388 48374
" />
<path d="M36725 48824
L36650 48861
L36463 48861
L36388 48824
L36350 48749
L36350 48674
L36388 48599
L36463 48561
L36650 48561
L36725 48524
" />
<path d="M37100 48336
L37100 49124
" />
<path d="M37100 48374
L37175 48336
L37325 48336
L37400 48374
L37438 48411
L37475 48486
L37475 48711
L37438 48786
L37400 48824
L37325 48861
L37175 48861
L37100 48824
" />
<path d="M37813 48786
L37850 48824
L37813 48861
L37775 48824
L37813 48786
L37813 48861
" />
<path d="M37813 48374
L37850 48411
L37813 48449
L37775 48411
L37813 48374
L37813 48449
" />
</g><path d="M30612 49765
L31399 50552
" />
<path d="M31399 49765
L30612 50552
" />
</g>
<g style="fill:#000000; fill-opacity:0.0; 
stroke:#000000; stroke-width:122.606690; stroke-opacity:1; 
stroke-linecap:round; stroke-linejoin:round;">
</g>
<g style="fill:#000000; fill-opacity:0.0; 
stroke:#000000; stroke-width:78.739856; stroke-opacity:1; 
stroke-linecap:round; stroke-linejoin:round;">
<text x="32186.975000" y="50552.880951"
textLength="26250.470016" font-size="1049.868828" lengthAdjust="spacingAndGlyphs"
text-anchor="start" opacity="0">3.200mm / 0.1260" (5 holes) (not plated)</text>
<g class="stroked-text"><desc>3.200mm / 0.1260" (5 holes) (not plated)</desc>
<path d="M32338 49727
L32826 49727
L32563 50027
L32676 50027
L32751 50065
L32788 50102
L32826 50177
L32826 50365
L32788 50440
L32751 50477
L32676 50515
L32451 50515
L32376 50477
L32338 50440
" />
<path d="M33163 50440
L33201 50477
L33163 50515
L33126 50477
L33163 50440
L33163 50515
" />
<path d="M33501 49802
L33538 49765
L33613 49727
L33801 49727
L33876 49765
L33913 49802
L33951 49877
L33951 49952
L33913 50065
L33463 50515
L33951 50515
" />
<path d="M34438 49727
L34513 49727
L34588 49765
L34626 49802
L34663 49877
L34701 50027
L34701 50215
L34663 50365
L34626 50440
L34588 50477
L34513 50515
L34438 50515
L34363 50477
L34326 50440
L34288 50365
L34251 50215
L34251 50027
L34288 49877
L34326 49802
L34363 49765
L34438 49727
" />
<path d="M35188 49727
L35263 49727
L35338 49765
L35375 49802
L35413 49877
L35450 50027
L35450 50215
L35413 50365
L35375 50440
L35338 50477
L35263 50515
L35188 50515
L35113 50477
L35075 50440
L35038 50365
L35000 50215
L35000 50027
L35038 49877
L35075 49802
L35113 49765
L35188 49727
" />
<path d="M35788 50515
L35788 49990
" />
<path d="M35788 50065
L35825 50027
L35900 49990
L36013 49990
L36088 50027
L36125 50102
L36125 50515
" />
<path d="M36125 50102
L36163 50027
L36238 49990
L36350 49990
L36425 50027
L36463 50102
L36463 50515
" />
<path d="M36838 50515
L36838 49990
" />
<path d="M36838 50065
L36875 50027
L36950 49990
L37063 49990
L37138 50027
L37175 50102
L37175 50515
" />
<path d="M37175 50102
L37213 50027
L37288 49990
L37400 49990
L37475 50027
L37513 50102
L37513 50515
" />
<path d="M39050 49690
L38375 50702
" />
<path d="M40062 49727
L40137 49727
L40212 49765
L40250 49802
L40287 49877
L40325 50027
L40325 50215
L40287 50365
L40250 50440
L40212 50477
L40137 50515
L40062 50515
L39987 50477
L39950 50440
L39912 50365
L39875 50215
L39875 50027
L39912 49877
L39950 49802
L39987 49765
L40062 49727
" />
<path d="M40662 50440
L40700 50477
L40662 50515
L40625 50477
L40662 50440
L40662 50515
" />
<path d="M41450 50515
L41000 50515
" />
<path d="M41225 50515
L41225 49727
L41150 49840
L41075 49915
L41000 49952
" />
<path d="M41750 49802
L41787 49765
L41862 49727
L42050 49727
L42125 49765
L42162 49802
L42200 49877
L42200 49952
L42162 50065
L41712 50515
L42200 50515
" />
<path d="M42875 49727
L42725 49727
L42650 49765
L42612 49802
L42537 49915
L42500 50065
L42500 50365
L42537 50440
L42575 50477
L42650 50515
L42800 50515
L42875 50477
L42912 50440
L42950 50365
L42950 50177
L42912 50102
L42875 50065
L42800 50027
L42650 50027
L42575 50065
L42537 50102
L42500 50177
" />
<path d="M43437 49727
L43512 49727
L43587 49765
L43624 49802
L43662 49877
L43699 50027
L43699 50215
L43662 50365
L43624 50440
L43587 50477
L43512 50515
L43437 50515
L43362 50477
L43324 50440
L43287 50365
L43249 50215
L43249 50027
L43287 49877
L43324 49802
L43362 49765
L43437 49727
" />
<path d="M43999 49727
L43999 49877
" />
<path d="M44299 49727
L44299 49877
" />
<path d="M45462 50815
L45424 50777
L45349 50665
L45312 50590
L45274 50477
L45237 50290
L45237 50140
L45274 49952
L45312 49840
L45349 49765
L45424 49652
L45462 49615
" />
<path d="M46137 49727
L45762 49727
L45724 50102
L45762 50065
L45837 50027
L46024 50027
L46099 50065
L46137 50102
L46174 50177
L46174 50365
L46137 50440
L46099 50477
L46024 50515
L45837 50515
L45762 50477
L45724 50440
" />
<path d="M47111 50515
L47111 49727
" />
<path d="M47449 50515
L47449 50102
L47411 50027
L47336 49990
L47224 49990
L47149 50027
L47111 50065
" />
<path d="M47936 50515
L47861 50477
L47824 50440
L47786 50365
L47786 50140
L47824 50065
L47861 50027
L47936 49990
L48049 49990
L48124 50027
L48161 50065
L48199 50140
L48199 50365
L48161 50440
L48124 50477
L48049 50515
L47936 50515
" />
<path d="M48649 50515
L48574 50477
L48536 50402
L48536 49727
" />
<path d="M49249 50477
L49174 50515
L49024 50515
L48949 50477
L48911 50402
L48911 50102
L48949 50027
L49024 49990
L49174 49990
L49249 50027
L49286 50102
L49286 50177
L48911 50252
" />
<path d="M49586 50477
L49661 50515
L49811 50515
L49886 50477
L49924 50402
L49924 50365
L49886 50290
L49811 50252
L49699 50252
L49624 50215
L49586 50140
L49586 50102
L49624 50027
L49699 49990
L49811 49990
L49886 50027
" />
<path d="M50186 50815
L50224 50777
L50299 50665
L50336 50590
L50374 50477
L50411 50290
L50411 50140
L50374 49952
L50336 49840
L50299 49765
L50224 49652
L50186 49615
" />
<path d="M51611 50815
L51573 50777
L51498 50665
L51461 50590
L51423 50477
L51386 50290
L51386 50140
L51423 49952
L51461 49840
L51498 49765
L51573 49652
L51611 49615
" />
<path d="M51911 49990
L51911 50515
" />
<path d="M51911 50065
L51948 50027
L52023 49990
L52136 49990
L52211 50027
L52248 50102
L52248 50515
" />
<path d="M52736 50515
L52661 50477
L52623 50440
L52586 50365
L52586 50140
L52623 50065
L52661 50027
L52736 49990
L52848 49990
L52923 50027
L52961 50065
L52998 50140
L52998 50365
L52961 50440
L52923 50477
L52848 50515
L52736 50515
" />
<path d="M53223 49990
L53523 49990
" />
<path d="M53336 49727
L53336 50402
L53373 50477
L53448 50515
L53523 50515
" />
<path d="M54386 49990
L54386 50777
" />
<path d="M54386 50027
L54461 49990
L54611 49990
L54686 50027
L54723 50065
L54761 50140
L54761 50365
L54723 50440
L54686 50477
L54611 50515
L54461 50515
L54386 50477
" />
<path d="M55210 50515
L55135 50477
L55098 50402
L55098 49727
" />
<path d="M55848 50515
L55848 50102
L55810 50027
L55735 49990
L55585 49990
L55510 50027
" />
<path d="M55848 50477
L55773 50515
L55585 50515
L55510 50477
L55473 50402
L55473 50327
L55510 50252
L55585 50215
L55773 50215
L55848 50177
" />
<path d="M56110 49990
L56410 49990
" />
<path d="M56223 49727
L56223 50402
L56260 50477
L56335 50515
L56410 50515
" />
<path d="M56973 50477
L56898 50515
L56748 50515
L56673 50477
L56635 50402
L56635 50102
L56673 50027
L56748 49990
L56898 49990
L56973 50027
L57010 50102
L57010 50177
L56635 50252
" />
<path d="M57685 50515
L57685 49727
" />
<path d="M57685 50477
L57610 50515
L57460 50515
L57385 50477
L57348 50440
L57310 50365
L57310 50140
L57348 50065
L57385 50027
L57460 49990
L57610 49990
L57685 50027
" />
<path d="M57985 50815
L58023 50777
L58098 50665
L58135 50590
L58173 50477
L58210 50290
L58210 50140
L58173 49952
L58135 49840
L58098 49765
L58023 49652
L57985 49615
" />
</g></g> 
</svg>
