<?xml version="1.0" standalone="no"?>
 <!DOCTYPE svg PUBLIC "-//W3C//DTD SVG 1.1//EN" 
 "http://www.w3.org/Graphics/SVG/1.1/DTD/svg11.dtd"> 
<svg
  xmlns:svg="http://www.w3.org/2000/svg"
  xmlns="http://www.w3.org/2000/svg"
  xmlns:xlink="http://www.w3.org/1999/xlink"
  version="1.1"
  width="29.700220cm" height="21.000720cm" viewBox="0 0 116930 82680">
<title>SVG Picture created as pwm_pcb_larger-PTH-drl_map.svg date 2023/03/26 17:01:43 </title>
  <desc>Picture generated by PCBNEW </desc>
<g style="fill:#000000; fill-opacity:1.000000;stroke:#000000; stroke-opacity:1.000000;
stroke-linecap:round; stroke-linejoin:round;"
 transform="translate(0 0) scale(1 1)">
</g>
<g style="fill:#000000; fill-opacity:0.0; 
stroke:#000000; stroke-width:0.000000; stroke-opacity:1; 
stroke-linecap:round; stroke-linejoin:round;">
</g>
<g style="fill:#000000; fill-opacity:0.0; 
stroke:#000000; stroke-width:61.303345; stroke-opacity:1; 
stroke-linecap:round; stroke-linejoin:round;">
<path d="M54112 46750
L39522 47608
" />
<path d="M84886 22964
L85499 24313
" />
<path d="M83538 6903
L82434 8987
" />
<path d="M82557 41478
L80350 45156
" />
<path d="M85131 24803
L84641 25539
" />
<path d="M80963 11072
L82189 15608
" />
<path d="M84151 35225
L83415 35961
" />
<path d="M82925 38413
L82557 41478
" />
<path d="M37280 3424
L48962 2121
" />
<path d="M84151 37064
L82925 38413
" />
<path d="M81944 32773
L84151 35225
" />
<path d="M31430 21861
L32656 4573
" />
<path d="M33024 31792
L31430 21861
" />
<path d="M84641 25539
L82925 27991
" />
<path d="M65760 1999
L77898 2489
" />
<path d="M82434 8987
L80963 11072
" />
<path d="M80350 45156
L72871 46995
" />
<path d="M48962 2121
L65760 1999
" />
<path d="M82925 27991
L81331 30934
" />
<path d="M32761 38222
L33024 31792
" />
<path d="M85499 24313
L85131 24803
" />
<path d="M81331 30934
L81944 32773
" />
<path d="M32761.506176 38222.807898 A4003.066138 4003.066138 0.0 0 0 33146.718756 42827.183245" />
<path d="M72871 46995
L54112 46750
" />
<path d="M77898 2489
L82434 4328
" />
<path d="M82434 4328
L83538 6903
" />
<path d="M82189 15608
L81453 19899
" />
<path d="M81453 19899
L84886 22964
" />
<path d="M33514 44175
L33146 42827
" />
<path d="M83415 35961
L84151 37064
" />
<path d="M39522 47608
L33514 44175
" />
<path d="M37280.527081 3424.505450 A3536.517643 3536.517643 0.0 0 0 32656.291974 4573.895928" />
</g>
<g style="fill:#000000; fill-opacity:0.0; 
stroke:#000000; stroke-width:122.606690; stroke-opacity:1; 
stroke-linecap:round; stroke-linejoin:round;">
</g>
<g style="fill:#000000; fill-opacity:0.0; 
stroke:#000000; stroke-width:24.521338; stroke-opacity:1; 
stroke-linecap:round; stroke-linejoin:round;">
<path d="M43727 19901
L43972 20147
" />
<path d="M43972 19901
L43727 20147
" />
<path d="M48202 11196
L48447 11441
" />
<path d="M48447 11196
L48202 11441
" />
<path d="M48406 31621
L48651 31866
" />
<path d="M48651 31621
L48406 31866
" />
<path d="M50698 9562
L50944 9807
" />
<path d="M50944 9562
L50698 9807
" />
<path d="M50721 14127
L50967 14372
" />
<path d="M50967 14127
L50721 14372
" />
<path d="M52891 3764
L53136 4009
" />
<path d="M53136 3764
L52891 4009
" />
<path d="M53824 9795
L54069 10040
" />
<path d="M54069 9795
L53824 10040
" />
<path d="M56596 17838
L56841 18084
" />
<path d="M56841 17838
L56596 18084
" />
<path d="M60271 39849
L60517 40094
" />
<path d="M60517 39849
L60271 40094
" />
<path d="M60325 5677
L60570 5922
" />
<path d="M60570 5677
L60325 5922
" />
<path d="M63674 11333
L63919 11578
" />
<path d="M63919 11333
L63674 11578
" />
<path d="M70708 28487
L70953 28733
" />
<path d="M70953 28487
L70708 28733
" />
<path d="M71262 23704
L71507 23949
" />
<path d="M71507 23704
L71262 23949
" />
<path d="M71644 14032
L71890 14277
" />
<path d="M71890 14032
L71644 14277
" />
<path d="M72102 11848
L72347 12093
" />
<path d="M72347 11848
L72102 12093
" />
<path d="M73108 6997
L73353 7242
" />
<path d="M73353 6997
L73108 7242
" />
<path d="M76309 18638
L76554 18883
" />
<path d="M76554 18638
L76309 18883
" />
</g>
<g style="fill:#000000; fill-opacity:0.0; 
stroke:#000000; stroke-width:46.713149; stroke-opacity:1; 
stroke-linecap:round; stroke-linejoin:round;">
<circle cx="47200.510587" cy="10438.173910" r="233.565745" /> 
<circle cx="47200.510587" cy="11995.278877" r="233.565745" /> 
<circle cx="47200.510587" cy="13552.383843" r="233.565745" /> 
<circle cx="47200.510587" cy="15109.488809" r="233.565745" /> 
<circle cx="47200.510587" cy="16666.593776" r="233.565745" /> 
<circle cx="47200.510587" cy="18223.698742" r="233.565745" /> 
<circle cx="47200.510587" cy="19780.803709" r="233.565745" /> 
<circle cx="47200.510587" cy="21337.908675" r="233.565745" /> 
<circle cx="47200.510587" cy="22895.013642" r="233.565745" /> 
<circle cx="47200.510587" cy="24452.118608" r="233.565745" /> 
<circle cx="47200.510587" cy="26009.223575" r="233.565745" /> 
<circle cx="47200.510587" cy="27566.328541" r="233.565745" /> 
<circle cx="47200.510587" cy="29123.433507" r="233.565745" /> 
<circle cx="47200.510587" cy="30680.538474" r="233.565745" /> 
<circle cx="47200.510587" cy="32237.643440" r="233.565745" /> 
<circle cx="62771.560252" cy="10438.173910" r="233.565745" /> 
<circle cx="62771.560252" cy="11995.278877" r="233.565745" /> 
<circle cx="62771.560252" cy="13552.383843" r="233.565745" /> 
<circle cx="62771.560252" cy="15109.488809" r="233.565745" /> 
<circle cx="62771.560252" cy="16666.593776" r="233.565745" /> 
<circle cx="62771.560252" cy="18223.698742" r="233.565745" /> 
<circle cx="62771.560252" cy="19780.803709" r="233.565745" /> 
<circle cx="62771.560252" cy="21337.908675" r="233.565745" /> 
<circle cx="62771.560252" cy="22895.013642" r="233.565745" /> 
<circle cx="62771.560252" cy="24452.118608" r="233.565745" /> 
<circle cx="62771.560252" cy="26009.223575" r="233.565745" /> 
<circle cx="62771.560252" cy="27566.328541" r="233.565745" /> 
<circle cx="62771.560252" cy="29123.433507" r="233.565745" /> 
<circle cx="62771.560252" cy="30680.538474" r="233.565745" /> 
<circle cx="62771.560252" cy="32237.643440" r="233.565745" /> 
</g>
<g style="fill:#000000; fill-opacity:0.0; 
stroke:#000000; stroke-width:85.824683; stroke-opacity:1; 
stroke-linecap:round; stroke-linejoin:round;">
<path d="M39079 11378
L39079 12236
" />
<path d="M38650 11807
L39508 11807
" />
<path d="M39079 14492
L39079 15351
" />
<path d="M38650 14921
L39508 14921
" />
<path d="M39079 31437
L39079 32295
" />
<path d="M38650 31866
L39508 31866
" />
<path d="M39079 34551
L39079 35409
" />
<path d="M38650 34980
L39508 34980
" />
<path d="M39185 40558
L39185 41417
" />
<path d="M38755 40988
L39614 40988
" />
<path d="M41520 40558
L41520 41417
" />
<path d="M41091 40988
L41949 40988
" />
<path d="M43856 40558
L43856 41417
" />
<path d="M43427 40988
L44285 40988
" />
<path d="M46192 40558
L46192 41417
" />
<path d="M45762 40988
L46621 40988
" />
<path d="M48527 40558
L48527 41417
" />
<path d="M48098 40988
L48956 40988
" />
<path d="M50863 40558
L50863 41417
" />
<path d="M50434 40988
L51292 40988
" />
<path d="M53199 40558
L53199 41417
" />
<path d="M52769 40988
L53628 40988
" />
<path d="M55534 40558
L55534 41417
" />
<path d="M55105 40988
L55963 40988
" />
<path d="M57870 40558
L57870 41417
" />
<path d="M57441 40988
L58299 40988
" />
<path d="M60206 40558
L60206 41417
" />
<path d="M59776 40988
L60635 40988
" />
<path d="M62541 40558
L62541 41417
" />
<path d="M62112 40988
L62970 40988
" />
<path d="M64877 40558
L64877 41417
" />
<path d="M64448 40988
L65306 40988
" />
<path d="M67212 40558
L67212 41417
" />
<path d="M66783 40988
L67642 40988
" />
<path d="M69548 40558
L69548 41417
" />
<path d="M69119 40988
L69977 40988
" />
<path d="M71884 40558
L71884 41417
" />
<path d="M71455 40988
L72313 40988
" />
<path d="M74219 40558
L74219 41417
" />
<path d="M73790 40988
L74649 40988
" />
</g>
<g style="fill:#000000; fill-opacity:0.0; 
stroke:#000000; stroke-width:122.606690; stroke-opacity:1; 
stroke-linecap:round; stroke-linejoin:round;">
</g>
<g style="fill:#000000; fill-opacity:0.0; 
stroke:#000000; stroke-width:78.739856; stroke-opacity:1; 
stroke-linecap:round; stroke-linejoin:round;">
<text x="32186.975000" y="48899.337853"
textLength="5866.233572" font-size="1049.868828" lengthAdjust="spacingAndGlyphs"
text-anchor="start" opacity="0">Drill Map:</text>
<g class="stroked-text"><desc>Drill Map:</desc>
<path d="M32413 48861
L32413 48074
L32601 48074
L32713 48111
L32788 48186
L32826 48261
L32863 48411
L32863 48524
L32826 48674
L32788 48749
L32713 48824
L32601 48861
L32413 48861
" />
<path d="M33201 48861
L33201 48336
" />
<path d="M33201 48486
L33238 48411
L33276 48374
L33351 48336
L33426 48336
" />
<path d="M33688 48861
L33688 48336
" />
<path d="M33688 48074
L33651 48111
L33688 48149
L33726 48111
L33688 48074
L33688 48149
" />
<path d="M34176 48861
L34101 48824
L34063 48749
L34063 48074
" />
<path d="M34588 48861
L34513 48824
L34476 48749
L34476 48074
" />
<path d="M35488 48861
L35488 48074
L35750 48636
L36013 48074
L36013 48861
" />
<path d="M36725 48861
L36725 48449
L36688 48374
L36613 48336
L36463 48336
L36388 48374
" />
<path d="M36725 48824
L36650 48861
L36463 48861
L36388 48824
L36350 48749
L36350 48674
L36388 48599
L36463 48561
L36650 48561
L36725 48524
" />
<path d="M37100 48336
L37100 49124
" />
<path d="M37100 48374
L37175 48336
L37325 48336
L37400 48374
L37438 48411
L37475 48486
L37475 48711
L37438 48786
L37400 48824
L37325 48861
L37175 48861
L37100 48824
" />
<path d="M37813 48786
L37850 48824
L37813 48861
L37775 48824
L37813 48786
L37813 48861
" />
<path d="M37813 48374
L37850 48411
L37813 48449
L37775 48411
L37813 48374
L37813 48449
" />
</g></g>
<g style="fill:#000000; fill-opacity:0.0; 
stroke:#000000; stroke-width:24.521338; stroke-opacity:1; 
stroke-linecap:round; stroke-linejoin:round;">
<path d="M31154 50036
L31399 50281
" />
<path d="M31399 50036
L31154 50281
" />
</g>
<g style="fill:#000000; fill-opacity:0.0; 
stroke:#000000; stroke-width:122.606690; stroke-opacity:1; 
stroke-linecap:round; stroke-linejoin:round;">
</g>
<g style="fill:#000000; fill-opacity:0.0; 
stroke:#000000; stroke-width:78.739856; stroke-opacity:1; 
stroke-linecap:round; stroke-linejoin:round;">
<text x="32186.975000" y="50552.880951"
textLength="19201.350391" font-size="1049.868828" lengthAdjust="spacingAndGlyphs"
text-anchor="start" opacity="0">0.400mm / 0.0157" (17 holes)</text>
<g class="stroked-text"><desc>0.400mm / 0.0157" (17 holes)</desc>
<path d="M32563 49727
L32638 49727
L32713 49765
L32751 49802
L32788 49877
L32826 50027
L32826 50215
L32788 50365
L32751 50440
L32713 50477
L32638 50515
L32563 50515
L32488 50477
L32451 50440
L32413 50365
L32376 50215
L32376 50027
L32413 49877
L32451 49802
L32488 49765
L32563 49727
" />
<path d="M33163 50440
L33201 50477
L33163 50515
L33126 50477
L33163 50440
L33163 50515
" />
<path d="M33876 49990
L33876 50515
" />
<path d="M33688 49690
L33501 50252
L33988 50252
" />
<path d="M34438 49727
L34513 49727
L34588 49765
L34626 49802
L34663 49877
L34701 50027
L34701 50215
L34663 50365
L34626 50440
L34588 50477
L34513 50515
L34438 50515
L34363 50477
L34326 50440
L34288 50365
L34251 50215
L34251 50027
L34288 49877
L34326 49802
L34363 49765
L34438 49727
" />
<path d="M35188 49727
L35263 49727
L35338 49765
L35375 49802
L35413 49877
L35450 50027
L35450 50215
L35413 50365
L35375 50440
L35338 50477
L35263 50515
L35188 50515
L35113 50477
L35075 50440
L35038 50365
L35000 50215
L35000 50027
L35038 49877
L35075 49802
L35113 49765
L35188 49727
" />
<path d="M35788 50515
L35788 49990
" />
<path d="M35788 50065
L35825 50027
L35900 49990
L36013 49990
L36088 50027
L36125 50102
L36125 50515
" />
<path d="M36125 50102
L36163 50027
L36238 49990
L36350 49990
L36425 50027
L36463 50102
L36463 50515
" />
<path d="M36838 50515
L36838 49990
" />
<path d="M36838 50065
L36875 50027
L36950 49990
L37063 49990
L37138 50027
L37175 50102
L37175 50515
" />
<path d="M37175 50102
L37213 50027
L37288 49990
L37400 49990
L37475 50027
L37513 50102
L37513 50515
" />
<path d="M39050 49690
L38375 50702
" />
<path d="M40062 49727
L40137 49727
L40212 49765
L40250 49802
L40287 49877
L40325 50027
L40325 50215
L40287 50365
L40250 50440
L40212 50477
L40137 50515
L40062 50515
L39987 50477
L39950 50440
L39912 50365
L39875 50215
L39875 50027
L39912 49877
L39950 49802
L39987 49765
L40062 49727
" />
<path d="M40662 50440
L40700 50477
L40662 50515
L40625 50477
L40662 50440
L40662 50515
" />
<path d="M41187 49727
L41262 49727
L41337 49765
L41375 49802
L41412 49877
L41450 50027
L41450 50215
L41412 50365
L41375 50440
L41337 50477
L41262 50515
L41187 50515
L41112 50477
L41075 50440
L41037 50365
L41000 50215
L41000 50027
L41037 49877
L41075 49802
L41112 49765
L41187 49727
" />
<path d="M42200 50515
L41750 50515
" />
<path d="M41975 50515
L41975 49727
L41900 49840
L41825 49915
L41750 49952
" />
<path d="M42912 49727
L42537 49727
L42500 50102
L42537 50065
L42612 50027
L42800 50027
L42875 50065
L42912 50102
L42950 50177
L42950 50365
L42912 50440
L42875 50477
L42800 50515
L42612 50515
L42537 50477
L42500 50440
" />
<path d="M43212 49727
L43737 49727
L43399 50515
" />
<path d="M43999 49727
L43999 49877
" />
<path d="M44299 49727
L44299 49877
" />
<path d="M45462 50815
L45424 50777
L45349 50665
L45312 50590
L45274 50477
L45237 50290
L45237 50140
L45274 49952
L45312 49840
L45349 49765
L45424 49652
L45462 49615
" />
<path d="M46174 50515
L45724 50515
" />
<path d="M45949 50515
L45949 49727
L45874 49840
L45799 49915
L45724 49952
" />
<path d="M46437 49727
L46962 49727
L46624 50515
" />
<path d="M47861 50515
L47861 49727
" />
<path d="M48199 50515
L48199 50102
L48161 50027
L48086 49990
L47974 49990
L47899 50027
L47861 50065
" />
<path d="M48686 50515
L48611 50477
L48574 50440
L48536 50365
L48536 50140
L48574 50065
L48611 50027
L48686 49990
L48799 49990
L48874 50027
L48911 50065
L48949 50140
L48949 50365
L48911 50440
L48874 50477
L48799 50515
L48686 50515
" />
<path d="M49399 50515
L49324 50477
L49286 50402
L49286 49727
" />
<path d="M49999 50477
L49924 50515
L49774 50515
L49699 50477
L49661 50402
L49661 50102
L49699 50027
L49774 49990
L49924 49990
L49999 50027
L50036 50102
L50036 50177
L49661 50252
" />
<path d="M50336 50477
L50411 50515
L50561 50515
L50636 50477
L50674 50402
L50674 50365
L50636 50290
L50561 50252
L50449 50252
L50374 50215
L50336 50140
L50336 50102
L50374 50027
L50449 49990
L50561 49990
L50636 50027
" />
<path d="M50936 50815
L50974 50777
L51048 50665
L51086 50590
L51123 50477
L51161 50290
L51161 50140
L51123 49952
L51086 49840
L51048 49765
L50974 49652
L50936 49615
" />
</g></g>
<g style="fill:#000000; fill-opacity:0.0; 
stroke:#000000; stroke-width:46.713149; stroke-opacity:1; 
stroke-linecap:round; stroke-linejoin:round;">
<circle cx="31166.007633" cy="51198.550464" r="233.565745" /> 
</g>
<g style="fill:#000000; fill-opacity:0.0; 
stroke:#000000; stroke-width:122.606690; stroke-opacity:1; 
stroke-linecap:round; stroke-linejoin:round;">
</g>
<g style="fill:#000000; fill-opacity:0.0; 
stroke:#000000; stroke-width:78.739856; stroke-opacity:1; 
stroke-linecap:round; stroke-linejoin:round;">
<text x="32186.975000" y="51592.250968"
textLength="19201.350391" font-size="1049.868828" lengthAdjust="spacingAndGlyphs"
text-anchor="start" opacity="0">0.762mm / 0.0300" (30 holes)</text>
<g class="stroked-text"><desc>0.762mm / 0.0300" (30 holes)</desc>
<path d="M32563 50767
L32638 50767
L32713 50804
L32751 50842
L32788 50917
L32826 51067
L32826 51254
L32788 51404
L32751 51479
L32713 51517
L32638 51554
L32563 51554
L32488 51517
L32451 51479
L32413 51404
L32376 51254
L32376 51067
L32413 50917
L32451 50842
L32488 50804
L32563 50767
" />
<path d="M33163 51479
L33201 51517
L33163 51554
L33126 51517
L33163 51479
L33163 51554
" />
<path d="M33463 50767
L33988 50767
L33651 51554
" />
<path d="M34626 50767
L34476 50767
L34401 50804
L34363 50842
L34288 50954
L34251 51104
L34251 51404
L34288 51479
L34326 51517
L34401 51554
L34551 51554
L34626 51517
L34663 51479
L34701 51404
L34701 51217
L34663 51142
L34626 51104
L34551 51067
L34401 51067
L34326 51104
L34288 51142
L34251 51217
" />
<path d="M35000 50842
L35038 50804
L35113 50767
L35300 50767
L35375 50804
L35413 50842
L35450 50917
L35450 50992
L35413 51104
L34963 51554
L35450 51554
" />
<path d="M35788 51554
L35788 51029
" />
<path d="M35788 51104
L35825 51067
L35900 51029
L36013 51029
L36088 51067
L36125 51142
L36125 51554
" />
<path d="M36125 51142
L36163 51067
L36238 51029
L36350 51029
L36425 51067
L36463 51142
L36463 51554
" />
<path d="M36838 51554
L36838 51029
" />
<path d="M36838 51104
L36875 51067
L36950 51029
L37063 51029
L37138 51067
L37175 51142
L37175 51554
" />
<path d="M37175 51142
L37213 51067
L37288 51029
L37400 51029
L37475 51067
L37513 51142
L37513 51554
" />
<path d="M39050 50729
L38375 51742
" />
<path d="M40062 50767
L40137 50767
L40212 50804
L40250 50842
L40287 50917
L40325 51067
L40325 51254
L40287 51404
L40250 51479
L40212 51517
L40137 51554
L40062 51554
L39987 51517
L39950 51479
L39912 51404
L39875 51254
L39875 51067
L39912 50917
L39950 50842
L39987 50804
L40062 50767
" />
<path d="M40662 51479
L40700 51517
L40662 51554
L40625 51517
L40662 51479
L40662 51554
" />
<path d="M41187 50767
L41262 50767
L41337 50804
L41375 50842
L41412 50917
L41450 51067
L41450 51254
L41412 51404
L41375 51479
L41337 51517
L41262 51554
L41187 51554
L41112 51517
L41075 51479
L41037 51404
L41000 51254
L41000 51067
L41037 50917
L41075 50842
L41112 50804
L41187 50767
" />
<path d="M41712 50767
L42200 50767
L41937 51067
L42050 51067
L42125 51104
L42162 51142
L42200 51217
L42200 51404
L42162 51479
L42125 51517
L42050 51554
L41825 51554
L41750 51517
L41712 51479
" />
<path d="M42687 50767
L42762 50767
L42837 50804
L42875 50842
L42912 50917
L42950 51067
L42950 51254
L42912 51404
L42875 51479
L42837 51517
L42762 51554
L42687 51554
L42612 51517
L42575 51479
L42537 51404
L42500 51254
L42500 51067
L42537 50917
L42575 50842
L42612 50804
L42687 50767
" />
<path d="M43437 50767
L43512 50767
L43587 50804
L43624 50842
L43662 50917
L43699 51067
L43699 51254
L43662 51404
L43624 51479
L43587 51517
L43512 51554
L43437 51554
L43362 51517
L43324 51479
L43287 51404
L43249 51254
L43249 51067
L43287 50917
L43324 50842
L43362 50804
L43437 50767
" />
<path d="M43999 50767
L43999 50917
" />
<path d="M44299 50767
L44299 50917
" />
<path d="M45462 51854
L45424 51817
L45349 51704
L45312 51629
L45274 51517
L45237 51329
L45237 51179
L45274 50992
L45312 50879
L45349 50804
L45424 50692
L45462 50654
" />
<path d="M45687 50767
L46174 50767
L45912 51067
L46024 51067
L46099 51104
L46137 51142
L46174 51217
L46174 51404
L46137 51479
L46099 51517
L46024 51554
L45799 51554
L45724 51517
L45687 51479
" />
<path d="M46662 50767
L46737 50767
L46812 50804
L46849 50842
L46887 50917
L46924 51067
L46924 51254
L46887 51404
L46849 51479
L46812 51517
L46737 51554
L46662 51554
L46587 51517
L46549 51479
L46512 51404
L46474 51254
L46474 51067
L46512 50917
L46549 50842
L46587 50804
L46662 50767
" />
<path d="M47861 51554
L47861 50767
" />
<path d="M48199 51554
L48199 51142
L48161 51067
L48086 51029
L47974 51029
L47899 51067
L47861 51104
" />
<path d="M48686 51554
L48611 51517
L48574 51479
L48536 51404
L48536 51179
L48574 51104
L48611 51067
L48686 51029
L48799 51029
L48874 51067
L48911 51104
L48949 51179
L48949 51404
L48911 51479
L48874 51517
L48799 51554
L48686 51554
" />
<path d="M49399 51554
L49324 51517
L49286 51442
L49286 50767
" />
<path d="M49999 51517
L49924 51554
L49774 51554
L49699 51517
L49661 51442
L49661 51142
L49699 51067
L49774 51029
L49924 51029
L49999 51067
L50036 51142
L50036 51217
L49661 51292
" />
<path d="M50336 51517
L50411 51554
L50561 51554
L50636 51517
L50674 51442
L50674 51404
L50636 51329
L50561 51292
L50449 51292
L50374 51254
L50336 51179
L50336 51142
L50374 51067
L50449 51029
L50561 51029
L50636 51067
" />
<path d="M50936 51854
L50974 51817
L51048 51704
L51086 51629
L51123 51517
L51161 51329
L51161 51179
L51123 50992
L51086 50879
L51048 50804
L50974 50692
L50936 50654
" />
</g><path d="M31005 51844
L31005 52631
" />
<path d="M30612 52237
L31399 52237
" />
</g>
<g style="fill:#000000; fill-opacity:0.0; 
stroke:#000000; stroke-width:122.606690; stroke-opacity:1; 
stroke-linecap:round; stroke-linejoin:round;">
</g>
<g style="fill:#000000; fill-opacity:0.0; 
stroke:#000000; stroke-width:78.739856; stroke-opacity:1; 
stroke-linecap:round; stroke-linejoin:round;">
<text x="32186.975000" y="52631.620985"
textLength="19201.350391" font-size="1049.868828" lengthAdjust="spacingAndGlyphs"
text-anchor="start" opacity="0">1.400mm / 0.0551" (20 holes)</text>
<g class="stroked-text"><desc>1.400mm / 0.0551" (20 holes)</desc>
<path d="M32826 52594
L32376 52594
" />
<path d="M32601 52594
L32601 51806
L32526 51919
L32451 51994
L32376 52031
" />
<path d="M33163 52519
L33201 52556
L33163 52594
L33126 52556
L33163 52519
L33163 52594
" />
<path d="M33876 52069
L33876 52594
" />
<path d="M33688 51769
L33501 52331
L33988 52331
" />
<path d="M34438 51806
L34513 51806
L34588 51844
L34626 51881
L34663 51956
L34701 52106
L34701 52294
L34663 52444
L34626 52519
L34588 52556
L34513 52594
L34438 52594
L34363 52556
L34326 52519
L34288 52444
L34251 52294
L34251 52106
L34288 51956
L34326 51881
L34363 51844
L34438 51806
" />
<path d="M35188 51806
L35263 51806
L35338 51844
L35375 51881
L35413 51956
L35450 52106
L35450 52294
L35413 52444
L35375 52519
L35338 52556
L35263 52594
L35188 52594
L35113 52556
L35075 52519
L35038 52444
L35000 52294
L35000 52106
L35038 51956
L35075 51881
L35113 51844
L35188 51806
" />
<path d="M35788 52594
L35788 52069
" />
<path d="M35788 52144
L35825 52106
L35900 52069
L36013 52069
L36088 52106
L36125 52181
L36125 52594
" />
<path d="M36125 52181
L36163 52106
L36238 52069
L36350 52069
L36425 52106
L36463 52181
L36463 52594
" />
<path d="M36838 52594
L36838 52069
" />
<path d="M36838 52144
L36875 52106
L36950 52069
L37063 52069
L37138 52106
L37175 52181
L37175 52594
" />
<path d="M37175 52181
L37213 52106
L37288 52069
L37400 52069
L37475 52106
L37513 52181
L37513 52594
" />
<path d="M39050 51769
L38375 52781
" />
<path d="M40062 51806
L40137 51806
L40212 51844
L40250 51881
L40287 51956
L40325 52106
L40325 52294
L40287 52444
L40250 52519
L40212 52556
L40137 52594
L40062 52594
L39987 52556
L39950 52519
L39912 52444
L39875 52294
L39875 52106
L39912 51956
L39950 51881
L39987 51844
L40062 51806
" />
<path d="M40662 52519
L40700 52556
L40662 52594
L40625 52556
L40662 52519
L40662 52594
" />
<path d="M41187 51806
L41262 51806
L41337 51844
L41375 51881
L41412 51956
L41450 52106
L41450 52294
L41412 52444
L41375 52519
L41337 52556
L41262 52594
L41187 52594
L41112 52556
L41075 52519
L41037 52444
L41000 52294
L41000 52106
L41037 51956
L41075 51881
L41112 51844
L41187 51806
" />
<path d="M42162 51806
L41787 51806
L41750 52181
L41787 52144
L41862 52106
L42050 52106
L42125 52144
L42162 52181
L42200 52256
L42200 52444
L42162 52519
L42125 52556
L42050 52594
L41862 52594
L41787 52556
L41750 52519
" />
<path d="M42912 51806
L42537 51806
L42500 52181
L42537 52144
L42612 52106
L42800 52106
L42875 52144
L42912 52181
L42950 52256
L42950 52444
L42912 52519
L42875 52556
L42800 52594
L42612 52594
L42537 52556
L42500 52519
" />
<path d="M43699 52594
L43249 52594
" />
<path d="M43474 52594
L43474 51806
L43399 51919
L43324 51994
L43249 52031
" />
<path d="M43999 51806
L43999 51956
" />
<path d="M44299 51806
L44299 51956
" />
<path d="M45462 52894
L45424 52856
L45349 52744
L45312 52669
L45274 52556
L45237 52369
L45237 52219
L45274 52031
L45312 51919
L45349 51844
L45424 51731
L45462 51694
" />
<path d="M45724 51881
L45762 51844
L45837 51806
L46024 51806
L46099 51844
L46137 51881
L46174 51956
L46174 52031
L46137 52144
L45687 52594
L46174 52594
" />
<path d="M46662 51806
L46737 51806
L46812 51844
L46849 51881
L46887 51956
L46924 52106
L46924 52294
L46887 52444
L46849 52519
L46812 52556
L46737 52594
L46662 52594
L46587 52556
L46549 52519
L46512 52444
L46474 52294
L46474 52106
L46512 51956
L46549 51881
L46587 51844
L46662 51806
" />
<path d="M47861 52594
L47861 51806
" />
<path d="M48199 52594
L48199 52181
L48161 52106
L48086 52069
L47974 52069
L47899 52106
L47861 52144
" />
<path d="M48686 52594
L48611 52556
L48574 52519
L48536 52444
L48536 52219
L48574 52144
L48611 52106
L48686 52069
L48799 52069
L48874 52106
L48911 52144
L48949 52219
L48949 52444
L48911 52519
L48874 52556
L48799 52594
L48686 52594
" />
<path d="M49399 52594
L49324 52556
L49286 52481
L49286 51806
" />
<path d="M49999 52556
L49924 52594
L49774 52594
L49699 52556
L49661 52481
L49661 52181
L49699 52106
L49774 52069
L49924 52069
L49999 52106
L50036 52181
L50036 52256
L49661 52331
" />
<path d="M50336 52556
L50411 52594
L50561 52594
L50636 52556
L50674 52481
L50674 52444
L50636 52369
L50561 52331
L50449 52331
L50374 52294
L50336 52219
L50336 52181
L50374 52106
L50449 52069
L50561 52069
L50636 52106
" />
<path d="M50936 52894
L50974 52856
L51048 52744
L51086 52669
L51123 52556
L51161 52369
L51161 52219
L51123 52031
L51086 51919
L51048 51844
L50974 51731
L50936 51694
" />
</g></g> 
</svg>
