  0
SECTION
  2
HEADER
  9
$ANGBASE
  50
0.0
  9
$ANGDIR
  70
1
  9
$MEASUREMENT
  70
1
  0
ENDSEC
  0
SECTION
  2
TABLES
  0
TABLE
  2
LTYPE
  70
4
  0
LTYPE
  5
40F
  2
CONTINUOUS
  70
0
  3
Solid line
  72
65
  73
0
  40
0.0
  0
LTYPE
  5
410
  2
DASHDOT
 70
0
  3
Dash Dot ____ _ ____ _
 72
65
 73
4
 40
2.0
 49
1.25
 49
-0.25
 49
0.25
 49
-0.25
  0
LTYPE
  5
411
  2
DASHED
 70
0
  3
Dashed __ __ __ __ __
 72
65
 73
2
 40
0.75
 49
0.5
 49
-0.25
  0
LTYPE
  5
43B
  2
DOTTED
 70
0
  3
Dotted .  .  .  .
 72
65
 73
2
 40
0.2
 49
0.0
 49
-0.2
  0
ENDTAB
  0
TABLE
  2
STYLE
  70
4
  0
STYLE
  2
KICAD
  70
0
  40
0
  41
1
  42
1
  50
0
  71
0
  3
isocp.shx
  0
STYLE
  2
KICADB
  70
0
  40
0
  41
1
  42
1
  50
0
  71
0
  3
isocp.shx
  0
STYLE
  2
KICADI
  70
0
  40
0
  41
1
  42
1
  50
15
  71
0
  3
isocp.shx
  0
STYLE
  2
KICADBI
  70
0
  40
0
  41
1
  42
1
  50
15
  71
0
  3
isocp.shx
  0
ENDTAB
  0
TABLE
  2
LAYER
  70
1
  0
LAYER
  2
BLACK
  70
0
  62
7
  6
CONTINUOUS
  0
ENDTAB
  0
ENDSEC
  0
SECTION
  2
ENTITIES
0
LINE
8
BLACK
6
CONTINUOUS
10
122.4
20
-120.6
11
98.6
21
-122
0
LINE
8
BLACK
6
CONTINUOUS
10
172.6
20
-81.8
11
173.6
21
-84
0
LINE
8
BLACK
6
CONTINUOUS
10
170.4
20
-55.6
11
168.6
21
-59
0
LINE
8
BLACK
6
CONTINUOUS
10
168.8
20
-112
11
165.2
21
-118
0
LINE
8
BLACK
6
CONTINUOUS
10
173
20
-84.8
11
172.2
21
-86
0
LINE
8
BLACK
6
CONTINUOUS
10
166.2
20
-62.4
11
168.2
21
-69.8
0
LINE
8
BLACK
6
CONTINUOUS
10
171.4
20
-101.8
11
170.2
21
-103
0
LINE
8
BLACK
6
CONTINUOUS
10
169.4
20
-107
11
168.8
21
-112
0
LINE
8
BLACK
6
CONTINUOUS
10
94.9432
20
-49.9251
11
114
21
-47.8
0
LINE
8
BLACK
6
CONTINUOUS
10
171.4
20
-104.8
11
169.4
21
-107
0
LINE
8
BLACK
6
CONTINUOUS
10
167.8
20
-97.8
11
171.4
21
-101.8
0
LINE
8
BLACK
6
CONTINUOUS
10
85.4
20
-80
11
87.4
21
-51.8
0
LINE
8
BLACK
6
CONTINUOUS
10
88
20
-96.2
11
85.4
21
-80
0
LINE
8
BLACK
6
CONTINUOUS
10
172.2
20
-86
11
169.4
21
-90
0
LINE
8
BLACK
6
CONTINUOUS
10
141.4
20
-47.6
11
161.2
21
-48.4
0
LINE
8
BLACK
6
CONTINUOUS
10
168.6
20
-59
11
166.2
21
-62.4
0
LINE
8
BLACK
6
CONTINUOUS
10
165.2
20
-118
11
153
21
-121
0
LINE
8
BLACK
6
CONTINUOUS
10
114
20
-47.8
11
141.4
21
-47.6
0
LINE
8
BLACK
6
CONTINUOUS
10
169.4
20
-90
11
166.8
21
-94.8
0
LINE
8
BLACK
6
CONTINUOUS
10
87.5716
20
-106.689
11
88
21
-96.2
0
LINE
8
BLACK
6
CONTINUOUS
10
173.6
20
-84
11
173
21
-84.8
0
LINE
8
BLACK
6
CONTINUOUS
10
166.8
20
-94.8
11
167.8
21
-97.8
0
ARC
8
BLACK
10
93.2
20
-110
40
6.52993
50
-210.466
51
-139.97
0
LINE
8
BLACK
6
CONTINUOUS
10
153
20
-121
11
122.4
21
-120.6
0
LINE
8
BLACK
6
CONTINUOUS
10
161.2
20
-48.4
11
168.6
21
-51.4
0
LINE
8
BLACK
6
CONTINUOUS
10
168.6
20
-51.4
11
170.4
21
-55.6
0
LINE
8
BLACK
6
CONTINUOUS
10
168.2
20
-69.8
11
167
21
-76.8
0
LINE
8
BLACK
6
CONTINUOUS
10
167
20
-76.8
11
172.6
21
-81.8
0
LINE
8
BLACK
6
CONTINUOUS
10
88.8
20
-116.4
11
88.2
21
-114.2
0
LINE
8
BLACK
6
CONTINUOUS
10
170.2
20
-103
11
171.4
21
-104.8
0
LINE
8
BLACK
6
CONTINUOUS
10
98.6
20
-122
11
88.8
21
-116.4
0
ARC
8
BLACK
10
92.2
20
-55
40
5.76888
50
61.607
51
146.31
0
LINE
8
BLACK
6
CONTINUOUS
10
105.459
20
-76.8034
11
105.859
21
-77.2034
0
LINE
8
BLACK
6
CONTINUOUS
10
105.859
20
-76.8034
11
105.459
21
-77.2034
0
LINE
8
BLACK
6
CONTINUOUS
10
112.76
20
-62.603
11
113.16
21
-63.003
0
LINE
8
BLACK
6
CONTINUOUS
10
113.16
20
-62.603
11
112.76
21
-63.003
0
LINE
8
BLACK
6
CONTINUOUS
10
113.091
20
-95.9205
11
113.491
21
-96.3205
0
LINE
8
BLACK
6
CONTINUOUS
10
113.491
20
-95.9205
11
113.091
21
-96.3205
0
LINE
8
BLACK
6
CONTINUOUS
10
116.832
20
-59.9375
11
117.232
21
-60.3375
0
LINE
8
BLACK
6
CONTINUOUS
10
117.232
20
-59.9375
11
116.832
21
-60.3375
0
LINE
8
BLACK
6
CONTINUOUS
10
116.869
20
-67.3844
11
117.269
21
-67.7844
0
LINE
8
BLACK
6
CONTINUOUS
10
117.269
20
-67.3844
11
116.869
21
-67.7844
0
LINE
8
BLACK
6
CONTINUOUS
10
120.408
20
-50.4799
11
120.808
21
-50.8799
0
LINE
8
BLACK
6
CONTINUOUS
10
120.808
20
-50.4799
11
120.408
21
-50.8799
0
LINE
8
BLACK
6
CONTINUOUS
10
121.93
20
-60.3178
11
122.33
21
-60.7178
0
LINE
8
BLACK
6
CONTINUOUS
10
122.33
20
-60.3178
11
121.93
21
-60.7178
0
LINE
8
BLACK
6
CONTINUOUS
10
126.452
20
-73.4383
11
126.852
21
-73.8383
0
LINE
8
BLACK
6
CONTINUOUS
10
126.852
20
-73.4383
11
126.452
21
-73.8383
0
LINE
8
BLACK
6
CONTINUOUS
10
132.447
20
-109.342
11
132.847
21
-109.742
0
LINE
8
BLACK
6
CONTINUOUS
10
132.847
20
-109.342
11
132.447
21
-109.742
0
LINE
8
BLACK
6
CONTINUOUS
10
132.534
20
-53.6
11
132.934
21
-54
0
LINE
8
BLACK
6
CONTINUOUS
10
132.934
20
-53.6
11
132.534
21
-54
0
LINE
8
BLACK
6
CONTINUOUS
10
137.998
20
-62.826
11
138.398
21
-63.226
0
LINE
8
BLACK
6
CONTINUOUS
10
138.398
20
-62.826
11
137.998
21
-63.226
0
LINE
8
BLACK
6
CONTINUOUS
10
149.472
20
-90.8094
11
149.872
21
-91.2094
0
LINE
8
BLACK
6
CONTINUOUS
10
149.872
20
-90.8094
11
149.472
21
-91.2094
0
LINE
8
BLACK
6
CONTINUOUS
10
150.376
20
-83.006
11
150.776
21
-83.406
0
LINE
8
BLACK
6
CONTINUOUS
10
150.776
20
-83.006
11
150.376
21
-83.406
0
LINE
8
BLACK
6
CONTINUOUS
10
150.999
20
-67.2286
11
151.399
21
-67.6286
0
LINE
8
BLACK
6
CONTINUOUS
10
151.399
20
-67.2286
11
150.999
21
-67.6286
0
LINE
8
BLACK
6
CONTINUOUS
10
151.746
20
-63.6663
11
152.146
21
-64.0663
0
LINE
8
BLACK
6
CONTINUOUS
10
152.146
20
-63.6663
11
151.746
21
-64.0663
0
LINE
8
BLACK
6
CONTINUOUS
10
153.386
20
-55.7536
11
153.786
21
-56.1536
0
LINE
8
BLACK
6
CONTINUOUS
10
153.786
20
-55.7536
11
153.386
21
-56.1536
0
LINE
8
BLACK
6
CONTINUOUS
10
158.608
20
-74.7429
11
159.008
21
-75.1429
0
LINE
8
BLACK
6
CONTINUOUS
10
159.008
20
-74.7429
11
158.608
21
-75.1429
0
CIRCLE
8
BLACK
10
111.125
20
-61.366
40
0.381
0
CIRCLE
8
BLACK
10
111.125
20
-63.906
40
0.381
0
CIRCLE
8
BLACK
10
111.125
20
-66.446
40
0.381
0
CIRCLE
8
BLACK
10
111.125
20
-68.986
40
0.381
0
CIRCLE
8
BLACK
10
111.125
20
-71.526
40
0.381
0
CIRCLE
8
BLACK
10
111.125
20
-74.066
40
0.381
0
CIRCLE
8
BLACK
10
111.125
20
-76.606
40
0.381
0
CIRCLE
8
BLACK
10
111.125
20
-79.146
40
0.381
0
CIRCLE
8
BLACK
10
111.125
20
-81.686
40
0.381
0
CIRCLE
8
BLACK
10
111.125
20
-84.226
40
0.381
0
CIRCLE
8
BLACK
10
111.125
20
-86.766
40
0.381
0
CIRCLE
8
BLACK
10
111.125
20
-89.306
40
0.381
0
CIRCLE
8
BLACK
10
111.125
20
-91.846
40
0.381
0
CIRCLE
8
BLACK
10
111.125
20
-94.386
40
0.381
0
CIRCLE
8
BLACK
10
111.125
20
-96.926
40
0.381
0
CIRCLE
8
BLACK
10
136.525
20
-61.366
40
0.381
0
CIRCLE
8
BLACK
10
136.525
20
-63.906
40
0.381
0
CIRCLE
8
BLACK
10
136.525
20
-66.446
40
0.381
0
CIRCLE
8
BLACK
10
136.525
20
-68.986
40
0.381
0
CIRCLE
8
BLACK
10
136.525
20
-71.526
40
0.381
0
CIRCLE
8
BLACK
10
136.525
20
-74.066
40
0.381
0
CIRCLE
8
BLACK
10
136.525
20
-76.606
40
0.381
0
CIRCLE
8
BLACK
10
136.525
20
-79.146
40
0.381
0
CIRCLE
8
BLACK
10
136.525
20
-81.686
40
0.381
0
CIRCLE
8
BLACK
10
136.525
20
-84.226
40
0.381
0
CIRCLE
8
BLACK
10
136.525
20
-86.766
40
0.381
0
CIRCLE
8
BLACK
10
136.525
20
-89.306
40
0.381
0
CIRCLE
8
BLACK
10
136.525
20
-91.846
40
0.381
0
CIRCLE
8
BLACK
10
136.525
20
-94.386
40
0.381
0
CIRCLE
8
BLACK
10
136.525
20
-96.926
40
0.381
0
LINE
8
BLACK
6
CONTINUOUS
10
97.8775
20
-62.9
11
97.8775
21
-64.3
0
LINE
8
BLACK
6
CONTINUOUS
10
97.1775
20
-63.6
11
98.5775
21
-63.6
0
LINE
8
BLACK
6
CONTINUOUS
10
97.8775
20
-67.98
11
97.8775
21
-69.38
0
LINE
8
BLACK
6
CONTINUOUS
10
97.1775
20
-68.68
11
98.5775
21
-68.68
0
LINE
8
BLACK
6
CONTINUOUS
10
97.8775
20
-95.62
11
97.8775
21
-97.02
0
LINE
8
BLACK
6
CONTINUOUS
10
97.1775
20
-96.32
11
98.5775
21
-96.32
0
LINE
8
BLACK
6
CONTINUOUS
10
97.8775
20
-100.7
11
97.8775
21
-102.1
0
LINE
8
BLACK
6
CONTINUOUS
10
97.1775
20
-101.4
11
98.5775
21
-101.4
0
LINE
8
BLACK
6
CONTINUOUS
10
98.05
20
-110.5
11
98.05
21
-111.9
0
LINE
8
BLACK
6
CONTINUOUS
10
97.35
20
-111.2
11
98.75
21
-111.2
0
LINE
8
BLACK
6
CONTINUOUS
10
101.86
20
-110.5
11
101.86
21
-111.9
0
LINE
8
BLACK
6
CONTINUOUS
10
101.16
20
-111.2
11
102.56
21
-111.2
0
LINE
8
BLACK
6
CONTINUOUS
10
105.67
20
-110.5
11
105.67
21
-111.9
0
LINE
8
BLACK
6
CONTINUOUS
10
104.97
20
-111.2
11
106.37
21
-111.2
0
LINE
8
BLACK
6
CONTINUOUS
10
109.48
20
-110.5
11
109.48
21
-111.9
0
LINE
8
BLACK
6
CONTINUOUS
10
108.78
20
-111.2
11
110.18
21
-111.2
0
LINE
8
BLACK
6
CONTINUOUS
10
113.29
20
-110.5
11
113.29
21
-111.9
0
LINE
8
BLACK
6
CONTINUOUS
10
112.59
20
-111.2
11
113.99
21
-111.2
0
LINE
8
BLACK
6
CONTINUOUS
10
117.1
20
-110.5
11
117.1
21
-111.9
0
LINE
8
BLACK
6
CONTINUOUS
10
116.4
20
-111.2
11
117.8
21
-111.2
0
LINE
8
BLACK
6
CONTINUOUS
10
120.91
20
-110.5
11
120.91
21
-111.9
0
LINE
8
BLACK
6
CONTINUOUS
10
120.21
20
-111.2
11
121.61
21
-111.2
0
LINE
8
BLACK
6
CONTINUOUS
10
124.72
20
-110.5
11
124.72
21
-111.9
0
LINE
8
BLACK
6
CONTINUOUS
10
124.02
20
-111.2
11
125.42
21
-111.2
0
LINE
8
BLACK
6
CONTINUOUS
10
128.53
20
-110.5
11
128.53
21
-111.9
0
LINE
8
BLACK
6
CONTINUOUS
10
127.83
20
-111.2
11
129.23
21
-111.2
0
LINE
8
BLACK
6
CONTINUOUS
10
132.34
20
-110.5
11
132.34
21
-111.9
0
LINE
8
BLACK
6
CONTINUOUS
10
131.64
20
-111.2
11
133.04
21
-111.2
0
LINE
8
BLACK
6
CONTINUOUS
10
136.15
20
-110.5
11
136.15
21
-111.9
0
LINE
8
BLACK
6
CONTINUOUS
10
135.45
20
-111.2
11
136.85
21
-111.2
0
LINE
8
BLACK
6
CONTINUOUS
10
139.96
20
-110.5
11
139.96
21
-111.9
0
LINE
8
BLACK
6
CONTINUOUS
10
139.26
20
-111.2
11
140.66
21
-111.2
0
LINE
8
BLACK
6
CONTINUOUS
10
143.77
20
-110.5
11
143.77
21
-111.9
0
LINE
8
BLACK
6
CONTINUOUS
10
143.07
20
-111.2
11
144.47
21
-111.2
0
LINE
8
BLACK
6
CONTINUOUS
10
147.58
20
-110.5
11
147.58
21
-111.9
0
LINE
8
BLACK
6
CONTINUOUS
10
146.88
20
-111.2
11
148.28
21
-111.2
0
LINE
8
BLACK
6
CONTINUOUS
10
151.39
20
-110.5
11
151.39
21
-111.9
0
LINE
8
BLACK
6
CONTINUOUS
10
150.69
20
-111.2
11
152.09
21
-111.2
0
LINE
8
BLACK
6
CONTINUOUS
10
155.2
20
-110.5
11
155.2
21
-111.9
0
LINE
8
BLACK
6
CONTINUOUS
10
154.5
20
-111.2
11
155.9
21
-111.2
0
LINE
8
BLACK
6
CONTINUOUS
10
87.9262
20
-125.155
11
87.9262
21
-123.155
0
LINE
8
BLACK
6
CONTINUOUS
10
87.9262
20
-123.155
11
88.4024
21
-123.155
0
LINE
8
BLACK
6
CONTINUOUS
10
88.4024
20
-123.155
11
88.6881
21
-123.25
0
LINE
8
BLACK
6
CONTINUOUS
10
88.6881
20
-123.25
11
88.8786
21
-123.44
0
LINE
8
BLACK
6
CONTINUOUS
10
88.8786
20
-123.44
11
88.9738
21
-123.631
0
LINE
8
BLACK
6
CONTINUOUS
10
88.9738
20
-123.631
11
89.069
21
-124.012
0
LINE
8
BLACK
6
CONTINUOUS
10
89.069
20
-124.012
11
89.069
21
-124.298
0
LINE
8
BLACK
6
CONTINUOUS
10
89.069
20
-124.298
11
88.9738
21
-124.679
0
LINE
8
BLACK
6
CONTINUOUS
10
88.9738
20
-124.679
11
88.8786
21
-124.869
0
LINE
8
BLACK
6
CONTINUOUS
10
88.8786
20
-124.869
11
88.6881
21
-125.06
0
LINE
8
BLACK
6
CONTINUOUS
10
88.6881
20
-125.06
11
88.4024
21
-125.155
0
LINE
8
BLACK
6
CONTINUOUS
10
88.4024
20
-125.155
11
87.9262
21
-125.155
0
LINE
8
BLACK
6
CONTINUOUS
10
89.9262
20
-125.155
11
89.9262
21
-123.821
0
LINE
8
BLACK
6
CONTINUOUS
10
89.9262
20
-124.202
11
90.0214
21
-124.012
0
LINE
8
BLACK
6
CONTINUOUS
10
90.0214
20
-124.012
11
90.1167
21
-123.917
0
LINE
8
BLACK
6
CONTINUOUS
10
90.1167
20
-123.917
11
90.3071
21
-123.821
0
LINE
8
BLACK
6
CONTINUOUS
10
90.3071
20
-123.821
11
90.4976
21
-123.821
0
LINE
8
BLACK
6
CONTINUOUS
10
91.1643
20
-125.155
11
91.1643
21
-123.821
0
LINE
8
BLACK
6
CONTINUOUS
10
91.1643
20
-123.155
11
91.069
21
-123.25
0
LINE
8
BLACK
6
CONTINUOUS
10
91.069
20
-123.25
11
91.1643
21
-123.345
0
LINE
8
BLACK
6
CONTINUOUS
10
91.1643
20
-123.345
11
91.2595
21
-123.25
0
LINE
8
BLACK
6
CONTINUOUS
10
91.2595
20
-123.25
11
91.1643
21
-123.155
0
LINE
8
BLACK
6
CONTINUOUS
10
91.1643
20
-123.155
11
91.1643
21
-123.345
0
LINE
8
BLACK
6
CONTINUOUS
10
92.4024
20
-125.155
11
92.2119
21
-125.06
0
LINE
8
BLACK
6
CONTINUOUS
10
92.2119
20
-125.06
11
92.1167
21
-124.869
0
LINE
8
BLACK
6
CONTINUOUS
10
92.1167
20
-124.869
11
92.1167
21
-123.155
0
LINE
8
BLACK
6
CONTINUOUS
10
93.45
20
-125.155
11
93.2595
21
-125.06
0
LINE
8
BLACK
6
CONTINUOUS
10
93.2595
20
-125.06
11
93.1643
21
-124.869
0
LINE
8
BLACK
6
CONTINUOUS
10
93.1643
20
-124.869
11
93.1643
21
-123.155
0
LINE
8
BLACK
6
CONTINUOUS
10
95.7357
20
-125.155
11
95.7357
21
-123.155
0
LINE
8
BLACK
6
CONTINUOUS
10
95.7357
20
-123.155
11
96.4024
21
-124.583
0
LINE
8
BLACK
6
CONTINUOUS
10
96.4024
20
-124.583
11
97.069
21
-123.155
0
LINE
8
BLACK
6
CONTINUOUS
10
97.069
20
-123.155
11
97.069
21
-125.155
0
LINE
8
BLACK
6
CONTINUOUS
10
98.8786
20
-125.155
11
98.8786
21
-124.107
0
LINE
8
BLACK
6
CONTINUOUS
10
98.8786
20
-124.107
11
98.7833
21
-123.917
0
LINE
8
BLACK
6
CONTINUOUS
10
98.7833
20
-123.917
11
98.5929
21
-123.821
0
LINE
8
BLACK
6
CONTINUOUS
10
98.5929
20
-123.821
11
98.2119
21
-123.821
0
LINE
8
BLACK
6
CONTINUOUS
10
98.2119
20
-123.821
11
98.0214
21
-123.917
0
LINE
8
BLACK
6
CONTINUOUS
10
98.8786
20
-125.06
11
98.6881
21
-125.155
0
LINE
8
BLACK
6
CONTINUOUS
10
98.6881
20
-125.155
11
98.2119
21
-125.155
0
LINE
8
BLACK
6
CONTINUOUS
10
98.2119
20
-125.155
11
98.0214
21
-125.06
0
LINE
8
BLACK
6
CONTINUOUS
10
98.0214
20
-125.06
11
97.9262
21
-124.869
0
LINE
8
BLACK
6
CONTINUOUS
10
97.9262
20
-124.869
11
97.9262
21
-124.679
0
LINE
8
BLACK
6
CONTINUOUS
10
97.9262
20
-124.679
11
98.0214
21
-124.488
0
LINE
8
BLACK
6
CONTINUOUS
10
98.0214
20
-124.488
11
98.2119
21
-124.393
0
LINE
8
BLACK
6
CONTINUOUS
10
98.2119
20
-124.393
11
98.6881
21
-124.393
0
LINE
8
BLACK
6
CONTINUOUS
10
98.6881
20
-124.393
11
98.8786
21
-124.298
0
LINE
8
BLACK
6
CONTINUOUS
10
99.831
20
-123.821
11
99.831
21
-125.821
0
LINE
8
BLACK
6
CONTINUOUS
10
99.831
20
-123.917
11
100.021
21
-123.821
0
LINE
8
BLACK
6
CONTINUOUS
10
100.021
20
-123.821
11
100.402
21
-123.821
0
LINE
8
BLACK
6
CONTINUOUS
10
100.402
20
-123.821
11
100.593
21
-123.917
0
LINE
8
BLACK
6
CONTINUOUS
10
100.593
20
-123.917
11
100.688
21
-124.012
0
LINE
8
BLACK
6
CONTINUOUS
10
100.688
20
-124.012
11
100.783
21
-124.202
0
LINE
8
BLACK
6
CONTINUOUS
10
100.783
20
-124.202
11
100.783
21
-124.774
0
LINE
8
BLACK
6
CONTINUOUS
10
100.783
20
-124.774
11
100.688
21
-124.964
0
LINE
8
BLACK
6
CONTINUOUS
10
100.688
20
-124.964
11
100.593
21
-125.06
0
LINE
8
BLACK
6
CONTINUOUS
10
100.593
20
-125.06
11
100.402
21
-125.155
0
LINE
8
BLACK
6
CONTINUOUS
10
100.402
20
-125.155
11
100.021
21
-125.155
0
LINE
8
BLACK
6
CONTINUOUS
10
100.021
20
-125.155
11
99.831
21
-125.06
0
LINE
8
BLACK
6
CONTINUOUS
10
101.64
20
-124.964
11
101.736
21
-125.06
0
LINE
8
BLACK
6
CONTINUOUS
10
101.736
20
-125.06
11
101.64
21
-125.155
0
LINE
8
BLACK
6
CONTINUOUS
10
101.64
20
-125.155
11
101.545
21
-125.06
0
LINE
8
BLACK
6
CONTINUOUS
10
101.545
20
-125.06
11
101.64
21
-124.964
0
LINE
8
BLACK
6
CONTINUOUS
10
101.64
20
-124.964
11
101.64
21
-125.155
0
LINE
8
BLACK
6
CONTINUOUS
10
101.64
20
-123.917
11
101.736
21
-124.012
0
LINE
8
BLACK
6
CONTINUOUS
10
101.736
20
-124.012
11
101.64
21
-124.107
0
LINE
8
BLACK
6
CONTINUOUS
10
101.64
20
-124.107
11
101.545
21
-124.012
0
LINE
8
BLACK
6
CONTINUOUS
10
101.545
20
-124.012
11
101.64
21
-123.917
0
LINE
8
BLACK
6
CONTINUOUS
10
101.64
20
-123.917
11
101.64
21
-124.107
0
LINE
8
BLACK
6
CONTINUOUS
10
84.95
20
-128.25
11
85.35
21
-128.65
0
LINE
8
BLACK
6
CONTINUOUS
10
85.35
20
-128.25
11
84.95
21
-128.65
0
LINE
8
BLACK
6
CONTINUOUS
10
88.3071
20
-127.355
11
88.4976
21
-127.355
0
LINE
8
BLACK
6
CONTINUOUS
10
88.4976
20
-127.355
11
88.6881
21
-127.45
0
LINE
8
BLACK
6
CONTINUOUS
10
88.6881
20
-127.45
11
88.7833
21
-127.545
0
LINE
8
BLACK
6
CONTINUOUS
10
88.7833
20
-127.545
11
88.8786
21
-127.736
0
LINE
8
BLACK
6
CONTINUOUS
10
88.8786
20
-127.736
11
88.9738
21
-128.117
0
LINE
8
BLACK
6
CONTINUOUS
10
88.9738
20
-128.117
11
88.9738
21
-128.593
0
LINE
8
BLACK
6
CONTINUOUS
10
88.9738
20
-128.593
11
88.8786
21
-128.974
0
LINE
8
BLACK
6
CONTINUOUS
10
88.8786
20
-128.974
11
88.7833
21
-129.164
0
LINE
8
BLACK
6
CONTINUOUS
10
88.7833
20
-129.164
11
88.6881
21
-129.26
0
LINE
8
BLACK
6
CONTINUOUS
10
88.6881
20
-129.26
11
88.4976
21
-129.355
0
LINE
8
BLACK
6
CONTINUOUS
10
88.4976
20
-129.355
11
88.3071
21
-129.355
0
LINE
8
BLACK
6
CONTINUOUS
10
88.3071
20
-129.355
11
88.1167
21
-129.26
0
LINE
8
BLACK
6
CONTINUOUS
10
88.1167
20
-129.26
11
88.0214
21
-129.164
0
LINE
8
BLACK
6
CONTINUOUS
10
88.0214
20
-129.164
11
87.9262
21
-128.974
0
LINE
8
BLACK
6
CONTINUOUS
10
87.9262
20
-128.974
11
87.831
21
-128.593
0
LINE
8
BLACK
6
CONTINUOUS
10
87.831
20
-128.593
11
87.831
21
-128.117
0
LINE
8
BLACK
6
CONTINUOUS
10
87.831
20
-128.117
11
87.9262
21
-127.736
0
LINE
8
BLACK
6
CONTINUOUS
10
87.9262
20
-127.736
11
88.0214
21
-127.545
0
LINE
8
BLACK
6
CONTINUOUS
10
88.0214
20
-127.545
11
88.1167
21
-127.45
0
LINE
8
BLACK
6
CONTINUOUS
10
88.1167
20
-127.45
11
88.3071
21
-127.355
0
LINE
8
BLACK
6
CONTINUOUS
10
89.831
20
-129.164
11
89.9262
21
-129.26
0
LINE
8
BLACK
6
CONTINUOUS
10
89.9262
20
-129.26
11
89.831
21
-129.355
0
LINE
8
BLACK
6
CONTINUOUS
10
89.831
20
-129.355
11
89.7357
21
-129.26
0
LINE
8
BLACK
6
CONTINUOUS
10
89.7357
20
-129.26
11
89.831
21
-129.164
0
LINE
8
BLACK
6
CONTINUOUS
10
89.831
20
-129.164
11
89.831
21
-129.355
0
LINE
8
BLACK
6
CONTINUOUS
10
91.6405
20
-128.021
11
91.6405
21
-129.355
0
LINE
8
BLACK
6
CONTINUOUS
10
91.1643
20
-127.26
11
90.6881
21
-128.688
0
LINE
8
BLACK
6
CONTINUOUS
10
90.6881
20
-128.688
11
91.9262
21
-128.688
0
LINE
8
BLACK
6
CONTINUOUS
10
93.069
20
-127.355
11
93.2595
21
-127.355
0
LINE
8
BLACK
6
CONTINUOUS
10
93.2595
20
-127.355
11
93.45
21
-127.45
0
LINE
8
BLACK
6
CONTINUOUS
10
93.45
20
-127.45
11
93.5452
21
-127.545
0
LINE
8
BLACK
6
CONTINUOUS
10
93.5452
20
-127.545
11
93.6405
21
-127.736
0
LINE
8
BLACK
6
CONTINUOUS
10
93.6405
20
-127.736
11
93.7357
21
-128.117
0
LINE
8
BLACK
6
CONTINUOUS
10
93.7357
20
-128.117
11
93.7357
21
-128.593
0
LINE
8
BLACK
6
CONTINUOUS
10
93.7357
20
-128.593
11
93.6405
21
-128.974
0
LINE
8
BLACK
6
CONTINUOUS
10
93.6405
20
-128.974
11
93.5452
21
-129.164
0
LINE
8
BLACK
6
CONTINUOUS
10
93.5452
20
-129.164
11
93.45
21
-129.26
0
LINE
8
BLACK
6
CONTINUOUS
10
93.45
20
-129.26
11
93.2595
21
-129.355
0
LINE
8
BLACK
6
CONTINUOUS
10
93.2595
20
-129.355
11
93.069
21
-129.355
0
LINE
8
BLACK
6
CONTINUOUS
10
93.069
20
-129.355
11
92.8786
21
-129.26
0
LINE
8
BLACK
6
CONTINUOUS
10
92.8786
20
-129.26
11
92.7833
21
-129.164
0
LINE
8
BLACK
6
CONTINUOUS
10
92.7833
20
-129.164
11
92.6881
21
-128.974
0
LINE
8
BLACK
6
CONTINUOUS
10
92.6881
20
-128.974
11
92.5929
21
-128.593
0
LINE
8
BLACK
6
CONTINUOUS
10
92.5929
20
-128.593
11
92.5929
21
-128.117
0
LINE
8
BLACK
6
CONTINUOUS
10
92.5929
20
-128.117
11
92.6881
21
-127.736
0
LINE
8
BLACK
6
CONTINUOUS
10
92.6881
20
-127.736
11
92.7833
21
-127.545
0
LINE
8
BLACK
6
CONTINUOUS
10
92.7833
20
-127.545
11
92.8786
21
-127.45
0
LINE
8
BLACK
6
CONTINUOUS
10
92.8786
20
-127.45
11
93.069
21
-127.355
0
LINE
8
BLACK
6
CONTINUOUS
10
94.9738
20
-127.355
11
95.1643
21
-127.355
0
LINE
8
BLACK
6
CONTINUOUS
10
95.1643
20
-127.355
11
95.3548
21
-127.45
0
LINE
8
BLACK
6
CONTINUOUS
10
95.3548
20
-127.45
11
95.45
21
-127.545
0
LINE
8
BLACK
6
CONTINUOUS
10
95.45
20
-127.545
11
95.5452
21
-127.736
0
LINE
8
BLACK
6
CONTINUOUS
10
95.5452
20
-127.736
11
95.6405
21
-128.117
0
LINE
8
BLACK
6
CONTINUOUS
10
95.6405
20
-128.117
11
95.6405
21
-128.593
0
LINE
8
BLACK
6
CONTINUOUS
10
95.6405
20
-128.593
11
95.5452
21
-128.974
0
LINE
8
BLACK
6
CONTINUOUS
10
95.5452
20
-128.974
11
95.45
21
-129.164
0
LINE
8
BLACK
6
CONTINUOUS
10
95.45
20
-129.164
11
95.3548
21
-129.26
0
LINE
8
BLACK
6
CONTINUOUS
10
95.3548
20
-129.26
11
95.1643
21
-129.355
0
LINE
8
BLACK
6
CONTINUOUS
10
95.1643
20
-129.355
11
94.9738
21
-129.355
0
LINE
8
BLACK
6
CONTINUOUS
10
94.9738
20
-129.355
11
94.7833
21
-129.26
0
LINE
8
BLACK
6
CONTINUOUS
10
94.7833
20
-129.26
11
94.6881
21
-129.164
0
LINE
8
BLACK
6
CONTINUOUS
10
94.6881
20
-129.164
11
94.5929
21
-128.974
0
LINE
8
BLACK
6
CONTINUOUS
10
94.5929
20
-128.974
11
94.4976
21
-128.593
0
LINE
8
BLACK
6
CONTINUOUS
10
94.4976
20
-128.593
11
94.4976
21
-128.117
0
LINE
8
BLACK
6
CONTINUOUS
10
94.4976
20
-128.117
11
94.5929
21
-127.736
0
LINE
8
BLACK
6
CONTINUOUS
10
94.5929
20
-127.736
11
94.6881
21
-127.545
0
LINE
8
BLACK
6
CONTINUOUS
10
94.6881
20
-127.545
11
94.7833
21
-127.45
0
LINE
8
BLACK
6
CONTINUOUS
10
94.7833
20
-127.45
11
94.9738
21
-127.355
0
LINE
8
BLACK
6
CONTINUOUS
10
96.4976
20
-129.355
11
96.4976
21
-128.021
0
LINE
8
BLACK
6
CONTINUOUS
10
96.4976
20
-128.212
11
96.5929
21
-128.117
0
LINE
8
BLACK
6
CONTINUOUS
10
96.5929
20
-128.117
11
96.7833
21
-128.021
0
LINE
8
BLACK
6
CONTINUOUS
10
96.7833
20
-128.021
11
97.069
21
-128.021
0
LINE
8
BLACK
6
CONTINUOUS
10
97.069
20
-128.021
11
97.2595
21
-128.117
0
LINE
8
BLACK
6
CONTINUOUS
10
97.2595
20
-128.117
11
97.3548
21
-128.307
0
LINE
8
BLACK
6
CONTINUOUS
10
97.3548
20
-128.307
11
97.3548
21
-129.355
0
LINE
8
BLACK
6
CONTINUOUS
10
97.3548
20
-128.307
11
97.45
21
-128.117
0
LINE
8
BLACK
6
CONTINUOUS
10
97.45
20
-128.117
11
97.6405
21
-128.021
0
LINE
8
BLACK
6
CONTINUOUS
10
97.6405
20
-128.021
11
97.9262
21
-128.021
0
LINE
8
BLACK
6
CONTINUOUS
10
97.9262
20
-128.021
11
98.1167
21
-128.117
0
LINE
8
BLACK
6
CONTINUOUS
10
98.1167
20
-128.117
11
98.2119
21
-128.307
0
LINE
8
BLACK
6
CONTINUOUS
10
98.2119
20
-128.307
11
98.2119
21
-129.355
0
LINE
8
BLACK
6
CONTINUOUS
10
99.1643
20
-129.355
11
99.1643
21
-128.021
0
LINE
8
BLACK
6
CONTINUOUS
10
99.1643
20
-128.212
11
99.2595
21
-128.117
0
LINE
8
BLACK
6
CONTINUOUS
10
99.2595
20
-128.117
11
99.45
21
-128.021
0
LINE
8
BLACK
6
CONTINUOUS
10
99.45
20
-128.021
11
99.7357
21
-128.021
0
LINE
8
BLACK
6
CONTINUOUS
10
99.7357
20
-128.021
11
99.9262
21
-128.117
0
LINE
8
BLACK
6
CONTINUOUS
10
99.9262
20
-128.117
11
100.021
21
-128.307
0
LINE
8
BLACK
6
CONTINUOUS
10
100.021
20
-128.307
11
100.021
21
-129.355
0
LINE
8
BLACK
6
CONTINUOUS
10
100.021
20
-128.307
11
100.117
21
-128.117
0
LINE
8
BLACK
6
CONTINUOUS
10
100.117
20
-128.117
11
100.307
21
-128.021
0
LINE
8
BLACK
6
CONTINUOUS
10
100.307
20
-128.021
11
100.593
21
-128.021
0
LINE
8
BLACK
6
CONTINUOUS
10
100.593
20
-128.021
11
100.783
21
-128.117
0
LINE
8
BLACK
6
CONTINUOUS
10
100.783
20
-128.117
11
100.879
21
-128.307
0
LINE
8
BLACK
6
CONTINUOUS
10
100.879
20
-128.307
11
100.879
21
-129.355
0
LINE
8
BLACK
6
CONTINUOUS
10
104.783
20
-127.26
11
103.069
21
-129.831
0
LINE
8
BLACK
6
CONTINUOUS
10
107.355
20
-127.355
11
107.545
21
-127.355
0
LINE
8
BLACK
6
CONTINUOUS
10
107.545
20
-127.355
11
107.736
21
-127.45
0
LINE
8
BLACK
6
CONTINUOUS
10
107.736
20
-127.45
11
107.831
21
-127.545
0
LINE
8
BLACK
6
CONTINUOUS
10
107.831
20
-127.545
11
107.926
21
-127.736
0
LINE
8
BLACK
6
CONTINUOUS
10
107.926
20
-127.736
11
108.021
21
-128.117
0
LINE
8
BLACK
6
CONTINUOUS
10
108.021
20
-128.117
11
108.021
21
-128.593
0
LINE
8
BLACK
6
CONTINUOUS
10
108.021
20
-128.593
11
107.926
21
-128.974
0
LINE
8
BLACK
6
CONTINUOUS
10
107.926
20
-128.974
11
107.831
21
-129.164
0
LINE
8
BLACK
6
CONTINUOUS
10
107.831
20
-129.164
11
107.736
21
-129.26
0
LINE
8
BLACK
6
CONTINUOUS
10
107.736
20
-129.26
11
107.545
21
-129.355
0
LINE
8
BLACK
6
CONTINUOUS
10
107.545
20
-129.355
11
107.355
21
-129.355
0
LINE
8
BLACK
6
CONTINUOUS
10
107.355
20
-129.355
11
107.164
21
-129.26
0
LINE
8
BLACK
6
CONTINUOUS
10
107.164
20
-129.26
11
107.069
21
-129.164
0
LINE
8
BLACK
6
CONTINUOUS
10
107.069
20
-129.164
11
106.974
21
-128.974
0
LINE
8
BLACK
6
CONTINUOUS
10
106.974
20
-128.974
11
106.879
21
-128.593
0
LINE
8
BLACK
6
CONTINUOUS
10
106.879
20
-128.593
11
106.879
21
-128.117
0
LINE
8
BLACK
6
CONTINUOUS
10
106.879
20
-128.117
11
106.974
21
-127.736
0
LINE
8
BLACK
6
CONTINUOUS
10
106.974
20
-127.736
11
107.069
21
-127.545
0
LINE
8
BLACK
6
CONTINUOUS
10
107.069
20
-127.545
11
107.164
21
-127.45
0
LINE
8
BLACK
6
CONTINUOUS
10
107.164
20
-127.45
11
107.355
21
-127.355
0
LINE
8
BLACK
6
CONTINUOUS
10
108.879
20
-129.164
11
108.974
21
-129.26
0
LINE
8
BLACK
6
CONTINUOUS
10
108.974
20
-129.26
11
108.879
21
-129.355
0
LINE
8
BLACK
6
CONTINUOUS
10
108.879
20
-129.355
11
108.783
21
-129.26
0
LINE
8
BLACK
6
CONTINUOUS
10
108.783
20
-129.26
11
108.879
21
-129.164
0
LINE
8
BLACK
6
CONTINUOUS
10
108.879
20
-129.164
11
108.879
21
-129.355
0
LINE
8
BLACK
6
CONTINUOUS
10
110.212
20
-127.355
11
110.402
21
-127.355
0
LINE
8
BLACK
6
CONTINUOUS
10
110.402
20
-127.355
11
110.593
21
-127.45
0
LINE
8
BLACK
6
CONTINUOUS
10
110.593
20
-127.45
11
110.688
21
-127.545
0
LINE
8
BLACK
6
CONTINUOUS
10
110.688
20
-127.545
11
110.783
21
-127.736
0
LINE
8
BLACK
6
CONTINUOUS
10
110.783
20
-127.736
11
110.879
21
-128.117
0
LINE
8
BLACK
6
CONTINUOUS
10
110.879
20
-128.117
11
110.879
21
-128.593
0
LINE
8
BLACK
6
CONTINUOUS
10
110.879
20
-128.593
11
110.783
21
-128.974
0
LINE
8
BLACK
6
CONTINUOUS
10
110.783
20
-128.974
11
110.688
21
-129.164
0
LINE
8
BLACK
6
CONTINUOUS
10
110.688
20
-129.164
11
110.593
21
-129.26
0
LINE
8
BLACK
6
CONTINUOUS
10
110.593
20
-129.26
11
110.402
21
-129.355
0
LINE
8
BLACK
6
CONTINUOUS
10
110.402
20
-129.355
11
110.212
21
-129.355
0
LINE
8
BLACK
6
CONTINUOUS
10
110.212
20
-129.355
11
110.021
21
-129.26
0
LINE
8
BLACK
6
CONTINUOUS
10
110.021
20
-129.26
11
109.926
21
-129.164
0
LINE
8
BLACK
6
CONTINUOUS
10
109.926
20
-129.164
11
109.831
21
-128.974
0
LINE
8
BLACK
6
CONTINUOUS
10
109.831
20
-128.974
11
109.736
21
-128.593
0
LINE
8
BLACK
6
CONTINUOUS
10
109.736
20
-128.593
11
109.736
21
-128.117
0
LINE
8
BLACK
6
CONTINUOUS
10
109.736
20
-128.117
11
109.831
21
-127.736
0
LINE
8
BLACK
6
CONTINUOUS
10
109.831
20
-127.736
11
109.926
21
-127.545
0
LINE
8
BLACK
6
CONTINUOUS
10
109.926
20
-127.545
11
110.021
21
-127.45
0
LINE
8
BLACK
6
CONTINUOUS
10
110.021
20
-127.45
11
110.212
21
-127.355
0
LINE
8
BLACK
6
CONTINUOUS
10
112.783
20
-129.355
11
111.64
21
-129.355
0
LINE
8
BLACK
6
CONTINUOUS
10
112.212
20
-129.355
11
112.212
21
-127.355
0
LINE
8
BLACK
6
CONTINUOUS
10
112.212
20
-127.355
11
112.021
21
-127.64
0
LINE
8
BLACK
6
CONTINUOUS
10
112.021
20
-127.64
11
111.831
21
-127.831
0
LINE
8
BLACK
6
CONTINUOUS
10
111.831
20
-127.831
11
111.64
21
-127.926
0
LINE
8
BLACK
6
CONTINUOUS
10
114.593
20
-127.355
11
113.64
21
-127.355
0
LINE
8
BLACK
6
CONTINUOUS
10
113.64
20
-127.355
11
113.545
21
-128.307
0
LINE
8
BLACK
6
CONTINUOUS
10
113.545
20
-128.307
11
113.64
21
-128.212
0
LINE
8
BLACK
6
CONTINUOUS
10
113.64
20
-128.212
11
113.831
21
-128.117
0
LINE
8
BLACK
6
CONTINUOUS
10
113.831
20
-128.117
11
114.307
21
-128.117
0
LINE
8
BLACK
6
CONTINUOUS
10
114.307
20
-128.117
11
114.498
21
-128.212
0
LINE
8
BLACK
6
CONTINUOUS
10
114.498
20
-128.212
11
114.593
21
-128.307
0
LINE
8
BLACK
6
CONTINUOUS
10
114.593
20
-128.307
11
114.688
21
-128.498
0
LINE
8
BLACK
6
CONTINUOUS
10
114.688
20
-128.498
11
114.688
21
-128.974
0
LINE
8
BLACK
6
CONTINUOUS
10
114.688
20
-128.974
11
114.593
21
-129.164
0
LINE
8
BLACK
6
CONTINUOUS
10
114.593
20
-129.164
11
114.498
21
-129.26
0
LINE
8
BLACK
6
CONTINUOUS
10
114.498
20
-129.26
11
114.307
21
-129.355
0
LINE
8
BLACK
6
CONTINUOUS
10
114.307
20
-129.355
11
113.831
21
-129.355
0
LINE
8
BLACK
6
CONTINUOUS
10
113.831
20
-129.355
11
113.64
21
-129.26
0
LINE
8
BLACK
6
CONTINUOUS
10
113.64
20
-129.26
11
113.545
21
-129.164
0
LINE
8
BLACK
6
CONTINUOUS
10
115.355
20
-127.355
11
116.688
21
-127.355
0
LINE
8
BLACK
6
CONTINUOUS
10
116.688
20
-127.355
11
115.831
21
-129.355
0
LINE
8
BLACK
6
CONTINUOUS
10
117.355
20
-127.355
11
117.355
21
-127.736
0
LINE
8
BLACK
6
CONTINUOUS
10
118.117
20
-127.355
11
118.117
21
-127.736
0
LINE
8
BLACK
6
CONTINUOUS
10
121.069
20
-130.117
11
120.974
21
-130.021
0
LINE
8
BLACK
6
CONTINUOUS
10
120.974
20
-130.021
11
120.783
21
-129.736
0
LINE
8
BLACK
6
CONTINUOUS
10
120.783
20
-129.736
11
120.688
21
-129.545
0
LINE
8
BLACK
6
CONTINUOUS
10
120.688
20
-129.545
11
120.593
21
-129.26
0
LINE
8
BLACK
6
CONTINUOUS
10
120.593
20
-129.26
11
120.498
21
-128.783
0
LINE
8
BLACK
6
CONTINUOUS
10
120.498
20
-128.783
11
120.498
21
-128.402
0
LINE
8
BLACK
6
CONTINUOUS
10
120.498
20
-128.402
11
120.593
21
-127.926
0
LINE
8
BLACK
6
CONTINUOUS
10
120.593
20
-127.926
11
120.688
21
-127.64
0
LINE
8
BLACK
6
CONTINUOUS
10
120.688
20
-127.64
11
120.783
21
-127.45
0
LINE
8
BLACK
6
CONTINUOUS
10
120.783
20
-127.45
11
120.974
21
-127.164
0
LINE
8
BLACK
6
CONTINUOUS
10
120.974
20
-127.164
11
121.069
21
-127.069
0
LINE
8
BLACK
6
CONTINUOUS
10
122.879
20
-129.355
11
121.736
21
-129.355
0
LINE
8
BLACK
6
CONTINUOUS
10
122.307
20
-129.355
11
122.307
21
-127.355
0
LINE
8
BLACK
6
CONTINUOUS
10
122.307
20
-127.355
11
122.117
21
-127.64
0
LINE
8
BLACK
6
CONTINUOUS
10
122.117
20
-127.64
11
121.926
21
-127.831
0
LINE
8
BLACK
6
CONTINUOUS
10
121.926
20
-127.831
11
121.736
21
-127.926
0
LINE
8
BLACK
6
CONTINUOUS
10
123.545
20
-127.355
11
124.879
21
-127.355
0
LINE
8
BLACK
6
CONTINUOUS
10
124.879
20
-127.355
11
124.021
21
-129.355
0
LINE
8
BLACK
6
CONTINUOUS
10
127.164
20
-129.355
11
127.164
21
-127.355
0
LINE
8
BLACK
6
CONTINUOUS
10
128.021
20
-129.355
11
128.021
21
-128.307
0
LINE
8
BLACK
6
CONTINUOUS
10
128.021
20
-128.307
11
127.926
21
-128.117
0
LINE
8
BLACK
6
CONTINUOUS
10
127.926
20
-128.117
11
127.736
21
-128.021
0
LINE
8
BLACK
6
CONTINUOUS
10
127.736
20
-128.021
11
127.45
21
-128.021
0
LINE
8
BLACK
6
CONTINUOUS
10
127.45
20
-128.021
11
127.26
21
-128.117
0
LINE
8
BLACK
6
CONTINUOUS
10
127.26
20
-128.117
11
127.164
21
-128.212
0
LINE
8
BLACK
6
CONTINUOUS
10
129.26
20
-129.355
11
129.069
21
-129.26
0
LINE
8
BLACK
6
CONTINUOUS
10
129.069
20
-129.26
11
128.974
21
-129.164
0
LINE
8
BLACK
6
CONTINUOUS
10
128.974
20
-129.164
11
128.879
21
-128.974
0
LINE
8
BLACK
6
CONTINUOUS
10
128.879
20
-128.974
11
128.879
21
-128.402
0
LINE
8
BLACK
6
CONTINUOUS
10
128.879
20
-128.402
11
128.974
21
-128.212
0
LINE
8
BLACK
6
CONTINUOUS
10
128.974
20
-128.212
11
129.069
21
-128.117
0
LINE
8
BLACK
6
CONTINUOUS
10
129.069
20
-128.117
11
129.26
21
-128.021
0
LINE
8
BLACK
6
CONTINUOUS
10
129.26
20
-128.021
11
129.545
21
-128.021
0
LINE
8
BLACK
6
CONTINUOUS
10
129.545
20
-128.021
11
129.736
21
-128.117
0
LINE
8
BLACK
6
CONTINUOUS
10
129.736
20
-128.117
11
129.831
21
-128.212
0
LINE
8
BLACK
6
CONTINUOUS
10
129.831
20
-128.212
11
129.926
21
-128.402
0
LINE
8
BLACK
6
CONTINUOUS
10
129.926
20
-128.402
11
129.926
21
-128.974
0
LINE
8
BLACK
6
CONTINUOUS
10
129.926
20
-128.974
11
129.831
21
-129.164
0
LINE
8
BLACK
6
CONTINUOUS
10
129.831
20
-129.164
11
129.736
21
-129.26
0
LINE
8
BLACK
6
CONTINUOUS
10
129.736
20
-129.26
11
129.545
21
-129.355
0
LINE
8
BLACK
6
CONTINUOUS
10
129.545
20
-129.355
11
129.26
21
-129.355
0
LINE
8
BLACK
6
CONTINUOUS
10
131.069
20
-129.355
11
130.879
21
-129.26
0
LINE
8
BLACK
6
CONTINUOUS
10
130.879
20
-129.26
11
130.783
21
-129.069
0
LINE
8
BLACK
6
CONTINUOUS
10
130.783
20
-129.069
11
130.783
21
-127.355
0
LINE
8
BLACK
6
CONTINUOUS
10
132.593
20
-129.26
11
132.402
21
-129.355
0
LINE
8
BLACK
6
CONTINUOUS
10
132.402
20
-129.355
11
132.021
21
-129.355
0
LINE
8
BLACK
6
CONTINUOUS
10
132.021
20
-129.355
11
131.831
21
-129.26
0
LINE
8
BLACK
6
CONTINUOUS
10
131.831
20
-129.26
11
131.736
21
-129.069
0
LINE
8
BLACK
6
CONTINUOUS
10
131.736
20
-129.069
11
131.736
21
-128.307
0
LINE
8
BLACK
6
CONTINUOUS
10
131.736
20
-128.307
11
131.831
21
-128.117
0
LINE
8
BLACK
6
CONTINUOUS
10
131.831
20
-128.117
11
132.021
21
-128.021
0
LINE
8
BLACK
6
CONTINUOUS
10
132.021
20
-128.021
11
132.402
21
-128.021
0
LINE
8
BLACK
6
CONTINUOUS
10
132.402
20
-128.021
11
132.593
21
-128.117
0
LINE
8
BLACK
6
CONTINUOUS
10
132.593
20
-128.117
11
132.688
21
-128.307
0
LINE
8
BLACK
6
CONTINUOUS
10
132.688
20
-128.307
11
132.688
21
-128.498
0
LINE
8
BLACK
6
CONTINUOUS
10
132.688
20
-128.498
11
131.736
21
-128.688
0
LINE
8
BLACK
6
CONTINUOUS
10
133.45
20
-129.26
11
133.64
21
-129.355
0
LINE
8
BLACK
6
CONTINUOUS
10
133.64
20
-129.355
11
134.021
21
-129.355
0
LINE
8
BLACK
6
CONTINUOUS
10
134.021
20
-129.355
11
134.212
21
-129.26
0
LINE
8
BLACK
6
CONTINUOUS
10
134.212
20
-129.26
11
134.307
21
-129.069
0
LINE
8
BLACK
6
CONTINUOUS
10
134.307
20
-129.069
11
134.307
21
-128.974
0
LINE
8
BLACK
6
CONTINUOUS
10
134.307
20
-128.974
11
134.212
21
-128.783
0
LINE
8
BLACK
6
CONTINUOUS
10
134.212
20
-128.783
11
134.021
21
-128.688
0
LINE
8
BLACK
6
CONTINUOUS
10
134.021
20
-128.688
11
133.736
21
-128.688
0
LINE
8
BLACK
6
CONTINUOUS
10
133.736
20
-128.688
11
133.545
21
-128.593
0
LINE
8
BLACK
6
CONTINUOUS
10
133.545
20
-128.593
11
133.45
21
-128.402
0
LINE
8
BLACK
6
CONTINUOUS
10
133.45
20
-128.402
11
133.45
21
-128.307
0
LINE
8
BLACK
6
CONTINUOUS
10
133.45
20
-128.307
11
133.545
21
-128.117
0
LINE
8
BLACK
6
CONTINUOUS
10
133.545
20
-128.117
11
133.736
21
-128.021
0
LINE
8
BLACK
6
CONTINUOUS
10
133.736
20
-128.021
11
134.021
21
-128.021
0
LINE
8
BLACK
6
CONTINUOUS
10
134.021
20
-128.021
11
134.212
21
-128.117
0
LINE
8
BLACK
6
CONTINUOUS
10
134.974
20
-130.117
11
135.069
21
-130.021
0
LINE
8
BLACK
6
CONTINUOUS
10
135.069
20
-130.021
11
135.26
21
-129.736
0
LINE
8
BLACK
6
CONTINUOUS
10
135.26
20
-129.736
11
135.355
21
-129.545
0
LINE
8
BLACK
6
CONTINUOUS
10
135.355
20
-129.545
11
135.45
21
-129.26
0
LINE
8
BLACK
6
CONTINUOUS
10
135.45
20
-129.26
11
135.545
21
-128.783
0
LINE
8
BLACK
6
CONTINUOUS
10
135.545
20
-128.783
11
135.545
21
-128.402
0
LINE
8
BLACK
6
CONTINUOUS
10
135.545
20
-128.402
11
135.45
21
-127.926
0
LINE
8
BLACK
6
CONTINUOUS
10
135.45
20
-127.926
11
135.355
21
-127.64
0
LINE
8
BLACK
6
CONTINUOUS
10
135.355
20
-127.64
11
135.26
21
-127.45
0
LINE
8
BLACK
6
CONTINUOUS
10
135.26
20
-127.45
11
135.069
21
-127.164
0
LINE
8
BLACK
6
CONTINUOUS
10
135.069
20
-127.164
11
134.974
21
-127.069
0
CIRCLE
8
BLACK
10
84.969
20
-131.09
40
0.381
0
LINE
8
BLACK
6
CONTINUOUS
10
88.3071
20
-129.995
11
88.4976
21
-129.995
0
LINE
8
BLACK
6
CONTINUOUS
10
88.4976
20
-129.995
11
88.6881
21
-130.09
0
LINE
8
BLACK
6
CONTINUOUS
10
88.6881
20
-130.09
11
88.7833
21
-130.185
0
LINE
8
BLACK
6
CONTINUOUS
10
88.7833
20
-130.185
11
88.8786
21
-130.376
0
LINE
8
BLACK
6
CONTINUOUS
10
88.8786
20
-130.376
11
88.9738
21
-130.757
0
LINE
8
BLACK
6
CONTINUOUS
10
88.9738
20
-130.757
11
88.9738
21
-131.233
0
LINE
8
BLACK
6
CONTINUOUS
10
88.9738
20
-131.233
11
88.8786
21
-131.614
0
LINE
8
BLACK
6
CONTINUOUS
10
88.8786
20
-131.614
11
88.7833
21
-131.804
0
LINE
8
BLACK
6
CONTINUOUS
10
88.7833
20
-131.804
11
88.6881
21
-131.9
0
LINE
8
BLACK
6
CONTINUOUS
10
88.6881
20
-131.9
11
88.4976
21
-131.995
0
LINE
8
BLACK
6
CONTINUOUS
10
88.4976
20
-131.995
11
88.3071
21
-131.995
0
LINE
8
BLACK
6
CONTINUOUS
10
88.3071
20
-131.995
11
88.1167
21
-131.9
0
LINE
8
BLACK
6
CONTINUOUS
10
88.1167
20
-131.9
11
88.0214
21
-131.804
0
LINE
8
BLACK
6
CONTINUOUS
10
88.0214
20
-131.804
11
87.9262
21
-131.614
0
LINE
8
BLACK
6
CONTINUOUS
10
87.9262
20
-131.614
11
87.831
21
-131.233
0
LINE
8
BLACK
6
CONTINUOUS
10
87.831
20
-131.233
11
87.831
21
-130.757
0
LINE
8
BLACK
6
CONTINUOUS
10
87.831
20
-130.757
11
87.9262
21
-130.376
0
LINE
8
BLACK
6
CONTINUOUS
10
87.9262
20
-130.376
11
88.0214
21
-130.185
0
LINE
8
BLACK
6
CONTINUOUS
10
88.0214
20
-130.185
11
88.1167
21
-130.09
0
LINE
8
BLACK
6
CONTINUOUS
10
88.1167
20
-130.09
11
88.3071
21
-129.995
0
LINE
8
BLACK
6
CONTINUOUS
10
89.831
20
-131.804
11
89.9262
21
-131.9
0
LINE
8
BLACK
6
CONTINUOUS
10
89.9262
20
-131.9
11
89.831
21
-131.995
0
LINE
8
BLACK
6
CONTINUOUS
10
89.831
20
-131.995
11
89.7357
21
-131.9
0
LINE
8
BLACK
6
CONTINUOUS
10
89.7357
20
-131.9
11
89.831
21
-131.804
0
LINE
8
BLACK
6
CONTINUOUS
10
89.831
20
-131.804
11
89.831
21
-131.995
0
LINE
8
BLACK
6
CONTINUOUS
10
90.5929
20
-129.995
11
91.9262
21
-129.995
0
LINE
8
BLACK
6
CONTINUOUS
10
91.9262
20
-129.995
11
91.069
21
-131.995
0
LINE
8
BLACK
6
CONTINUOUS
10
93.5452
20
-129.995
11
93.1643
21
-129.995
0
LINE
8
BLACK
6
CONTINUOUS
10
93.1643
20
-129.995
11
92.9738
21
-130.09
0
LINE
8
BLACK
6
CONTINUOUS
10
92.9738
20
-130.09
11
92.8786
21
-130.185
0
LINE
8
BLACK
6
CONTINUOUS
10
92.8786
20
-130.185
11
92.6881
21
-130.471
0
LINE
8
BLACK
6
CONTINUOUS
10
92.6881
20
-130.471
11
92.5929
21
-130.852
0
LINE
8
BLACK
6
CONTINUOUS
10
92.5929
20
-130.852
11
92.5929
21
-131.614
0
LINE
8
BLACK
6
CONTINUOUS
10
92.5929
20
-131.614
11
92.6881
21
-131.804
0
LINE
8
BLACK
6
CONTINUOUS
10
92.6881
20
-131.804
11
92.7833
21
-131.9
0
LINE
8
BLACK
6
CONTINUOUS
10
92.7833
20
-131.9
11
92.9738
21
-131.995
0
LINE
8
BLACK
6
CONTINUOUS
10
92.9738
20
-131.995
11
93.3548
21
-131.995
0
LINE
8
BLACK
6
CONTINUOUS
10
93.3548
20
-131.995
11
93.5452
21
-131.9
0
LINE
8
BLACK
6
CONTINUOUS
10
93.5452
20
-131.9
11
93.6405
21
-131.804
0
LINE
8
BLACK
6
CONTINUOUS
10
93.6405
20
-131.804
11
93.7357
21
-131.614
0
LINE
8
BLACK
6
CONTINUOUS
10
93.7357
20
-131.614
11
93.7357
21
-131.138
0
LINE
8
BLACK
6
CONTINUOUS
10
93.7357
20
-131.138
11
93.6405
21
-130.947
0
LINE
8
BLACK
6
CONTINUOUS
10
93.6405
20
-130.947
11
93.5452
21
-130.852
0
LINE
8
BLACK
6
CONTINUOUS
10
93.5452
20
-130.852
11
93.3548
21
-130.757
0
LINE
8
BLACK
6
CONTINUOUS
10
93.3548
20
-130.757
11
92.9738
21
-130.757
0
LINE
8
BLACK
6
CONTINUOUS
10
92.9738
20
-130.757
11
92.7833
21
-130.852
0
LINE
8
BLACK
6
CONTINUOUS
10
92.7833
20
-130.852
11
92.6881
21
-130.947
0
LINE
8
BLACK
6
CONTINUOUS
10
92.6881
20
-130.947
11
92.5929
21
-131.138
0
LINE
8
BLACK
6
CONTINUOUS
10
94.4976
20
-130.185
11
94.5929
21
-130.09
0
LINE
8
BLACK
6
CONTINUOUS
10
94.5929
20
-130.09
11
94.7833
21
-129.995
0
LINE
8
BLACK
6
CONTINUOUS
10
94.7833
20
-129.995
11
95.2595
21
-129.995
0
LINE
8
BLACK
6
CONTINUOUS
10
95.2595
20
-129.995
11
95.45
21
-130.09
0
LINE
8
BLACK
6
CONTINUOUS
10
95.45
20
-130.09
11
95.5452
21
-130.185
0
LINE
8
BLACK
6
CONTINUOUS
10
95.5452
20
-130.185
11
95.6405
21
-130.376
0
LINE
8
BLACK
6
CONTINUOUS
10
95.6405
20
-130.376
11
95.6405
21
-130.566
0
LINE
8
BLACK
6
CONTINUOUS
10
95.6405
20
-130.566
11
95.5452
21
-130.852
0
LINE
8
BLACK
6
CONTINUOUS
10
95.5452
20
-130.852
11
94.4024
21
-131.995
0
LINE
8
BLACK
6
CONTINUOUS
10
94.4024
20
-131.995
11
95.6405
21
-131.995
0
LINE
8
BLACK
6
CONTINUOUS
10
96.4976
20
-131.995
11
96.4976
21
-130.661
0
LINE
8
BLACK
6
CONTINUOUS
10
96.4976
20
-130.852
11
96.5929
21
-130.757
0
LINE
8
BLACK
6
CONTINUOUS
10
96.5929
20
-130.757
11
96.7833
21
-130.661
0
LINE
8
BLACK
6
CONTINUOUS
10
96.7833
20
-130.661
11
97.069
21
-130.661
0
LINE
8
BLACK
6
CONTINUOUS
10
97.069
20
-130.661
11
97.2595
21
-130.757
0
LINE
8
BLACK
6
CONTINUOUS
10
97.2595
20
-130.757
11
97.3548
21
-130.947
0
LINE
8
BLACK
6
CONTINUOUS
10
97.3548
20
-130.947
11
97.3548
21
-131.995
0
LINE
8
BLACK
6
CONTINUOUS
10
97.3548
20
-130.947
11
97.45
21
-130.757
0
LINE
8
BLACK
6
CONTINUOUS
10
97.45
20
-130.757
11
97.6405
21
-130.661
0
LINE
8
BLACK
6
CONTINUOUS
10
97.6405
20
-130.661
11
97.9262
21
-130.661
0
LINE
8
BLACK
6
CONTINUOUS
10
97.9262
20
-130.661
11
98.1167
21
-130.757
0
LINE
8
BLACK
6
CONTINUOUS
10
98.1167
20
-130.757
11
98.2119
21
-130.947
0
LINE
8
BLACK
6
CONTINUOUS
10
98.2119
20
-130.947
11
98.2119
21
-131.995
0
LINE
8
BLACK
6
CONTINUOUS
10
99.1643
20
-131.995
11
99.1643
21
-130.661
0
LINE
8
BLACK
6
CONTINUOUS
10
99.1643
20
-130.852
11
99.2595
21
-130.757
0
LINE
8
BLACK
6
CONTINUOUS
10
99.2595
20
-130.757
11
99.45
21
-130.661
0
LINE
8
BLACK
6
CONTINUOUS
10
99.45
20
-130.661
11
99.7357
21
-130.661
0
LINE
8
BLACK
6
CONTINUOUS
10
99.7357
20
-130.661
11
99.9262
21
-130.757
0
LINE
8
BLACK
6
CONTINUOUS
10
99.9262
20
-130.757
11
100.021
21
-130.947
0
LINE
8
BLACK
6
CONTINUOUS
10
100.021
20
-130.947
11
100.021
21
-131.995
0
LINE
8
BLACK
6
CONTINUOUS
10
100.021
20
-130.947
11
100.117
21
-130.757
0
LINE
8
BLACK
6
CONTINUOUS
10
100.117
20
-130.757
11
100.307
21
-130.661
0
LINE
8
BLACK
6
CONTINUOUS
10
100.307
20
-130.661
11
100.593
21
-130.661
0
LINE
8
BLACK
6
CONTINUOUS
10
100.593
20
-130.661
11
100.783
21
-130.757
0
LINE
8
BLACK
6
CONTINUOUS
10
100.783
20
-130.757
11
100.879
21
-130.947
0
LINE
8
BLACK
6
CONTINUOUS
10
100.879
20
-130.947
11
100.879
21
-131.995
0
LINE
8
BLACK
6
CONTINUOUS
10
104.783
20
-129.9
11
103.069
21
-132.471
0
LINE
8
BLACK
6
CONTINUOUS
10
107.355
20
-129.995
11
107.545
21
-129.995
0
LINE
8
BLACK
6
CONTINUOUS
10
107.545
20
-129.995
11
107.736
21
-130.09
0
LINE
8
BLACK
6
CONTINUOUS
10
107.736
20
-130.09
11
107.831
21
-130.185
0
LINE
8
BLACK
6
CONTINUOUS
10
107.831
20
-130.185
11
107.926
21
-130.376
0
LINE
8
BLACK
6
CONTINUOUS
10
107.926
20
-130.376
11
108.021
21
-130.757
0
LINE
8
BLACK
6
CONTINUOUS
10
108.021
20
-130.757
11
108.021
21
-131.233
0
LINE
8
BLACK
6
CONTINUOUS
10
108.021
20
-131.233
11
107.926
21
-131.614
0
LINE
8
BLACK
6
CONTINUOUS
10
107.926
20
-131.614
11
107.831
21
-131.804
0
LINE
8
BLACK
6
CONTINUOUS
10
107.831
20
-131.804
11
107.736
21
-131.9
0
LINE
8
BLACK
6
CONTINUOUS
10
107.736
20
-131.9
11
107.545
21
-131.995
0
LINE
8
BLACK
6
CONTINUOUS
10
107.545
20
-131.995
11
107.355
21
-131.995
0
LINE
8
BLACK
6
CONTINUOUS
10
107.355
20
-131.995
11
107.164
21
-131.9
0
LINE
8
BLACK
6
CONTINUOUS
10
107.164
20
-131.9
11
107.069
21
-131.804
0
LINE
8
BLACK
6
CONTINUOUS
10
107.069
20
-131.804
11
106.974
21
-131.614
0
LINE
8
BLACK
6
CONTINUOUS
10
106.974
20
-131.614
11
106.879
21
-131.233
0
LINE
8
BLACK
6
CONTINUOUS
10
106.879
20
-131.233
11
106.879
21
-130.757
0
LINE
8
BLACK
6
CONTINUOUS
10
106.879
20
-130.757
11
106.974
21
-130.376
0
LINE
8
BLACK
6
CONTINUOUS
10
106.974
20
-130.376
11
107.069
21
-130.185
0
LINE
8
BLACK
6
CONTINUOUS
10
107.069
20
-130.185
11
107.164
21
-130.09
0
LINE
8
BLACK
6
CONTINUOUS
10
107.164
20
-130.09
11
107.355
21
-129.995
0
LINE
8
BLACK
6
CONTINUOUS
10
108.879
20
-131.804
11
108.974
21
-131.9
0
LINE
8
BLACK
6
CONTINUOUS
10
108.974
20
-131.9
11
108.879
21
-131.995
0
LINE
8
BLACK
6
CONTINUOUS
10
108.879
20
-131.995
11
108.783
21
-131.9
0
LINE
8
BLACK
6
CONTINUOUS
10
108.783
20
-131.9
11
108.879
21
-131.804
0
LINE
8
BLACK
6
CONTINUOUS
10
108.879
20
-131.804
11
108.879
21
-131.995
0
LINE
8
BLACK
6
CONTINUOUS
10
110.212
20
-129.995
11
110.402
21
-129.995
0
LINE
8
BLACK
6
CONTINUOUS
10
110.402
20
-129.995
11
110.593
21
-130.09
0
LINE
8
BLACK
6
CONTINUOUS
10
110.593
20
-130.09
11
110.688
21
-130.185
0
LINE
8
BLACK
6
CONTINUOUS
10
110.688
20
-130.185
11
110.783
21
-130.376
0
LINE
8
BLACK
6
CONTINUOUS
10
110.783
20
-130.376
11
110.879
21
-130.757
0
LINE
8
BLACK
6
CONTINUOUS
10
110.879
20
-130.757
11
110.879
21
-131.233
0
LINE
8
BLACK
6
CONTINUOUS
10
110.879
20
-131.233
11
110.783
21
-131.614
0
LINE
8
BLACK
6
CONTINUOUS
10
110.783
20
-131.614
11
110.688
21
-131.804
0
LINE
8
BLACK
6
CONTINUOUS
10
110.688
20
-131.804
11
110.593
21
-131.9
0
LINE
8
BLACK
6
CONTINUOUS
10
110.593
20
-131.9
11
110.402
21
-131.995
0
LINE
8
BLACK
6
CONTINUOUS
10
110.402
20
-131.995
11
110.212
21
-131.995
0
LINE
8
BLACK
6
CONTINUOUS
10
110.212
20
-131.995
11
110.021
21
-131.9
0
LINE
8
BLACK
6
CONTINUOUS
10
110.021
20
-131.9
11
109.926
21
-131.804
0
LINE
8
BLACK
6
CONTINUOUS
10
109.926
20
-131.804
11
109.831
21
-131.614
0
LINE
8
BLACK
6
CONTINUOUS
10
109.831
20
-131.614
11
109.736
21
-131.233
0
LINE
8
BLACK
6
CONTINUOUS
10
109.736
20
-131.233
11
109.736
21
-130.757
0
LINE
8
BLACK
6
CONTINUOUS
10
109.736
20
-130.757
11
109.831
21
-130.376
0
LINE
8
BLACK
6
CONTINUOUS
10
109.831
20
-130.376
11
109.926
21
-130.185
0
LINE
8
BLACK
6
CONTINUOUS
10
109.926
20
-130.185
11
110.021
21
-130.09
0
LINE
8
BLACK
6
CONTINUOUS
10
110.021
20
-130.09
11
110.212
21
-129.995
0
LINE
8
BLACK
6
CONTINUOUS
10
111.545
20
-129.995
11
112.783
21
-129.995
0
LINE
8
BLACK
6
CONTINUOUS
10
112.783
20
-129.995
11
112.117
21
-130.757
0
LINE
8
BLACK
6
CONTINUOUS
10
112.117
20
-130.757
11
112.402
21
-130.757
0
LINE
8
BLACK
6
CONTINUOUS
10
112.402
20
-130.757
11
112.593
21
-130.852
0
LINE
8
BLACK
6
CONTINUOUS
10
112.593
20
-130.852
11
112.688
21
-130.947
0
LINE
8
BLACK
6
CONTINUOUS
10
112.688
20
-130.947
11
112.783
21
-131.138
0
LINE
8
BLACK
6
CONTINUOUS
10
112.783
20
-131.138
11
112.783
21
-131.614
0
LINE
8
BLACK
6
CONTINUOUS
10
112.783
20
-131.614
11
112.688
21
-131.804
0
LINE
8
BLACK
6
CONTINUOUS
10
112.688
20
-131.804
11
112.593
21
-131.9
0
LINE
8
BLACK
6
CONTINUOUS
10
112.593
20
-131.9
11
112.402
21
-131.995
0
LINE
8
BLACK
6
CONTINUOUS
10
112.402
20
-131.995
11
111.831
21
-131.995
0
LINE
8
BLACK
6
CONTINUOUS
10
111.831
20
-131.995
11
111.64
21
-131.9
0
LINE
8
BLACK
6
CONTINUOUS
10
111.64
20
-131.9
11
111.545
21
-131.804
0
LINE
8
BLACK
6
CONTINUOUS
10
114.021
20
-129.995
11
114.212
21
-129.995
0
LINE
8
BLACK
6
CONTINUOUS
10
114.212
20
-129.995
11
114.402
21
-130.09
0
LINE
8
BLACK
6
CONTINUOUS
10
114.402
20
-130.09
11
114.498
21
-130.185
0
LINE
8
BLACK
6
CONTINUOUS
10
114.498
20
-130.185
11
114.593
21
-130.376
0
LINE
8
BLACK
6
CONTINUOUS
10
114.593
20
-130.376
11
114.688
21
-130.757
0
LINE
8
BLACK
6
CONTINUOUS
10
114.688
20
-130.757
11
114.688
21
-131.233
0
LINE
8
BLACK
6
CONTINUOUS
10
114.688
20
-131.233
11
114.593
21
-131.614
0
LINE
8
BLACK
6
CONTINUOUS
10
114.593
20
-131.614
11
114.498
21
-131.804
0
LINE
8
BLACK
6
CONTINUOUS
10
114.498
20
-131.804
11
114.402
21
-131.9
0
LINE
8
BLACK
6
CONTINUOUS
10
114.402
20
-131.9
11
114.212
21
-131.995
0
LINE
8
BLACK
6
CONTINUOUS
10
114.212
20
-131.995
11
114.021
21
-131.995
0
LINE
8
BLACK
6
CONTINUOUS
10
114.021
20
-131.995
11
113.831
21
-131.9
0
LINE
8
BLACK
6
CONTINUOUS
10
113.831
20
-131.9
11
113.736
21
-131.804
0
LINE
8
BLACK
6
CONTINUOUS
10
113.736
20
-131.804
11
113.64
21
-131.614
0
LINE
8
BLACK
6
CONTINUOUS
10
113.64
20
-131.614
11
113.545
21
-131.233
0
LINE
8
BLACK
6
CONTINUOUS
10
113.545
20
-131.233
11
113.545
21
-130.757
0
LINE
8
BLACK
6
CONTINUOUS
10
113.545
20
-130.757
11
113.64
21
-130.376
0
LINE
8
BLACK
6
CONTINUOUS
10
113.64
20
-130.376
11
113.736
21
-130.185
0
LINE
8
BLACK
6
CONTINUOUS
10
113.736
20
-130.185
11
113.831
21
-130.09
0
LINE
8
BLACK
6
CONTINUOUS
10
113.831
20
-130.09
11
114.021
21
-129.995
0
LINE
8
BLACK
6
CONTINUOUS
10
115.926
20
-129.995
11
116.117
21
-129.995
0
LINE
8
BLACK
6
CONTINUOUS
10
116.117
20
-129.995
11
116.307
21
-130.09
0
LINE
8
BLACK
6
CONTINUOUS
10
116.307
20
-130.09
11
116.402
21
-130.185
0
LINE
8
BLACK
6
CONTINUOUS
10
116.402
20
-130.185
11
116.498
21
-130.376
0
LINE
8
BLACK
6
CONTINUOUS
10
116.498
20
-130.376
11
116.593
21
-130.757
0
LINE
8
BLACK
6
CONTINUOUS
10
116.593
20
-130.757
11
116.593
21
-131.233
0
LINE
8
BLACK
6
CONTINUOUS
10
116.593
20
-131.233
11
116.498
21
-131.614
0
LINE
8
BLACK
6
CONTINUOUS
10
116.498
20
-131.614
11
116.402
21
-131.804
0
LINE
8
BLACK
6
CONTINUOUS
10
116.402
20
-131.804
11
116.307
21
-131.9
0
LINE
8
BLACK
6
CONTINUOUS
10
116.307
20
-131.9
11
116.117
21
-131.995
0
LINE
8
BLACK
6
CONTINUOUS
10
116.117
20
-131.995
11
115.926
21
-131.995
0
LINE
8
BLACK
6
CONTINUOUS
10
115.926
20
-131.995
11
115.736
21
-131.9
0
LINE
8
BLACK
6
CONTINUOUS
10
115.736
20
-131.9
11
115.64
21
-131.804
0
LINE
8
BLACK
6
CONTINUOUS
10
115.64
20
-131.804
11
115.545
21
-131.614
0
LINE
8
BLACK
6
CONTINUOUS
10
115.545
20
-131.614
11
115.45
21
-131.233
0
LINE
8
BLACK
6
CONTINUOUS
10
115.45
20
-131.233
11
115.45
21
-130.757
0
LINE
8
BLACK
6
CONTINUOUS
10
115.45
20
-130.757
11
115.545
21
-130.376
0
LINE
8
BLACK
6
CONTINUOUS
10
115.545
20
-130.376
11
115.64
21
-130.185
0
LINE
8
BLACK
6
CONTINUOUS
10
115.64
20
-130.185
11
115.736
21
-130.09
0
LINE
8
BLACK
6
CONTINUOUS
10
115.736
20
-130.09
11
115.926
21
-129.995
0
LINE
8
BLACK
6
CONTINUOUS
10
117.355
20
-129.995
11
117.355
21
-130.376
0
LINE
8
BLACK
6
CONTINUOUS
10
118.117
20
-129.995
11
118.117
21
-130.376
0
LINE
8
BLACK
6
CONTINUOUS
10
121.069
20
-132.757
11
120.974
21
-132.661
0
LINE
8
BLACK
6
CONTINUOUS
10
120.974
20
-132.661
11
120.783
21
-132.376
0
LINE
8
BLACK
6
CONTINUOUS
10
120.783
20
-132.376
11
120.688
21
-132.185
0
LINE
8
BLACK
6
CONTINUOUS
10
120.688
20
-132.185
11
120.593
21
-131.9
0
LINE
8
BLACK
6
CONTINUOUS
10
120.593
20
-131.9
11
120.498
21
-131.423
0
LINE
8
BLACK
6
CONTINUOUS
10
120.498
20
-131.423
11
120.498
21
-131.042
0
LINE
8
BLACK
6
CONTINUOUS
10
120.498
20
-131.042
11
120.593
21
-130.566
0
LINE
8
BLACK
6
CONTINUOUS
10
120.593
20
-130.566
11
120.688
21
-130.28
0
LINE
8
BLACK
6
CONTINUOUS
10
120.688
20
-130.28
11
120.783
21
-130.09
0
LINE
8
BLACK
6
CONTINUOUS
10
120.783
20
-130.09
11
120.974
21
-129.804
0
LINE
8
BLACK
6
CONTINUOUS
10
120.974
20
-129.804
11
121.069
21
-129.709
0
LINE
8
BLACK
6
CONTINUOUS
10
121.64
20
-129.995
11
122.879
21
-129.995
0
LINE
8
BLACK
6
CONTINUOUS
10
122.879
20
-129.995
11
122.212
21
-130.757
0
LINE
8
BLACK
6
CONTINUOUS
10
122.212
20
-130.757
11
122.498
21
-130.757
0
LINE
8
BLACK
6
CONTINUOUS
10
122.498
20
-130.757
11
122.688
21
-130.852
0
LINE
8
BLACK
6
CONTINUOUS
10
122.688
20
-130.852
11
122.783
21
-130.947
0
LINE
8
BLACK
6
CONTINUOUS
10
122.783
20
-130.947
11
122.879
21
-131.138
0
LINE
8
BLACK
6
CONTINUOUS
10
122.879
20
-131.138
11
122.879
21
-131.614
0
LINE
8
BLACK
6
CONTINUOUS
10
122.879
20
-131.614
11
122.783
21
-131.804
0
LINE
8
BLACK
6
CONTINUOUS
10
122.783
20
-131.804
11
122.688
21
-131.9
0
LINE
8
BLACK
6
CONTINUOUS
10
122.688
20
-131.9
11
122.498
21
-131.995
0
LINE
8
BLACK
6
CONTINUOUS
10
122.498
20
-131.995
11
121.926
21
-131.995
0
LINE
8
BLACK
6
CONTINUOUS
10
121.926
20
-131.995
11
121.736
21
-131.9
0
LINE
8
BLACK
6
CONTINUOUS
10
121.736
20
-131.9
11
121.64
21
-131.804
0
LINE
8
BLACK
6
CONTINUOUS
10
124.117
20
-129.995
11
124.307
21
-129.995
0
LINE
8
BLACK
6
CONTINUOUS
10
124.307
20
-129.995
11
124.498
21
-130.09
0
LINE
8
BLACK
6
CONTINUOUS
10
124.498
20
-130.09
11
124.593
21
-130.185
0
LINE
8
BLACK
6
CONTINUOUS
10
124.593
20
-130.185
11
124.688
21
-130.376
0
LINE
8
BLACK
6
CONTINUOUS
10
124.688
20
-130.376
11
124.783
21
-130.757
0
LINE
8
BLACK
6
CONTINUOUS
10
124.783
20
-130.757
11
124.783
21
-131.233
0
LINE
8
BLACK
6
CONTINUOUS
10
124.783
20
-131.233
11
124.688
21
-131.614
0
LINE
8
BLACK
6
CONTINUOUS
10
124.688
20
-131.614
11
124.593
21
-131.804
0
LINE
8
BLACK
6
CONTINUOUS
10
124.593
20
-131.804
11
124.498
21
-131.9
0
LINE
8
BLACK
6
CONTINUOUS
10
124.498
20
-131.9
11
124.307
21
-131.995
0
LINE
8
BLACK
6
CONTINUOUS
10
124.307
20
-131.995
11
124.117
21
-131.995
0
LINE
8
BLACK
6
CONTINUOUS
10
124.117
20
-131.995
11
123.926
21
-131.9
0
LINE
8
BLACK
6
CONTINUOUS
10
123.926
20
-131.9
11
123.831
21
-131.804
0
LINE
8
BLACK
6
CONTINUOUS
10
123.831
20
-131.804
11
123.736
21
-131.614
0
LINE
8
BLACK
6
CONTINUOUS
10
123.736
20
-131.614
11
123.64
21
-131.233
0
LINE
8
BLACK
6
CONTINUOUS
10
123.64
20
-131.233
11
123.64
21
-130.757
0
LINE
8
BLACK
6
CONTINUOUS
10
123.64
20
-130.757
11
123.736
21
-130.376
0
LINE
8
BLACK
6
CONTINUOUS
10
123.736
20
-130.376
11
123.831
21
-130.185
0
LINE
8
BLACK
6
CONTINUOUS
10
123.831
20
-130.185
11
123.926
21
-130.09
0
LINE
8
BLACK
6
CONTINUOUS
10
123.926
20
-130.09
11
124.117
21
-129.995
0
LINE
8
BLACK
6
CONTINUOUS
10
127.164
20
-131.995
11
127.164
21
-129.995
0
LINE
8
BLACK
6
CONTINUOUS
10
128.021
20
-131.995
11
128.021
21
-130.947
0
LINE
8
BLACK
6
CONTINUOUS
10
128.021
20
-130.947
11
127.926
21
-130.757
0
LINE
8
BLACK
6
CONTINUOUS
10
127.926
20
-130.757
11
127.736
21
-130.661
0
LINE
8
BLACK
6
CONTINUOUS
10
127.736
20
-130.661
11
127.45
21
-130.661
0
LINE
8
BLACK
6
CONTINUOUS
10
127.45
20
-130.661
11
127.26
21
-130.757
0
LINE
8
BLACK
6
CONTINUOUS
10
127.26
20
-130.757
11
127.164
21
-130.852
0
LINE
8
BLACK
6
CONTINUOUS
10
129.26
20
-131.995
11
129.069
21
-131.9
0
LINE
8
BLACK
6
CONTINUOUS
10
129.069
20
-131.9
11
128.974
21
-131.804
0
LINE
8
BLACK
6
CONTINUOUS
10
128.974
20
-131.804
11
128.879
21
-131.614
0
LINE
8
BLACK
6
CONTINUOUS
10
128.879
20
-131.614
11
128.879
21
-131.042
0
LINE
8
BLACK
6
CONTINUOUS
10
128.879
20
-131.042
11
128.974
21
-130.852
0
LINE
8
BLACK
6
CONTINUOUS
10
128.974
20
-130.852
11
129.069
21
-130.757
0
LINE
8
BLACK
6
CONTINUOUS
10
129.069
20
-130.757
11
129.26
21
-130.661
0
LINE
8
BLACK
6
CONTINUOUS
10
129.26
20
-130.661
11
129.545
21
-130.661
0
LINE
8
BLACK
6
CONTINUOUS
10
129.545
20
-130.661
11
129.736
21
-130.757
0
LINE
8
BLACK
6
CONTINUOUS
10
129.736
20
-130.757
11
129.831
21
-130.852
0
LINE
8
BLACK
6
CONTINUOUS
10
129.831
20
-130.852
11
129.926
21
-131.042
0
LINE
8
BLACK
6
CONTINUOUS
10
129.926
20
-131.042
11
129.926
21
-131.614
0
LINE
8
BLACK
6
CONTINUOUS
10
129.926
20
-131.614
11
129.831
21
-131.804
0
LINE
8
BLACK
6
CONTINUOUS
10
129.831
20
-131.804
11
129.736
21
-131.9
0
LINE
8
BLACK
6
CONTINUOUS
10
129.736
20
-131.9
11
129.545
21
-131.995
0
LINE
8
BLACK
6
CONTINUOUS
10
129.545
20
-131.995
11
129.26
21
-131.995
0
LINE
8
BLACK
6
CONTINUOUS
10
131.069
20
-131.995
11
130.879
21
-131.9
0
LINE
8
BLACK
6
CONTINUOUS
10
130.879
20
-131.9
11
130.783
21
-131.709
0
LINE
8
BLACK
6
CONTINUOUS
10
130.783
20
-131.709
11
130.783
21
-129.995
0
LINE
8
BLACK
6
CONTINUOUS
10
132.593
20
-131.9
11
132.402
21
-131.995
0
LINE
8
BLACK
6
CONTINUOUS
10
132.402
20
-131.995
11
132.021
21
-131.995
0
LINE
8
BLACK
6
CONTINUOUS
10
132.021
20
-131.995
11
131.831
21
-131.9
0
LINE
8
BLACK
6
CONTINUOUS
10
131.831
20
-131.9
11
131.736
21
-131.709
0
LINE
8
BLACK
6
CONTINUOUS
10
131.736
20
-131.709
11
131.736
21
-130.947
0
LINE
8
BLACK
6
CONTINUOUS
10
131.736
20
-130.947
11
131.831
21
-130.757
0
LINE
8
BLACK
6
CONTINUOUS
10
131.831
20
-130.757
11
132.021
21
-130.661
0
LINE
8
BLACK
6
CONTINUOUS
10
132.021
20
-130.661
11
132.402
21
-130.661
0
LINE
8
BLACK
6
CONTINUOUS
10
132.402
20
-130.661
11
132.593
21
-130.757
0
LINE
8
BLACK
6
CONTINUOUS
10
132.593
20
-130.757
11
132.688
21
-130.947
0
LINE
8
BLACK
6
CONTINUOUS
10
132.688
20
-130.947
11
132.688
21
-131.138
0
LINE
8
BLACK
6
CONTINUOUS
10
132.688
20
-131.138
11
131.736
21
-131.328
0
LINE
8
BLACK
6
CONTINUOUS
10
133.45
20
-131.9
11
133.64
21
-131.995
0
LINE
8
BLACK
6
CONTINUOUS
10
133.64
20
-131.995
11
134.021
21
-131.995
0
LINE
8
BLACK
6
CONTINUOUS
10
134.021
20
-131.995
11
134.212
21
-131.9
0
LINE
8
BLACK
6
CONTINUOUS
10
134.212
20
-131.9
11
134.307
21
-131.709
0
LINE
8
BLACK
6
CONTINUOUS
10
134.307
20
-131.709
11
134.307
21
-131.614
0
LINE
8
BLACK
6
CONTINUOUS
10
134.307
20
-131.614
11
134.212
21
-131.423
0
LINE
8
BLACK
6
CONTINUOUS
10
134.212
20
-131.423
11
134.021
21
-131.328
0
LINE
8
BLACK
6
CONTINUOUS
10
134.021
20
-131.328
11
133.736
21
-131.328
0
LINE
8
BLACK
6
CONTINUOUS
10
133.736
20
-131.328
11
133.545
21
-131.233
0
LINE
8
BLACK
6
CONTINUOUS
10
133.545
20
-131.233
11
133.45
21
-131.042
0
LINE
8
BLACK
6
CONTINUOUS
10
133.45
20
-131.042
11
133.45
21
-130.947
0
LINE
8
BLACK
6
CONTINUOUS
10
133.45
20
-130.947
11
133.545
21
-130.757
0
LINE
8
BLACK
6
CONTINUOUS
10
133.545
20
-130.757
11
133.736
21
-130.661
0
LINE
8
BLACK
6
CONTINUOUS
10
133.736
20
-130.661
11
134.021
21
-130.661
0
LINE
8
BLACK
6
CONTINUOUS
10
134.021
20
-130.661
11
134.212
21
-130.757
0
LINE
8
BLACK
6
CONTINUOUS
10
134.974
20
-132.757
11
135.069
21
-132.661
0
LINE
8
BLACK
6
CONTINUOUS
10
135.069
20
-132.661
11
135.26
21
-132.376
0
LINE
8
BLACK
6
CONTINUOUS
10
135.26
20
-132.376
11
135.355
21
-132.185
0
LINE
8
BLACK
6
CONTINUOUS
10
135.355
20
-132.185
11
135.45
21
-131.9
0
LINE
8
BLACK
6
CONTINUOUS
10
135.45
20
-131.9
11
135.545
21
-131.423
0
LINE
8
BLACK
6
CONTINUOUS
10
135.545
20
-131.423
11
135.545
21
-131.042
0
LINE
8
BLACK
6
CONTINUOUS
10
135.545
20
-131.042
11
135.45
21
-130.566
0
LINE
8
BLACK
6
CONTINUOUS
10
135.45
20
-130.566
11
135.355
21
-130.28
0
LINE
8
BLACK
6
CONTINUOUS
10
135.355
20
-130.28
11
135.26
21
-130.09
0
LINE
8
BLACK
6
CONTINUOUS
10
135.26
20
-130.09
11
135.069
21
-129.804
0
LINE
8
BLACK
6
CONTINUOUS
10
135.069
20
-129.804
11
134.974
21
-129.709
0
LINE
8
BLACK
6
CONTINUOUS
10
84.65
20
-133.03
11
84.65
21
-134.43
0
LINE
8
BLACK
6
CONTINUOUS
10
83.95
20
-133.73
11
85.35
21
-133.73
0
LINE
8
BLACK
6
CONTINUOUS
10
88.9738
20
-134.635
11
87.831
21
-134.635
0
LINE
8
BLACK
6
CONTINUOUS
10
88.4024
20
-134.635
11
88.4024
21
-132.635
0
LINE
8
BLACK
6
CONTINUOUS
10
88.4024
20
-132.635
11
88.2119
21
-132.92
0
LINE
8
BLACK
6
CONTINUOUS
10
88.2119
20
-132.92
11
88.0214
21
-133.111
0
LINE
8
BLACK
6
CONTINUOUS
10
88.0214
20
-133.111
11
87.831
21
-133.206
0
LINE
8
BLACK
6
CONTINUOUS
10
89.831
20
-134.444
11
89.9262
21
-134.54
0
LINE
8
BLACK
6
CONTINUOUS
10
89.9262
20
-134.54
11
89.831
21
-134.635
0
LINE
8
BLACK
6
CONTINUOUS
10
89.831
20
-134.635
11
89.7357
21
-134.54
0
LINE
8
BLACK
6
CONTINUOUS
10
89.7357
20
-134.54
11
89.831
21
-134.444
0
LINE
8
BLACK
6
CONTINUOUS
10
89.831
20
-134.444
11
89.831
21
-134.635
0
LINE
8
BLACK
6
CONTINUOUS
10
91.6405
20
-133.301
11
91.6405
21
-134.635
0
LINE
8
BLACK
6
CONTINUOUS
10
91.1643
20
-132.54
11
90.6881
21
-133.968
0
LINE
8
BLACK
6
CONTINUOUS
10
90.6881
20
-133.968
11
91.9262
21
-133.968
0
LINE
8
BLACK
6
CONTINUOUS
10
93.069
20
-132.635
11
93.2595
21
-132.635
0
LINE
8
BLACK
6
CONTINUOUS
10
93.2595
20
-132.635
11
93.45
21
-132.73
0
LINE
8
BLACK
6
CONTINUOUS
10
93.45
20
-132.73
11
93.5452
21
-132.825
0
LINE
8
BLACK
6
CONTINUOUS
10
93.5452
20
-132.825
11
93.6405
21
-133.016
0
LINE
8
BLACK
6
CONTINUOUS
10
93.6405
20
-133.016
11
93.7357
21
-133.397
0
LINE
8
BLACK
6
CONTINUOUS
10
93.7357
20
-133.397
11
93.7357
21
-133.873
0
LINE
8
BLACK
6
CONTINUOUS
10
93.7357
20
-133.873
11
93.6405
21
-134.254
0
LINE
8
BLACK
6
CONTINUOUS
10
93.6405
20
-134.254
11
93.5452
21
-134.444
0
LINE
8
BLACK
6
CONTINUOUS
10
93.5452
20
-134.444
11
93.45
21
-134.54
0
LINE
8
BLACK
6
CONTINUOUS
10
93.45
20
-134.54
11
93.2595
21
-134.635
0
LINE
8
BLACK
6
CONTINUOUS
10
93.2595
20
-134.635
11
93.069
21
-134.635
0
LINE
8
BLACK
6
CONTINUOUS
10
93.069
20
-134.635
11
92.8786
21
-134.54
0
LINE
8
BLACK
6
CONTINUOUS
10
92.8786
20
-134.54
11
92.7833
21
-134.444
0
LINE
8
BLACK
6
CONTINUOUS
10
92.7833
20
-134.444
11
92.6881
21
-134.254
0
LINE
8
BLACK
6
CONTINUOUS
10
92.6881
20
-134.254
11
92.5929
21
-133.873
0
LINE
8
BLACK
6
CONTINUOUS
10
92.5929
20
-133.873
11
92.5929
21
-133.397
0
LINE
8
BLACK
6
CONTINUOUS
10
92.5929
20
-133.397
11
92.6881
21
-133.016
0
LINE
8
BLACK
6
CONTINUOUS
10
92.6881
20
-133.016
11
92.7833
21
-132.825
0
LINE
8
BLACK
6
CONTINUOUS
10
92.7833
20
-132.825
11
92.8786
21
-132.73
0
LINE
8
BLACK
6
CONTINUOUS
10
92.8786
20
-132.73
11
93.069
21
-132.635
0
LINE
8
BLACK
6
CONTINUOUS
10
94.9738
20
-132.635
11
95.1643
21
-132.635
0
LINE
8
BLACK
6
CONTINUOUS
10
95.1643
20
-132.635
11
95.3548
21
-132.73
0
LINE
8
BLACK
6
CONTINUOUS
10
95.3548
20
-132.73
11
95.45
21
-132.825
0
LINE
8
BLACK
6
CONTINUOUS
10
95.45
20
-132.825
11
95.5452
21
-133.016
0
LINE
8
BLACK
6
CONTINUOUS
10
95.5452
20
-133.016
11
95.6405
21
-133.397
0
LINE
8
BLACK
6
CONTINUOUS
10
95.6405
20
-133.397
11
95.6405
21
-133.873
0
LINE
8
BLACK
6
CONTINUOUS
10
95.6405
20
-133.873
11
95.5452
21
-134.254
0
LINE
8
BLACK
6
CONTINUOUS
10
95.5452
20
-134.254
11
95.45
21
-134.444
0
LINE
8
BLACK
6
CONTINUOUS
10
95.45
20
-134.444
11
95.3548
21
-134.54
0
LINE
8
BLACK
6
CONTINUOUS
10
95.3548
20
-134.54
11
95.1643
21
-134.635
0
LINE
8
BLACK
6
CONTINUOUS
10
95.1643
20
-134.635
11
94.9738
21
-134.635
0
LINE
8
BLACK
6
CONTINUOUS
10
94.9738
20
-134.635
11
94.7833
21
-134.54
0
LINE
8
BLACK
6
CONTINUOUS
10
94.7833
20
-134.54
11
94.6881
21
-134.444
0
LINE
8
BLACK
6
CONTINUOUS
10
94.6881
20
-134.444
11
94.5929
21
-134.254
0
LINE
8
BLACK
6
CONTINUOUS
10
94.5929
20
-134.254
11
94.4976
21
-133.873
0
LINE
8
BLACK
6
CONTINUOUS
10
94.4976
20
-133.873
11
94.4976
21
-133.397
0
LINE
8
BLACK
6
CONTINUOUS
10
94.4976
20
-133.397
11
94.5929
21
-133.016
0
LINE
8
BLACK
6
CONTINUOUS
10
94.5929
20
-133.016
11
94.6881
21
-132.825
0
LINE
8
BLACK
6
CONTINUOUS
10
94.6881
20
-132.825
11
94.7833
21
-132.73
0
LINE
8
BLACK
6
CONTINUOUS
10
94.7833
20
-132.73
11
94.9738
21
-132.635
0
LINE
8
BLACK
6
CONTINUOUS
10
96.4976
20
-134.635
11
96.4976
21
-133.301
0
LINE
8
BLACK
6
CONTINUOUS
10
96.4976
20
-133.492
11
96.5929
21
-133.397
0
LINE
8
BLACK
6
CONTINUOUS
10
96.5929
20
-133.397
11
96.7833
21
-133.301
0
LINE
8
BLACK
6
CONTINUOUS
10
96.7833
20
-133.301
11
97.069
21
-133.301
0
LINE
8
BLACK
6
CONTINUOUS
10
97.069
20
-133.301
11
97.2595
21
-133.397
0
LINE
8
BLACK
6
CONTINUOUS
10
97.2595
20
-133.397
11
97.3548
21
-133.587
0
LINE
8
BLACK
6
CONTINUOUS
10
97.3548
20
-133.587
11
97.3548
21
-134.635
0
LINE
8
BLACK
6
CONTINUOUS
10
97.3548
20
-133.587
11
97.45
21
-133.397
0
LINE
8
BLACK
6
CONTINUOUS
10
97.45
20
-133.397
11
97.6405
21
-133.301
0
LINE
8
BLACK
6
CONTINUOUS
10
97.6405
20
-133.301
11
97.9262
21
-133.301
0
LINE
8
BLACK
6
CONTINUOUS
10
97.9262
20
-133.301
11
98.1167
21
-133.397
0
LINE
8
BLACK
6
CONTINUOUS
10
98.1167
20
-133.397
11
98.2119
21
-133.587
0
LINE
8
BLACK
6
CONTINUOUS
10
98.2119
20
-133.587
11
98.2119
21
-134.635
0
LINE
8
BLACK
6
CONTINUOUS
10
99.1643
20
-134.635
11
99.1643
21
-133.301
0
LINE
8
BLACK
6
CONTINUOUS
10
99.1643
20
-133.492
11
99.2595
21
-133.397
0
LINE
8
BLACK
6
CONTINUOUS
10
99.2595
20
-133.397
11
99.45
21
-133.301
0
LINE
8
BLACK
6
CONTINUOUS
10
99.45
20
-133.301
11
99.7357
21
-133.301
0
LINE
8
BLACK
6
CONTINUOUS
10
99.7357
20
-133.301
11
99.9262
21
-133.397
0
LINE
8
BLACK
6
CONTINUOUS
10
99.9262
20
-133.397
11
100.021
21
-133.587
0
LINE
8
BLACK
6
CONTINUOUS
10
100.021
20
-133.587
11
100.021
21
-134.635
0
LINE
8
BLACK
6
CONTINUOUS
10
100.021
20
-133.587
11
100.117
21
-133.397
0
LINE
8
BLACK
6
CONTINUOUS
10
100.117
20
-133.397
11
100.307
21
-133.301
0
LINE
8
BLACK
6
CONTINUOUS
10
100.307
20
-133.301
11
100.593
21
-133.301
0
LINE
8
BLACK
6
CONTINUOUS
10
100.593
20
-133.301
11
100.783
21
-133.397
0
LINE
8
BLACK
6
CONTINUOUS
10
100.783
20
-133.397
11
100.879
21
-133.587
0
LINE
8
BLACK
6
CONTINUOUS
10
100.879
20
-133.587
11
100.879
21
-134.635
0
LINE
8
BLACK
6
CONTINUOUS
10
104.783
20
-132.54
11
103.069
21
-135.111
0
LINE
8
BLACK
6
CONTINUOUS
10
107.355
20
-132.635
11
107.545
21
-132.635
0
LINE
8
BLACK
6
CONTINUOUS
10
107.545
20
-132.635
11
107.736
21
-132.73
0
LINE
8
BLACK
6
CONTINUOUS
10
107.736
20
-132.73
11
107.831
21
-132.825
0
LINE
8
BLACK
6
CONTINUOUS
10
107.831
20
-132.825
11
107.926
21
-133.016
0
LINE
8
BLACK
6
CONTINUOUS
10
107.926
20
-133.016
11
108.021
21
-133.397
0
LINE
8
BLACK
6
CONTINUOUS
10
108.021
20
-133.397
11
108.021
21
-133.873
0
LINE
8
BLACK
6
CONTINUOUS
10
108.021
20
-133.873
11
107.926
21
-134.254
0
LINE
8
BLACK
6
CONTINUOUS
10
107.926
20
-134.254
11
107.831
21
-134.444
0
LINE
8
BLACK
6
CONTINUOUS
10
107.831
20
-134.444
11
107.736
21
-134.54
0
LINE
8
BLACK
6
CONTINUOUS
10
107.736
20
-134.54
11
107.545
21
-134.635
0
LINE
8
BLACK
6
CONTINUOUS
10
107.545
20
-134.635
11
107.355
21
-134.635
0
LINE
8
BLACK
6
CONTINUOUS
10
107.355
20
-134.635
11
107.164
21
-134.54
0
LINE
8
BLACK
6
CONTINUOUS
10
107.164
20
-134.54
11
107.069
21
-134.444
0
LINE
8
BLACK
6
CONTINUOUS
10
107.069
20
-134.444
11
106.974
21
-134.254
0
LINE
8
BLACK
6
CONTINUOUS
10
106.974
20
-134.254
11
106.879
21
-133.873
0
LINE
8
BLACK
6
CONTINUOUS
10
106.879
20
-133.873
11
106.879
21
-133.397
0
LINE
8
BLACK
6
CONTINUOUS
10
106.879
20
-133.397
11
106.974
21
-133.016
0
LINE
8
BLACK
6
CONTINUOUS
10
106.974
20
-133.016
11
107.069
21
-132.825
0
LINE
8
BLACK
6
CONTINUOUS
10
107.069
20
-132.825
11
107.164
21
-132.73
0
LINE
8
BLACK
6
CONTINUOUS
10
107.164
20
-132.73
11
107.355
21
-132.635
0
LINE
8
BLACK
6
CONTINUOUS
10
108.879
20
-134.444
11
108.974
21
-134.54
0
LINE
8
BLACK
6
CONTINUOUS
10
108.974
20
-134.54
11
108.879
21
-134.635
0
LINE
8
BLACK
6
CONTINUOUS
10
108.879
20
-134.635
11
108.783
21
-134.54
0
LINE
8
BLACK
6
CONTINUOUS
10
108.783
20
-134.54
11
108.879
21
-134.444
0
LINE
8
BLACK
6
CONTINUOUS
10
108.879
20
-134.444
11
108.879
21
-134.635
0
LINE
8
BLACK
6
CONTINUOUS
10
110.212
20
-132.635
11
110.402
21
-132.635
0
LINE
8
BLACK
6
CONTINUOUS
10
110.402
20
-132.635
11
110.593
21
-132.73
0
LINE
8
BLACK
6
CONTINUOUS
10
110.593
20
-132.73
11
110.688
21
-132.825
0
LINE
8
BLACK
6
CONTINUOUS
10
110.688
20
-132.825
11
110.783
21
-133.016
0
LINE
8
BLACK
6
CONTINUOUS
10
110.783
20
-133.016
11
110.879
21
-133.397
0
LINE
8
BLACK
6
CONTINUOUS
10
110.879
20
-133.397
11
110.879
21
-133.873
0
LINE
8
BLACK
6
CONTINUOUS
10
110.879
20
-133.873
11
110.783
21
-134.254
0
LINE
8
BLACK
6
CONTINUOUS
10
110.783
20
-134.254
11
110.688
21
-134.444
0
LINE
8
BLACK
6
CONTINUOUS
10
110.688
20
-134.444
11
110.593
21
-134.54
0
LINE
8
BLACK
6
CONTINUOUS
10
110.593
20
-134.54
11
110.402
21
-134.635
0
LINE
8
BLACK
6
CONTINUOUS
10
110.402
20
-134.635
11
110.212
21
-134.635
0
LINE
8
BLACK
6
CONTINUOUS
10
110.212
20
-134.635
11
110.021
21
-134.54
0
LINE
8
BLACK
6
CONTINUOUS
10
110.021
20
-134.54
11
109.926
21
-134.444
0
LINE
8
BLACK
6
CONTINUOUS
10
109.926
20
-134.444
11
109.831
21
-134.254
0
LINE
8
BLACK
6
CONTINUOUS
10
109.831
20
-134.254
11
109.736
21
-133.873
0
LINE
8
BLACK
6
CONTINUOUS
10
109.736
20
-133.873
11
109.736
21
-133.397
0
LINE
8
BLACK
6
CONTINUOUS
10
109.736
20
-133.397
11
109.831
21
-133.016
0
LINE
8
BLACK
6
CONTINUOUS
10
109.831
20
-133.016
11
109.926
21
-132.825
0
LINE
8
BLACK
6
CONTINUOUS
10
109.926
20
-132.825
11
110.021
21
-132.73
0
LINE
8
BLACK
6
CONTINUOUS
10
110.021
20
-132.73
11
110.212
21
-132.635
0
LINE
8
BLACK
6
CONTINUOUS
10
112.688
20
-132.635
11
111.736
21
-132.635
0
LINE
8
BLACK
6
CONTINUOUS
10
111.736
20
-132.635
11
111.64
21
-133.587
0
LINE
8
BLACK
6
CONTINUOUS
10
111.64
20
-133.587
11
111.736
21
-133.492
0
LINE
8
BLACK
6
CONTINUOUS
10
111.736
20
-133.492
11
111.926
21
-133.397
0
LINE
8
BLACK
6
CONTINUOUS
10
111.926
20
-133.397
11
112.402
21
-133.397
0
LINE
8
BLACK
6
CONTINUOUS
10
112.402
20
-133.397
11
112.593
21
-133.492
0
LINE
8
BLACK
6
CONTINUOUS
10
112.593
20
-133.492
11
112.688
21
-133.587
0
LINE
8
BLACK
6
CONTINUOUS
10
112.688
20
-133.587
11
112.783
21
-133.778
0
LINE
8
BLACK
6
CONTINUOUS
10
112.783
20
-133.778
11
112.783
21
-134.254
0
LINE
8
BLACK
6
CONTINUOUS
10
112.783
20
-134.254
11
112.688
21
-134.444
0
LINE
8
BLACK
6
CONTINUOUS
10
112.688
20
-134.444
11
112.593
21
-134.54
0
LINE
8
BLACK
6
CONTINUOUS
10
112.593
20
-134.54
11
112.402
21
-134.635
0
LINE
8
BLACK
6
CONTINUOUS
10
112.402
20
-134.635
11
111.926
21
-134.635
0
LINE
8
BLACK
6
CONTINUOUS
10
111.926
20
-134.635
11
111.736
21
-134.54
0
LINE
8
BLACK
6
CONTINUOUS
10
111.736
20
-134.54
11
111.64
21
-134.444
0
LINE
8
BLACK
6
CONTINUOUS
10
114.593
20
-132.635
11
113.64
21
-132.635
0
LINE
8
BLACK
6
CONTINUOUS
10
113.64
20
-132.635
11
113.545
21
-133.587
0
LINE
8
BLACK
6
CONTINUOUS
10
113.545
20
-133.587
11
113.64
21
-133.492
0
LINE
8
BLACK
6
CONTINUOUS
10
113.64
20
-133.492
11
113.831
21
-133.397
0
LINE
8
BLACK
6
CONTINUOUS
10
113.831
20
-133.397
11
114.307
21
-133.397
0
LINE
8
BLACK
6
CONTINUOUS
10
114.307
20
-133.397
11
114.498
21
-133.492
0
LINE
8
BLACK
6
CONTINUOUS
10
114.498
20
-133.492
11
114.593
21
-133.587
0
LINE
8
BLACK
6
CONTINUOUS
10
114.593
20
-133.587
11
114.688
21
-133.778
0
LINE
8
BLACK
6
CONTINUOUS
10
114.688
20
-133.778
11
114.688
21
-134.254
0
LINE
8
BLACK
6
CONTINUOUS
10
114.688
20
-134.254
11
114.593
21
-134.444
0
LINE
8
BLACK
6
CONTINUOUS
10
114.593
20
-134.444
11
114.498
21
-134.54
0
LINE
8
BLACK
6
CONTINUOUS
10
114.498
20
-134.54
11
114.307
21
-134.635
0
LINE
8
BLACK
6
CONTINUOUS
10
114.307
20
-134.635
11
113.831
21
-134.635
0
LINE
8
BLACK
6
CONTINUOUS
10
113.831
20
-134.635
11
113.64
21
-134.54
0
LINE
8
BLACK
6
CONTINUOUS
10
113.64
20
-134.54
11
113.545
21
-134.444
0
LINE
8
BLACK
6
CONTINUOUS
10
116.593
20
-134.635
11
115.45
21
-134.635
0
LINE
8
BLACK
6
CONTINUOUS
10
116.021
20
-134.635
11
116.021
21
-132.635
0
LINE
8
BLACK
6
CONTINUOUS
10
116.021
20
-132.635
11
115.831
21
-132.92
0
LINE
8
BLACK
6
CONTINUOUS
10
115.831
20
-132.92
11
115.64
21
-133.111
0
LINE
8
BLACK
6
CONTINUOUS
10
115.64
20
-133.111
11
115.45
21
-133.206
0
LINE
8
BLACK
6
CONTINUOUS
10
117.355
20
-132.635
11
117.355
21
-133.016
0
LINE
8
BLACK
6
CONTINUOUS
10
118.117
20
-132.635
11
118.117
21
-133.016
0
LINE
8
BLACK
6
CONTINUOUS
10
121.069
20
-135.397
11
120.974
21
-135.301
0
LINE
8
BLACK
6
CONTINUOUS
10
120.974
20
-135.301
11
120.783
21
-135.016
0
LINE
8
BLACK
6
CONTINUOUS
10
120.783
20
-135.016
11
120.688
21
-134.825
0
LINE
8
BLACK
6
CONTINUOUS
10
120.688
20
-134.825
11
120.593
21
-134.54
0
LINE
8
BLACK
6
CONTINUOUS
10
120.593
20
-134.54
11
120.498
21
-134.063
0
LINE
8
BLACK
6
CONTINUOUS
10
120.498
20
-134.063
11
120.498
21
-133.682
0
LINE
8
BLACK
6
CONTINUOUS
10
120.498
20
-133.682
11
120.593
21
-133.206
0
LINE
8
BLACK
6
CONTINUOUS
10
120.593
20
-133.206
11
120.688
21
-132.92
0
LINE
8
BLACK
6
CONTINUOUS
10
120.688
20
-132.92
11
120.783
21
-132.73
0
LINE
8
BLACK
6
CONTINUOUS
10
120.783
20
-132.73
11
120.974
21
-132.444
0
LINE
8
BLACK
6
CONTINUOUS
10
120.974
20
-132.444
11
121.069
21
-132.349
0
LINE
8
BLACK
6
CONTINUOUS
10
121.736
20
-132.825
11
121.831
21
-132.73
0
LINE
8
BLACK
6
CONTINUOUS
10
121.831
20
-132.73
11
122.021
21
-132.635
0
LINE
8
BLACK
6
CONTINUOUS
10
122.021
20
-132.635
11
122.498
21
-132.635
0
LINE
8
BLACK
6
CONTINUOUS
10
122.498
20
-132.635
11
122.688
21
-132.73
0
LINE
8
BLACK
6
CONTINUOUS
10
122.688
20
-132.73
11
122.783
21
-132.825
0
LINE
8
BLACK
6
CONTINUOUS
10
122.783
20
-132.825
11
122.879
21
-133.016
0
LINE
8
BLACK
6
CONTINUOUS
10
122.879
20
-133.016
11
122.879
21
-133.206
0
LINE
8
BLACK
6
CONTINUOUS
10
122.879
20
-133.206
11
122.783
21
-133.492
0
LINE
8
BLACK
6
CONTINUOUS
10
122.783
20
-133.492
11
121.64
21
-134.635
0
LINE
8
BLACK
6
CONTINUOUS
10
121.64
20
-134.635
11
122.879
21
-134.635
0
LINE
8
BLACK
6
CONTINUOUS
10
124.117
20
-132.635
11
124.307
21
-132.635
0
LINE
8
BLACK
6
CONTINUOUS
10
124.307
20
-132.635
11
124.498
21
-132.73
0
LINE
8
BLACK
6
CONTINUOUS
10
124.498
20
-132.73
11
124.593
21
-132.825
0
LINE
8
BLACK
6
CONTINUOUS
10
124.593
20
-132.825
11
124.688
21
-133.016
0
LINE
8
BLACK
6
CONTINUOUS
10
124.688
20
-133.016
11
124.783
21
-133.397
0
LINE
8
BLACK
6
CONTINUOUS
10
124.783
20
-133.397
11
124.783
21
-133.873
0
LINE
8
BLACK
6
CONTINUOUS
10
124.783
20
-133.873
11
124.688
21
-134.254
0
LINE
8
BLACK
6
CONTINUOUS
10
124.688
20
-134.254
11
124.593
21
-134.444
0
LINE
8
BLACK
6
CONTINUOUS
10
124.593
20
-134.444
11
124.498
21
-134.54
0
LINE
8
BLACK
6
CONTINUOUS
10
124.498
20
-134.54
11
124.307
21
-134.635
0
LINE
8
BLACK
6
CONTINUOUS
10
124.307
20
-134.635
11
124.117
21
-134.635
0
LINE
8
BLACK
6
CONTINUOUS
10
124.117
20
-134.635
11
123.926
21
-134.54
0
LINE
8
BLACK
6
CONTINUOUS
10
123.926
20
-134.54
11
123.831
21
-134.444
0
LINE
8
BLACK
6
CONTINUOUS
10
123.831
20
-134.444
11
123.736
21
-134.254
0
LINE
8
BLACK
6
CONTINUOUS
10
123.736
20
-134.254
11
123.64
21
-133.873
0
LINE
8
BLACK
6
CONTINUOUS
10
123.64
20
-133.873
11
123.64
21
-133.397
0
LINE
8
BLACK
6
CONTINUOUS
10
123.64
20
-133.397
11
123.736
21
-133.016
0
LINE
8
BLACK
6
CONTINUOUS
10
123.736
20
-133.016
11
123.831
21
-132.825
0
LINE
8
BLACK
6
CONTINUOUS
10
123.831
20
-132.825
11
123.926
21
-132.73
0
LINE
8
BLACK
6
CONTINUOUS
10
123.926
20
-132.73
11
124.117
21
-132.635
0
LINE
8
BLACK
6
CONTINUOUS
10
127.164
20
-134.635
11
127.164
21
-132.635
0
LINE
8
BLACK
6
CONTINUOUS
10
128.021
20
-134.635
11
128.021
21
-133.587
0
LINE
8
BLACK
6
CONTINUOUS
10
128.021
20
-133.587
11
127.926
21
-133.397
0
LINE
8
BLACK
6
CONTINUOUS
10
127.926
20
-133.397
11
127.736
21
-133.301
0
LINE
8
BLACK
6
CONTINUOUS
10
127.736
20
-133.301
11
127.45
21
-133.301
0
LINE
8
BLACK
6
CONTINUOUS
10
127.45
20
-133.301
11
127.26
21
-133.397
0
LINE
8
BLACK
6
CONTINUOUS
10
127.26
20
-133.397
11
127.164
21
-133.492
0
LINE
8
BLACK
6
CONTINUOUS
10
129.26
20
-134.635
11
129.069
21
-134.54
0
LINE
8
BLACK
6
CONTINUOUS
10
129.069
20
-134.54
11
128.974
21
-134.444
0
LINE
8
BLACK
6
CONTINUOUS
10
128.974
20
-134.444
11
128.879
21
-134.254
0
LINE
8
BLACK
6
CONTINUOUS
10
128.879
20
-134.254
11
128.879
21
-133.682
0
LINE
8
BLACK
6
CONTINUOUS
10
128.879
20
-133.682
11
128.974
21
-133.492
0
LINE
8
BLACK
6
CONTINUOUS
10
128.974
20
-133.492
11
129.069
21
-133.397
0
LINE
8
BLACK
6
CONTINUOUS
10
129.069
20
-133.397
11
129.26
21
-133.301
0
LINE
8
BLACK
6
CONTINUOUS
10
129.26
20
-133.301
11
129.545
21
-133.301
0
LINE
8
BLACK
6
CONTINUOUS
10
129.545
20
-133.301
11
129.736
21
-133.397
0
LINE
8
BLACK
6
CONTINUOUS
10
129.736
20
-133.397
11
129.831
21
-133.492
0
LINE
8
BLACK
6
CONTINUOUS
10
129.831
20
-133.492
11
129.926
21
-133.682
0
LINE
8
BLACK
6
CONTINUOUS
10
129.926
20
-133.682
11
129.926
21
-134.254
0
LINE
8
BLACK
6
CONTINUOUS
10
129.926
20
-134.254
11
129.831
21
-134.444
0
LINE
8
BLACK
6
CONTINUOUS
10
129.831
20
-134.444
11
129.736
21
-134.54
0
LINE
8
BLACK
6
CONTINUOUS
10
129.736
20
-134.54
11
129.545
21
-134.635
0
LINE
8
BLACK
6
CONTINUOUS
10
129.545
20
-134.635
11
129.26
21
-134.635
0
LINE
8
BLACK
6
CONTINUOUS
10
131.069
20
-134.635
11
130.879
21
-134.54
0
LINE
8
BLACK
6
CONTINUOUS
10
130.879
20
-134.54
11
130.783
21
-134.349
0
LINE
8
BLACK
6
CONTINUOUS
10
130.783
20
-134.349
11
130.783
21
-132.635
0
LINE
8
BLACK
6
CONTINUOUS
10
132.593
20
-134.54
11
132.402
21
-134.635
0
LINE
8
BLACK
6
CONTINUOUS
10
132.402
20
-134.635
11
132.021
21
-134.635
0
LINE
8
BLACK
6
CONTINUOUS
10
132.021
20
-134.635
11
131.831
21
-134.54
0
LINE
8
BLACK
6
CONTINUOUS
10
131.831
20
-134.54
11
131.736
21
-134.349
0
LINE
8
BLACK
6
CONTINUOUS
10
131.736
20
-134.349
11
131.736
21
-133.587
0
LINE
8
BLACK
6
CONTINUOUS
10
131.736
20
-133.587
11
131.831
21
-133.397
0
LINE
8
BLACK
6
CONTINUOUS
10
131.831
20
-133.397
11
132.021
21
-133.301
0
LINE
8
BLACK
6
CONTINUOUS
10
132.021
20
-133.301
11
132.402
21
-133.301
0
LINE
8
BLACK
6
CONTINUOUS
10
132.402
20
-133.301
11
132.593
21
-133.397
0
LINE
8
BLACK
6
CONTINUOUS
10
132.593
20
-133.397
11
132.688
21
-133.587
0
LINE
8
BLACK
6
CONTINUOUS
10
132.688
20
-133.587
11
132.688
21
-133.778
0
LINE
8
BLACK
6
CONTINUOUS
10
132.688
20
-133.778
11
131.736
21
-133.968
0
LINE
8
BLACK
6
CONTINUOUS
10
133.45
20
-134.54
11
133.64
21
-134.635
0
LINE
8
BLACK
6
CONTINUOUS
10
133.64
20
-134.635
11
134.021
21
-134.635
0
LINE
8
BLACK
6
CONTINUOUS
10
134.021
20
-134.635
11
134.212
21
-134.54
0
LINE
8
BLACK
6
CONTINUOUS
10
134.212
20
-134.54
11
134.307
21
-134.349
0
LINE
8
BLACK
6
CONTINUOUS
10
134.307
20
-134.349
11
134.307
21
-134.254
0
LINE
8
BLACK
6
CONTINUOUS
10
134.307
20
-134.254
11
134.212
21
-134.063
0
LINE
8
BLACK
6
CONTINUOUS
10
134.212
20
-134.063
11
134.021
21
-133.968
0
LINE
8
BLACK
6
CONTINUOUS
10
134.021
20
-133.968
11
133.736
21
-133.968
0
LINE
8
BLACK
6
CONTINUOUS
10
133.736
20
-133.968
11
133.545
21
-133.873
0
LINE
8
BLACK
6
CONTINUOUS
10
133.545
20
-133.873
11
133.45
21
-133.682
0
LINE
8
BLACK
6
CONTINUOUS
10
133.45
20
-133.682
11
133.45
21
-133.587
0
LINE
8
BLACK
6
CONTINUOUS
10
133.45
20
-133.587
11
133.545
21
-133.397
0
LINE
8
BLACK
6
CONTINUOUS
10
133.545
20
-133.397
11
133.736
21
-133.301
0
LINE
8
BLACK
6
CONTINUOUS
10
133.736
20
-133.301
11
134.021
21
-133.301
0
LINE
8
BLACK
6
CONTINUOUS
10
134.021
20
-133.301
11
134.212
21
-133.397
0
LINE
8
BLACK
6
CONTINUOUS
10
134.974
20
-135.397
11
135.069
21
-135.301
0
LINE
8
BLACK
6
CONTINUOUS
10
135.069
20
-135.301
11
135.26
21
-135.016
0
LINE
8
BLACK
6
CONTINUOUS
10
135.26
20
-135.016
11
135.355
21
-134.825
0
LINE
8
BLACK
6
CONTINUOUS
10
135.355
20
-134.825
11
135.45
21
-134.54
0
LINE
8
BLACK
6
CONTINUOUS
10
135.45
20
-134.54
11
135.545
21
-134.063
0
LINE
8
BLACK
6
CONTINUOUS
10
135.545
20
-134.063
11
135.545
21
-133.682
0
LINE
8
BLACK
6
CONTINUOUS
10
135.545
20
-133.682
11
135.45
21
-133.206
0
LINE
8
BLACK
6
CONTINUOUS
10
135.45
20
-133.206
11
135.355
21
-132.92
0
LINE
8
BLACK
6
CONTINUOUS
10
135.355
20
-132.92
11
135.26
21
-132.73
0
LINE
8
BLACK
6
CONTINUOUS
10
135.26
20
-132.73
11
135.069
21
-132.444
0
LINE
8
BLACK
6
CONTINUOUS
10
135.069
20
-132.444
11
134.974
21
-132.349
  0
ENDSEC
  0
EOF
