M48
; DRILL file {KiCad (6.0.10)} date Sun Mar 26 17:01:15 2023
; FORMAT={-:-/ absolute / metric / decimal}
; #@! TF.CreationDate,2023-03-26T17:01:15-04:00
; #@! TF.GenerationSoftware,Kicad,Pcbnew,(6.0.10)
; #@! TF.FileFunction,Plated,1,2,PTH
FMAT,2
METRIC
; #@! TA.AperFunction,Plated,PTH,ViaDrill
T1C0.400
; #@! TA.AperFunction,Plated,PTH,ComponentDrill
T2C0.762
; #@! TA.AperFunction,Plated,PTH,ComponentDrill
T3C1.400
%
G90
G05
T1
X105.659Y-77.003
X112.96Y-62.803
X113.291Y-96.12
X117.032Y-60.137
X117.069Y-67.584
X120.608Y-50.68
X122.13Y-60.518
X126.652Y-73.638
X132.647Y-109.542
X132.734Y-53.8
X138.198Y-63.026
X149.672Y-91.009
X150.576Y-83.206
X151.199Y-67.429
X151.946Y-63.866
X153.586Y-55.954
X158.808Y-74.943
T2
X111.125Y-61.366
X111.125Y-63.906
X111.125Y-66.446
X111.125Y-68.986
X111.125Y-71.526
X111.125Y-74.066
X111.125Y-76.606
X111.125Y-79.146
X111.125Y-81.686
X111.125Y-84.226
X111.125Y-86.766
X111.125Y-89.306
X111.125Y-91.846
X111.125Y-94.386
X111.125Y-96.926
X136.525Y-61.366
X136.525Y-63.906
X136.525Y-66.446
X136.525Y-68.986
X136.525Y-71.526
X136.525Y-74.066
X136.525Y-76.606
X136.525Y-79.146
X136.525Y-81.686
X136.525Y-84.226
X136.525Y-86.766
X136.525Y-89.306
X136.525Y-91.846
X136.525Y-94.386
X136.525Y-96.926
T3
X97.877Y-63.6
X97.877Y-68.68
X97.877Y-96.32
X97.877Y-101.4
X98.05Y-111.2
X101.86Y-111.2
X105.67Y-111.2
X109.48Y-111.2
X113.29Y-111.2
X117.1Y-111.2
X120.91Y-111.2
X124.72Y-111.2
X128.53Y-111.2
X132.34Y-111.2
X136.15Y-111.2
X139.96Y-111.2
X143.77Y-111.2
X147.58Y-111.2
X151.39Y-111.2
X155.2Y-111.2
T0
M30
