  0
SECTION
  2
HEADER
  9
$ANGBASE
  50
0.0
  9
$ANGDIR
  70
1
  9
$MEASUREMENT
  70
1
  0
ENDSEC
  0
SECTION
  2
TABLES
  0
TABLE
  2
LTYPE
  70
4
  0
LTYPE
  5
40F
  2
CONTINUOUS
  70
0
  3
Solid line
  72
65
  73
0
  40
0.0
  0
LTYPE
  5
410
  2
DASHDOT
 70
0
  3
Dash Dot ____ _ ____ _
 72
65
 73
4
 40
2.0
 49
1.25
 49
-0.25
 49
0.25
 49
-0.25
  0
LTYPE
  5
411
  2
DASHED
 70
0
  3
Dashed __ __ __ __ __
 72
65
 73
2
 40
0.75
 49
0.5
 49
-0.25
  0
LTYPE
  5
43B
  2
DOTTED
 70
0
  3
Dotted .  .  .  .
 72
65
 73
2
 40
0.2
 49
0.0
 49
-0.2
  0
ENDTAB
  0
TABLE
  2
STYLE
  70
4
  0
STYLE
  2
KICAD
  70
0
  40
0
  41
1
  42
1
  50
0
  71
0
  3
isocp.shx
  0
STYLE
  2
KICADB
  70
0
  40
0
  41
1
  42
1
  50
0
  71
0
  3
isocp.shx
  0
STYLE
  2
KICADI
  70
0
  40
0
  41
1
  42
1
  50
15
  71
0
  3
isocp.shx
  0
STYLE
  2
KICADBI
  70
0
  40
0
  41
1
  42
1
  50
15
  71
0
  3
isocp.shx
  0
ENDTAB
  0
TABLE
  2
LAYER
  70
1
  0
LAYER
  2
BLACK
  70
0
  62
7
  6
CONTINUOUS
  0
ENDTAB
  0
ENDSEC
  0
SECTION
  2
ENTITIES
0
LINE
8
BLACK
6
CONTINUOUS
10
122.4
20
-120.6
11
98.6
21
-122
0
LINE
8
BLACK
6
CONTINUOUS
10
172.6
20
-81.8
11
173.6
21
-84
0
LINE
8
BLACK
6
CONTINUOUS
10
170.4
20
-55.6
11
168.6
21
-59
0
LINE
8
BLACK
6
CONTINUOUS
10
168.8
20
-112
11
165.2
21
-118
0
LINE
8
BLACK
6
CONTINUOUS
10
173
20
-84.8
11
172.2
21
-86
0
LINE
8
BLACK
6
CONTINUOUS
10
166.2
20
-62.4
11
168.2
21
-69.8
0
LINE
8
BLACK
6
CONTINUOUS
10
171.4
20
-101.8
11
170.2
21
-103
0
LINE
8
BLACK
6
CONTINUOUS
10
169.4
20
-107
11
168.8
21
-112
0
LINE
8
BLACK
6
CONTINUOUS
10
94.9432
20
-49.9251
11
114
21
-47.8
0
LINE
8
BLACK
6
CONTINUOUS
10
171.4
20
-104.8
11
169.4
21
-107
0
LINE
8
BLACK
6
CONTINUOUS
10
167.8
20
-97.8
11
171.4
21
-101.8
0
LINE
8
BLACK
6
CONTINUOUS
10
85.4
20
-80
11
87.4
21
-51.8
0
LINE
8
BLACK
6
CONTINUOUS
10
88
20
-96.2
11
85.4
21
-80
0
LINE
8
BLACK
6
CONTINUOUS
10
172.2
20
-86
11
169.4
21
-90
0
LINE
8
BLACK
6
CONTINUOUS
10
141.4
20
-47.6
11
161.2
21
-48.4
0
LINE
8
BLACK
6
CONTINUOUS
10
168.6
20
-59
11
166.2
21
-62.4
0
LINE
8
BLACK
6
CONTINUOUS
10
165.2
20
-118
11
153
21
-121
0
LINE
8
BLACK
6
CONTINUOUS
10
114
20
-47.8
11
141.4
21
-47.6
0
LINE
8
BLACK
6
CONTINUOUS
10
169.4
20
-90
11
166.8
21
-94.8
0
LINE
8
BLACK
6
CONTINUOUS
10
87.5716
20
-106.689
11
88
21
-96.2
0
LINE
8
BLACK
6
CONTINUOUS
10
173.6
20
-84
11
173
21
-84.8
0
LINE
8
BLACK
6
CONTINUOUS
10
166.8
20
-94.8
11
167.8
21
-97.8
0
ARC
8
BLACK
10
93.2
20
-110
40
6.52993
50
-210.466
51
-139.97
0
LINE
8
BLACK
6
CONTINUOUS
10
153
20
-121
11
122.4
21
-120.6
0
LINE
8
BLACK
6
CONTINUOUS
10
161.2
20
-48.4
11
168.6
21
-51.4
0
LINE
8
BLACK
6
CONTINUOUS
10
168.6
20
-51.4
11
170.4
21
-55.6
0
LINE
8
BLACK
6
CONTINUOUS
10
168.2
20
-69.8
11
167
21
-76.8
0
LINE
8
BLACK
6
CONTINUOUS
10
167
20
-76.8
11
172.6
21
-81.8
0
LINE
8
BLACK
6
CONTINUOUS
10
88.8
20
-116.4
11
88.2
21
-114.2
0
LINE
8
BLACK
6
CONTINUOUS
10
170.2
20
-103
11
171.4
21
-104.8
0
LINE
8
BLACK
6
CONTINUOUS
10
98.6
20
-122
11
88.8
21
-116.4
0
ARC
8
BLACK
10
92.2
20
-55
40
5.76888
50
61.607
51
146.31
0
LINE
8
BLACK
6
CONTINUOUS
10
89.2
20
-108.4
11
92.4
21
-111.6
0
LINE
8
BLACK
6
CONTINUOUS
10
92.4
20
-108.4
11
89.2
21
-111.6
0
LINE
8
BLACK
6
CONTINUOUS
10
89.2
20
-108.4
11
92.4
21
-111.6
0
LINE
8
BLACK
6
CONTINUOUS
10
92.4
20
-108.4
11
89.2
21
-111.6
0
LINE
8
BLACK
6
CONTINUOUS
10
91.491
20
-53.264
11
94.691
21
-56.464
0
LINE
8
BLACK
6
CONTINUOUS
10
94.691
20
-53.264
11
91.491
21
-56.464
0
LINE
8
BLACK
6
CONTINUOUS
10
161.2
20
-52.2
11
164.4
21
-55.4
0
LINE
8
BLACK
6
CONTINUOUS
10
164.4
20
-52.2
11
161.2
21
-55.4
0
LINE
8
BLACK
6
CONTINUOUS
10
161.6
20
-110.2
11
164.8
21
-113.4
0
LINE
8
BLACK
6
CONTINUOUS
10
164.8
20
-110.2
11
161.6
21
-113.4
0
LINE
8
BLACK
6
CONTINUOUS
10
87.9262
20
-125.155
11
87.9262
21
-123.155
0
LINE
8
BLACK
6
CONTINUOUS
10
87.9262
20
-123.155
11
88.4024
21
-123.155
0
LINE
8
BLACK
6
CONTINUOUS
10
88.4024
20
-123.155
11
88.6881
21
-123.25
0
LINE
8
BLACK
6
CONTINUOUS
10
88.6881
20
-123.25
11
88.8786
21
-123.44
0
LINE
8
BLACK
6
CONTINUOUS
10
88.8786
20
-123.44
11
88.9738
21
-123.631
0
LINE
8
BLACK
6
CONTINUOUS
10
88.9738
20
-123.631
11
89.069
21
-124.012
0
LINE
8
BLACK
6
CONTINUOUS
10
89.069
20
-124.012
11
89.069
21
-124.298
0
LINE
8
BLACK
6
CONTINUOUS
10
89.069
20
-124.298
11
88.9738
21
-124.679
0
LINE
8
BLACK
6
CONTINUOUS
10
88.9738
20
-124.679
11
88.8786
21
-124.869
0
LINE
8
BLACK
6
CONTINUOUS
10
88.8786
20
-124.869
11
88.6881
21
-125.06
0
LINE
8
BLACK
6
CONTINUOUS
10
88.6881
20
-125.06
11
88.4024
21
-125.155
0
LINE
8
BLACK
6
CONTINUOUS
10
88.4024
20
-125.155
11
87.9262
21
-125.155
0
LINE
8
BLACK
6
CONTINUOUS
10
89.9262
20
-125.155
11
89.9262
21
-123.821
0
LINE
8
BLACK
6
CONTINUOUS
10
89.9262
20
-124.202
11
90.0214
21
-124.012
0
LINE
8
BLACK
6
CONTINUOUS
10
90.0214
20
-124.012
11
90.1167
21
-123.917
0
LINE
8
BLACK
6
CONTINUOUS
10
90.1167
20
-123.917
11
90.3071
21
-123.821
0
LINE
8
BLACK
6
CONTINUOUS
10
90.3071
20
-123.821
11
90.4976
21
-123.821
0
LINE
8
BLACK
6
CONTINUOUS
10
91.1643
20
-125.155
11
91.1643
21
-123.821
0
LINE
8
BLACK
6
CONTINUOUS
10
91.1643
20
-123.155
11
91.069
21
-123.25
0
LINE
8
BLACK
6
CONTINUOUS
10
91.069
20
-123.25
11
91.1643
21
-123.345
0
LINE
8
BLACK
6
CONTINUOUS
10
91.1643
20
-123.345
11
91.2595
21
-123.25
0
LINE
8
BLACK
6
CONTINUOUS
10
91.2595
20
-123.25
11
91.1643
21
-123.155
0
LINE
8
BLACK
6
CONTINUOUS
10
91.1643
20
-123.155
11
91.1643
21
-123.345
0
LINE
8
BLACK
6
CONTINUOUS
10
92.4024
20
-125.155
11
92.2119
21
-125.06
0
LINE
8
BLACK
6
CONTINUOUS
10
92.2119
20
-125.06
11
92.1167
21
-124.869
0
LINE
8
BLACK
6
CONTINUOUS
10
92.1167
20
-124.869
11
92.1167
21
-123.155
0
LINE
8
BLACK
6
CONTINUOUS
10
93.45
20
-125.155
11
93.2595
21
-125.06
0
LINE
8
BLACK
6
CONTINUOUS
10
93.2595
20
-125.06
11
93.1643
21
-124.869
0
LINE
8
BLACK
6
CONTINUOUS
10
93.1643
20
-124.869
11
93.1643
21
-123.155
0
LINE
8
BLACK
6
CONTINUOUS
10
95.7357
20
-125.155
11
95.7357
21
-123.155
0
LINE
8
BLACK
6
CONTINUOUS
10
95.7357
20
-123.155
11
96.4024
21
-124.583
0
LINE
8
BLACK
6
CONTINUOUS
10
96.4024
20
-124.583
11
97.069
21
-123.155
0
LINE
8
BLACK
6
CONTINUOUS
10
97.069
20
-123.155
11
97.069
21
-125.155
0
LINE
8
BLACK
6
CONTINUOUS
10
98.8786
20
-125.155
11
98.8786
21
-124.107
0
LINE
8
BLACK
6
CONTINUOUS
10
98.8786
20
-124.107
11
98.7833
21
-123.917
0
LINE
8
BLACK
6
CONTINUOUS
10
98.7833
20
-123.917
11
98.5929
21
-123.821
0
LINE
8
BLACK
6
CONTINUOUS
10
98.5929
20
-123.821
11
98.2119
21
-123.821
0
LINE
8
BLACK
6
CONTINUOUS
10
98.2119
20
-123.821
11
98.0214
21
-123.917
0
LINE
8
BLACK
6
CONTINUOUS
10
98.8786
20
-125.06
11
98.6881
21
-125.155
0
LINE
8
BLACK
6
CONTINUOUS
10
98.6881
20
-125.155
11
98.2119
21
-125.155
0
LINE
8
BLACK
6
CONTINUOUS
10
98.2119
20
-125.155
11
98.0214
21
-125.06
0
LINE
8
BLACK
6
CONTINUOUS
10
98.0214
20
-125.06
11
97.9262
21
-124.869
0
LINE
8
BLACK
6
CONTINUOUS
10
97.9262
20
-124.869
11
97.9262
21
-124.679
0
LINE
8
BLACK
6
CONTINUOUS
10
97.9262
20
-124.679
11
98.0214
21
-124.488
0
LINE
8
BLACK
6
CONTINUOUS
10
98.0214
20
-124.488
11
98.2119
21
-124.393
0
LINE
8
BLACK
6
CONTINUOUS
10
98.2119
20
-124.393
11
98.6881
21
-124.393
0
LINE
8
BLACK
6
CONTINUOUS
10
98.6881
20
-124.393
11
98.8786
21
-124.298
0
LINE
8
BLACK
6
CONTINUOUS
10
99.831
20
-123.821
11
99.831
21
-125.821
0
LINE
8
BLACK
6
CONTINUOUS
10
99.831
20
-123.917
11
100.021
21
-123.821
0
LINE
8
BLACK
6
CONTINUOUS
10
100.021
20
-123.821
11
100.402
21
-123.821
0
LINE
8
BLACK
6
CONTINUOUS
10
100.402
20
-123.821
11
100.593
21
-123.917
0
LINE
8
BLACK
6
CONTINUOUS
10
100.593
20
-123.917
11
100.688
21
-124.012
0
LINE
8
BLACK
6
CONTINUOUS
10
100.688
20
-124.012
11
100.783
21
-124.202
0
LINE
8
BLACK
6
CONTINUOUS
10
100.783
20
-124.202
11
100.783
21
-124.774
0
LINE
8
BLACK
6
CONTINUOUS
10
100.783
20
-124.774
11
100.688
21
-124.964
0
LINE
8
BLACK
6
CONTINUOUS
10
100.688
20
-124.964
11
100.593
21
-125.06
0
LINE
8
BLACK
6
CONTINUOUS
10
100.593
20
-125.06
11
100.402
21
-125.155
0
LINE
8
BLACK
6
CONTINUOUS
10
100.402
20
-125.155
11
100.021
21
-125.155
0
LINE
8
BLACK
6
CONTINUOUS
10
100.021
20
-125.155
11
99.831
21
-125.06
0
LINE
8
BLACK
6
CONTINUOUS
10
101.64
20
-124.964
11
101.736
21
-125.06
0
LINE
8
BLACK
6
CONTINUOUS
10
101.736
20
-125.06
11
101.64
21
-125.155
0
LINE
8
BLACK
6
CONTINUOUS
10
101.64
20
-125.155
11
101.545
21
-125.06
0
LINE
8
BLACK
6
CONTINUOUS
10
101.545
20
-125.06
11
101.64
21
-124.964
0
LINE
8
BLACK
6
CONTINUOUS
10
101.64
20
-124.964
11
101.64
21
-125.155
0
LINE
8
BLACK
6
CONTINUOUS
10
101.64
20
-123.917
11
101.736
21
-124.012
0
LINE
8
BLACK
6
CONTINUOUS
10
101.736
20
-124.012
11
101.64
21
-124.107
0
LINE
8
BLACK
6
CONTINUOUS
10
101.64
20
-124.107
11
101.545
21
-124.012
0
LINE
8
BLACK
6
CONTINUOUS
10
101.545
20
-124.012
11
101.64
21
-123.917
0
LINE
8
BLACK
6
CONTINUOUS
10
101.64
20
-123.917
11
101.64
21
-124.107
0
LINE
8
BLACK
6
CONTINUOUS
10
83.35
20
-127.45
11
85.35
21
-129.45
0
LINE
8
BLACK
6
CONTINUOUS
10
85.35
20
-127.45
11
83.35
21
-129.45
0
LINE
8
BLACK
6
CONTINUOUS
10
87.7357
20
-127.355
11
88.9738
21
-127.355
0
LINE
8
BLACK
6
CONTINUOUS
10
88.9738
20
-127.355
11
88.3071
21
-128.117
0
LINE
8
BLACK
6
CONTINUOUS
10
88.3071
20
-128.117
11
88.5929
21
-128.117
0
LINE
8
BLACK
6
CONTINUOUS
10
88.5929
20
-128.117
11
88.7833
21
-128.212
0
LINE
8
BLACK
6
CONTINUOUS
10
88.7833
20
-128.212
11
88.8786
21
-128.307
0
LINE
8
BLACK
6
CONTINUOUS
10
88.8786
20
-128.307
11
88.9738
21
-128.498
0
LINE
8
BLACK
6
CONTINUOUS
10
88.9738
20
-128.498
11
88.9738
21
-128.974
0
LINE
8
BLACK
6
CONTINUOUS
10
88.9738
20
-128.974
11
88.8786
21
-129.164
0
LINE
8
BLACK
6
CONTINUOUS
10
88.8786
20
-129.164
11
88.7833
21
-129.26
0
LINE
8
BLACK
6
CONTINUOUS
10
88.7833
20
-129.26
11
88.5929
21
-129.355
0
LINE
8
BLACK
6
CONTINUOUS
10
88.5929
20
-129.355
11
88.0214
21
-129.355
0
LINE
8
BLACK
6
CONTINUOUS
10
88.0214
20
-129.355
11
87.831
21
-129.26
0
LINE
8
BLACK
6
CONTINUOUS
10
87.831
20
-129.26
11
87.7357
21
-129.164
0
LINE
8
BLACK
6
CONTINUOUS
10
89.831
20
-129.164
11
89.9262
21
-129.26
0
LINE
8
BLACK
6
CONTINUOUS
10
89.9262
20
-129.26
11
89.831
21
-129.355
0
LINE
8
BLACK
6
CONTINUOUS
10
89.831
20
-129.355
11
89.7357
21
-129.26
0
LINE
8
BLACK
6
CONTINUOUS
10
89.7357
20
-129.26
11
89.831
21
-129.164
0
LINE
8
BLACK
6
CONTINUOUS
10
89.831
20
-129.164
11
89.831
21
-129.355
0
LINE
8
BLACK
6
CONTINUOUS
10
90.6881
20
-127.545
11
90.7833
21
-127.45
0
LINE
8
BLACK
6
CONTINUOUS
10
90.7833
20
-127.45
11
90.9738
21
-127.355
0
LINE
8
BLACK
6
CONTINUOUS
10
90.9738
20
-127.355
11
91.45
21
-127.355
0
LINE
8
BLACK
6
CONTINUOUS
10
91.45
20
-127.355
11
91.6405
21
-127.45
0
LINE
8
BLACK
6
CONTINUOUS
10
91.6405
20
-127.45
11
91.7357
21
-127.545
0
LINE
8
BLACK
6
CONTINUOUS
10
91.7357
20
-127.545
11
91.831
21
-127.736
0
LINE
8
BLACK
6
CONTINUOUS
10
91.831
20
-127.736
11
91.831
21
-127.926
0
LINE
8
BLACK
6
CONTINUOUS
10
91.831
20
-127.926
11
91.7357
21
-128.212
0
LINE
8
BLACK
6
CONTINUOUS
10
91.7357
20
-128.212
11
90.5929
21
-129.355
0
LINE
8
BLACK
6
CONTINUOUS
10
90.5929
20
-129.355
11
91.831
21
-129.355
0
LINE
8
BLACK
6
CONTINUOUS
10
93.069
20
-127.355
11
93.2595
21
-127.355
0
LINE
8
BLACK
6
CONTINUOUS
10
93.2595
20
-127.355
11
93.45
21
-127.45
0
LINE
8
BLACK
6
CONTINUOUS
10
93.45
20
-127.45
11
93.5452
21
-127.545
0
LINE
8
BLACK
6
CONTINUOUS
10
93.5452
20
-127.545
11
93.6405
21
-127.736
0
LINE
8
BLACK
6
CONTINUOUS
10
93.6405
20
-127.736
11
93.7357
21
-128.117
0
LINE
8
BLACK
6
CONTINUOUS
10
93.7357
20
-128.117
11
93.7357
21
-128.593
0
LINE
8
BLACK
6
CONTINUOUS
10
93.7357
20
-128.593
11
93.6405
21
-128.974
0
LINE
8
BLACK
6
CONTINUOUS
10
93.6405
20
-128.974
11
93.5452
21
-129.164
0
LINE
8
BLACK
6
CONTINUOUS
10
93.5452
20
-129.164
11
93.45
21
-129.26
0
LINE
8
BLACK
6
CONTINUOUS
10
93.45
20
-129.26
11
93.2595
21
-129.355
0
LINE
8
BLACK
6
CONTINUOUS
10
93.2595
20
-129.355
11
93.069
21
-129.355
0
LINE
8
BLACK
6
CONTINUOUS
10
93.069
20
-129.355
11
92.8786
21
-129.26
0
LINE
8
BLACK
6
CONTINUOUS
10
92.8786
20
-129.26
11
92.7833
21
-129.164
0
LINE
8
BLACK
6
CONTINUOUS
10
92.7833
20
-129.164
11
92.6881
21
-128.974
0
LINE
8
BLACK
6
CONTINUOUS
10
92.6881
20
-128.974
11
92.5929
21
-128.593
0
LINE
8
BLACK
6
CONTINUOUS
10
92.5929
20
-128.593
11
92.5929
21
-128.117
0
LINE
8
BLACK
6
CONTINUOUS
10
92.5929
20
-128.117
11
92.6881
21
-127.736
0
LINE
8
BLACK
6
CONTINUOUS
10
92.6881
20
-127.736
11
92.7833
21
-127.545
0
LINE
8
BLACK
6
CONTINUOUS
10
92.7833
20
-127.545
11
92.8786
21
-127.45
0
LINE
8
BLACK
6
CONTINUOUS
10
92.8786
20
-127.45
11
93.069
21
-127.355
0
LINE
8
BLACK
6
CONTINUOUS
10
94.9738
20
-127.355
11
95.1643
21
-127.355
0
LINE
8
BLACK
6
CONTINUOUS
10
95.1643
20
-127.355
11
95.3548
21
-127.45
0
LINE
8
BLACK
6
CONTINUOUS
10
95.3548
20
-127.45
11
95.45
21
-127.545
0
LINE
8
BLACK
6
CONTINUOUS
10
95.45
20
-127.545
11
95.5452
21
-127.736
0
LINE
8
BLACK
6
CONTINUOUS
10
95.5452
20
-127.736
11
95.6405
21
-128.117
0
LINE
8
BLACK
6
CONTINUOUS
10
95.6405
20
-128.117
11
95.6405
21
-128.593
0
LINE
8
BLACK
6
CONTINUOUS
10
95.6405
20
-128.593
11
95.5452
21
-128.974
0
LINE
8
BLACK
6
CONTINUOUS
10
95.5452
20
-128.974
11
95.45
21
-129.164
0
LINE
8
BLACK
6
CONTINUOUS
10
95.45
20
-129.164
11
95.3548
21
-129.26
0
LINE
8
BLACK
6
CONTINUOUS
10
95.3548
20
-129.26
11
95.1643
21
-129.355
0
LINE
8
BLACK
6
CONTINUOUS
10
95.1643
20
-129.355
11
94.9738
21
-129.355
0
LINE
8
BLACK
6
CONTINUOUS
10
94.9738
20
-129.355
11
94.7833
21
-129.26
0
LINE
8
BLACK
6
CONTINUOUS
10
94.7833
20
-129.26
11
94.6881
21
-129.164
0
LINE
8
BLACK
6
CONTINUOUS
10
94.6881
20
-129.164
11
94.5929
21
-128.974
0
LINE
8
BLACK
6
CONTINUOUS
10
94.5929
20
-128.974
11
94.4976
21
-128.593
0
LINE
8
BLACK
6
CONTINUOUS
10
94.4976
20
-128.593
11
94.4976
21
-128.117
0
LINE
8
BLACK
6
CONTINUOUS
10
94.4976
20
-128.117
11
94.5929
21
-127.736
0
LINE
8
BLACK
6
CONTINUOUS
10
94.5929
20
-127.736
11
94.6881
21
-127.545
0
LINE
8
BLACK
6
CONTINUOUS
10
94.6881
20
-127.545
11
94.7833
21
-127.45
0
LINE
8
BLACK
6
CONTINUOUS
10
94.7833
20
-127.45
11
94.9738
21
-127.355
0
LINE
8
BLACK
6
CONTINUOUS
10
96.4976
20
-129.355
11
96.4976
21
-128.021
0
LINE
8
BLACK
6
CONTINUOUS
10
96.4976
20
-128.212
11
96.5929
21
-128.117
0
LINE
8
BLACK
6
CONTINUOUS
10
96.5929
20
-128.117
11
96.7833
21
-128.021
0
LINE
8
BLACK
6
CONTINUOUS
10
96.7833
20
-128.021
11
97.069
21
-128.021
0
LINE
8
BLACK
6
CONTINUOUS
10
97.069
20
-128.021
11
97.2595
21
-128.117
0
LINE
8
BLACK
6
CONTINUOUS
10
97.2595
20
-128.117
11
97.3548
21
-128.307
0
LINE
8
BLACK
6
CONTINUOUS
10
97.3548
20
-128.307
11
97.3548
21
-129.355
0
LINE
8
BLACK
6
CONTINUOUS
10
97.3548
20
-128.307
11
97.45
21
-128.117
0
LINE
8
BLACK
6
CONTINUOUS
10
97.45
20
-128.117
11
97.6405
21
-128.021
0
LINE
8
BLACK
6
CONTINUOUS
10
97.6405
20
-128.021
11
97.9262
21
-128.021
0
LINE
8
BLACK
6
CONTINUOUS
10
97.9262
20
-128.021
11
98.1167
21
-128.117
0
LINE
8
BLACK
6
CONTINUOUS
10
98.1167
20
-128.117
11
98.2119
21
-128.307
0
LINE
8
BLACK
6
CONTINUOUS
10
98.2119
20
-128.307
11
98.2119
21
-129.355
0
LINE
8
BLACK
6
CONTINUOUS
10
99.1643
20
-129.355
11
99.1643
21
-128.021
0
LINE
8
BLACK
6
CONTINUOUS
10
99.1643
20
-128.212
11
99.2595
21
-128.117
0
LINE
8
BLACK
6
CONTINUOUS
10
99.2595
20
-128.117
11
99.45
21
-128.021
0
LINE
8
BLACK
6
CONTINUOUS
10
99.45
20
-128.021
11
99.7357
21
-128.021
0
LINE
8
BLACK
6
CONTINUOUS
10
99.7357
20
-128.021
11
99.9262
21
-128.117
0
LINE
8
BLACK
6
CONTINUOUS
10
99.9262
20
-128.117
11
100.021
21
-128.307
0
LINE
8
BLACK
6
CONTINUOUS
10
100.021
20
-128.307
11
100.021
21
-129.355
0
LINE
8
BLACK
6
CONTINUOUS
10
100.021
20
-128.307
11
100.117
21
-128.117
0
LINE
8
BLACK
6
CONTINUOUS
10
100.117
20
-128.117
11
100.307
21
-128.021
0
LINE
8
BLACK
6
CONTINUOUS
10
100.307
20
-128.021
11
100.593
21
-128.021
0
LINE
8
BLACK
6
CONTINUOUS
10
100.593
20
-128.021
11
100.783
21
-128.117
0
LINE
8
BLACK
6
CONTINUOUS
10
100.783
20
-128.117
11
100.879
21
-128.307
0
LINE
8
BLACK
6
CONTINUOUS
10
100.879
20
-128.307
11
100.879
21
-129.355
0
LINE
8
BLACK
6
CONTINUOUS
10
104.783
20
-127.26
11
103.069
21
-129.831
0
LINE
8
BLACK
6
CONTINUOUS
10
107.355
20
-127.355
11
107.545
21
-127.355
0
LINE
8
BLACK
6
CONTINUOUS
10
107.545
20
-127.355
11
107.736
21
-127.45
0
LINE
8
BLACK
6
CONTINUOUS
10
107.736
20
-127.45
11
107.831
21
-127.545
0
LINE
8
BLACK
6
CONTINUOUS
10
107.831
20
-127.545
11
107.926
21
-127.736
0
LINE
8
BLACK
6
CONTINUOUS
10
107.926
20
-127.736
11
108.021
21
-128.117
0
LINE
8
BLACK
6
CONTINUOUS
10
108.021
20
-128.117
11
108.021
21
-128.593
0
LINE
8
BLACK
6
CONTINUOUS
10
108.021
20
-128.593
11
107.926
21
-128.974
0
LINE
8
BLACK
6
CONTINUOUS
10
107.926
20
-128.974
11
107.831
21
-129.164
0
LINE
8
BLACK
6
CONTINUOUS
10
107.831
20
-129.164
11
107.736
21
-129.26
0
LINE
8
BLACK
6
CONTINUOUS
10
107.736
20
-129.26
11
107.545
21
-129.355
0
LINE
8
BLACK
6
CONTINUOUS
10
107.545
20
-129.355
11
107.355
21
-129.355
0
LINE
8
BLACK
6
CONTINUOUS
10
107.355
20
-129.355
11
107.164
21
-129.26
0
LINE
8
BLACK
6
CONTINUOUS
10
107.164
20
-129.26
11
107.069
21
-129.164
0
LINE
8
BLACK
6
CONTINUOUS
10
107.069
20
-129.164
11
106.974
21
-128.974
0
LINE
8
BLACK
6
CONTINUOUS
10
106.974
20
-128.974
11
106.879
21
-128.593
0
LINE
8
BLACK
6
CONTINUOUS
10
106.879
20
-128.593
11
106.879
21
-128.117
0
LINE
8
BLACK
6
CONTINUOUS
10
106.879
20
-128.117
11
106.974
21
-127.736
0
LINE
8
BLACK
6
CONTINUOUS
10
106.974
20
-127.736
11
107.069
21
-127.545
0
LINE
8
BLACK
6
CONTINUOUS
10
107.069
20
-127.545
11
107.164
21
-127.45
0
LINE
8
BLACK
6
CONTINUOUS
10
107.164
20
-127.45
11
107.355
21
-127.355
0
LINE
8
BLACK
6
CONTINUOUS
10
108.879
20
-129.164
11
108.974
21
-129.26
0
LINE
8
BLACK
6
CONTINUOUS
10
108.974
20
-129.26
11
108.879
21
-129.355
0
LINE
8
BLACK
6
CONTINUOUS
10
108.879
20
-129.355
11
108.783
21
-129.26
0
LINE
8
BLACK
6
CONTINUOUS
10
108.783
20
-129.26
11
108.879
21
-129.164
0
LINE
8
BLACK
6
CONTINUOUS
10
108.879
20
-129.164
11
108.879
21
-129.355
0
LINE
8
BLACK
6
CONTINUOUS
10
110.879
20
-129.355
11
109.736
21
-129.355
0
LINE
8
BLACK
6
CONTINUOUS
10
110.307
20
-129.355
11
110.307
21
-127.355
0
LINE
8
BLACK
6
CONTINUOUS
10
110.307
20
-127.355
11
110.117
21
-127.64
0
LINE
8
BLACK
6
CONTINUOUS
10
110.117
20
-127.64
11
109.926
21
-127.831
0
LINE
8
BLACK
6
CONTINUOUS
10
109.926
20
-127.831
11
109.736
21
-127.926
0
LINE
8
BLACK
6
CONTINUOUS
10
111.64
20
-127.545
11
111.736
21
-127.45
0
LINE
8
BLACK
6
CONTINUOUS
10
111.736
20
-127.45
11
111.926
21
-127.355
0
LINE
8
BLACK
6
CONTINUOUS
10
111.926
20
-127.355
11
112.402
21
-127.355
0
LINE
8
BLACK
6
CONTINUOUS
10
112.402
20
-127.355
11
112.593
21
-127.45
0
LINE
8
BLACK
6
CONTINUOUS
10
112.593
20
-127.45
11
112.688
21
-127.545
0
LINE
8
BLACK
6
CONTINUOUS
10
112.688
20
-127.545
11
112.783
21
-127.736
0
LINE
8
BLACK
6
CONTINUOUS
10
112.783
20
-127.736
11
112.783
21
-127.926
0
LINE
8
BLACK
6
CONTINUOUS
10
112.783
20
-127.926
11
112.688
21
-128.212
0
LINE
8
BLACK
6
CONTINUOUS
10
112.688
20
-128.212
11
111.545
21
-129.355
0
LINE
8
BLACK
6
CONTINUOUS
10
111.545
20
-129.355
11
112.783
21
-129.355
0
LINE
8
BLACK
6
CONTINUOUS
10
114.498
20
-127.355
11
114.117
21
-127.355
0
LINE
8
BLACK
6
CONTINUOUS
10
114.117
20
-127.355
11
113.926
21
-127.45
0
LINE
8
BLACK
6
CONTINUOUS
10
113.926
20
-127.45
11
113.831
21
-127.545
0
LINE
8
BLACK
6
CONTINUOUS
10
113.831
20
-127.545
11
113.64
21
-127.831
0
LINE
8
BLACK
6
CONTINUOUS
10
113.64
20
-127.831
11
113.545
21
-128.212
0
LINE
8
BLACK
6
CONTINUOUS
10
113.545
20
-128.212
11
113.545
21
-128.974
0
LINE
8
BLACK
6
CONTINUOUS
10
113.545
20
-128.974
11
113.64
21
-129.164
0
LINE
8
BLACK
6
CONTINUOUS
10
113.64
20
-129.164
11
113.736
21
-129.26
0
LINE
8
BLACK
6
CONTINUOUS
10
113.736
20
-129.26
11
113.926
21
-129.355
0
LINE
8
BLACK
6
CONTINUOUS
10
113.926
20
-129.355
11
114.307
21
-129.355
0
LINE
8
BLACK
6
CONTINUOUS
10
114.307
20
-129.355
11
114.498
21
-129.26
0
LINE
8
BLACK
6
CONTINUOUS
10
114.498
20
-129.26
11
114.593
21
-129.164
0
LINE
8
BLACK
6
CONTINUOUS
10
114.593
20
-129.164
11
114.688
21
-128.974
0
LINE
8
BLACK
6
CONTINUOUS
10
114.688
20
-128.974
11
114.688
21
-128.498
0
LINE
8
BLACK
6
CONTINUOUS
10
114.688
20
-128.498
11
114.593
21
-128.307
0
LINE
8
BLACK
6
CONTINUOUS
10
114.593
20
-128.307
11
114.498
21
-128.212
0
LINE
8
BLACK
6
CONTINUOUS
10
114.498
20
-128.212
11
114.307
21
-128.117
0
LINE
8
BLACK
6
CONTINUOUS
10
114.307
20
-128.117
11
113.926
21
-128.117
0
LINE
8
BLACK
6
CONTINUOUS
10
113.926
20
-128.117
11
113.736
21
-128.212
0
LINE
8
BLACK
6
CONTINUOUS
10
113.736
20
-128.212
11
113.64
21
-128.307
0
LINE
8
BLACK
6
CONTINUOUS
10
113.64
20
-128.307
11
113.545
21
-128.498
0
LINE
8
BLACK
6
CONTINUOUS
10
115.926
20
-127.355
11
116.117
21
-127.355
0
LINE
8
BLACK
6
CONTINUOUS
10
116.117
20
-127.355
11
116.307
21
-127.45
0
LINE
8
BLACK
6
CONTINUOUS
10
116.307
20
-127.45
11
116.402
21
-127.545
0
LINE
8
BLACK
6
CONTINUOUS
10
116.402
20
-127.545
11
116.498
21
-127.736
0
LINE
8
BLACK
6
CONTINUOUS
10
116.498
20
-127.736
11
116.593
21
-128.117
0
LINE
8
BLACK
6
CONTINUOUS
10
116.593
20
-128.117
11
116.593
21
-128.593
0
LINE
8
BLACK
6
CONTINUOUS
10
116.593
20
-128.593
11
116.498
21
-128.974
0
LINE
8
BLACK
6
CONTINUOUS
10
116.498
20
-128.974
11
116.402
21
-129.164
0
LINE
8
BLACK
6
CONTINUOUS
10
116.402
20
-129.164
11
116.307
21
-129.26
0
LINE
8
BLACK
6
CONTINUOUS
10
116.307
20
-129.26
11
116.117
21
-129.355
0
LINE
8
BLACK
6
CONTINUOUS
10
116.117
20
-129.355
11
115.926
21
-129.355
0
LINE
8
BLACK
6
CONTINUOUS
10
115.926
20
-129.355
11
115.736
21
-129.26
0
LINE
8
BLACK
6
CONTINUOUS
10
115.736
20
-129.26
11
115.64
21
-129.164
0
LINE
8
BLACK
6
CONTINUOUS
10
115.64
20
-129.164
11
115.545
21
-128.974
0
LINE
8
BLACK
6
CONTINUOUS
10
115.545
20
-128.974
11
115.45
21
-128.593
0
LINE
8
BLACK
6
CONTINUOUS
10
115.45
20
-128.593
11
115.45
21
-128.117
0
LINE
8
BLACK
6
CONTINUOUS
10
115.45
20
-128.117
11
115.545
21
-127.736
0
LINE
8
BLACK
6
CONTINUOUS
10
115.545
20
-127.736
11
115.64
21
-127.545
0
LINE
8
BLACK
6
CONTINUOUS
10
115.64
20
-127.545
11
115.736
21
-127.45
0
LINE
8
BLACK
6
CONTINUOUS
10
115.736
20
-127.45
11
115.926
21
-127.355
0
LINE
8
BLACK
6
CONTINUOUS
10
117.355
20
-127.355
11
117.355
21
-127.736
0
LINE
8
BLACK
6
CONTINUOUS
10
118.117
20
-127.355
11
118.117
21
-127.736
0
LINE
8
BLACK
6
CONTINUOUS
10
121.069
20
-130.117
11
120.974
21
-130.021
0
LINE
8
BLACK
6
CONTINUOUS
10
120.974
20
-130.021
11
120.783
21
-129.736
0
LINE
8
BLACK
6
CONTINUOUS
10
120.783
20
-129.736
11
120.688
21
-129.545
0
LINE
8
BLACK
6
CONTINUOUS
10
120.688
20
-129.545
11
120.593
21
-129.26
0
LINE
8
BLACK
6
CONTINUOUS
10
120.593
20
-129.26
11
120.498
21
-128.783
0
LINE
8
BLACK
6
CONTINUOUS
10
120.498
20
-128.783
11
120.498
21
-128.402
0
LINE
8
BLACK
6
CONTINUOUS
10
120.498
20
-128.402
11
120.593
21
-127.926
0
LINE
8
BLACK
6
CONTINUOUS
10
120.593
20
-127.926
11
120.688
21
-127.64
0
LINE
8
BLACK
6
CONTINUOUS
10
120.688
20
-127.64
11
120.783
21
-127.45
0
LINE
8
BLACK
6
CONTINUOUS
10
120.783
20
-127.45
11
120.974
21
-127.164
0
LINE
8
BLACK
6
CONTINUOUS
10
120.974
20
-127.164
11
121.069
21
-127.069
0
LINE
8
BLACK
6
CONTINUOUS
10
122.783
20
-127.355
11
121.831
21
-127.355
0
LINE
8
BLACK
6
CONTINUOUS
10
121.831
20
-127.355
11
121.736
21
-128.307
0
LINE
8
BLACK
6
CONTINUOUS
10
121.736
20
-128.307
11
121.831
21
-128.212
0
LINE
8
BLACK
6
CONTINUOUS
10
121.831
20
-128.212
11
122.021
21
-128.117
0
LINE
8
BLACK
6
CONTINUOUS
10
122.021
20
-128.117
11
122.498
21
-128.117
0
LINE
8
BLACK
6
CONTINUOUS
10
122.498
20
-128.117
11
122.688
21
-128.212
0
LINE
8
BLACK
6
CONTINUOUS
10
122.688
20
-128.212
11
122.783
21
-128.307
0
LINE
8
BLACK
6
CONTINUOUS
10
122.783
20
-128.307
11
122.879
21
-128.498
0
LINE
8
BLACK
6
CONTINUOUS
10
122.879
20
-128.498
11
122.879
21
-128.974
0
LINE
8
BLACK
6
CONTINUOUS
10
122.879
20
-128.974
11
122.783
21
-129.164
0
LINE
8
BLACK
6
CONTINUOUS
10
122.783
20
-129.164
11
122.688
21
-129.26
0
LINE
8
BLACK
6
CONTINUOUS
10
122.688
20
-129.26
11
122.498
21
-129.355
0
LINE
8
BLACK
6
CONTINUOUS
10
122.498
20
-129.355
11
122.021
21
-129.355
0
LINE
8
BLACK
6
CONTINUOUS
10
122.021
20
-129.355
11
121.831
21
-129.26
0
LINE
8
BLACK
6
CONTINUOUS
10
121.831
20
-129.26
11
121.736
21
-129.164
0
LINE
8
BLACK
6
CONTINUOUS
10
125.26
20
-129.355
11
125.26
21
-127.355
0
LINE
8
BLACK
6
CONTINUOUS
10
126.117
20
-129.355
11
126.117
21
-128.307
0
LINE
8
BLACK
6
CONTINUOUS
10
126.117
20
-128.307
11
126.021
21
-128.117
0
LINE
8
BLACK
6
CONTINUOUS
10
126.021
20
-128.117
11
125.831
21
-128.021
0
LINE
8
BLACK
6
CONTINUOUS
10
125.831
20
-128.021
11
125.545
21
-128.021
0
LINE
8
BLACK
6
CONTINUOUS
10
125.545
20
-128.021
11
125.355
21
-128.117
0
LINE
8
BLACK
6
CONTINUOUS
10
125.355
20
-128.117
11
125.26
21
-128.212
0
LINE
8
BLACK
6
CONTINUOUS
10
127.355
20
-129.355
11
127.164
21
-129.26
0
LINE
8
BLACK
6
CONTINUOUS
10
127.164
20
-129.26
11
127.069
21
-129.164
0
LINE
8
BLACK
6
CONTINUOUS
10
127.069
20
-129.164
11
126.974
21
-128.974
0
LINE
8
BLACK
6
CONTINUOUS
10
126.974
20
-128.974
11
126.974
21
-128.402
0
LINE
8
BLACK
6
CONTINUOUS
10
126.974
20
-128.402
11
127.069
21
-128.212
0
LINE
8
BLACK
6
CONTINUOUS
10
127.069
20
-128.212
11
127.164
21
-128.117
0
LINE
8
BLACK
6
CONTINUOUS
10
127.164
20
-128.117
11
127.355
21
-128.021
0
LINE
8
BLACK
6
CONTINUOUS
10
127.355
20
-128.021
11
127.64
21
-128.021
0
LINE
8
BLACK
6
CONTINUOUS
10
127.64
20
-128.021
11
127.831
21
-128.117
0
LINE
8
BLACK
6
CONTINUOUS
10
127.831
20
-128.117
11
127.926
21
-128.212
0
LINE
8
BLACK
6
CONTINUOUS
10
127.926
20
-128.212
11
128.021
21
-128.402
0
LINE
8
BLACK
6
CONTINUOUS
10
128.021
20
-128.402
11
128.021
21
-128.974
0
LINE
8
BLACK
6
CONTINUOUS
10
128.021
20
-128.974
11
127.926
21
-129.164
0
LINE
8
BLACK
6
CONTINUOUS
10
127.926
20
-129.164
11
127.831
21
-129.26
0
LINE
8
BLACK
6
CONTINUOUS
10
127.831
20
-129.26
11
127.64
21
-129.355
0
LINE
8
BLACK
6
CONTINUOUS
10
127.64
20
-129.355
11
127.355
21
-129.355
0
LINE
8
BLACK
6
CONTINUOUS
10
129.164
20
-129.355
11
128.974
21
-129.26
0
LINE
8
BLACK
6
CONTINUOUS
10
128.974
20
-129.26
11
128.879
21
-129.069
0
LINE
8
BLACK
6
CONTINUOUS
10
128.879
20
-129.069
11
128.879
21
-127.355
0
LINE
8
BLACK
6
CONTINUOUS
10
130.688
20
-129.26
11
130.498
21
-129.355
0
LINE
8
BLACK
6
CONTINUOUS
10
130.498
20
-129.355
11
130.117
21
-129.355
0
LINE
8
BLACK
6
CONTINUOUS
10
130.117
20
-129.355
11
129.926
21
-129.26
0
LINE
8
BLACK
6
CONTINUOUS
10
129.926
20
-129.26
11
129.831
21
-129.069
0
LINE
8
BLACK
6
CONTINUOUS
10
129.831
20
-129.069
11
129.831
21
-128.307
0
LINE
8
BLACK
6
CONTINUOUS
10
129.831
20
-128.307
11
129.926
21
-128.117
0
LINE
8
BLACK
6
CONTINUOUS
10
129.926
20
-128.117
11
130.117
21
-128.021
0
LINE
8
BLACK
6
CONTINUOUS
10
130.117
20
-128.021
11
130.498
21
-128.021
0
LINE
8
BLACK
6
CONTINUOUS
10
130.498
20
-128.021
11
130.688
21
-128.117
0
LINE
8
BLACK
6
CONTINUOUS
10
130.688
20
-128.117
11
130.783
21
-128.307
0
LINE
8
BLACK
6
CONTINUOUS
10
130.783
20
-128.307
11
130.783
21
-128.498
0
LINE
8
BLACK
6
CONTINUOUS
10
130.783
20
-128.498
11
129.831
21
-128.688
0
LINE
8
BLACK
6
CONTINUOUS
10
131.545
20
-129.26
11
131.736
21
-129.355
0
LINE
8
BLACK
6
CONTINUOUS
10
131.736
20
-129.355
11
132.117
21
-129.355
0
LINE
8
BLACK
6
CONTINUOUS
10
132.117
20
-129.355
11
132.307
21
-129.26
0
LINE
8
BLACK
6
CONTINUOUS
10
132.307
20
-129.26
11
132.402
21
-129.069
0
LINE
8
BLACK
6
CONTINUOUS
10
132.402
20
-129.069
11
132.402
21
-128.974
0
LINE
8
BLACK
6
CONTINUOUS
10
132.402
20
-128.974
11
132.307
21
-128.783
0
LINE
8
BLACK
6
CONTINUOUS
10
132.307
20
-128.783
11
132.117
21
-128.688
0
LINE
8
BLACK
6
CONTINUOUS
10
132.117
20
-128.688
11
131.831
21
-128.688
0
LINE
8
BLACK
6
CONTINUOUS
10
131.831
20
-128.688
11
131.64
21
-128.593
0
LINE
8
BLACK
6
CONTINUOUS
10
131.64
20
-128.593
11
131.545
21
-128.402
0
LINE
8
BLACK
6
CONTINUOUS
10
131.545
20
-128.402
11
131.545
21
-128.307
0
LINE
8
BLACK
6
CONTINUOUS
10
131.545
20
-128.307
11
131.64
21
-128.117
0
LINE
8
BLACK
6
CONTINUOUS
10
131.64
20
-128.117
11
131.831
21
-128.021
0
LINE
8
BLACK
6
CONTINUOUS
10
131.831
20
-128.021
11
132.117
21
-128.021
0
LINE
8
BLACK
6
CONTINUOUS
10
132.117
20
-128.021
11
132.307
21
-128.117
0
LINE
8
BLACK
6
CONTINUOUS
10
133.069
20
-130.117
11
133.164
21
-130.021
0
LINE
8
BLACK
6
CONTINUOUS
10
133.164
20
-130.021
11
133.355
21
-129.736
0
LINE
8
BLACK
6
CONTINUOUS
10
133.355
20
-129.736
11
133.45
21
-129.545
0
LINE
8
BLACK
6
CONTINUOUS
10
133.45
20
-129.545
11
133.545
21
-129.26
0
LINE
8
BLACK
6
CONTINUOUS
10
133.545
20
-129.26
11
133.64
21
-128.783
0
LINE
8
BLACK
6
CONTINUOUS
10
133.64
20
-128.783
11
133.64
21
-128.402
0
LINE
8
BLACK
6
CONTINUOUS
10
133.64
20
-128.402
11
133.545
21
-127.926
0
LINE
8
BLACK
6
CONTINUOUS
10
133.545
20
-127.926
11
133.45
21
-127.64
0
LINE
8
BLACK
6
CONTINUOUS
10
133.45
20
-127.64
11
133.355
21
-127.45
0
LINE
8
BLACK
6
CONTINUOUS
10
133.355
20
-127.45
11
133.164
21
-127.164
0
LINE
8
BLACK
6
CONTINUOUS
10
133.164
20
-127.164
11
133.069
21
-127.069
0
LINE
8
BLACK
6
CONTINUOUS
10
136.688
20
-130.117
11
136.593
21
-130.021
0
LINE
8
BLACK
6
CONTINUOUS
10
136.593
20
-130.021
11
136.402
21
-129.736
0
LINE
8
BLACK
6
CONTINUOUS
10
136.402
20
-129.736
11
136.307
21
-129.545
0
LINE
8
BLACK
6
CONTINUOUS
10
136.307
20
-129.545
11
136.212
21
-129.26
0
LINE
8
BLACK
6
CONTINUOUS
10
136.212
20
-129.26
11
136.117
21
-128.783
0
LINE
8
BLACK
6
CONTINUOUS
10
136.117
20
-128.783
11
136.117
21
-128.402
0
LINE
8
BLACK
6
CONTINUOUS
10
136.117
20
-128.402
11
136.212
21
-127.926
0
LINE
8
BLACK
6
CONTINUOUS
10
136.212
20
-127.926
11
136.307
21
-127.64
0
LINE
8
BLACK
6
CONTINUOUS
10
136.307
20
-127.64
11
136.402
21
-127.45
0
LINE
8
BLACK
6
CONTINUOUS
10
136.402
20
-127.45
11
136.593
21
-127.164
0
LINE
8
BLACK
6
CONTINUOUS
10
136.593
20
-127.164
11
136.688
21
-127.069
0
LINE
8
BLACK
6
CONTINUOUS
10
137.45
20
-128.021
11
137.45
21
-129.355
0
LINE
8
BLACK
6
CONTINUOUS
10
137.45
20
-128.212
11
137.545
21
-128.117
0
LINE
8
BLACK
6
CONTINUOUS
10
137.545
20
-128.117
11
137.736
21
-128.021
0
LINE
8
BLACK
6
CONTINUOUS
10
137.736
20
-128.021
11
138.021
21
-128.021
0
LINE
8
BLACK
6
CONTINUOUS
10
138.021
20
-128.021
11
138.212
21
-128.117
0
LINE
8
BLACK
6
CONTINUOUS
10
138.212
20
-128.117
11
138.307
21
-128.307
0
LINE
8
BLACK
6
CONTINUOUS
10
138.307
20
-128.307
11
138.307
21
-129.355
0
LINE
8
BLACK
6
CONTINUOUS
10
139.545
20
-129.355
11
139.355
21
-129.26
0
LINE
8
BLACK
6
CONTINUOUS
10
139.355
20
-129.26
11
139.26
21
-129.164
0
LINE
8
BLACK
6
CONTINUOUS
10
139.26
20
-129.164
11
139.164
21
-128.974
0
LINE
8
BLACK
6
CONTINUOUS
10
139.164
20
-128.974
11
139.164
21
-128.402
0
LINE
8
BLACK
6
CONTINUOUS
10
139.164
20
-128.402
11
139.26
21
-128.212
0
LINE
8
BLACK
6
CONTINUOUS
10
139.26
20
-128.212
11
139.355
21
-128.117
0
LINE
8
BLACK
6
CONTINUOUS
10
139.355
20
-128.117
11
139.545
21
-128.021
0
LINE
8
BLACK
6
CONTINUOUS
10
139.545
20
-128.021
11
139.831
21
-128.021
0
LINE
8
BLACK
6
CONTINUOUS
10
139.831
20
-128.021
11
140.021
21
-128.117
0
LINE
8
BLACK
6
CONTINUOUS
10
140.021
20
-128.117
11
140.117
21
-128.212
0
LINE
8
BLACK
6
CONTINUOUS
10
140.117
20
-128.212
11
140.212
21
-128.402
0
LINE
8
BLACK
6
CONTINUOUS
10
140.212
20
-128.402
11
140.212
21
-128.974
0
LINE
8
BLACK
6
CONTINUOUS
10
140.212
20
-128.974
11
140.117
21
-129.164
0
LINE
8
BLACK
6
CONTINUOUS
10
140.117
20
-129.164
11
140.021
21
-129.26
0
LINE
8
BLACK
6
CONTINUOUS
10
140.021
20
-129.26
11
139.831
21
-129.355
0
LINE
8
BLACK
6
CONTINUOUS
10
139.831
20
-129.355
11
139.545
21
-129.355
0
LINE
8
BLACK
6
CONTINUOUS
10
140.783
20
-128.021
11
141.545
21
-128.021
0
LINE
8
BLACK
6
CONTINUOUS
10
141.069
20
-127.355
11
141.069
21
-129.069
0
LINE
8
BLACK
6
CONTINUOUS
10
141.069
20
-129.069
11
141.164
21
-129.26
0
LINE
8
BLACK
6
CONTINUOUS
10
141.164
20
-129.26
11
141.355
21
-129.355
0
LINE
8
BLACK
6
CONTINUOUS
10
141.355
20
-129.355
11
141.545
21
-129.355
0
LINE
8
BLACK
6
CONTINUOUS
10
143.736
20
-128.021
11
143.736
21
-130.021
0
LINE
8
BLACK
6
CONTINUOUS
10
143.736
20
-128.117
11
143.926
21
-128.021
0
LINE
8
BLACK
6
CONTINUOUS
10
143.926
20
-128.021
11
144.307
21
-128.021
0
LINE
8
BLACK
6
CONTINUOUS
10
144.307
20
-128.021
11
144.498
21
-128.117
0
LINE
8
BLACK
6
CONTINUOUS
10
144.498
20
-128.117
11
144.593
21
-128.212
0
LINE
8
BLACK
6
CONTINUOUS
10
144.593
20
-128.212
11
144.688
21
-128.402
0
LINE
8
BLACK
6
CONTINUOUS
10
144.688
20
-128.402
11
144.688
21
-128.974
0
LINE
8
BLACK
6
CONTINUOUS
10
144.688
20
-128.974
11
144.593
21
-129.164
0
LINE
8
BLACK
6
CONTINUOUS
10
144.593
20
-129.164
11
144.498
21
-129.26
0
LINE
8
BLACK
6
CONTINUOUS
10
144.498
20
-129.26
11
144.307
21
-129.355
0
LINE
8
BLACK
6
CONTINUOUS
10
144.307
20
-129.355
11
143.926
21
-129.355
0
LINE
8
BLACK
6
CONTINUOUS
10
143.926
20
-129.355
11
143.736
21
-129.26
0
LINE
8
BLACK
6
CONTINUOUS
10
145.831
20
-129.355
11
145.64
21
-129.26
0
LINE
8
BLACK
6
CONTINUOUS
10
145.64
20
-129.26
11
145.545
21
-129.069
0
LINE
8
BLACK
6
CONTINUOUS
10
145.545
20
-129.069
11
145.545
21
-127.355
0
LINE
8
BLACK
6
CONTINUOUS
10
147.45
20
-129.355
11
147.45
21
-128.307
0
LINE
8
BLACK
6
CONTINUOUS
10
147.45
20
-128.307
11
147.355
21
-128.117
0
LINE
8
BLACK
6
CONTINUOUS
10
147.355
20
-128.117
11
147.164
21
-128.021
0
LINE
8
BLACK
6
CONTINUOUS
10
147.164
20
-128.021
11
146.783
21
-128.021
0
LINE
8
BLACK
6
CONTINUOUS
10
146.783
20
-128.021
11
146.593
21
-128.117
0
LINE
8
BLACK
6
CONTINUOUS
10
147.45
20
-129.26
11
147.26
21
-129.355
0
LINE
8
BLACK
6
CONTINUOUS
10
147.26
20
-129.355
11
146.783
21
-129.355
0
LINE
8
BLACK
6
CONTINUOUS
10
146.783
20
-129.355
11
146.593
21
-129.26
0
LINE
8
BLACK
6
CONTINUOUS
10
146.593
20
-129.26
11
146.498
21
-129.069
0
LINE
8
BLACK
6
CONTINUOUS
10
146.498
20
-129.069
11
146.498
21
-128.879
0
LINE
8
BLACK
6
CONTINUOUS
10
146.498
20
-128.879
11
146.593
21
-128.688
0
LINE
8
BLACK
6
CONTINUOUS
10
146.593
20
-128.688
11
146.783
21
-128.593
0
LINE
8
BLACK
6
CONTINUOUS
10
146.783
20
-128.593
11
147.26
21
-128.593
0
LINE
8
BLACK
6
CONTINUOUS
10
147.26
20
-128.593
11
147.45
21
-128.498
0
LINE
8
BLACK
6
CONTINUOUS
10
148.117
20
-128.021
11
148.879
21
-128.021
0
LINE
8
BLACK
6
CONTINUOUS
10
148.402
20
-127.355
11
148.402
21
-129.069
0
LINE
8
BLACK
6
CONTINUOUS
10
148.402
20
-129.069
11
148.498
21
-129.26
0
LINE
8
BLACK
6
CONTINUOUS
10
148.498
20
-129.26
11
148.688
21
-129.355
0
LINE
8
BLACK
6
CONTINUOUS
10
148.688
20
-129.355
11
148.879
21
-129.355
0
LINE
8
BLACK
6
CONTINUOUS
10
150.307
20
-129.26
11
150.117
21
-129.355
0
LINE
8
BLACK
6
CONTINUOUS
10
150.117
20
-129.355
11
149.736
21
-129.355
0
LINE
8
BLACK
6
CONTINUOUS
10
149.736
20
-129.355
11
149.545
21
-129.26
0
LINE
8
BLACK
6
CONTINUOUS
10
149.545
20
-129.26
11
149.45
21
-129.069
0
LINE
8
BLACK
6
CONTINUOUS
10
149.45
20
-129.069
11
149.45
21
-128.307
0
LINE
8
BLACK
6
CONTINUOUS
10
149.45
20
-128.307
11
149.545
21
-128.117
0
LINE
8
BLACK
6
CONTINUOUS
10
149.545
20
-128.117
11
149.736
21
-128.021
0
LINE
8
BLACK
6
CONTINUOUS
10
149.736
20
-128.021
11
150.117
21
-128.021
0
LINE
8
BLACK
6
CONTINUOUS
10
150.117
20
-128.021
11
150.307
21
-128.117
0
LINE
8
BLACK
6
CONTINUOUS
10
150.307
20
-128.117
11
150.402
21
-128.307
0
LINE
8
BLACK
6
CONTINUOUS
10
150.402
20
-128.307
11
150.402
21
-128.498
0
LINE
8
BLACK
6
CONTINUOUS
10
150.402
20
-128.498
11
149.45
21
-128.688
0
LINE
8
BLACK
6
CONTINUOUS
10
152.117
20
-129.355
11
152.117
21
-127.355
0
LINE
8
BLACK
6
CONTINUOUS
10
152.117
20
-129.26
11
151.926
21
-129.355
0
LINE
8
BLACK
6
CONTINUOUS
10
151.926
20
-129.355
11
151.545
21
-129.355
0
LINE
8
BLACK
6
CONTINUOUS
10
151.545
20
-129.355
11
151.355
21
-129.26
0
LINE
8
BLACK
6
CONTINUOUS
10
151.355
20
-129.26
11
151.26
21
-129.164
0
LINE
8
BLACK
6
CONTINUOUS
10
151.26
20
-129.164
11
151.164
21
-128.974
0
LINE
8
BLACK
6
CONTINUOUS
10
151.164
20
-128.974
11
151.164
21
-128.402
0
LINE
8
BLACK
6
CONTINUOUS
10
151.164
20
-128.402
11
151.26
21
-128.212
0
LINE
8
BLACK
6
CONTINUOUS
10
151.26
20
-128.212
11
151.355
21
-128.117
0
LINE
8
BLACK
6
CONTINUOUS
10
151.355
20
-128.117
11
151.545
21
-128.021
0
LINE
8
BLACK
6
CONTINUOUS
10
151.545
20
-128.021
11
151.926
21
-128.021
0
LINE
8
BLACK
6
CONTINUOUS
10
151.926
20
-128.021
11
152.117
21
-128.117
0
LINE
8
BLACK
6
CONTINUOUS
10
152.879
20
-130.117
11
152.974
21
-130.021
0
LINE
8
BLACK
6
CONTINUOUS
10
152.974
20
-130.021
11
153.164
21
-129.736
0
LINE
8
BLACK
6
CONTINUOUS
10
153.164
20
-129.736
11
153.26
21
-129.545
0
LINE
8
BLACK
6
CONTINUOUS
10
153.26
20
-129.545
11
153.355
21
-129.26
0
LINE
8
BLACK
6
CONTINUOUS
10
153.355
20
-129.26
11
153.45
21
-128.783
0
LINE
8
BLACK
6
CONTINUOUS
10
153.45
20
-128.783
11
153.45
21
-128.402
0
LINE
8
BLACK
6
CONTINUOUS
10
153.45
20
-128.402
11
153.355
21
-127.926
0
LINE
8
BLACK
6
CONTINUOUS
10
153.355
20
-127.926
11
153.26
21
-127.64
0
LINE
8
BLACK
6
CONTINUOUS
10
153.26
20
-127.64
11
153.164
21
-127.45
0
LINE
8
BLACK
6
CONTINUOUS
10
153.164
20
-127.45
11
152.974
21
-127.164
0
LINE
8
BLACK
6
CONTINUOUS
10
152.974
20
-127.164
11
152.879
21
-127.069
  0
ENDSEC
  0
EOF
