M48
; DRILL file {KiCad (6.0.10)} date Wed Mar 15 17:39:42 2023
; FORMAT={-:-/ absolute / inch / decimal}
; #@! TF.CreationDate,2023-03-15T17:39:42-04:00
; #@! TF.GenerationSoftware,Kicad,Pcbnew,(6.0.10)
; #@! TF.FileFunction,Plated,1,2,PTH
FMAT,2
INCH
; #@! TA.AperFunction,Plated,PTH,ViaDrill
T1C0.0157
; #@! TA.AperFunction,Plated,PTH,ComponentDrill
T2C0.0300
; #@! TA.AperFunction,Plated,PTH,ComponentDrill
T3C0.0394
; #@! TA.AperFunction,Plated,PTH,ComponentDrill
T4C0.0551
%
G90
G05
T1
X3.5448Y-3.052
X3.5641Y-3.4337
X3.6516Y-3.1947
X4.0835Y-2.5339
X4.315Y-2.3463
X4.4142Y-3.6726
X4.5488Y-2.3129
X4.6535Y-4.2047
X4.6863Y-3.4662
X4.7125Y-2.4186
X4.7126Y-2.7273
X4.7142Y-4.1271
X4.7148Y-2.9793
X4.7159Y-3.843
X4.7251Y-3.2736
X4.7251Y-3.5574
X4.7559Y-4.2362
X4.8222Y-3.8211
X4.8572Y-4.1518
X4.875Y-2.3097
X4.875Y-2.678
X4.875Y-2.9005
X4.875Y-3.2666
X4.875Y-3.4888
X5.1791Y-4.2303
X5.2986Y-4.2223
X5.511Y-3.4528
X5.6378Y-3.1732
X5.67Y-2.8076
X5.6985Y-3.6107
X5.7057Y-3.0336
X5.7138Y-3.9313
X5.714Y-3.4971
X5.7143Y-2.4386
X5.7144Y-4.1385
X5.7144Y-2.6524
X5.7146Y-3.2886
X5.7151Y-3.704
X5.7191Y-3.1852
X5.7527Y-2.852
X5.7818Y-2.4131
X5.895Y-2.3744
X5.895Y-2.6625
X5.895Y-2.878
X5.895Y-3.0231
X5.895Y-3.3116
X5.895Y-3.5272
X5.895Y-3.6716
X5.895Y-3.9598
X5.895Y-4.1043
T2
X4.375Y-2.416
X4.375Y-2.516
X4.375Y-2.616
X4.375Y-2.716
X4.375Y-2.816
X4.375Y-2.916
X4.375Y-3.016
X4.375Y-3.116
X4.375Y-3.216
X4.375Y-3.316
X4.375Y-3.416
X4.375Y-3.516
X4.375Y-3.616
X4.375Y-3.716
X4.375Y-3.816
X5.375Y-2.416
X5.375Y-2.516
X5.375Y-2.616
X5.375Y-2.716
X5.375Y-2.816
X5.375Y-2.916
X5.375Y-3.016
X5.375Y-3.116
X5.375Y-3.216
X5.375Y-3.316
X5.375Y-3.416
X5.375Y-3.516
X5.375Y-3.616
X5.375Y-3.716
X5.375Y-3.816
T3
X3.945Y-4.43
X4.045Y-4.43
X4.145Y-4.43
X4.245Y-4.43
X4.345Y-4.43
X4.445Y-4.43
X4.545Y-4.43
X4.645Y-4.43
X4.745Y-4.43
X4.845Y-4.43
X4.945Y-4.43
X5.045Y-4.43
X5.145Y-4.43
X5.245Y-4.43
X5.345Y-4.43
X5.445Y-4.43
T4
X3.8534Y-2.5039
X3.8534Y-2.7039
X3.8534Y-3.7921
X3.8534Y-3.9921
T0
M30
