%TF.GenerationSoftware,KiCad,Pcbnew,(6.0.10)*%
%TF.CreationDate,2023-03-15T17:39:42-04:00*%
%TF.ProjectId,pwm_pcb,70776d5f-7063-4622-9e6b-696361645f70,rev?*%
%TF.SameCoordinates,Original*%
%TF.FileFunction,Paste,Top*%
%TF.FilePolarity,Positive*%
%FSLAX46Y46*%
G04 Gerber Fmt 4.6, Leading zero omitted, Abs format (unit mm)*
G04 Created by KiCad (PCBNEW (6.0.10)) date 2023-03-15 17:39:42*
%MOMM*%
%LPD*%
G01*
G04 APERTURE LIST*
G04 Aperture macros list*
%AMRoundRect*
0 Rectangle with rounded corners*
0 $1 Rounding radius*
0 $2 $3 $4 $5 $6 $7 $8 $9 X,Y pos of 4 corners*
0 Add a 4 corners polygon primitive as box body*
4,1,4,$2,$3,$4,$5,$6,$7,$8,$9,$2,$3,0*
0 Add four circle primitives for the rounded corners*
1,1,$1+$1,$2,$3*
1,1,$1+$1,$4,$5*
1,1,$1+$1,$6,$7*
1,1,$1+$1,$8,$9*
0 Add four rect primitives between the rounded corners*
20,1,$1+$1,$2,$3,$4,$5,0*
20,1,$1+$1,$4,$5,$6,$7,0*
20,1,$1+$1,$6,$7,$8,$9,0*
20,1,$1+$1,$8,$9,$2,$3,0*%
G04 Aperture macros list end*
%ADD10RoundRect,0.250000X0.375000X0.625000X-0.375000X0.625000X-0.375000X-0.625000X0.375000X-0.625000X0*%
%ADD11RoundRect,0.250000X-0.262500X-0.450000X0.262500X-0.450000X0.262500X0.450000X-0.262500X0.450000X0*%
%ADD12RoundRect,0.250000X0.412500X0.650000X-0.412500X0.650000X-0.412500X-0.650000X0.412500X-0.650000X0*%
%ADD13RoundRect,0.250000X0.262500X0.450000X-0.262500X0.450000X-0.262500X-0.450000X0.262500X-0.450000X0*%
%ADD14RoundRect,0.250000X0.450000X-0.262500X0.450000X0.262500X-0.450000X0.262500X-0.450000X-0.262500X0*%
%ADD15RoundRect,0.150000X-0.587500X-0.150000X0.587500X-0.150000X0.587500X0.150000X-0.587500X0.150000X0*%
%ADD16R,0.600000X0.450000*%
%ADD17RoundRect,0.250000X0.650000X-0.412500X0.650000X0.412500X-0.650000X0.412500X-0.650000X-0.412500X0*%
%ADD18R,1.800000X2.500000*%
%ADD19R,3.050000X2.750000*%
%ADD20R,2.200000X1.200000*%
%ADD21R,1.500000X1.500000*%
G04 APERTURE END LIST*
D10*
%TO.C,F1*%
X105032000Y-57912000D03*
X102232000Y-57912000D03*
%TD*%
D11*
%TO.C,R13*%
X138637000Y-72644000D03*
X140462000Y-72644000D03*
%TD*%
D12*
%TO.C,C2*%
X94950000Y-87000000D03*
X91825000Y-87000000D03*
%TD*%
D11*
%TO.C,R26*%
X113291500Y-90254700D03*
X115116500Y-90254700D03*
%TD*%
D13*
%TO.C,R12*%
X142193000Y-67183000D03*
X144018000Y-67183000D03*
%TD*%
%TO.C,R7*%
X118545500Y-61468000D03*
X116720500Y-61468000D03*
%TD*%
D11*
%TO.C,R30*%
X115116500Y-104648000D03*
X113291500Y-104648000D03*
%TD*%
%TO.C,R17*%
X138637000Y-89027000D03*
X140462000Y-89027000D03*
%TD*%
D14*
%TO.C,R35*%
X118600000Y-58443500D03*
X118600000Y-56618500D03*
%TD*%
D11*
%TO.C,R25*%
X113291500Y-97451300D03*
X115116500Y-97451300D03*
%TD*%
D15*
%TO.C,Q1*%
X147858000Y-76742200D03*
X147858000Y-78642200D03*
X149733000Y-77692200D03*
%TD*%
D13*
%TO.C,R11*%
X142193000Y-61722000D03*
X144018000Y-61722000D03*
%TD*%
D16*
%TO.C,D3*%
X103850000Y-86600000D03*
X105950000Y-86600000D03*
%TD*%
D17*
%TO.C,C1*%
X102200000Y-67362500D03*
X102200000Y-64237500D03*
%TD*%
D15*
%TO.C,Q17*%
X105662500Y-63050000D03*
X105662500Y-64950000D03*
X107537500Y-64000000D03*
%TD*%
D11*
%TO.C,R14*%
X138637000Y-83566000D03*
X140462000Y-83566000D03*
%TD*%
D13*
%TO.C,R37*%
X91862500Y-76200000D03*
X90037500Y-76200000D03*
%TD*%
%TO.C,R36*%
X95262500Y-76200000D03*
X93437500Y-76200000D03*
%TD*%
D11*
%TO.C,R29*%
X113291500Y-83195500D03*
X115116500Y-83195500D03*
%TD*%
D15*
%TO.C,Q15*%
X121950000Y-81120000D03*
X121950000Y-83020000D03*
X123825000Y-82070000D03*
%TD*%
D16*
%TO.C,D5*%
X100200000Y-86800000D03*
X98100000Y-86800000D03*
%TD*%
D13*
%TO.C,R8*%
X118618000Y-75861300D03*
X116793000Y-75861300D03*
%TD*%
D15*
%TO.C,Q16*%
X121950000Y-103599000D03*
X121950000Y-105499000D03*
X123825000Y-104549000D03*
%TD*%
%TO.C,Q3*%
X121950000Y-58641000D03*
X121950000Y-60541000D03*
X123825000Y-59591000D03*
%TD*%
%TO.C,Q9*%
X147858000Y-87727700D03*
X147858000Y-89627700D03*
X149733000Y-88677700D03*
%TD*%
%TO.C,Q13*%
X121950000Y-96106000D03*
X121950000Y-98006000D03*
X123825000Y-97056000D03*
%TD*%
D13*
%TO.C,R20*%
X142193000Y-94488000D03*
X144018000Y-94488000D03*
%TD*%
D11*
%TO.C,R10*%
X138637000Y-67183000D03*
X140462000Y-67183000D03*
%TD*%
D13*
%TO.C,R16*%
X142193000Y-83566000D03*
X144018000Y-83566000D03*
%TD*%
D14*
%TO.C,R33*%
X109600000Y-58467000D03*
X109600000Y-56642000D03*
%TD*%
D15*
%TO.C,Q12*%
X147858000Y-104206000D03*
X147858000Y-106106000D03*
X149733000Y-105156000D03*
%TD*%
D13*
%TO.C,R28*%
X118872000Y-90254700D03*
X117047000Y-90254700D03*
%TD*%
D15*
%TO.C,Q6*%
X147858000Y-65756700D03*
X147858000Y-67656700D03*
X149733000Y-66706700D03*
%TD*%
%TO.C,Q4*%
X121950000Y-73627000D03*
X121950000Y-75527000D03*
X123825000Y-74577000D03*
%TD*%
D11*
%TO.C,R18*%
X138637000Y-94488000D03*
X140462000Y-94488000D03*
%TD*%
D18*
%TO.C,D4*%
X106000000Y-96800000D03*
X106000000Y-100800000D03*
%TD*%
D15*
%TO.C,Q5*%
X147858000Y-60264000D03*
X147858000Y-62164000D03*
X149733000Y-61214000D03*
%TD*%
D11*
%TO.C,R6*%
X113291500Y-75861300D03*
X115116500Y-75861300D03*
%TD*%
D10*
%TO.C,D2*%
X107600000Y-53000000D03*
X104800000Y-53000000D03*
%TD*%
D13*
%TO.C,R31*%
X118872000Y-83195500D03*
X117047000Y-83195500D03*
%TD*%
D15*
%TO.C,Q10*%
X147858000Y-93220500D03*
X147858000Y-95120500D03*
X149733000Y-94170500D03*
%TD*%
D13*
%TO.C,R15*%
X142193000Y-72644000D03*
X144018000Y-72644000D03*
%TD*%
%TO.C,R4*%
X118578500Y-68893800D03*
X116753500Y-68893800D03*
%TD*%
D10*
%TO.C,D1*%
X100400000Y-53000000D03*
X97600000Y-53000000D03*
%TD*%
D19*
%TO.C,U2*%
X102600000Y-79000000D03*
X105950000Y-79000000D03*
X102600000Y-82050000D03*
X105950000Y-82050000D03*
D20*
X97975000Y-78245000D03*
X97975000Y-82805000D03*
%TD*%
D13*
%TO.C,R23*%
X142193000Y-99949000D03*
X144018000Y-99949000D03*
%TD*%
D17*
%TO.C,C3*%
X92750000Y-83000000D03*
X92750000Y-79875000D03*
%TD*%
D15*
%TO.C,Q8*%
X147858000Y-82235000D03*
X147858000Y-84135000D03*
X149733000Y-83185000D03*
%TD*%
D11*
%TO.C,R2*%
X113291500Y-68893800D03*
X115116500Y-68893800D03*
%TD*%
%TO.C,R5*%
X113291500Y-61468000D03*
X115116500Y-61468000D03*
%TD*%
D13*
%TO.C,R19*%
X142193000Y-89027000D03*
X144018000Y-89027000D03*
%TD*%
D21*
%TO.C,SW1*%
X134100000Y-53800000D03*
X141900000Y-53800000D03*
%TD*%
D15*
%TO.C,Q11*%
X147858000Y-98713200D03*
X147858000Y-100613200D03*
X149733000Y-99663200D03*
%TD*%
%TO.C,Q7*%
X147858000Y-71249500D03*
X147858000Y-73149500D03*
X149733000Y-72199500D03*
%TD*%
%TO.C,Q2*%
X121950000Y-66134000D03*
X121950000Y-68034000D03*
X123825000Y-67084000D03*
%TD*%
D14*
%TO.C,R34*%
X114200000Y-58467000D03*
X114200000Y-56642000D03*
%TD*%
D13*
%TO.C,R27*%
X118665000Y-97451300D03*
X116840000Y-97451300D03*
%TD*%
%TO.C,R32*%
X118594500Y-104648000D03*
X116769500Y-104648000D03*
%TD*%
D11*
%TO.C,R22*%
X138637000Y-105410000D03*
X140462000Y-105410000D03*
%TD*%
D15*
%TO.C,Q14*%
X121950000Y-88613000D03*
X121950000Y-90513000D03*
X123825000Y-89563000D03*
%TD*%
D13*
%TO.C,R24*%
X142193000Y-105410000D03*
X144018000Y-105410000D03*
%TD*%
D11*
%TO.C,R1*%
X138637000Y-78105000D03*
X140462000Y-78105000D03*
%TD*%
D13*
%TO.C,R3*%
X142193000Y-78105000D03*
X144018000Y-78105000D03*
%TD*%
D11*
%TO.C,R21*%
X138637000Y-99949000D03*
X140462000Y-99949000D03*
%TD*%
%TO.C,R9*%
X138533500Y-61722000D03*
X140358500Y-61722000D03*
%TD*%
M02*
