%TF.GenerationSoftware,KiCad,Pcbnew,(6.0.10)*%
%TF.CreationDate,2023-03-15T17:39:42-04:00*%
%TF.ProjectId,pwm_pcb,70776d5f-7063-4622-9e6b-696361645f70,rev?*%
%TF.SameCoordinates,Original*%
%TF.FileFunction,Legend,Bot*%
%TF.FilePolarity,Positive*%
%FSLAX46Y46*%
G04 Gerber Fmt 4.6, Leading zero omitted, Abs format (unit mm)*
G04 Created by KiCad (PCBNEW (6.0.10)) date 2023-03-15 17:39:42*
%MOMM*%
%LPD*%
G01*
G04 APERTURE LIST*
G04 Aperture macros list*
%AMRoundRect*
0 Rectangle with rounded corners*
0 $1 Rounding radius*
0 $2 $3 $4 $5 $6 $7 $8 $9 X,Y pos of 4 corners*
0 Add a 4 corners polygon primitive as box body*
4,1,4,$2,$3,$4,$5,$6,$7,$8,$9,$2,$3,0*
0 Add four circle primitives for the rounded corners*
1,1,$1+$1,$2,$3*
1,1,$1+$1,$4,$5*
1,1,$1+$1,$6,$7*
1,1,$1+$1,$8,$9*
0 Add four rect primitives between the rounded corners*
20,1,$1+$1,$2,$3,$4,$5,0*
20,1,$1+$1,$4,$5,$6,$7,0*
20,1,$1+$1,$6,$7,$8,$9,0*
20,1,$1+$1,$8,$9,$2,$3,0*%
G04 Aperture macros list end*
%ADD10C,0.187500*%
%ADD11C,0.300000*%
%ADD12C,0.150000*%
%ADD13C,0.120000*%
%ADD14C,1.000000*%
%ADD15C,0.800000*%
%ADD16C,0.250000*%
%ADD17C,3.200000*%
%ADD18R,1.700000X1.700000*%
%ADD19O,1.700000X1.700000*%
%ADD20O,3.600000X2.080000*%
%ADD21RoundRect,0.249999X1.550001X-0.790001X1.550001X0.790001X-1.550001X0.790001X-1.550001X-0.790001X0*%
%ADD22R,1.524000X1.524000*%
%ADD23C,1.524000*%
G04 APERTURE END LIST*
D10*
X149047380Y-61289732D02*
X149047380Y-60718303D01*
X149047380Y-61004017D02*
X148047380Y-61129017D01*
X148190238Y-61015922D01*
X148285476Y-60908779D01*
X148333095Y-60807589D01*
X148047380Y-62271875D02*
X148047380Y-62081398D01*
X148095000Y-61980208D01*
X148142619Y-61926636D01*
X148285476Y-61813541D01*
X148475952Y-61742113D01*
X148856904Y-61694494D01*
X148952142Y-61730208D01*
X148999761Y-61771875D01*
X149047380Y-61861160D01*
X149047380Y-62051636D01*
X148999761Y-62152827D01*
X148952142Y-62206398D01*
X148856904Y-62265922D01*
X148618809Y-62295684D01*
X148523571Y-62259970D01*
X148475952Y-62218303D01*
X148428333Y-62129017D01*
X148428333Y-61938541D01*
X148475952Y-61837351D01*
X148523571Y-61783779D01*
X148618809Y-61724255D01*
X148999761Y-63867113D02*
X149047380Y-63765922D01*
X149047380Y-63575446D01*
X148999761Y-63486160D01*
X148952142Y-63444494D01*
X148856904Y-63408779D01*
X148571190Y-63444494D01*
X148475952Y-63504017D01*
X148428333Y-63557589D01*
X148380714Y-63658779D01*
X148380714Y-63849255D01*
X148428333Y-63938541D01*
X149047380Y-64289732D02*
X148047380Y-64414732D01*
X149047380Y-64718303D02*
X148523571Y-64783779D01*
X148428333Y-64748065D01*
X148380714Y-64658779D01*
X148380714Y-64515922D01*
X148428333Y-64414732D01*
X148475952Y-64361160D01*
X149047380Y-65623065D02*
X148523571Y-65688541D01*
X148428333Y-65652827D01*
X148380714Y-65563541D01*
X148380714Y-65373065D01*
X148428333Y-65271875D01*
X148999761Y-65629017D02*
X149047380Y-65527827D01*
X149047380Y-65289732D01*
X148999761Y-65200446D01*
X148904523Y-65164732D01*
X148809285Y-65176636D01*
X148714047Y-65236160D01*
X148666428Y-65337351D01*
X148666428Y-65575446D01*
X148618809Y-65676636D01*
X148380714Y-66182589D02*
X149047380Y-66099255D01*
X148475952Y-66170684D02*
X148428333Y-66224255D01*
X148380714Y-66325446D01*
X148380714Y-66468303D01*
X148428333Y-66557589D01*
X148523571Y-66593303D01*
X149047380Y-66527827D01*
X148380714Y-67087351D02*
X149047380Y-67004017D01*
X148475952Y-67075446D02*
X148428333Y-67129017D01*
X148380714Y-67230208D01*
X148380714Y-67373065D01*
X148428333Y-67462351D01*
X148523571Y-67498065D01*
X149047380Y-67432589D01*
X148999761Y-68295684D02*
X149047380Y-68194494D01*
X149047380Y-68004017D01*
X148999761Y-67914732D01*
X148904523Y-67879017D01*
X148523571Y-67926636D01*
X148428333Y-67986160D01*
X148380714Y-68087351D01*
X148380714Y-68277827D01*
X148428333Y-68367113D01*
X148523571Y-68402827D01*
X148618809Y-68390922D01*
X148714047Y-67902827D01*
X149047380Y-68908779D02*
X148999761Y-68819494D01*
X148904523Y-68783779D01*
X148047380Y-68890922D01*
X149047380Y-70527827D02*
X149047380Y-70051636D01*
X148047380Y-70176636D01*
X148523571Y-70926636D02*
X148523571Y-71259970D01*
X149047380Y-71337351D02*
X149047380Y-70861160D01*
X148047380Y-70986160D01*
X148047380Y-71462351D01*
X149047380Y-71765922D02*
X148047380Y-71890922D01*
X148047380Y-72129017D01*
X148095000Y-72265922D01*
X148190238Y-72349255D01*
X148285476Y-72384970D01*
X148475952Y-72408779D01*
X148618809Y-72390922D01*
X148809285Y-72319494D01*
X148904523Y-72259970D01*
X148999761Y-72152827D01*
X149047380Y-72004017D01*
X149047380Y-71765922D01*
X149047380Y-73956398D02*
X148047380Y-74081398D01*
X148999761Y-73962351D02*
X149047380Y-73861160D01*
X149047380Y-73670684D01*
X148999761Y-73581398D01*
X148952142Y-73539732D01*
X148856904Y-73504017D01*
X148571190Y-73539732D01*
X148475952Y-73599255D01*
X148428333Y-73652827D01*
X148380714Y-73754017D01*
X148380714Y-73944494D01*
X148428333Y-74033779D01*
X149047380Y-74432589D02*
X148380714Y-74515922D01*
X148047380Y-74557589D02*
X148095000Y-74504017D01*
X148142619Y-74545684D01*
X148095000Y-74599255D01*
X148047380Y-74557589D01*
X148142619Y-74545684D01*
X149047380Y-74908779D02*
X148380714Y-74992113D01*
X148475952Y-74980208D02*
X148428333Y-75033779D01*
X148380714Y-75134970D01*
X148380714Y-75277827D01*
X148428333Y-75367113D01*
X148523571Y-75402827D01*
X149047380Y-75337351D01*
X148523571Y-75402827D02*
X148428333Y-75462351D01*
X148380714Y-75563541D01*
X148380714Y-75706398D01*
X148428333Y-75795684D01*
X148523571Y-75831398D01*
X149047380Y-75765922D01*
X149047380Y-76242113D02*
X148380714Y-76325446D01*
X148475952Y-76313541D02*
X148428333Y-76367113D01*
X148380714Y-76468303D01*
X148380714Y-76611160D01*
X148428333Y-76700446D01*
X148523571Y-76736160D01*
X149047380Y-76670684D01*
X148523571Y-76736160D02*
X148428333Y-76795684D01*
X148380714Y-76896875D01*
X148380714Y-77039732D01*
X148428333Y-77129017D01*
X148523571Y-77164732D01*
X149047380Y-77099255D01*
X149047380Y-77575446D02*
X148380714Y-77658779D01*
X148047380Y-77700446D02*
X148095000Y-77646875D01*
X148142619Y-77688541D01*
X148095000Y-77742113D01*
X148047380Y-77700446D01*
X148142619Y-77688541D01*
X148380714Y-78134970D02*
X149047380Y-78051636D01*
X148475952Y-78123065D02*
X148428333Y-78176636D01*
X148380714Y-78277827D01*
X148380714Y-78420684D01*
X148428333Y-78509970D01*
X148523571Y-78545684D01*
X149047380Y-78480208D01*
X148380714Y-79468303D02*
X149190238Y-79367113D01*
X149285476Y-79307589D01*
X149333095Y-79254017D01*
X149380714Y-79152827D01*
X149380714Y-79009970D01*
X149333095Y-78920684D01*
X148999761Y-79390922D02*
X149047380Y-79289732D01*
X149047380Y-79099255D01*
X148999761Y-79009970D01*
X148952142Y-78968303D01*
X148856904Y-78932589D01*
X148571190Y-78968303D01*
X148475952Y-79027827D01*
X148428333Y-79081398D01*
X148380714Y-79182589D01*
X148380714Y-79373065D01*
X148428333Y-79462351D01*
X149047380Y-80623065D02*
X148047380Y-80748065D01*
X148428333Y-80700446D02*
X148380714Y-80801636D01*
X148380714Y-80992113D01*
X148428333Y-81081398D01*
X148475952Y-81123065D01*
X148571190Y-81158779D01*
X148856904Y-81123065D01*
X148952142Y-81063541D01*
X148999761Y-81009970D01*
X149047380Y-80908779D01*
X149047380Y-80718303D01*
X148999761Y-80629017D01*
X149047380Y-81670684D02*
X148999761Y-81581398D01*
X148952142Y-81539732D01*
X148856904Y-81504017D01*
X148571190Y-81539732D01*
X148475952Y-81599255D01*
X148428333Y-81652827D01*
X148380714Y-81754017D01*
X148380714Y-81896875D01*
X148428333Y-81986160D01*
X148475952Y-82027827D01*
X148571190Y-82063541D01*
X148856904Y-82027827D01*
X148952142Y-81968303D01*
X148999761Y-81914732D01*
X149047380Y-81813541D01*
X149047380Y-81670684D01*
X149047380Y-82861160D02*
X148523571Y-82926636D01*
X148428333Y-82890922D01*
X148380714Y-82801636D01*
X148380714Y-82611160D01*
X148428333Y-82509970D01*
X148999761Y-82867113D02*
X149047380Y-82765922D01*
X149047380Y-82527827D01*
X148999761Y-82438541D01*
X148904523Y-82402827D01*
X148809285Y-82414732D01*
X148714047Y-82474255D01*
X148666428Y-82575446D01*
X148666428Y-82813541D01*
X148618809Y-82914732D01*
X149047380Y-83337351D02*
X148380714Y-83420684D01*
X148571190Y-83396875D02*
X148475952Y-83456398D01*
X148428333Y-83509970D01*
X148380714Y-83611160D01*
X148380714Y-83706398D01*
X149047380Y-84384970D02*
X148047380Y-84509970D01*
X148999761Y-84390922D02*
X149047380Y-84289732D01*
X149047380Y-84099255D01*
X148999761Y-84009970D01*
X148952142Y-83968303D01*
X148856904Y-83932589D01*
X148571190Y-83968303D01*
X148475952Y-84027827D01*
X148428333Y-84081398D01*
X148380714Y-84182589D01*
X148380714Y-84373065D01*
X148428333Y-84462351D01*
X149990714Y-61277827D02*
X150657380Y-61194494D01*
X149990714Y-60849255D02*
X150514523Y-60783779D01*
X150609761Y-60819494D01*
X150657380Y-60908779D01*
X150657380Y-61051636D01*
X150609761Y-61152827D01*
X150562142Y-61206398D01*
X150609761Y-61629017D02*
X150657380Y-61718303D01*
X150657380Y-61908779D01*
X150609761Y-62009970D01*
X150514523Y-62069494D01*
X150466904Y-62075446D01*
X150371666Y-62039732D01*
X150324047Y-61950446D01*
X150324047Y-61807589D01*
X150276428Y-61718303D01*
X150181190Y-61682589D01*
X150133571Y-61688541D01*
X150038333Y-61748065D01*
X149990714Y-61849255D01*
X149990714Y-61992113D01*
X150038333Y-62081398D01*
X150657380Y-62480208D02*
X149990714Y-62563541D01*
X149657380Y-62605208D02*
X149705000Y-62551636D01*
X149752619Y-62593303D01*
X149705000Y-62646875D01*
X149657380Y-62605208D01*
X149752619Y-62593303D01*
X149990714Y-63039732D02*
X150657380Y-62956398D01*
X150085952Y-63027827D02*
X150038333Y-63081398D01*
X149990714Y-63182589D01*
X149990714Y-63325446D01*
X150038333Y-63414732D01*
X150133571Y-63450446D01*
X150657380Y-63384970D01*
X149990714Y-64373065D02*
X150800238Y-64271875D01*
X150895476Y-64212351D01*
X150943095Y-64158779D01*
X150990714Y-64057589D01*
X150990714Y-63914732D01*
X150943095Y-63825446D01*
X150609761Y-64295684D02*
X150657380Y-64194494D01*
X150657380Y-64004017D01*
X150609761Y-63914732D01*
X150562142Y-63873065D01*
X150466904Y-63837351D01*
X150181190Y-63873065D01*
X150085952Y-63932589D01*
X150038333Y-63986160D01*
X149990714Y-64087351D01*
X149990714Y-64277827D01*
X150038333Y-64367113D01*
X150133571Y-65593303D02*
X150133571Y-65926636D01*
X150657380Y-66004017D02*
X150657380Y-65527827D01*
X149657380Y-65652827D01*
X149657380Y-66129017D01*
X150609761Y-66390922D02*
X150657380Y-66527827D01*
X150657380Y-66765922D01*
X150609761Y-66867113D01*
X150562142Y-66920684D01*
X150466904Y-66980208D01*
X150371666Y-66992113D01*
X150276428Y-66956398D01*
X150228809Y-66914732D01*
X150181190Y-66825446D01*
X150133571Y-66640922D01*
X150085952Y-66551636D01*
X150038333Y-66509970D01*
X149943095Y-66474255D01*
X149847857Y-66486160D01*
X149752619Y-66545684D01*
X149705000Y-66599255D01*
X149657380Y-66700446D01*
X149657380Y-66938541D01*
X149705000Y-67075446D01*
X150657380Y-67384970D02*
X149657380Y-67509970D01*
X149657380Y-67890922D01*
X149705000Y-67980208D01*
X149752619Y-68021875D01*
X149847857Y-68057589D01*
X149990714Y-68039732D01*
X150085952Y-67980208D01*
X150133571Y-67926636D01*
X150181190Y-67825446D01*
X150181190Y-67444494D01*
X149657380Y-68414732D02*
X149657380Y-69033779D01*
X150038333Y-68652827D01*
X150038333Y-68795684D01*
X150085952Y-68884970D01*
X150133571Y-68926636D01*
X150228809Y-68962351D01*
X150466904Y-68932589D01*
X150562142Y-68873065D01*
X150609761Y-68819494D01*
X150657380Y-68718303D01*
X150657380Y-68432589D01*
X150609761Y-68343303D01*
X150562142Y-68301636D01*
X149752619Y-69402827D02*
X149705000Y-69456398D01*
X149657380Y-69557589D01*
X149657380Y-69795684D01*
X149705000Y-69884970D01*
X149752619Y-69926636D01*
X149847857Y-69962351D01*
X149943095Y-69950446D01*
X150085952Y-69884970D01*
X150657380Y-69242113D01*
X150657380Y-69861160D01*
D11*
X130228571Y-61170714D02*
X129228571Y-61170714D01*
X128800000Y-62742142D02*
X130228571Y-62742142D01*
X130228571Y-59742142D01*
X128800000Y-59742142D01*
X127657142Y-62599285D02*
X127228571Y-62742142D01*
X126514285Y-62742142D01*
X126228571Y-62599285D01*
X126085714Y-62456428D01*
X125942857Y-62170714D01*
X125942857Y-61885000D01*
X126085714Y-61599285D01*
X126228571Y-61456428D01*
X126514285Y-61313571D01*
X127085714Y-61170714D01*
X127371428Y-61027857D01*
X127514285Y-60885000D01*
X127657142Y-60599285D01*
X127657142Y-60313571D01*
X127514285Y-60027857D01*
X127371428Y-59885000D01*
X127085714Y-59742142D01*
X126371428Y-59742142D01*
X125942857Y-59885000D01*
X124657142Y-62742142D02*
X124657142Y-59742142D01*
X123514285Y-59742142D01*
X123228571Y-59885000D01*
X123085714Y-60027857D01*
X122942857Y-60313571D01*
X122942857Y-60742142D01*
X123085714Y-61027857D01*
X123228571Y-61170714D01*
X123514285Y-61313571D01*
X124657142Y-61313571D01*
X121942857Y-59742142D02*
X120085714Y-59742142D01*
X121085714Y-60885000D01*
X120657142Y-60885000D01*
X120371428Y-61027857D01*
X120228571Y-61170714D01*
X120085714Y-61456428D01*
X120085714Y-62170714D01*
X120228571Y-62456428D01*
X120371428Y-62599285D01*
X120657142Y-62742142D01*
X121514285Y-62742142D01*
X121800000Y-62599285D01*
X121942857Y-62456428D01*
X118942857Y-60027857D02*
X118800000Y-59885000D01*
X118514285Y-59742142D01*
X117800000Y-59742142D01*
X117514285Y-59885000D01*
X117371428Y-60027857D01*
X117228571Y-60313571D01*
X117228571Y-60599285D01*
X117371428Y-61027857D01*
X119085714Y-62742142D01*
X117228571Y-62742142D01*
X134514285Y-67572142D02*
X134514285Y-64572142D01*
X133800000Y-64572142D01*
X133371428Y-64715000D01*
X133085714Y-65000714D01*
X132942857Y-65286428D01*
X132800000Y-65857857D01*
X132800000Y-66286428D01*
X132942857Y-66857857D01*
X133085714Y-67143571D01*
X133371428Y-67429285D01*
X133800000Y-67572142D01*
X134514285Y-67572142D01*
X130371428Y-67429285D02*
X130657142Y-67572142D01*
X131228571Y-67572142D01*
X131514285Y-67429285D01*
X131657142Y-67143571D01*
X131657142Y-66000714D01*
X131514285Y-65715000D01*
X131228571Y-65572142D01*
X130657142Y-65572142D01*
X130371428Y-65715000D01*
X130228571Y-66000714D01*
X130228571Y-66286428D01*
X131657142Y-66572142D01*
X129228571Y-65572142D02*
X128514285Y-67572142D01*
X127800000Y-65572142D01*
X124371428Y-67572142D02*
X124371428Y-64572142D01*
X124371428Y-65715000D02*
X124085714Y-65572142D01*
X123514285Y-65572142D01*
X123228571Y-65715000D01*
X123085714Y-65857857D01*
X122942857Y-66143571D01*
X122942857Y-67000714D01*
X123085714Y-67286428D01*
X123228571Y-67429285D01*
X123514285Y-67572142D01*
X124085714Y-67572142D01*
X124371428Y-67429285D01*
X121228571Y-67572142D02*
X121514285Y-67429285D01*
X121657142Y-67286428D01*
X121800000Y-67000714D01*
X121800000Y-66143571D01*
X121657142Y-65857857D01*
X121514285Y-65715000D01*
X121228571Y-65572142D01*
X120800000Y-65572142D01*
X120514285Y-65715000D01*
X120371428Y-65857857D01*
X120228571Y-66143571D01*
X120228571Y-67000714D01*
X120371428Y-67286428D01*
X120514285Y-67429285D01*
X120800000Y-67572142D01*
X121228571Y-67572142D01*
X117657142Y-67572142D02*
X117657142Y-66000714D01*
X117800000Y-65715000D01*
X118085714Y-65572142D01*
X118657142Y-65572142D01*
X118942857Y-65715000D01*
X117657142Y-67429285D02*
X117942857Y-67572142D01*
X118657142Y-67572142D01*
X118942857Y-67429285D01*
X119085714Y-67143571D01*
X119085714Y-66857857D01*
X118942857Y-66572142D01*
X118657142Y-66429285D01*
X117942857Y-66429285D01*
X117657142Y-66286428D01*
X116228571Y-67572142D02*
X116228571Y-65572142D01*
X116228571Y-66143571D02*
X116085714Y-65857857D01*
X115942857Y-65715000D01*
X115657142Y-65572142D01*
X115371428Y-65572142D01*
X113085714Y-67572142D02*
X113085714Y-64572142D01*
X113085714Y-67429285D02*
X113371428Y-67572142D01*
X113942857Y-67572142D01*
X114228571Y-67429285D01*
X114371428Y-67286428D01*
X114514285Y-67000714D01*
X114514285Y-66143571D01*
X114371428Y-65857857D01*
X114228571Y-65715000D01*
X113942857Y-65572142D01*
X113371428Y-65572142D01*
X113085714Y-65715000D01*
D12*
X96421428Y-89935714D02*
X96421428Y-90650000D01*
X95707142Y-90721428D01*
X95778571Y-90650000D01*
X95850000Y-90507142D01*
X95850000Y-90150000D01*
X95778571Y-90007142D01*
X95707142Y-89935714D01*
X95564285Y-89864285D01*
X95207142Y-89864285D01*
X95064285Y-89935714D01*
X94992857Y-90007142D01*
X94921428Y-90150000D01*
X94921428Y-90507142D01*
X94992857Y-90650000D01*
X95064285Y-90721428D01*
X95921428Y-89364285D02*
X94921428Y-89007142D01*
X95921428Y-88650000D01*
X96421428Y-86650000D02*
X96421428Y-86364285D01*
X96350000Y-86221428D01*
X96207142Y-86078571D01*
X95921428Y-86007142D01*
X95421428Y-86007142D01*
X95135714Y-86078571D01*
X94992857Y-86221428D01*
X94921428Y-86364285D01*
X94921428Y-86650000D01*
X94992857Y-86792857D01*
X95135714Y-86935714D01*
X95421428Y-87007142D01*
X95921428Y-87007142D01*
X96207142Y-86935714D01*
X96350000Y-86792857D01*
X96421428Y-86650000D01*
X94921428Y-84507142D02*
X95635714Y-85007142D01*
X94921428Y-85364285D02*
X96421428Y-85364285D01*
X96421428Y-84792857D01*
X96350000Y-84650000D01*
X96278571Y-84578571D01*
X96135714Y-84507142D01*
X95921428Y-84507142D01*
X95778571Y-84578571D01*
X95707142Y-84650000D01*
X95635714Y-84792857D01*
X95635714Y-85364285D01*
X95778571Y-82507142D02*
X95850000Y-82650000D01*
X95921428Y-82721428D01*
X96064285Y-82792857D01*
X96135714Y-82792857D01*
X96278571Y-82721428D01*
X96350000Y-82650000D01*
X96421428Y-82507142D01*
X96421428Y-82221428D01*
X96350000Y-82078571D01*
X96278571Y-82007142D01*
X96135714Y-81935714D01*
X96064285Y-81935714D01*
X95921428Y-82007142D01*
X95850000Y-82078571D01*
X95778571Y-82221428D01*
X95778571Y-82507142D01*
X95707142Y-82650000D01*
X95635714Y-82721428D01*
X95492857Y-82792857D01*
X95207142Y-82792857D01*
X95064285Y-82721428D01*
X94992857Y-82650000D01*
X94921428Y-82507142D01*
X94921428Y-82221428D01*
X94992857Y-82078571D01*
X95064285Y-82007142D01*
X95207142Y-81935714D01*
X95492857Y-81935714D01*
X95635714Y-82007142D01*
X95707142Y-82078571D01*
X95778571Y-82221428D01*
X95492857Y-81292857D02*
X95492857Y-80150000D01*
X96421428Y-79578571D02*
X96421428Y-78650000D01*
X95850000Y-79150000D01*
X95850000Y-78935714D01*
X95778571Y-78792857D01*
X95707142Y-78721428D01*
X95564285Y-78650000D01*
X95207142Y-78650000D01*
X95064285Y-78721428D01*
X94992857Y-78792857D01*
X94921428Y-78935714D01*
X94921428Y-79364285D01*
X94992857Y-79507142D01*
X95064285Y-79578571D01*
X96421428Y-78150000D02*
X96421428Y-77150000D01*
X94921428Y-77792857D01*
X96421428Y-76792857D02*
X94921428Y-76292857D01*
X96421428Y-75792857D01*
X95064285Y-74150000D02*
X94992857Y-74078571D01*
X94921428Y-74150000D01*
X94992857Y-74221428D01*
X95064285Y-74150000D01*
X94921428Y-74150000D01*
X95492857Y-74150000D02*
X96350000Y-74221428D01*
X96421428Y-74150000D01*
X96350000Y-74078571D01*
X95492857Y-74150000D01*
X96421428Y-74150000D01*
X105505238Y-86819047D02*
X107505238Y-86819047D01*
X107505238Y-86057142D01*
X107410000Y-85866666D01*
X107314761Y-85771428D01*
X107124285Y-85676190D01*
X106838571Y-85676190D01*
X106648095Y-85771428D01*
X106552857Y-85866666D01*
X106457619Y-86057142D01*
X106457619Y-86819047D01*
X107505238Y-84438095D02*
X107505238Y-84057142D01*
X107410000Y-83866666D01*
X107219523Y-83676190D01*
X106838571Y-83580952D01*
X106171904Y-83580952D01*
X105790952Y-83676190D01*
X105600476Y-83866666D01*
X105505238Y-84057142D01*
X105505238Y-84438095D01*
X105600476Y-84628571D01*
X105790952Y-84819047D01*
X106171904Y-84914285D01*
X106838571Y-84914285D01*
X107219523Y-84819047D01*
X107410000Y-84628571D01*
X107505238Y-84438095D01*
X107505238Y-82914285D02*
X105505238Y-82438095D01*
X106933809Y-82057142D01*
X105505238Y-81676190D01*
X107505238Y-81200000D01*
X106552857Y-80438095D02*
X106552857Y-79771428D01*
X105505238Y-79485714D02*
X105505238Y-80438095D01*
X107505238Y-80438095D01*
X107505238Y-79485714D01*
X105505238Y-77485714D02*
X106457619Y-78152380D01*
X105505238Y-78628571D02*
X107505238Y-78628571D01*
X107505238Y-77866666D01*
X107410000Y-77676190D01*
X107314761Y-77580952D01*
X107124285Y-77485714D01*
X106838571Y-77485714D01*
X106648095Y-77580952D01*
X106552857Y-77676190D01*
X106457619Y-77866666D01*
X106457619Y-78628571D01*
X102285238Y-86057142D02*
X104285238Y-86057142D01*
X102285238Y-85104761D02*
X104285238Y-85104761D01*
X102285238Y-83961904D01*
X104285238Y-83961904D01*
X102285238Y-83009523D02*
X104285238Y-83009523D01*
X104285238Y-82247619D01*
X104190000Y-82057142D01*
X104094761Y-81961904D01*
X103904285Y-81866666D01*
X103618571Y-81866666D01*
X103428095Y-81961904D01*
X103332857Y-82057142D01*
X103237619Y-82247619D01*
X103237619Y-83009523D01*
X104285238Y-81009523D02*
X102666190Y-81009523D01*
X102475714Y-80914285D01*
X102380476Y-80819047D01*
X102285238Y-80628571D01*
X102285238Y-80247619D01*
X102380476Y-80057142D01*
X102475714Y-79961904D01*
X102666190Y-79866666D01*
X104285238Y-79866666D01*
X104285238Y-79200000D02*
X104285238Y-78057142D01*
X102285238Y-78628571D02*
X104285238Y-78628571D01*
X108295238Y-71104761D02*
X106295238Y-70438095D01*
X108295238Y-69771428D01*
X107057142Y-69104761D02*
X107057142Y-67580952D01*
X106295238Y-68342857D02*
X107819047Y-68342857D01*
X108200000Y-64123809D02*
X108295238Y-64314285D01*
X108295238Y-64600000D01*
X108200000Y-64885714D01*
X108009523Y-65076190D01*
X107819047Y-65171428D01*
X107438095Y-65266666D01*
X107152380Y-65266666D01*
X106771428Y-65171428D01*
X106580952Y-65076190D01*
X106390476Y-64885714D01*
X106295238Y-64600000D01*
X106295238Y-64409523D01*
X106390476Y-64123809D01*
X106485714Y-64028571D01*
X107152380Y-64028571D01*
X107152380Y-64409523D01*
X106295238Y-63171428D02*
X108295238Y-63171428D01*
X106295238Y-62028571D01*
X108295238Y-62028571D01*
X106295238Y-61076190D02*
X108295238Y-61076190D01*
X108295238Y-60600000D01*
X108200000Y-60314285D01*
X108009523Y-60123809D01*
X107819047Y-60028571D01*
X107438095Y-59933333D01*
X107152380Y-59933333D01*
X106771428Y-60028571D01*
X106580952Y-60123809D01*
X106390476Y-60314285D01*
X106295238Y-60600000D01*
X106295238Y-61076190D01*
X92800000Y-64123809D02*
X92895238Y-64314285D01*
X92895238Y-64600000D01*
X92800000Y-64885714D01*
X92609523Y-65076190D01*
X92419047Y-65171428D01*
X92038095Y-65266666D01*
X91752380Y-65266666D01*
X91371428Y-65171428D01*
X91180952Y-65076190D01*
X90990476Y-64885714D01*
X90895238Y-64600000D01*
X90895238Y-64409523D01*
X90990476Y-64123809D01*
X91085714Y-64028571D01*
X91752380Y-64028571D01*
X91752380Y-64409523D01*
X90895238Y-63171428D02*
X92895238Y-63171428D01*
X90895238Y-62028571D01*
X92895238Y-62028571D01*
X90895238Y-61076190D02*
X92895238Y-61076190D01*
X92895238Y-60600000D01*
X92800000Y-60314285D01*
X92609523Y-60123809D01*
X92419047Y-60028571D01*
X92038095Y-59933333D01*
X91752380Y-59933333D01*
X91371428Y-60028571D01*
X91180952Y-60123809D01*
X90990476Y-60314285D01*
X90895238Y-60600000D01*
X90895238Y-61076190D01*
X92695238Y-70704761D02*
X90695238Y-70038095D01*
X92695238Y-69371428D01*
X91457142Y-68704761D02*
X91457142Y-67180952D01*
X90695238Y-67942857D02*
X92219047Y-67942857D01*
X89919047Y-67695238D02*
X89966666Y-67790476D01*
X90014285Y-67838095D01*
X90109523Y-67885714D01*
X90157142Y-67885714D01*
X90252380Y-67838095D01*
X90300000Y-67790476D01*
X90347619Y-67695238D01*
X90347619Y-67504761D01*
X90300000Y-67409523D01*
X90252380Y-67361904D01*
X90157142Y-67314285D01*
X90109523Y-67314285D01*
X90014285Y-67361904D01*
X89966666Y-67409523D01*
X89919047Y-67504761D01*
X89919047Y-67695238D01*
X89871428Y-67790476D01*
X89823809Y-67838095D01*
X89728571Y-67885714D01*
X89538095Y-67885714D01*
X89442857Y-67838095D01*
X89395238Y-67790476D01*
X89347619Y-67695238D01*
X89347619Y-67504761D01*
X89395238Y-67409523D01*
X89442857Y-67361904D01*
X89538095Y-67314285D01*
X89728571Y-67314285D01*
X89823809Y-67361904D01*
X89871428Y-67409523D01*
X89919047Y-67504761D01*
X89728571Y-66885714D02*
X89728571Y-66123809D01*
X90347619Y-65742857D02*
X90347619Y-65123809D01*
X89966666Y-65457142D01*
X89966666Y-65314285D01*
X89919047Y-65219047D01*
X89871428Y-65171428D01*
X89776190Y-65123809D01*
X89538095Y-65123809D01*
X89442857Y-65171428D01*
X89395238Y-65219047D01*
X89347619Y-65314285D01*
X89347619Y-65600000D01*
X89395238Y-65695238D01*
X89442857Y-65742857D01*
X90347619Y-64790476D02*
X90347619Y-64123809D01*
X89347619Y-64552380D01*
X90347619Y-63885714D02*
X89347619Y-63552380D01*
X90347619Y-63219047D01*
X108010000Y-96771428D02*
X108105238Y-96961904D01*
X108105238Y-97247619D01*
X108010000Y-97533333D01*
X107819523Y-97723809D01*
X107629047Y-97819047D01*
X107248095Y-97914285D01*
X106962380Y-97914285D01*
X106581428Y-97819047D01*
X106390952Y-97723809D01*
X106200476Y-97533333D01*
X106105238Y-97247619D01*
X106105238Y-97057142D01*
X106200476Y-96771428D01*
X106295714Y-96676190D01*
X106962380Y-96676190D01*
X106962380Y-97057142D01*
X106105238Y-95819047D02*
X108105238Y-95819047D01*
X106105238Y-94676190D01*
X108105238Y-94676190D01*
X106105238Y-93723809D02*
X108105238Y-93723809D01*
X108105238Y-93247619D01*
X108010000Y-92961904D01*
X107819523Y-92771428D01*
X107629047Y-92676190D01*
X107248095Y-92580952D01*
X106962380Y-92580952D01*
X106581428Y-92676190D01*
X106390952Y-92771428D01*
X106200476Y-92961904D01*
X106105238Y-93247619D01*
X106105238Y-93723809D01*
X108295238Y-102380952D02*
X108295238Y-103333333D01*
X107342857Y-103428571D01*
X107438095Y-103333333D01*
X107533333Y-103142857D01*
X107533333Y-102666666D01*
X107438095Y-102476190D01*
X107342857Y-102380952D01*
X107152380Y-102285714D01*
X106676190Y-102285714D01*
X106485714Y-102380952D01*
X106390476Y-102476190D01*
X106295238Y-102666666D01*
X106295238Y-103142857D01*
X106390476Y-103333333D01*
X106485714Y-103428571D01*
X108295238Y-101714285D02*
X106295238Y-101047619D01*
X108295238Y-100380952D01*
X93010000Y-96971428D02*
X93105238Y-97161904D01*
X93105238Y-97447619D01*
X93010000Y-97733333D01*
X92819523Y-97923809D01*
X92629047Y-98019047D01*
X92248095Y-98114285D01*
X91962380Y-98114285D01*
X91581428Y-98019047D01*
X91390952Y-97923809D01*
X91200476Y-97733333D01*
X91105238Y-97447619D01*
X91105238Y-97257142D01*
X91200476Y-96971428D01*
X91295714Y-96876190D01*
X91962380Y-96876190D01*
X91962380Y-97257142D01*
X91105238Y-96019047D02*
X93105238Y-96019047D01*
X91105238Y-94876190D01*
X93105238Y-94876190D01*
X91105238Y-93923809D02*
X93105238Y-93923809D01*
X93105238Y-93447619D01*
X93010000Y-93161904D01*
X92819523Y-92971428D01*
X92629047Y-92876190D01*
X92248095Y-92780952D01*
X91962380Y-92780952D01*
X91581428Y-92876190D01*
X91390952Y-92971428D01*
X91200476Y-93161904D01*
X91105238Y-93447619D01*
X91105238Y-93923809D01*
X93095238Y-102580952D02*
X93095238Y-103533333D01*
X92142857Y-103628571D01*
X92238095Y-103533333D01*
X92333333Y-103342857D01*
X92333333Y-102866666D01*
X92238095Y-102676190D01*
X92142857Y-102580952D01*
X91952380Y-102485714D01*
X91476190Y-102485714D01*
X91285714Y-102580952D01*
X91190476Y-102676190D01*
X91095238Y-102866666D01*
X91095238Y-103342857D01*
X91190476Y-103533333D01*
X91285714Y-103628571D01*
X93095238Y-101914285D02*
X91095238Y-101247619D01*
X93095238Y-100580952D01*
X89728571Y-103457142D02*
X89776190Y-103409523D01*
X89823809Y-103314285D01*
X89728571Y-103123809D01*
X89776190Y-103028571D01*
X89823809Y-102980952D01*
X90347619Y-102123809D02*
X90347619Y-102600000D01*
X89871428Y-102647619D01*
X89919047Y-102600000D01*
X89966666Y-102504761D01*
X89966666Y-102266666D01*
X89919047Y-102171428D01*
X89871428Y-102123809D01*
X89776190Y-102076190D01*
X89538095Y-102076190D01*
X89442857Y-102123809D01*
X89395238Y-102171428D01*
X89347619Y-102266666D01*
X89347619Y-102504761D01*
X89395238Y-102600000D01*
X89442857Y-102647619D01*
X90347619Y-101790476D02*
X89347619Y-101457142D01*
X90347619Y-101123809D01*
X90347619Y-99838095D02*
X90347619Y-99647619D01*
X90300000Y-99552380D01*
X90204761Y-99457142D01*
X90014285Y-99409523D01*
X89680952Y-99409523D01*
X89490476Y-99457142D01*
X89395238Y-99552380D01*
X89347619Y-99647619D01*
X89347619Y-99838095D01*
X89395238Y-99933333D01*
X89490476Y-100028571D01*
X89680952Y-100076190D01*
X90014285Y-100076190D01*
X90204761Y-100028571D01*
X90300000Y-99933333D01*
X90347619Y-99838095D01*
X89347619Y-98980952D02*
X90347619Y-98980952D01*
X89347619Y-98409523D01*
X90347619Y-98409523D01*
X89347619Y-97457142D02*
X89347619Y-97933333D01*
X90347619Y-97933333D01*
X89823809Y-96933333D02*
X89347619Y-96933333D01*
X90347619Y-97266666D02*
X89823809Y-96933333D01*
X90347619Y-96600000D01*
X89347619Y-95504761D02*
X90014285Y-95504761D01*
X90347619Y-95504761D02*
X90300000Y-95552380D01*
X90252380Y-95504761D01*
X90300000Y-95457142D01*
X90347619Y-95504761D01*
X90252380Y-95504761D01*
X90014285Y-95028571D02*
X89347619Y-95028571D01*
X89919047Y-95028571D02*
X89966666Y-94980952D01*
X90014285Y-94885714D01*
X90014285Y-94742857D01*
X89966666Y-94647619D01*
X89871428Y-94600000D01*
X89347619Y-94600000D01*
X89728571Y-94266666D02*
X89776190Y-94219047D01*
X89823809Y-94123809D01*
X89728571Y-93933333D01*
X89776190Y-93838095D01*
X89823809Y-93790476D01*
X115790476Y-109252380D02*
X116361904Y-109252380D01*
X116076190Y-109252380D02*
X116076190Y-108252380D01*
X116171428Y-108395238D01*
X116266666Y-108490476D01*
X116361904Y-108538095D01*
X115171428Y-108252380D02*
X115076190Y-108252380D01*
X114980952Y-108300000D01*
X114933333Y-108347619D01*
X114885714Y-108442857D01*
X114838095Y-108633333D01*
X114838095Y-108871428D01*
X114885714Y-109061904D01*
X114933333Y-109157142D01*
X114980952Y-109204761D01*
X115076190Y-109252380D01*
X115171428Y-109252380D01*
X115266666Y-109204761D01*
X115314285Y-109157142D01*
X115361904Y-109061904D01*
X115409523Y-108871428D01*
X115409523Y-108633333D01*
X115361904Y-108442857D01*
X115314285Y-108347619D01*
X115266666Y-108300000D01*
X115171428Y-108252380D01*
X113123809Y-109252380D02*
X113695238Y-109252380D01*
X113409523Y-109252380D02*
X113409523Y-108252380D01*
X113504761Y-108395238D01*
X113600000Y-108490476D01*
X113695238Y-108538095D01*
X112171428Y-109252380D02*
X112742857Y-109252380D01*
X112457142Y-109252380D02*
X112457142Y-108252380D01*
X112552380Y-108395238D01*
X112647619Y-108490476D01*
X112742857Y-108538095D01*
X110457142Y-109252380D02*
X111028571Y-109252380D01*
X110742857Y-109252380D02*
X110742857Y-108252380D01*
X110838095Y-108395238D01*
X110933333Y-108490476D01*
X111028571Y-108538095D01*
X110076190Y-108347619D02*
X110028571Y-108300000D01*
X109933333Y-108252380D01*
X109695238Y-108252380D01*
X109600000Y-108300000D01*
X109552380Y-108347619D01*
X109504761Y-108442857D01*
X109504761Y-108538095D01*
X109552380Y-108680952D01*
X110123809Y-109252380D01*
X109504761Y-109252380D01*
X107790476Y-109252380D02*
X108361904Y-109252380D01*
X108076190Y-109252380D02*
X108076190Y-108252380D01*
X108171428Y-108395238D01*
X108266666Y-108490476D01*
X108361904Y-108538095D01*
X107457142Y-108252380D02*
X106838095Y-108252380D01*
X107171428Y-108633333D01*
X107028571Y-108633333D01*
X106933333Y-108680952D01*
X106885714Y-108728571D01*
X106838095Y-108823809D01*
X106838095Y-109061904D01*
X106885714Y-109157142D01*
X106933333Y-109204761D01*
X107028571Y-109252380D01*
X107314285Y-109252380D01*
X107409523Y-109204761D01*
X107457142Y-109157142D01*
X105123809Y-109252380D02*
X105695238Y-109252380D01*
X105409523Y-109252380D02*
X105409523Y-108252380D01*
X105504761Y-108395238D01*
X105600000Y-108490476D01*
X105695238Y-108538095D01*
X104266666Y-108585714D02*
X104266666Y-109252380D01*
X104504761Y-108204761D02*
X104742857Y-108919047D01*
X104123809Y-108919047D01*
X102457142Y-109252380D02*
X103028571Y-109252380D01*
X102742857Y-109252380D02*
X102742857Y-108252380D01*
X102838095Y-108395238D01*
X102933333Y-108490476D01*
X103028571Y-108538095D01*
X101552380Y-108252380D02*
X102028571Y-108252380D01*
X102076190Y-108728571D01*
X102028571Y-108680952D01*
X101933333Y-108633333D01*
X101695238Y-108633333D01*
X101600000Y-108680952D01*
X101552380Y-108728571D01*
X101504761Y-108823809D01*
X101504761Y-109061904D01*
X101552380Y-109157142D01*
X101600000Y-109204761D01*
X101695238Y-109252380D01*
X101933333Y-109252380D01*
X102028571Y-109204761D01*
X102076190Y-109157142D01*
X99790476Y-109252380D02*
X100361904Y-109252380D01*
X100076190Y-109252380D02*
X100076190Y-108252380D01*
X100171428Y-108395238D01*
X100266666Y-108490476D01*
X100361904Y-108538095D01*
X98933333Y-108252380D02*
X99123809Y-108252380D01*
X99219047Y-108300000D01*
X99266666Y-108347619D01*
X99361904Y-108490476D01*
X99409523Y-108680952D01*
X99409523Y-109061904D01*
X99361904Y-109157142D01*
X99314285Y-109204761D01*
X99219047Y-109252380D01*
X99028571Y-109252380D01*
X98933333Y-109204761D01*
X98885714Y-109157142D01*
X98838095Y-109061904D01*
X98838095Y-108823809D01*
X98885714Y-108728571D01*
X98933333Y-108680952D01*
X99028571Y-108633333D01*
X99219047Y-108633333D01*
X99314285Y-108680952D01*
X99361904Y-108728571D01*
X99409523Y-108823809D01*
X138057142Y-109342857D02*
X138914285Y-109342857D01*
X138485714Y-109342857D02*
X138485714Y-108142857D01*
X138628571Y-108314285D01*
X138771428Y-108428571D01*
X138914285Y-108485714D01*
X136342857Y-108257142D02*
X136271428Y-108200000D01*
X136128571Y-108142857D01*
X135771428Y-108142857D01*
X135628571Y-108200000D01*
X135557142Y-108257142D01*
X135485714Y-108371428D01*
X135485714Y-108485714D01*
X135557142Y-108657142D01*
X136414285Y-109342857D01*
X135485714Y-109342857D01*
X133842857Y-108142857D02*
X132914285Y-108142857D01*
X133414285Y-108600000D01*
X133200000Y-108600000D01*
X133057142Y-108657142D01*
X132985714Y-108714285D01*
X132914285Y-108828571D01*
X132914285Y-109114285D01*
X132985714Y-109228571D01*
X133057142Y-109285714D01*
X133200000Y-109342857D01*
X133628571Y-109342857D01*
X133771428Y-109285714D01*
X133842857Y-109228571D01*
X130485714Y-108542857D02*
X130485714Y-109342857D01*
X130842857Y-108085714D02*
X131200000Y-108942857D01*
X130271428Y-108942857D01*
X127842857Y-108142857D02*
X128557142Y-108142857D01*
X128628571Y-108714285D01*
X128557142Y-108657142D01*
X128414285Y-108600000D01*
X128057142Y-108600000D01*
X127914285Y-108657142D01*
X127842857Y-108714285D01*
X127771428Y-108828571D01*
X127771428Y-109114285D01*
X127842857Y-109228571D01*
X127914285Y-109285714D01*
X128057142Y-109342857D01*
X128414285Y-109342857D01*
X128557142Y-109285714D01*
X128628571Y-109228571D01*
X125342857Y-108142857D02*
X125628571Y-108142857D01*
X125771428Y-108200000D01*
X125842857Y-108257142D01*
X125985714Y-108428571D01*
X126057142Y-108657142D01*
X126057142Y-109114285D01*
X125985714Y-109228571D01*
X125914285Y-109285714D01*
X125771428Y-109342857D01*
X125485714Y-109342857D01*
X125342857Y-109285714D01*
X125271428Y-109228571D01*
X125200000Y-109114285D01*
X125200000Y-108828571D01*
X125271428Y-108714285D01*
X125342857Y-108657142D01*
X125485714Y-108600000D01*
X125771428Y-108600000D01*
X125914285Y-108657142D01*
X125985714Y-108714285D01*
X126057142Y-108828571D01*
X123557142Y-108142857D02*
X122557142Y-108142857D01*
X123200000Y-109342857D01*
X120628571Y-108657142D02*
X120771428Y-108600000D01*
X120842857Y-108542857D01*
X120914285Y-108428571D01*
X120914285Y-108371428D01*
X120842857Y-108257142D01*
X120771428Y-108200000D01*
X120628571Y-108142857D01*
X120342857Y-108142857D01*
X120200000Y-108200000D01*
X120128571Y-108257142D01*
X120057142Y-108371428D01*
X120057142Y-108428571D01*
X120128571Y-108542857D01*
X120200000Y-108600000D01*
X120342857Y-108657142D01*
X120628571Y-108657142D01*
X120771428Y-108714285D01*
X120842857Y-108771428D01*
X120914285Y-108885714D01*
X120914285Y-109114285D01*
X120842857Y-109228571D01*
X120771428Y-109285714D01*
X120628571Y-109342857D01*
X120342857Y-109342857D01*
X120200000Y-109285714D01*
X120128571Y-109228571D01*
X120057142Y-109114285D01*
X120057142Y-108885714D01*
X120128571Y-108771428D01*
X120200000Y-108714285D01*
X120342857Y-108657142D01*
X118200000Y-109342857D02*
X117914285Y-109342857D01*
X117771428Y-109285714D01*
X117700000Y-109228571D01*
X117557142Y-109057142D01*
X117485714Y-108828571D01*
X117485714Y-108371428D01*
X117557142Y-108257142D01*
X117628571Y-108200000D01*
X117771428Y-108142857D01*
X118057142Y-108142857D01*
X118200000Y-108200000D01*
X118271428Y-108257142D01*
X118342857Y-108371428D01*
X118342857Y-108657142D01*
X118271428Y-108771428D01*
X118200000Y-108828571D01*
X118057142Y-108885714D01*
X117771428Y-108885714D01*
X117628571Y-108828571D01*
X117557142Y-108771428D01*
X117485714Y-108657142D01*
X121547619Y-104242380D02*
X122023809Y-104242380D01*
X122023809Y-103242380D01*
X121214285Y-103718571D02*
X120880952Y-103718571D01*
X120738095Y-104242380D02*
X121214285Y-104242380D01*
X121214285Y-103242380D01*
X120738095Y-103242380D01*
X120309523Y-104242380D02*
X120309523Y-103242380D01*
X120071428Y-103242380D01*
X119928571Y-103290000D01*
X119833333Y-103385238D01*
X119785714Y-103480476D01*
X119738095Y-103670952D01*
X119738095Y-103813809D01*
X119785714Y-104004285D01*
X119833333Y-104099523D01*
X119928571Y-104194761D01*
X120071428Y-104242380D01*
X120309523Y-104242380D01*
X118547619Y-104242380D02*
X118547619Y-103575714D01*
X118547619Y-103242380D02*
X118595238Y-103290000D01*
X118547619Y-103337619D01*
X118500000Y-103290000D01*
X118547619Y-103242380D01*
X118547619Y-103337619D01*
X118071428Y-103575714D02*
X118071428Y-104242380D01*
X118071428Y-103670952D02*
X118023809Y-103623333D01*
X117928571Y-103575714D01*
X117785714Y-103575714D01*
X117690476Y-103623333D01*
X117642857Y-103718571D01*
X117642857Y-104242380D01*
X117166666Y-103575714D02*
X117166666Y-104575714D01*
X117166666Y-103623333D02*
X117071428Y-103575714D01*
X116880952Y-103575714D01*
X116785714Y-103623333D01*
X116738095Y-103670952D01*
X116690476Y-103766190D01*
X116690476Y-104051904D01*
X116738095Y-104147142D01*
X116785714Y-104194761D01*
X116880952Y-104242380D01*
X117071428Y-104242380D01*
X117166666Y-104194761D01*
X115833333Y-103575714D02*
X115833333Y-104242380D01*
X116261904Y-103575714D02*
X116261904Y-104099523D01*
X116214285Y-104194761D01*
X116119047Y-104242380D01*
X115976190Y-104242380D01*
X115880952Y-104194761D01*
X115833333Y-104147142D01*
X115500000Y-103575714D02*
X115119047Y-103575714D01*
X115357142Y-103242380D02*
X115357142Y-104099523D01*
X115309523Y-104194761D01*
X115214285Y-104242380D01*
X115119047Y-104242380D01*
X114833333Y-104194761D02*
X114738095Y-104242380D01*
X114547619Y-104242380D01*
X114452380Y-104194761D01*
X114404761Y-104099523D01*
X114404761Y-104051904D01*
X114452380Y-103956666D01*
X114547619Y-103909047D01*
X114690476Y-103909047D01*
X114785714Y-103861428D01*
X114833333Y-103766190D01*
X114833333Y-103718571D01*
X114785714Y-103623333D01*
X114690476Y-103575714D01*
X114547619Y-103575714D01*
X114452380Y-103623333D01*
X113976190Y-104147142D02*
X113928571Y-104194761D01*
X113976190Y-104242380D01*
X114023809Y-104194761D01*
X113976190Y-104147142D01*
X113976190Y-104242380D01*
X113976190Y-103861428D02*
X114023809Y-103290000D01*
X113976190Y-103242380D01*
X113928571Y-103290000D01*
X113976190Y-103861428D01*
X113976190Y-103242380D01*
X130571428Y-105852380D02*
X130571428Y-104852380D01*
X130190476Y-104852380D01*
X130095238Y-104900000D01*
X130047619Y-104947619D01*
X130000000Y-105042857D01*
X130000000Y-105185714D01*
X130047619Y-105280952D01*
X130095238Y-105328571D01*
X130190476Y-105376190D01*
X130571428Y-105376190D01*
X129428571Y-105852380D02*
X129523809Y-105804761D01*
X129571428Y-105709523D01*
X129571428Y-104852380D01*
X128619047Y-105185714D02*
X128619047Y-105852380D01*
X129047619Y-105185714D02*
X129047619Y-105709523D01*
X129000000Y-105804761D01*
X128904761Y-105852380D01*
X128761904Y-105852380D01*
X128666666Y-105804761D01*
X128619047Y-105757142D01*
X127714285Y-105185714D02*
X127714285Y-105995238D01*
X127761904Y-106090476D01*
X127809523Y-106138095D01*
X127904761Y-106185714D01*
X128047619Y-106185714D01*
X128142857Y-106138095D01*
X127714285Y-105804761D02*
X127809523Y-105852380D01*
X128000000Y-105852380D01*
X128095238Y-105804761D01*
X128142857Y-105757142D01*
X128190476Y-105661904D01*
X128190476Y-105376190D01*
X128142857Y-105280952D01*
X128095238Y-105233333D01*
X128000000Y-105185714D01*
X127809523Y-105185714D01*
X127714285Y-105233333D01*
X126476190Y-105852380D02*
X126476190Y-104852380D01*
X125904761Y-105852380D01*
X125904761Y-104852380D01*
X125047619Y-105804761D02*
X125142857Y-105852380D01*
X125333333Y-105852380D01*
X125428571Y-105804761D01*
X125476190Y-105709523D01*
X125476190Y-105328571D01*
X125428571Y-105233333D01*
X125333333Y-105185714D01*
X125142857Y-105185714D01*
X125047619Y-105233333D01*
X125000000Y-105328571D01*
X125000000Y-105423809D01*
X125476190Y-105519047D01*
X124142857Y-105185714D02*
X124142857Y-105995238D01*
X124190476Y-106090476D01*
X124238095Y-106138095D01*
X124333333Y-106185714D01*
X124476190Y-106185714D01*
X124571428Y-106138095D01*
X124142857Y-105804761D02*
X124238095Y-105852380D01*
X124428571Y-105852380D01*
X124523809Y-105804761D01*
X124571428Y-105757142D01*
X124619047Y-105661904D01*
X124619047Y-105376190D01*
X124571428Y-105280952D01*
X124523809Y-105233333D01*
X124428571Y-105185714D01*
X124238095Y-105185714D01*
X124142857Y-105233333D01*
X123238095Y-105852380D02*
X123238095Y-105328571D01*
X123285714Y-105233333D01*
X123380952Y-105185714D01*
X123571428Y-105185714D01*
X123666666Y-105233333D01*
X123238095Y-105804761D02*
X123333333Y-105852380D01*
X123571428Y-105852380D01*
X123666666Y-105804761D01*
X123714285Y-105709523D01*
X123714285Y-105614285D01*
X123666666Y-105519047D01*
X123571428Y-105471428D01*
X123333333Y-105471428D01*
X123238095Y-105423809D01*
X122904761Y-105185714D02*
X122523809Y-105185714D01*
X122761904Y-104852380D02*
X122761904Y-105709523D01*
X122714285Y-105804761D01*
X122619047Y-105852380D01*
X122523809Y-105852380D01*
X122190476Y-105852380D02*
X122190476Y-105185714D01*
X122190476Y-104852380D02*
X122238095Y-104900000D01*
X122190476Y-104947619D01*
X122142857Y-104900000D01*
X122190476Y-104852380D01*
X122190476Y-104947619D01*
X121809523Y-105185714D02*
X121571428Y-105852380D01*
X121333333Y-105185714D01*
X120571428Y-105804761D02*
X120666666Y-105852380D01*
X120857142Y-105852380D01*
X120952380Y-105804761D01*
X121000000Y-105709523D01*
X121000000Y-105328571D01*
X120952380Y-105233333D01*
X120857142Y-105185714D01*
X120666666Y-105185714D01*
X120571428Y-105233333D01*
X120523809Y-105328571D01*
X120523809Y-105423809D01*
X121000000Y-105519047D01*
X119380952Y-105804761D02*
X119285714Y-105852380D01*
X119095238Y-105852380D01*
X119000000Y-105804761D01*
X118952380Y-105709523D01*
X118952380Y-105661904D01*
X119000000Y-105566666D01*
X119095238Y-105519047D01*
X119238095Y-105519047D01*
X119333333Y-105471428D01*
X119380952Y-105376190D01*
X119380952Y-105328571D01*
X119333333Y-105233333D01*
X119238095Y-105185714D01*
X119095238Y-105185714D01*
X119000000Y-105233333D01*
X118523809Y-105852380D02*
X118523809Y-105185714D01*
X118523809Y-104852380D02*
X118571428Y-104900000D01*
X118523809Y-104947619D01*
X118476190Y-104900000D01*
X118523809Y-104852380D01*
X118523809Y-104947619D01*
X117619047Y-105852380D02*
X117619047Y-104852380D01*
X117619047Y-105804761D02*
X117714285Y-105852380D01*
X117904761Y-105852380D01*
X118000000Y-105804761D01*
X118047619Y-105757142D01*
X118095238Y-105661904D01*
X118095238Y-105376190D01*
X118047619Y-105280952D01*
X118000000Y-105233333D01*
X117904761Y-105185714D01*
X117714285Y-105185714D01*
X117619047Y-105233333D01*
X116761904Y-105804761D02*
X116857142Y-105852380D01*
X117047619Y-105852380D01*
X117142857Y-105804761D01*
X117190476Y-105709523D01*
X117190476Y-105328571D01*
X117142857Y-105233333D01*
X117047619Y-105185714D01*
X116857142Y-105185714D01*
X116761904Y-105233333D01*
X116714285Y-105328571D01*
X116714285Y-105423809D01*
X117190476Y-105519047D01*
X115380952Y-105852380D02*
X115476190Y-105804761D01*
X115523809Y-105757142D01*
X115571428Y-105661904D01*
X115571428Y-105376190D01*
X115523809Y-105280952D01*
X115476190Y-105233333D01*
X115380952Y-105185714D01*
X115238095Y-105185714D01*
X115142857Y-105233333D01*
X115095238Y-105280952D01*
X115047619Y-105376190D01*
X115047619Y-105661904D01*
X115095238Y-105757142D01*
X115142857Y-105804761D01*
X115238095Y-105852380D01*
X115380952Y-105852380D01*
X114761904Y-105185714D02*
X114380952Y-105185714D01*
X114619047Y-105852380D02*
X114619047Y-104995238D01*
X114571428Y-104900000D01*
X114476190Y-104852380D01*
X114380952Y-104852380D01*
X113142857Y-105852380D02*
X113238095Y-105804761D01*
X113285714Y-105709523D01*
X113285714Y-104852380D01*
X112380952Y-105804761D02*
X112476190Y-105852380D01*
X112666666Y-105852380D01*
X112761904Y-105804761D01*
X112809523Y-105709523D01*
X112809523Y-105328571D01*
X112761904Y-105233333D01*
X112666666Y-105185714D01*
X112476190Y-105185714D01*
X112380952Y-105233333D01*
X112333333Y-105328571D01*
X112333333Y-105423809D01*
X112809523Y-105519047D01*
X111476190Y-105852380D02*
X111476190Y-104852380D01*
X111476190Y-105804761D02*
X111571428Y-105852380D01*
X111761904Y-105852380D01*
X111857142Y-105804761D01*
X111904761Y-105757142D01*
X111952380Y-105661904D01*
X111952380Y-105376190D01*
X111904761Y-105280952D01*
X111857142Y-105233333D01*
X111761904Y-105185714D01*
X111571428Y-105185714D01*
X111476190Y-105233333D01*
X111047619Y-105804761D02*
X110952380Y-105852380D01*
X110761904Y-105852380D01*
X110666666Y-105804761D01*
X110619047Y-105709523D01*
X110619047Y-105661904D01*
X110666666Y-105566666D01*
X110761904Y-105519047D01*
X110904761Y-105519047D01*
X111000000Y-105471428D01*
X111047619Y-105376190D01*
X111047619Y-105328571D01*
X111000000Y-105233333D01*
X110904761Y-105185714D01*
X110761904Y-105185714D01*
X110666666Y-105233333D01*
X109428571Y-105852380D02*
X109428571Y-104852380D01*
X109000000Y-105852380D02*
X109000000Y-105328571D01*
X109047619Y-105233333D01*
X109142857Y-105185714D01*
X109285714Y-105185714D01*
X109380952Y-105233333D01*
X109428571Y-105280952D01*
X108142857Y-105804761D02*
X108238095Y-105852380D01*
X108428571Y-105852380D01*
X108523809Y-105804761D01*
X108571428Y-105709523D01*
X108571428Y-105328571D01*
X108523809Y-105233333D01*
X108428571Y-105185714D01*
X108238095Y-105185714D01*
X108142857Y-105233333D01*
X108095238Y-105328571D01*
X108095238Y-105423809D01*
X108571428Y-105519047D01*
X107666666Y-105852380D02*
X107666666Y-105185714D01*
X107666666Y-105376190D02*
X107619047Y-105280952D01*
X107571428Y-105233333D01*
X107476190Y-105185714D01*
X107380952Y-105185714D01*
X106666666Y-105804761D02*
X106761904Y-105852380D01*
X106952380Y-105852380D01*
X107047619Y-105804761D01*
X107095238Y-105709523D01*
X107095238Y-105328571D01*
X107047619Y-105233333D01*
X106952380Y-105185714D01*
X106761904Y-105185714D01*
X106666666Y-105233333D01*
X106619047Y-105328571D01*
X106619047Y-105423809D01*
X107095238Y-105519047D01*
X106190476Y-105757142D02*
X106142857Y-105804761D01*
X106190476Y-105852380D01*
X106238095Y-105804761D01*
X106190476Y-105757142D01*
X106190476Y-105852380D01*
X123690476Y-107367142D02*
X123738095Y-107414761D01*
X123880952Y-107462380D01*
X123976190Y-107462380D01*
X124119047Y-107414761D01*
X124214285Y-107319523D01*
X124261904Y-107224285D01*
X124309523Y-107033809D01*
X124309523Y-106890952D01*
X124261904Y-106700476D01*
X124214285Y-106605238D01*
X124119047Y-106510000D01*
X123976190Y-106462380D01*
X123880952Y-106462380D01*
X123738095Y-106510000D01*
X123690476Y-106557619D01*
X123119047Y-107462380D02*
X123214285Y-107414761D01*
X123261904Y-107367142D01*
X123309523Y-107271904D01*
X123309523Y-106986190D01*
X123261904Y-106890952D01*
X123214285Y-106843333D01*
X123119047Y-106795714D01*
X122976190Y-106795714D01*
X122880952Y-106843333D01*
X122833333Y-106890952D01*
X122785714Y-106986190D01*
X122785714Y-107271904D01*
X122833333Y-107367142D01*
X122880952Y-107414761D01*
X122976190Y-107462380D01*
X123119047Y-107462380D01*
X122357142Y-107462380D02*
X122357142Y-106795714D01*
X122357142Y-106890952D02*
X122309523Y-106843333D01*
X122214285Y-106795714D01*
X122071428Y-106795714D01*
X121976190Y-106843333D01*
X121928571Y-106938571D01*
X121928571Y-107462380D01*
X121928571Y-106938571D02*
X121880952Y-106843333D01*
X121785714Y-106795714D01*
X121642857Y-106795714D01*
X121547619Y-106843333D01*
X121500000Y-106938571D01*
X121500000Y-107462380D01*
X121023809Y-107462380D02*
X121023809Y-106795714D01*
X121023809Y-106890952D02*
X120976190Y-106843333D01*
X120880952Y-106795714D01*
X120738095Y-106795714D01*
X120642857Y-106843333D01*
X120595238Y-106938571D01*
X120595238Y-107462380D01*
X120595238Y-106938571D02*
X120547619Y-106843333D01*
X120452380Y-106795714D01*
X120309523Y-106795714D01*
X120214285Y-106843333D01*
X120166666Y-106938571D01*
X120166666Y-107462380D01*
X119547619Y-107462380D02*
X119642857Y-107414761D01*
X119690476Y-107367142D01*
X119738095Y-107271904D01*
X119738095Y-106986190D01*
X119690476Y-106890952D01*
X119642857Y-106843333D01*
X119547619Y-106795714D01*
X119404761Y-106795714D01*
X119309523Y-106843333D01*
X119261904Y-106890952D01*
X119214285Y-106986190D01*
X119214285Y-107271904D01*
X119261904Y-107367142D01*
X119309523Y-107414761D01*
X119404761Y-107462380D01*
X119547619Y-107462380D01*
X118785714Y-106795714D02*
X118785714Y-107462380D01*
X118785714Y-106890952D02*
X118738095Y-106843333D01*
X118642857Y-106795714D01*
X118500000Y-106795714D01*
X118404761Y-106843333D01*
X118357142Y-106938571D01*
X118357142Y-107462380D01*
X117119047Y-107462380D02*
X117119047Y-106462380D01*
X116738095Y-106462380D01*
X116642857Y-106510000D01*
X116595238Y-106557619D01*
X116547619Y-106652857D01*
X116547619Y-106795714D01*
X116595238Y-106890952D01*
X116642857Y-106938571D01*
X116738095Y-106986190D01*
X117119047Y-106986190D01*
X115976190Y-107462380D02*
X116071428Y-107414761D01*
X116119047Y-107367142D01*
X116166666Y-107271904D01*
X116166666Y-106986190D01*
X116119047Y-106890952D01*
X116071428Y-106843333D01*
X115976190Y-106795714D01*
X115833333Y-106795714D01*
X115738095Y-106843333D01*
X115690476Y-106890952D01*
X115642857Y-106986190D01*
X115642857Y-107271904D01*
X115690476Y-107367142D01*
X115738095Y-107414761D01*
X115833333Y-107462380D01*
X115976190Y-107462380D01*
X115261904Y-107414761D02*
X115166666Y-107462380D01*
X114976190Y-107462380D01*
X114880952Y-107414761D01*
X114833333Y-107319523D01*
X114833333Y-107271904D01*
X114880952Y-107176666D01*
X114976190Y-107129047D01*
X115119047Y-107129047D01*
X115214285Y-107081428D01*
X115261904Y-106986190D01*
X115261904Y-106938571D01*
X115214285Y-106843333D01*
X115119047Y-106795714D01*
X114976190Y-106795714D01*
X114880952Y-106843333D01*
X114404761Y-107462380D02*
X114404761Y-106795714D01*
X114404761Y-106462380D02*
X114452380Y-106510000D01*
X114404761Y-106557619D01*
X114357142Y-106510000D01*
X114404761Y-106462380D01*
X114404761Y-106557619D01*
X114071428Y-106795714D02*
X113690476Y-106795714D01*
X113928571Y-106462380D02*
X113928571Y-107319523D01*
X113880952Y-107414761D01*
X113785714Y-107462380D01*
X113690476Y-107462380D01*
X113357142Y-107462380D02*
X113357142Y-106795714D01*
X113357142Y-106462380D02*
X113404761Y-106510000D01*
X113357142Y-106557619D01*
X113309523Y-106510000D01*
X113357142Y-106462380D01*
X113357142Y-106557619D01*
X112976190Y-106795714D02*
X112738095Y-107462380D01*
X112500000Y-106795714D01*
X111738095Y-107414761D02*
X111833333Y-107462380D01*
X112023809Y-107462380D01*
X112119047Y-107414761D01*
X112166666Y-107319523D01*
X112166666Y-106938571D01*
X112119047Y-106843333D01*
X112023809Y-106795714D01*
X111833333Y-106795714D01*
X111738095Y-106843333D01*
X111690476Y-106938571D01*
X111690476Y-107033809D01*
X112166666Y-107129047D01*
%TO.C,J3*%
X140085380Y-112188666D02*
X140799666Y-112188666D01*
X140942523Y-112141047D01*
X141037761Y-112045809D01*
X141085380Y-111902952D01*
X141085380Y-111807714D01*
X140085380Y-112569619D02*
X140085380Y-113188666D01*
X140466333Y-112855333D01*
X140466333Y-112998190D01*
X140513952Y-113093428D01*
X140561571Y-113141047D01*
X140656809Y-113188666D01*
X140894904Y-113188666D01*
X140990142Y-113141047D01*
X141037761Y-113093428D01*
X141085380Y-112998190D01*
X141085380Y-112712476D01*
X141037761Y-112617238D01*
X140990142Y-112569619D01*
%TO.C,J2*%
X103329880Y-98526666D02*
X104044166Y-98526666D01*
X104187023Y-98479047D01*
X104282261Y-98383809D01*
X104329880Y-98240952D01*
X104329880Y-98145714D01*
X103425119Y-98955238D02*
X103377500Y-99002857D01*
X103329880Y-99098095D01*
X103329880Y-99336190D01*
X103377500Y-99431428D01*
X103425119Y-99479047D01*
X103520357Y-99526666D01*
X103615595Y-99526666D01*
X103758452Y-99479047D01*
X104329880Y-98907619D01*
X104329880Y-99526666D01*
%TO.C,U1*%
X124586904Y-85908380D02*
X124586904Y-86717904D01*
X124539285Y-86813142D01*
X124491666Y-86860761D01*
X124396428Y-86908380D01*
X124205952Y-86908380D01*
X124110714Y-86860761D01*
X124063095Y-86813142D01*
X124015476Y-86717904D01*
X124015476Y-85908380D01*
X123015476Y-86908380D02*
X123586904Y-86908380D01*
X123301190Y-86908380D02*
X123301190Y-85908380D01*
X123396428Y-86051238D01*
X123491666Y-86146476D01*
X123586904Y-86194095D01*
X118466904Y-57174571D02*
X118133571Y-57174571D01*
X117990714Y-57698380D02*
X118466904Y-57698380D01*
X118466904Y-56698380D01*
X117990714Y-56698380D01*
X117562142Y-57031714D02*
X117562142Y-57698380D01*
X117562142Y-57126952D02*
X117514523Y-57079333D01*
X117419285Y-57031714D01*
X117276428Y-57031714D01*
X117181190Y-57079333D01*
X117133571Y-57174571D01*
X117133571Y-57698380D01*
X116228809Y-57698380D02*
X116228809Y-57174571D01*
X116276428Y-57079333D01*
X116371666Y-57031714D01*
X116562142Y-57031714D01*
X116657380Y-57079333D01*
X116228809Y-57650761D02*
X116324047Y-57698380D01*
X116562142Y-57698380D01*
X116657380Y-57650761D01*
X116705000Y-57555523D01*
X116705000Y-57460285D01*
X116657380Y-57365047D01*
X116562142Y-57317428D01*
X116324047Y-57317428D01*
X116228809Y-57269809D01*
X115752619Y-57698380D02*
X115752619Y-56698380D01*
X115752619Y-57079333D02*
X115657380Y-57031714D01*
X115466904Y-57031714D01*
X115371666Y-57079333D01*
X115324047Y-57126952D01*
X115276428Y-57222190D01*
X115276428Y-57507904D01*
X115324047Y-57603142D01*
X115371666Y-57650761D01*
X115466904Y-57698380D01*
X115657380Y-57698380D01*
X115752619Y-57650761D01*
X114705000Y-57698380D02*
X114800238Y-57650761D01*
X114847857Y-57555523D01*
X114847857Y-56698380D01*
X113943095Y-57650761D02*
X114038333Y-57698380D01*
X114228809Y-57698380D01*
X114324047Y-57650761D01*
X114371666Y-57555523D01*
X114371666Y-57174571D01*
X114324047Y-57079333D01*
X114228809Y-57031714D01*
X114038333Y-57031714D01*
X113943095Y-57079333D01*
X113895476Y-57174571D01*
X113895476Y-57269809D01*
X114371666Y-57365047D01*
X125086904Y-52888380D02*
X125086904Y-53697904D01*
X125039285Y-53793142D01*
X124991666Y-53840761D01*
X124896428Y-53888380D01*
X124705952Y-53888380D01*
X124610714Y-53840761D01*
X124563095Y-53793142D01*
X124515476Y-53697904D01*
X124515476Y-52888380D01*
X124086904Y-53840761D02*
X123944047Y-53888380D01*
X123705952Y-53888380D01*
X123610714Y-53840761D01*
X123563095Y-53793142D01*
X123515476Y-53697904D01*
X123515476Y-53602666D01*
X123563095Y-53507428D01*
X123610714Y-53459809D01*
X123705952Y-53412190D01*
X123896428Y-53364571D01*
X123991666Y-53316952D01*
X124039285Y-53269333D01*
X124086904Y-53174095D01*
X124086904Y-53078857D01*
X124039285Y-52983619D01*
X123991666Y-52936000D01*
X123896428Y-52888380D01*
X123658333Y-52888380D01*
X123515476Y-52936000D01*
X122753571Y-53364571D02*
X122610714Y-53412190D01*
X122563095Y-53459809D01*
X122515476Y-53555047D01*
X122515476Y-53697904D01*
X122563095Y-53793142D01*
X122610714Y-53840761D01*
X122705952Y-53888380D01*
X123086904Y-53888380D01*
X123086904Y-52888380D01*
X122753571Y-52888380D01*
X122658333Y-52936000D01*
X122610714Y-52983619D01*
X122563095Y-53078857D01*
X122563095Y-53174095D01*
X122610714Y-53269333D01*
X122658333Y-53316952D01*
X122753571Y-53364571D01*
X123086904Y-53364571D01*
X132564047Y-57174571D02*
X132421190Y-57222190D01*
X132373571Y-57269809D01*
X132325952Y-57365047D01*
X132325952Y-57507904D01*
X132373571Y-57603142D01*
X132421190Y-57650761D01*
X132516428Y-57698380D01*
X132897380Y-57698380D01*
X132897380Y-56698380D01*
X132564047Y-56698380D01*
X132468809Y-56746000D01*
X132421190Y-56793619D01*
X132373571Y-56888857D01*
X132373571Y-56984095D01*
X132421190Y-57079333D01*
X132468809Y-57126952D01*
X132564047Y-57174571D01*
X132897380Y-57174571D01*
X131754523Y-57698380D02*
X131849761Y-57650761D01*
X131897380Y-57603142D01*
X131945000Y-57507904D01*
X131945000Y-57222190D01*
X131897380Y-57126952D01*
X131849761Y-57079333D01*
X131754523Y-57031714D01*
X131611666Y-57031714D01*
X131516428Y-57079333D01*
X131468809Y-57126952D01*
X131421190Y-57222190D01*
X131421190Y-57507904D01*
X131468809Y-57603142D01*
X131516428Y-57650761D01*
X131611666Y-57698380D01*
X131754523Y-57698380D01*
X130849761Y-57698380D02*
X130945000Y-57650761D01*
X130992619Y-57603142D01*
X131040238Y-57507904D01*
X131040238Y-57222190D01*
X130992619Y-57126952D01*
X130945000Y-57079333D01*
X130849761Y-57031714D01*
X130706904Y-57031714D01*
X130611666Y-57079333D01*
X130564047Y-57126952D01*
X130516428Y-57222190D01*
X130516428Y-57507904D01*
X130564047Y-57603142D01*
X130611666Y-57650761D01*
X130706904Y-57698380D01*
X130849761Y-57698380D01*
X130230714Y-57031714D02*
X129849761Y-57031714D01*
X130087857Y-56698380D02*
X130087857Y-57555523D01*
X130040238Y-57650761D01*
X129945000Y-57698380D01*
X129849761Y-57698380D01*
%TO.C,J1*%
X103329880Y-65806666D02*
X104044166Y-65806666D01*
X104187023Y-65759047D01*
X104282261Y-65663809D01*
X104329880Y-65520952D01*
X104329880Y-65425714D01*
X104329880Y-66806666D02*
X104329880Y-66235238D01*
X104329880Y-66520952D02*
X103329880Y-66520952D01*
X103472738Y-66425714D01*
X103567976Y-66330476D01*
X103615595Y-66235238D01*
%TO.C,G1*%
G36*
X148400683Y-107227986D02*
G01*
X148400683Y-106881229D01*
X148747440Y-106881229D01*
X150481229Y-106881229D01*
X150481229Y-105147440D01*
X148747440Y-105147440D01*
X148747440Y-106881229D01*
X148400683Y-106881229D01*
X148400683Y-104800683D01*
X150827986Y-104800683D01*
X150827986Y-107227986D01*
X148400683Y-107227986D01*
G37*
G36*
X147707167Y-106534471D02*
G01*
X148053925Y-106534471D01*
X148053925Y-107227986D01*
X147707167Y-107227986D01*
X147707167Y-106881229D01*
X147360410Y-106881229D01*
X147360410Y-106534471D01*
X147013652Y-106534471D01*
X147013652Y-106187713D01*
X147707167Y-106187713D01*
X147707167Y-106534471D01*
G37*
G36*
X144586348Y-107227986D02*
G01*
X143892833Y-107227986D01*
X143892833Y-106881229D01*
X144239590Y-106881229D01*
X144239590Y-106534471D01*
X144586348Y-106534471D01*
X144586348Y-107227986D01*
G37*
G36*
X145279863Y-106534471D02*
G01*
X144586348Y-106534471D01*
X144586348Y-106187713D01*
X145279863Y-106187713D01*
X145279863Y-106534471D01*
G37*
G36*
X145626621Y-105494198D02*
G01*
X145973379Y-105494198D01*
X145973379Y-105840956D01*
X144933106Y-105840956D01*
X144933106Y-105494198D01*
X145279863Y-105494198D01*
X145279863Y-104800683D01*
X145626621Y-104800683D01*
X145626621Y-105494198D01*
G37*
G36*
X146666894Y-105147440D02*
G01*
X145973379Y-105147440D01*
X145973379Y-104800683D01*
X146666894Y-104800683D01*
X146666894Y-105147440D01*
G37*
G36*
X145973379Y-104800683D02*
G01*
X145626621Y-104800683D01*
X145626621Y-104453925D01*
X145973379Y-104453925D01*
X145973379Y-104800683D01*
G37*
G36*
X146666894Y-104453925D02*
G01*
X145973379Y-104453925D01*
X145973379Y-103760410D01*
X146666894Y-103760410D01*
X146666894Y-104453925D01*
G37*
G36*
X142505802Y-103413652D02*
G01*
X141812287Y-103413652D01*
X141812287Y-103066894D01*
X142505802Y-103066894D01*
X142505802Y-103413652D01*
G37*
G36*
X141118771Y-101679863D02*
G01*
X140772014Y-101679863D01*
X140772014Y-101333106D01*
X141118771Y-101333106D01*
X141118771Y-101679863D01*
G37*
G36*
X141465529Y-101333106D02*
G01*
X141118771Y-101333106D01*
X141118771Y-100986348D01*
X141465529Y-100986348D01*
X141465529Y-101333106D01*
G37*
G36*
X148053925Y-99946075D02*
G01*
X147707167Y-99946075D01*
X147707167Y-99252560D01*
X148053925Y-99252560D01*
X148053925Y-99946075D01*
G37*
G36*
X147707167Y-98905802D02*
G01*
X147360410Y-98905802D01*
X147360410Y-98559044D01*
X147707167Y-98559044D01*
X147707167Y-98905802D01*
G37*
G36*
X146666894Y-98559044D02*
G01*
X146320137Y-98559044D01*
X146320137Y-97865529D01*
X146666894Y-97865529D01*
X146666894Y-98559044D01*
G37*
G36*
X147013652Y-107227986D02*
G01*
X144933106Y-107227986D01*
X144933106Y-106881229D01*
X145279863Y-106881229D01*
X145973379Y-106881229D01*
X146320137Y-106881229D01*
X146320137Y-106187713D01*
X145973379Y-106187713D01*
X145973379Y-106881229D01*
X145279863Y-106881229D01*
X145279863Y-106534471D01*
X145626621Y-106534471D01*
X145626621Y-106187713D01*
X145973379Y-106187713D01*
X145973379Y-105840956D01*
X146320137Y-105840956D01*
X146320137Y-105494198D01*
X146666894Y-105494198D01*
X146666894Y-106881229D01*
X147013652Y-106881229D01*
X147013652Y-107227986D01*
G37*
G36*
X148053925Y-106187713D02*
G01*
X147707167Y-106187713D01*
X147707167Y-105494198D01*
X148053925Y-105494198D01*
X148053925Y-106187713D01*
G37*
G36*
X145279863Y-99252560D02*
G01*
X145279863Y-99599317D01*
X144933106Y-99599317D01*
X144933106Y-98905802D01*
X144586348Y-98905802D01*
X144586348Y-98212287D01*
X144239590Y-98212287D01*
X144239590Y-97865529D01*
X143892833Y-97865529D01*
X143892833Y-98559044D01*
X144239590Y-98559044D01*
X144239590Y-99252560D01*
X143892833Y-99252560D01*
X143892833Y-99946075D01*
X144239590Y-99946075D01*
X144239590Y-100639590D01*
X142852560Y-100639590D01*
X142852560Y-100986348D01*
X142505802Y-100986348D01*
X142505802Y-100639590D01*
X142159044Y-100639590D01*
X142159044Y-100986348D01*
X142505802Y-100986348D01*
X142505802Y-101333106D01*
X143546075Y-101333106D01*
X143546075Y-100986348D01*
X144239590Y-100986348D01*
X144239590Y-100639590D01*
X144586348Y-100639590D01*
X144586348Y-101333106D01*
X144239590Y-101333106D01*
X144239590Y-102026621D01*
X144933106Y-102026621D01*
X144933106Y-101333106D01*
X145279863Y-101333106D01*
X145279863Y-100639590D01*
X145626621Y-100639590D01*
X145626621Y-101679863D01*
X145973379Y-101679863D01*
X145973379Y-101333106D01*
X146320137Y-101333106D01*
X146320137Y-100986348D01*
X146666894Y-100986348D01*
X146666894Y-100639590D01*
X147360410Y-100639590D01*
X147360410Y-100986348D01*
X147707167Y-100986348D01*
X147707167Y-101679863D01*
X148400683Y-101679863D01*
X148400683Y-101333106D01*
X148747440Y-101333106D01*
X148747440Y-100986348D01*
X148400683Y-100986348D01*
X148400683Y-101333106D01*
X148053925Y-101333106D01*
X148053925Y-100639590D01*
X149094198Y-100639590D01*
X149094198Y-100986348D01*
X149440956Y-100986348D01*
X149440956Y-100292833D01*
X149094198Y-100292833D01*
X149094198Y-99946075D01*
X149787713Y-99946075D01*
X149787713Y-100639590D01*
X150134471Y-100639590D01*
X150134471Y-99946075D01*
X150827986Y-99946075D01*
X150827986Y-101679863D01*
X150481229Y-101679863D01*
X150481229Y-101333106D01*
X149787713Y-101333106D01*
X149787713Y-100986348D01*
X150134471Y-100986348D01*
X150481229Y-100986348D01*
X150481229Y-100639590D01*
X150134471Y-100639590D01*
X150134471Y-100986348D01*
X149787713Y-100986348D01*
X149440956Y-100986348D01*
X149440956Y-101333106D01*
X149787713Y-101333106D01*
X149787713Y-102026621D01*
X150134471Y-102026621D01*
X150134471Y-101679863D01*
X150481229Y-101679863D01*
X150481229Y-102026621D01*
X150134471Y-102026621D01*
X150134471Y-102373379D01*
X149094198Y-102373379D01*
X149094198Y-102026621D01*
X148747440Y-102026621D01*
X148747440Y-101679863D01*
X149094198Y-101679863D01*
X149440956Y-101679863D01*
X149440956Y-101333106D01*
X149094198Y-101333106D01*
X149094198Y-101679863D01*
X148747440Y-101679863D01*
X148400683Y-101679863D01*
X148400683Y-102026621D01*
X148053925Y-102026621D01*
X148053925Y-102373379D01*
X148400683Y-102373379D01*
X148400683Y-102720137D01*
X148747440Y-102720137D01*
X148747440Y-102373379D01*
X150481229Y-102373379D01*
X150481229Y-102026621D01*
X150827986Y-102026621D01*
X150827986Y-104453925D01*
X150134471Y-104453925D01*
X150134471Y-104107167D01*
X149787713Y-104107167D01*
X149787713Y-103413652D01*
X149094198Y-103413652D01*
X149094198Y-103760410D01*
X149440956Y-103760410D01*
X149440956Y-104453925D01*
X148053925Y-104453925D01*
X148053925Y-104800683D01*
X147707167Y-104800683D01*
X147707167Y-104107167D01*
X148747440Y-104107167D01*
X148747440Y-103760410D01*
X148400683Y-103760410D01*
X148400683Y-103413652D01*
X148747440Y-103413652D01*
X148747440Y-103066894D01*
X149094198Y-103066894D01*
X150481229Y-103066894D01*
X150481229Y-102720137D01*
X149787713Y-102720137D01*
X149787713Y-103066894D01*
X149440956Y-103066894D01*
X149440956Y-102720137D01*
X149094198Y-102720137D01*
X149094198Y-103066894D01*
X148747440Y-103066894D01*
X147707167Y-103066894D01*
X147707167Y-102026621D01*
X147360410Y-102026621D01*
X147360410Y-101333106D01*
X147013652Y-101333106D01*
X147013652Y-101679863D01*
X146320137Y-101679863D01*
X146320137Y-102026621D01*
X147360410Y-102026621D01*
X147360410Y-102373379D01*
X147013652Y-102373379D01*
X147013652Y-102720137D01*
X147360410Y-102720137D01*
X147360410Y-103413652D01*
X147013652Y-103413652D01*
X147013652Y-103760410D01*
X147360410Y-103760410D01*
X147360410Y-103413652D01*
X148053925Y-103413652D01*
X148053925Y-103760410D01*
X147707167Y-103760410D01*
X147707167Y-104107167D01*
X147360410Y-104107167D01*
X147360410Y-105147440D01*
X147707167Y-105147440D01*
X147707167Y-105494198D01*
X147360410Y-105494198D01*
X147360410Y-105840956D01*
X147013652Y-105840956D01*
X147013652Y-103760410D01*
X146666894Y-103760410D01*
X146666894Y-103413652D01*
X146320137Y-103413652D01*
X146320137Y-103066894D01*
X147013652Y-103066894D01*
X147013652Y-102720137D01*
X146666894Y-102720137D01*
X146666894Y-102373379D01*
X146320137Y-102373379D01*
X146320137Y-103066894D01*
X145973379Y-103066894D01*
X145973379Y-102373379D01*
X145626621Y-102373379D01*
X145626621Y-102026621D01*
X145279863Y-102026621D01*
X145279863Y-102373379D01*
X144239590Y-102373379D01*
X144239590Y-102720137D01*
X143892833Y-102720137D01*
X143892833Y-102373379D01*
X143546075Y-102373379D01*
X143546075Y-102026621D01*
X143199317Y-102026621D01*
X143199317Y-101679863D01*
X142505802Y-101679863D01*
X142505802Y-101333106D01*
X142159044Y-101333106D01*
X142159044Y-101679863D01*
X141812287Y-101679863D01*
X141812287Y-103066894D01*
X141465529Y-103066894D01*
X141465529Y-102373379D01*
X141118771Y-102373379D01*
X141118771Y-102026621D01*
X141465529Y-102026621D01*
X141465529Y-101333106D01*
X141812287Y-101333106D01*
X141812287Y-100639590D01*
X141465529Y-100639590D01*
X141465529Y-100292833D01*
X142852560Y-100292833D01*
X142852560Y-99946075D01*
X143199317Y-99946075D01*
X143199317Y-100292833D01*
X143546075Y-100292833D01*
X143546075Y-99252560D01*
X143892833Y-99252560D01*
X143892833Y-98559044D01*
X143546075Y-98559044D01*
X143546075Y-97172014D01*
X143892833Y-97172014D01*
X143892833Y-97518771D01*
X144239590Y-97518771D01*
X144239590Y-97865529D01*
X144586348Y-97865529D01*
X144586348Y-97172014D01*
X144933106Y-97172014D01*
X144933106Y-97518771D01*
X145626621Y-97518771D01*
X145626621Y-98212287D01*
X145279863Y-98212287D01*
X145279863Y-97865529D01*
X144933106Y-97865529D01*
X144933106Y-98212287D01*
X145279863Y-98212287D01*
X145279863Y-98559044D01*
X145973379Y-98559044D01*
X145973379Y-98905802D01*
X146666894Y-98905802D01*
X146666894Y-98559044D01*
X147013652Y-98559044D01*
X147013652Y-98905802D01*
X146666894Y-98905802D01*
X146666894Y-99599317D01*
X147013652Y-99599317D01*
X147013652Y-98905802D01*
X147360410Y-98905802D01*
X147360410Y-99946075D01*
X147707167Y-99946075D01*
X147707167Y-100639590D01*
X147360410Y-100639590D01*
X147360410Y-100292833D01*
X146666894Y-100292833D01*
X146666894Y-99599317D01*
X146320137Y-99599317D01*
X146320137Y-99252560D01*
X145973379Y-99252560D01*
X145973379Y-99599317D01*
X146320137Y-99599317D01*
X146320137Y-100292833D01*
X145279863Y-100292833D01*
X145279863Y-99946075D01*
X144239590Y-99946075D01*
X144239590Y-99252560D01*
X144586348Y-99252560D01*
X144586348Y-99599317D01*
X145626621Y-99599317D01*
X145626621Y-99252560D01*
X145279863Y-99252560D01*
G37*
G36*
X141812287Y-107227986D02*
G01*
X141812287Y-106881229D01*
X142159044Y-106881229D01*
X142852560Y-106881229D01*
X142852560Y-106534471D01*
X142505802Y-106534471D01*
X142505802Y-105840956D01*
X142159044Y-105840956D01*
X142159044Y-106881229D01*
X141812287Y-106881229D01*
X141812287Y-106534471D01*
X141465529Y-106534471D01*
X141465529Y-106881229D01*
X141118771Y-106881229D01*
X141118771Y-106534471D01*
X140772014Y-106534471D01*
X140772014Y-106187713D01*
X141118771Y-106187713D01*
X141118771Y-105840956D01*
X141465529Y-105840956D01*
X141812287Y-105840956D01*
X141812287Y-105494198D01*
X142159044Y-105494198D01*
X142505802Y-105494198D01*
X143546075Y-105494198D01*
X143546075Y-104453925D01*
X142505802Y-104453925D01*
X142505802Y-105494198D01*
X142159044Y-105494198D01*
X142159044Y-105147440D01*
X141812287Y-105147440D01*
X141812287Y-105494198D01*
X141465529Y-105494198D01*
X141465529Y-105840956D01*
X141118771Y-105840956D01*
X141118771Y-105494198D01*
X141465529Y-105494198D01*
X141465529Y-105147440D01*
X141812287Y-105147440D01*
X141812287Y-104800683D01*
X142159044Y-104800683D01*
X142159044Y-104107167D01*
X141812287Y-104107167D01*
X141812287Y-104800683D01*
X141465529Y-104800683D01*
X141465529Y-104453925D01*
X141118771Y-104453925D01*
X141118771Y-104800683D01*
X140772014Y-104800683D01*
X140772014Y-104107167D01*
X141118771Y-104107167D01*
X141465529Y-104107167D01*
X141465529Y-103760410D01*
X141118771Y-103760410D01*
X141118771Y-104107167D01*
X140772014Y-104107167D01*
X140772014Y-103760410D01*
X141118771Y-103760410D01*
X141118771Y-103413652D01*
X141465529Y-103413652D01*
X141465529Y-103760410D01*
X142505802Y-103760410D01*
X142505802Y-103413652D01*
X143199317Y-103413652D01*
X143199317Y-103760410D01*
X143546075Y-103760410D01*
X143546075Y-104107167D01*
X144239590Y-104107167D01*
X144239590Y-104453925D01*
X144586348Y-104453925D01*
X144586348Y-104800683D01*
X143892833Y-104800683D01*
X143892833Y-105494198D01*
X144239590Y-105494198D01*
X144239590Y-106187713D01*
X143892833Y-106187713D01*
X143892833Y-105840956D01*
X143199317Y-105840956D01*
X143199317Y-106534471D01*
X143892833Y-106534471D01*
X143892833Y-106881229D01*
X143546075Y-106881229D01*
X143546075Y-107227986D01*
X141812287Y-107227986D01*
G37*
G36*
X141118771Y-100639590D02*
G01*
X140772014Y-100639590D01*
X140772014Y-99946075D01*
X141118771Y-99946075D01*
X141118771Y-100639590D01*
G37*
G36*
X148747440Y-100292833D02*
G01*
X148400683Y-100292833D01*
X148400683Y-99946075D01*
X148747440Y-99946075D01*
X148747440Y-100292833D01*
G37*
G36*
X148400683Y-99599317D02*
G01*
X148400683Y-99252560D01*
X148747440Y-99252560D01*
X150481229Y-99252560D01*
X150481229Y-97518771D01*
X148747440Y-97518771D01*
X148747440Y-99252560D01*
X148400683Y-99252560D01*
X148400683Y-97172014D01*
X150827986Y-97172014D01*
X150827986Y-99599317D01*
X148400683Y-99599317D01*
G37*
G36*
X140772014Y-99599317D02*
G01*
X140772014Y-99252560D01*
X141118771Y-99252560D01*
X142852560Y-99252560D01*
X142852560Y-97518771D01*
X141118771Y-97518771D01*
X141118771Y-99252560D01*
X140772014Y-99252560D01*
X140772014Y-97172014D01*
X143199317Y-97172014D01*
X143199317Y-99599317D01*
X140772014Y-99599317D01*
G37*
G36*
X147707167Y-97865529D02*
G01*
X147360410Y-97865529D01*
X147360410Y-98212287D01*
X147013652Y-98212287D01*
X147013652Y-97518771D01*
X147707167Y-97518771D01*
X147707167Y-97865529D01*
G37*
G36*
X147013652Y-97518771D02*
G01*
X145973379Y-97518771D01*
X145973379Y-97172014D01*
X147013652Y-97172014D01*
X147013652Y-97518771D01*
G37*
G36*
X148053925Y-97518771D02*
G01*
X147707167Y-97518771D01*
X147707167Y-97172014D01*
X148053925Y-97172014D01*
X148053925Y-97518771D01*
G37*
G36*
X150134471Y-106534471D02*
G01*
X149094198Y-106534471D01*
X149094198Y-105494198D01*
X150134471Y-105494198D01*
X150134471Y-106534471D01*
G37*
G36*
X144933106Y-105147440D02*
G01*
X144586348Y-105147440D01*
X144586348Y-104800683D01*
X144933106Y-104800683D01*
X144933106Y-105147440D01*
G37*
G36*
X144586348Y-103760410D02*
G01*
X144239590Y-103760410D01*
X144239590Y-103413652D01*
X144586348Y-103413652D01*
X144586348Y-103760410D01*
G37*
G36*
X145626621Y-103066894D02*
G01*
X145973379Y-103066894D01*
X145973379Y-103413652D01*
X145279863Y-103413652D01*
X145279863Y-102373379D01*
X145626621Y-102373379D01*
X145626621Y-103066894D01*
G37*
G36*
X144933106Y-103413652D02*
G01*
X144586348Y-103413652D01*
X144586348Y-103066894D01*
X144239590Y-103066894D01*
X144239590Y-102720137D01*
X144933106Y-102720137D01*
X144933106Y-103413652D01*
G37*
G36*
X145279863Y-103760410D02*
G01*
X145626621Y-103760410D01*
X145626621Y-104453925D01*
X145279863Y-104453925D01*
X145279863Y-104107167D01*
X144933106Y-104107167D01*
X144933106Y-104453925D01*
X145279863Y-104453925D01*
X145279863Y-104800683D01*
X144933106Y-104800683D01*
X144933106Y-104453925D01*
X144586348Y-104453925D01*
X144586348Y-104107167D01*
X144933106Y-104107167D01*
X144933106Y-103413652D01*
X145279863Y-103413652D01*
X145279863Y-103760410D01*
G37*
G36*
X143199317Y-102373379D02*
G01*
X142852560Y-102373379D01*
X142852560Y-102720137D01*
X143546075Y-102720137D01*
X143546075Y-103066894D01*
X143892833Y-103066894D01*
X143892833Y-103760410D01*
X143546075Y-103760410D01*
X143546075Y-103413652D01*
X143199317Y-103413652D01*
X143199317Y-103066894D01*
X142505802Y-103066894D01*
X142505802Y-102720137D01*
X142159044Y-102720137D01*
X142159044Y-102373379D01*
X142505802Y-102373379D01*
X142505802Y-102026621D01*
X143199317Y-102026621D01*
X143199317Y-102373379D01*
G37*
G36*
X142505802Y-102026621D02*
G01*
X142159044Y-102026621D01*
X142159044Y-101679863D01*
X142505802Y-101679863D01*
X142505802Y-102026621D01*
G37*
G36*
X146320137Y-100986348D02*
G01*
X145973379Y-100986348D01*
X145973379Y-100639590D01*
X146320137Y-100639590D01*
X146320137Y-100986348D01*
G37*
G36*
X146666894Y-100639590D02*
G01*
X146320137Y-100639590D01*
X146320137Y-100292833D01*
X146666894Y-100292833D01*
X146666894Y-100639590D01*
G37*
G36*
X143199317Y-105147440D02*
G01*
X142852560Y-105147440D01*
X142852560Y-104800683D01*
X143199317Y-104800683D01*
X143199317Y-105147440D01*
G37*
G36*
X148747440Y-102373379D02*
G01*
X148400683Y-102373379D01*
X148400683Y-102026621D01*
X148747440Y-102026621D01*
X148747440Y-102373379D01*
G37*
G36*
X150134471Y-98905802D02*
G01*
X149094198Y-98905802D01*
X149094198Y-97865529D01*
X150134471Y-97865529D01*
X150134471Y-98905802D01*
G37*
G36*
X142505802Y-98905802D02*
G01*
X141465529Y-98905802D01*
X141465529Y-97865529D01*
X142505802Y-97865529D01*
X142505802Y-98905802D01*
G37*
D13*
%TO.C,J3*%
X137033000Y-113852000D02*
X98873000Y-113852000D01*
X137033000Y-113852000D02*
X137033000Y-111192000D01*
X98873000Y-113852000D02*
X98873000Y-111192000D01*
X139633000Y-113852000D02*
X139633000Y-112522000D01*
X138303000Y-113852000D02*
X139633000Y-113852000D01*
X137033000Y-111192000D02*
X98873000Y-111192000D01*
%TO.C,J2*%
X95661679Y-99413158D02*
G75*
G03*
X95677500Y-103400000I1665821J-1986842D01*
G01*
X95661679Y-94333158D02*
G75*
G03*
X95677500Y-98320000I1665821J-1986842D01*
G01*
X102987500Y-101400000D02*
X103587500Y-101700000D01*
X93967500Y-105050000D02*
X93967500Y-92670000D01*
X101977500Y-105050000D02*
X101977500Y-102510000D01*
X101977500Y-92670000D02*
X101977500Y-95210000D01*
X102787500Y-97320000D02*
X102787500Y-95320000D01*
X95677500Y-93580000D02*
X95677500Y-94320000D01*
X102787500Y-100400000D02*
X100977500Y-100400000D01*
X100977500Y-93580000D02*
X95677500Y-93580000D01*
X103587500Y-101100000D02*
X102987500Y-101400000D01*
X102787500Y-92670000D02*
X102787500Y-105050000D01*
X95677500Y-99400000D02*
X95677500Y-98320000D01*
X100977500Y-102400000D02*
X102787500Y-102400000D01*
X95677500Y-103400000D02*
X95677500Y-104140000D01*
X100977500Y-104140000D02*
X100977500Y-93580000D01*
X101977500Y-100400000D02*
X101977500Y-97320000D01*
X102787500Y-105050000D02*
X93967500Y-105050000D01*
X95677500Y-104140000D02*
X100977500Y-104140000D01*
X100977500Y-95320000D02*
X100977500Y-97320000D01*
X103587500Y-101700000D02*
X103587500Y-101100000D01*
X102787500Y-95320000D02*
X100977500Y-95320000D01*
X100977500Y-97320000D02*
X102787500Y-97320000D01*
X102787500Y-102400000D02*
X102787500Y-100400000D01*
X93967500Y-92670000D02*
X102787500Y-92670000D01*
X100977500Y-100400000D02*
X100977500Y-102400000D01*
%TO.C,U1*%
X121285000Y-100934000D02*
X123825000Y-100934000D01*
X114935000Y-55976000D02*
X117475000Y-55976000D01*
X116325000Y-77966000D02*
X116325000Y-95966000D01*
X109825000Y-100966000D02*
X109825000Y-53466000D01*
X130175000Y-52166000D02*
X130175000Y-55976000D01*
X127825000Y-57466000D02*
X127825000Y-51466000D01*
X130175000Y-55976000D02*
X132715000Y-55976000D01*
X117475000Y-52166000D02*
X114935000Y-52166000D01*
X137825000Y-53466000D02*
X137825000Y-100966000D01*
X114935000Y-52166000D02*
X114935000Y-55976000D01*
X131445000Y-100934000D02*
X131445000Y-97378000D01*
X126365000Y-100934000D02*
X131445000Y-100934000D01*
X116205000Y-97378000D02*
X116205000Y-100934000D01*
X123825000Y-100934000D02*
X123825000Y-98902000D01*
X132715000Y-96616000D02*
X114935000Y-96616000D01*
X121285000Y-98902000D02*
X121285000Y-100934000D01*
X119825000Y-57466000D02*
X127825000Y-57466000D01*
X116205000Y-100934000D02*
X118745000Y-100934000D01*
X128905000Y-100934000D02*
X128905000Y-97378000D01*
X123825000Y-98902000D02*
X126365000Y-98902000D01*
X111825000Y-51466000D02*
X135825000Y-51466000D01*
X126365000Y-98902000D02*
X126365000Y-100934000D01*
X132715000Y-55976000D02*
X132715000Y-52166000D01*
X116325000Y-95966000D02*
X131325000Y-95966000D01*
X111825000Y-102966000D02*
X135825000Y-102966000D01*
X114935000Y-101696000D02*
X132715000Y-101696000D01*
X117475000Y-55976000D02*
X117475000Y-52166000D01*
X132715000Y-101696000D02*
X132715000Y-96616000D01*
X132715000Y-52166000D02*
X130175000Y-52166000D01*
X118745000Y-98902000D02*
X121285000Y-98902000D01*
X119825000Y-57466000D02*
X119825000Y-51466000D01*
X131325000Y-95966000D02*
X131325000Y-77966000D01*
X118745000Y-100934000D02*
X118745000Y-98902000D01*
X131325000Y-77966000D02*
X116325000Y-77966000D01*
X114935000Y-96616000D02*
X114935000Y-101696000D01*
X135825000Y-102966000D02*
G75*
G03*
X137825000Y-100966000I0J2000000D01*
G01*
X109825000Y-100966000D02*
G75*
G03*
X111825000Y-102966000I1999999J-1D01*
G01*
X111825000Y-51466000D02*
G75*
G03*
X109825000Y-53466000I-1J-1999999D01*
G01*
X137825000Y-53466000D02*
G75*
G03*
X135825000Y-51466000I-2000000J0D01*
G01*
X137025000Y-53466000D02*
G75*
G03*
X137025000Y-53466000I-1500000J0D01*
G01*
X113625000Y-53466000D02*
G75*
G03*
X113625000Y-53466000I-1500000J0D01*
G01*
X113625000Y-100966000D02*
G75*
G03*
X113625000Y-100966000I-1500000J0D01*
G01*
X137025000Y-100966000D02*
G75*
G03*
X137025000Y-100966000I-1500000J0D01*
G01*
D14*
X131745000Y-54071000D02*
G75*
G03*
X131745000Y-54071000I-300000J0D01*
G01*
X116505000Y-54071000D02*
G75*
G03*
X116505000Y-54071000I-300000J0D01*
G01*
D15*
X119145000Y-80106000D02*
G75*
G03*
X119145000Y-80106000I-400000J0D01*
G01*
D13*
%TO.C,J1*%
X95661679Y-66693158D02*
G75*
G03*
X95677500Y-70680000I1665821J-1986842D01*
G01*
X95661679Y-61613158D02*
G75*
G03*
X95677500Y-65600000I1665821J-1986842D01*
G01*
X93967500Y-72330000D02*
X93967500Y-59950000D01*
X100977500Y-60860000D02*
X95677500Y-60860000D01*
X100977500Y-71420000D02*
X100977500Y-60860000D01*
X102787500Y-64600000D02*
X102787500Y-62600000D01*
X95677500Y-66680000D02*
X95677500Y-65600000D01*
X101977500Y-72330000D02*
X101977500Y-69790000D01*
X100977500Y-62600000D02*
X100977500Y-64600000D01*
X102787500Y-67680000D02*
X100977500Y-67680000D01*
X100977500Y-69680000D02*
X102787500Y-69680000D01*
X100977500Y-67680000D02*
X100977500Y-69680000D01*
X102787500Y-72330000D02*
X93967500Y-72330000D01*
X102987500Y-68680000D02*
X103587500Y-68980000D01*
X102787500Y-59950000D02*
X102787500Y-72330000D01*
X103587500Y-68980000D02*
X103587500Y-68380000D01*
X95677500Y-71420000D02*
X100977500Y-71420000D01*
X103587500Y-68380000D02*
X102987500Y-68680000D01*
X100977500Y-64600000D02*
X102787500Y-64600000D01*
X101977500Y-59950000D02*
X101977500Y-62490000D01*
X93967500Y-59950000D02*
X102787500Y-59950000D01*
X101977500Y-67680000D02*
X101977500Y-64600000D01*
X95677500Y-70680000D02*
X95677500Y-71420000D01*
X102787500Y-69680000D02*
X102787500Y-67680000D01*
X102787500Y-62600000D02*
X100977500Y-62600000D01*
X95677500Y-60860000D02*
X95677500Y-61600000D01*
%TD*%
%LPC*%
D16*
X141447380Y-69548184D02*
X140780714Y-69631517D01*
X140875952Y-69619613D02*
X140828333Y-69673184D01*
X140780714Y-69774375D01*
X140780714Y-69917232D01*
X140828333Y-70006517D01*
X140923571Y-70042232D01*
X141447380Y-69976755D01*
X140923571Y-70042232D02*
X140828333Y-70101755D01*
X140780714Y-70202946D01*
X140780714Y-70345803D01*
X140828333Y-70435089D01*
X140923571Y-70470803D01*
X141447380Y-70405327D01*
X141447380Y-71310089D02*
X140923571Y-71375565D01*
X140828333Y-71339851D01*
X140780714Y-71250565D01*
X140780714Y-71060089D01*
X140828333Y-70958898D01*
X141399761Y-71316041D02*
X141447380Y-71214851D01*
X141447380Y-70976755D01*
X141399761Y-70887470D01*
X141304523Y-70851755D01*
X141209285Y-70863660D01*
X141114047Y-70923184D01*
X141066428Y-71024375D01*
X141066428Y-71262470D01*
X141018809Y-71363660D01*
X141447380Y-71786279D02*
X140780714Y-71869613D01*
X140971190Y-71845803D02*
X140875952Y-71905327D01*
X140828333Y-71958898D01*
X140780714Y-72060089D01*
X140780714Y-72155327D01*
X141399761Y-72839851D02*
X141447380Y-72738660D01*
X141447380Y-72548184D01*
X141399761Y-72458898D01*
X141352142Y-72417232D01*
X141256904Y-72381517D01*
X140971190Y-72417232D01*
X140875952Y-72476755D01*
X140828333Y-72530327D01*
X140780714Y-72631517D01*
X140780714Y-72821994D01*
X140828333Y-72911279D01*
X141447380Y-73262470D02*
X140447380Y-73387470D01*
X141447380Y-73691041D02*
X140923571Y-73756517D01*
X140828333Y-73720803D01*
X140780714Y-73631517D01*
X140780714Y-73488660D01*
X140828333Y-73387470D01*
X140875952Y-73333898D01*
X140542619Y-74994613D02*
X140495000Y-75048184D01*
X140447380Y-75149375D01*
X140447380Y-75387470D01*
X140495000Y-75476755D01*
X140542619Y-75518422D01*
X140637857Y-75554136D01*
X140733095Y-75542232D01*
X140875952Y-75476755D01*
X141447380Y-74833898D01*
X141447380Y-75452946D01*
X140447380Y-76196994D02*
X140447380Y-76292232D01*
X140495000Y-76381517D01*
X140542619Y-76423184D01*
X140637857Y-76458898D01*
X140828333Y-76482708D01*
X141066428Y-76452946D01*
X141256904Y-76381517D01*
X141352142Y-76321994D01*
X141399761Y-76268422D01*
X141447380Y-76167232D01*
X141447380Y-76071994D01*
X141399761Y-75982708D01*
X141352142Y-75941041D01*
X141256904Y-75905327D01*
X141066428Y-75881517D01*
X140828333Y-75911279D01*
X140637857Y-75982708D01*
X140542619Y-76042232D01*
X140495000Y-76095803D01*
X140447380Y-76196994D01*
X140542619Y-76899375D02*
X140495000Y-76952946D01*
X140447380Y-77054136D01*
X140447380Y-77292232D01*
X140495000Y-77381517D01*
X140542619Y-77423184D01*
X140637857Y-77458898D01*
X140733095Y-77446994D01*
X140875952Y-77381517D01*
X141447380Y-76738660D01*
X141447380Y-77357708D01*
X140447380Y-77816041D02*
X140447380Y-78435089D01*
X140828333Y-78054136D01*
X140828333Y-78196994D01*
X140875952Y-78286279D01*
X140923571Y-78327946D01*
X141018809Y-78363660D01*
X141256904Y-78333898D01*
X141352142Y-78274375D01*
X141399761Y-78220803D01*
X141447380Y-78119613D01*
X141447380Y-77833898D01*
X141399761Y-77744613D01*
X141352142Y-77702946D01*
X143057380Y-72310089D02*
X142390714Y-72393422D01*
X142581190Y-72369613D02*
X142485952Y-72429136D01*
X142438333Y-72482708D01*
X142390714Y-72583898D01*
X142390714Y-72679136D01*
X143009761Y-73316041D02*
X143057380Y-73214851D01*
X143057380Y-73024375D01*
X143009761Y-72935089D01*
X142914523Y-72899375D01*
X142533571Y-72946994D01*
X142438333Y-73006517D01*
X142390714Y-73107708D01*
X142390714Y-73298184D01*
X142438333Y-73387470D01*
X142533571Y-73423184D01*
X142628809Y-73411279D01*
X142724047Y-72923184D01*
X142390714Y-73774375D02*
X143057380Y-73929136D01*
X142390714Y-74250565D01*
X142962142Y-74560089D02*
X143009761Y-74601755D01*
X143057380Y-74548184D01*
X143009761Y-74506517D01*
X142962142Y-74560089D01*
X143057380Y-74548184D01*
X143057380Y-75548184D02*
X143057380Y-74976755D01*
X143057380Y-75262470D02*
X142057380Y-75387470D01*
X142200238Y-75274375D01*
X142295476Y-75167232D01*
X142343095Y-75066041D01*
D17*
%TO.C,MH3*%
X92500000Y-110500000D03*
X92500000Y-110500000D03*
%TD*%
%TO.C,MH1*%
X93091000Y-54864000D03*
%TD*%
%TO.C,MH4*%
X148500000Y-110500000D03*
%TD*%
%TO.C,MH2*%
X148082000Y-54991000D03*
%TD*%
D18*
%TO.C,J3*%
X138303000Y-112522000D03*
D19*
X135763000Y-112522000D03*
X133223000Y-112522000D03*
X130683000Y-112522000D03*
X128143000Y-112522000D03*
X125603000Y-112522000D03*
X123063000Y-112522000D03*
X120523000Y-112522000D03*
X117983000Y-112522000D03*
X115443000Y-112522000D03*
X112903000Y-112522000D03*
X110363000Y-112522000D03*
X107823000Y-112522000D03*
X105283000Y-112522000D03*
X102743000Y-112522000D03*
X100203000Y-112522000D03*
%TD*%
D20*
%TO.C,J2*%
X97877500Y-96320000D03*
D21*
X97877500Y-101400000D03*
%TD*%
D22*
%TO.C,U1*%
X111125000Y-96926000D03*
D23*
X111125000Y-94386000D03*
X111125000Y-91846000D03*
X111125000Y-89306000D03*
X111125000Y-86766000D03*
X111125000Y-84226000D03*
X111125000Y-81686000D03*
X111125000Y-79146000D03*
X111125000Y-76606000D03*
X111125000Y-74066000D03*
X111125000Y-71526000D03*
X111125000Y-68986000D03*
X111125000Y-66446000D03*
X111125000Y-63906000D03*
X111125000Y-61366000D03*
X136525000Y-61366000D03*
X136525000Y-63906000D03*
X136525000Y-66446000D03*
X136525000Y-68986000D03*
X136525000Y-71526000D03*
X136525000Y-74066000D03*
X136525000Y-76606000D03*
X136525000Y-79146000D03*
X136525000Y-81686000D03*
X136525000Y-84226000D03*
X136525000Y-86766000D03*
X136525000Y-89306000D03*
X136525000Y-91846000D03*
X136525000Y-94386000D03*
X136525000Y-96926000D03*
%TD*%
D20*
%TO.C,J1*%
X97877500Y-63600000D03*
D21*
X97877500Y-68680000D03*
%TD*%
M02*
