%TF.GenerationSoftware,KiCad,Pcbnew,8.0.1-rc1*%
%TF.CreationDate,2024-05-22T00:49:17-07:00*%
%TF.ProjectId,pwm_pcb_larger,70776d5f-7063-4625-9f6c-61726765722e,rev?*%
%TF.SameCoordinates,Original*%
%TF.FileFunction,Copper,L2,Bot*%
%TF.FilePolarity,Positive*%
%FSLAX46Y46*%
G04 Gerber Fmt 4.6, Leading zero omitted, Abs format (unit mm)*
G04 Created by KiCad (PCBNEW 8.0.1-rc1) date 2024-05-22 00:49:17*
%MOMM*%
%LPD*%
G01*
G04 APERTURE LIST*
G04 Aperture macros list*
%AMRoundRect*
0 Rectangle with rounded corners*
0 $1 Rounding radius*
0 $2 $3 $4 $5 $6 $7 $8 $9 X,Y pos of 4 corners*
0 Add a 4 corners polygon primitive as box body*
4,1,4,$2,$3,$4,$5,$6,$7,$8,$9,$2,$3,0*
0 Add four circle primitives for the rounded corners*
1,1,$1+$1,$2,$3*
1,1,$1+$1,$4,$5*
1,1,$1+$1,$6,$7*
1,1,$1+$1,$8,$9*
0 Add four rect primitives between the rounded corners*
20,1,$1+$1,$2,$3,$4,$5,0*
20,1,$1+$1,$4,$5,$6,$7,0*
20,1,$1+$1,$6,$7,$8,$9,0*
20,1,$1+$1,$8,$9,$2,$3,0*%
G04 Aperture macros list end*
%ADD10C,0.250000*%
%TA.AperFunction,NonConductor*%
%ADD11C,0.250000*%
%TD*%
%TA.AperFunction,ComponentPad*%
%ADD12RoundRect,0.250001X0.499999X0.499999X-0.499999X0.499999X-0.499999X-0.499999X0.499999X-0.499999X0*%
%TD*%
%TA.AperFunction,ComponentPad*%
%ADD13C,1.500000*%
%TD*%
%TA.AperFunction,ComponentPad*%
%ADD14R,2.475000X2.475000*%
%TD*%
%TA.AperFunction,ComponentPad*%
%ADD15C,2.475000*%
%TD*%
%TA.AperFunction,SMDPad,CuDef*%
%ADD16R,1.500000X1.500000*%
%TD*%
%TA.AperFunction,ComponentPad*%
%ADD17R,1.524000X1.524000*%
%TD*%
%TA.AperFunction,ComponentPad*%
%ADD18C,1.524000*%
%TD*%
%TA.AperFunction,ViaPad*%
%ADD19C,0.800000*%
%TD*%
%TA.AperFunction,Conductor*%
%ADD20C,0.250000*%
%TD*%
%TA.AperFunction,Conductor*%
%ADD21C,2.000000*%
%TD*%
G04 APERTURE END LIST*
D10*
D11*
X162204647Y-77178714D02*
X161680837Y-77244190D01*
X161680837Y-77244190D02*
X161585599Y-77208476D01*
X161585599Y-77208476D02*
X161537980Y-77119190D01*
X161537980Y-77119190D02*
X161537980Y-76928714D01*
X161537980Y-76928714D02*
X161585599Y-76827523D01*
X162157028Y-77184666D02*
X162204647Y-77083476D01*
X162204647Y-77083476D02*
X162204647Y-76845380D01*
X162204647Y-76845380D02*
X162157028Y-76756095D01*
X162157028Y-76756095D02*
X162061789Y-76720380D01*
X162061789Y-76720380D02*
X161966551Y-76732285D01*
X161966551Y-76732285D02*
X161871313Y-76791809D01*
X161871313Y-76791809D02*
X161823694Y-76893000D01*
X161823694Y-76893000D02*
X161823694Y-77131095D01*
X161823694Y-77131095D02*
X161776075Y-77232285D01*
X161537980Y-77738238D02*
X162537980Y-77613238D01*
X161585599Y-77732285D02*
X161537980Y-77833476D01*
X161537980Y-77833476D02*
X161537980Y-78023952D01*
X161537980Y-78023952D02*
X161585599Y-78113238D01*
X161585599Y-78113238D02*
X161633218Y-78154904D01*
X161633218Y-78154904D02*
X161728456Y-78190619D01*
X161728456Y-78190619D02*
X162014170Y-78154904D01*
X162014170Y-78154904D02*
X162109408Y-78095381D01*
X162109408Y-78095381D02*
X162157028Y-78041809D01*
X162157028Y-78041809D02*
X162204647Y-77940619D01*
X162204647Y-77940619D02*
X162204647Y-77750142D01*
X162204647Y-77750142D02*
X162157028Y-77660857D01*
X162204647Y-78559666D02*
X161537980Y-78643000D01*
X161728456Y-78619190D02*
X161633218Y-78678714D01*
X161633218Y-78678714D02*
X161585599Y-78732285D01*
X161585599Y-78732285D02*
X161537980Y-78833476D01*
X161537980Y-78833476D02*
X161537980Y-78928714D01*
X162204647Y-79178714D02*
X161537980Y-79262048D01*
X161204647Y-79303714D02*
X161252266Y-79250143D01*
X161252266Y-79250143D02*
X161299885Y-79291810D01*
X161299885Y-79291810D02*
X161252266Y-79345381D01*
X161252266Y-79345381D02*
X161204647Y-79303714D01*
X161204647Y-79303714D02*
X161299885Y-79291810D01*
X162204647Y-79797762D02*
X162157028Y-79708476D01*
X162157028Y-79708476D02*
X162061789Y-79672762D01*
X162061789Y-79672762D02*
X161204647Y-79779904D01*
X161299885Y-81006096D02*
X161252266Y-81059667D01*
X161252266Y-81059667D02*
X161204647Y-81160857D01*
X161204647Y-81160857D02*
X161204647Y-81398953D01*
X161204647Y-81398953D02*
X161252266Y-81488238D01*
X161252266Y-81488238D02*
X161299885Y-81529905D01*
X161299885Y-81529905D02*
X161395123Y-81565619D01*
X161395123Y-81565619D02*
X161490361Y-81553715D01*
X161490361Y-81553715D02*
X161633218Y-81488238D01*
X161633218Y-81488238D02*
X162204647Y-80845381D01*
X162204647Y-80845381D02*
X162204647Y-81464429D01*
X161204647Y-82208477D02*
X161204647Y-82303715D01*
X161204647Y-82303715D02*
X161252266Y-82393000D01*
X161252266Y-82393000D02*
X161299885Y-82434667D01*
X161299885Y-82434667D02*
X161395123Y-82470381D01*
X161395123Y-82470381D02*
X161585599Y-82494191D01*
X161585599Y-82494191D02*
X161823694Y-82464429D01*
X161823694Y-82464429D02*
X162014170Y-82393000D01*
X162014170Y-82393000D02*
X162109408Y-82333477D01*
X162109408Y-82333477D02*
X162157028Y-82279905D01*
X162157028Y-82279905D02*
X162204647Y-82178715D01*
X162204647Y-82178715D02*
X162204647Y-82083477D01*
X162204647Y-82083477D02*
X162157028Y-81994191D01*
X162157028Y-81994191D02*
X162109408Y-81952524D01*
X162109408Y-81952524D02*
X162014170Y-81916810D01*
X162014170Y-81916810D02*
X161823694Y-81893000D01*
X161823694Y-81893000D02*
X161585599Y-81922762D01*
X161585599Y-81922762D02*
X161395123Y-81994191D01*
X161395123Y-81994191D02*
X161299885Y-82053715D01*
X161299885Y-82053715D02*
X161252266Y-82107286D01*
X161252266Y-82107286D02*
X161204647Y-82208477D01*
X161299885Y-82910858D02*
X161252266Y-82964429D01*
X161252266Y-82964429D02*
X161204647Y-83065619D01*
X161204647Y-83065619D02*
X161204647Y-83303715D01*
X161204647Y-83303715D02*
X161252266Y-83393000D01*
X161252266Y-83393000D02*
X161299885Y-83434667D01*
X161299885Y-83434667D02*
X161395123Y-83470381D01*
X161395123Y-83470381D02*
X161490361Y-83458477D01*
X161490361Y-83458477D02*
X161633218Y-83393000D01*
X161633218Y-83393000D02*
X162204647Y-82750143D01*
X162204647Y-82750143D02*
X162204647Y-83369191D01*
X161204647Y-83827524D02*
X161204647Y-84446572D01*
X161204647Y-84446572D02*
X161585599Y-84065620D01*
X161585599Y-84065620D02*
X161585599Y-84208477D01*
X161585599Y-84208477D02*
X161633218Y-84297762D01*
X161633218Y-84297762D02*
X161680837Y-84339429D01*
X161680837Y-84339429D02*
X161776075Y-84375143D01*
X161776075Y-84375143D02*
X162014170Y-84345381D01*
X162014170Y-84345381D02*
X162109408Y-84285858D01*
X162109408Y-84285858D02*
X162157028Y-84232286D01*
X162157028Y-84232286D02*
X162204647Y-84131096D01*
X162204647Y-84131096D02*
X162204647Y-83845381D01*
X162204647Y-83845381D02*
X162157028Y-83756096D01*
X162157028Y-83756096D02*
X162109408Y-83714429D01*
X163814591Y-78916809D02*
X163147924Y-79000143D01*
X163338400Y-78976333D02*
X163243162Y-79035857D01*
X163243162Y-79035857D02*
X163195543Y-79089428D01*
X163195543Y-79089428D02*
X163147924Y-79190619D01*
X163147924Y-79190619D02*
X163147924Y-79285857D01*
X163766972Y-79922762D02*
X163814591Y-79821572D01*
X163814591Y-79821572D02*
X163814591Y-79631095D01*
X163814591Y-79631095D02*
X163766972Y-79541810D01*
X163766972Y-79541810D02*
X163671733Y-79506095D01*
X163671733Y-79506095D02*
X163290781Y-79553715D01*
X163290781Y-79553715D02*
X163195543Y-79613238D01*
X163195543Y-79613238D02*
X163147924Y-79714429D01*
X163147924Y-79714429D02*
X163147924Y-79904905D01*
X163147924Y-79904905D02*
X163195543Y-79994191D01*
X163195543Y-79994191D02*
X163290781Y-80029905D01*
X163290781Y-80029905D02*
X163386019Y-80018000D01*
X163386019Y-80018000D02*
X163481257Y-79529905D01*
X163147924Y-80381096D02*
X163814591Y-80535858D01*
X163814591Y-80535858D02*
X163147924Y-80857286D01*
X163719352Y-81166810D02*
X163766972Y-81208477D01*
X163766972Y-81208477D02*
X163814591Y-81154905D01*
X163814591Y-81154905D02*
X163766972Y-81113239D01*
X163766972Y-81113239D02*
X163719352Y-81166810D01*
X163719352Y-81166810D02*
X163814591Y-81154905D01*
X162909829Y-81696572D02*
X162862210Y-81750143D01*
X162862210Y-81750143D02*
X162814591Y-81851333D01*
X162814591Y-81851333D02*
X162814591Y-82089429D01*
X162814591Y-82089429D02*
X162862210Y-82178714D01*
X162862210Y-82178714D02*
X162909829Y-82220381D01*
X162909829Y-82220381D02*
X163005067Y-82256095D01*
X163005067Y-82256095D02*
X163100305Y-82244191D01*
X163100305Y-82244191D02*
X163243162Y-82178714D01*
X163243162Y-82178714D02*
X163814591Y-81535857D01*
X163814591Y-81535857D02*
X163814591Y-82154905D01*
D12*
%TO.P,J9,1,Pin_1*%
%TO.N,+VDC*%
X95358574Y-114120000D03*
D13*
%TO.P,J9,2,Pin_2*%
%TO.N,LED_7*%
X95358574Y-117120000D03*
%TD*%
D12*
%TO.P,J13,1,Pin_1*%
%TO.N,+VDC*%
X141122858Y-129060000D03*
D13*
%TO.P,J13,2,Pin_2*%
%TO.N,LED_11*%
X141122858Y-132060000D03*
%TD*%
D12*
%TO.P,J4,1,Pin_1*%
%TO.N,+VDC*%
X152501429Y-114120000D03*
D13*
%TO.P,J4,2,Pin_2*%
%TO.N,LED_2*%
X152501429Y-117120000D03*
%TD*%
D12*
%TO.P,J15,1,Pin_1*%
%TO.N,+VDC*%
X118245716Y-129120000D03*
D13*
%TO.P,J15,2,Pin_2*%
%TO.N,LED_13*%
X118245716Y-132120000D03*
%TD*%
D12*
%TO.P,J6,1,Pin_1*%
%TO.N,+VDC*%
X129644287Y-114120000D03*
D13*
%TO.P,J6,2,Pin_2*%
%TO.N,LED_4*%
X129644287Y-117120000D03*
%TD*%
D12*
%TO.P,J11,1,Pin_1*%
%TO.N,+VDC*%
X164000000Y-129060000D03*
D13*
%TO.P,J11,2,Pin_2*%
%TO.N,LED_9*%
X164000000Y-132060000D03*
%TD*%
D12*
%TO.P,J17,1,Pin_1*%
%TO.N,+VDC*%
X95368574Y-129120000D03*
D13*
%TO.P,J17,2,Pin_2*%
%TO.N,LED_15*%
X95368574Y-132120000D03*
%TD*%
D14*
%TO.P,J2,1,Pin_1*%
%TO.N,Net-(D4-A)*%
X88000000Y-91750000D03*
D15*
%TO.P,J2,2,Pin_2*%
%TO.N,GND*%
X88000000Y-100000000D03*
%TD*%
D12*
%TO.P,J14,1,Pin_1*%
%TO.N,+VDC*%
X129684287Y-129060000D03*
D13*
%TO.P,J14,2,Pin_2*%
%TO.N,LED_12*%
X129684287Y-132060000D03*
%TD*%
D12*
%TO.P,J12,1,Pin_1*%
%TO.N,+VDC*%
X152561429Y-129060000D03*
D13*
%TO.P,J12,2,Pin_2*%
%TO.N,LED_10*%
X152561429Y-132060000D03*
%TD*%
D12*
%TO.P,J8,1,Pin_1*%
%TO.N,+VDC*%
X106787145Y-114120000D03*
D13*
%TO.P,J8,2,Pin_2*%
%TO.N,LED_6*%
X106787145Y-117120000D03*
%TD*%
D12*
%TO.P,J7,1,Pin_1*%
%TO.N,+VDC*%
X118215716Y-114120000D03*
D13*
%TO.P,J7,2,Pin_2*%
%TO.N,LED_5*%
X118215716Y-117120000D03*
%TD*%
D12*
%TO.P,J10,1,Pin_1*%
%TO.N,+VDC*%
X83930000Y-114120000D03*
D13*
%TO.P,J10,2,Pin_2*%
%TO.N,LED_8*%
X83930000Y-117120000D03*
%TD*%
D12*
%TO.P,J18,1,Pin_1*%
%TO.N,+VDC*%
X83930000Y-129120000D03*
D13*
%TO.P,J18,2,Pin_2*%
%TO.N,LED_16*%
X83930000Y-132120000D03*
%TD*%
D12*
%TO.P,J3,1,Pin_1*%
%TO.N,+VDC*%
X163930000Y-114120000D03*
D13*
%TO.P,J3,2,Pin_2*%
%TO.N,LED_1*%
X163930000Y-117120000D03*
%TD*%
D16*
%TO.P,SW1,1,A*%
%TO.N,+5V*%
X157375000Y-51550000D03*
%TO.P,SW1,2,B*%
%TO.N,Net-(Q17-D)*%
X149575000Y-51550000D03*
%TD*%
D17*
%TO.P,U1,1,EN*%
%TO.N,unconnected-(U1-EN-Pad1)*%
X111125000Y-96926000D03*
D18*
%TO.P,U1,2,SENSOR_VP*%
%TO.N,unconnected-(U1-SENSOR_VP-Pad2)*%
X111125000Y-94386000D03*
%TO.P,U1,3,SENSOR_VN*%
%TO.N,unconnected-(U1-SENSOR_VN-Pad3)*%
X111125000Y-91846000D03*
%TO.P,U1,4,IO34*%
%TO.N,unconnected-(U1-IO34-Pad4)*%
X111125000Y-89306000D03*
%TO.P,U1,5,IO35*%
%TO.N,unconnected-(U1-IO35-Pad5)*%
X111125000Y-86766000D03*
%TO.P,U1,6,IO32*%
%TO.N,PWM_16*%
X111125000Y-84226000D03*
%TO.P,U1,7,IO33*%
%TO.N,unconnected-(U1-IO33-Pad7)*%
X111125000Y-81686000D03*
%TO.P,U1,8,IO25*%
%TO.N,PWM_13*%
X111125000Y-79146000D03*
%TO.P,U1,9,IO26*%
%TO.N,PWM_14*%
X111125000Y-76606000D03*
%TO.P,U1,10,IO27*%
%TO.N,PWM_15*%
X111125000Y-74066000D03*
%TO.P,U1,11,IO14*%
%TO.N,PWM_4*%
X111125000Y-71526000D03*
%TO.P,U1,12,IO12*%
%TO.N,PWM_2*%
X111125000Y-68986000D03*
%TO.P,U1,13,IO13*%
%TO.N,PWM_3*%
X111125000Y-66446000D03*
%TO.P,U1,14,GND*%
%TO.N,GND*%
X111125000Y-63906000D03*
%TO.P,U1,15,VIN*%
%TO.N,esp32_power*%
X111125000Y-61366000D03*
%TO.P,U1,16,3V3*%
%TO.N,unconnected-(U1-3V3-Pad16)*%
X136525000Y-61366000D03*
%TO.P,U1,17,GND*%
%TO.N,GND*%
X136525000Y-63906000D03*
%TO.P,U1,18,IO15*%
%TO.N,PWM_5*%
X136525000Y-66446000D03*
%TO.P,U1,19,IO2*%
%TO.N,unconnected-(U1-IO2-Pad19)*%
X136525000Y-68986000D03*
%TO.P,U1,20,IO4*%
%TO.N,unconnected-(U1-IO4-Pad20)*%
X136525000Y-71526000D03*
%TO.P,U1,21,IO16*%
%TO.N,PWM_6*%
X136525000Y-74066000D03*
%TO.P,U1,22,IO17*%
%TO.N,PWM_7*%
X136525000Y-76606000D03*
%TO.P,U1,23,IO5*%
%TO.N,PWM_1*%
X136525000Y-79146000D03*
%TO.P,U1,24,IO18*%
%TO.N,PWM_8*%
X136525000Y-81686000D03*
%TO.P,U1,25,IO19*%
%TO.N,PWM_9*%
X136525000Y-84226000D03*
%TO.P,U1,26,IO21*%
%TO.N,PWM_10*%
X136525000Y-86766000D03*
%TO.P,U1,27,RXD0/IO3*%
%TO.N,unconnected-(U1-RXD0{slash}IO3-Pad27)*%
X136525000Y-89306000D03*
%TO.P,U1,28,TXD0/IO1*%
%TO.N,unconnected-(U1-TXD0{slash}IO1-Pad28)*%
X136525000Y-91846000D03*
%TO.P,U1,29,IO22*%
%TO.N,PWM_11*%
X136525000Y-94386000D03*
%TO.P,U1,30,IO23*%
%TO.N,PWM_12*%
X136525000Y-96926000D03*
%TD*%
D12*
%TO.P,J16,1,Pin_1*%
%TO.N,+VDC*%
X106807145Y-129120000D03*
D13*
%TO.P,J16,2,Pin_2*%
%TO.N,LED_14*%
X106807145Y-132120000D03*
%TD*%
D14*
%TO.P,J1,1,Pin_1*%
%TO.N,+VDC*%
X88000000Y-61750000D03*
D15*
%TO.P,J1,2,Pin_2*%
%TO.N,GND*%
X88000000Y-70000000D03*
%TD*%
D12*
%TO.P,J5,1,Pin_1*%
%TO.N,+VDC*%
X141072858Y-114120000D03*
D13*
%TO.P,J5,2,Pin_2*%
%TO.N,LED_3*%
X141072858Y-117120000D03*
%TD*%
D19*
%TO.N,GND*%
X90000000Y-74000000D03*
%TO.N,+5V*%
X105659400Y-77003400D03*
X132734400Y-53800000D03*
X160625000Y-51925000D03*
%TO.N,+VDC*%
X146000000Y-115000000D03*
X107000000Y-123000000D03*
X125000000Y-124000000D03*
X116000000Y-123000000D03*
X146000000Y-124000000D03*
X141000000Y-124000000D03*
%TO.N,LED_1*%
X158808300Y-74942900D03*
%TO.N,LED_4*%
X133000000Y-70500000D03*
X134500000Y-83000000D03*
%TO.N,LED_5*%
X153586400Y-55953600D03*
%TO.N,LED_6*%
X151945800Y-63866300D03*
%TO.N,LED_7*%
X151199300Y-67428600D03*
%TO.N,LED_8*%
X150576000Y-83206000D03*
%TO.N,LED_9*%
X159500000Y-90500000D03*
%TO.N,LED_10*%
X156500000Y-109000000D03*
%TO.N,Net-(D1-A)*%
X104500000Y-60875000D03*
X102325000Y-60600000D03*
%TO.N,Net-(Q17-D)*%
X143750000Y-51225000D03*
%TO.N,Net-(Q2-G)*%
X117069200Y-67584400D03*
X122130300Y-60517800D03*
%TO.N,Net-(Q3-G)*%
X117031600Y-60137500D03*
X120608300Y-50679900D03*
%TO.N,PWM_3*%
X112959800Y-62803000D03*
%TO.N,PWM_5*%
X138198000Y-63026000D03*
%TO.N,PWM_13*%
X113291500Y-96120500D03*
%TD*%
D20*
%TO.N,+5V*%
X113683800Y-72850600D02*
X132734400Y-53800000D01*
X109812200Y-72850600D02*
X113683800Y-72850600D01*
X160625000Y-51925000D02*
X159925000Y-51925000D01*
X159550000Y-51550000D02*
X157375000Y-51550000D01*
X159925000Y-51925000D02*
X159550000Y-51550000D01*
X105659400Y-77003400D02*
X109812200Y-72850600D01*
D21*
%TO.N,+VDC*%
X116000000Y-123000000D02*
X107000000Y-123000000D01*
X117000000Y-124000000D02*
X116000000Y-123000000D01*
X125000000Y-124000000D02*
X117000000Y-124000000D01*
X146000000Y-124000000D02*
X146000000Y-115000000D01*
X125000000Y-124000000D02*
X146000000Y-124000000D01*
D20*
%TO.N,LED_1*%
X158808300Y-74942900D02*
X160747567Y-76882167D01*
X160747567Y-76453680D02*
X160937947Y-76263300D01*
X166000000Y-115050000D02*
X163930000Y-117120000D01*
X166000000Y-78181772D02*
X166000000Y-115050000D01*
X160747567Y-76882167D02*
X160747567Y-76453680D01*
X160937947Y-76263300D02*
X164081528Y-76263300D01*
X164081528Y-76263300D02*
X166000000Y-78181772D01*
%TO.N,LED_4*%
X134500000Y-81486500D02*
X134500000Y-72000000D01*
X134500000Y-83000000D02*
X134500000Y-81486500D01*
X134500000Y-72000000D02*
X133000000Y-70500000D01*
%TO.N,LED_5*%
X118215716Y-117120000D02*
X120095716Y-119000000D01*
X153586400Y-91243600D02*
X153586400Y-55953600D01*
X120095716Y-119000000D02*
X134500000Y-119000000D01*
X134500000Y-110330000D02*
X153586400Y-91243600D01*
X134500000Y-119000000D02*
X134500000Y-110330000D01*
%TO.N,LED_6*%
X106787145Y-117120000D02*
X112233541Y-111673604D01*
X151945800Y-92247804D02*
X151945800Y-63866300D01*
X112233541Y-111673604D02*
X132520000Y-111673604D01*
X132520000Y-111673604D02*
X151945800Y-92247804D01*
%TO.N,LED_7*%
X151301300Y-67530600D02*
X151301300Y-92238700D01*
X101278574Y-111200000D02*
X132340000Y-111200000D01*
X151199300Y-67428600D02*
X151301300Y-67530600D01*
X151301300Y-92238700D02*
X132340000Y-111200000D01*
X95358574Y-117120000D02*
X101278574Y-111200000D01*
%TO.N,LED_8*%
X83930000Y-117120000D02*
X90550000Y-110500000D01*
X150576000Y-84555100D02*
X150576000Y-83206000D01*
X90550000Y-110500000D02*
X124631100Y-110500000D01*
X124631100Y-110500000D02*
X150576000Y-84555100D01*
%TO.N,LED_9*%
X159500000Y-127560000D02*
X159500000Y-90500000D01*
X164000000Y-132060000D02*
X159500000Y-127560000D01*
%TO.N,LED_10*%
X156500000Y-128121429D02*
X156500000Y-109000000D01*
X152561429Y-132060000D02*
X156500000Y-128121429D01*
%TO.N,Net-(D1-A)*%
X104500000Y-60875000D02*
X102600000Y-60875000D01*
X102600000Y-60875000D02*
X102325000Y-60600000D01*
%TO.N,Net-(Q17-D)*%
X144500000Y-51550000D02*
X149575000Y-51550000D01*
X144175000Y-51225000D02*
X144500000Y-51550000D01*
X143750000Y-51225000D02*
X144175000Y-51225000D01*
%TO.N,Net-(Q2-G)*%
X117069200Y-67584400D02*
X117069200Y-65578900D01*
X117069200Y-65578900D02*
X122130300Y-60517800D01*
%TO.N,Net-(Q3-G)*%
X120608300Y-50679900D02*
X120608300Y-56560800D01*
X120608300Y-56560800D02*
X117031600Y-60137500D01*
%TO.N,PWM_3*%
X112959800Y-64611200D02*
X112959800Y-62803000D01*
X111125000Y-66446000D02*
X112959800Y-64611200D01*
%TO.N,PWM_5*%
X136525000Y-66446000D02*
X138198000Y-64773000D01*
X138198000Y-64773000D02*
X138198000Y-63026000D01*
%TO.N,PWM_13*%
X111125000Y-79146000D02*
X113291500Y-81312500D01*
X113291500Y-81312500D02*
X113291500Y-96120500D01*
%TD*%
%TA.AperFunction,Conductor*%
%TO.N,GND*%
G36*
X85998797Y-46139732D02*
G01*
X86478145Y-46173947D01*
X86487949Y-46175039D01*
X86963094Y-46247262D01*
X86972757Y-46249127D01*
X87440656Y-46358900D01*
X87450130Y-46361524D01*
X87907821Y-46508151D01*
X87917083Y-46511531D01*
X88361647Y-46694077D01*
X88370612Y-46698182D01*
X88584934Y-46806839D01*
X88799250Y-46915494D01*
X88807866Y-46920302D01*
X88883015Y-46966253D01*
X89217875Y-47171010D01*
X89226067Y-47176478D01*
X89614855Y-47458999D01*
X89622586Y-47465100D01*
X89987679Y-47777637D01*
X89994908Y-47784343D01*
X90333994Y-48124918D01*
X90340656Y-48132164D01*
X90567172Y-48399128D01*
X90651977Y-48499076D01*
X90657348Y-48505874D01*
X90799999Y-48700000D01*
X90807187Y-48703638D01*
X90817210Y-48705088D01*
X94943202Y-49925077D01*
X113993598Y-47800713D01*
X114006432Y-47799953D01*
X141397070Y-47600021D01*
X141402936Y-47600118D01*
X161178429Y-48399128D01*
X161220006Y-48408110D01*
X168350085Y-51298683D01*
X168552712Y-51380829D01*
X168607445Y-51424259D01*
X168620099Y-51446899D01*
X170376651Y-55545519D01*
X170384966Y-55614892D01*
X170372267Y-55652383D01*
X168603711Y-58992989D01*
X168595425Y-59006480D01*
X166200000Y-62399999D01*
X166200000Y-62400000D01*
X168192871Y-69773624D01*
X168195383Y-69826928D01*
X167033257Y-76606002D01*
X167000000Y-76800000D01*
X171821034Y-81104495D01*
X172580511Y-81782599D01*
X172610810Y-81823783D01*
X173569585Y-83933087D01*
X173579406Y-84002263D01*
X173555900Y-84058799D01*
X173000000Y-84799999D01*
X172200783Y-85998824D01*
X172199194Y-86001150D01*
X169400002Y-89999996D01*
X169399994Y-90000009D01*
X166866532Y-94677170D01*
X166817294Y-94726742D01*
X166749072Y-94741824D01*
X166683525Y-94717628D01*
X166641465Y-94661837D01*
X166633500Y-94618111D01*
X166633500Y-78119377D01*
X166633499Y-78119373D01*
X166618012Y-78041514D01*
X166609155Y-77996987D01*
X166561400Y-77881697D01*
X166561399Y-77881696D01*
X166561396Y-77881690D01*
X166492072Y-77777940D01*
X166452865Y-77738733D01*
X166403833Y-77689701D01*
X165514132Y-76800000D01*
X164485364Y-75771231D01*
X164485360Y-75771228D01*
X164381609Y-75701903D01*
X164381600Y-75701898D01*
X164266313Y-75654145D01*
X164266305Y-75654143D01*
X164143926Y-75629800D01*
X164143922Y-75629800D01*
X161000341Y-75629800D01*
X160875553Y-75629800D01*
X160875548Y-75629800D01*
X160753169Y-75654143D01*
X160753161Y-75654145D01*
X160637874Y-75701898D01*
X160637864Y-75701904D01*
X160617776Y-75715326D01*
X160551098Y-75736202D01*
X160483718Y-75717716D01*
X160461207Y-75699903D01*
X160111326Y-75350022D01*
X159754920Y-74993615D01*
X159721435Y-74932292D01*
X159719282Y-74918912D01*
X159701842Y-74752972D01*
X159642827Y-74571344D01*
X159547340Y-74405956D01*
X159419553Y-74264034D01*
X159265052Y-74151782D01*
X159090588Y-74074106D01*
X159090586Y-74074105D01*
X158903787Y-74034400D01*
X158712813Y-74034400D01*
X158526014Y-74074105D01*
X158351546Y-74151783D01*
X158197045Y-74264035D01*
X158069259Y-74405957D01*
X157973773Y-74571343D01*
X157973770Y-74571350D01*
X157930775Y-74703676D01*
X157914758Y-74752972D01*
X157894796Y-74942900D01*
X157914758Y-75132828D01*
X157914759Y-75132831D01*
X157973770Y-75314449D01*
X157973773Y-75314456D01*
X158069260Y-75479844D01*
X158197047Y-75621766D01*
X158351548Y-75734018D01*
X158526012Y-75811694D01*
X158712813Y-75851400D01*
X158769534Y-75851400D01*
X158836573Y-75871085D01*
X158857215Y-75887719D01*
X160343730Y-77374236D01*
X160343734Y-77374239D01*
X160447487Y-77443565D01*
X160447488Y-77443565D01*
X160447492Y-77443568D01*
X160487520Y-77460148D01*
X160541922Y-77503986D01*
X160563988Y-77570280D01*
X160564067Y-77574708D01*
X160564067Y-85085072D01*
X164455408Y-85085072D01*
X164455408Y-77832446D01*
X164475093Y-77765407D01*
X164527897Y-77719652D01*
X164597055Y-77709708D01*
X164660611Y-77738733D01*
X164667089Y-77744765D01*
X165330181Y-78407857D01*
X165363666Y-78469180D01*
X165366500Y-78495538D01*
X165366500Y-113266341D01*
X165346815Y-113333380D01*
X165294011Y-113379135D01*
X165224853Y-113389079D01*
X165161297Y-113360054D01*
X165124794Y-113305345D01*
X165123041Y-113300058D01*
X165122115Y-113297262D01*
X165122115Y-113297261D01*
X165029032Y-113146352D01*
X165029029Y-113146348D01*
X164903651Y-113020970D01*
X164903647Y-113020967D01*
X164752738Y-112927884D01*
X164752735Y-112927883D01*
X164584428Y-112872113D01*
X164480551Y-112861500D01*
X164480544Y-112861500D01*
X163379456Y-112861500D01*
X163379448Y-112861500D01*
X163275571Y-112872113D01*
X163107264Y-112927883D01*
X163107261Y-112927884D01*
X162956352Y-113020967D01*
X162956348Y-113020970D01*
X162830970Y-113146348D01*
X162830967Y-113146352D01*
X162737884Y-113297261D01*
X162737883Y-113297264D01*
X162682113Y-113465571D01*
X162671500Y-113569448D01*
X162671500Y-114670551D01*
X162682113Y-114774428D01*
X162737883Y-114942735D01*
X162737884Y-114942738D01*
X162830967Y-115093647D01*
X162830970Y-115093651D01*
X162956348Y-115219029D01*
X162956352Y-115219032D01*
X163107261Y-115312115D01*
X163107264Y-115312116D01*
X163275571Y-115367886D01*
X163275572Y-115367886D01*
X163275575Y-115367887D01*
X163379456Y-115378500D01*
X163379461Y-115378500D01*
X164476233Y-115378500D01*
X164543272Y-115398185D01*
X164589027Y-115450989D01*
X164598971Y-115520147D01*
X164569946Y-115583703D01*
X164563914Y-115590181D01*
X164301606Y-115852488D01*
X164240283Y-115885973D01*
X164181834Y-115884583D01*
X164149372Y-115875885D01*
X164149365Y-115875884D01*
X163930002Y-115856693D01*
X163929998Y-115856693D01*
X163710634Y-115875884D01*
X163710627Y-115875885D01*
X163497920Y-115932881D01*
X163298346Y-116025944D01*
X163298342Y-116025946D01*
X163117967Y-116152247D01*
X163117960Y-116152252D01*
X162962252Y-116307960D01*
X162962247Y-116307967D01*
X162835946Y-116488342D01*
X162835944Y-116488346D01*
X162742881Y-116687920D01*
X162685885Y-116900627D01*
X162685884Y-116900634D01*
X162666693Y-117119997D01*
X162666693Y-117120002D01*
X162685872Y-117339229D01*
X162685885Y-117339371D01*
X162742880Y-117552076D01*
X162742881Y-117552079D01*
X162742882Y-117552081D01*
X162811746Y-117699761D01*
X162835944Y-117751654D01*
X162962251Y-117932038D01*
X163117962Y-118087749D01*
X163298346Y-118214056D01*
X163497924Y-118307120D01*
X163710629Y-118364115D01*
X163867322Y-118377823D01*
X163929998Y-118383307D01*
X163930000Y-118383307D01*
X163930002Y-118383307D01*
X163984842Y-118378509D01*
X164149371Y-118364115D01*
X164362076Y-118307120D01*
X164561654Y-118214056D01*
X164674690Y-118134907D01*
X166169500Y-118134907D01*
X166198723Y-118281822D01*
X166198725Y-118281830D01*
X166256051Y-118420229D01*
X166256056Y-118420238D01*
X166339280Y-118544790D01*
X166339283Y-118544794D01*
X166445205Y-118650716D01*
X166445209Y-118650719D01*
X166569761Y-118733943D01*
X166569767Y-118733946D01*
X166569768Y-118733947D01*
X166708170Y-118791275D01*
X166855092Y-118820499D01*
X166855096Y-118820500D01*
X166855097Y-118820500D01*
X167004904Y-118820500D01*
X167004905Y-118820499D01*
X167151830Y-118791275D01*
X167290232Y-118733947D01*
X167414791Y-118650719D01*
X167520719Y-118544791D01*
X167603947Y-118420232D01*
X167661275Y-118281830D01*
X167690500Y-118134903D01*
X167690500Y-117985097D01*
X167661275Y-117838170D01*
X167603947Y-117699768D01*
X167603946Y-117699767D01*
X167603943Y-117699761D01*
X167520719Y-117575209D01*
X167520716Y-117575205D01*
X167414794Y-117469283D01*
X167414790Y-117469280D01*
X167290238Y-117386056D01*
X167290229Y-117386051D01*
X167151830Y-117328725D01*
X167151822Y-117328723D01*
X167004907Y-117299500D01*
X167004903Y-117299500D01*
X166855097Y-117299500D01*
X166855092Y-117299500D01*
X166708177Y-117328723D01*
X166708169Y-117328725D01*
X166569770Y-117386051D01*
X166569761Y-117386056D01*
X166445209Y-117469280D01*
X166445205Y-117469283D01*
X166339283Y-117575205D01*
X166339280Y-117575209D01*
X166256056Y-117699761D01*
X166256051Y-117699770D01*
X166198725Y-117838169D01*
X166198723Y-117838177D01*
X166169500Y-117985092D01*
X166169500Y-118134907D01*
X164674690Y-118134907D01*
X164742038Y-118087749D01*
X164897749Y-117932038D01*
X165024056Y-117751654D01*
X165117120Y-117552076D01*
X165174115Y-117339371D01*
X165193307Y-117120000D01*
X165174115Y-116900629D01*
X165165417Y-116868168D01*
X165167078Y-116798319D01*
X165197508Y-116748394D01*
X166492071Y-115453833D01*
X166561400Y-115350075D01*
X166609155Y-115234785D01*
X166633500Y-115112394D01*
X166633500Y-114987606D01*
X166633500Y-95064622D01*
X166653185Y-94997583D01*
X166705989Y-94951828D01*
X166775147Y-94941884D01*
X166838703Y-94970909D01*
X166875136Y-95025409D01*
X167030163Y-95490488D01*
X167799999Y-97799999D01*
X168320266Y-98378073D01*
X171308816Y-101698685D01*
X171321299Y-101712554D01*
X171351515Y-101775553D01*
X171342875Y-101844886D01*
X171316812Y-101883187D01*
X170199999Y-103000000D01*
X171346295Y-104719443D01*
X171367103Y-104786142D01*
X171348548Y-104853503D01*
X171334874Y-104871637D01*
X169400000Y-106999999D01*
X168800000Y-112000000D01*
X171997444Y-120992813D01*
X172001656Y-121007455D01*
X173999999Y-129999999D01*
X174000000Y-130000000D01*
X174174597Y-130133964D01*
X174182094Y-130140202D01*
X174434749Y-130367886D01*
X174508505Y-130434352D01*
X174516444Y-130442182D01*
X174814642Y-130763960D01*
X174821846Y-130772471D01*
X174945682Y-130932882D01*
X175068713Y-131092251D01*
X175089921Y-131119722D01*
X175096332Y-131128846D01*
X175332140Y-131498797D01*
X175337704Y-131508460D01*
X175539318Y-131898084D01*
X175543984Y-131908189D01*
X175695500Y-132279365D01*
X175709788Y-132314367D01*
X175713533Y-132324870D01*
X175842173Y-132744288D01*
X175844960Y-132755084D01*
X175935402Y-133184362D01*
X175937208Y-133195366D01*
X175988719Y-133631033D01*
X175989529Y-133642154D01*
X176001694Y-134080680D01*
X176001502Y-134091830D01*
X175974222Y-134529686D01*
X175973029Y-134540772D01*
X175906526Y-134974399D01*
X175904342Y-134985334D01*
X175799152Y-135411240D01*
X175795994Y-135421935D01*
X175652966Y-135836670D01*
X175648860Y-135847037D01*
X175469160Y-136247233D01*
X175464140Y-136257190D01*
X175249204Y-136639644D01*
X175243309Y-136649109D01*
X174994897Y-137010689D01*
X174988176Y-137019587D01*
X174708278Y-137357397D01*
X174700785Y-137365654D01*
X174391668Y-137676959D01*
X174383463Y-137684511D01*
X174047633Y-137966785D01*
X174038783Y-137973568D01*
X173678969Y-138224520D01*
X173669546Y-138230482D01*
X173288614Y-138448112D01*
X173278692Y-138453202D01*
X172879768Y-138635722D01*
X172869430Y-138639901D01*
X172455720Y-138785846D01*
X172445049Y-138789079D01*
X172019891Y-138897272D01*
X172008971Y-138899533D01*
X171575835Y-138969090D01*
X171564757Y-138970362D01*
X171127090Y-139000730D01*
X171115943Y-139001000D01*
X170677354Y-138991928D01*
X170666227Y-138991197D01*
X170230204Y-138942759D01*
X170219188Y-138941031D01*
X169789280Y-138853618D01*
X169778464Y-138850907D01*
X169357501Y-138725034D01*
X169348237Y-138721860D01*
X169143051Y-138642384D01*
X169143045Y-138642382D01*
X79050000Y-138650000D01*
X79049999Y-138650000D01*
X78881921Y-138790884D01*
X78874340Y-138796755D01*
X78517977Y-139051301D01*
X78508790Y-139057268D01*
X78131955Y-139279012D01*
X78122276Y-139284146D01*
X77727334Y-139471767D01*
X77717241Y-139476026D01*
X77307285Y-139628056D01*
X77296856Y-139631408D01*
X76875077Y-139746662D01*
X76864392Y-139749080D01*
X76434078Y-139826659D01*
X76423221Y-139828124D01*
X75987761Y-139867418D01*
X75976818Y-139867920D01*
X75539575Y-139868627D01*
X75528629Y-139868161D01*
X75093022Y-139830273D01*
X75082161Y-139828842D01*
X74651621Y-139752658D01*
X74640928Y-139750275D01*
X74218771Y-139636383D01*
X74208331Y-139633065D01*
X73797880Y-139482360D01*
X73787773Y-139478133D01*
X73392235Y-139291793D01*
X73382540Y-139286691D01*
X73004978Y-139066160D01*
X72995772Y-139060222D01*
X72991608Y-139057268D01*
X72830196Y-138942759D01*
X72639158Y-138807233D01*
X72630512Y-138800506D01*
X72297616Y-138517030D01*
X72289597Y-138509566D01*
X72136308Y-138353688D01*
X71983018Y-138197809D01*
X71975690Y-138189668D01*
X71697825Y-137852072D01*
X71691244Y-137843315D01*
X71444259Y-137482510D01*
X71438484Y-137473218D01*
X71224289Y-137091992D01*
X71219370Y-137082251D01*
X71039663Y-136683614D01*
X71035615Y-136673459D01*
X70891802Y-136260538D01*
X70888659Y-136250044D01*
X70876313Y-136201035D01*
X70781846Y-135826022D01*
X70779649Y-135815325D01*
X70710680Y-135383537D01*
X70709432Y-135372654D01*
X70691803Y-135121288D01*
X74149500Y-135121288D01*
X74162856Y-135222743D01*
X74181162Y-135361789D01*
X74197278Y-135421935D01*
X74243947Y-135596104D01*
X74271750Y-135663226D01*
X74336776Y-135820212D01*
X74458064Y-136030289D01*
X74458066Y-136030292D01*
X74458067Y-136030293D01*
X74605733Y-136222736D01*
X74605739Y-136222743D01*
X74777256Y-136394260D01*
X74777262Y-136394265D01*
X74969711Y-136541936D01*
X75179788Y-136663224D01*
X75403900Y-136756054D01*
X75638211Y-136818838D01*
X75818586Y-136842584D01*
X75878711Y-136850500D01*
X75878712Y-136850500D01*
X76121289Y-136850500D01*
X76169388Y-136844167D01*
X76361789Y-136818838D01*
X76596100Y-136756054D01*
X76820212Y-136663224D01*
X77030289Y-136541936D01*
X77222738Y-136394265D01*
X77394265Y-136222738D01*
X77541936Y-136030289D01*
X77663224Y-135820212D01*
X77756054Y-135596100D01*
X77818838Y-135361789D01*
X77850500Y-135121288D01*
X77850500Y-134878712D01*
X77818838Y-134638211D01*
X77756054Y-134403900D01*
X77663224Y-134179788D01*
X77629449Y-134121288D01*
X170149500Y-134121288D01*
X170181161Y-134361785D01*
X170243947Y-134596104D01*
X170261390Y-134638214D01*
X170336776Y-134820212D01*
X170458064Y-135030289D01*
X170458066Y-135030292D01*
X170458067Y-135030293D01*
X170605733Y-135222736D01*
X170605739Y-135222743D01*
X170777256Y-135394260D01*
X170777262Y-135394265D01*
X170969711Y-135541936D01*
X171179788Y-135663224D01*
X171403900Y-135756054D01*
X171638211Y-135818838D01*
X171818586Y-135842584D01*
X171878711Y-135850500D01*
X171878712Y-135850500D01*
X172121289Y-135850500D01*
X172169388Y-135844167D01*
X172361789Y-135818838D01*
X172596100Y-135756054D01*
X172820212Y-135663224D01*
X173030289Y-135541936D01*
X173222738Y-135394265D01*
X173394265Y-135222738D01*
X173541936Y-135030289D01*
X173663224Y-134820212D01*
X173756054Y-134596100D01*
X173818838Y-134361789D01*
X173850500Y-134121288D01*
X173850500Y-133878712D01*
X173818838Y-133638211D01*
X173756054Y-133403900D01*
X173663224Y-133179788D01*
X173541936Y-132969711D01*
X173441001Y-132838170D01*
X173394266Y-132777263D01*
X173394260Y-132777256D01*
X173222743Y-132605739D01*
X173222736Y-132605733D01*
X173030293Y-132458067D01*
X173030292Y-132458066D01*
X173030289Y-132458064D01*
X172858661Y-132358974D01*
X172820214Y-132336777D01*
X172820205Y-132336773D01*
X172596104Y-132243947D01*
X172361785Y-132181161D01*
X172121289Y-132149500D01*
X172121288Y-132149500D01*
X171878712Y-132149500D01*
X171878711Y-132149500D01*
X171638214Y-132181161D01*
X171403895Y-132243947D01*
X171179794Y-132336773D01*
X171179785Y-132336777D01*
X170969706Y-132458067D01*
X170777263Y-132605733D01*
X170777256Y-132605739D01*
X170605739Y-132777256D01*
X170605733Y-132777263D01*
X170458067Y-132969706D01*
X170458064Y-132969710D01*
X170458064Y-132969711D01*
X170449181Y-132985097D01*
X170336777Y-133179785D01*
X170336773Y-133179794D01*
X170243947Y-133403895D01*
X170181161Y-133638214D01*
X170149500Y-133878711D01*
X170149500Y-134121288D01*
X77629449Y-134121288D01*
X77541936Y-133969711D01*
X77427442Y-133820499D01*
X77394266Y-133777263D01*
X77394260Y-133777256D01*
X77222743Y-133605739D01*
X77222736Y-133605733D01*
X77030293Y-133458067D01*
X77030292Y-133458066D01*
X77030289Y-133458064D01*
X76820212Y-133336776D01*
X76787695Y-133323307D01*
X76596104Y-133243947D01*
X76478944Y-133212554D01*
X76361789Y-133181162D01*
X76361788Y-133181161D01*
X76361785Y-133181161D01*
X76121289Y-133149500D01*
X76121288Y-133149500D01*
X75878712Y-133149500D01*
X75878711Y-133149500D01*
X75638214Y-133181161D01*
X75403895Y-133243947D01*
X75179794Y-133336773D01*
X75179785Y-133336777D01*
X74969706Y-133458067D01*
X74777263Y-133605733D01*
X74777256Y-133605739D01*
X74605739Y-133777256D01*
X74605733Y-133777263D01*
X74458067Y-133969706D01*
X74336777Y-134179785D01*
X74336773Y-134179794D01*
X74243947Y-134403895D01*
X74181161Y-134638214D01*
X74149500Y-134878711D01*
X74149500Y-135121288D01*
X70691803Y-135121288D01*
X70681501Y-134974399D01*
X70678841Y-134936475D01*
X70678559Y-134925553D01*
X70686600Y-134487655D01*
X70687144Y-134478135D01*
X70708108Y-134259797D01*
X70760561Y-133134907D01*
X80169500Y-133134907D01*
X80198723Y-133281822D01*
X80198725Y-133281830D01*
X80256051Y-133420229D01*
X80256056Y-133420238D01*
X80339280Y-133544790D01*
X80339283Y-133544794D01*
X80445205Y-133650716D01*
X80445209Y-133650719D01*
X80569761Y-133733943D01*
X80569767Y-133733946D01*
X80569768Y-133733947D01*
X80708170Y-133791275D01*
X80855092Y-133820499D01*
X80855096Y-133820500D01*
X80855097Y-133820500D01*
X81004904Y-133820500D01*
X81004905Y-133820499D01*
X81151830Y-133791275D01*
X81290232Y-133733947D01*
X81414791Y-133650719D01*
X81520719Y-133544791D01*
X81603947Y-133420232D01*
X81661275Y-133281830D01*
X81690500Y-133134903D01*
X81690500Y-132985097D01*
X81661275Y-132838170D01*
X81603947Y-132699768D01*
X81603946Y-132699767D01*
X81603943Y-132699761D01*
X81520719Y-132575209D01*
X81520716Y-132575205D01*
X81414794Y-132469283D01*
X81414790Y-132469280D01*
X81290238Y-132386056D01*
X81290229Y-132386051D01*
X81151830Y-132328725D01*
X81151822Y-132328723D01*
X81004907Y-132299500D01*
X81004903Y-132299500D01*
X80855097Y-132299500D01*
X80855092Y-132299500D01*
X80708177Y-132328723D01*
X80708169Y-132328725D01*
X80569770Y-132386051D01*
X80569761Y-132386056D01*
X80445209Y-132469280D01*
X80445205Y-132469283D01*
X80339283Y-132575205D01*
X80339280Y-132575209D01*
X80256056Y-132699761D01*
X80256051Y-132699770D01*
X80198725Y-132838169D01*
X80198723Y-132838177D01*
X80169500Y-132985092D01*
X80169500Y-133134907D01*
X70760561Y-133134907D01*
X70807886Y-132120002D01*
X82666693Y-132120002D01*
X82685657Y-132336773D01*
X82685885Y-132339371D01*
X82742880Y-132552076D01*
X82835944Y-132751654D01*
X82962251Y-132932038D01*
X83117962Y-133087749D01*
X83298346Y-133214056D01*
X83497924Y-133307120D01*
X83710629Y-133364115D01*
X83867322Y-133377823D01*
X83929998Y-133383307D01*
X83930000Y-133383307D01*
X83930002Y-133383307D01*
X83984842Y-133378509D01*
X84149371Y-133364115D01*
X84362076Y-133307120D01*
X84561654Y-133214056D01*
X84674690Y-133134907D01*
X86169500Y-133134907D01*
X86198723Y-133281822D01*
X86198725Y-133281830D01*
X86256051Y-133420229D01*
X86256056Y-133420238D01*
X86339280Y-133544790D01*
X86339283Y-133544794D01*
X86445205Y-133650716D01*
X86445209Y-133650719D01*
X86569761Y-133733943D01*
X86569767Y-133733946D01*
X86569768Y-133733947D01*
X86708170Y-133791275D01*
X86855092Y-133820499D01*
X86855096Y-133820500D01*
X86855097Y-133820500D01*
X87004904Y-133820500D01*
X87004905Y-133820499D01*
X87151830Y-133791275D01*
X87290232Y-133733947D01*
X87414791Y-133650719D01*
X87520719Y-133544791D01*
X87603947Y-133420232D01*
X87661275Y-133281830D01*
X87690499Y-133134907D01*
X91608074Y-133134907D01*
X91637297Y-133281822D01*
X91637299Y-133281830D01*
X91694625Y-133420229D01*
X91694630Y-133420238D01*
X91777854Y-133544790D01*
X91777857Y-133544794D01*
X91883779Y-133650716D01*
X91883783Y-133650719D01*
X92008335Y-133733943D01*
X92008341Y-133733946D01*
X92008342Y-133733947D01*
X92146744Y-133791275D01*
X92293666Y-133820499D01*
X92293670Y-133820500D01*
X92293671Y-133820500D01*
X92443478Y-133820500D01*
X92443479Y-133820499D01*
X92590404Y-133791275D01*
X92728806Y-133733947D01*
X92853365Y-133650719D01*
X92959293Y-133544791D01*
X93042521Y-133420232D01*
X93099849Y-133281830D01*
X93129074Y-133134903D01*
X93129074Y-132985097D01*
X93099849Y-132838170D01*
X93042521Y-132699768D01*
X93042520Y-132699767D01*
X93042517Y-132699761D01*
X92959293Y-132575209D01*
X92959290Y-132575205D01*
X92853368Y-132469283D01*
X92853364Y-132469280D01*
X92728812Y-132386056D01*
X92728803Y-132386051D01*
X92590404Y-132328725D01*
X92590396Y-132328723D01*
X92443481Y-132299500D01*
X92443477Y-132299500D01*
X92293671Y-132299500D01*
X92293666Y-132299500D01*
X92146751Y-132328723D01*
X92146743Y-132328725D01*
X92008344Y-132386051D01*
X92008335Y-132386056D01*
X91883783Y-132469280D01*
X91883779Y-132469283D01*
X91777857Y-132575205D01*
X91777854Y-132575209D01*
X91694630Y-132699761D01*
X91694625Y-132699770D01*
X91637299Y-132838169D01*
X91637297Y-132838177D01*
X91608074Y-132985092D01*
X91608074Y-133134907D01*
X87690499Y-133134907D01*
X87690500Y-133134903D01*
X87690500Y-132985097D01*
X87661275Y-132838170D01*
X87603947Y-132699768D01*
X87603946Y-132699767D01*
X87603943Y-132699761D01*
X87520719Y-132575209D01*
X87520716Y-132575205D01*
X87414794Y-132469283D01*
X87414790Y-132469280D01*
X87290238Y-132386056D01*
X87290229Y-132386051D01*
X87151830Y-132328725D01*
X87151822Y-132328723D01*
X87004907Y-132299500D01*
X87004903Y-132299500D01*
X86855097Y-132299500D01*
X86855092Y-132299500D01*
X86708177Y-132328723D01*
X86708169Y-132328725D01*
X86569770Y-132386051D01*
X86569761Y-132386056D01*
X86445209Y-132469280D01*
X86445205Y-132469283D01*
X86339283Y-132575205D01*
X86339280Y-132575209D01*
X86256056Y-132699761D01*
X86256051Y-132699770D01*
X86198725Y-132838169D01*
X86198723Y-132838177D01*
X86169500Y-132985092D01*
X86169500Y-133134907D01*
X84674690Y-133134907D01*
X84742038Y-133087749D01*
X84897749Y-132932038D01*
X85024056Y-132751654D01*
X85117120Y-132552076D01*
X85174115Y-132339371D01*
X85193307Y-132120002D01*
X94105267Y-132120002D01*
X94124231Y-132336773D01*
X94124459Y-132339371D01*
X94181454Y-132552076D01*
X94274518Y-132751654D01*
X94400825Y-132932038D01*
X94556536Y-133087749D01*
X94736920Y-133214056D01*
X94936498Y-133307120D01*
X95149203Y-133364115D01*
X95305896Y-133377823D01*
X95368572Y-133383307D01*
X95368574Y-133383307D01*
X95368576Y-133383307D01*
X95423416Y-133378509D01*
X95587945Y-133364115D01*
X95800650Y-133307120D01*
X96000228Y-133214056D01*
X96113264Y-133134907D01*
X97608074Y-133134907D01*
X97637297Y-133281822D01*
X97637299Y-133281830D01*
X97694625Y-133420229D01*
X97694630Y-133420238D01*
X97777854Y-133544790D01*
X97777857Y-133544794D01*
X97883779Y-133650716D01*
X97883783Y-133650719D01*
X98008335Y-133733943D01*
X98008341Y-133733946D01*
X98008342Y-133733947D01*
X98146744Y-133791275D01*
X98293666Y-133820499D01*
X98293670Y-133820500D01*
X98293671Y-133820500D01*
X98443478Y-133820500D01*
X98443479Y-133820499D01*
X98590404Y-133791275D01*
X98728806Y-133733947D01*
X98853365Y-133650719D01*
X98959293Y-133544791D01*
X99042521Y-133420232D01*
X99099849Y-133281830D01*
X99129073Y-133134907D01*
X103046645Y-133134907D01*
X103075868Y-133281822D01*
X103075870Y-133281830D01*
X103133196Y-133420229D01*
X103133201Y-133420238D01*
X103216425Y-133544790D01*
X103216428Y-133544794D01*
X103322350Y-133650716D01*
X103322354Y-133650719D01*
X103446906Y-133733943D01*
X103446912Y-133733946D01*
X103446913Y-133733947D01*
X103585315Y-133791275D01*
X103732237Y-133820499D01*
X103732241Y-133820500D01*
X103732242Y-133820500D01*
X103882049Y-133820500D01*
X103882050Y-133820499D01*
X104028975Y-133791275D01*
X104167377Y-133733947D01*
X104291936Y-133650719D01*
X104397864Y-133544791D01*
X104481092Y-133420232D01*
X104538420Y-133281830D01*
X104567645Y-133134903D01*
X104567645Y-132985097D01*
X104538420Y-132838170D01*
X104481092Y-132699768D01*
X104481091Y-132699767D01*
X104481088Y-132699761D01*
X104397864Y-132575209D01*
X104397861Y-132575205D01*
X104291939Y-132469283D01*
X104291935Y-132469280D01*
X104167383Y-132386056D01*
X104167374Y-132386051D01*
X104028975Y-132328725D01*
X104028967Y-132328723D01*
X103882052Y-132299500D01*
X103882048Y-132299500D01*
X103732242Y-132299500D01*
X103732237Y-132299500D01*
X103585322Y-132328723D01*
X103585314Y-132328725D01*
X103446915Y-132386051D01*
X103446906Y-132386056D01*
X103322354Y-132469280D01*
X103322350Y-132469283D01*
X103216428Y-132575205D01*
X103216425Y-132575209D01*
X103133201Y-132699761D01*
X103133196Y-132699770D01*
X103075870Y-132838169D01*
X103075868Y-132838177D01*
X103046645Y-132985092D01*
X103046645Y-133134907D01*
X99129073Y-133134907D01*
X99129074Y-133134903D01*
X99129074Y-132985097D01*
X99099849Y-132838170D01*
X99042521Y-132699768D01*
X99042520Y-132699767D01*
X99042517Y-132699761D01*
X98959293Y-132575209D01*
X98959290Y-132575205D01*
X98853368Y-132469283D01*
X98853364Y-132469280D01*
X98728812Y-132386056D01*
X98728803Y-132386051D01*
X98590404Y-132328725D01*
X98590396Y-132328723D01*
X98443481Y-132299500D01*
X98443477Y-132299500D01*
X98293671Y-132299500D01*
X98293666Y-132299500D01*
X98146751Y-132328723D01*
X98146743Y-132328725D01*
X98008344Y-132386051D01*
X98008335Y-132386056D01*
X97883783Y-132469280D01*
X97883779Y-132469283D01*
X97777857Y-132575205D01*
X97777854Y-132575209D01*
X97694630Y-132699761D01*
X97694625Y-132699770D01*
X97637299Y-132838169D01*
X97637297Y-132838177D01*
X97608074Y-132985092D01*
X97608074Y-133134907D01*
X96113264Y-133134907D01*
X96180612Y-133087749D01*
X96336323Y-132932038D01*
X96462630Y-132751654D01*
X96555694Y-132552076D01*
X96612689Y-132339371D01*
X96631881Y-132120002D01*
X105543838Y-132120002D01*
X105562802Y-132336773D01*
X105563030Y-132339371D01*
X105620025Y-132552076D01*
X105713089Y-132751654D01*
X105839396Y-132932038D01*
X105995107Y-133087749D01*
X106175491Y-133214056D01*
X106375069Y-133307120D01*
X106587774Y-133364115D01*
X106744467Y-133377823D01*
X106807143Y-133383307D01*
X106807145Y-133383307D01*
X106807147Y-133383307D01*
X106861987Y-133378509D01*
X107026516Y-133364115D01*
X107239221Y-133307120D01*
X107438799Y-133214056D01*
X107551835Y-133134907D01*
X109046645Y-133134907D01*
X109075868Y-133281822D01*
X109075870Y-133281830D01*
X109133196Y-133420229D01*
X109133201Y-133420238D01*
X109216425Y-133544790D01*
X109216428Y-133544794D01*
X109322350Y-133650716D01*
X109322354Y-133650719D01*
X109446906Y-133733943D01*
X109446912Y-133733946D01*
X109446913Y-133733947D01*
X109585315Y-133791275D01*
X109732237Y-133820499D01*
X109732241Y-133820500D01*
X109732242Y-133820500D01*
X109882049Y-133820500D01*
X109882050Y-133820499D01*
X110028975Y-133791275D01*
X110167377Y-133733947D01*
X110291936Y-133650719D01*
X110397864Y-133544791D01*
X110481092Y-133420232D01*
X110538420Y-133281830D01*
X110567644Y-133134907D01*
X114485216Y-133134907D01*
X114514439Y-133281822D01*
X114514441Y-133281830D01*
X114571767Y-133420229D01*
X114571772Y-133420238D01*
X114654996Y-133544790D01*
X114654999Y-133544794D01*
X114760921Y-133650716D01*
X114760925Y-133650719D01*
X114885477Y-133733943D01*
X114885483Y-133733946D01*
X114885484Y-133733947D01*
X115023886Y-133791275D01*
X115170808Y-133820499D01*
X115170812Y-133820500D01*
X115170813Y-133820500D01*
X115320620Y-133820500D01*
X115320621Y-133820499D01*
X115467546Y-133791275D01*
X115605948Y-133733947D01*
X115730507Y-133650719D01*
X115836435Y-133544791D01*
X115919663Y-133420232D01*
X115976991Y-133281830D01*
X116006216Y-133134903D01*
X116006216Y-132985097D01*
X115976991Y-132838170D01*
X115919663Y-132699768D01*
X115919662Y-132699767D01*
X115919659Y-132699761D01*
X115836435Y-132575209D01*
X115836432Y-132575205D01*
X115730510Y-132469283D01*
X115730506Y-132469280D01*
X115605954Y-132386056D01*
X115605945Y-132386051D01*
X115467546Y-132328725D01*
X115467538Y-132328723D01*
X115320623Y-132299500D01*
X115320619Y-132299500D01*
X115170813Y-132299500D01*
X115170808Y-132299500D01*
X115023893Y-132328723D01*
X115023885Y-132328725D01*
X114885486Y-132386051D01*
X114885477Y-132386056D01*
X114760925Y-132469280D01*
X114760921Y-132469283D01*
X114654999Y-132575205D01*
X114654996Y-132575209D01*
X114571772Y-132699761D01*
X114571767Y-132699770D01*
X114514441Y-132838169D01*
X114514439Y-132838177D01*
X114485216Y-132985092D01*
X114485216Y-133134907D01*
X110567644Y-133134907D01*
X110567645Y-133134903D01*
X110567645Y-132985097D01*
X110538420Y-132838170D01*
X110481092Y-132699768D01*
X110481091Y-132699767D01*
X110481088Y-132699761D01*
X110397864Y-132575209D01*
X110397861Y-132575205D01*
X110291939Y-132469283D01*
X110291935Y-132469280D01*
X110167383Y-132386056D01*
X110167374Y-132386051D01*
X110028975Y-132328725D01*
X110028967Y-132328723D01*
X109882052Y-132299500D01*
X109882048Y-132299500D01*
X109732242Y-132299500D01*
X109732237Y-132299500D01*
X109585322Y-132328723D01*
X109585314Y-132328725D01*
X109446915Y-132386051D01*
X109446906Y-132386056D01*
X109322354Y-132469280D01*
X109322350Y-132469283D01*
X109216428Y-132575205D01*
X109216425Y-132575209D01*
X109133201Y-132699761D01*
X109133196Y-132699770D01*
X109075870Y-132838169D01*
X109075868Y-132838177D01*
X109046645Y-132985092D01*
X109046645Y-133134907D01*
X107551835Y-133134907D01*
X107619183Y-133087749D01*
X107774894Y-132932038D01*
X107901201Y-132751654D01*
X107994265Y-132552076D01*
X108051260Y-132339371D01*
X108070452Y-132120002D01*
X116982409Y-132120002D01*
X117001373Y-132336773D01*
X117001601Y-132339371D01*
X117058596Y-132552076D01*
X117151660Y-132751654D01*
X117277967Y-132932038D01*
X117433678Y-133087749D01*
X117614062Y-133214056D01*
X117813640Y-133307120D01*
X118026345Y-133364115D01*
X118183038Y-133377823D01*
X118245714Y-133383307D01*
X118245716Y-133383307D01*
X118245718Y-133383307D01*
X118300558Y-133378509D01*
X118465087Y-133364115D01*
X118677792Y-133307120D01*
X118877370Y-133214056D01*
X118990406Y-133134907D01*
X120485216Y-133134907D01*
X120514439Y-133281822D01*
X120514441Y-133281830D01*
X120571767Y-133420229D01*
X120571772Y-133420238D01*
X120654996Y-133544790D01*
X120654999Y-133544794D01*
X120760921Y-133650716D01*
X120760925Y-133650719D01*
X120885477Y-133733943D01*
X120885483Y-133733946D01*
X120885484Y-133733947D01*
X121023886Y-133791275D01*
X121170808Y-133820499D01*
X121170812Y-133820500D01*
X121170813Y-133820500D01*
X121320620Y-133820500D01*
X121320621Y-133820499D01*
X121467546Y-133791275D01*
X121605948Y-133733947D01*
X121730507Y-133650719D01*
X121836435Y-133544791D01*
X121919663Y-133420232D01*
X121976991Y-133281830D01*
X122006216Y-133134903D01*
X122006216Y-133074907D01*
X125923787Y-133074907D01*
X125953010Y-133221822D01*
X125953012Y-133221830D01*
X126010338Y-133360229D01*
X126010343Y-133360238D01*
X126093567Y-133484790D01*
X126093570Y-133484794D01*
X126199492Y-133590716D01*
X126199496Y-133590719D01*
X126324048Y-133673943D01*
X126324054Y-133673946D01*
X126324055Y-133673947D01*
X126462457Y-133731275D01*
X126609379Y-133760499D01*
X126609383Y-133760500D01*
X126609384Y-133760500D01*
X126759191Y-133760500D01*
X126759192Y-133760499D01*
X126906117Y-133731275D01*
X127044519Y-133673947D01*
X127169078Y-133590719D01*
X127275006Y-133484791D01*
X127358234Y-133360232D01*
X127415562Y-133221830D01*
X127444787Y-133074903D01*
X127444787Y-132925097D01*
X127415562Y-132778170D01*
X127358234Y-132639768D01*
X127358233Y-132639767D01*
X127358230Y-132639761D01*
X127275006Y-132515209D01*
X127275003Y-132515205D01*
X127169081Y-132409283D01*
X127169077Y-132409280D01*
X127044525Y-132326056D01*
X127044516Y-132326051D01*
X126906117Y-132268725D01*
X126906109Y-132268723D01*
X126759194Y-132239500D01*
X126759190Y-132239500D01*
X126609384Y-132239500D01*
X126609379Y-132239500D01*
X126462464Y-132268723D01*
X126462456Y-132268725D01*
X126324057Y-132326051D01*
X126324048Y-132326056D01*
X126199496Y-132409280D01*
X126199492Y-132409283D01*
X126093570Y-132515205D01*
X126093567Y-132515209D01*
X126010343Y-132639761D01*
X126010338Y-132639770D01*
X125953012Y-132778169D01*
X125953010Y-132778177D01*
X125923787Y-132925092D01*
X125923787Y-133074907D01*
X122006216Y-133074907D01*
X122006216Y-132985097D01*
X121976991Y-132838170D01*
X121919663Y-132699768D01*
X121919662Y-132699767D01*
X121919659Y-132699761D01*
X121836435Y-132575209D01*
X121836432Y-132575205D01*
X121730510Y-132469283D01*
X121730506Y-132469280D01*
X121605954Y-132386056D01*
X121605945Y-132386051D01*
X121467546Y-132328725D01*
X121467538Y-132328723D01*
X121320623Y-132299500D01*
X121320619Y-132299500D01*
X121170813Y-132299500D01*
X121170808Y-132299500D01*
X121023893Y-132328723D01*
X121023885Y-132328725D01*
X120885486Y-132386051D01*
X120885477Y-132386056D01*
X120760925Y-132469280D01*
X120760921Y-132469283D01*
X120654999Y-132575205D01*
X120654996Y-132575209D01*
X120571772Y-132699761D01*
X120571767Y-132699770D01*
X120514441Y-132838169D01*
X120514439Y-132838177D01*
X120485216Y-132985092D01*
X120485216Y-133134907D01*
X118990406Y-133134907D01*
X119057754Y-133087749D01*
X119213465Y-132932038D01*
X119339772Y-132751654D01*
X119432836Y-132552076D01*
X119489831Y-132339371D01*
X119509023Y-132120000D01*
X119503774Y-132060002D01*
X128420980Y-132060002D01*
X128440171Y-132279365D01*
X128440172Y-132279372D01*
X128449549Y-132314367D01*
X128497167Y-132492076D01*
X128497168Y-132492079D01*
X128497169Y-132492081D01*
X128566033Y-132639761D01*
X128590231Y-132691654D01*
X128716538Y-132872038D01*
X128872249Y-133027749D01*
X129052633Y-133154056D01*
X129252211Y-133247120D01*
X129464916Y-133304115D01*
X129621609Y-133317823D01*
X129684285Y-133323307D01*
X129684287Y-133323307D01*
X129684289Y-133323307D01*
X129739129Y-133318509D01*
X129903658Y-133304115D01*
X130116363Y-133247120D01*
X130315941Y-133154056D01*
X130428977Y-133074907D01*
X131923787Y-133074907D01*
X131953010Y-133221822D01*
X131953012Y-133221830D01*
X132010338Y-133360229D01*
X132010343Y-133360238D01*
X132093567Y-133484790D01*
X132093570Y-133484794D01*
X132199492Y-133590716D01*
X132199496Y-133590719D01*
X132324048Y-133673943D01*
X132324054Y-133673946D01*
X132324055Y-133673947D01*
X132462457Y-133731275D01*
X132609379Y-133760499D01*
X132609383Y-133760500D01*
X132609384Y-133760500D01*
X132759191Y-133760500D01*
X132759192Y-133760499D01*
X132906117Y-133731275D01*
X133044519Y-133673947D01*
X133169078Y-133590719D01*
X133275006Y-133484791D01*
X133358234Y-133360232D01*
X133415562Y-133221830D01*
X133444786Y-133074907D01*
X137362358Y-133074907D01*
X137391581Y-133221822D01*
X137391583Y-133221830D01*
X137448909Y-133360229D01*
X137448914Y-133360238D01*
X137532138Y-133484790D01*
X137532141Y-133484794D01*
X137638063Y-133590716D01*
X137638067Y-133590719D01*
X137762619Y-133673943D01*
X137762625Y-133673946D01*
X137762626Y-133673947D01*
X137901028Y-133731275D01*
X138047950Y-133760499D01*
X138047954Y-133760500D01*
X138047955Y-133760500D01*
X138197762Y-133760500D01*
X138197763Y-133760499D01*
X138344688Y-133731275D01*
X138483090Y-133673947D01*
X138607649Y-133590719D01*
X138713577Y-133484791D01*
X138796805Y-133360232D01*
X138854133Y-133221830D01*
X138883358Y-133074903D01*
X138883358Y-132925097D01*
X138854133Y-132778170D01*
X138796805Y-132639768D01*
X138796804Y-132639767D01*
X138796801Y-132639761D01*
X138713577Y-132515209D01*
X138713574Y-132515205D01*
X138607652Y-132409283D01*
X138607648Y-132409280D01*
X138483096Y-132326056D01*
X138483087Y-132326051D01*
X138344688Y-132268725D01*
X138344680Y-132268723D01*
X138197765Y-132239500D01*
X138197761Y-132239500D01*
X138047955Y-132239500D01*
X138047950Y-132239500D01*
X137901035Y-132268723D01*
X137901027Y-132268725D01*
X137762628Y-132326051D01*
X137762619Y-132326056D01*
X137638067Y-132409280D01*
X137638063Y-132409283D01*
X137532141Y-132515205D01*
X137532138Y-132515209D01*
X137448914Y-132639761D01*
X137448909Y-132639770D01*
X137391583Y-132778169D01*
X137391581Y-132778177D01*
X137362358Y-132925092D01*
X137362358Y-133074907D01*
X133444786Y-133074907D01*
X133444787Y-133074903D01*
X133444787Y-132925097D01*
X133415562Y-132778170D01*
X133358234Y-132639768D01*
X133358233Y-132639767D01*
X133358230Y-132639761D01*
X133275006Y-132515209D01*
X133275003Y-132515205D01*
X133169081Y-132409283D01*
X133169077Y-132409280D01*
X133044525Y-132326056D01*
X133044516Y-132326051D01*
X132906117Y-132268725D01*
X132906109Y-132268723D01*
X132759194Y-132239500D01*
X132759190Y-132239500D01*
X132609384Y-132239500D01*
X132609379Y-132239500D01*
X132462464Y-132268723D01*
X132462456Y-132268725D01*
X132324057Y-132326051D01*
X132324048Y-132326056D01*
X132199496Y-132409280D01*
X132199492Y-132409283D01*
X132093570Y-132515205D01*
X132093567Y-132515209D01*
X132010343Y-132639761D01*
X132010338Y-132639770D01*
X131953012Y-132778169D01*
X131953010Y-132778177D01*
X131923787Y-132925092D01*
X131923787Y-133074907D01*
X130428977Y-133074907D01*
X130496325Y-133027749D01*
X130652036Y-132872038D01*
X130778343Y-132691654D01*
X130871407Y-132492076D01*
X130928402Y-132279371D01*
X130947594Y-132060002D01*
X139859551Y-132060002D01*
X139878742Y-132279365D01*
X139878743Y-132279372D01*
X139888120Y-132314367D01*
X139935738Y-132492076D01*
X139935739Y-132492079D01*
X139935740Y-132492081D01*
X140004604Y-132639761D01*
X140028802Y-132691654D01*
X140155109Y-132872038D01*
X140310820Y-133027749D01*
X140491204Y-133154056D01*
X140690782Y-133247120D01*
X140903487Y-133304115D01*
X141060180Y-133317823D01*
X141122856Y-133323307D01*
X141122858Y-133323307D01*
X141122860Y-133323307D01*
X141177700Y-133318509D01*
X141342229Y-133304115D01*
X141554934Y-133247120D01*
X141754512Y-133154056D01*
X141867548Y-133074907D01*
X143362358Y-133074907D01*
X143391581Y-133221822D01*
X143391583Y-133221830D01*
X143448909Y-133360229D01*
X143448914Y-133360238D01*
X143532138Y-133484790D01*
X143532141Y-133484794D01*
X143638063Y-133590716D01*
X143638067Y-133590719D01*
X143762619Y-133673943D01*
X143762625Y-133673946D01*
X143762626Y-133673947D01*
X143901028Y-133731275D01*
X144047950Y-133760499D01*
X144047954Y-133760500D01*
X144047955Y-133760500D01*
X144197762Y-133760500D01*
X144197763Y-133760499D01*
X144344688Y-133731275D01*
X144483090Y-133673947D01*
X144607649Y-133590719D01*
X144713577Y-133484791D01*
X144796805Y-133360232D01*
X144854133Y-133221830D01*
X144883357Y-133074907D01*
X148800929Y-133074907D01*
X148830152Y-133221822D01*
X148830154Y-133221830D01*
X148887480Y-133360229D01*
X148887485Y-133360238D01*
X148970709Y-133484790D01*
X148970712Y-133484794D01*
X149076634Y-133590716D01*
X149076638Y-133590719D01*
X149201190Y-133673943D01*
X149201196Y-133673946D01*
X149201197Y-133673947D01*
X149339599Y-133731275D01*
X149486521Y-133760499D01*
X149486525Y-133760500D01*
X149486526Y-133760500D01*
X149636333Y-133760500D01*
X149636334Y-133760499D01*
X149783259Y-133731275D01*
X149921661Y-133673947D01*
X150046220Y-133590719D01*
X150152148Y-133484791D01*
X150235376Y-133360232D01*
X150292704Y-133221830D01*
X150321929Y-133074903D01*
X150321929Y-132925097D01*
X150292704Y-132778170D01*
X150235376Y-132639768D01*
X150235375Y-132639767D01*
X150235372Y-132639761D01*
X150152148Y-132515209D01*
X150152145Y-132515205D01*
X150046223Y-132409283D01*
X150046219Y-132409280D01*
X149921667Y-132326056D01*
X149921658Y-132326051D01*
X149783259Y-132268725D01*
X149783251Y-132268723D01*
X149636336Y-132239500D01*
X149636332Y-132239500D01*
X149486526Y-132239500D01*
X149486521Y-132239500D01*
X149339606Y-132268723D01*
X149339598Y-132268725D01*
X149201199Y-132326051D01*
X149201190Y-132326056D01*
X149076638Y-132409280D01*
X149076634Y-132409283D01*
X148970712Y-132515205D01*
X148970709Y-132515209D01*
X148887485Y-132639761D01*
X148887480Y-132639770D01*
X148830154Y-132778169D01*
X148830152Y-132778177D01*
X148800929Y-132925092D01*
X148800929Y-133074907D01*
X144883357Y-133074907D01*
X144883358Y-133074903D01*
X144883358Y-132925097D01*
X144854133Y-132778170D01*
X144796805Y-132639768D01*
X144796804Y-132639767D01*
X144796801Y-132639761D01*
X144713577Y-132515209D01*
X144713574Y-132515205D01*
X144607652Y-132409283D01*
X144607648Y-132409280D01*
X144483096Y-132326056D01*
X144483087Y-132326051D01*
X144344688Y-132268725D01*
X144344680Y-132268723D01*
X144197765Y-132239500D01*
X144197761Y-132239500D01*
X144047955Y-132239500D01*
X144047950Y-132239500D01*
X143901035Y-132268723D01*
X143901027Y-132268725D01*
X143762628Y-132326051D01*
X143762619Y-132326056D01*
X143638067Y-132409280D01*
X143638063Y-132409283D01*
X143532141Y-132515205D01*
X143532138Y-132515209D01*
X143448914Y-132639761D01*
X143448909Y-132639770D01*
X143391583Y-132778169D01*
X143391581Y-132778177D01*
X143362358Y-132925092D01*
X143362358Y-133074907D01*
X141867548Y-133074907D01*
X141934896Y-133027749D01*
X142090607Y-132872038D01*
X142216914Y-132691654D01*
X142309978Y-132492076D01*
X142366973Y-132279371D01*
X142386165Y-132060002D01*
X151298122Y-132060002D01*
X151317313Y-132279365D01*
X151317314Y-132279372D01*
X151326691Y-132314367D01*
X151374309Y-132492076D01*
X151374310Y-132492079D01*
X151374311Y-132492081D01*
X151443175Y-132639761D01*
X151467373Y-132691654D01*
X151593680Y-132872038D01*
X151749391Y-133027749D01*
X151929775Y-133154056D01*
X152129353Y-133247120D01*
X152342058Y-133304115D01*
X152498751Y-133317823D01*
X152561427Y-133323307D01*
X152561429Y-133323307D01*
X152561431Y-133323307D01*
X152616271Y-133318509D01*
X152780800Y-133304115D01*
X152993505Y-133247120D01*
X153193083Y-133154056D01*
X153306119Y-133074907D01*
X154800929Y-133074907D01*
X154830152Y-133221822D01*
X154830154Y-133221830D01*
X154887480Y-133360229D01*
X154887485Y-133360238D01*
X154970709Y-133484790D01*
X154970712Y-133484794D01*
X155076634Y-133590716D01*
X155076638Y-133590719D01*
X155201190Y-133673943D01*
X155201196Y-133673946D01*
X155201197Y-133673947D01*
X155339599Y-133731275D01*
X155486521Y-133760499D01*
X155486525Y-133760500D01*
X155486526Y-133760500D01*
X155636333Y-133760500D01*
X155636334Y-133760499D01*
X155783259Y-133731275D01*
X155921661Y-133673947D01*
X156046220Y-133590719D01*
X156152148Y-133484791D01*
X156235376Y-133360232D01*
X156292704Y-133221830D01*
X156321928Y-133074907D01*
X160239500Y-133074907D01*
X160268723Y-133221822D01*
X160268725Y-133221830D01*
X160326051Y-133360229D01*
X160326056Y-133360238D01*
X160409280Y-133484790D01*
X160409283Y-133484794D01*
X160515205Y-133590716D01*
X160515209Y-133590719D01*
X160639761Y-133673943D01*
X160639767Y-133673946D01*
X160639768Y-133673947D01*
X160778170Y-133731275D01*
X160925092Y-133760499D01*
X160925096Y-133760500D01*
X160925097Y-133760500D01*
X161074904Y-133760500D01*
X161074905Y-133760499D01*
X161221830Y-133731275D01*
X161360232Y-133673947D01*
X161484791Y-133590719D01*
X161590719Y-133484791D01*
X161673947Y-133360232D01*
X161731275Y-133221830D01*
X161760500Y-133074903D01*
X161760500Y-132925097D01*
X161731275Y-132778170D01*
X161673947Y-132639768D01*
X161673946Y-132639767D01*
X161673943Y-132639761D01*
X161590719Y-132515209D01*
X161590716Y-132515205D01*
X161484794Y-132409283D01*
X161484790Y-132409280D01*
X161360238Y-132326056D01*
X161360229Y-132326051D01*
X161221830Y-132268725D01*
X161221822Y-132268723D01*
X161074907Y-132239500D01*
X161074903Y-132239500D01*
X160925097Y-132239500D01*
X160925092Y-132239500D01*
X160778177Y-132268723D01*
X160778169Y-132268725D01*
X160639770Y-132326051D01*
X160639761Y-132326056D01*
X160515209Y-132409280D01*
X160515205Y-132409283D01*
X160409283Y-132515205D01*
X160409280Y-132515209D01*
X160326056Y-132639761D01*
X160326051Y-132639770D01*
X160268725Y-132778169D01*
X160268723Y-132778177D01*
X160239500Y-132925092D01*
X160239500Y-133074907D01*
X156321928Y-133074907D01*
X156321929Y-133074903D01*
X156321929Y-132925097D01*
X156292704Y-132778170D01*
X156235376Y-132639768D01*
X156235375Y-132639767D01*
X156235372Y-132639761D01*
X156152148Y-132515209D01*
X156152145Y-132515205D01*
X156046223Y-132409283D01*
X156046219Y-132409280D01*
X155921667Y-132326056D01*
X155921658Y-132326051D01*
X155783259Y-132268725D01*
X155783251Y-132268723D01*
X155636336Y-132239500D01*
X155636332Y-132239500D01*
X155486526Y-132239500D01*
X155486521Y-132239500D01*
X155339606Y-132268723D01*
X155339598Y-132268725D01*
X155201199Y-132326051D01*
X155201190Y-132326056D01*
X155076638Y-132409280D01*
X155076634Y-132409283D01*
X154970712Y-132515205D01*
X154970709Y-132515209D01*
X154887485Y-132639761D01*
X154887480Y-132639770D01*
X154830154Y-132778169D01*
X154830152Y-132778177D01*
X154800929Y-132925092D01*
X154800929Y-133074907D01*
X153306119Y-133074907D01*
X153373467Y-133027749D01*
X153529178Y-132872038D01*
X153655485Y-132691654D01*
X153748549Y-132492076D01*
X153805544Y-132279371D01*
X153824736Y-132060000D01*
X153805544Y-131840629D01*
X153796846Y-131808167D01*
X153798507Y-131738319D01*
X153828937Y-131688394D01*
X156992072Y-128525262D01*
X157061401Y-128421504D01*
X157109155Y-128306213D01*
X157110936Y-128297264D01*
X157110937Y-128297260D01*
X157133499Y-128183827D01*
X157133500Y-128183824D01*
X157133500Y-109701756D01*
X157153185Y-109634717D01*
X157165346Y-109618788D01*
X157239040Y-109536944D01*
X157334527Y-109371556D01*
X157393542Y-109189928D01*
X157413504Y-109000000D01*
X157393542Y-108810072D01*
X157334527Y-108628444D01*
X157239040Y-108463056D01*
X157111253Y-108321134D01*
X156956752Y-108208882D01*
X156782288Y-108131206D01*
X156782286Y-108131205D01*
X156595487Y-108091500D01*
X156404513Y-108091500D01*
X156217714Y-108131205D01*
X156043246Y-108208883D01*
X155888745Y-108321135D01*
X155760959Y-108463057D01*
X155665473Y-108628443D01*
X155665470Y-108628450D01*
X155606459Y-108810068D01*
X155606458Y-108810072D01*
X155586496Y-109000000D01*
X155606458Y-109189928D01*
X155606459Y-109189931D01*
X155665470Y-109371549D01*
X155665473Y-109371556D01*
X155760960Y-109536944D01*
X155834649Y-109618784D01*
X155864880Y-109681775D01*
X155866500Y-109701756D01*
X155866500Y-117206122D01*
X155846815Y-117273161D01*
X155794011Y-117318916D01*
X155724853Y-117328860D01*
X155718310Y-117327740D01*
X155611556Y-117306506D01*
X155576332Y-117299500D01*
X155426526Y-117299500D01*
X155426521Y-117299500D01*
X155279606Y-117328723D01*
X155279598Y-117328725D01*
X155141199Y-117386051D01*
X155141190Y-117386056D01*
X155016638Y-117469280D01*
X155016634Y-117469283D01*
X154910712Y-117575205D01*
X154910709Y-117575209D01*
X154827485Y-117699761D01*
X154827480Y-117699770D01*
X154770154Y-117838169D01*
X154770152Y-117838177D01*
X154740929Y-117985092D01*
X154740929Y-118134907D01*
X154770152Y-118281822D01*
X154770154Y-118281830D01*
X154827480Y-118420229D01*
X154827485Y-118420238D01*
X154910709Y-118544790D01*
X154910712Y-118544794D01*
X155016634Y-118650716D01*
X155016638Y-118650719D01*
X155141190Y-118733943D01*
X155141196Y-118733946D01*
X155141197Y-118733947D01*
X155279599Y-118791275D01*
X155426521Y-118820499D01*
X155426525Y-118820500D01*
X155426526Y-118820500D01*
X155576333Y-118820500D01*
X155576334Y-118820499D01*
X155624035Y-118811011D01*
X155718309Y-118792260D01*
X155787901Y-118798487D01*
X155843078Y-118841351D01*
X155866322Y-118907240D01*
X155866500Y-118913877D01*
X155866500Y-127807662D01*
X155846815Y-127874701D01*
X155830181Y-127895343D01*
X154031610Y-129693914D01*
X153970287Y-129727399D01*
X153900595Y-129722415D01*
X153844662Y-129680543D01*
X153820245Y-129615079D01*
X153819929Y-129606233D01*
X153819929Y-128509461D01*
X153819928Y-128509448D01*
X153815445Y-128465571D01*
X153809316Y-128405575D01*
X153776391Y-128306210D01*
X153753545Y-128237264D01*
X153753544Y-128237261D01*
X153660461Y-128086352D01*
X153660458Y-128086348D01*
X153535080Y-127960970D01*
X153535076Y-127960967D01*
X153384167Y-127867884D01*
X153384164Y-127867883D01*
X153215857Y-127812113D01*
X153111980Y-127801500D01*
X153111973Y-127801500D01*
X152010885Y-127801500D01*
X152010877Y-127801500D01*
X151907000Y-127812113D01*
X151738693Y-127867883D01*
X151738690Y-127867884D01*
X151587781Y-127960967D01*
X151587777Y-127960970D01*
X151462399Y-128086348D01*
X151462396Y-128086352D01*
X151369313Y-128237261D01*
X151369312Y-128237264D01*
X151313542Y-128405571D01*
X151302929Y-128509448D01*
X151302929Y-129610551D01*
X151313542Y-129714428D01*
X151369312Y-129882735D01*
X151369313Y-129882738D01*
X151462396Y-130033647D01*
X151462399Y-130033651D01*
X151587777Y-130159029D01*
X151587781Y-130159032D01*
X151738690Y-130252115D01*
X151738693Y-130252116D01*
X151907000Y-130307886D01*
X151907001Y-130307886D01*
X151907004Y-130307887D01*
X152010885Y-130318500D01*
X152010890Y-130318500D01*
X153107662Y-130318500D01*
X153174701Y-130338185D01*
X153220456Y-130390989D01*
X153230400Y-130460147D01*
X153201375Y-130523703D01*
X153195343Y-130530181D01*
X152933035Y-130792488D01*
X152871712Y-130825973D01*
X152813263Y-130824583D01*
X152780801Y-130815885D01*
X152780794Y-130815884D01*
X152561431Y-130796693D01*
X152561427Y-130796693D01*
X152342063Y-130815884D01*
X152342056Y-130815885D01*
X152129349Y-130872881D01*
X151929775Y-130965944D01*
X151929771Y-130965946D01*
X151749396Y-131092247D01*
X151749389Y-131092252D01*
X151593681Y-131247960D01*
X151593676Y-131247967D01*
X151467375Y-131428342D01*
X151467373Y-131428346D01*
X151374310Y-131627920D01*
X151317314Y-131840627D01*
X151317313Y-131840634D01*
X151298122Y-132059997D01*
X151298122Y-132060002D01*
X142386165Y-132060002D01*
X142386165Y-132060000D01*
X142366973Y-131840629D01*
X142309978Y-131627924D01*
X142216914Y-131428347D01*
X142216912Y-131428344D01*
X142216911Y-131428342D01*
X142132618Y-131307960D01*
X142090607Y-131247962D01*
X141934896Y-131092251D01*
X141754512Y-130965944D01*
X141683608Y-130932881D01*
X141554939Y-130872882D01*
X141554937Y-130872881D01*
X141554934Y-130872880D01*
X141403635Y-130832339D01*
X141342230Y-130815885D01*
X141342223Y-130815884D01*
X141122860Y-130796693D01*
X141122856Y-130796693D01*
X140903492Y-130815884D01*
X140903485Y-130815885D01*
X140690778Y-130872881D01*
X140491204Y-130965944D01*
X140491200Y-130965946D01*
X140310825Y-131092247D01*
X140310818Y-131092252D01*
X140155110Y-131247960D01*
X140155105Y-131247967D01*
X140028804Y-131428342D01*
X140028802Y-131428346D01*
X139935739Y-131627920D01*
X139878743Y-131840627D01*
X139878742Y-131840634D01*
X139859551Y-132059997D01*
X139859551Y-132060002D01*
X130947594Y-132060002D01*
X130947594Y-132060000D01*
X130928402Y-131840629D01*
X130871407Y-131627924D01*
X130778343Y-131428347D01*
X130778341Y-131428344D01*
X130778340Y-131428342D01*
X130694047Y-131307960D01*
X130652036Y-131247962D01*
X130496325Y-131092251D01*
X130315941Y-130965944D01*
X130245037Y-130932881D01*
X130116368Y-130872882D01*
X130116366Y-130872881D01*
X130116363Y-130872880D01*
X129965064Y-130832339D01*
X129903659Y-130815885D01*
X129903652Y-130815884D01*
X129684289Y-130796693D01*
X129684285Y-130796693D01*
X129464921Y-130815884D01*
X129464914Y-130815885D01*
X129252207Y-130872881D01*
X129052633Y-130965944D01*
X129052629Y-130965946D01*
X128872254Y-131092247D01*
X128872247Y-131092252D01*
X128716539Y-131247960D01*
X128716534Y-131247967D01*
X128590233Y-131428342D01*
X128590231Y-131428346D01*
X128497168Y-131627920D01*
X128440172Y-131840627D01*
X128440171Y-131840634D01*
X128420980Y-132059997D01*
X128420980Y-132060002D01*
X119503774Y-132060002D01*
X119489831Y-131900629D01*
X119432836Y-131687924D01*
X119339772Y-131488347D01*
X119339770Y-131488344D01*
X119339769Y-131488342D01*
X119276618Y-131398154D01*
X119213465Y-131307962D01*
X119057754Y-131152251D01*
X118877370Y-131025944D01*
X118748699Y-130965944D01*
X118677797Y-130932882D01*
X118677795Y-130932881D01*
X118677792Y-130932880D01*
X118526493Y-130892339D01*
X118465088Y-130875885D01*
X118465081Y-130875884D01*
X118245718Y-130856693D01*
X118245714Y-130856693D01*
X118026350Y-130875884D01*
X118026343Y-130875885D01*
X117813636Y-130932881D01*
X117614062Y-131025944D01*
X117614058Y-131025946D01*
X117433683Y-131152247D01*
X117433676Y-131152252D01*
X117277968Y-131307960D01*
X117277963Y-131307967D01*
X117151662Y-131488342D01*
X117151660Y-131488346D01*
X117058597Y-131687920D01*
X117001601Y-131900627D01*
X117001600Y-131900634D01*
X116982409Y-132119997D01*
X116982409Y-132120002D01*
X108070452Y-132120002D01*
X108070452Y-132120000D01*
X108051260Y-131900629D01*
X107994265Y-131687924D01*
X107901201Y-131488347D01*
X107901199Y-131488344D01*
X107901198Y-131488342D01*
X107838047Y-131398154D01*
X107774894Y-131307962D01*
X107619183Y-131152251D01*
X107438799Y-131025944D01*
X107310128Y-130965944D01*
X107239226Y-130932882D01*
X107239224Y-130932881D01*
X107239221Y-130932880D01*
X107087922Y-130892339D01*
X107026517Y-130875885D01*
X107026510Y-130875884D01*
X106807147Y-130856693D01*
X106807143Y-130856693D01*
X106587779Y-130875884D01*
X106587772Y-130875885D01*
X106375065Y-130932881D01*
X106175491Y-131025944D01*
X106175487Y-131025946D01*
X105995112Y-131152247D01*
X105995105Y-131152252D01*
X105839397Y-131307960D01*
X105839392Y-131307967D01*
X105713091Y-131488342D01*
X105713089Y-131488346D01*
X105620026Y-131687920D01*
X105563030Y-131900627D01*
X105563029Y-131900634D01*
X105543838Y-132119997D01*
X105543838Y-132120002D01*
X96631881Y-132120002D01*
X96631881Y-132120000D01*
X96612689Y-131900629D01*
X96555694Y-131687924D01*
X96462630Y-131488347D01*
X96462628Y-131488344D01*
X96462627Y-131488342D01*
X96399476Y-131398154D01*
X96336323Y-131307962D01*
X96180612Y-131152251D01*
X96000228Y-131025944D01*
X95871557Y-130965944D01*
X95800655Y-130932882D01*
X95800653Y-130932881D01*
X95800650Y-130932880D01*
X95649351Y-130892339D01*
X95587946Y-130875885D01*
X95587939Y-130875884D01*
X95368576Y-130856693D01*
X95368572Y-130856693D01*
X95149208Y-130875884D01*
X95149201Y-130875885D01*
X94936494Y-130932881D01*
X94736920Y-131025944D01*
X94736916Y-131025946D01*
X94556541Y-131152247D01*
X94556534Y-131152252D01*
X94400826Y-131307960D01*
X94400821Y-131307967D01*
X94274520Y-131488342D01*
X94274518Y-131488346D01*
X94181455Y-131687920D01*
X94124459Y-131900627D01*
X94124458Y-131900634D01*
X94105267Y-132119997D01*
X94105267Y-132120002D01*
X85193307Y-132120002D01*
X85193307Y-132120000D01*
X85174115Y-131900629D01*
X85117120Y-131687924D01*
X85024056Y-131488347D01*
X85024054Y-131488344D01*
X85024053Y-131488342D01*
X84960902Y-131398154D01*
X84897749Y-131307962D01*
X84742038Y-131152251D01*
X84561654Y-131025944D01*
X84432983Y-130965944D01*
X84362081Y-130932882D01*
X84362079Y-130932881D01*
X84362076Y-130932880D01*
X84210777Y-130892339D01*
X84149372Y-130875885D01*
X84149365Y-130875884D01*
X83930002Y-130856693D01*
X83929998Y-130856693D01*
X83710634Y-130875884D01*
X83710627Y-130875885D01*
X83497920Y-130932881D01*
X83298346Y-131025944D01*
X83298342Y-131025946D01*
X83117967Y-131152247D01*
X83117960Y-131152252D01*
X82962252Y-131307960D01*
X82962247Y-131307967D01*
X82835946Y-131488342D01*
X82835944Y-131488346D01*
X82742881Y-131687920D01*
X82685885Y-131900627D01*
X82685884Y-131900634D01*
X82666693Y-132119997D01*
X82666693Y-132120002D01*
X70807886Y-132120002D01*
X70922103Y-129670551D01*
X82671500Y-129670551D01*
X82682113Y-129774428D01*
X82737883Y-129942735D01*
X82737884Y-129942738D01*
X82830967Y-130093647D01*
X82830970Y-130093651D01*
X82956348Y-130219029D01*
X82956352Y-130219032D01*
X83107261Y-130312115D01*
X83107264Y-130312116D01*
X83275571Y-130367886D01*
X83275572Y-130367886D01*
X83275575Y-130367887D01*
X83379456Y-130378500D01*
X83379461Y-130378500D01*
X84480539Y-130378500D01*
X84480544Y-130378500D01*
X84584425Y-130367887D01*
X84752738Y-130312115D01*
X84903651Y-130219030D01*
X85029030Y-130093651D01*
X85122115Y-129942738D01*
X85177887Y-129774425D01*
X85188499Y-129670551D01*
X94110074Y-129670551D01*
X94120687Y-129774428D01*
X94176457Y-129942735D01*
X94176458Y-129942738D01*
X94269541Y-130093647D01*
X94269544Y-130093651D01*
X94394922Y-130219029D01*
X94394926Y-130219032D01*
X94545835Y-130312115D01*
X94545838Y-130312116D01*
X94714145Y-130367886D01*
X94714146Y-130367886D01*
X94714149Y-130367887D01*
X94818030Y-130378500D01*
X94818035Y-130378500D01*
X95919113Y-130378500D01*
X95919118Y-130378500D01*
X96022999Y-130367887D01*
X96191312Y-130312115D01*
X96342225Y-130219030D01*
X96467604Y-130093651D01*
X96560689Y-129942738D01*
X96616461Y-129774425D01*
X96627073Y-129670551D01*
X105548645Y-129670551D01*
X105559258Y-129774428D01*
X105615028Y-129942735D01*
X105615029Y-129942738D01*
X105708112Y-130093647D01*
X105708115Y-130093651D01*
X105833493Y-130219029D01*
X105833497Y-130219032D01*
X105984406Y-130312115D01*
X105984409Y-130312116D01*
X106152716Y-130367886D01*
X106152717Y-130367886D01*
X106152720Y-130367887D01*
X106256601Y-130378500D01*
X106256606Y-130378500D01*
X107357684Y-130378500D01*
X107357689Y-130378500D01*
X107461570Y-130367887D01*
X107629883Y-130312115D01*
X107780796Y-130219030D01*
X107906175Y-130093651D01*
X107999260Y-129942738D01*
X108055032Y-129774425D01*
X108065644Y-129670551D01*
X116987216Y-129670551D01*
X116997829Y-129774428D01*
X117053599Y-129942735D01*
X117053600Y-129942738D01*
X117146683Y-130093647D01*
X117146686Y-130093651D01*
X117272064Y-130219029D01*
X117272068Y-130219032D01*
X117422977Y-130312115D01*
X117422980Y-130312116D01*
X117591287Y-130367886D01*
X117591288Y-130367886D01*
X117591291Y-130367887D01*
X117695172Y-130378500D01*
X117695177Y-130378500D01*
X118796255Y-130378500D01*
X118796260Y-130378500D01*
X118900141Y-130367887D01*
X119068454Y-130312115D01*
X119219367Y-130219030D01*
X119344746Y-130093651D01*
X119437831Y-129942738D01*
X119493603Y-129774425D01*
X119504216Y-129670544D01*
X119504216Y-129610551D01*
X128425787Y-129610551D01*
X128436400Y-129714428D01*
X128492170Y-129882735D01*
X128492171Y-129882738D01*
X128585254Y-130033647D01*
X128585257Y-130033651D01*
X128710635Y-130159029D01*
X128710639Y-130159032D01*
X128861548Y-130252115D01*
X128861551Y-130252116D01*
X129029858Y-130307886D01*
X129029859Y-130307886D01*
X129029862Y-130307887D01*
X129133743Y-130318500D01*
X129133748Y-130318500D01*
X130234826Y-130318500D01*
X130234831Y-130318500D01*
X130338712Y-130307887D01*
X130507025Y-130252115D01*
X130657938Y-130159030D01*
X130783317Y-130033651D01*
X130876402Y-129882738D01*
X130932174Y-129714425D01*
X130942786Y-129610551D01*
X139864358Y-129610551D01*
X139874971Y-129714428D01*
X139930741Y-129882735D01*
X139930742Y-129882738D01*
X140023825Y-130033647D01*
X140023828Y-130033651D01*
X140149206Y-130159029D01*
X140149210Y-130159032D01*
X140300119Y-130252115D01*
X140300122Y-130252116D01*
X140468429Y-130307886D01*
X140468430Y-130307886D01*
X140468433Y-130307887D01*
X140572314Y-130318500D01*
X140572319Y-130318500D01*
X141673397Y-130318500D01*
X141673402Y-130318500D01*
X141777283Y-130307887D01*
X141945596Y-130252115D01*
X142096509Y-130159030D01*
X142221888Y-130033651D01*
X142314973Y-129882738D01*
X142370745Y-129714425D01*
X142381358Y-129610544D01*
X142381358Y-128509456D01*
X142370745Y-128405575D01*
X142337820Y-128306210D01*
X142314974Y-128237264D01*
X142314973Y-128237261D01*
X142221890Y-128086352D01*
X142221887Y-128086348D01*
X142096509Y-127960970D01*
X142096505Y-127960967D01*
X141945596Y-127867884D01*
X141945593Y-127867883D01*
X141777286Y-127812113D01*
X141673409Y-127801500D01*
X141673402Y-127801500D01*
X140572314Y-127801500D01*
X140572306Y-127801500D01*
X140468429Y-127812113D01*
X140300122Y-127867883D01*
X140300119Y-127867884D01*
X140149210Y-127960967D01*
X140149206Y-127960970D01*
X140023828Y-128086348D01*
X140023825Y-128086352D01*
X139930742Y-128237261D01*
X139930741Y-128237264D01*
X139874971Y-128405571D01*
X139864358Y-128509448D01*
X139864358Y-129610551D01*
X130942786Y-129610551D01*
X130942787Y-129610544D01*
X130942787Y-128509456D01*
X130932174Y-128405575D01*
X130899249Y-128306210D01*
X130876403Y-128237264D01*
X130876402Y-128237261D01*
X130783319Y-128086352D01*
X130783316Y-128086348D01*
X130657938Y-127960970D01*
X130657934Y-127960967D01*
X130507025Y-127867884D01*
X130507022Y-127867883D01*
X130338715Y-127812113D01*
X130234838Y-127801500D01*
X130234831Y-127801500D01*
X129133743Y-127801500D01*
X129133735Y-127801500D01*
X129029858Y-127812113D01*
X128861551Y-127867883D01*
X128861548Y-127867884D01*
X128710639Y-127960967D01*
X128710635Y-127960970D01*
X128585257Y-128086348D01*
X128585254Y-128086352D01*
X128492171Y-128237261D01*
X128492170Y-128237264D01*
X128436400Y-128405571D01*
X128425787Y-128509448D01*
X128425787Y-129610551D01*
X119504216Y-129610551D01*
X119504216Y-128569456D01*
X119493603Y-128465575D01*
X119493602Y-128465571D01*
X119437832Y-128297264D01*
X119437830Y-128297260D01*
X119344748Y-128146352D01*
X119344745Y-128146348D01*
X119219367Y-128020970D01*
X119219363Y-128020967D01*
X119068454Y-127927884D01*
X119068451Y-127927883D01*
X118900144Y-127872113D01*
X118796267Y-127861500D01*
X118796260Y-127861500D01*
X117695172Y-127861500D01*
X117695164Y-127861500D01*
X117591287Y-127872113D01*
X117422980Y-127927883D01*
X117422977Y-127927884D01*
X117272068Y-128020967D01*
X117272064Y-128020970D01*
X117146686Y-128146348D01*
X117146683Y-128146352D01*
X117053602Y-128297260D01*
X117053599Y-128297264D01*
X116997829Y-128465571D01*
X116987216Y-128569448D01*
X116987216Y-129670551D01*
X108065644Y-129670551D01*
X108065645Y-129670544D01*
X108065645Y-128569456D01*
X108055032Y-128465575D01*
X108055031Y-128465571D01*
X107999261Y-128297264D01*
X107999259Y-128297260D01*
X107906177Y-128146352D01*
X107906174Y-128146348D01*
X107780796Y-128020970D01*
X107780792Y-128020967D01*
X107629883Y-127927884D01*
X107629880Y-127927883D01*
X107461573Y-127872113D01*
X107357696Y-127861500D01*
X107357689Y-127861500D01*
X106256601Y-127861500D01*
X106256593Y-127861500D01*
X106152716Y-127872113D01*
X105984409Y-127927883D01*
X105984406Y-127927884D01*
X105833497Y-128020967D01*
X105833493Y-128020970D01*
X105708115Y-128146348D01*
X105708112Y-128146352D01*
X105615031Y-128297260D01*
X105615028Y-128297264D01*
X105559258Y-128465571D01*
X105548645Y-128569448D01*
X105548645Y-129670551D01*
X96627073Y-129670551D01*
X96627074Y-129670544D01*
X96627074Y-128569456D01*
X96616461Y-128465575D01*
X96616460Y-128465571D01*
X96560690Y-128297264D01*
X96560688Y-128297260D01*
X96467606Y-128146352D01*
X96467603Y-128146348D01*
X96342225Y-128020970D01*
X96342221Y-128020967D01*
X96191312Y-127927884D01*
X96191309Y-127927883D01*
X96023002Y-127872113D01*
X95919125Y-127861500D01*
X95919118Y-127861500D01*
X94818030Y-127861500D01*
X94818022Y-127861500D01*
X94714145Y-127872113D01*
X94545838Y-127927883D01*
X94545835Y-127927884D01*
X94394926Y-128020967D01*
X94394922Y-128020970D01*
X94269544Y-128146348D01*
X94269541Y-128146352D01*
X94176460Y-128297260D01*
X94176457Y-128297264D01*
X94120687Y-128465571D01*
X94110074Y-128569448D01*
X94110074Y-129670551D01*
X85188499Y-129670551D01*
X85188500Y-129670544D01*
X85188500Y-128569456D01*
X85177887Y-128465575D01*
X85177886Y-128465571D01*
X85122116Y-128297264D01*
X85122114Y-128297260D01*
X85029032Y-128146352D01*
X85029029Y-128146348D01*
X84903651Y-128020970D01*
X84903647Y-128020967D01*
X84752738Y-127927884D01*
X84752735Y-127927883D01*
X84584428Y-127872113D01*
X84480551Y-127861500D01*
X84480544Y-127861500D01*
X83379456Y-127861500D01*
X83379448Y-127861500D01*
X83275571Y-127872113D01*
X83107264Y-127927883D01*
X83107261Y-127927884D01*
X82956352Y-128020967D01*
X82956348Y-128020970D01*
X82830970Y-128146348D01*
X82830967Y-128146352D01*
X82737886Y-128297260D01*
X82737883Y-128297264D01*
X82682113Y-128465571D01*
X82671500Y-128569448D01*
X82671500Y-129670551D01*
X70922103Y-129670551D01*
X71000000Y-128000000D01*
X70997569Y-123118727D01*
X105491500Y-123118727D01*
X105528643Y-123353241D01*
X105602019Y-123579067D01*
X105709815Y-123790627D01*
X105849380Y-123982722D01*
X106017278Y-124150620D01*
X106209373Y-124290185D01*
X106309328Y-124341114D01*
X106420932Y-124397980D01*
X106420934Y-124397980D01*
X106420937Y-124397982D01*
X106541984Y-124437312D01*
X106646758Y-124471356D01*
X106881273Y-124508500D01*
X106881278Y-124508500D01*
X115323797Y-124508500D01*
X115390836Y-124528185D01*
X115411478Y-124544819D01*
X115846254Y-124979595D01*
X115846283Y-124979626D01*
X116017274Y-125150616D01*
X116017278Y-125150620D01*
X116209373Y-125290185D01*
X116309328Y-125341114D01*
X116420932Y-125397980D01*
X116420934Y-125397980D01*
X116420937Y-125397982D01*
X116646759Y-125471357D01*
X116764018Y-125489929D01*
X116881273Y-125508501D01*
X116881278Y-125508501D01*
X117123833Y-125508501D01*
X117123857Y-125508500D01*
X146118727Y-125508500D01*
X146353241Y-125471356D01*
X146579063Y-125397982D01*
X146790627Y-125290185D01*
X146982722Y-125150620D01*
X147150620Y-124982722D01*
X147290185Y-124790627D01*
X147397982Y-124579063D01*
X147471356Y-124353241D01*
X147481343Y-124290184D01*
X147508500Y-124118727D01*
X147508500Y-118134907D01*
X148740929Y-118134907D01*
X148770152Y-118281822D01*
X148770154Y-118281830D01*
X148827480Y-118420229D01*
X148827485Y-118420238D01*
X148910709Y-118544790D01*
X148910712Y-118544794D01*
X149016634Y-118650716D01*
X149016638Y-118650719D01*
X149141190Y-118733943D01*
X149141196Y-118733946D01*
X149141197Y-118733947D01*
X149279599Y-118791275D01*
X149426521Y-118820499D01*
X149426525Y-118820500D01*
X149426526Y-118820500D01*
X149576333Y-118820500D01*
X149576334Y-118820499D01*
X149723259Y-118791275D01*
X149861661Y-118733947D01*
X149986220Y-118650719D01*
X150092148Y-118544791D01*
X150175376Y-118420232D01*
X150232704Y-118281830D01*
X150261929Y-118134903D01*
X150261929Y-117985097D01*
X150232704Y-117838170D01*
X150175376Y-117699768D01*
X150175375Y-117699767D01*
X150175372Y-117699761D01*
X150092148Y-117575209D01*
X150092145Y-117575205D01*
X149986223Y-117469283D01*
X149986219Y-117469280D01*
X149861667Y-117386056D01*
X149861658Y-117386051D01*
X149723259Y-117328725D01*
X149723251Y-117328723D01*
X149576336Y-117299500D01*
X149576332Y-117299500D01*
X149426526Y-117299500D01*
X149426521Y-117299500D01*
X149279606Y-117328723D01*
X149279598Y-117328725D01*
X149141199Y-117386051D01*
X149141190Y-117386056D01*
X149016638Y-117469280D01*
X149016634Y-117469283D01*
X148910712Y-117575205D01*
X148910709Y-117575209D01*
X148827485Y-117699761D01*
X148827480Y-117699770D01*
X148770154Y-117838169D01*
X148770152Y-117838177D01*
X148740929Y-117985092D01*
X148740929Y-118134907D01*
X147508500Y-118134907D01*
X147508500Y-117120002D01*
X151238122Y-117120002D01*
X151257301Y-117339229D01*
X151257314Y-117339371D01*
X151314309Y-117552076D01*
X151314310Y-117552079D01*
X151314311Y-117552081D01*
X151383175Y-117699761D01*
X151407373Y-117751654D01*
X151533680Y-117932038D01*
X151689391Y-118087749D01*
X151869775Y-118214056D01*
X152069353Y-118307120D01*
X152282058Y-118364115D01*
X152438751Y-118377823D01*
X152501427Y-118383307D01*
X152501429Y-118383307D01*
X152501431Y-118383307D01*
X152556271Y-118378509D01*
X152720800Y-118364115D01*
X152933505Y-118307120D01*
X153133083Y-118214056D01*
X153313467Y-118087749D01*
X153469178Y-117932038D01*
X153595485Y-117751654D01*
X153688549Y-117552076D01*
X153745544Y-117339371D01*
X153764736Y-117120000D01*
X153745544Y-116900629D01*
X153688549Y-116687924D01*
X153595485Y-116488347D01*
X153595483Y-116488344D01*
X153595482Y-116488342D01*
X153532331Y-116398154D01*
X153469178Y-116307962D01*
X153313467Y-116152251D01*
X153133083Y-116025944D01*
X153133079Y-116025942D01*
X152933510Y-115932882D01*
X152933508Y-115932881D01*
X152933505Y-115932880D01*
X152782206Y-115892339D01*
X152720801Y-115875885D01*
X152720794Y-115875884D01*
X152501431Y-115856693D01*
X152501427Y-115856693D01*
X152282063Y-115875884D01*
X152282056Y-115875885D01*
X152069349Y-115932881D01*
X151869775Y-116025944D01*
X151869771Y-116025946D01*
X151689396Y-116152247D01*
X151689389Y-116152252D01*
X151533681Y-116307960D01*
X151533676Y-116307967D01*
X151407375Y-116488342D01*
X151407373Y-116488346D01*
X151314310Y-116687920D01*
X151257314Y-116900627D01*
X151257313Y-116900634D01*
X151238122Y-117119997D01*
X151238122Y-117120002D01*
X147508500Y-117120002D01*
X147508500Y-114881272D01*
X147475125Y-114670551D01*
X151242929Y-114670551D01*
X151253542Y-114774428D01*
X151309312Y-114942735D01*
X151309313Y-114942738D01*
X151402396Y-115093647D01*
X151402399Y-115093651D01*
X151527777Y-115219029D01*
X151527781Y-115219032D01*
X151678690Y-115312115D01*
X151678693Y-115312116D01*
X151847000Y-115367886D01*
X151847001Y-115367886D01*
X151847004Y-115367887D01*
X151950885Y-115378500D01*
X151950890Y-115378500D01*
X153051968Y-115378500D01*
X153051973Y-115378500D01*
X153155854Y-115367887D01*
X153324167Y-115312115D01*
X153475080Y-115219030D01*
X153600459Y-115093651D01*
X153693544Y-114942738D01*
X153749316Y-114774425D01*
X153759929Y-114670544D01*
X153759929Y-113569456D01*
X153749316Y-113465575D01*
X153749315Y-113465571D01*
X153693545Y-113297264D01*
X153693544Y-113297261D01*
X153600461Y-113146352D01*
X153600458Y-113146348D01*
X153475080Y-113020970D01*
X153475076Y-113020967D01*
X153324167Y-112927884D01*
X153324164Y-112927883D01*
X153155857Y-112872113D01*
X153051980Y-112861500D01*
X153051973Y-112861500D01*
X151950885Y-112861500D01*
X151950877Y-112861500D01*
X151847000Y-112872113D01*
X151678693Y-112927883D01*
X151678690Y-112927884D01*
X151527781Y-113020967D01*
X151527777Y-113020970D01*
X151402399Y-113146348D01*
X151402396Y-113146352D01*
X151309313Y-113297261D01*
X151309312Y-113297264D01*
X151253542Y-113465571D01*
X151242929Y-113569448D01*
X151242929Y-114670551D01*
X147475125Y-114670551D01*
X147471356Y-114646758D01*
X147397980Y-114420932D01*
X147290184Y-114209372D01*
X147150620Y-114017278D01*
X146982722Y-113849380D01*
X146790627Y-113709815D01*
X146579067Y-113602019D01*
X146353241Y-113528643D01*
X146118727Y-113491500D01*
X146118722Y-113491500D01*
X145881278Y-113491500D01*
X145881273Y-113491500D01*
X145646758Y-113528643D01*
X145420932Y-113602019D01*
X145209372Y-113709815D01*
X145017275Y-113849382D01*
X144849382Y-114017275D01*
X144709815Y-114209372D01*
X144602019Y-114420932D01*
X144528643Y-114646758D01*
X144491500Y-114881272D01*
X144491500Y-117224668D01*
X144471815Y-117291707D01*
X144419011Y-117337462D01*
X144349853Y-117347406D01*
X144320048Y-117339229D01*
X144294692Y-117328726D01*
X144294680Y-117328723D01*
X144147765Y-117299500D01*
X144147761Y-117299500D01*
X143997955Y-117299500D01*
X143997950Y-117299500D01*
X143851035Y-117328723D01*
X143851027Y-117328725D01*
X143712628Y-117386051D01*
X143712619Y-117386056D01*
X143588067Y-117469280D01*
X143588063Y-117469283D01*
X143482141Y-117575205D01*
X143482138Y-117575209D01*
X143398914Y-117699761D01*
X143398909Y-117699770D01*
X143341583Y-117838169D01*
X143341581Y-117838177D01*
X143312358Y-117985092D01*
X143312358Y-118134907D01*
X143341581Y-118281822D01*
X143341583Y-118281830D01*
X143398909Y-118420229D01*
X143398914Y-118420238D01*
X143482138Y-118544790D01*
X143482141Y-118544794D01*
X143588063Y-118650716D01*
X143588067Y-118650719D01*
X143712619Y-118733943D01*
X143712625Y-118733946D01*
X143712626Y-118733947D01*
X143851028Y-118791275D01*
X143997950Y-118820499D01*
X143997954Y-118820500D01*
X143997955Y-118820500D01*
X144147762Y-118820500D01*
X144147763Y-118820499D01*
X144294688Y-118791275D01*
X144320047Y-118780770D01*
X144389514Y-118773301D01*
X144451994Y-118804574D01*
X144487648Y-118864662D01*
X144491500Y-118895331D01*
X144491500Y-122367500D01*
X144471815Y-122434539D01*
X144419011Y-122480294D01*
X144367500Y-122491500D01*
X117676203Y-122491500D01*
X117609164Y-122471815D01*
X117588522Y-122455181D01*
X117154960Y-122021619D01*
X117154940Y-122021597D01*
X116982725Y-121849383D01*
X116982724Y-121849382D01*
X116982722Y-121849380D01*
X116790627Y-121709815D01*
X116579063Y-121602018D01*
X116353241Y-121528644D01*
X116353239Y-121528643D01*
X116353237Y-121528643D01*
X116189494Y-121502708D01*
X116118722Y-121491499D01*
X115881278Y-121491499D01*
X115876167Y-121491499D01*
X115876143Y-121491500D01*
X106881273Y-121491500D01*
X106646758Y-121528643D01*
X106420932Y-121602019D01*
X106209372Y-121709815D01*
X106017275Y-121849382D01*
X105849382Y-122017275D01*
X105709815Y-122209372D01*
X105602019Y-122420932D01*
X105528643Y-122646758D01*
X105491500Y-122881272D01*
X105491500Y-123118727D01*
X70997569Y-123118727D01*
X70995087Y-118134907D01*
X80169500Y-118134907D01*
X80198723Y-118281822D01*
X80198725Y-118281830D01*
X80256051Y-118420229D01*
X80256056Y-118420238D01*
X80339280Y-118544790D01*
X80339283Y-118544794D01*
X80445205Y-118650716D01*
X80445209Y-118650719D01*
X80569761Y-118733943D01*
X80569767Y-118733946D01*
X80569768Y-118733947D01*
X80708170Y-118791275D01*
X80855092Y-118820499D01*
X80855096Y-118820500D01*
X80855097Y-118820500D01*
X81004904Y-118820500D01*
X81004905Y-118820499D01*
X81151830Y-118791275D01*
X81290232Y-118733947D01*
X81414791Y-118650719D01*
X81520719Y-118544791D01*
X81603947Y-118420232D01*
X81661275Y-118281830D01*
X81690500Y-118134903D01*
X81690500Y-117985097D01*
X81661275Y-117838170D01*
X81603947Y-117699768D01*
X81603946Y-117699767D01*
X81603943Y-117699761D01*
X81520719Y-117575209D01*
X81520716Y-117575205D01*
X81414794Y-117469283D01*
X81414790Y-117469280D01*
X81290238Y-117386056D01*
X81290229Y-117386051D01*
X81151830Y-117328725D01*
X81151822Y-117328723D01*
X81004907Y-117299500D01*
X81004903Y-117299500D01*
X80855097Y-117299500D01*
X80855092Y-117299500D01*
X80708177Y-117328723D01*
X80708169Y-117328725D01*
X80569770Y-117386051D01*
X80569761Y-117386056D01*
X80445209Y-117469280D01*
X80445205Y-117469283D01*
X80339283Y-117575205D01*
X80339280Y-117575209D01*
X80256056Y-117699761D01*
X80256051Y-117699770D01*
X80198725Y-117838169D01*
X80198723Y-117838177D01*
X80169500Y-117985092D01*
X80169500Y-118134907D01*
X70995087Y-118134907D01*
X70994582Y-117120002D01*
X82666693Y-117120002D01*
X82685872Y-117339229D01*
X82685885Y-117339371D01*
X82742880Y-117552076D01*
X82742881Y-117552079D01*
X82742882Y-117552081D01*
X82811746Y-117699761D01*
X82835944Y-117751654D01*
X82962251Y-117932038D01*
X83117962Y-118087749D01*
X83298346Y-118214056D01*
X83497924Y-118307120D01*
X83710629Y-118364115D01*
X83867322Y-118377823D01*
X83929998Y-118383307D01*
X83930000Y-118383307D01*
X83930002Y-118383307D01*
X83984842Y-118378509D01*
X84149371Y-118364115D01*
X84362076Y-118307120D01*
X84561654Y-118214056D01*
X84674690Y-118134907D01*
X86169500Y-118134907D01*
X86198723Y-118281822D01*
X86198725Y-118281830D01*
X86256051Y-118420229D01*
X86256056Y-118420238D01*
X86339280Y-118544790D01*
X86339283Y-118544794D01*
X86445205Y-118650716D01*
X86445209Y-118650719D01*
X86569761Y-118733943D01*
X86569767Y-118733946D01*
X86569768Y-118733947D01*
X86708170Y-118791275D01*
X86855092Y-118820499D01*
X86855096Y-118820500D01*
X86855097Y-118820500D01*
X87004904Y-118820500D01*
X87004905Y-118820499D01*
X87151830Y-118791275D01*
X87290232Y-118733947D01*
X87414791Y-118650719D01*
X87520719Y-118544791D01*
X87603947Y-118420232D01*
X87661275Y-118281830D01*
X87690499Y-118134907D01*
X91598074Y-118134907D01*
X91627297Y-118281822D01*
X91627299Y-118281830D01*
X91684625Y-118420229D01*
X91684630Y-118420238D01*
X91767854Y-118544790D01*
X91767857Y-118544794D01*
X91873779Y-118650716D01*
X91873783Y-118650719D01*
X91998335Y-118733943D01*
X91998341Y-118733946D01*
X91998342Y-118733947D01*
X92136744Y-118791275D01*
X92283666Y-118820499D01*
X92283670Y-118820500D01*
X92283671Y-118820500D01*
X92433478Y-118820500D01*
X92433479Y-118820499D01*
X92580404Y-118791275D01*
X92718806Y-118733947D01*
X92843365Y-118650719D01*
X92949293Y-118544791D01*
X93032521Y-118420232D01*
X93089849Y-118281830D01*
X93119074Y-118134903D01*
X93119074Y-117985097D01*
X93089849Y-117838170D01*
X93032521Y-117699768D01*
X93032520Y-117699767D01*
X93032517Y-117699761D01*
X92949293Y-117575209D01*
X92949290Y-117575205D01*
X92843368Y-117469283D01*
X92843364Y-117469280D01*
X92718812Y-117386056D01*
X92718803Y-117386051D01*
X92580404Y-117328725D01*
X92580396Y-117328723D01*
X92433481Y-117299500D01*
X92433477Y-117299500D01*
X92283671Y-117299500D01*
X92283666Y-117299500D01*
X92136751Y-117328723D01*
X92136743Y-117328725D01*
X91998344Y-117386051D01*
X91998335Y-117386056D01*
X91873783Y-117469280D01*
X91873779Y-117469283D01*
X91767857Y-117575205D01*
X91767854Y-117575209D01*
X91684630Y-117699761D01*
X91684625Y-117699770D01*
X91627299Y-117838169D01*
X91627297Y-117838177D01*
X91598074Y-117985092D01*
X91598074Y-118134907D01*
X87690499Y-118134907D01*
X87690500Y-118134903D01*
X87690500Y-117985097D01*
X87661275Y-117838170D01*
X87603947Y-117699768D01*
X87603946Y-117699767D01*
X87603943Y-117699761D01*
X87520719Y-117575209D01*
X87520716Y-117575205D01*
X87414794Y-117469283D01*
X87414790Y-117469280D01*
X87290238Y-117386056D01*
X87290229Y-117386051D01*
X87151830Y-117328725D01*
X87151822Y-117328723D01*
X87004907Y-117299500D01*
X87004903Y-117299500D01*
X86855097Y-117299500D01*
X86855092Y-117299500D01*
X86708177Y-117328723D01*
X86708169Y-117328725D01*
X86569770Y-117386051D01*
X86569761Y-117386056D01*
X86445209Y-117469280D01*
X86445205Y-117469283D01*
X86339283Y-117575205D01*
X86339280Y-117575209D01*
X86256056Y-117699761D01*
X86256051Y-117699770D01*
X86198725Y-117838169D01*
X86198723Y-117838177D01*
X86169500Y-117985092D01*
X86169500Y-118134907D01*
X84674690Y-118134907D01*
X84742038Y-118087749D01*
X84897749Y-117932038D01*
X85024056Y-117751654D01*
X85117120Y-117552076D01*
X85174115Y-117339371D01*
X85193307Y-117120000D01*
X85174115Y-116900629D01*
X85165417Y-116868168D01*
X85167078Y-116798319D01*
X85197508Y-116748394D01*
X90776086Y-111169819D01*
X90837409Y-111136334D01*
X90863767Y-111133500D01*
X100149808Y-111133500D01*
X100216847Y-111153185D01*
X100262602Y-111205989D01*
X100272546Y-111275147D01*
X100243521Y-111338703D01*
X100237489Y-111345181D01*
X96828755Y-114753914D01*
X96767432Y-114787399D01*
X96697740Y-114782415D01*
X96641807Y-114740543D01*
X96617390Y-114675079D01*
X96617074Y-114666233D01*
X96617074Y-113569461D01*
X96617073Y-113569448D01*
X96612904Y-113528643D01*
X96606461Y-113465575D01*
X96606460Y-113465571D01*
X96550690Y-113297264D01*
X96550689Y-113297261D01*
X96457606Y-113146352D01*
X96457603Y-113146348D01*
X96332225Y-113020970D01*
X96332221Y-113020967D01*
X96181312Y-112927884D01*
X96181309Y-112927883D01*
X96013002Y-112872113D01*
X95909125Y-112861500D01*
X95909118Y-112861500D01*
X94808030Y-112861500D01*
X94808022Y-112861500D01*
X94704145Y-112872113D01*
X94535838Y-112927883D01*
X94535835Y-112927884D01*
X94384926Y-113020967D01*
X94384922Y-113020970D01*
X94259544Y-113146348D01*
X94259541Y-113146352D01*
X94166458Y-113297261D01*
X94166457Y-113297264D01*
X94110687Y-113465571D01*
X94100074Y-113569448D01*
X94100074Y-114670551D01*
X94110687Y-114774428D01*
X94166457Y-114942735D01*
X94166458Y-114942738D01*
X94259541Y-115093647D01*
X94259544Y-115093651D01*
X94384922Y-115219029D01*
X94384926Y-115219032D01*
X94535835Y-115312115D01*
X94535838Y-115312116D01*
X94704145Y-115367886D01*
X94704146Y-115367886D01*
X94704149Y-115367887D01*
X94808030Y-115378500D01*
X94808035Y-115378500D01*
X95904807Y-115378500D01*
X95971846Y-115398185D01*
X96017601Y-115450989D01*
X96027545Y-115520147D01*
X95998520Y-115583703D01*
X95992488Y-115590181D01*
X95730180Y-115852488D01*
X95668857Y-115885973D01*
X95610408Y-115884583D01*
X95577946Y-115875885D01*
X95577939Y-115875884D01*
X95358576Y-115856693D01*
X95358572Y-115856693D01*
X95139208Y-115875884D01*
X95139201Y-115875885D01*
X94926494Y-115932881D01*
X94726920Y-116025944D01*
X94726916Y-116025946D01*
X94546541Y-116152247D01*
X94546534Y-116152252D01*
X94390826Y-116307960D01*
X94390821Y-116307967D01*
X94264520Y-116488342D01*
X94264518Y-116488346D01*
X94171455Y-116687920D01*
X94114459Y-116900627D01*
X94114458Y-116900634D01*
X94095267Y-117119997D01*
X94095267Y-117120002D01*
X94114446Y-117339229D01*
X94114459Y-117339371D01*
X94171454Y-117552076D01*
X94171455Y-117552079D01*
X94171456Y-117552081D01*
X94240320Y-117699761D01*
X94264518Y-117751654D01*
X94390825Y-117932038D01*
X94546536Y-118087749D01*
X94726920Y-118214056D01*
X94926498Y-118307120D01*
X95139203Y-118364115D01*
X95295896Y-118377823D01*
X95358572Y-118383307D01*
X95358574Y-118383307D01*
X95358576Y-118383307D01*
X95413416Y-118378509D01*
X95577945Y-118364115D01*
X95790650Y-118307120D01*
X95990228Y-118214056D01*
X96103264Y-118134907D01*
X97598074Y-118134907D01*
X97627297Y-118281822D01*
X97627299Y-118281830D01*
X97684625Y-118420229D01*
X97684630Y-118420238D01*
X97767854Y-118544790D01*
X97767857Y-118544794D01*
X97873779Y-118650716D01*
X97873783Y-118650719D01*
X97998335Y-118733943D01*
X97998341Y-118733946D01*
X97998342Y-118733947D01*
X98136744Y-118791275D01*
X98283666Y-118820499D01*
X98283670Y-118820500D01*
X98283671Y-118820500D01*
X98433478Y-118820500D01*
X98433479Y-118820499D01*
X98580404Y-118791275D01*
X98718806Y-118733947D01*
X98843365Y-118650719D01*
X98949293Y-118544791D01*
X99032521Y-118420232D01*
X99089849Y-118281830D01*
X99119073Y-118134907D01*
X103026645Y-118134907D01*
X103055868Y-118281822D01*
X103055870Y-118281830D01*
X103113196Y-118420229D01*
X103113201Y-118420238D01*
X103196425Y-118544790D01*
X103196428Y-118544794D01*
X103302350Y-118650716D01*
X103302354Y-118650719D01*
X103426906Y-118733943D01*
X103426912Y-118733946D01*
X103426913Y-118733947D01*
X103565315Y-118791275D01*
X103712237Y-118820499D01*
X103712241Y-118820500D01*
X103712242Y-118820500D01*
X103862049Y-118820500D01*
X103862050Y-118820499D01*
X104008975Y-118791275D01*
X104147377Y-118733947D01*
X104271936Y-118650719D01*
X104377864Y-118544791D01*
X104461092Y-118420232D01*
X104518420Y-118281830D01*
X104547645Y-118134903D01*
X104547645Y-117985097D01*
X104518420Y-117838170D01*
X104461092Y-117699768D01*
X104461091Y-117699767D01*
X104461088Y-117699761D01*
X104377864Y-117575209D01*
X104377861Y-117575205D01*
X104271939Y-117469283D01*
X104271935Y-117469280D01*
X104147383Y-117386056D01*
X104147374Y-117386051D01*
X104008975Y-117328725D01*
X104008967Y-117328723D01*
X103862052Y-117299500D01*
X103862048Y-117299500D01*
X103712242Y-117299500D01*
X103712237Y-117299500D01*
X103565322Y-117328723D01*
X103565314Y-117328725D01*
X103426915Y-117386051D01*
X103426906Y-117386056D01*
X103302354Y-117469280D01*
X103302350Y-117469283D01*
X103196428Y-117575205D01*
X103196425Y-117575209D01*
X103113201Y-117699761D01*
X103113196Y-117699770D01*
X103055870Y-117838169D01*
X103055868Y-117838177D01*
X103026645Y-117985092D01*
X103026645Y-118134907D01*
X99119073Y-118134907D01*
X99119074Y-118134903D01*
X99119074Y-117985097D01*
X99089849Y-117838170D01*
X99032521Y-117699768D01*
X99032520Y-117699767D01*
X99032517Y-117699761D01*
X98949293Y-117575209D01*
X98949290Y-117575205D01*
X98843368Y-117469283D01*
X98843364Y-117469280D01*
X98718812Y-117386056D01*
X98718803Y-117386051D01*
X98580404Y-117328725D01*
X98580396Y-117328723D01*
X98433481Y-117299500D01*
X98433477Y-117299500D01*
X98283671Y-117299500D01*
X98283666Y-117299500D01*
X98136751Y-117328723D01*
X98136743Y-117328725D01*
X97998344Y-117386051D01*
X97998335Y-117386056D01*
X97873783Y-117469280D01*
X97873779Y-117469283D01*
X97767857Y-117575205D01*
X97767854Y-117575209D01*
X97684630Y-117699761D01*
X97684625Y-117699770D01*
X97627299Y-117838169D01*
X97627297Y-117838177D01*
X97598074Y-117985092D01*
X97598074Y-118134907D01*
X96103264Y-118134907D01*
X96170612Y-118087749D01*
X96326323Y-117932038D01*
X96452630Y-117751654D01*
X96545694Y-117552076D01*
X96602689Y-117339371D01*
X96621881Y-117120000D01*
X96602689Y-116900629D01*
X96593991Y-116868168D01*
X96595652Y-116798319D01*
X96626082Y-116748394D01*
X101504659Y-111869819D01*
X101565982Y-111836334D01*
X101592340Y-111833500D01*
X110878379Y-111833500D01*
X110945418Y-111853185D01*
X110991173Y-111905989D01*
X111001117Y-111975147D01*
X110972092Y-112038703D01*
X110966060Y-112045181D01*
X108257326Y-114753914D01*
X108196003Y-114787399D01*
X108126311Y-114782415D01*
X108070378Y-114740543D01*
X108045961Y-114675079D01*
X108045645Y-114666233D01*
X108045645Y-113569461D01*
X108045644Y-113569448D01*
X108041475Y-113528643D01*
X108035032Y-113465575D01*
X108035031Y-113465571D01*
X107979261Y-113297264D01*
X107979260Y-113297261D01*
X107886177Y-113146352D01*
X107886174Y-113146348D01*
X107760796Y-113020970D01*
X107760792Y-113020967D01*
X107609883Y-112927884D01*
X107609880Y-112927883D01*
X107441573Y-112872113D01*
X107337696Y-112861500D01*
X107337689Y-112861500D01*
X106236601Y-112861500D01*
X106236593Y-112861500D01*
X106132716Y-112872113D01*
X105964409Y-112927883D01*
X105964406Y-112927884D01*
X105813497Y-113020967D01*
X105813493Y-113020970D01*
X105688115Y-113146348D01*
X105688112Y-113146352D01*
X105595029Y-113297261D01*
X105595028Y-113297264D01*
X105539258Y-113465571D01*
X105528645Y-113569448D01*
X105528645Y-114670551D01*
X105539258Y-114774428D01*
X105595028Y-114942735D01*
X105595029Y-114942738D01*
X105688112Y-115093647D01*
X105688115Y-115093651D01*
X105813493Y-115219029D01*
X105813497Y-115219032D01*
X105964406Y-115312115D01*
X105964409Y-115312116D01*
X106132716Y-115367886D01*
X106132717Y-115367886D01*
X106132720Y-115367887D01*
X106236601Y-115378500D01*
X106236606Y-115378500D01*
X107333378Y-115378500D01*
X107400417Y-115398185D01*
X107446172Y-115450989D01*
X107456116Y-115520147D01*
X107427091Y-115583703D01*
X107421059Y-115590181D01*
X107158751Y-115852488D01*
X107097428Y-115885973D01*
X107038979Y-115884583D01*
X107006517Y-115875885D01*
X107006510Y-115875884D01*
X106787147Y-115856693D01*
X106787143Y-115856693D01*
X106567779Y-115875884D01*
X106567772Y-115875885D01*
X106355065Y-115932881D01*
X106155491Y-116025944D01*
X106155487Y-116025946D01*
X105975112Y-116152247D01*
X105975105Y-116152252D01*
X105819397Y-116307960D01*
X105819392Y-116307967D01*
X105693091Y-116488342D01*
X105693089Y-116488346D01*
X105600026Y-116687920D01*
X105543030Y-116900627D01*
X105543029Y-116900634D01*
X105523838Y-117119997D01*
X105523838Y-117120002D01*
X105543017Y-117339229D01*
X105543030Y-117339371D01*
X105600025Y-117552076D01*
X105600026Y-117552079D01*
X105600027Y-117552081D01*
X105668891Y-117699761D01*
X105693089Y-117751654D01*
X105819396Y-117932038D01*
X105975107Y-118087749D01*
X106155491Y-118214056D01*
X106355069Y-118307120D01*
X106567774Y-118364115D01*
X106724467Y-118377823D01*
X106787143Y-118383307D01*
X106787145Y-118383307D01*
X106787147Y-118383307D01*
X106841987Y-118378509D01*
X107006516Y-118364115D01*
X107219221Y-118307120D01*
X107418799Y-118214056D01*
X107531835Y-118134907D01*
X109026645Y-118134907D01*
X109055868Y-118281822D01*
X109055870Y-118281830D01*
X109113196Y-118420229D01*
X109113201Y-118420238D01*
X109196425Y-118544790D01*
X109196428Y-118544794D01*
X109302350Y-118650716D01*
X109302354Y-118650719D01*
X109426906Y-118733943D01*
X109426912Y-118733946D01*
X109426913Y-118733947D01*
X109565315Y-118791275D01*
X109712237Y-118820499D01*
X109712241Y-118820500D01*
X109712242Y-118820500D01*
X109862049Y-118820500D01*
X109862050Y-118820499D01*
X110008975Y-118791275D01*
X110147377Y-118733947D01*
X110271936Y-118650719D01*
X110377864Y-118544791D01*
X110461092Y-118420232D01*
X110518420Y-118281830D01*
X110547644Y-118134907D01*
X114455216Y-118134907D01*
X114484439Y-118281822D01*
X114484441Y-118281830D01*
X114541767Y-118420229D01*
X114541772Y-118420238D01*
X114624996Y-118544790D01*
X114624999Y-118544794D01*
X114730921Y-118650716D01*
X114730925Y-118650719D01*
X114855477Y-118733943D01*
X114855483Y-118733946D01*
X114855484Y-118733947D01*
X114993886Y-118791275D01*
X115140808Y-118820499D01*
X115140812Y-118820500D01*
X115140813Y-118820500D01*
X115290620Y-118820500D01*
X115290621Y-118820499D01*
X115437546Y-118791275D01*
X115575948Y-118733947D01*
X115700507Y-118650719D01*
X115806435Y-118544791D01*
X115889663Y-118420232D01*
X115946991Y-118281830D01*
X115976216Y-118134903D01*
X115976216Y-117985097D01*
X115946991Y-117838170D01*
X115889663Y-117699768D01*
X115889662Y-117699767D01*
X115889659Y-117699761D01*
X115806435Y-117575209D01*
X115806432Y-117575205D01*
X115700510Y-117469283D01*
X115700506Y-117469280D01*
X115575954Y-117386056D01*
X115575945Y-117386051D01*
X115437546Y-117328725D01*
X115437538Y-117328723D01*
X115290623Y-117299500D01*
X115290619Y-117299500D01*
X115140813Y-117299500D01*
X115140808Y-117299500D01*
X114993893Y-117328723D01*
X114993885Y-117328725D01*
X114855486Y-117386051D01*
X114855477Y-117386056D01*
X114730925Y-117469280D01*
X114730921Y-117469283D01*
X114624999Y-117575205D01*
X114624996Y-117575209D01*
X114541772Y-117699761D01*
X114541767Y-117699770D01*
X114484441Y-117838169D01*
X114484439Y-117838177D01*
X114455216Y-117985092D01*
X114455216Y-118134907D01*
X110547644Y-118134907D01*
X110547645Y-118134903D01*
X110547645Y-117985097D01*
X110518420Y-117838170D01*
X110461092Y-117699768D01*
X110461091Y-117699767D01*
X110461088Y-117699761D01*
X110377864Y-117575209D01*
X110377861Y-117575205D01*
X110271939Y-117469283D01*
X110271935Y-117469280D01*
X110147383Y-117386056D01*
X110147374Y-117386051D01*
X110008975Y-117328725D01*
X110008967Y-117328723D01*
X109862052Y-117299500D01*
X109862048Y-117299500D01*
X109712242Y-117299500D01*
X109712237Y-117299500D01*
X109565322Y-117328723D01*
X109565314Y-117328725D01*
X109426915Y-117386051D01*
X109426906Y-117386056D01*
X109302354Y-117469280D01*
X109302350Y-117469283D01*
X109196428Y-117575205D01*
X109196425Y-117575209D01*
X109113201Y-117699761D01*
X109113196Y-117699770D01*
X109055870Y-117838169D01*
X109055868Y-117838177D01*
X109026645Y-117985092D01*
X109026645Y-118134907D01*
X107531835Y-118134907D01*
X107599183Y-118087749D01*
X107754894Y-117932038D01*
X107881201Y-117751654D01*
X107974265Y-117552076D01*
X108031260Y-117339371D01*
X108050452Y-117120000D01*
X108031260Y-116900629D01*
X108022562Y-116868168D01*
X108024223Y-116798319D01*
X108054653Y-116748394D01*
X110132497Y-114670551D01*
X116957216Y-114670551D01*
X116967829Y-114774428D01*
X117023599Y-114942735D01*
X117023600Y-114942738D01*
X117116683Y-115093647D01*
X117116686Y-115093651D01*
X117242064Y-115219029D01*
X117242068Y-115219032D01*
X117392977Y-115312115D01*
X117392980Y-115312116D01*
X117561287Y-115367886D01*
X117561288Y-115367886D01*
X117561291Y-115367887D01*
X117665172Y-115378500D01*
X117665177Y-115378500D01*
X118766255Y-115378500D01*
X118766260Y-115378500D01*
X118870141Y-115367887D01*
X119038454Y-115312115D01*
X119189367Y-115219030D01*
X119314746Y-115093651D01*
X119407831Y-114942738D01*
X119463603Y-114774425D01*
X119474215Y-114670551D01*
X128385787Y-114670551D01*
X128396400Y-114774428D01*
X128452170Y-114942735D01*
X128452171Y-114942738D01*
X128545254Y-115093647D01*
X128545257Y-115093651D01*
X128670635Y-115219029D01*
X128670639Y-115219032D01*
X128821548Y-115312115D01*
X128821551Y-115312116D01*
X128989858Y-115367886D01*
X128989859Y-115367886D01*
X128989862Y-115367887D01*
X129093743Y-115378500D01*
X129093748Y-115378500D01*
X130194826Y-115378500D01*
X130194831Y-115378500D01*
X130298712Y-115367887D01*
X130467025Y-115312115D01*
X130617938Y-115219030D01*
X130743317Y-115093651D01*
X130836402Y-114942738D01*
X130892174Y-114774425D01*
X130902787Y-114670544D01*
X130902787Y-113569456D01*
X130892174Y-113465575D01*
X130892173Y-113465571D01*
X130836403Y-113297264D01*
X130836402Y-113297261D01*
X130743319Y-113146352D01*
X130743316Y-113146348D01*
X130617938Y-113020970D01*
X130617934Y-113020967D01*
X130467025Y-112927884D01*
X130467022Y-112927883D01*
X130298715Y-112872113D01*
X130194838Y-112861500D01*
X130194831Y-112861500D01*
X129093743Y-112861500D01*
X129093735Y-112861500D01*
X128989858Y-112872113D01*
X128821551Y-112927883D01*
X128821548Y-112927884D01*
X128670639Y-113020967D01*
X128670635Y-113020970D01*
X128545257Y-113146348D01*
X128545254Y-113146352D01*
X128452171Y-113297261D01*
X128452170Y-113297264D01*
X128396400Y-113465571D01*
X128385787Y-113569448D01*
X128385787Y-114670551D01*
X119474215Y-114670551D01*
X119474216Y-114670544D01*
X119474216Y-113569456D01*
X119463603Y-113465575D01*
X119463602Y-113465571D01*
X119407832Y-113297264D01*
X119407831Y-113297261D01*
X119314748Y-113146352D01*
X119314745Y-113146348D01*
X119189367Y-113020970D01*
X119189363Y-113020967D01*
X119038454Y-112927884D01*
X119038451Y-112927883D01*
X118870144Y-112872113D01*
X118766267Y-112861500D01*
X118766260Y-112861500D01*
X117665172Y-112861500D01*
X117665164Y-112861500D01*
X117561287Y-112872113D01*
X117392980Y-112927883D01*
X117392977Y-112927884D01*
X117242068Y-113020967D01*
X117242064Y-113020970D01*
X117116686Y-113146348D01*
X117116683Y-113146352D01*
X117023600Y-113297261D01*
X117023599Y-113297264D01*
X116967829Y-113465571D01*
X116957216Y-113569448D01*
X116957216Y-114670551D01*
X110132497Y-114670551D01*
X112459626Y-112343423D01*
X112520949Y-112309938D01*
X112547307Y-112307104D01*
X132582395Y-112307104D01*
X132582396Y-112307103D01*
X132704785Y-112282759D01*
X132820075Y-112235004D01*
X132923833Y-112165675D01*
X133654819Y-111434689D01*
X133716142Y-111401204D01*
X133785833Y-111406188D01*
X133841767Y-111448060D01*
X133866184Y-111513524D01*
X133866500Y-111522370D01*
X133866500Y-118242500D01*
X133846815Y-118309539D01*
X133794011Y-118355294D01*
X133742500Y-118366500D01*
X133509814Y-118366500D01*
X133442775Y-118346815D01*
X133397020Y-118294011D01*
X133387076Y-118224853D01*
X133388197Y-118218309D01*
X133404786Y-118134906D01*
X133404787Y-118134904D01*
X133404787Y-117985096D01*
X133404786Y-117985092D01*
X133375563Y-117838177D01*
X133375562Y-117838170D01*
X133318234Y-117699768D01*
X133318233Y-117699767D01*
X133318230Y-117699761D01*
X133235006Y-117575209D01*
X133235003Y-117575205D01*
X133129081Y-117469283D01*
X133129077Y-117469280D01*
X133004525Y-117386056D01*
X133004516Y-117386051D01*
X132866117Y-117328725D01*
X132866109Y-117328723D01*
X132719194Y-117299500D01*
X132719190Y-117299500D01*
X132569384Y-117299500D01*
X132569379Y-117299500D01*
X132422464Y-117328723D01*
X132422456Y-117328725D01*
X132284057Y-117386051D01*
X132284048Y-117386056D01*
X132159496Y-117469280D01*
X132159492Y-117469283D01*
X132053570Y-117575205D01*
X132053567Y-117575209D01*
X131970343Y-117699761D01*
X131970338Y-117699770D01*
X131913012Y-117838169D01*
X131913010Y-117838177D01*
X131883787Y-117985092D01*
X131883787Y-118134906D01*
X131900377Y-118218309D01*
X131894150Y-118287900D01*
X131851287Y-118343078D01*
X131785397Y-118366322D01*
X131778760Y-118366500D01*
X130451506Y-118366500D01*
X130384467Y-118346815D01*
X130338712Y-118294011D01*
X130328768Y-118224853D01*
X130357793Y-118161297D01*
X130380382Y-118140926D01*
X130424123Y-118110297D01*
X130456325Y-118087749D01*
X130612036Y-117932038D01*
X130738343Y-117751654D01*
X130831407Y-117552076D01*
X130888402Y-117339371D01*
X130907594Y-117120000D01*
X130888402Y-116900629D01*
X130831407Y-116687924D01*
X130738343Y-116488347D01*
X130738341Y-116488344D01*
X130738340Y-116488342D01*
X130675189Y-116398154D01*
X130612036Y-116307962D01*
X130456325Y-116152251D01*
X130275941Y-116025944D01*
X130275937Y-116025942D01*
X130076368Y-115932882D01*
X130076366Y-115932881D01*
X130076363Y-115932880D01*
X129925064Y-115892339D01*
X129863659Y-115875885D01*
X129863652Y-115875884D01*
X129644289Y-115856693D01*
X129644285Y-115856693D01*
X129424921Y-115875884D01*
X129424914Y-115875885D01*
X129212207Y-115932881D01*
X129012633Y-116025944D01*
X129012629Y-116025946D01*
X128832254Y-116152247D01*
X128832247Y-116152252D01*
X128676539Y-116307960D01*
X128676534Y-116307967D01*
X128550233Y-116488342D01*
X128550231Y-116488346D01*
X128457168Y-116687920D01*
X128400172Y-116900627D01*
X128400171Y-116900634D01*
X128380980Y-117119997D01*
X128380980Y-117120002D01*
X128400159Y-117339229D01*
X128400172Y-117339371D01*
X128457167Y-117552076D01*
X128457168Y-117552079D01*
X128457169Y-117552081D01*
X128526033Y-117699761D01*
X128550231Y-117751654D01*
X128676538Y-117932038D01*
X128832249Y-118087749D01*
X128832255Y-118087753D01*
X128832256Y-118087754D01*
X128908192Y-118140926D01*
X128951817Y-118195503D01*
X128959009Y-118265001D01*
X128927487Y-118327356D01*
X128867256Y-118362769D01*
X128837068Y-118366500D01*
X127509814Y-118366500D01*
X127442775Y-118346815D01*
X127397020Y-118294011D01*
X127387076Y-118224853D01*
X127388197Y-118218309D01*
X127404786Y-118134906D01*
X127404787Y-118134904D01*
X127404787Y-117985096D01*
X127404786Y-117985092D01*
X127375563Y-117838177D01*
X127375562Y-117838170D01*
X127318234Y-117699768D01*
X127318233Y-117699767D01*
X127318230Y-117699761D01*
X127235006Y-117575209D01*
X127235003Y-117575205D01*
X127129081Y-117469283D01*
X127129077Y-117469280D01*
X127004525Y-117386056D01*
X127004516Y-117386051D01*
X126866117Y-117328725D01*
X126866109Y-117328723D01*
X126719194Y-117299500D01*
X126719190Y-117299500D01*
X126569384Y-117299500D01*
X126569379Y-117299500D01*
X126422464Y-117328723D01*
X126422456Y-117328725D01*
X126284057Y-117386051D01*
X126284048Y-117386056D01*
X126159496Y-117469280D01*
X126159492Y-117469283D01*
X126053570Y-117575205D01*
X126053567Y-117575209D01*
X125970343Y-117699761D01*
X125970338Y-117699770D01*
X125913012Y-117838169D01*
X125913010Y-117838177D01*
X125883787Y-117985092D01*
X125883787Y-118134906D01*
X125900377Y-118218309D01*
X125894150Y-118287900D01*
X125851287Y-118343078D01*
X125785397Y-118366322D01*
X125778760Y-118366500D01*
X122081243Y-118366500D01*
X122014204Y-118346815D01*
X121968449Y-118294011D01*
X121958505Y-118224853D01*
X121959626Y-118218309D01*
X121976215Y-118134906D01*
X121976216Y-118134904D01*
X121976216Y-117985096D01*
X121976215Y-117985092D01*
X121946992Y-117838177D01*
X121946991Y-117838170D01*
X121889663Y-117699768D01*
X121889662Y-117699767D01*
X121889659Y-117699761D01*
X121806435Y-117575209D01*
X121806432Y-117575205D01*
X121700510Y-117469283D01*
X121700506Y-117469280D01*
X121575954Y-117386056D01*
X121575945Y-117386051D01*
X121437546Y-117328725D01*
X121437538Y-117328723D01*
X121290623Y-117299500D01*
X121290619Y-117299500D01*
X121140813Y-117299500D01*
X121140808Y-117299500D01*
X120993893Y-117328723D01*
X120993885Y-117328725D01*
X120855486Y-117386051D01*
X120855477Y-117386056D01*
X120730925Y-117469280D01*
X120730921Y-117469283D01*
X120624999Y-117575205D01*
X120624996Y-117575209D01*
X120541772Y-117699761D01*
X120541767Y-117699770D01*
X120484441Y-117838169D01*
X120484439Y-117838177D01*
X120455216Y-117985092D01*
X120455216Y-118134903D01*
X120457084Y-118144295D01*
X120450855Y-118213886D01*
X120407991Y-118269063D01*
X120342101Y-118292306D01*
X120274104Y-118276237D01*
X120247785Y-118256165D01*
X119483226Y-117491606D01*
X119449741Y-117430283D01*
X119451132Y-117371831D01*
X119459831Y-117339371D01*
X119479023Y-117120000D01*
X119459831Y-116900629D01*
X119402836Y-116687924D01*
X119309772Y-116488347D01*
X119309770Y-116488344D01*
X119309769Y-116488342D01*
X119246618Y-116398154D01*
X119183465Y-116307962D01*
X119027754Y-116152251D01*
X118847370Y-116025944D01*
X118847366Y-116025942D01*
X118647797Y-115932882D01*
X118647795Y-115932881D01*
X118647792Y-115932880D01*
X118496493Y-115892339D01*
X118435088Y-115875885D01*
X118435081Y-115875884D01*
X118215718Y-115856693D01*
X118215714Y-115856693D01*
X117996350Y-115875884D01*
X117996343Y-115875885D01*
X117783636Y-115932881D01*
X117584062Y-116025944D01*
X117584058Y-116025946D01*
X117403683Y-116152247D01*
X117403676Y-116152252D01*
X117247968Y-116307960D01*
X117247963Y-116307967D01*
X117121662Y-116488342D01*
X117121660Y-116488346D01*
X117028597Y-116687920D01*
X116971601Y-116900627D01*
X116971600Y-116900634D01*
X116952409Y-117119997D01*
X116952409Y-117120002D01*
X116971588Y-117339229D01*
X116971601Y-117339371D01*
X117028596Y-117552076D01*
X117028597Y-117552079D01*
X117028598Y-117552081D01*
X117097462Y-117699761D01*
X117121660Y-117751654D01*
X117247967Y-117932038D01*
X117403678Y-118087749D01*
X117584062Y-118214056D01*
X117783640Y-118307120D01*
X117996345Y-118364115D01*
X118153038Y-118377823D01*
X118215714Y-118383307D01*
X118215716Y-118383307D01*
X118215718Y-118383307D01*
X118246121Y-118380646D01*
X118435087Y-118364115D01*
X118467546Y-118355417D01*
X118537394Y-118357078D01*
X118587322Y-118387510D01*
X119603645Y-119403833D01*
X119691880Y-119492068D01*
X119691884Y-119492072D01*
X119795634Y-119561396D01*
X119795640Y-119561399D01*
X119795641Y-119561400D01*
X119910931Y-119609155D01*
X120033317Y-119633499D01*
X120033321Y-119633500D01*
X120033322Y-119633500D01*
X134562395Y-119633500D01*
X134562396Y-119633499D01*
X134684785Y-119609155D01*
X134800075Y-119561400D01*
X134903833Y-119492071D01*
X134992071Y-119403833D01*
X135061400Y-119300075D01*
X135109155Y-119184785D01*
X135133500Y-119062394D01*
X135133500Y-118134907D01*
X137312358Y-118134907D01*
X137341581Y-118281822D01*
X137341583Y-118281830D01*
X137398909Y-118420229D01*
X137398914Y-118420238D01*
X137482138Y-118544790D01*
X137482141Y-118544794D01*
X137588063Y-118650716D01*
X137588067Y-118650719D01*
X137712619Y-118733943D01*
X137712625Y-118733946D01*
X137712626Y-118733947D01*
X137851028Y-118791275D01*
X137997950Y-118820499D01*
X137997954Y-118820500D01*
X137997955Y-118820500D01*
X138147762Y-118820500D01*
X138147763Y-118820499D01*
X138294688Y-118791275D01*
X138433090Y-118733947D01*
X138557649Y-118650719D01*
X138663577Y-118544791D01*
X138746805Y-118420232D01*
X138804133Y-118281830D01*
X138833358Y-118134903D01*
X138833358Y-117985097D01*
X138804133Y-117838170D01*
X138746805Y-117699768D01*
X138746804Y-117699767D01*
X138746801Y-117699761D01*
X138663577Y-117575209D01*
X138663574Y-117575205D01*
X138557652Y-117469283D01*
X138557648Y-117469280D01*
X138433096Y-117386056D01*
X138433087Y-117386051D01*
X138294688Y-117328725D01*
X138294680Y-117328723D01*
X138147765Y-117299500D01*
X138147761Y-117299500D01*
X137997955Y-117299500D01*
X137997950Y-117299500D01*
X137851035Y-117328723D01*
X137851027Y-117328725D01*
X137712628Y-117386051D01*
X137712619Y-117386056D01*
X137588067Y-117469280D01*
X137588063Y-117469283D01*
X137482141Y-117575205D01*
X137482138Y-117575209D01*
X137398914Y-117699761D01*
X137398909Y-117699770D01*
X137341583Y-117838169D01*
X137341581Y-117838177D01*
X137312358Y-117985092D01*
X137312358Y-118134907D01*
X135133500Y-118134907D01*
X135133500Y-117120002D01*
X139809551Y-117120002D01*
X139828730Y-117339229D01*
X139828743Y-117339371D01*
X139885738Y-117552076D01*
X139885739Y-117552079D01*
X139885740Y-117552081D01*
X139954604Y-117699761D01*
X139978802Y-117751654D01*
X140105109Y-117932038D01*
X140260820Y-118087749D01*
X140441204Y-118214056D01*
X140640782Y-118307120D01*
X140853487Y-118364115D01*
X141010180Y-118377823D01*
X141072856Y-118383307D01*
X141072858Y-118383307D01*
X141072860Y-118383307D01*
X141127700Y-118378509D01*
X141292229Y-118364115D01*
X141504934Y-118307120D01*
X141704512Y-118214056D01*
X141884896Y-118087749D01*
X142040607Y-117932038D01*
X142166914Y-117751654D01*
X142259978Y-117552076D01*
X142316973Y-117339371D01*
X142336165Y-117120000D01*
X142316973Y-116900629D01*
X142259978Y-116687924D01*
X142166914Y-116488347D01*
X142166912Y-116488344D01*
X142166911Y-116488342D01*
X142103760Y-116398154D01*
X142040607Y-116307962D01*
X141884896Y-116152251D01*
X141704512Y-116025944D01*
X141704508Y-116025942D01*
X141504939Y-115932882D01*
X141504937Y-115932881D01*
X141504934Y-115932880D01*
X141353635Y-115892339D01*
X141292230Y-115875885D01*
X141292223Y-115875884D01*
X141072860Y-115856693D01*
X141072856Y-115856693D01*
X140853492Y-115875884D01*
X140853485Y-115875885D01*
X140640778Y-115932881D01*
X140441204Y-116025944D01*
X140441200Y-116025946D01*
X140260825Y-116152247D01*
X140260818Y-116152252D01*
X140105110Y-116307960D01*
X140105105Y-116307967D01*
X139978804Y-116488342D01*
X139978802Y-116488346D01*
X139885739Y-116687920D01*
X139828743Y-116900627D01*
X139828742Y-116900634D01*
X139809551Y-117119997D01*
X139809551Y-117120002D01*
X135133500Y-117120002D01*
X135133500Y-114670551D01*
X139814358Y-114670551D01*
X139824971Y-114774428D01*
X139880741Y-114942735D01*
X139880742Y-114942738D01*
X139973825Y-115093647D01*
X139973828Y-115093651D01*
X140099206Y-115219029D01*
X140099210Y-115219032D01*
X140250119Y-115312115D01*
X140250122Y-115312116D01*
X140418429Y-115367886D01*
X140418430Y-115367886D01*
X140418433Y-115367887D01*
X140522314Y-115378500D01*
X140522319Y-115378500D01*
X141623397Y-115378500D01*
X141623402Y-115378500D01*
X141727283Y-115367887D01*
X141895596Y-115312115D01*
X142046509Y-115219030D01*
X142171888Y-115093651D01*
X142264973Y-114942738D01*
X142320745Y-114774425D01*
X142331358Y-114670544D01*
X142331358Y-113569456D01*
X142320745Y-113465575D01*
X142320744Y-113465571D01*
X142264974Y-113297264D01*
X142264973Y-113297261D01*
X142171890Y-113146352D01*
X142171887Y-113146348D01*
X142046509Y-113020970D01*
X142046505Y-113020967D01*
X141895596Y-112927884D01*
X141895593Y-112927883D01*
X141727286Y-112872113D01*
X141623409Y-112861500D01*
X141623402Y-112861500D01*
X140522314Y-112861500D01*
X140522306Y-112861500D01*
X140418429Y-112872113D01*
X140250122Y-112927883D01*
X140250119Y-112927884D01*
X140099210Y-113020967D01*
X140099206Y-113020970D01*
X139973828Y-113146348D01*
X139973825Y-113146352D01*
X139880742Y-113297261D01*
X139880741Y-113297264D01*
X139824971Y-113465571D01*
X139814358Y-113569448D01*
X139814358Y-114670551D01*
X135133500Y-114670551D01*
X135133500Y-110643766D01*
X135153185Y-110576727D01*
X135169819Y-110556085D01*
X154078469Y-91647436D01*
X154078472Y-91647433D01*
X154093767Y-91624542D01*
X154147801Y-91543675D01*
X154195555Y-91428384D01*
X154219900Y-91305994D01*
X154219900Y-91181206D01*
X154219900Y-90500000D01*
X158586496Y-90500000D01*
X158606458Y-90689928D01*
X158606459Y-90689931D01*
X158665470Y-90871549D01*
X158665473Y-90871556D01*
X158754766Y-91026217D01*
X158760960Y-91036944D01*
X158834649Y-91118784D01*
X158864880Y-91181775D01*
X158866500Y-91201756D01*
X158866500Y-127622398D01*
X158890843Y-127744777D01*
X158890845Y-127744785D01*
X158938598Y-127860072D01*
X158938603Y-127860081D01*
X159007928Y-127963832D01*
X159007931Y-127963836D01*
X162732489Y-131688393D01*
X162765974Y-131749716D01*
X162764583Y-131808167D01*
X162755885Y-131840626D01*
X162755885Y-131840630D01*
X162736693Y-132059997D01*
X162736693Y-132060002D01*
X162755884Y-132279365D01*
X162755885Y-132279372D01*
X162765262Y-132314367D01*
X162812880Y-132492076D01*
X162812881Y-132492079D01*
X162812882Y-132492081D01*
X162881746Y-132639761D01*
X162905944Y-132691654D01*
X163032251Y-132872038D01*
X163187962Y-133027749D01*
X163368346Y-133154056D01*
X163567924Y-133247120D01*
X163780629Y-133304115D01*
X163937322Y-133317823D01*
X163999998Y-133323307D01*
X164000000Y-133323307D01*
X164000002Y-133323307D01*
X164054842Y-133318509D01*
X164219371Y-133304115D01*
X164432076Y-133247120D01*
X164631654Y-133154056D01*
X164744690Y-133074907D01*
X166239500Y-133074907D01*
X166268723Y-133221822D01*
X166268725Y-133221830D01*
X166326051Y-133360229D01*
X166326056Y-133360238D01*
X166409280Y-133484790D01*
X166409283Y-133484794D01*
X166515205Y-133590716D01*
X166515209Y-133590719D01*
X166639761Y-133673943D01*
X166639767Y-133673946D01*
X166639768Y-133673947D01*
X166778170Y-133731275D01*
X166925092Y-133760499D01*
X166925096Y-133760500D01*
X166925097Y-133760500D01*
X167074904Y-133760500D01*
X167074905Y-133760499D01*
X167221830Y-133731275D01*
X167360232Y-133673947D01*
X167484791Y-133590719D01*
X167590719Y-133484791D01*
X167673947Y-133360232D01*
X167731275Y-133221830D01*
X167760500Y-133074903D01*
X167760500Y-132925097D01*
X167731275Y-132778170D01*
X167673947Y-132639768D01*
X167673946Y-132639767D01*
X167673943Y-132639761D01*
X167590719Y-132515209D01*
X167590716Y-132515205D01*
X167484794Y-132409283D01*
X167484790Y-132409280D01*
X167360238Y-132326056D01*
X167360229Y-132326051D01*
X167221830Y-132268725D01*
X167221822Y-132268723D01*
X167074907Y-132239500D01*
X167074903Y-132239500D01*
X166925097Y-132239500D01*
X166925092Y-132239500D01*
X166778177Y-132268723D01*
X166778169Y-132268725D01*
X166639770Y-132326051D01*
X166639761Y-132326056D01*
X166515209Y-132409280D01*
X166515205Y-132409283D01*
X166409283Y-132515205D01*
X166409280Y-132515209D01*
X166326056Y-132639761D01*
X166326051Y-132639770D01*
X166268725Y-132778169D01*
X166268723Y-132778177D01*
X166239500Y-132925092D01*
X166239500Y-133074907D01*
X164744690Y-133074907D01*
X164812038Y-133027749D01*
X164967749Y-132872038D01*
X165094056Y-132691654D01*
X165187120Y-132492076D01*
X165244115Y-132279371D01*
X165263307Y-132060000D01*
X165244115Y-131840629D01*
X165187120Y-131627924D01*
X165094056Y-131428347D01*
X165094054Y-131428344D01*
X165094053Y-131428342D01*
X165009760Y-131307960D01*
X164967749Y-131247962D01*
X164812038Y-131092251D01*
X164631654Y-130965944D01*
X164560750Y-130932881D01*
X164432081Y-130872882D01*
X164432079Y-130872881D01*
X164432076Y-130872880D01*
X164280777Y-130832339D01*
X164219372Y-130815885D01*
X164219365Y-130815884D01*
X164000002Y-130796693D01*
X163999998Y-130796693D01*
X163853752Y-130809487D01*
X163780629Y-130815885D01*
X163780626Y-130815885D01*
X163748167Y-130824583D01*
X163678317Y-130822920D01*
X163628393Y-130792489D01*
X163366085Y-130530181D01*
X163332600Y-130468858D01*
X163337584Y-130399166D01*
X163379456Y-130343233D01*
X163444920Y-130318816D01*
X163453766Y-130318500D01*
X164550539Y-130318500D01*
X164550544Y-130318500D01*
X164654425Y-130307887D01*
X164822738Y-130252115D01*
X164973651Y-130159030D01*
X165099030Y-130033651D01*
X165192115Y-129882738D01*
X165247887Y-129714425D01*
X165258500Y-129610544D01*
X165258500Y-128509456D01*
X165247887Y-128405575D01*
X165214962Y-128306210D01*
X165192116Y-128237264D01*
X165192115Y-128237261D01*
X165099032Y-128086352D01*
X165099029Y-128086348D01*
X164973651Y-127960970D01*
X164973647Y-127960967D01*
X164822738Y-127867884D01*
X164822735Y-127867883D01*
X164654428Y-127812113D01*
X164550551Y-127801500D01*
X164550544Y-127801500D01*
X163449456Y-127801500D01*
X163449448Y-127801500D01*
X163345571Y-127812113D01*
X163177264Y-127867883D01*
X163177261Y-127867884D01*
X163026352Y-127960967D01*
X163026348Y-127960970D01*
X162900970Y-128086348D01*
X162900967Y-128086352D01*
X162807884Y-128237261D01*
X162807883Y-128237264D01*
X162752113Y-128405571D01*
X162741500Y-128509448D01*
X162741500Y-129606234D01*
X162721815Y-129673273D01*
X162669011Y-129719028D01*
X162599853Y-129728972D01*
X162536297Y-129699947D01*
X162529819Y-129693915D01*
X160169819Y-127333915D01*
X160136334Y-127272592D01*
X160133500Y-127246234D01*
X160133500Y-118638373D01*
X160153185Y-118571334D01*
X160205989Y-118525579D01*
X160275147Y-118515635D01*
X160338703Y-118544660D01*
X160345181Y-118550692D01*
X160445205Y-118650716D01*
X160445209Y-118650719D01*
X160569761Y-118733943D01*
X160569767Y-118733946D01*
X160569768Y-118733947D01*
X160708170Y-118791275D01*
X160855092Y-118820499D01*
X160855096Y-118820500D01*
X160855097Y-118820500D01*
X161004904Y-118820500D01*
X161004905Y-118820499D01*
X161151830Y-118791275D01*
X161290232Y-118733947D01*
X161414791Y-118650719D01*
X161520719Y-118544791D01*
X161603947Y-118420232D01*
X161661275Y-118281830D01*
X161690500Y-118134903D01*
X161690500Y-117985097D01*
X161661275Y-117838170D01*
X161603947Y-117699768D01*
X161603946Y-117699767D01*
X161603943Y-117699761D01*
X161520719Y-117575209D01*
X161520716Y-117575205D01*
X161414794Y-117469283D01*
X161414790Y-117469280D01*
X161290238Y-117386056D01*
X161290229Y-117386051D01*
X161151830Y-117328725D01*
X161151822Y-117328723D01*
X161004907Y-117299500D01*
X161004903Y-117299500D01*
X160855097Y-117299500D01*
X160855092Y-117299500D01*
X160708177Y-117328723D01*
X160708169Y-117328725D01*
X160569770Y-117386051D01*
X160569761Y-117386056D01*
X160445209Y-117469280D01*
X160445205Y-117469283D01*
X160345181Y-117569308D01*
X160283858Y-117602793D01*
X160214166Y-117597809D01*
X160158233Y-117555937D01*
X160133816Y-117490473D01*
X160133500Y-117481627D01*
X160133500Y-91201756D01*
X160153185Y-91134717D01*
X160165346Y-91118788D01*
X160239040Y-91036944D01*
X160334527Y-90871556D01*
X160393542Y-90689928D01*
X160413504Y-90500000D01*
X160393542Y-90310072D01*
X160334527Y-90128444D01*
X160239040Y-89963056D01*
X160111253Y-89821134D01*
X159956752Y-89708882D01*
X159782288Y-89631206D01*
X159782286Y-89631205D01*
X159595487Y-89591500D01*
X159404513Y-89591500D01*
X159217714Y-89631205D01*
X159043246Y-89708883D01*
X158888745Y-89821135D01*
X158760959Y-89963057D01*
X158665473Y-90128443D01*
X158665470Y-90128450D01*
X158606459Y-90310068D01*
X158606458Y-90310072D01*
X158586496Y-90500000D01*
X154219900Y-90500000D01*
X154219900Y-56655356D01*
X154239585Y-56588317D01*
X154251746Y-56572388D01*
X154325440Y-56490544D01*
X154420927Y-56325156D01*
X154479942Y-56143528D01*
X154499904Y-55953600D01*
X154479942Y-55763672D01*
X154420927Y-55582044D01*
X154325440Y-55416656D01*
X154197653Y-55274734D01*
X154043152Y-55162482D01*
X153868688Y-55084806D01*
X153868686Y-55084805D01*
X153681887Y-55045100D01*
X153490913Y-55045100D01*
X153304114Y-55084805D01*
X153129646Y-55162483D01*
X152975145Y-55274735D01*
X152847359Y-55416657D01*
X152751873Y-55582043D01*
X152751870Y-55582050D01*
X152729018Y-55652383D01*
X152692858Y-55763672D01*
X152672896Y-55953600D01*
X152692858Y-56143528D01*
X152692859Y-56143531D01*
X152751870Y-56325149D01*
X152751873Y-56325156D01*
X152847360Y-56490544D01*
X152921049Y-56572384D01*
X152951280Y-56635375D01*
X152952900Y-56655356D01*
X152952900Y-63330875D01*
X152933215Y-63397914D01*
X152880411Y-63443669D01*
X152811253Y-63453613D01*
X152747697Y-63424588D01*
X152721513Y-63392875D01*
X152697198Y-63350761D01*
X152684840Y-63329356D01*
X152557053Y-63187434D01*
X152402552Y-63075182D01*
X152228088Y-62997506D01*
X152228086Y-62997505D01*
X152041287Y-62957800D01*
X151850313Y-62957800D01*
X151663514Y-62997505D01*
X151489046Y-63075183D01*
X151334545Y-63187435D01*
X151206759Y-63329357D01*
X151111273Y-63494743D01*
X151111270Y-63494750D01*
X151053659Y-63672060D01*
X151052258Y-63676372D01*
X151032296Y-63866300D01*
X151052258Y-64056228D01*
X151052259Y-64056231D01*
X151111270Y-64237849D01*
X151111273Y-64237856D01*
X151182466Y-64361167D01*
X151206760Y-64403244D01*
X151280449Y-64485084D01*
X151310680Y-64548075D01*
X151312300Y-64568056D01*
X151312300Y-66396100D01*
X151292615Y-66463139D01*
X151239811Y-66508894D01*
X151188300Y-66520100D01*
X151103813Y-66520100D01*
X150917014Y-66559805D01*
X150742546Y-66637483D01*
X150588045Y-66749735D01*
X150460259Y-66891657D01*
X150364773Y-67057043D01*
X150364770Y-67057050D01*
X150314150Y-67212843D01*
X150305758Y-67238672D01*
X150285796Y-67428600D01*
X150305758Y-67618528D01*
X150305759Y-67618531D01*
X150364770Y-67800149D01*
X150364773Y-67800156D01*
X150460260Y-67965544D01*
X150499409Y-68009023D01*
X150588041Y-68107461D01*
X150588045Y-68107464D01*
X150588047Y-68107466D01*
X150616685Y-68128273D01*
X150659350Y-68183600D01*
X150667800Y-68228590D01*
X150667800Y-82173500D01*
X150648115Y-82240539D01*
X150595311Y-82286294D01*
X150543800Y-82297500D01*
X150480513Y-82297500D01*
X150293714Y-82337205D01*
X150119246Y-82414883D01*
X149964745Y-82527135D01*
X149836959Y-82669057D01*
X149741473Y-82834443D01*
X149741470Y-82834450D01*
X149687680Y-83000000D01*
X149682458Y-83016072D01*
X149662496Y-83206000D01*
X149682458Y-83395928D01*
X149682459Y-83395931D01*
X149741470Y-83577549D01*
X149741473Y-83577556D01*
X149797887Y-83675269D01*
X149836960Y-83742944D01*
X149910649Y-83824784D01*
X149940880Y-83887775D01*
X149942500Y-83907756D01*
X149942500Y-84241333D01*
X149922815Y-84308372D01*
X149906181Y-84329014D01*
X137855642Y-96379552D01*
X137794319Y-96413037D01*
X137724627Y-96408053D01*
X137668694Y-96366181D01*
X137655579Y-96344276D01*
X137654069Y-96341038D01*
X137629488Y-96288324D01*
X137629485Y-96288320D01*
X137629485Y-96288319D01*
X137501978Y-96106220D01*
X137442007Y-96046249D01*
X137344781Y-95949023D01*
X137162677Y-95821512D01*
X137048738Y-95768381D01*
X136996299Y-95722210D01*
X136977147Y-95655017D01*
X136997363Y-95588135D01*
X137048739Y-95543618D01*
X137162677Y-95490488D01*
X137344781Y-95362977D01*
X137501977Y-95205781D01*
X137629488Y-95023677D01*
X137723440Y-94822196D01*
X137780978Y-94607463D01*
X137800353Y-94386000D01*
X137780978Y-94164537D01*
X137723440Y-93949804D01*
X137629488Y-93748324D01*
X137629486Y-93748321D01*
X137629485Y-93748319D01*
X137501978Y-93566220D01*
X137425246Y-93489488D01*
X137344781Y-93409023D01*
X137162677Y-93281512D01*
X137048738Y-93228381D01*
X136996299Y-93182210D01*
X136977147Y-93115017D01*
X136997363Y-93048135D01*
X137048739Y-93003618D01*
X137162677Y-92950488D01*
X137344781Y-92822977D01*
X137501977Y-92665781D01*
X137629488Y-92483677D01*
X137723440Y-92282196D01*
X137780978Y-92067463D01*
X137800353Y-91846000D01*
X137780978Y-91624537D01*
X137723440Y-91409804D01*
X137629488Y-91208324D01*
X137629486Y-91208321D01*
X137629485Y-91208319D01*
X137501978Y-91026220D01*
X137456953Y-90981195D01*
X137344781Y-90869023D01*
X137162677Y-90741512D01*
X137048738Y-90688381D01*
X136996299Y-90642210D01*
X136977147Y-90575017D01*
X136997363Y-90508135D01*
X137048739Y-90463618D01*
X137162677Y-90410488D01*
X137344781Y-90282977D01*
X137501977Y-90125781D01*
X137629488Y-89943677D01*
X137723440Y-89742196D01*
X137780978Y-89527463D01*
X137800353Y-89306000D01*
X137780978Y-89084537D01*
X137723440Y-88869804D01*
X137629488Y-88668324D01*
X137629486Y-88668321D01*
X137629485Y-88668319D01*
X137501978Y-88486220D01*
X137501975Y-88486217D01*
X137344781Y-88329023D01*
X137162677Y-88201512D01*
X137048738Y-88148381D01*
X136996299Y-88102210D01*
X136977147Y-88035017D01*
X136997363Y-87968135D01*
X137048739Y-87923618D01*
X137162677Y-87870488D01*
X137344781Y-87742977D01*
X137501977Y-87585781D01*
X137629488Y-87403677D01*
X137723440Y-87202196D01*
X137780978Y-86987463D01*
X137800353Y-86766000D01*
X137780978Y-86544537D01*
X137723440Y-86329804D01*
X137629488Y-86128324D01*
X137629486Y-86128321D01*
X137629485Y-86128319D01*
X137501978Y-85946220D01*
X137501975Y-85946217D01*
X137344781Y-85789023D01*
X137162677Y-85661512D01*
X137156359Y-85658566D01*
X137048739Y-85608382D01*
X136996299Y-85562210D01*
X136977147Y-85495017D01*
X136997363Y-85428135D01*
X137048739Y-85383618D01*
X137162677Y-85330488D01*
X137344781Y-85202977D01*
X137501977Y-85045781D01*
X137629488Y-84863677D01*
X137723440Y-84662196D01*
X137780978Y-84447463D01*
X137800353Y-84226000D01*
X137780978Y-84004537D01*
X137723440Y-83789804D01*
X137629488Y-83588324D01*
X137629486Y-83588321D01*
X137629485Y-83588319D01*
X137501978Y-83406220D01*
X137456321Y-83360563D01*
X137344781Y-83249023D01*
X137162677Y-83121512D01*
X137048738Y-83068381D01*
X136996299Y-83022210D01*
X136977147Y-82955017D01*
X136997363Y-82888135D01*
X137048739Y-82843618D01*
X137068400Y-82834450D01*
X137162677Y-82790488D01*
X137344781Y-82662977D01*
X137501977Y-82505781D01*
X137629488Y-82323677D01*
X137723440Y-82122196D01*
X137780978Y-81907463D01*
X137800353Y-81686000D01*
X137780978Y-81464537D01*
X137723440Y-81249804D01*
X137629488Y-81048324D01*
X137629486Y-81048321D01*
X137629485Y-81048319D01*
X137501978Y-80866220D01*
X137501975Y-80866217D01*
X137344781Y-80709023D01*
X137162677Y-80581512D01*
X137048738Y-80528381D01*
X136996299Y-80482210D01*
X136977147Y-80415017D01*
X136997363Y-80348135D01*
X137048739Y-80303618D01*
X137162677Y-80250488D01*
X137344781Y-80122977D01*
X137501977Y-79965781D01*
X137629488Y-79783677D01*
X137723440Y-79582196D01*
X137780978Y-79367463D01*
X137800353Y-79146000D01*
X137780978Y-78924537D01*
X137723440Y-78709804D01*
X137629488Y-78508324D01*
X137629486Y-78508321D01*
X137629485Y-78508319D01*
X137501978Y-78326220D01*
X137501975Y-78326217D01*
X137344781Y-78169023D01*
X137162677Y-78041512D01*
X137048738Y-77988381D01*
X136996299Y-77942210D01*
X136977147Y-77875017D01*
X136997363Y-77808135D01*
X137048739Y-77763618D01*
X137162677Y-77710488D01*
X137344781Y-77582977D01*
X137501977Y-77425781D01*
X137629488Y-77243677D01*
X137723440Y-77042196D01*
X137780978Y-76827463D01*
X137795509Y-76661365D01*
X137800353Y-76606002D01*
X137800353Y-76605997D01*
X137780978Y-76384542D01*
X137780978Y-76384537D01*
X137723440Y-76169804D01*
X137629488Y-75968324D01*
X137629486Y-75968321D01*
X137629485Y-75968319D01*
X137501978Y-75786220D01*
X137431084Y-75715326D01*
X137344781Y-75629023D01*
X137162677Y-75501512D01*
X137116205Y-75479842D01*
X137048739Y-75448382D01*
X136996299Y-75402210D01*
X136977147Y-75335017D01*
X136997363Y-75268135D01*
X137048739Y-75223618D01*
X137162677Y-75170488D01*
X137344781Y-75042977D01*
X137501977Y-74885781D01*
X137629488Y-74703677D01*
X137723440Y-74502196D01*
X137780978Y-74287463D01*
X137800353Y-74066000D01*
X137797588Y-74034400D01*
X137793087Y-73982951D01*
X137780978Y-73844537D01*
X137723440Y-73629804D01*
X137629488Y-73428324D01*
X137629486Y-73428321D01*
X137629485Y-73428319D01*
X137501978Y-73246220D01*
X137501975Y-73246217D01*
X137344781Y-73089023D01*
X137162677Y-72961512D01*
X137048738Y-72908381D01*
X136996299Y-72862210D01*
X136977147Y-72795017D01*
X136997363Y-72728135D01*
X137048739Y-72683618D01*
X137162677Y-72630488D01*
X137344781Y-72502977D01*
X137501977Y-72345781D01*
X137629488Y-72163677D01*
X137723440Y-71962196D01*
X137780978Y-71747463D01*
X137800353Y-71526000D01*
X137780978Y-71304537D01*
X137723440Y-71089804D01*
X137629488Y-70888324D01*
X137629486Y-70888321D01*
X137629485Y-70888319D01*
X137501978Y-70706220D01*
X137436577Y-70640819D01*
X137344781Y-70549023D01*
X137162677Y-70421512D01*
X137096780Y-70390784D01*
X137048739Y-70368382D01*
X136996299Y-70322210D01*
X136977147Y-70255017D01*
X136997363Y-70188135D01*
X137048739Y-70143618D01*
X137162677Y-70090488D01*
X137344781Y-69962977D01*
X137501977Y-69805781D01*
X137629488Y-69623677D01*
X137723440Y-69422196D01*
X137780978Y-69207463D01*
X137800353Y-68986000D01*
X137798106Y-68960321D01*
X137780978Y-68764542D01*
X137780978Y-68764537D01*
X137723440Y-68549804D01*
X137629488Y-68348324D01*
X137629486Y-68348321D01*
X137629485Y-68348319D01*
X137501978Y-68166220D01*
X137443219Y-68107461D01*
X137344781Y-68009023D01*
X137162677Y-67881512D01*
X137048738Y-67828381D01*
X136996299Y-67782210D01*
X136977147Y-67715017D01*
X136997363Y-67648135D01*
X137048739Y-67603618D01*
X137089952Y-67584400D01*
X137162677Y-67550488D01*
X137344781Y-67422977D01*
X137501977Y-67265781D01*
X137629488Y-67083677D01*
X137723440Y-66882196D01*
X137780978Y-66667463D01*
X137800353Y-66446000D01*
X137780978Y-66224537D01*
X137770215Y-66184370D01*
X137771876Y-66114521D01*
X137802306Y-66064596D01*
X138690071Y-65176833D01*
X138759400Y-65073075D01*
X138807155Y-64957785D01*
X138831500Y-64835394D01*
X138831500Y-64710607D01*
X138831500Y-63727756D01*
X138851185Y-63660717D01*
X138863346Y-63644788D01*
X138937040Y-63562944D01*
X139032527Y-63397556D01*
X139091542Y-63215928D01*
X139111504Y-63026000D01*
X139091542Y-62836072D01*
X139032527Y-62654444D01*
X138937040Y-62489056D01*
X138809253Y-62347134D01*
X138654752Y-62234882D01*
X138480288Y-62157206D01*
X138480286Y-62157205D01*
X138293487Y-62117500D01*
X138102513Y-62117500D01*
X137915714Y-62157205D01*
X137752113Y-62230044D01*
X137682863Y-62239328D01*
X137619586Y-62209699D01*
X137582373Y-62150564D01*
X137583039Y-62080697D01*
X137600101Y-62045645D01*
X137629488Y-62003677D01*
X137723440Y-61802196D01*
X137780978Y-61587463D01*
X137800353Y-61366000D01*
X137780978Y-61144537D01*
X137723440Y-60929804D01*
X137629488Y-60728324D01*
X137629486Y-60728321D01*
X137629485Y-60728319D01*
X137501978Y-60546220D01*
X137449554Y-60493796D01*
X137344781Y-60389023D01*
X137204677Y-60290921D01*
X137162676Y-60261511D01*
X136986801Y-60179500D01*
X136961196Y-60167560D01*
X136961193Y-60167559D01*
X136961191Y-60167558D01*
X136746465Y-60110022D01*
X136746457Y-60110021D01*
X136525002Y-60090647D01*
X136524998Y-60090647D01*
X136303542Y-60110021D01*
X136303535Y-60110022D01*
X136088800Y-60167561D01*
X135887323Y-60261512D01*
X135887319Y-60261514D01*
X135705217Y-60389023D01*
X135548023Y-60546217D01*
X135420514Y-60728319D01*
X135420512Y-60728323D01*
X135326561Y-60929800D01*
X135269022Y-61144535D01*
X135269021Y-61144542D01*
X135249647Y-61365997D01*
X135249647Y-61366002D01*
X135269021Y-61587457D01*
X135269022Y-61587465D01*
X135326558Y-61802191D01*
X135326559Y-61802193D01*
X135326560Y-61802196D01*
X135363832Y-61882127D01*
X135420511Y-62003676D01*
X135420512Y-62003677D01*
X135548023Y-62185781D01*
X135705219Y-62342977D01*
X135887323Y-62470488D01*
X136011317Y-62528307D01*
X136063756Y-62574479D01*
X136082908Y-62641673D01*
X136062692Y-62708554D01*
X136011317Y-62753071D01*
X135891590Y-62808901D01*
X135826811Y-62854258D01*
X136497553Y-63525000D01*
X136474840Y-63525000D01*
X136377939Y-63550964D01*
X136291060Y-63601124D01*
X136220124Y-63672060D01*
X136169964Y-63758939D01*
X136144000Y-63855840D01*
X136144000Y-63878553D01*
X135473258Y-63207811D01*
X135427901Y-63272590D01*
X135334579Y-63472720D01*
X135334575Y-63472729D01*
X135277426Y-63686013D01*
X135277424Y-63686023D01*
X135258179Y-63905999D01*
X135258179Y-63906000D01*
X135277424Y-64125976D01*
X135277426Y-64125986D01*
X135334575Y-64339270D01*
X135334580Y-64339284D01*
X135427898Y-64539405D01*
X135427901Y-64539411D01*
X135473258Y-64604187D01*
X135473259Y-64604188D01*
X136144000Y-63933447D01*
X136144000Y-63956160D01*
X136169964Y-64053061D01*
X136220124Y-64139940D01*
X136291060Y-64210876D01*
X136377939Y-64261036D01*
X136474840Y-64287000D01*
X136497551Y-64287000D01*
X135826810Y-64957740D01*
X135891590Y-65003099D01*
X135891592Y-65003100D01*
X136011316Y-65058928D01*
X136063756Y-65105100D01*
X136082908Y-65172293D01*
X136062693Y-65239174D01*
X136011318Y-65283692D01*
X135887320Y-65341514D01*
X135887319Y-65341514D01*
X135705217Y-65469023D01*
X135548023Y-65626217D01*
X135420514Y-65808319D01*
X135420512Y-65808323D01*
X135326561Y-66009800D01*
X135269022Y-66224535D01*
X135269021Y-66224542D01*
X135249647Y-66445997D01*
X135249647Y-66446002D01*
X135269021Y-66667457D01*
X135269022Y-66667465D01*
X135326558Y-66882191D01*
X135326559Y-66882193D01*
X135326560Y-66882196D01*
X135348964Y-66930241D01*
X135420511Y-67083676D01*
X135420512Y-67083677D01*
X135548023Y-67265781D01*
X135705219Y-67422977D01*
X135887323Y-67550488D01*
X136001261Y-67603618D01*
X136053700Y-67649790D01*
X136072852Y-67716984D01*
X136052636Y-67783865D01*
X136001261Y-67828382D01*
X135887323Y-67881512D01*
X135887319Y-67881514D01*
X135705217Y-68009023D01*
X135548023Y-68166217D01*
X135420514Y-68348319D01*
X135420512Y-68348323D01*
X135326561Y-68549800D01*
X135269022Y-68764535D01*
X135269021Y-68764542D01*
X135249647Y-68985997D01*
X135249647Y-68986002D01*
X135269021Y-69207457D01*
X135269022Y-69207465D01*
X135326558Y-69422191D01*
X135326559Y-69422193D01*
X135326560Y-69422196D01*
X135373536Y-69522936D01*
X135420511Y-69623676D01*
X135420512Y-69623677D01*
X135548023Y-69805781D01*
X135705219Y-69962977D01*
X135874137Y-70081255D01*
X135887323Y-70090488D01*
X136001261Y-70143618D01*
X136053700Y-70189790D01*
X136072852Y-70256984D01*
X136052636Y-70323865D01*
X136001261Y-70368382D01*
X135887323Y-70421512D01*
X135887319Y-70421514D01*
X135705217Y-70549023D01*
X135548023Y-70706217D01*
X135420514Y-70888319D01*
X135420512Y-70888323D01*
X135326561Y-71089800D01*
X135269022Y-71304535D01*
X135269021Y-71304542D01*
X135249647Y-71525997D01*
X135249647Y-71526003D01*
X135253349Y-71568324D01*
X135239582Y-71636824D01*
X135190966Y-71687006D01*
X135122937Y-71702939D01*
X135057094Y-71679563D01*
X135026719Y-71648021D01*
X134992072Y-71596168D01*
X134964228Y-71568324D01*
X134903833Y-71507929D01*
X133946620Y-70550716D01*
X133913135Y-70489393D01*
X133910983Y-70476015D01*
X133893542Y-70310072D01*
X133834527Y-70128444D01*
X133739040Y-69963056D01*
X133611253Y-69821134D01*
X133456752Y-69708882D01*
X133282288Y-69631206D01*
X133282286Y-69631205D01*
X133095487Y-69591500D01*
X132904513Y-69591500D01*
X132717714Y-69631205D01*
X132543246Y-69708883D01*
X132388745Y-69821135D01*
X132260959Y-69963057D01*
X132165473Y-70128443D01*
X132165470Y-70128450D01*
X132119471Y-70270022D01*
X132106458Y-70310072D01*
X132086496Y-70500000D01*
X132106458Y-70689928D01*
X132106459Y-70689931D01*
X132165470Y-70871549D01*
X132165473Y-70871556D01*
X132260960Y-71036944D01*
X132388747Y-71178866D01*
X132543248Y-71291118D01*
X132717712Y-71368794D01*
X132904513Y-71408500D01*
X132961234Y-71408500D01*
X133028273Y-71428185D01*
X133048915Y-71444819D01*
X133830181Y-72226085D01*
X133863666Y-72287408D01*
X133866500Y-72313766D01*
X133866500Y-82298241D01*
X133846815Y-82365280D01*
X133834650Y-82381213D01*
X133760963Y-82463050D01*
X133760958Y-82463057D01*
X133665473Y-82628443D01*
X133665470Y-82628450D01*
X133612821Y-82790488D01*
X133606458Y-82810072D01*
X133586496Y-83000000D01*
X133606458Y-83189928D01*
X133606459Y-83189930D01*
X133606459Y-83189931D01*
X133665470Y-83371549D01*
X133665473Y-83371556D01*
X133760960Y-83536944D01*
X133888747Y-83678866D01*
X134043248Y-83791118D01*
X134217712Y-83868794D01*
X134404513Y-83908500D01*
X134595487Y-83908500D01*
X134782288Y-83868794D01*
X134956752Y-83791118D01*
X135111253Y-83678866D01*
X135114492Y-83675267D01*
X135173977Y-83638618D01*
X135243834Y-83639946D01*
X135301883Y-83678831D01*
X135329695Y-83742927D01*
X135326419Y-83790329D01*
X135307709Y-83860158D01*
X135269022Y-84004535D01*
X135269021Y-84004542D01*
X135249647Y-84225997D01*
X135249647Y-84226002D01*
X135269021Y-84447457D01*
X135269022Y-84447465D01*
X135326558Y-84662191D01*
X135326559Y-84662193D01*
X135326560Y-84662196D01*
X135373536Y-84762936D01*
X135420511Y-84863676D01*
X135420512Y-84863677D01*
X135548023Y-85045781D01*
X135705219Y-85202977D01*
X135887323Y-85330488D01*
X136001261Y-85383618D01*
X136053700Y-85429790D01*
X136072852Y-85496984D01*
X136052636Y-85563865D01*
X136001261Y-85608382D01*
X135887323Y-85661512D01*
X135887319Y-85661514D01*
X135705217Y-85789023D01*
X135548023Y-85946217D01*
X135420514Y-86128319D01*
X135420512Y-86128323D01*
X135326561Y-86329800D01*
X135269022Y-86544535D01*
X135269021Y-86544542D01*
X135249647Y-86765997D01*
X135249647Y-86766002D01*
X135269021Y-86987457D01*
X135269022Y-86987465D01*
X135326558Y-87202191D01*
X135326559Y-87202193D01*
X135326560Y-87202196D01*
X135373536Y-87302936D01*
X135420511Y-87403676D01*
X135420512Y-87403677D01*
X135548023Y-87585781D01*
X135705219Y-87742977D01*
X135887323Y-87870488D01*
X136001261Y-87923618D01*
X136053700Y-87969790D01*
X136072852Y-88036984D01*
X136052636Y-88103865D01*
X136001261Y-88148382D01*
X135887323Y-88201512D01*
X135887319Y-88201514D01*
X135705217Y-88329023D01*
X135548023Y-88486217D01*
X135420514Y-88668319D01*
X135420512Y-88668323D01*
X135326561Y-88869800D01*
X135269022Y-89084535D01*
X135269021Y-89084542D01*
X135249647Y-89305997D01*
X135249647Y-89306002D01*
X135269021Y-89527457D01*
X135269022Y-89527465D01*
X135326558Y-89742191D01*
X135326559Y-89742193D01*
X135326560Y-89742196D01*
X135363369Y-89821134D01*
X135420511Y-89943676D01*
X135420512Y-89943677D01*
X135548023Y-90125781D01*
X135705219Y-90282977D01*
X135877050Y-90403295D01*
X135887323Y-90410488D01*
X136001261Y-90463618D01*
X136053700Y-90509790D01*
X136072852Y-90576984D01*
X136052636Y-90643865D01*
X136001261Y-90688382D01*
X135887323Y-90741512D01*
X135887319Y-90741514D01*
X135705217Y-90869023D01*
X135548023Y-91026217D01*
X135420514Y-91208319D01*
X135420512Y-91208323D01*
X135326561Y-91409800D01*
X135269022Y-91624535D01*
X135269021Y-91624542D01*
X135249647Y-91845997D01*
X135249647Y-91846002D01*
X135269021Y-92067457D01*
X135269022Y-92067465D01*
X135326558Y-92282191D01*
X135326559Y-92282193D01*
X135326560Y-92282196D01*
X135373536Y-92382936D01*
X135420511Y-92483676D01*
X135420512Y-92483677D01*
X135548023Y-92665781D01*
X135705219Y-92822977D01*
X135887323Y-92950488D01*
X136001261Y-93003618D01*
X136053700Y-93049790D01*
X136072852Y-93116984D01*
X136052636Y-93183865D01*
X136001261Y-93228382D01*
X135887323Y-93281512D01*
X135887319Y-93281514D01*
X135705217Y-93409023D01*
X135548023Y-93566217D01*
X135420514Y-93748319D01*
X135420512Y-93748323D01*
X135326561Y-93949800D01*
X135269022Y-94164535D01*
X135269021Y-94164542D01*
X135249647Y-94385997D01*
X135249647Y-94386002D01*
X135269021Y-94607457D01*
X135269022Y-94607465D01*
X135326558Y-94822191D01*
X135326559Y-94822193D01*
X135326560Y-94822196D01*
X135373536Y-94922936D01*
X135420511Y-95023676D01*
X135446014Y-95060097D01*
X135548023Y-95205781D01*
X135705219Y-95362977D01*
X135887323Y-95490488D01*
X135937429Y-95513853D01*
X136001261Y-95543618D01*
X136053700Y-95589790D01*
X136072852Y-95656984D01*
X136052636Y-95723865D01*
X136001261Y-95768382D01*
X135887323Y-95821512D01*
X135887319Y-95821514D01*
X135705217Y-95949023D01*
X135548023Y-96106217D01*
X135420514Y-96288319D01*
X135420512Y-96288323D01*
X135326561Y-96489800D01*
X135269022Y-96704535D01*
X135269021Y-96704542D01*
X135249647Y-96925997D01*
X135249647Y-96926002D01*
X135269021Y-97147457D01*
X135269022Y-97147465D01*
X135326558Y-97362191D01*
X135326559Y-97362193D01*
X135326560Y-97362196D01*
X135373536Y-97462936D01*
X135420511Y-97563676D01*
X135420512Y-97563677D01*
X135548023Y-97745781D01*
X135705219Y-97902977D01*
X135887323Y-98030488D01*
X135943276Y-98056579D01*
X135995715Y-98102751D01*
X136014867Y-98169945D01*
X135994651Y-98236826D01*
X135978552Y-98256642D01*
X124405015Y-109830181D01*
X124343692Y-109863666D01*
X124317334Y-109866500D01*
X90487601Y-109866500D01*
X90365222Y-109890842D01*
X90365213Y-109890845D01*
X90249924Y-109938599D01*
X90249921Y-109938600D01*
X90146167Y-110007927D01*
X90146163Y-110007930D01*
X85400181Y-114753913D01*
X85338858Y-114787398D01*
X85269166Y-114782414D01*
X85213233Y-114740542D01*
X85188816Y-114675078D01*
X85188500Y-114666232D01*
X85188500Y-113569461D01*
X85188499Y-113569448D01*
X85184330Y-113528643D01*
X85177887Y-113465575D01*
X85177886Y-113465571D01*
X85122116Y-113297264D01*
X85122115Y-113297261D01*
X85029032Y-113146352D01*
X85029029Y-113146348D01*
X84903651Y-113020970D01*
X84903647Y-113020967D01*
X84752738Y-112927884D01*
X84752735Y-112927883D01*
X84584428Y-112872113D01*
X84480551Y-112861500D01*
X84480544Y-112861500D01*
X83379456Y-112861500D01*
X83379448Y-112861500D01*
X83275571Y-112872113D01*
X83107264Y-112927883D01*
X83107261Y-112927884D01*
X82956352Y-113020967D01*
X82956348Y-113020970D01*
X82830970Y-113146348D01*
X82830967Y-113146352D01*
X82737884Y-113297261D01*
X82737883Y-113297264D01*
X82682113Y-113465571D01*
X82671500Y-113569448D01*
X82671500Y-114670551D01*
X82682113Y-114774428D01*
X82737883Y-114942735D01*
X82737884Y-114942738D01*
X82830967Y-115093647D01*
X82830970Y-115093651D01*
X82956348Y-115219029D01*
X82956352Y-115219032D01*
X83107261Y-115312115D01*
X83107264Y-115312116D01*
X83275571Y-115367886D01*
X83275572Y-115367886D01*
X83275575Y-115367887D01*
X83379456Y-115378500D01*
X83379461Y-115378500D01*
X84476233Y-115378500D01*
X84543272Y-115398185D01*
X84589027Y-115450989D01*
X84598971Y-115520147D01*
X84569946Y-115583703D01*
X84563914Y-115590181D01*
X84301606Y-115852488D01*
X84240283Y-115885973D01*
X84181834Y-115884583D01*
X84149372Y-115875885D01*
X84149365Y-115875884D01*
X83930002Y-115856693D01*
X83929998Y-115856693D01*
X83710634Y-115875884D01*
X83710627Y-115875885D01*
X83497920Y-115932881D01*
X83298346Y-116025944D01*
X83298342Y-116025946D01*
X83117967Y-116152247D01*
X83117960Y-116152252D01*
X82962252Y-116307960D01*
X82962247Y-116307967D01*
X82835946Y-116488342D01*
X82835944Y-116488346D01*
X82742881Y-116687920D01*
X82685885Y-116900627D01*
X82685884Y-116900634D01*
X82666693Y-117119997D01*
X82666693Y-117120002D01*
X70994582Y-117120002D01*
X70986055Y-100000004D01*
X86257628Y-100000004D01*
X86277087Y-100259677D01*
X86277088Y-100259682D01*
X86335033Y-100513559D01*
X86335039Y-100513578D01*
X86430177Y-100755987D01*
X86560387Y-100981516D01*
X86606768Y-101039677D01*
X86606769Y-101039677D01*
X87265018Y-100381428D01*
X87268894Y-100390784D01*
X87359181Y-100525907D01*
X87474093Y-100640819D01*
X87609216Y-100731106D01*
X87618570Y-100734980D01*
X86959826Y-101393724D01*
X87128813Y-101508937D01*
X87128822Y-101508942D01*
X87363437Y-101621926D01*
X87363435Y-101621926D01*
X87612277Y-101698684D01*
X87612283Y-101698685D01*
X87869786Y-101737499D01*
X87869793Y-101737500D01*
X88130207Y-101737500D01*
X88130213Y-101737499D01*
X88387716Y-101698685D01*
X88387722Y-101698684D01*
X88636563Y-101621926D01*
X88871177Y-101508942D01*
X88871179Y-101508941D01*
X89040172Y-101393724D01*
X88381428Y-100734981D01*
X88390784Y-100731106D01*
X88525907Y-100640819D01*
X88640819Y-100525907D01*
X88731106Y-100390784D01*
X88734981Y-100381428D01*
X89393229Y-101039677D01*
X89439615Y-100981511D01*
X89569822Y-100755987D01*
X89664960Y-100513578D01*
X89664966Y-100513559D01*
X89722911Y-100259682D01*
X89722912Y-100259677D01*
X89742372Y-100000004D01*
X89742372Y-99999995D01*
X89722912Y-99740322D01*
X89722911Y-99740317D01*
X89664966Y-99486440D01*
X89664960Y-99486421D01*
X89569822Y-99244012D01*
X89439612Y-99018483D01*
X89393230Y-98960321D01*
X88734980Y-99618570D01*
X88731106Y-99609216D01*
X88640819Y-99474093D01*
X88525907Y-99359181D01*
X88390784Y-99268894D01*
X88381428Y-99265018D01*
X89040172Y-98606274D01*
X88871186Y-98491062D01*
X88871177Y-98491057D01*
X88636562Y-98378073D01*
X88636564Y-98378073D01*
X88387722Y-98301315D01*
X88387716Y-98301314D01*
X88130213Y-98262500D01*
X87869786Y-98262500D01*
X87612283Y-98301314D01*
X87612277Y-98301315D01*
X87363436Y-98378073D01*
X87128819Y-98491059D01*
X87128806Y-98491066D01*
X86959826Y-98606273D01*
X87618571Y-99265018D01*
X87609216Y-99268894D01*
X87474093Y-99359181D01*
X87359181Y-99474093D01*
X87268894Y-99609216D01*
X87265018Y-99618571D01*
X86606769Y-98960322D01*
X86560385Y-99018486D01*
X86430177Y-99244012D01*
X86335039Y-99486421D01*
X86335033Y-99486440D01*
X86277088Y-99740317D01*
X86277087Y-99740322D01*
X86257628Y-99999995D01*
X86257628Y-100000004D01*
X70986055Y-100000004D01*
X70982754Y-93372109D01*
X70982777Y-93369719D01*
X70989382Y-93036154D01*
X86254000Y-93036154D01*
X86260511Y-93096702D01*
X86260511Y-93096704D01*
X86294400Y-93187560D01*
X86311611Y-93233704D01*
X86399239Y-93350761D01*
X86516296Y-93438389D01*
X86653299Y-93489489D01*
X86680550Y-93492418D01*
X86713845Y-93495999D01*
X86713862Y-93496000D01*
X89286138Y-93496000D01*
X89286154Y-93495999D01*
X89313192Y-93493091D01*
X89346701Y-93489489D01*
X89483704Y-93438389D01*
X89600761Y-93350761D01*
X89688389Y-93233704D01*
X89739489Y-93096701D01*
X89743091Y-93063192D01*
X89745999Y-93036154D01*
X89746000Y-93036137D01*
X89746000Y-90463862D01*
X89745999Y-90463845D01*
X89742657Y-90432770D01*
X89739489Y-90403299D01*
X89688389Y-90266296D01*
X89600761Y-90149239D01*
X89483704Y-90061611D01*
X89346703Y-90010511D01*
X89286154Y-90004000D01*
X89286138Y-90004000D01*
X86713862Y-90004000D01*
X86713845Y-90004000D01*
X86653297Y-90010511D01*
X86653295Y-90010511D01*
X86516295Y-90061611D01*
X86399239Y-90149239D01*
X86311611Y-90266295D01*
X86260511Y-90403295D01*
X86260511Y-90403297D01*
X86254000Y-90463845D01*
X86254000Y-93036154D01*
X70989382Y-93036154D01*
X71306862Y-77003400D01*
X104745896Y-77003400D01*
X104765858Y-77193328D01*
X104765859Y-77193331D01*
X104824870Y-77374949D01*
X104824873Y-77374956D01*
X104920360Y-77540344D01*
X105048147Y-77682266D01*
X105202648Y-77794518D01*
X105377112Y-77872194D01*
X105563913Y-77911900D01*
X105754887Y-77911900D01*
X105941688Y-77872194D01*
X106116152Y-77794518D01*
X106270653Y-77682266D01*
X106398440Y-77540344D01*
X106493927Y-77374956D01*
X106552942Y-77193328D01*
X106570381Y-77027397D01*
X106596964Y-76962787D01*
X106606011Y-76952691D01*
X109642969Y-73915733D01*
X109704290Y-73882250D01*
X109773982Y-73887234D01*
X109829915Y-73929106D01*
X109854332Y-73994570D01*
X109854176Y-74014222D01*
X109849647Y-74065996D01*
X109849647Y-74066002D01*
X109869021Y-74287457D01*
X109869022Y-74287465D01*
X109926558Y-74502191D01*
X109926559Y-74502193D01*
X109926560Y-74502196D01*
X109969882Y-74595100D01*
X110020511Y-74703676D01*
X110020512Y-74703677D01*
X110148023Y-74885781D01*
X110305219Y-75042977D01*
X110487323Y-75170488D01*
X110601261Y-75223618D01*
X110653700Y-75269790D01*
X110672852Y-75336984D01*
X110652636Y-75403865D01*
X110601261Y-75448382D01*
X110487323Y-75501512D01*
X110487319Y-75501514D01*
X110305217Y-75629023D01*
X110148023Y-75786217D01*
X110020514Y-75968319D01*
X110020512Y-75968323D01*
X109926561Y-76169800D01*
X109869022Y-76384535D01*
X109869021Y-76384542D01*
X109849647Y-76605997D01*
X109849647Y-76606002D01*
X109869021Y-76827457D01*
X109869022Y-76827465D01*
X109926558Y-77042191D01*
X109926559Y-77042193D01*
X109926560Y-77042196D01*
X109969882Y-77135100D01*
X110020511Y-77243676D01*
X110020512Y-77243677D01*
X110148023Y-77425781D01*
X110305219Y-77582977D01*
X110457638Y-77689702D01*
X110487323Y-77710488D01*
X110601261Y-77763618D01*
X110653700Y-77809790D01*
X110672852Y-77876984D01*
X110652636Y-77943865D01*
X110601261Y-77988382D01*
X110487323Y-78041512D01*
X110487319Y-78041514D01*
X110305217Y-78169023D01*
X110148023Y-78326217D01*
X110020514Y-78508319D01*
X110020512Y-78508323D01*
X109926561Y-78709800D01*
X109869022Y-78924535D01*
X109869021Y-78924542D01*
X109849647Y-79145997D01*
X109849647Y-79146002D01*
X109869021Y-79367457D01*
X109869022Y-79367465D01*
X109926558Y-79582191D01*
X109926559Y-79582193D01*
X109926560Y-79582196D01*
X109969882Y-79675100D01*
X110020511Y-79783676D01*
X110020512Y-79783677D01*
X110148023Y-79965781D01*
X110305219Y-80122977D01*
X110487323Y-80250488D01*
X110601261Y-80303618D01*
X110653700Y-80349790D01*
X110672852Y-80416984D01*
X110652636Y-80483865D01*
X110601261Y-80528382D01*
X110487323Y-80581512D01*
X110487319Y-80581514D01*
X110305217Y-80709023D01*
X110148023Y-80866217D01*
X110020514Y-81048319D01*
X110020512Y-81048323D01*
X109926561Y-81249800D01*
X109869022Y-81464535D01*
X109869021Y-81464542D01*
X109849647Y-81685997D01*
X109849647Y-81686002D01*
X109869021Y-81907457D01*
X109869022Y-81907465D01*
X109926558Y-82122191D01*
X109926559Y-82122193D01*
X109926560Y-82122196D01*
X109973536Y-82222936D01*
X110020511Y-82323676D01*
X110020512Y-82323677D01*
X110148023Y-82505781D01*
X110305219Y-82662977D01*
X110487323Y-82790488D01*
X110601261Y-82843618D01*
X110653700Y-82889790D01*
X110672852Y-82956984D01*
X110652636Y-83023865D01*
X110601261Y-83068382D01*
X110487323Y-83121512D01*
X110487319Y-83121514D01*
X110305217Y-83249023D01*
X110148023Y-83406217D01*
X110020514Y-83588319D01*
X110020512Y-83588323D01*
X109926561Y-83789800D01*
X109869022Y-84004535D01*
X109869021Y-84004542D01*
X109849647Y-84225997D01*
X109849647Y-84226002D01*
X109869021Y-84447457D01*
X109869022Y-84447465D01*
X109926558Y-84662191D01*
X109926559Y-84662193D01*
X109926560Y-84662196D01*
X109973536Y-84762936D01*
X110020511Y-84863676D01*
X110020512Y-84863677D01*
X110148023Y-85045781D01*
X110305219Y-85202977D01*
X110487323Y-85330488D01*
X110601261Y-85383618D01*
X110653700Y-85429790D01*
X110672852Y-85496984D01*
X110652636Y-85563865D01*
X110601261Y-85608382D01*
X110487323Y-85661512D01*
X110487319Y-85661514D01*
X110305217Y-85789023D01*
X110148023Y-85946217D01*
X110020514Y-86128319D01*
X110020512Y-86128323D01*
X109926561Y-86329800D01*
X109869022Y-86544535D01*
X109869021Y-86544542D01*
X109849647Y-86765997D01*
X109849647Y-86766002D01*
X109869021Y-86987457D01*
X109869022Y-86987465D01*
X109926558Y-87202191D01*
X109926559Y-87202193D01*
X109926560Y-87202196D01*
X109973536Y-87302936D01*
X110020511Y-87403676D01*
X110020512Y-87403677D01*
X110148023Y-87585781D01*
X110305219Y-87742977D01*
X110487323Y-87870488D01*
X110601261Y-87923618D01*
X110653700Y-87969790D01*
X110672852Y-88036984D01*
X110652636Y-88103865D01*
X110601261Y-88148382D01*
X110487323Y-88201512D01*
X110487319Y-88201514D01*
X110305217Y-88329023D01*
X110148023Y-88486217D01*
X110020514Y-88668319D01*
X110020512Y-88668323D01*
X109926561Y-88869800D01*
X109869022Y-89084535D01*
X109869021Y-89084542D01*
X109849647Y-89305997D01*
X109849647Y-89306002D01*
X109869021Y-89527457D01*
X109869022Y-89527465D01*
X109926558Y-89742191D01*
X109926559Y-89742193D01*
X109926560Y-89742196D01*
X109963369Y-89821134D01*
X110020511Y-89943676D01*
X110020512Y-89943677D01*
X110148023Y-90125781D01*
X110305219Y-90282977D01*
X110477050Y-90403295D01*
X110487323Y-90410488D01*
X110601261Y-90463618D01*
X110653700Y-90509790D01*
X110672852Y-90576984D01*
X110652636Y-90643865D01*
X110601261Y-90688382D01*
X110487323Y-90741512D01*
X110487319Y-90741514D01*
X110305217Y-90869023D01*
X110148023Y-91026217D01*
X110020514Y-91208319D01*
X110020512Y-91208323D01*
X109926561Y-91409800D01*
X109869022Y-91624535D01*
X109869021Y-91624542D01*
X109849647Y-91845997D01*
X109849647Y-91846002D01*
X109869021Y-92067457D01*
X109869022Y-92067465D01*
X109926558Y-92282191D01*
X109926559Y-92282193D01*
X109926560Y-92282196D01*
X109973536Y-92382936D01*
X110020511Y-92483676D01*
X110020512Y-92483677D01*
X110148023Y-92665781D01*
X110305219Y-92822977D01*
X110487323Y-92950488D01*
X110601261Y-93003618D01*
X110653700Y-93049790D01*
X110672852Y-93116984D01*
X110652636Y-93183865D01*
X110601261Y-93228382D01*
X110487323Y-93281512D01*
X110487319Y-93281514D01*
X110305217Y-93409023D01*
X110148023Y-93566217D01*
X110020514Y-93748319D01*
X110020512Y-93748323D01*
X109926561Y-93949800D01*
X109869022Y-94164535D01*
X109869021Y-94164542D01*
X109849647Y-94385997D01*
X109849647Y-94386002D01*
X109869021Y-94607457D01*
X109869022Y-94607465D01*
X109926558Y-94822191D01*
X109926559Y-94822193D01*
X109926560Y-94822196D01*
X109973536Y-94922936D01*
X110020511Y-95023676D01*
X110046014Y-95060097D01*
X110148023Y-95205781D01*
X110305219Y-95362977D01*
X110400834Y-95429927D01*
X110444456Y-95484502D01*
X110451649Y-95554001D01*
X110420127Y-95616355D01*
X110359897Y-95651769D01*
X110329708Y-95655500D01*
X110314345Y-95655500D01*
X110253797Y-95662011D01*
X110253795Y-95662011D01*
X110116795Y-95713111D01*
X109999739Y-95800739D01*
X109912111Y-95917795D01*
X109861011Y-96054795D01*
X109861011Y-96054797D01*
X109854500Y-96115345D01*
X109854500Y-97736654D01*
X109861011Y-97797202D01*
X109861011Y-97797204D01*
X109900462Y-97902972D01*
X109912111Y-97934204D01*
X109999739Y-98051261D01*
X110116796Y-98138889D01*
X110253799Y-98189989D01*
X110281050Y-98192918D01*
X110314345Y-98196499D01*
X110314362Y-98196500D01*
X111935638Y-98196500D01*
X111935654Y-98196499D01*
X111962692Y-98193591D01*
X111996201Y-98189989D01*
X112133204Y-98138889D01*
X112250261Y-98051261D01*
X112337889Y-97934204D01*
X112388989Y-97797201D01*
X112394517Y-97745785D01*
X112395499Y-97736654D01*
X112395500Y-97736637D01*
X112395500Y-96806153D01*
X112415185Y-96739114D01*
X112467989Y-96693359D01*
X112537147Y-96683415D01*
X112600703Y-96712440D01*
X112611648Y-96723179D01*
X112680247Y-96799366D01*
X112834748Y-96911618D01*
X113009212Y-96989294D01*
X113196013Y-97029000D01*
X113386987Y-97029000D01*
X113573788Y-96989294D01*
X113748252Y-96911618D01*
X113902753Y-96799366D01*
X114030540Y-96657444D01*
X114126027Y-96492056D01*
X114185042Y-96310428D01*
X114205004Y-96120500D01*
X114185042Y-95930572D01*
X114126027Y-95748944D01*
X114049477Y-95616355D01*
X114030541Y-95583557D01*
X114030536Y-95583550D01*
X113956850Y-95501713D01*
X113926620Y-95438721D01*
X113925000Y-95418741D01*
X113925000Y-81250105D01*
X113924999Y-81250101D01*
X113900657Y-81127722D01*
X113900654Y-81127713D01*
X113886668Y-81093947D01*
X113852901Y-81012425D01*
X113852899Y-81012423D01*
X113852899Y-81012421D01*
X113783572Y-80908667D01*
X113783569Y-80908663D01*
X112402308Y-79527404D01*
X112368823Y-79466081D01*
X112370214Y-79407629D01*
X112380978Y-79367463D01*
X112400353Y-79146000D01*
X112380978Y-78924537D01*
X112323440Y-78709804D01*
X112229488Y-78508324D01*
X112229486Y-78508321D01*
X112229485Y-78508319D01*
X112101978Y-78326220D01*
X112101975Y-78326217D01*
X111944781Y-78169023D01*
X111762677Y-78041512D01*
X111648738Y-77988381D01*
X111596299Y-77942210D01*
X111577147Y-77875017D01*
X111597363Y-77808135D01*
X111648739Y-77763618D01*
X111762677Y-77710488D01*
X111944781Y-77582977D01*
X112101977Y-77425781D01*
X112229488Y-77243677D01*
X112323440Y-77042196D01*
X112380978Y-76827463D01*
X112395509Y-76661365D01*
X112400353Y-76606002D01*
X112400353Y-76605997D01*
X112380978Y-76384542D01*
X112380978Y-76384537D01*
X112323440Y-76169804D01*
X112229488Y-75968324D01*
X112229486Y-75968321D01*
X112229485Y-75968319D01*
X112101978Y-75786220D01*
X112031084Y-75715326D01*
X111944781Y-75629023D01*
X111762677Y-75501512D01*
X111716205Y-75479842D01*
X111648739Y-75448382D01*
X111596299Y-75402210D01*
X111577147Y-75335017D01*
X111597363Y-75268135D01*
X111648739Y-75223618D01*
X111762677Y-75170488D01*
X111944781Y-75042977D01*
X112101977Y-74885781D01*
X112229488Y-74703677D01*
X112323440Y-74502196D01*
X112380978Y-74287463D01*
X112400353Y-74066000D01*
X112397588Y-74034400D01*
X112393087Y-73982951D01*
X112380978Y-73844537D01*
X112326224Y-73640193D01*
X112327887Y-73570344D01*
X112367049Y-73512481D01*
X112431278Y-73484977D01*
X112445999Y-73484100D01*
X113746195Y-73484100D01*
X113746196Y-73484099D01*
X113868585Y-73459755D01*
X113983875Y-73412000D01*
X114087633Y-73342671D01*
X132685485Y-54744819D01*
X132746808Y-54711334D01*
X132773166Y-54708500D01*
X132829887Y-54708500D01*
X133016688Y-54668794D01*
X133191152Y-54591118D01*
X133345653Y-54478866D01*
X133473440Y-54336944D01*
X133499800Y-54291288D01*
X161679500Y-54291288D01*
X161711161Y-54531785D01*
X161773947Y-54766104D01*
X161866773Y-54990205D01*
X161866776Y-54990212D01*
X161988064Y-55200289D01*
X161988066Y-55200292D01*
X161988067Y-55200293D01*
X162135733Y-55392736D01*
X162135739Y-55392743D01*
X162307256Y-55564260D01*
X162307263Y-55564266D01*
X162420321Y-55651018D01*
X162499711Y-55711936D01*
X162709788Y-55833224D01*
X162933900Y-55926054D01*
X163168211Y-55988838D01*
X163348586Y-56012584D01*
X163408711Y-56020500D01*
X163408712Y-56020500D01*
X163651289Y-56020500D01*
X163699388Y-56014167D01*
X163891789Y-55988838D01*
X164126100Y-55926054D01*
X164350212Y-55833224D01*
X164560289Y-55711936D01*
X164752738Y-55564265D01*
X164924265Y-55392738D01*
X165071936Y-55200289D01*
X165193224Y-54990212D01*
X165286054Y-54766100D01*
X165348838Y-54531789D01*
X165380500Y-54291288D01*
X165380500Y-54048712D01*
X165348838Y-53808211D01*
X165286054Y-53573900D01*
X165193224Y-53349788D01*
X165071936Y-53139711D01*
X164924265Y-52947262D01*
X164924260Y-52947256D01*
X164752743Y-52775739D01*
X164752736Y-52775733D01*
X164560293Y-52628067D01*
X164560292Y-52628066D01*
X164560289Y-52628064D01*
X164350212Y-52506776D01*
X164350205Y-52506773D01*
X164126104Y-52413947D01*
X163891785Y-52351161D01*
X163651289Y-52319500D01*
X163651288Y-52319500D01*
X163408712Y-52319500D01*
X163408711Y-52319500D01*
X163168214Y-52351161D01*
X162933895Y-52413947D01*
X162709794Y-52506773D01*
X162709785Y-52506777D01*
X162499706Y-52628067D01*
X162307263Y-52775733D01*
X162307256Y-52775739D01*
X162135739Y-52947256D01*
X162135733Y-52947263D01*
X161988067Y-53139706D01*
X161866777Y-53349785D01*
X161866773Y-53349794D01*
X161773947Y-53573895D01*
X161711161Y-53808214D01*
X161679500Y-54048711D01*
X161679500Y-54291288D01*
X133499800Y-54291288D01*
X133568927Y-54171556D01*
X133627942Y-53989928D01*
X133647904Y-53800000D01*
X133627942Y-53610072D01*
X133569528Y-53430293D01*
X133568929Y-53428450D01*
X133568928Y-53428449D01*
X133568927Y-53428444D01*
X133473440Y-53263056D01*
X133345653Y-53121134D01*
X133191152Y-53008882D01*
X133016688Y-52931206D01*
X133016686Y-52931205D01*
X132829887Y-52891500D01*
X132638913Y-52891500D01*
X132452114Y-52931205D01*
X132277646Y-53008883D01*
X132123145Y-53121135D01*
X131995359Y-53263057D01*
X131899873Y-53428443D01*
X131899870Y-53428450D01*
X131852611Y-53573900D01*
X131840858Y-53610072D01*
X131823419Y-53775996D01*
X131796834Y-53840610D01*
X131787779Y-53850715D01*
X118173320Y-67465174D01*
X118111997Y-67498659D01*
X118042305Y-67493675D01*
X117986372Y-67451803D01*
X117966218Y-67400373D01*
X117964092Y-67400825D01*
X117962742Y-67394477D01*
X117962742Y-67394472D01*
X117903727Y-67212844D01*
X117808240Y-67047456D01*
X117808236Y-67047450D01*
X117734550Y-66965613D01*
X117704320Y-66902621D01*
X117702700Y-66882641D01*
X117702700Y-65892666D01*
X117722385Y-65825627D01*
X117739019Y-65804985D01*
X122081385Y-61462619D01*
X122142708Y-61429134D01*
X122169066Y-61426300D01*
X122225787Y-61426300D01*
X122412588Y-61386594D01*
X122587052Y-61308918D01*
X122741553Y-61196666D01*
X122869340Y-61054744D01*
X122964827Y-60889356D01*
X123023842Y-60707728D01*
X123043804Y-60517800D01*
X123023842Y-60327872D01*
X122964827Y-60146244D01*
X122869340Y-59980856D01*
X122741553Y-59838934D01*
X122587052Y-59726682D01*
X122412588Y-59649006D01*
X122412586Y-59649005D01*
X122225787Y-59609300D01*
X122034813Y-59609300D01*
X121848014Y-59649005D01*
X121673546Y-59726683D01*
X121519045Y-59838935D01*
X121391259Y-59980857D01*
X121295773Y-60146243D01*
X121295770Y-60146250D01*
X121256765Y-60266296D01*
X121236758Y-60327872D01*
X121228119Y-60410068D01*
X121219319Y-60493796D01*
X121192734Y-60558410D01*
X121183679Y-60568515D01*
X117758516Y-63993680D01*
X116665367Y-65086829D01*
X116621247Y-65130949D01*
X116577127Y-65175068D01*
X116507803Y-65278818D01*
X116507798Y-65278827D01*
X116460045Y-65394114D01*
X116460043Y-65394122D01*
X116435700Y-65516501D01*
X116435700Y-66882641D01*
X116416015Y-66949680D01*
X116403850Y-66965613D01*
X116330163Y-67047450D01*
X116330158Y-67047457D01*
X116234673Y-67212843D01*
X116234670Y-67212850D01*
X116175659Y-67394468D01*
X116175658Y-67394472D01*
X116155696Y-67584400D01*
X116175658Y-67774328D01*
X116175659Y-67774331D01*
X116234670Y-67955949D01*
X116234673Y-67955956D01*
X116330160Y-68121344D01*
X116457947Y-68263266D01*
X116612448Y-68375518D01*
X116786912Y-68453194D01*
X116786914Y-68453194D01*
X116786915Y-68453195D01*
X116835428Y-68463506D01*
X116892077Y-68475547D01*
X116953558Y-68508739D01*
X116987335Y-68569902D01*
X116982683Y-68639616D01*
X116953977Y-68684518D01*
X113457715Y-72180781D01*
X113396392Y-72214266D01*
X113370034Y-72217100D01*
X112399217Y-72217100D01*
X112332178Y-72197415D01*
X112286423Y-72144611D01*
X112276479Y-72075453D01*
X112286835Y-72040695D01*
X112323440Y-71962196D01*
X112380978Y-71747463D01*
X112400353Y-71526000D01*
X112380978Y-71304537D01*
X112323440Y-71089804D01*
X112229488Y-70888324D01*
X112229486Y-70888321D01*
X112229485Y-70888319D01*
X112101978Y-70706220D01*
X112036577Y-70640819D01*
X111944781Y-70549023D01*
X111762677Y-70421512D01*
X111696780Y-70390784D01*
X111648739Y-70368382D01*
X111596299Y-70322210D01*
X111577147Y-70255017D01*
X111597363Y-70188135D01*
X111648739Y-70143618D01*
X111762677Y-70090488D01*
X111944781Y-69962977D01*
X112101977Y-69805781D01*
X112229488Y-69623677D01*
X112323440Y-69422196D01*
X112380978Y-69207463D01*
X112400353Y-68986000D01*
X112398106Y-68960321D01*
X112380978Y-68764542D01*
X112380978Y-68764537D01*
X112323440Y-68549804D01*
X112229488Y-68348324D01*
X112229486Y-68348321D01*
X112229485Y-68348319D01*
X112101978Y-68166220D01*
X112043219Y-68107461D01*
X111944781Y-68009023D01*
X111762677Y-67881512D01*
X111648738Y-67828381D01*
X111596299Y-67782210D01*
X111577147Y-67715017D01*
X111597363Y-67648135D01*
X111648739Y-67603618D01*
X111689952Y-67584400D01*
X111762677Y-67550488D01*
X111944781Y-67422977D01*
X112101977Y-67265781D01*
X112229488Y-67083677D01*
X112323440Y-66882196D01*
X112380978Y-66667463D01*
X112400353Y-66446000D01*
X112380978Y-66224537D01*
X112370215Y-66184370D01*
X112371876Y-66114521D01*
X112402306Y-66064596D01*
X113451871Y-65015033D01*
X113521200Y-64911275D01*
X113568955Y-64795985D01*
X113593300Y-64673594D01*
X113593300Y-64548806D01*
X113593300Y-63504756D01*
X113612985Y-63437717D01*
X113625146Y-63421788D01*
X113698840Y-63339944D01*
X113794327Y-63174556D01*
X113853342Y-62992928D01*
X113873304Y-62803000D01*
X113853342Y-62613072D01*
X113794327Y-62431444D01*
X113698840Y-62266056D01*
X113571053Y-62124134D01*
X113416552Y-62011882D01*
X113242088Y-61934206D01*
X113242086Y-61934205D01*
X113055287Y-61894500D01*
X112864313Y-61894500D01*
X112677514Y-61934205D01*
X112677512Y-61934206D01*
X112521473Y-62003679D01*
X112503046Y-62011883D01*
X112471434Y-62034851D01*
X112405627Y-62058330D01*
X112337573Y-62042504D01*
X112288879Y-61992398D01*
X112275004Y-61923920D01*
X112286166Y-61882130D01*
X112323440Y-61802196D01*
X112380978Y-61587463D01*
X112400353Y-61366000D01*
X112380978Y-61144537D01*
X112323440Y-60929804D01*
X112229488Y-60728324D01*
X112229486Y-60728321D01*
X112229485Y-60728319D01*
X112101978Y-60546220D01*
X112049554Y-60493796D01*
X111944781Y-60389023D01*
X111804677Y-60290921D01*
X111762676Y-60261511D01*
X111586801Y-60179500D01*
X111561196Y-60167560D01*
X111561193Y-60167559D01*
X111561191Y-60167558D01*
X111449014Y-60137500D01*
X116118096Y-60137500D01*
X116138058Y-60327428D01*
X116138059Y-60327431D01*
X116197070Y-60509049D01*
X116197073Y-60509056D01*
X116292560Y-60674444D01*
X116420347Y-60816366D01*
X116574848Y-60928618D01*
X116749312Y-61006294D01*
X116936113Y-61046000D01*
X117127087Y-61046000D01*
X117313888Y-61006294D01*
X117488352Y-60928618D01*
X117642853Y-60816366D01*
X117770640Y-60674444D01*
X117866127Y-60509056D01*
X117925142Y-60327428D01*
X117942581Y-60161499D01*
X117969164Y-60096888D01*
X117978211Y-60086792D01*
X121100372Y-56964633D01*
X121169701Y-56860875D01*
X121217455Y-56745584D01*
X121235403Y-56655356D01*
X121239957Y-56632463D01*
X121240573Y-56629359D01*
X121241800Y-56623194D01*
X121241800Y-51381656D01*
X121261485Y-51314617D01*
X121273646Y-51298688D01*
X121339996Y-51225000D01*
X142836496Y-51225000D01*
X142856458Y-51414928D01*
X142856459Y-51414931D01*
X142915470Y-51596549D01*
X142915473Y-51596556D01*
X143010960Y-51761944D01*
X143138747Y-51903866D01*
X143293248Y-52016118D01*
X143467712Y-52093794D01*
X143654513Y-52133500D01*
X143845487Y-52133500D01*
X144032288Y-52093794D01*
X144054606Y-52083856D01*
X144123855Y-52074571D01*
X144173934Y-52094034D01*
X144199918Y-52111396D01*
X144199927Y-52111401D01*
X144226043Y-52122218D01*
X144315215Y-52159155D01*
X144437601Y-52183499D01*
X144437605Y-52183500D01*
X144437606Y-52183500D01*
X144562393Y-52183500D01*
X148192500Y-52183500D01*
X148259539Y-52203185D01*
X148305294Y-52255989D01*
X148316500Y-52307500D01*
X148316500Y-52348654D01*
X148323011Y-52409202D01*
X148323011Y-52409204D01*
X148369617Y-52534155D01*
X148374111Y-52546204D01*
X148461739Y-52663261D01*
X148578796Y-52750889D01*
X148715799Y-52801989D01*
X148743050Y-52804918D01*
X148776345Y-52808499D01*
X148776362Y-52808500D01*
X150373638Y-52808500D01*
X150373654Y-52808499D01*
X150400692Y-52805591D01*
X150434201Y-52801989D01*
X150571204Y-52750889D01*
X150688261Y-52663261D01*
X150775889Y-52546204D01*
X150826989Y-52409201D01*
X150833229Y-52351161D01*
X150833499Y-52348654D01*
X156116500Y-52348654D01*
X156123011Y-52409202D01*
X156123011Y-52409204D01*
X156169617Y-52534155D01*
X156174111Y-52546204D01*
X156261739Y-52663261D01*
X156378796Y-52750889D01*
X156515799Y-52801989D01*
X156543050Y-52804918D01*
X156576345Y-52808499D01*
X156576362Y-52808500D01*
X158173638Y-52808500D01*
X158173654Y-52808499D01*
X158200692Y-52805591D01*
X158234201Y-52801989D01*
X158371204Y-52750889D01*
X158488261Y-52663261D01*
X158575889Y-52546204D01*
X158626989Y-52409201D01*
X158633229Y-52351161D01*
X158633499Y-52348654D01*
X158633500Y-52348637D01*
X158633500Y-52307500D01*
X158653185Y-52240461D01*
X158705989Y-52194706D01*
X158757500Y-52183500D01*
X159236234Y-52183500D01*
X159303273Y-52203185D01*
X159323915Y-52219819D01*
X159521163Y-52417068D01*
X159521167Y-52417071D01*
X159624918Y-52486396D01*
X159624924Y-52486399D01*
X159624925Y-52486400D01*
X159740215Y-52534155D01*
X159862601Y-52558499D01*
X159862605Y-52558500D01*
X159862606Y-52558500D01*
X159917691Y-52558500D01*
X159984730Y-52578185D01*
X160009840Y-52599527D01*
X160013747Y-52603866D01*
X160168248Y-52716118D01*
X160342712Y-52793794D01*
X160529513Y-52833500D01*
X160720487Y-52833500D01*
X160907288Y-52793794D01*
X161081752Y-52716118D01*
X161236253Y-52603866D01*
X161364040Y-52461944D01*
X161459527Y-52296556D01*
X161518542Y-52114928D01*
X161538504Y-51925000D01*
X161518542Y-51735072D01*
X161459527Y-51553444D01*
X161364040Y-51388056D01*
X161236253Y-51246134D01*
X161081752Y-51133882D01*
X160907288Y-51056206D01*
X160907286Y-51056205D01*
X160720487Y-51016500D01*
X160529513Y-51016500D01*
X160342714Y-51056205D01*
X160338842Y-51057929D01*
X160205533Y-51117282D01*
X160168244Y-51133884D01*
X160162859Y-51136993D01*
X160094958Y-51153460D01*
X160028933Y-51130603D01*
X160013191Y-51117287D01*
X159953833Y-51057929D01*
X159953832Y-51057928D01*
X159953831Y-51057927D01*
X159850081Y-50988603D01*
X159850072Y-50988598D01*
X159734785Y-50940845D01*
X159734777Y-50940843D01*
X159612398Y-50916500D01*
X159612394Y-50916500D01*
X158757500Y-50916500D01*
X158690461Y-50896815D01*
X158644706Y-50844011D01*
X158633500Y-50792500D01*
X158633500Y-50751362D01*
X158633499Y-50751345D01*
X158630157Y-50720270D01*
X158626989Y-50690799D01*
X158625966Y-50688057D01*
X158586096Y-50581162D01*
X158575889Y-50553796D01*
X158488261Y-50436739D01*
X158371204Y-50349111D01*
X158234203Y-50298011D01*
X158173654Y-50291500D01*
X158173638Y-50291500D01*
X156576362Y-50291500D01*
X156576345Y-50291500D01*
X156515797Y-50298011D01*
X156515795Y-50298011D01*
X156378795Y-50349111D01*
X156261739Y-50436739D01*
X156174111Y-50553795D01*
X156123011Y-50690795D01*
X156123011Y-50690797D01*
X156116500Y-50751345D01*
X156116500Y-52348654D01*
X150833499Y-52348654D01*
X150833500Y-52348637D01*
X150833500Y-50751362D01*
X150833499Y-50751345D01*
X150830157Y-50720270D01*
X150826989Y-50690799D01*
X150825966Y-50688057D01*
X150786096Y-50581162D01*
X150775889Y-50553796D01*
X150688261Y-50436739D01*
X150571204Y-50349111D01*
X150434203Y-50298011D01*
X150373654Y-50291500D01*
X150373638Y-50291500D01*
X148776362Y-50291500D01*
X148776345Y-50291500D01*
X148715797Y-50298011D01*
X148715795Y-50298011D01*
X148578795Y-50349111D01*
X148461739Y-50436739D01*
X148374111Y-50553795D01*
X148323011Y-50690795D01*
X148323011Y-50690797D01*
X148316500Y-50751345D01*
X148316500Y-50792500D01*
X148296815Y-50859539D01*
X148244011Y-50905294D01*
X148192500Y-50916500D01*
X144813766Y-50916500D01*
X144746727Y-50896815D01*
X144726089Y-50880185D01*
X144578833Y-50732929D01*
X144578832Y-50732928D01*
X144578831Y-50732927D01*
X144470011Y-50660216D01*
X144470660Y-50659243D01*
X144445009Y-50639154D01*
X144361258Y-50546138D01*
X144361255Y-50546136D01*
X144361254Y-50546135D01*
X144361253Y-50546134D01*
X144206752Y-50433882D01*
X144032288Y-50356206D01*
X144032286Y-50356205D01*
X143845487Y-50316500D01*
X143654513Y-50316500D01*
X143467714Y-50356205D01*
X143293246Y-50433883D01*
X143138745Y-50546135D01*
X143010959Y-50688057D01*
X142915473Y-50853443D01*
X142915470Y-50853450D01*
X142865990Y-51005735D01*
X142856458Y-51035072D01*
X142836496Y-51225000D01*
X121339996Y-51225000D01*
X121347340Y-51216844D01*
X121442827Y-51051456D01*
X121501842Y-50869828D01*
X121521804Y-50679900D01*
X121501842Y-50489972D01*
X121442827Y-50308344D01*
X121347340Y-50142956D01*
X121219553Y-50001034D01*
X121065052Y-49888782D01*
X120890588Y-49811106D01*
X120890586Y-49811105D01*
X120703787Y-49771400D01*
X120512813Y-49771400D01*
X120326014Y-49811105D01*
X120151546Y-49888783D01*
X119997045Y-50001035D01*
X119869259Y-50142957D01*
X119773773Y-50308343D01*
X119773770Y-50308350D01*
X119714759Y-50489968D01*
X119714758Y-50489972D01*
X119694796Y-50679900D01*
X119714758Y-50869828D01*
X119714759Y-50869831D01*
X119773770Y-51051449D01*
X119773773Y-51051456D01*
X119855001Y-51192148D01*
X119869260Y-51216844D01*
X119942949Y-51298684D01*
X119973180Y-51361675D01*
X119974800Y-51381656D01*
X119974800Y-56247033D01*
X119955115Y-56314072D01*
X119938481Y-56334714D01*
X117080515Y-59192681D01*
X117019192Y-59226166D01*
X116992834Y-59229000D01*
X116936113Y-59229000D01*
X116749314Y-59268705D01*
X116574846Y-59346383D01*
X116420345Y-59458635D01*
X116292559Y-59600557D01*
X116197073Y-59765943D01*
X116197070Y-59765950D01*
X116146648Y-59921134D01*
X116138058Y-59947572D01*
X116118096Y-60137500D01*
X111449014Y-60137500D01*
X111346465Y-60110022D01*
X111346457Y-60110021D01*
X111125002Y-60090647D01*
X111124998Y-60090647D01*
X110903542Y-60110021D01*
X110903535Y-60110022D01*
X110688800Y-60167561D01*
X110487323Y-60261512D01*
X110487319Y-60261514D01*
X110305217Y-60389023D01*
X110148023Y-60546217D01*
X110020514Y-60728319D01*
X110020512Y-60728323D01*
X109926561Y-60929800D01*
X109869022Y-61144535D01*
X109869021Y-61144542D01*
X109849647Y-61365997D01*
X109849647Y-61366002D01*
X109869021Y-61587457D01*
X109869022Y-61587465D01*
X109926558Y-61802191D01*
X109926559Y-61802193D01*
X109926560Y-61802196D01*
X109963832Y-61882127D01*
X110020511Y-62003676D01*
X110020512Y-62003677D01*
X110148023Y-62185781D01*
X110305219Y-62342977D01*
X110487323Y-62470488D01*
X110611317Y-62528307D01*
X110663756Y-62574479D01*
X110682908Y-62641673D01*
X110662692Y-62708554D01*
X110611317Y-62753071D01*
X110491590Y-62808901D01*
X110426811Y-62854258D01*
X111097553Y-63525000D01*
X111074840Y-63525000D01*
X110977939Y-63550964D01*
X110891060Y-63601124D01*
X110820124Y-63672060D01*
X110769964Y-63758939D01*
X110744000Y-63855840D01*
X110744000Y-63878553D01*
X110073258Y-63207811D01*
X110027901Y-63272590D01*
X109934579Y-63472720D01*
X109934575Y-63472729D01*
X109877426Y-63686013D01*
X109877424Y-63686023D01*
X109858179Y-63905999D01*
X109858179Y-63906000D01*
X109877424Y-64125976D01*
X109877426Y-64125986D01*
X109934575Y-64339270D01*
X109934580Y-64339284D01*
X110027898Y-64539405D01*
X110027901Y-64539411D01*
X110073258Y-64604187D01*
X110073259Y-64604188D01*
X110744000Y-63933447D01*
X110744000Y-63956160D01*
X110769964Y-64053061D01*
X110820124Y-64139940D01*
X110891060Y-64210876D01*
X110977939Y-64261036D01*
X111074840Y-64287000D01*
X111097551Y-64287000D01*
X110426810Y-64957740D01*
X110491590Y-65003099D01*
X110491592Y-65003100D01*
X110611316Y-65058928D01*
X110663756Y-65105100D01*
X110682908Y-65172293D01*
X110662693Y-65239174D01*
X110611318Y-65283692D01*
X110487320Y-65341514D01*
X110487319Y-65341514D01*
X110305217Y-65469023D01*
X110148023Y-65626217D01*
X110020514Y-65808319D01*
X110020512Y-65808323D01*
X109926561Y-66009800D01*
X109869022Y-66224535D01*
X109869021Y-66224542D01*
X109849647Y-66445997D01*
X109849647Y-66446002D01*
X109869021Y-66667457D01*
X109869022Y-66667465D01*
X109926558Y-66882191D01*
X109926559Y-66882193D01*
X109926560Y-66882196D01*
X109948964Y-66930241D01*
X110020511Y-67083676D01*
X110020512Y-67083677D01*
X110148023Y-67265781D01*
X110305219Y-67422977D01*
X110487323Y-67550488D01*
X110601261Y-67603618D01*
X110653700Y-67649790D01*
X110672852Y-67716984D01*
X110652636Y-67783865D01*
X110601261Y-67828382D01*
X110487323Y-67881512D01*
X110487319Y-67881514D01*
X110305217Y-68009023D01*
X110148023Y-68166217D01*
X110020514Y-68348319D01*
X110020512Y-68348323D01*
X109926561Y-68549800D01*
X109869022Y-68764535D01*
X109869021Y-68764542D01*
X109849647Y-68985997D01*
X109849647Y-68986002D01*
X109869021Y-69207457D01*
X109869022Y-69207465D01*
X109926558Y-69422191D01*
X109926559Y-69422193D01*
X109926560Y-69422196D01*
X109973536Y-69522936D01*
X110020511Y-69623676D01*
X110020512Y-69623677D01*
X110148023Y-69805781D01*
X110305219Y-69962977D01*
X110474137Y-70081255D01*
X110487323Y-70090488D01*
X110601261Y-70143618D01*
X110653700Y-70189790D01*
X110672852Y-70256984D01*
X110652636Y-70323865D01*
X110601261Y-70368382D01*
X110487323Y-70421512D01*
X110487319Y-70421514D01*
X110305217Y-70549023D01*
X110148023Y-70706217D01*
X110020514Y-70888319D01*
X110020512Y-70888323D01*
X109926561Y-71089800D01*
X109869022Y-71304535D01*
X109869021Y-71304542D01*
X109849647Y-71525997D01*
X109849647Y-71526002D01*
X109869021Y-71747457D01*
X109869022Y-71747465D01*
X109926558Y-71962191D01*
X109926559Y-71962193D01*
X109926560Y-71962196D01*
X109963165Y-72040695D01*
X109973657Y-72109773D01*
X109945137Y-72173557D01*
X109886661Y-72211796D01*
X109850783Y-72217100D01*
X109749801Y-72217100D01*
X109627422Y-72241443D01*
X109627414Y-72241445D01*
X109512127Y-72289198D01*
X109512118Y-72289203D01*
X109408367Y-72358528D01*
X109408363Y-72358531D01*
X105708315Y-76058581D01*
X105646992Y-76092066D01*
X105620634Y-76094900D01*
X105563913Y-76094900D01*
X105377114Y-76134605D01*
X105202646Y-76212283D01*
X105048145Y-76324535D01*
X104920359Y-76466457D01*
X104824873Y-76631843D01*
X104824870Y-76631850D01*
X104770235Y-76800000D01*
X104765858Y-76813472D01*
X104745896Y-77003400D01*
X71306862Y-77003400D01*
X71308140Y-76938849D01*
X71316125Y-76897467D01*
X72908818Y-72683618D01*
X73923133Y-70000004D01*
X86257628Y-70000004D01*
X86277087Y-70259677D01*
X86277088Y-70259682D01*
X86335033Y-70513559D01*
X86335039Y-70513578D01*
X86430177Y-70755987D01*
X86560387Y-70981516D01*
X86606768Y-71039677D01*
X86606769Y-71039677D01*
X87265018Y-70381428D01*
X87268894Y-70390784D01*
X87359181Y-70525907D01*
X87474093Y-70640819D01*
X87609216Y-70731106D01*
X87618570Y-70734980D01*
X86959826Y-71393724D01*
X87128813Y-71508937D01*
X87128822Y-71508942D01*
X87363437Y-71621926D01*
X87363435Y-71621926D01*
X87612277Y-71698684D01*
X87612283Y-71698685D01*
X87869786Y-71737499D01*
X87869793Y-71737500D01*
X88130207Y-71737500D01*
X88130213Y-71737499D01*
X88387716Y-71698685D01*
X88387722Y-71698684D01*
X88636563Y-71621926D01*
X88871177Y-71508942D01*
X88871179Y-71508941D01*
X89040172Y-71393724D01*
X88381428Y-70734981D01*
X88390784Y-70731106D01*
X88525907Y-70640819D01*
X88640819Y-70525907D01*
X88731106Y-70390784D01*
X88734981Y-70381428D01*
X89393229Y-71039677D01*
X89439615Y-70981511D01*
X89569822Y-70755987D01*
X89664960Y-70513578D01*
X89664966Y-70513559D01*
X89722911Y-70259682D01*
X89722912Y-70259677D01*
X89742372Y-70000004D01*
X89742372Y-69999995D01*
X89722912Y-69740322D01*
X89722911Y-69740317D01*
X89664966Y-69486440D01*
X89664960Y-69486421D01*
X89569822Y-69244012D01*
X89439612Y-69018483D01*
X89393230Y-68960321D01*
X88734980Y-69618570D01*
X88731106Y-69609216D01*
X88640819Y-69474093D01*
X88525907Y-69359181D01*
X88390784Y-69268894D01*
X88381428Y-69265018D01*
X89040172Y-68606274D01*
X88871186Y-68491062D01*
X88871177Y-68491057D01*
X88636562Y-68378073D01*
X88636564Y-68378073D01*
X88387722Y-68301315D01*
X88387716Y-68301314D01*
X88130213Y-68262500D01*
X87869786Y-68262500D01*
X87612283Y-68301314D01*
X87612277Y-68301315D01*
X87363436Y-68378073D01*
X87128819Y-68491059D01*
X87128806Y-68491066D01*
X86959826Y-68606273D01*
X87618571Y-69265018D01*
X87609216Y-69268894D01*
X87474093Y-69359181D01*
X87359181Y-69474093D01*
X87268894Y-69609216D01*
X87265018Y-69618571D01*
X86606769Y-68960322D01*
X86560385Y-69018486D01*
X86430177Y-69244012D01*
X86335039Y-69486421D01*
X86335033Y-69486440D01*
X86277088Y-69740317D01*
X86277087Y-69740322D01*
X86257628Y-69999995D01*
X86257628Y-70000004D01*
X73923133Y-70000004D01*
X76550000Y-63050000D01*
X76554435Y-63036154D01*
X86254000Y-63036154D01*
X86260511Y-63096702D01*
X86260511Y-63096704D01*
X86294353Y-63187434D01*
X86311611Y-63233704D01*
X86399239Y-63350761D01*
X86516296Y-63438389D01*
X86653299Y-63489489D01*
X86680550Y-63492418D01*
X86713845Y-63495999D01*
X86713862Y-63496000D01*
X89286138Y-63496000D01*
X89286154Y-63495999D01*
X89313192Y-63493091D01*
X89346701Y-63489489D01*
X89483704Y-63438389D01*
X89600761Y-63350761D01*
X89688389Y-63233704D01*
X89739489Y-63096701D01*
X89744510Y-63050000D01*
X89745999Y-63036154D01*
X89746000Y-63036137D01*
X89746000Y-60600000D01*
X101411496Y-60600000D01*
X101431458Y-60789928D01*
X101431459Y-60789931D01*
X101490470Y-60971549D01*
X101490473Y-60971556D01*
X101585960Y-61136944D01*
X101713747Y-61278866D01*
X101868248Y-61391118D01*
X102042712Y-61468794D01*
X102229513Y-61508500D01*
X102420484Y-61508500D01*
X102420487Y-61508500D01*
X102452152Y-61501768D01*
X102502124Y-61501442D01*
X102517573Y-61504515D01*
X102537605Y-61508500D01*
X102537606Y-61508500D01*
X102537607Y-61508500D01*
X102662394Y-61508500D01*
X103792691Y-61508500D01*
X103859730Y-61528185D01*
X103884840Y-61549527D01*
X103888747Y-61553866D01*
X104043248Y-61666118D01*
X104217712Y-61743794D01*
X104404513Y-61783500D01*
X104595487Y-61783500D01*
X104782288Y-61743794D01*
X104956752Y-61666118D01*
X105111253Y-61553866D01*
X105239040Y-61411944D01*
X105334527Y-61246556D01*
X105393542Y-61064928D01*
X105413504Y-60875000D01*
X105393542Y-60685072D01*
X105334527Y-60503444D01*
X105239040Y-60338056D01*
X105111253Y-60196134D01*
X104956752Y-60083882D01*
X104782288Y-60006206D01*
X104782286Y-60006205D01*
X104595487Y-59966500D01*
X104404513Y-59966500D01*
X104217714Y-60006205D01*
X104043246Y-60083883D01*
X103888745Y-60196135D01*
X103884840Y-60200473D01*
X103825354Y-60237121D01*
X103792691Y-60241500D01*
X103238657Y-60241500D01*
X103171618Y-60221815D01*
X103131270Y-60179500D01*
X103064041Y-60063057D01*
X102936254Y-59921135D01*
X102823115Y-59838934D01*
X102781752Y-59808882D01*
X102607288Y-59731206D01*
X102607286Y-59731205D01*
X102420487Y-59691500D01*
X102229513Y-59691500D01*
X102042714Y-59731205D01*
X101868246Y-59808883D01*
X101713745Y-59921135D01*
X101585959Y-60063057D01*
X101490473Y-60228443D01*
X101490470Y-60228450D01*
X101431459Y-60410068D01*
X101431458Y-60410072D01*
X101411496Y-60600000D01*
X89746000Y-60600000D01*
X89746000Y-60463862D01*
X89745999Y-60463845D01*
X89740217Y-60410072D01*
X89739489Y-60403299D01*
X89734164Y-60389023D01*
X89711190Y-60327428D01*
X89688389Y-60266296D01*
X89600761Y-60149239D01*
X89483704Y-60061611D01*
X89346703Y-60010511D01*
X89286154Y-60004000D01*
X89286138Y-60004000D01*
X86713862Y-60004000D01*
X86713845Y-60004000D01*
X86653297Y-60010511D01*
X86653295Y-60010511D01*
X86516295Y-60061611D01*
X86399239Y-60149239D01*
X86311611Y-60266295D01*
X86260511Y-60403295D01*
X86260511Y-60403297D01*
X86254000Y-60463845D01*
X86254000Y-63036154D01*
X76554435Y-63036154D01*
X79922285Y-52521288D01*
X84249500Y-52521288D01*
X84281161Y-52761785D01*
X84343947Y-52996104D01*
X84395737Y-53121135D01*
X84436776Y-53220212D01*
X84558064Y-53430289D01*
X84558066Y-53430292D01*
X84558067Y-53430293D01*
X84705733Y-53622736D01*
X84705739Y-53622743D01*
X84877256Y-53794260D01*
X84877263Y-53794266D01*
X84905491Y-53815926D01*
X85069711Y-53941936D01*
X85279788Y-54063224D01*
X85503900Y-54156054D01*
X85738211Y-54218838D01*
X85918586Y-54242584D01*
X85978711Y-54250500D01*
X85978712Y-54250500D01*
X86221289Y-54250500D01*
X86269388Y-54244167D01*
X86461789Y-54218838D01*
X86696100Y-54156054D01*
X86920212Y-54063224D01*
X87130289Y-53941936D01*
X87322738Y-53794265D01*
X87494265Y-53622738D01*
X87641936Y-53430289D01*
X87763224Y-53220212D01*
X87856054Y-52996100D01*
X87918838Y-52761789D01*
X87950500Y-52521288D01*
X87950500Y-52278712D01*
X87918838Y-52038211D01*
X87856054Y-51803900D01*
X87763224Y-51579788D01*
X87641936Y-51369711D01*
X87524637Y-51216843D01*
X87494266Y-51177263D01*
X87494260Y-51177256D01*
X87322743Y-51005739D01*
X87322736Y-51005733D01*
X87130293Y-50858067D01*
X87130292Y-50858066D01*
X87130289Y-50858064D01*
X86920212Y-50736776D01*
X86920205Y-50736773D01*
X86696104Y-50643947D01*
X86461785Y-50581161D01*
X86221289Y-50549500D01*
X86221288Y-50549500D01*
X85978712Y-50549500D01*
X85978711Y-50549500D01*
X85738214Y-50581161D01*
X85503895Y-50643947D01*
X85279794Y-50736773D01*
X85279785Y-50736777D01*
X85069706Y-50858067D01*
X84877263Y-51005733D01*
X84877256Y-51005739D01*
X84705739Y-51177256D01*
X84705733Y-51177263D01*
X84558067Y-51369706D01*
X84436777Y-51579785D01*
X84436773Y-51579794D01*
X84343947Y-51803895D01*
X84281161Y-52038214D01*
X84249500Y-52278711D01*
X84249500Y-52521288D01*
X79922285Y-52521288D01*
X81353005Y-48054395D01*
X81382614Y-48005347D01*
X81530779Y-47854442D01*
X81537028Y-47848507D01*
X81897322Y-47529514D01*
X81904939Y-47523292D01*
X82288967Y-47234325D01*
X82297064Y-47228722D01*
X82702867Y-46971191D01*
X82711370Y-46966259D01*
X83136332Y-46741828D01*
X83145226Y-46737573D01*
X83586698Y-46547634D01*
X83595886Y-46544107D01*
X84051062Y-46389870D01*
X84060524Y-46387079D01*
X84161804Y-46361529D01*
X84526500Y-46269526D01*
X84536148Y-46267496D01*
X85010016Y-46187362D01*
X85019776Y-46186108D01*
X85498531Y-46143902D01*
X85508342Y-46143430D01*
X85988940Y-46139422D01*
X85998797Y-46139732D01*
G37*
%TD.AperFunction*%
%TD*%
M02*
