%TF.GenerationSoftware,KiCad,Pcbnew,8.0.1-rc1*%
%TF.CreationDate,2024-05-22T00:49:17-07:00*%
%TF.ProjectId,pwm_pcb_larger,70776d5f-7063-4625-9f6c-61726765722e,rev?*%
%TF.SameCoordinates,Original*%
%TF.FileFunction,Profile,NP*%
%FSLAX46Y46*%
G04 Gerber Fmt 4.6, Leading zero omitted, Abs format (unit mm)*
G04 Created by KiCad (PCBNEW 8.0.1-rc1) date 2024-05-22 00:49:17*
%MOMM*%
%LPD*%
G01*
G04 APERTURE LIST*
%TA.AperFunction,Profile*%
%ADD10C,0.100000*%
%TD*%
%TA.AperFunction,Profile*%
%ADD11C,0.150000*%
%TD*%
G04 APERTURE END LIST*
D10*
X81361986Y-48026357D02*
X76550000Y-63050000D01*
X174000000Y-130000000D02*
X172000000Y-121000000D01*
X172600000Y-81800000D02*
X173600000Y-84000000D01*
X81361986Y-48026357D02*
G75*
G02*
X90799999Y-48700000I4438014J-4273643D01*
G01*
X170400000Y-55600000D02*
X168600000Y-59000000D01*
X173000000Y-84800000D02*
X172200000Y-86000000D01*
X166200000Y-62400000D02*
X168200000Y-69800000D01*
X171400000Y-101800000D02*
X170200000Y-103000000D01*
X169400000Y-107000000D02*
X168800000Y-112000000D01*
X94943202Y-49925077D02*
X114000000Y-47800000D01*
X171400000Y-104800000D02*
X169400000Y-107000000D01*
X167800000Y-97800000D02*
X171400000Y-101800000D01*
X168800000Y-112000000D02*
X172000000Y-121000000D01*
X71000000Y-128000000D02*
X70975000Y-77800000D01*
D11*
X174000000Y-130000000D02*
G75*
G02*
X169143047Y-138642384I-3000000J-4000000D01*
G01*
D10*
X71000000Y-128000000D02*
X70708108Y-134259797D01*
X172200000Y-86000000D02*
X169400000Y-90000000D01*
X141400000Y-47600000D02*
X161200000Y-48400000D01*
X168600000Y-59000000D02*
X166200000Y-62400000D01*
X114000000Y-47800000D02*
X141400000Y-47600000D01*
X169400000Y-90000000D02*
X166800000Y-94800000D01*
X173600000Y-84000000D02*
X173000000Y-84800000D01*
X166800000Y-94800000D02*
X167800000Y-97800000D01*
X161200000Y-48400000D02*
X168600000Y-51400000D01*
X168600000Y-51400000D02*
X170400000Y-55600000D01*
X168200000Y-69800000D02*
X167000000Y-76800000D01*
X167000000Y-76800000D02*
X172600000Y-81800000D01*
X170200000Y-103000000D02*
X171400000Y-104800000D01*
X94943202Y-49925077D02*
X90800000Y-48700000D01*
D11*
X79050000Y-138650000D02*
G75*
G02*
X70708108Y-134259797I-3300000J3850000D01*
G01*
D10*
X70975000Y-77800000D02*
X76550000Y-63050000D01*
D11*
X169143047Y-138642383D02*
X79050000Y-138650000D01*
M02*
