%TF.GenerationSoftware,KiCad,Pcbnew,(6.0.10)*%
%TF.CreationDate,2023-03-20T01:14:19-04:00*%
%TF.ProjectId,pwm_pcb_larger,70776d5f-7063-4625-9f6c-61726765722e,rev?*%
%TF.SameCoordinates,Original*%
%TF.FileFunction,Copper,L2,Bot*%
%TF.FilePolarity,Positive*%
%FSLAX46Y46*%
G04 Gerber Fmt 4.6, Leading zero omitted, Abs format (unit mm)*
G04 Created by KiCad (PCBNEW (6.0.10)) date 2023-03-20 01:14:19*
%MOMM*%
%LPD*%
G01*
G04 APERTURE LIST*
G04 Aperture macros list*
%AMRoundRect*
0 Rectangle with rounded corners*
0 $1 Rounding radius*
0 $2 $3 $4 $5 $6 $7 $8 $9 X,Y pos of 4 corners*
0 Add a 4 corners polygon primitive as box body*
4,1,4,$2,$3,$4,$5,$6,$7,$8,$9,$2,$3,0*
0 Add four circle primitives for the rounded corners*
1,1,$1+$1,$2,$3*
1,1,$1+$1,$4,$5*
1,1,$1+$1,$6,$7*
1,1,$1+$1,$8,$9*
0 Add four rect primitives between the rounded corners*
20,1,$1+$1,$2,$3,$4,$5,0*
20,1,$1+$1,$4,$5,$6,$7,0*
20,1,$1+$1,$6,$7,$8,$9,0*
20,1,$1+$1,$8,$9,$2,$3,0*%
G04 Aperture macros list end*
%TA.AperFunction,ComponentPad*%
%ADD10R,2.100000X2.100000*%
%TD*%
%TA.AperFunction,ComponentPad*%
%ADD11C,2.100000*%
%TD*%
%TA.AperFunction,ComponentPad*%
%ADD12RoundRect,0.249999X1.550001X-0.790001X1.550001X0.790001X-1.550001X0.790001X-1.550001X-0.790001X0*%
%TD*%
%TA.AperFunction,ComponentPad*%
%ADD13O,3.600000X2.080000*%
%TD*%
%TA.AperFunction,ComponentPad*%
%ADD14R,1.524000X1.524000*%
%TD*%
%TA.AperFunction,ComponentPad*%
%ADD15C,1.524000*%
%TD*%
%TA.AperFunction,ViaPad*%
%ADD16C,0.800000*%
%TD*%
%TA.AperFunction,Conductor*%
%ADD17C,0.250000*%
%TD*%
G04 APERTURE END LIST*
D10*
%TO.P,J3,1,Pin_1*%
%TO.N,LED_1*%
X155200000Y-111200000D03*
D11*
%TO.P,J3,2,Pin_2*%
%TO.N,LED_2*%
X151390000Y-111200000D03*
%TO.P,J3,3,Pin_3*%
%TO.N,LED_3*%
X147580000Y-111200000D03*
%TO.P,J3,4,Pin_4*%
%TO.N,LED_4*%
X143770000Y-111200000D03*
%TO.P,J3,5,Pin_5*%
%TO.N,LED_5*%
X139960000Y-111200000D03*
%TO.P,J3,6,Pin_6*%
%TO.N,LED_6*%
X136150000Y-111200000D03*
%TO.P,J3,7,Pin_7*%
%TO.N,LED_7*%
X132340000Y-111200000D03*
%TO.P,J3,8,Pin_8*%
%TO.N,LED_8*%
X128530000Y-111200000D03*
%TO.P,J3,9,Pin_9*%
%TO.N,LED_9*%
X124720000Y-111200000D03*
%TO.P,J3,10,Pin_10*%
%TO.N,LED_10*%
X120910000Y-111200000D03*
%TO.P,J3,11,Pin_11*%
%TO.N,LED_11*%
X117100000Y-111200000D03*
%TO.P,J3,12,Pin_12*%
%TO.N,LED_12*%
X113290000Y-111200000D03*
%TO.P,J3,13,Pin_13*%
%TO.N,LED_13*%
X109480000Y-111200000D03*
%TO.P,J3,14,Pin_14*%
%TO.N,LED_14*%
X105670000Y-111200000D03*
%TO.P,J3,15,Pin_15*%
%TO.N,LED_15*%
X101860000Y-111200000D03*
%TO.P,J3,16,Pin_16*%
%TO.N,LED_16*%
X98050000Y-111200000D03*
%TD*%
D12*
%TO.P,J2,1,Pin_1*%
%TO.N,Net-(D4-Pad2)*%
X97877500Y-101400000D03*
D13*
%TO.P,J2,2,Pin_2*%
%TO.N,GND*%
X97877500Y-96320000D03*
%TD*%
D14*
%TO.P,U1,1,EN*%
%TO.N,unconnected-(U1-Pad1)*%
X111125000Y-96926000D03*
D15*
%TO.P,U1,2,SENSOR_VP*%
%TO.N,unconnected-(U1-Pad2)*%
X111125000Y-94386000D03*
%TO.P,U1,3,SENSOR_VN*%
%TO.N,unconnected-(U1-Pad3)*%
X111125000Y-91846000D03*
%TO.P,U1,4,IO34*%
%TO.N,unconnected-(U1-Pad4)*%
X111125000Y-89306000D03*
%TO.P,U1,5,IO35*%
%TO.N,unconnected-(U1-Pad5)*%
X111125000Y-86766000D03*
%TO.P,U1,6,IO32*%
%TO.N,PWM_16*%
X111125000Y-84226000D03*
%TO.P,U1,7,IO33*%
%TO.N,unconnected-(U1-Pad7)*%
X111125000Y-81686000D03*
%TO.P,U1,8,IO25*%
%TO.N,PWM_13*%
X111125000Y-79146000D03*
%TO.P,U1,9,IO26*%
%TO.N,PWM_14*%
X111125000Y-76606000D03*
%TO.P,U1,10,IO27*%
%TO.N,PWM_15*%
X111125000Y-74066000D03*
%TO.P,U1,11,IO14*%
%TO.N,PWM_4*%
X111125000Y-71526000D03*
%TO.P,U1,12,IO12*%
%TO.N,PWM_2*%
X111125000Y-68986000D03*
%TO.P,U1,13,IO13*%
%TO.N,PWM_3*%
X111125000Y-66446000D03*
%TO.P,U1,14,GND*%
%TO.N,GND*%
X111125000Y-63906000D03*
%TO.P,U1,15,VIN*%
%TO.N,esp32_power*%
X111125000Y-61366000D03*
%TO.P,U1,16,3V3*%
%TO.N,unconnected-(U1-Pad16)*%
X136525000Y-61366000D03*
%TO.P,U1,17,GND*%
%TO.N,GND*%
X136525000Y-63906000D03*
%TO.P,U1,18,IO15*%
%TO.N,PWM_5*%
X136525000Y-66446000D03*
%TO.P,U1,19,IO2*%
%TO.N,unconnected-(U1-Pad19)*%
X136525000Y-68986000D03*
%TO.P,U1,20,IO4*%
%TO.N,unconnected-(U1-Pad20)*%
X136525000Y-71526000D03*
%TO.P,U1,21,IO16*%
%TO.N,PWM_6*%
X136525000Y-74066000D03*
%TO.P,U1,22,IO17*%
%TO.N,PWM_7*%
X136525000Y-76606000D03*
%TO.P,U1,23,IO5*%
%TO.N,PWM_1*%
X136525000Y-79146000D03*
%TO.P,U1,24,IO18*%
%TO.N,PWM_8*%
X136525000Y-81686000D03*
%TO.P,U1,25,IO19*%
%TO.N,PWM_9*%
X136525000Y-84226000D03*
%TO.P,U1,26,IO21*%
%TO.N,PWM_10*%
X136525000Y-86766000D03*
%TO.P,U1,27,RXD0/IO3*%
%TO.N,unconnected-(U1-Pad27)*%
X136525000Y-89306000D03*
%TO.P,U1,28,TXD0/IO1*%
%TO.N,unconnected-(U1-Pad28)*%
X136525000Y-91846000D03*
%TO.P,U1,29,IO22*%
%TO.N,PWM_11*%
X136525000Y-94386000D03*
%TO.P,U1,30,IO23*%
%TO.N,PWM_12*%
X136525000Y-96926000D03*
%TD*%
D12*
%TO.P,J1,1,Pin_1*%
%TO.N,+VDC*%
X97877500Y-68680000D03*
D13*
%TO.P,J1,2,Pin_2*%
%TO.N,GND*%
X97877500Y-63600000D03*
%TD*%
D16*
%TO.N,PWM_13*%
X113291500Y-96120500D03*
%TO.N,PWM_5*%
X138198000Y-63026000D03*
%TO.N,PWM_3*%
X112959800Y-62803000D03*
%TO.N,Net-(Q3-Pad1)*%
X117031600Y-60137500D03*
X120608300Y-50679900D03*
%TO.N,Net-(Q2-Pad1)*%
X122130300Y-60517800D03*
X117069200Y-67584400D03*
%TO.N,LED_9*%
X149671900Y-91009400D03*
X132647400Y-109541900D03*
%TO.N,LED_8*%
X150576000Y-83206000D03*
%TO.N,LED_7*%
X151199300Y-67428600D03*
%TO.N,LED_6*%
X151945800Y-63866300D03*
%TO.N,LED_5*%
X153586400Y-55953600D03*
%TO.N,LED_4*%
X126651800Y-73638300D03*
%TO.N,LED_1*%
X158808300Y-74942900D03*
%TO.N,+5V*%
X132734400Y-53800000D03*
X105659400Y-77003400D03*
%TD*%
D17*
%TO.N,PWM_13*%
X113291500Y-81312500D02*
X113291500Y-96120500D01*
X111125000Y-79146000D02*
X113291500Y-81312500D01*
%TO.N,PWM_5*%
X138198000Y-64773000D02*
X138198000Y-63026000D01*
X136525000Y-66446000D02*
X138198000Y-64773000D01*
%TO.N,PWM_3*%
X112959800Y-64611200D02*
X112959800Y-62803000D01*
X111125000Y-66446000D02*
X112959800Y-64611200D01*
%TO.N,Net-(Q3-Pad1)*%
X120608300Y-56560800D02*
X117031600Y-60137500D01*
X120608300Y-50679900D02*
X120608300Y-56560800D01*
%TO.N,Net-(Q2-Pad1)*%
X117069200Y-65578900D02*
X122130300Y-60517800D01*
X117069200Y-67584400D02*
X117069200Y-65578900D01*
%TO.N,LED_9*%
X132647400Y-108033900D02*
X132647400Y-109541900D01*
X149671900Y-91009400D02*
X132647400Y-108033900D01*
%TO.N,LED_8*%
X150576000Y-84555100D02*
X150576000Y-83206000D01*
X128530000Y-106601100D02*
X150576000Y-84555100D01*
X128530000Y-111200000D02*
X128530000Y-106601100D01*
%TO.N,LED_7*%
X151301300Y-92238700D02*
X132340000Y-111200000D01*
X151301300Y-67530600D02*
X151301300Y-92238700D01*
X151199300Y-67428600D02*
X151301300Y-67530600D01*
%TO.N,LED_6*%
X151945800Y-95404200D02*
X136150000Y-111200000D01*
X151945800Y-63866300D02*
X151945800Y-95404200D01*
%TO.N,LED_5*%
X153586400Y-97573600D02*
X139960000Y-111200000D01*
X153586400Y-55953600D02*
X153586400Y-97573600D01*
%TO.N,LED_4*%
X126651800Y-111339400D02*
X126651800Y-73638300D01*
X127914800Y-112602400D02*
X126651800Y-111339400D01*
X142367600Y-112602400D02*
X127914800Y-112602400D01*
X143770000Y-111200000D02*
X142367600Y-112602400D01*
%TO.N,LED_1*%
X155200000Y-111200000D02*
X155200000Y-109824900D01*
X158808300Y-106216600D02*
X158808300Y-74942900D01*
X155200000Y-109824900D02*
X158808300Y-106216600D01*
%TO.N,+5V*%
X113683800Y-72850600D02*
X132734400Y-53800000D01*
X109812200Y-72850600D02*
X113683800Y-72850600D01*
X105659400Y-77003400D02*
X109812200Y-72850600D01*
%TD*%
M02*
