%TF.GenerationSoftware,KiCad,Pcbnew,(6.0.10)*%
%TF.CreationDate,2023-03-20T01:14:19-04:00*%
%TF.ProjectId,pwm_pcb_larger,70776d5f-7063-4625-9f6c-61726765722e,rev?*%
%TF.SameCoordinates,Original*%
%TF.FileFunction,Soldermask,Top*%
%TF.FilePolarity,Negative*%
%FSLAX46Y46*%
G04 Gerber Fmt 4.6, Leading zero omitted, Abs format (unit mm)*
G04 Created by KiCad (PCBNEW (6.0.10)) date 2023-03-20 01:14:19*
%MOMM*%
%LPD*%
G01*
G04 APERTURE LIST*
G04 Aperture macros list*
%AMRoundRect*
0 Rectangle with rounded corners*
0 $1 Rounding radius*
0 $2 $3 $4 $5 $6 $7 $8 $9 X,Y pos of 4 corners*
0 Add a 4 corners polygon primitive as box body*
4,1,4,$2,$3,$4,$5,$6,$7,$8,$9,$2,$3,0*
0 Add four circle primitives for the rounded corners*
1,1,$1+$1,$2,$3*
1,1,$1+$1,$4,$5*
1,1,$1+$1,$6,$7*
1,1,$1+$1,$8,$9*
0 Add four rect primitives between the rounded corners*
20,1,$1+$1,$2,$3,$4,$5,0*
20,1,$1+$1,$4,$5,$6,$7,0*
20,1,$1+$1,$6,$7,$8,$9,0*
20,1,$1+$1,$8,$9,$2,$3,0*%
G04 Aperture macros list end*
%ADD10RoundRect,0.243750X0.243750X0.456250X-0.243750X0.456250X-0.243750X-0.456250X0.243750X-0.456250X0*%
%ADD11R,2.100000X2.100000*%
%ADD12C,2.100000*%
%ADD13RoundRect,0.250000X-0.262500X-0.450000X0.262500X-0.450000X0.262500X0.450000X-0.262500X0.450000X0*%
%ADD14RoundRect,0.250000X0.412500X0.650000X-0.412500X0.650000X-0.412500X-0.650000X0.412500X-0.650000X0*%
%ADD15RoundRect,0.250000X0.262500X0.450000X-0.262500X0.450000X-0.262500X-0.450000X0.262500X-0.450000X0*%
%ADD16RoundRect,0.250000X0.450000X-0.262500X0.450000X0.262500X-0.450000X0.262500X-0.450000X-0.262500X0*%
%ADD17R,2.200000X1.200000*%
%ADD18R,6.400000X5.800000*%
%ADD19C,3.200000*%
%ADD20R,0.600000X0.450000*%
%ADD21RoundRect,0.250000X0.650000X-0.412500X0.650000X0.412500X-0.650000X0.412500X-0.650000X-0.412500X0*%
%ADD22RoundRect,0.150000X-0.587500X-0.150000X0.587500X-0.150000X0.587500X0.150000X-0.587500X0.150000X0*%
%ADD23R,1.200000X2.200000*%
%ADD24R,5.800000X6.400000*%
%ADD25R,1.800000X2.500000*%
%ADD26R,1.500000X1.500000*%
%ADD27RoundRect,0.250000X0.375000X0.625000X-0.375000X0.625000X-0.375000X-0.625000X0.375000X-0.625000X0*%
%ADD28RoundRect,0.249999X1.550001X-0.790001X1.550001X0.790001X-1.550001X0.790001X-1.550001X-0.790001X0*%
%ADD29O,3.600000X2.080000*%
%ADD30R,1.524000X1.524000*%
%ADD31C,1.524000*%
G04 APERTURE END LIST*
D10*
%TO.C,D2*%
X107137500Y-53000000D03*
X105262500Y-53000000D03*
%TD*%
%TO.C,D1*%
X99937500Y-53000000D03*
X98062500Y-53000000D03*
%TD*%
D11*
%TO.C,J3*%
X155200000Y-111200000D03*
D12*
X151390000Y-111200000D03*
X147580000Y-111200000D03*
X143770000Y-111200000D03*
X139960000Y-111200000D03*
X136150000Y-111200000D03*
X132340000Y-111200000D03*
X128530000Y-111200000D03*
X124720000Y-111200000D03*
X120910000Y-111200000D03*
X117100000Y-111200000D03*
X113290000Y-111200000D03*
X109480000Y-111200000D03*
X105670000Y-111200000D03*
X101860000Y-111200000D03*
X98050000Y-111200000D03*
%TD*%
D13*
%TO.C,R13*%
X138637000Y-72644000D03*
X140462000Y-72644000D03*
%TD*%
D14*
%TO.C,C2*%
X94950000Y-87000000D03*
X91825000Y-87000000D03*
%TD*%
D13*
%TO.C,R26*%
X113291500Y-90254700D03*
X115116500Y-90254700D03*
%TD*%
D15*
%TO.C,R12*%
X144018000Y-67183000D03*
X142193000Y-67183000D03*
%TD*%
%TO.C,R7*%
X118545500Y-61468000D03*
X116720500Y-61468000D03*
%TD*%
D13*
%TO.C,R30*%
X113291500Y-104648000D03*
X115116500Y-104648000D03*
%TD*%
%TO.C,R17*%
X138637000Y-89027000D03*
X140462000Y-89027000D03*
%TD*%
D16*
%TO.C,R35*%
X118600000Y-58443500D03*
X118600000Y-56618500D03*
%TD*%
D13*
%TO.C,R25*%
X113291500Y-97451300D03*
X115116500Y-97451300D03*
%TD*%
D17*
%TO.C,Q1*%
X148700000Y-72662900D03*
D18*
X155000000Y-74942900D03*
D17*
X148700000Y-77222900D03*
%TD*%
D15*
%TO.C,R11*%
X144018000Y-61722000D03*
X142193000Y-61722000D03*
%TD*%
D19*
%TO.C,MH1*%
X93091000Y-54864000D03*
%TD*%
D20*
%TO.C,D3*%
X103850000Y-86600000D03*
X105950000Y-86600000D03*
%TD*%
D21*
%TO.C,C1*%
X102200000Y-67362500D03*
X102200000Y-64237500D03*
%TD*%
D22*
%TO.C,Q17*%
X105662500Y-63050000D03*
X105662500Y-64950000D03*
X107537500Y-64000000D03*
%TD*%
D13*
%TO.C,R14*%
X138637000Y-83566000D03*
X140462000Y-83566000D03*
%TD*%
D15*
%TO.C,R37*%
X91862500Y-76200000D03*
X90037500Y-76200000D03*
%TD*%
%TO.C,R36*%
X95262500Y-76200000D03*
X93437500Y-76200000D03*
%TD*%
D13*
%TO.C,R29*%
X113291500Y-83195500D03*
X115116500Y-83195500D03*
%TD*%
D17*
%TO.C,Q15*%
X122625000Y-76334500D03*
D18*
X128925000Y-78614500D03*
D17*
X122625000Y-80894500D03*
%TD*%
D20*
%TO.C,D5*%
X100200000Y-86800000D03*
X98100000Y-86800000D03*
%TD*%
D15*
%TO.C,R8*%
X118618000Y-75861300D03*
X116793000Y-75861300D03*
%TD*%
D17*
%TO.C,Q16*%
X122625000Y-101874000D03*
D18*
X128925000Y-104154000D03*
D17*
X122625000Y-106434000D03*
%TD*%
%TO.C,Q3*%
X122425000Y-50795000D03*
D18*
X128725000Y-53075000D03*
D17*
X122425000Y-55355000D03*
%TD*%
%TO.C,Q9*%
X148700000Y-87691400D03*
D18*
X155000000Y-89971400D03*
D17*
X148700000Y-92251400D03*
%TD*%
%TO.C,Q13*%
X122625000Y-93360800D03*
D18*
X128925000Y-95640800D03*
D17*
X122625000Y-97920800D03*
%TD*%
D15*
%TO.C,R20*%
X144018000Y-94488000D03*
X142193000Y-94488000D03*
%TD*%
D13*
%TO.C,R10*%
X138637000Y-67183000D03*
X140462000Y-67183000D03*
%TD*%
D15*
%TO.C,R16*%
X144018000Y-83566000D03*
X142193000Y-83566000D03*
%TD*%
D16*
%TO.C,R33*%
X109600000Y-58467000D03*
X109600000Y-56642000D03*
%TD*%
D23*
%TO.C,Q12*%
X161720000Y-88900000D03*
D24*
X164000000Y-82600000D03*
D23*
X166280000Y-88900000D03*
%TD*%
D15*
%TO.C,R28*%
X118872000Y-90254700D03*
X117047000Y-90254700D03*
%TD*%
D17*
%TO.C,Q6*%
X148700000Y-57634300D03*
D18*
X155000000Y-59914300D03*
D17*
X148700000Y-62194300D03*
%TD*%
%TO.C,Q4*%
X122625000Y-67821300D03*
D18*
X128925000Y-70101300D03*
D17*
X122625000Y-72381300D03*
%TD*%
D13*
%TO.C,R18*%
X138637000Y-94488000D03*
X140462000Y-94488000D03*
%TD*%
D25*
%TO.C,D4*%
X106000000Y-96800000D03*
X106000000Y-100800000D03*
%TD*%
D17*
%TO.C,Q5*%
X148700000Y-50120000D03*
D18*
X155000000Y-52400000D03*
D17*
X148700000Y-54680000D03*
%TD*%
D13*
%TO.C,R6*%
X113291500Y-75861300D03*
X115116500Y-75861300D03*
%TD*%
D15*
%TO.C,R31*%
X118872000Y-83195500D03*
X117047000Y-83195500D03*
%TD*%
D17*
%TO.C,Q10*%
X148700000Y-95205700D03*
D18*
X155000000Y-97485700D03*
D17*
X148700000Y-99765700D03*
%TD*%
D15*
%TO.C,R15*%
X144018000Y-72644000D03*
X142193000Y-72644000D03*
%TD*%
%TO.C,R4*%
X118578500Y-68893800D03*
X116753500Y-68893800D03*
%TD*%
D17*
%TO.C,U2*%
X97975000Y-78245000D03*
D18*
X104275000Y-80525000D03*
D17*
X97975000Y-82805000D03*
%TD*%
D15*
%TO.C,R23*%
X144018000Y-99949000D03*
X142193000Y-99949000D03*
%TD*%
D21*
%TO.C,C3*%
X92750000Y-83000000D03*
X92750000Y-79875000D03*
%TD*%
D17*
%TO.C,Q8*%
X148700000Y-80177100D03*
D18*
X155000000Y-82457100D03*
D17*
X148700000Y-84737100D03*
%TD*%
D13*
%TO.C,R2*%
X113291500Y-68893800D03*
X115116500Y-68893800D03*
%TD*%
%TO.C,R5*%
X113291500Y-61468000D03*
X115116500Y-61468000D03*
%TD*%
D19*
%TO.C,MH3*%
X90800000Y-110000000D03*
X90800000Y-110000000D03*
%TD*%
D15*
%TO.C,R19*%
X144018000Y-89027000D03*
X142193000Y-89027000D03*
%TD*%
D26*
%TO.C,SW1*%
X134100000Y-53800000D03*
X141900000Y-53800000D03*
%TD*%
D27*
%TO.C,F1*%
X105032000Y-57912000D03*
X102232000Y-57912000D03*
%TD*%
D17*
%TO.C,Q11*%
X148700000Y-102720000D03*
D18*
X155000000Y-105000000D03*
D17*
X148700000Y-107280000D03*
%TD*%
%TO.C,Q7*%
X148700000Y-65148600D03*
D18*
X155000000Y-67428600D03*
D17*
X148700000Y-69708600D03*
%TD*%
D19*
%TO.C,MH4*%
X163200000Y-111800000D03*
%TD*%
D17*
%TO.C,Q2*%
X122425000Y-59308200D03*
D18*
X128725000Y-61588200D03*
D17*
X122425000Y-63868200D03*
%TD*%
D16*
%TO.C,R34*%
X114200000Y-58467000D03*
X114200000Y-56642000D03*
%TD*%
D19*
%TO.C,MH2*%
X162800000Y-53800000D03*
%TD*%
D15*
%TO.C,R27*%
X118665000Y-97451300D03*
X116840000Y-97451300D03*
%TD*%
%TO.C,R32*%
X118594500Y-104648000D03*
X116769500Y-104648000D03*
%TD*%
D13*
%TO.C,R22*%
X138637000Y-105410000D03*
X140462000Y-105410000D03*
%TD*%
D17*
%TO.C,Q14*%
X122625000Y-84847700D03*
D18*
X128925000Y-87127700D03*
D17*
X122625000Y-89407700D03*
%TD*%
D15*
%TO.C,R24*%
X144018000Y-105410000D03*
X142193000Y-105410000D03*
%TD*%
D13*
%TO.C,R1*%
X138637000Y-78105000D03*
X140462000Y-78105000D03*
%TD*%
D15*
%TO.C,R3*%
X144018000Y-78105000D03*
X142193000Y-78105000D03*
%TD*%
D13*
%TO.C,R21*%
X138637000Y-99949000D03*
X140462000Y-99949000D03*
%TD*%
%TO.C,R9*%
X138533500Y-61722000D03*
X140358500Y-61722000D03*
%TD*%
D28*
%TO.C,J2*%
X97877500Y-101400000D03*
D29*
X97877500Y-96320000D03*
%TD*%
D30*
%TO.C,U1*%
X111125000Y-96926000D03*
D31*
X111125000Y-94386000D03*
X111125000Y-91846000D03*
X111125000Y-89306000D03*
X111125000Y-86766000D03*
X111125000Y-84226000D03*
X111125000Y-81686000D03*
X111125000Y-79146000D03*
X111125000Y-76606000D03*
X111125000Y-74066000D03*
X111125000Y-71526000D03*
X111125000Y-68986000D03*
X111125000Y-66446000D03*
X111125000Y-63906000D03*
X111125000Y-61366000D03*
X136525000Y-61366000D03*
X136525000Y-63906000D03*
X136525000Y-66446000D03*
X136525000Y-68986000D03*
X136525000Y-71526000D03*
X136525000Y-74066000D03*
X136525000Y-76606000D03*
X136525000Y-79146000D03*
X136525000Y-81686000D03*
X136525000Y-84226000D03*
X136525000Y-86766000D03*
X136525000Y-89306000D03*
X136525000Y-91846000D03*
X136525000Y-94386000D03*
X136525000Y-96926000D03*
%TD*%
D28*
%TO.C,J1*%
X97877500Y-68680000D03*
D29*
X97877500Y-63600000D03*
%TD*%
M02*
