%TF.GenerationSoftware,KiCad,Pcbnew,(6.0.10)*%
%TF.CreationDate,2023-04-15T00:37:08-04:00*%
%TF.ProjectId,pwm_pcb_larger,70776d5f-7063-4625-9f6c-61726765722e,rev?*%
%TF.SameCoordinates,Original*%
%TF.FileFunction,Legend,Top*%
%TF.FilePolarity,Positive*%
%FSLAX46Y46*%
G04 Gerber Fmt 4.6, Leading zero omitted, Abs format (unit mm)*
G04 Created by KiCad (PCBNEW (6.0.10)) date 2023-04-15 00:37:08*
%MOMM*%
%LPD*%
G01*
G04 APERTURE LIST*
G04 Aperture macros list*
%AMRoundRect*
0 Rectangle with rounded corners*
0 $1 Rounding radius*
0 $2 $3 $4 $5 $6 $7 $8 $9 X,Y pos of 4 corners*
0 Add a 4 corners polygon primitive as box body*
4,1,4,$2,$3,$4,$5,$6,$7,$8,$9,$2,$3,0*
0 Add four circle primitives for the rounded corners*
1,1,$1+$1,$2,$3*
1,1,$1+$1,$4,$5*
1,1,$1+$1,$6,$7*
1,1,$1+$1,$8,$9*
0 Add four rect primitives between the rounded corners*
20,1,$1+$1,$2,$3,$4,$5,0*
20,1,$1+$1,$4,$5,$6,$7,0*
20,1,$1+$1,$6,$7,$8,$9,0*
20,1,$1+$1,$8,$9,$2,$3,0*%
G04 Aperture macros list end*
%ADD10C,0.150000*%
%ADD11C,0.120000*%
%ADD12C,0.127000*%
%ADD13C,0.200000*%
%ADD14RoundRect,0.250000X-0.262500X-0.450000X0.262500X-0.450000X0.262500X0.450000X-0.262500X0.450000X0*%
%ADD15RoundRect,0.250000X0.412500X0.650000X-0.412500X0.650000X-0.412500X-0.650000X0.412500X-0.650000X0*%
%ADD16RoundRect,0.250000X0.262500X0.450000X-0.262500X0.450000X-0.262500X-0.450000X0.262500X-0.450000X0*%
%ADD17RoundRect,0.250000X0.450000X-0.262500X0.450000X0.262500X-0.450000X0.262500X-0.450000X-0.262500X0*%
%ADD18R,2.200000X1.200000*%
%ADD19R,6.400000X5.800000*%
%ADD20C,3.200000*%
%ADD21R,0.600000X0.450000*%
%ADD22RoundRect,0.250000X0.650000X-0.412500X0.650000X0.412500X-0.650000X0.412500X-0.650000X-0.412500X0*%
%ADD23RoundRect,0.150000X-0.587500X-0.150000X0.587500X-0.150000X0.587500X0.150000X-0.587500X0.150000X0*%
%ADD24R,2.100000X2.100000*%
%ADD25C,2.100000*%
%ADD26R,1.200000X2.200000*%
%ADD27R,5.800000X6.400000*%
%ADD28R,1.800000X2.500000*%
%ADD29RoundRect,0.243750X0.243750X0.456250X-0.243750X0.456250X-0.243750X-0.456250X0.243750X-0.456250X0*%
%ADD30R,1.500000X1.500000*%
%ADD31RoundRect,0.250000X0.375000X0.625000X-0.375000X0.625000X-0.375000X-0.625000X0.375000X-0.625000X0*%
%ADD32RoundRect,0.249999X1.550001X-0.790001X1.550001X0.790001X-1.550001X0.790001X-1.550001X-0.790001X0*%
%ADD33O,3.600000X2.080000*%
%ADD34R,1.524000X1.524000*%
%ADD35C,1.524000*%
G04 APERTURE END LIST*
D10*
X96057142Y-54785714D02*
X96438095Y-54785714D01*
X96200000Y-55452380D02*
X96200000Y-54595238D01*
X96247619Y-54500000D01*
X96342857Y-54452380D01*
X96438095Y-54452380D01*
X97200000Y-54785714D02*
X97200000Y-55452380D01*
X96771428Y-54785714D02*
X96771428Y-55309523D01*
X96819047Y-55404761D01*
X96914285Y-55452380D01*
X97057142Y-55452380D01*
X97152380Y-55404761D01*
X97200000Y-55357142D01*
X97628571Y-55404761D02*
X97723809Y-55452380D01*
X97914285Y-55452380D01*
X98009523Y-55404761D01*
X98057142Y-55309523D01*
X98057142Y-55261904D01*
X98009523Y-55166666D01*
X97914285Y-55119047D01*
X97771428Y-55119047D01*
X97676190Y-55071428D01*
X97628571Y-54976190D01*
X97628571Y-54928571D01*
X97676190Y-54833333D01*
X97771428Y-54785714D01*
X97914285Y-54785714D01*
X98009523Y-54833333D01*
X98866666Y-55404761D02*
X98771428Y-55452380D01*
X98580952Y-55452380D01*
X98485714Y-55404761D01*
X98438095Y-55309523D01*
X98438095Y-54928571D01*
X98485714Y-54833333D01*
X98580952Y-54785714D01*
X98771428Y-54785714D01*
X98866666Y-54833333D01*
X98914285Y-54928571D01*
X98914285Y-55023809D01*
X98438095Y-55119047D01*
X99961904Y-54785714D02*
X100342857Y-54785714D01*
X100104761Y-54452380D02*
X100104761Y-55309523D01*
X100152380Y-55404761D01*
X100247619Y-55452380D01*
X100342857Y-55452380D01*
X100676190Y-55452380D02*
X100676190Y-54785714D01*
X100676190Y-54976190D02*
X100723809Y-54880952D01*
X100771428Y-54833333D01*
X100866666Y-54785714D01*
X100961904Y-54785714D01*
X101295238Y-55452380D02*
X101295238Y-54785714D01*
X101295238Y-54452380D02*
X101247619Y-54500000D01*
X101295238Y-54547619D01*
X101342857Y-54500000D01*
X101295238Y-54452380D01*
X101295238Y-54547619D01*
X101771428Y-54785714D02*
X101771428Y-55785714D01*
X101771428Y-54833333D02*
X101866666Y-54785714D01*
X102057142Y-54785714D01*
X102152380Y-54833333D01*
X102200000Y-54880952D01*
X102247619Y-54976190D01*
X102247619Y-55261904D01*
X102200000Y-55357142D01*
X102152380Y-55404761D01*
X102057142Y-55452380D01*
X101866666Y-55452380D01*
X101771428Y-55404761D01*
X134966666Y-58252380D02*
X134871428Y-58204761D01*
X134823809Y-58157142D01*
X134776190Y-58061904D01*
X134776190Y-57776190D01*
X134823809Y-57680952D01*
X134871428Y-57633333D01*
X134966666Y-57585714D01*
X135109523Y-57585714D01*
X135204761Y-57633333D01*
X135252380Y-57680952D01*
X135300000Y-57776190D01*
X135300000Y-58061904D01*
X135252380Y-58157142D01*
X135204761Y-58204761D01*
X135109523Y-58252380D01*
X134966666Y-58252380D01*
X135728571Y-57585714D02*
X135728571Y-58252380D01*
X135728571Y-57680952D02*
X135776190Y-57633333D01*
X135871428Y-57585714D01*
X136014285Y-57585714D01*
X136109523Y-57633333D01*
X136157142Y-57728571D01*
X136157142Y-58252380D01*
X138109523Y-57204761D02*
X137252380Y-58490476D01*
X139347619Y-58252380D02*
X139252380Y-58204761D01*
X139204761Y-58157142D01*
X139157142Y-58061904D01*
X139157142Y-57776190D01*
X139204761Y-57680952D01*
X139252380Y-57633333D01*
X139347619Y-57585714D01*
X139490476Y-57585714D01*
X139585714Y-57633333D01*
X139633333Y-57680952D01*
X139680952Y-57776190D01*
X139680952Y-58061904D01*
X139633333Y-58157142D01*
X139585714Y-58204761D01*
X139490476Y-58252380D01*
X139347619Y-58252380D01*
X139966666Y-57585714D02*
X140347619Y-57585714D01*
X140109523Y-58252380D02*
X140109523Y-57395238D01*
X140157142Y-57300000D01*
X140252380Y-57252380D01*
X140347619Y-57252380D01*
X140538095Y-57585714D02*
X140919047Y-57585714D01*
X140680952Y-58252380D02*
X140680952Y-57395238D01*
X140728571Y-57300000D01*
X140823809Y-57252380D01*
X140919047Y-57252380D01*
X103433333Y-54585714D02*
X103433333Y-55585714D01*
X103433333Y-54633333D02*
X103528571Y-54585714D01*
X103719047Y-54585714D01*
X103814285Y-54633333D01*
X103861904Y-54680952D01*
X103909523Y-54776190D01*
X103909523Y-55061904D01*
X103861904Y-55157142D01*
X103814285Y-55204761D01*
X103719047Y-55252380D01*
X103528571Y-55252380D01*
X103433333Y-55204761D01*
X104480952Y-55252380D02*
X104385714Y-55204761D01*
X104338095Y-55157142D01*
X104290476Y-55061904D01*
X104290476Y-54776190D01*
X104338095Y-54680952D01*
X104385714Y-54633333D01*
X104480952Y-54585714D01*
X104623809Y-54585714D01*
X104719047Y-54633333D01*
X104766666Y-54680952D01*
X104814285Y-54776190D01*
X104814285Y-55061904D01*
X104766666Y-55157142D01*
X104719047Y-55204761D01*
X104623809Y-55252380D01*
X104480952Y-55252380D01*
X105147619Y-54585714D02*
X105338095Y-55252380D01*
X105528571Y-54776190D01*
X105719047Y-55252380D01*
X105909523Y-54585714D01*
X106671428Y-55204761D02*
X106576190Y-55252380D01*
X106385714Y-55252380D01*
X106290476Y-55204761D01*
X106242857Y-55109523D01*
X106242857Y-54728571D01*
X106290476Y-54633333D01*
X106385714Y-54585714D01*
X106576190Y-54585714D01*
X106671428Y-54633333D01*
X106719047Y-54728571D01*
X106719047Y-54823809D01*
X106242857Y-54919047D01*
X107147619Y-55252380D02*
X107147619Y-54585714D01*
X107147619Y-54776190D02*
X107195238Y-54680952D01*
X107242857Y-54633333D01*
X107338095Y-54585714D01*
X107433333Y-54585714D01*
X108671428Y-55252380D02*
X108576190Y-55204761D01*
X108528571Y-55157142D01*
X108480952Y-55061904D01*
X108480952Y-54776190D01*
X108528571Y-54680952D01*
X108576190Y-54633333D01*
X108671428Y-54585714D01*
X108814285Y-54585714D01*
X108909523Y-54633333D01*
X108957142Y-54680952D01*
X109004761Y-54776190D01*
X109004761Y-55061904D01*
X108957142Y-55157142D01*
X108909523Y-55204761D01*
X108814285Y-55252380D01*
X108671428Y-55252380D01*
X109433333Y-55252380D02*
X109433333Y-54252380D01*
X109528571Y-54871428D02*
X109814285Y-55252380D01*
X109814285Y-54585714D02*
X109433333Y-54966666D01*
%TO.C,R13*%
X138906642Y-71446380D02*
X138573309Y-70970190D01*
X138335214Y-71446380D02*
X138335214Y-70446380D01*
X138716166Y-70446380D01*
X138811404Y-70494000D01*
X138859023Y-70541619D01*
X138906642Y-70636857D01*
X138906642Y-70779714D01*
X138859023Y-70874952D01*
X138811404Y-70922571D01*
X138716166Y-70970190D01*
X138335214Y-70970190D01*
X139859023Y-71446380D02*
X139287595Y-71446380D01*
X139573309Y-71446380D02*
X139573309Y-70446380D01*
X139478071Y-70589238D01*
X139382833Y-70684476D01*
X139287595Y-70732095D01*
X140192357Y-70446380D02*
X140811404Y-70446380D01*
X140478071Y-70827333D01*
X140620928Y-70827333D01*
X140716166Y-70874952D01*
X140763785Y-70922571D01*
X140811404Y-71017809D01*
X140811404Y-71255904D01*
X140763785Y-71351142D01*
X140716166Y-71398761D01*
X140620928Y-71446380D01*
X140335214Y-71446380D01*
X140239976Y-71398761D01*
X140192357Y-71351142D01*
%TO.C,C2*%
X93220833Y-89207142D02*
X93173214Y-89254761D01*
X93030357Y-89302380D01*
X92935119Y-89302380D01*
X92792261Y-89254761D01*
X92697023Y-89159523D01*
X92649404Y-89064285D01*
X92601785Y-88873809D01*
X92601785Y-88730952D01*
X92649404Y-88540476D01*
X92697023Y-88445238D01*
X92792261Y-88350000D01*
X92935119Y-88302380D01*
X93030357Y-88302380D01*
X93173214Y-88350000D01*
X93220833Y-88397619D01*
X93601785Y-88397619D02*
X93649404Y-88350000D01*
X93744642Y-88302380D01*
X93982738Y-88302380D01*
X94077976Y-88350000D01*
X94125595Y-88397619D01*
X94173214Y-88492857D01*
X94173214Y-88588095D01*
X94125595Y-88730952D01*
X93554166Y-89302380D01*
X94173214Y-89302380D01*
%TO.C,R26*%
X113561142Y-89057080D02*
X113227809Y-88580890D01*
X112989714Y-89057080D02*
X112989714Y-88057080D01*
X113370666Y-88057080D01*
X113465904Y-88104700D01*
X113513523Y-88152319D01*
X113561142Y-88247557D01*
X113561142Y-88390414D01*
X113513523Y-88485652D01*
X113465904Y-88533271D01*
X113370666Y-88580890D01*
X112989714Y-88580890D01*
X113942095Y-88152319D02*
X113989714Y-88104700D01*
X114084952Y-88057080D01*
X114323047Y-88057080D01*
X114418285Y-88104700D01*
X114465904Y-88152319D01*
X114513523Y-88247557D01*
X114513523Y-88342795D01*
X114465904Y-88485652D01*
X113894476Y-89057080D01*
X114513523Y-89057080D01*
X115370666Y-88057080D02*
X115180190Y-88057080D01*
X115084952Y-88104700D01*
X115037333Y-88152319D01*
X114942095Y-88295176D01*
X114894476Y-88485652D01*
X114894476Y-88866604D01*
X114942095Y-88961842D01*
X114989714Y-89009461D01*
X115084952Y-89057080D01*
X115275428Y-89057080D01*
X115370666Y-89009461D01*
X115418285Y-88961842D01*
X115465904Y-88866604D01*
X115465904Y-88628509D01*
X115418285Y-88533271D01*
X115370666Y-88485652D01*
X115275428Y-88438033D01*
X115084952Y-88438033D01*
X114989714Y-88485652D01*
X114942095Y-88533271D01*
X114894476Y-88628509D01*
%TO.C,R12*%
X142557142Y-65852380D02*
X142223809Y-65376190D01*
X141985714Y-65852380D02*
X141985714Y-64852380D01*
X142366666Y-64852380D01*
X142461904Y-64900000D01*
X142509523Y-64947619D01*
X142557142Y-65042857D01*
X142557142Y-65185714D01*
X142509523Y-65280952D01*
X142461904Y-65328571D01*
X142366666Y-65376190D01*
X141985714Y-65376190D01*
X143509523Y-65852380D02*
X142938095Y-65852380D01*
X143223809Y-65852380D02*
X143223809Y-64852380D01*
X143128571Y-64995238D01*
X143033333Y-65090476D01*
X142938095Y-65138095D01*
X143890476Y-64947619D02*
X143938095Y-64900000D01*
X144033333Y-64852380D01*
X144271428Y-64852380D01*
X144366666Y-64900000D01*
X144414285Y-64947619D01*
X144461904Y-65042857D01*
X144461904Y-65138095D01*
X144414285Y-65280952D01*
X143842857Y-65852380D01*
X144461904Y-65852380D01*
%TO.C,R7*%
X117466333Y-60142380D02*
X117133000Y-59666190D01*
X116894904Y-60142380D02*
X116894904Y-59142380D01*
X117275857Y-59142380D01*
X117371095Y-59190000D01*
X117418714Y-59237619D01*
X117466333Y-59332857D01*
X117466333Y-59475714D01*
X117418714Y-59570952D01*
X117371095Y-59618571D01*
X117275857Y-59666190D01*
X116894904Y-59666190D01*
X117799666Y-59142380D02*
X118466333Y-59142380D01*
X118037761Y-60142380D01*
%TO.C,R30*%
X113561142Y-103450380D02*
X113227809Y-102974190D01*
X112989714Y-103450380D02*
X112989714Y-102450380D01*
X113370666Y-102450380D01*
X113465904Y-102498000D01*
X113513523Y-102545619D01*
X113561142Y-102640857D01*
X113561142Y-102783714D01*
X113513523Y-102878952D01*
X113465904Y-102926571D01*
X113370666Y-102974190D01*
X112989714Y-102974190D01*
X113894476Y-102450380D02*
X114513523Y-102450380D01*
X114180190Y-102831333D01*
X114323047Y-102831333D01*
X114418285Y-102878952D01*
X114465904Y-102926571D01*
X114513523Y-103021809D01*
X114513523Y-103259904D01*
X114465904Y-103355142D01*
X114418285Y-103402761D01*
X114323047Y-103450380D01*
X114037333Y-103450380D01*
X113942095Y-103402761D01*
X113894476Y-103355142D01*
X115132571Y-102450380D02*
X115227809Y-102450380D01*
X115323047Y-102498000D01*
X115370666Y-102545619D01*
X115418285Y-102640857D01*
X115465904Y-102831333D01*
X115465904Y-103069428D01*
X115418285Y-103259904D01*
X115370666Y-103355142D01*
X115323047Y-103402761D01*
X115227809Y-103450380D01*
X115132571Y-103450380D01*
X115037333Y-103402761D01*
X114989714Y-103355142D01*
X114942095Y-103259904D01*
X114894476Y-103069428D01*
X114894476Y-102831333D01*
X114942095Y-102640857D01*
X114989714Y-102545619D01*
X115037333Y-102498000D01*
X115132571Y-102450380D01*
%TO.C,R17*%
X138906642Y-87829380D02*
X138573309Y-87353190D01*
X138335214Y-87829380D02*
X138335214Y-86829380D01*
X138716166Y-86829380D01*
X138811404Y-86877000D01*
X138859023Y-86924619D01*
X138906642Y-87019857D01*
X138906642Y-87162714D01*
X138859023Y-87257952D01*
X138811404Y-87305571D01*
X138716166Y-87353190D01*
X138335214Y-87353190D01*
X139859023Y-87829380D02*
X139287595Y-87829380D01*
X139573309Y-87829380D02*
X139573309Y-86829380D01*
X139478071Y-86972238D01*
X139382833Y-87067476D01*
X139287595Y-87115095D01*
X140192357Y-86829380D02*
X140859023Y-86829380D01*
X140430452Y-87829380D01*
%TO.C,R35*%
X117402380Y-58173857D02*
X116926190Y-58507190D01*
X117402380Y-58745285D02*
X116402380Y-58745285D01*
X116402380Y-58364333D01*
X116450000Y-58269095D01*
X116497619Y-58221476D01*
X116592857Y-58173857D01*
X116735714Y-58173857D01*
X116830952Y-58221476D01*
X116878571Y-58269095D01*
X116926190Y-58364333D01*
X116926190Y-58745285D01*
X116402380Y-57840523D02*
X116402380Y-57221476D01*
X116783333Y-57554809D01*
X116783333Y-57411952D01*
X116830952Y-57316714D01*
X116878571Y-57269095D01*
X116973809Y-57221476D01*
X117211904Y-57221476D01*
X117307142Y-57269095D01*
X117354761Y-57316714D01*
X117402380Y-57411952D01*
X117402380Y-57697666D01*
X117354761Y-57792904D01*
X117307142Y-57840523D01*
X116402380Y-56316714D02*
X116402380Y-56792904D01*
X116878571Y-56840523D01*
X116830952Y-56792904D01*
X116783333Y-56697666D01*
X116783333Y-56459571D01*
X116830952Y-56364333D01*
X116878571Y-56316714D01*
X116973809Y-56269095D01*
X117211904Y-56269095D01*
X117307142Y-56316714D01*
X117354761Y-56364333D01*
X117402380Y-56459571D01*
X117402380Y-56697666D01*
X117354761Y-56792904D01*
X117307142Y-56840523D01*
%TO.C,R25*%
X113561142Y-96253680D02*
X113227809Y-95777490D01*
X112989714Y-96253680D02*
X112989714Y-95253680D01*
X113370666Y-95253680D01*
X113465904Y-95301300D01*
X113513523Y-95348919D01*
X113561142Y-95444157D01*
X113561142Y-95587014D01*
X113513523Y-95682252D01*
X113465904Y-95729871D01*
X113370666Y-95777490D01*
X112989714Y-95777490D01*
X113942095Y-95348919D02*
X113989714Y-95301300D01*
X114084952Y-95253680D01*
X114323047Y-95253680D01*
X114418285Y-95301300D01*
X114465904Y-95348919D01*
X114513523Y-95444157D01*
X114513523Y-95539395D01*
X114465904Y-95682252D01*
X113894476Y-96253680D01*
X114513523Y-96253680D01*
X115418285Y-95253680D02*
X114942095Y-95253680D01*
X114894476Y-95729871D01*
X114942095Y-95682252D01*
X115037333Y-95634633D01*
X115275428Y-95634633D01*
X115370666Y-95682252D01*
X115418285Y-95729871D01*
X115465904Y-95825109D01*
X115465904Y-96063204D01*
X115418285Y-96158442D01*
X115370666Y-96206061D01*
X115275428Y-96253680D01*
X115037333Y-96253680D01*
X114942095Y-96206061D01*
X114894476Y-96158442D01*
%TO.C,Q1*%
X159304761Y-72547619D02*
X159209523Y-72500000D01*
X159114285Y-72404761D01*
X158971428Y-72261904D01*
X158876190Y-72214285D01*
X158780952Y-72214285D01*
X158828571Y-72452380D02*
X158733333Y-72404761D01*
X158638095Y-72309523D01*
X158590476Y-72119047D01*
X158590476Y-71785714D01*
X158638095Y-71595238D01*
X158733333Y-71500000D01*
X158828571Y-71452380D01*
X159019047Y-71452380D01*
X159114285Y-71500000D01*
X159209523Y-71595238D01*
X159257142Y-71785714D01*
X159257142Y-72119047D01*
X159209523Y-72309523D01*
X159114285Y-72404761D01*
X159019047Y-72452380D01*
X158828571Y-72452380D01*
X160209523Y-72452380D02*
X159638095Y-72452380D01*
X159923809Y-72452380D02*
X159923809Y-71452380D01*
X159828571Y-71595238D01*
X159733333Y-71690476D01*
X159638095Y-71738095D01*
%TO.C,R11*%
X142462642Y-60452380D02*
X142129309Y-59976190D01*
X141891214Y-60452380D02*
X141891214Y-59452380D01*
X142272166Y-59452380D01*
X142367404Y-59500000D01*
X142415023Y-59547619D01*
X142462642Y-59642857D01*
X142462642Y-59785714D01*
X142415023Y-59880952D01*
X142367404Y-59928571D01*
X142272166Y-59976190D01*
X141891214Y-59976190D01*
X143415023Y-60452380D02*
X142843595Y-60452380D01*
X143129309Y-60452380D02*
X143129309Y-59452380D01*
X143034071Y-59595238D01*
X142938833Y-59690476D01*
X142843595Y-59738095D01*
X144367404Y-60452380D02*
X143795976Y-60452380D01*
X144081690Y-60452380D02*
X144081690Y-59452380D01*
X143986452Y-59595238D01*
X143891214Y-59690476D01*
X143795976Y-59738095D01*
%TO.C,D3*%
X104161904Y-85202380D02*
X104161904Y-84202380D01*
X104400000Y-84202380D01*
X104542857Y-84250000D01*
X104638095Y-84345238D01*
X104685714Y-84440476D01*
X104733333Y-84630952D01*
X104733333Y-84773809D01*
X104685714Y-84964285D01*
X104638095Y-85059523D01*
X104542857Y-85154761D01*
X104400000Y-85202380D01*
X104161904Y-85202380D01*
X105066666Y-84202380D02*
X105685714Y-84202380D01*
X105352380Y-84583333D01*
X105495238Y-84583333D01*
X105590476Y-84630952D01*
X105638095Y-84678571D01*
X105685714Y-84773809D01*
X105685714Y-85011904D01*
X105638095Y-85107142D01*
X105590476Y-85154761D01*
X105495238Y-85202380D01*
X105209523Y-85202380D01*
X105114285Y-85154761D01*
X105066666Y-85107142D01*
%TO.C,C1*%
X99763142Y-65674166D02*
X99810761Y-65721785D01*
X99858380Y-65864642D01*
X99858380Y-65959880D01*
X99810761Y-66102738D01*
X99715523Y-66197976D01*
X99620285Y-66245595D01*
X99429809Y-66293214D01*
X99286952Y-66293214D01*
X99096476Y-66245595D01*
X99001238Y-66197976D01*
X98906000Y-66102738D01*
X98858380Y-65959880D01*
X98858380Y-65864642D01*
X98906000Y-65721785D01*
X98953619Y-65674166D01*
X99858380Y-64721785D02*
X99858380Y-65293214D01*
X99858380Y-65007500D02*
X98858380Y-65007500D01*
X99001238Y-65102738D01*
X99096476Y-65197976D01*
X99144095Y-65293214D01*
%TO.C,Q17*%
X106028571Y-62147619D02*
X105933333Y-62100000D01*
X105838095Y-62004761D01*
X105695238Y-61861904D01*
X105600000Y-61814285D01*
X105504761Y-61814285D01*
X105552380Y-62052380D02*
X105457142Y-62004761D01*
X105361904Y-61909523D01*
X105314285Y-61719047D01*
X105314285Y-61385714D01*
X105361904Y-61195238D01*
X105457142Y-61100000D01*
X105552380Y-61052380D01*
X105742857Y-61052380D01*
X105838095Y-61100000D01*
X105933333Y-61195238D01*
X105980952Y-61385714D01*
X105980952Y-61719047D01*
X105933333Y-61909523D01*
X105838095Y-62004761D01*
X105742857Y-62052380D01*
X105552380Y-62052380D01*
X106933333Y-62052380D02*
X106361904Y-62052380D01*
X106647619Y-62052380D02*
X106647619Y-61052380D01*
X106552380Y-61195238D01*
X106457142Y-61290476D01*
X106361904Y-61338095D01*
X107266666Y-61052380D02*
X107933333Y-61052380D01*
X107504761Y-62052380D01*
%TO.C,R14*%
X138906642Y-82368380D02*
X138573309Y-81892190D01*
X138335214Y-82368380D02*
X138335214Y-81368380D01*
X138716166Y-81368380D01*
X138811404Y-81416000D01*
X138859023Y-81463619D01*
X138906642Y-81558857D01*
X138906642Y-81701714D01*
X138859023Y-81796952D01*
X138811404Y-81844571D01*
X138716166Y-81892190D01*
X138335214Y-81892190D01*
X139859023Y-82368380D02*
X139287595Y-82368380D01*
X139573309Y-82368380D02*
X139573309Y-81368380D01*
X139478071Y-81511238D01*
X139382833Y-81606476D01*
X139287595Y-81654095D01*
X140716166Y-81701714D02*
X140716166Y-82368380D01*
X140478071Y-81320761D02*
X140239976Y-82035047D01*
X140859023Y-82035047D01*
%TO.C,R37*%
X90307142Y-78302380D02*
X89973809Y-77826190D01*
X89735714Y-78302380D02*
X89735714Y-77302380D01*
X90116666Y-77302380D01*
X90211904Y-77350000D01*
X90259523Y-77397619D01*
X90307142Y-77492857D01*
X90307142Y-77635714D01*
X90259523Y-77730952D01*
X90211904Y-77778571D01*
X90116666Y-77826190D01*
X89735714Y-77826190D01*
X90640476Y-77302380D02*
X91259523Y-77302380D01*
X90926190Y-77683333D01*
X91069047Y-77683333D01*
X91164285Y-77730952D01*
X91211904Y-77778571D01*
X91259523Y-77873809D01*
X91259523Y-78111904D01*
X91211904Y-78207142D01*
X91164285Y-78254761D01*
X91069047Y-78302380D01*
X90783333Y-78302380D01*
X90688095Y-78254761D01*
X90640476Y-78207142D01*
X91592857Y-77302380D02*
X92259523Y-77302380D01*
X91830952Y-78302380D01*
%TO.C,R36*%
X93707142Y-78302380D02*
X93373809Y-77826190D01*
X93135714Y-78302380D02*
X93135714Y-77302380D01*
X93516666Y-77302380D01*
X93611904Y-77350000D01*
X93659523Y-77397619D01*
X93707142Y-77492857D01*
X93707142Y-77635714D01*
X93659523Y-77730952D01*
X93611904Y-77778571D01*
X93516666Y-77826190D01*
X93135714Y-77826190D01*
X94040476Y-77302380D02*
X94659523Y-77302380D01*
X94326190Y-77683333D01*
X94469047Y-77683333D01*
X94564285Y-77730952D01*
X94611904Y-77778571D01*
X94659523Y-77873809D01*
X94659523Y-78111904D01*
X94611904Y-78207142D01*
X94564285Y-78254761D01*
X94469047Y-78302380D01*
X94183333Y-78302380D01*
X94088095Y-78254761D01*
X94040476Y-78207142D01*
X95516666Y-77302380D02*
X95326190Y-77302380D01*
X95230952Y-77350000D01*
X95183333Y-77397619D01*
X95088095Y-77540476D01*
X95040476Y-77730952D01*
X95040476Y-78111904D01*
X95088095Y-78207142D01*
X95135714Y-78254761D01*
X95230952Y-78302380D01*
X95421428Y-78302380D01*
X95516666Y-78254761D01*
X95564285Y-78207142D01*
X95611904Y-78111904D01*
X95611904Y-77873809D01*
X95564285Y-77778571D01*
X95516666Y-77730952D01*
X95421428Y-77683333D01*
X95230952Y-77683333D01*
X95135714Y-77730952D01*
X95088095Y-77778571D01*
X95040476Y-77873809D01*
%TO.C,R29*%
X113561142Y-81997880D02*
X113227809Y-81521690D01*
X112989714Y-81997880D02*
X112989714Y-80997880D01*
X113370666Y-80997880D01*
X113465904Y-81045500D01*
X113513523Y-81093119D01*
X113561142Y-81188357D01*
X113561142Y-81331214D01*
X113513523Y-81426452D01*
X113465904Y-81474071D01*
X113370666Y-81521690D01*
X112989714Y-81521690D01*
X113942095Y-81093119D02*
X113989714Y-81045500D01*
X114084952Y-80997880D01*
X114323047Y-80997880D01*
X114418285Y-81045500D01*
X114465904Y-81093119D01*
X114513523Y-81188357D01*
X114513523Y-81283595D01*
X114465904Y-81426452D01*
X113894476Y-81997880D01*
X114513523Y-81997880D01*
X114989714Y-81997880D02*
X115180190Y-81997880D01*
X115275428Y-81950261D01*
X115323047Y-81902642D01*
X115418285Y-81759785D01*
X115465904Y-81569309D01*
X115465904Y-81188357D01*
X115418285Y-81093119D01*
X115370666Y-81045500D01*
X115275428Y-80997880D01*
X115084952Y-80997880D01*
X114989714Y-81045500D01*
X114942095Y-81093119D01*
X114894476Y-81188357D01*
X114894476Y-81426452D01*
X114942095Y-81521690D01*
X114989714Y-81569309D01*
X115084952Y-81616928D01*
X115275428Y-81616928D01*
X115370666Y-81569309D01*
X115418285Y-81521690D01*
X115465904Y-81426452D01*
%TO.C,Q15*%
X133228571Y-75747619D02*
X133133333Y-75700000D01*
X133038095Y-75604761D01*
X132895238Y-75461904D01*
X132800000Y-75414285D01*
X132704761Y-75414285D01*
X132752380Y-75652380D02*
X132657142Y-75604761D01*
X132561904Y-75509523D01*
X132514285Y-75319047D01*
X132514285Y-74985714D01*
X132561904Y-74795238D01*
X132657142Y-74700000D01*
X132752380Y-74652380D01*
X132942857Y-74652380D01*
X133038095Y-74700000D01*
X133133333Y-74795238D01*
X133180952Y-74985714D01*
X133180952Y-75319047D01*
X133133333Y-75509523D01*
X133038095Y-75604761D01*
X132942857Y-75652380D01*
X132752380Y-75652380D01*
X134133333Y-75652380D02*
X133561904Y-75652380D01*
X133847619Y-75652380D02*
X133847619Y-74652380D01*
X133752380Y-74795238D01*
X133657142Y-74890476D01*
X133561904Y-74938095D01*
X135038095Y-74652380D02*
X134561904Y-74652380D01*
X134514285Y-75128571D01*
X134561904Y-75080952D01*
X134657142Y-75033333D01*
X134895238Y-75033333D01*
X134990476Y-75080952D01*
X135038095Y-75128571D01*
X135085714Y-75223809D01*
X135085714Y-75461904D01*
X135038095Y-75557142D01*
X134990476Y-75604761D01*
X134895238Y-75652380D01*
X134657142Y-75652380D01*
X134561904Y-75604761D01*
X134514285Y-75557142D01*
%TO.C,D5*%
X98411904Y-85452380D02*
X98411904Y-84452380D01*
X98650000Y-84452380D01*
X98792857Y-84500000D01*
X98888095Y-84595238D01*
X98935714Y-84690476D01*
X98983333Y-84880952D01*
X98983333Y-85023809D01*
X98935714Y-85214285D01*
X98888095Y-85309523D01*
X98792857Y-85404761D01*
X98650000Y-85452380D01*
X98411904Y-85452380D01*
X99888095Y-84452380D02*
X99411904Y-84452380D01*
X99364285Y-84928571D01*
X99411904Y-84880952D01*
X99507142Y-84833333D01*
X99745238Y-84833333D01*
X99840476Y-84880952D01*
X99888095Y-84928571D01*
X99935714Y-85023809D01*
X99935714Y-85261904D01*
X99888095Y-85357142D01*
X99840476Y-85404761D01*
X99745238Y-85452380D01*
X99507142Y-85452380D01*
X99411904Y-85404761D01*
X99364285Y-85357142D01*
%TO.C,R8*%
X117435333Y-74437014D02*
X117102000Y-73960824D01*
X116863904Y-74437014D02*
X116863904Y-73437014D01*
X117244857Y-73437014D01*
X117340095Y-73484634D01*
X117387714Y-73532253D01*
X117435333Y-73627491D01*
X117435333Y-73770348D01*
X117387714Y-73865586D01*
X117340095Y-73913205D01*
X117244857Y-73960824D01*
X116863904Y-73960824D01*
X118006761Y-73865586D02*
X117911523Y-73817967D01*
X117863904Y-73770348D01*
X117816285Y-73675110D01*
X117816285Y-73627491D01*
X117863904Y-73532253D01*
X117911523Y-73484634D01*
X118006761Y-73437014D01*
X118197238Y-73437014D01*
X118292476Y-73484634D01*
X118340095Y-73532253D01*
X118387714Y-73627491D01*
X118387714Y-73675110D01*
X118340095Y-73770348D01*
X118292476Y-73817967D01*
X118197238Y-73865586D01*
X118006761Y-73865586D01*
X117911523Y-73913205D01*
X117863904Y-73960824D01*
X117816285Y-74056062D01*
X117816285Y-74246538D01*
X117863904Y-74341776D01*
X117911523Y-74389395D01*
X118006761Y-74437014D01*
X118197238Y-74437014D01*
X118292476Y-74389395D01*
X118340095Y-74341776D01*
X118387714Y-74246538D01*
X118387714Y-74056062D01*
X118340095Y-73960824D01*
X118292476Y-73913205D01*
X118197238Y-73865586D01*
%TO.C,J3*%
X158733333Y-115033333D02*
X158733333Y-116033333D01*
X158666666Y-116233333D01*
X158533333Y-116366666D01*
X158333333Y-116433333D01*
X158200000Y-116433333D01*
X159266666Y-115033333D02*
X160133333Y-115033333D01*
X159666666Y-115566666D01*
X159866666Y-115566666D01*
X160000000Y-115633333D01*
X160066666Y-115700000D01*
X160133333Y-115833333D01*
X160133333Y-116166666D01*
X160066666Y-116300000D01*
X160000000Y-116366666D01*
X159866666Y-116433333D01*
X159466666Y-116433333D01*
X159333333Y-116366666D01*
X159266666Y-116300000D01*
%TO.C,Q16*%
X133228571Y-101747619D02*
X133133333Y-101700000D01*
X133038095Y-101604761D01*
X132895238Y-101461904D01*
X132800000Y-101414285D01*
X132704761Y-101414285D01*
X132752380Y-101652380D02*
X132657142Y-101604761D01*
X132561904Y-101509523D01*
X132514285Y-101319047D01*
X132514285Y-100985714D01*
X132561904Y-100795238D01*
X132657142Y-100700000D01*
X132752380Y-100652380D01*
X132942857Y-100652380D01*
X133038095Y-100700000D01*
X133133333Y-100795238D01*
X133180952Y-100985714D01*
X133180952Y-101319047D01*
X133133333Y-101509523D01*
X133038095Y-101604761D01*
X132942857Y-101652380D01*
X132752380Y-101652380D01*
X134133333Y-101652380D02*
X133561904Y-101652380D01*
X133847619Y-101652380D02*
X133847619Y-100652380D01*
X133752380Y-100795238D01*
X133657142Y-100890476D01*
X133561904Y-100938095D01*
X134990476Y-100652380D02*
X134800000Y-100652380D01*
X134704761Y-100700000D01*
X134657142Y-100747619D01*
X134561904Y-100890476D01*
X134514285Y-101080952D01*
X134514285Y-101461904D01*
X134561904Y-101557142D01*
X134609523Y-101604761D01*
X134704761Y-101652380D01*
X134895238Y-101652380D01*
X134990476Y-101604761D01*
X135038095Y-101557142D01*
X135085714Y-101461904D01*
X135085714Y-101223809D01*
X135038095Y-101128571D01*
X134990476Y-101080952D01*
X134895238Y-101033333D01*
X134704761Y-101033333D01*
X134609523Y-101080952D01*
X134561904Y-101128571D01*
X134514285Y-101223809D01*
%TO.C,Q3*%
X133104761Y-49547619D02*
X133009523Y-49500000D01*
X132914285Y-49404761D01*
X132771428Y-49261904D01*
X132676190Y-49214285D01*
X132580952Y-49214285D01*
X132628571Y-49452380D02*
X132533333Y-49404761D01*
X132438095Y-49309523D01*
X132390476Y-49119047D01*
X132390476Y-48785714D01*
X132438095Y-48595238D01*
X132533333Y-48500000D01*
X132628571Y-48452380D01*
X132819047Y-48452380D01*
X132914285Y-48500000D01*
X133009523Y-48595238D01*
X133057142Y-48785714D01*
X133057142Y-49119047D01*
X133009523Y-49309523D01*
X132914285Y-49404761D01*
X132819047Y-49452380D01*
X132628571Y-49452380D01*
X133390476Y-48452380D02*
X134009523Y-48452380D01*
X133676190Y-48833333D01*
X133819047Y-48833333D01*
X133914285Y-48880952D01*
X133961904Y-48928571D01*
X134009523Y-49023809D01*
X134009523Y-49261904D01*
X133961904Y-49357142D01*
X133914285Y-49404761D01*
X133819047Y-49452380D01*
X133533333Y-49452380D01*
X133438095Y-49404761D01*
X133390476Y-49357142D01*
%TO.C,Q9*%
X146104761Y-91147619D02*
X146009523Y-91100000D01*
X145914285Y-91004761D01*
X145771428Y-90861904D01*
X145676190Y-90814285D01*
X145580952Y-90814285D01*
X145628571Y-91052380D02*
X145533333Y-91004761D01*
X145438095Y-90909523D01*
X145390476Y-90719047D01*
X145390476Y-90385714D01*
X145438095Y-90195238D01*
X145533333Y-90100000D01*
X145628571Y-90052380D01*
X145819047Y-90052380D01*
X145914285Y-90100000D01*
X146009523Y-90195238D01*
X146057142Y-90385714D01*
X146057142Y-90719047D01*
X146009523Y-90909523D01*
X145914285Y-91004761D01*
X145819047Y-91052380D01*
X145628571Y-91052380D01*
X146533333Y-91052380D02*
X146723809Y-91052380D01*
X146819047Y-91004761D01*
X146866666Y-90957142D01*
X146961904Y-90814285D01*
X147009523Y-90623809D01*
X147009523Y-90242857D01*
X146961904Y-90147619D01*
X146914285Y-90100000D01*
X146819047Y-90052380D01*
X146628571Y-90052380D01*
X146533333Y-90100000D01*
X146485714Y-90147619D01*
X146438095Y-90242857D01*
X146438095Y-90480952D01*
X146485714Y-90576190D01*
X146533333Y-90623809D01*
X146628571Y-90671428D01*
X146819047Y-90671428D01*
X146914285Y-90623809D01*
X146961904Y-90576190D01*
X147009523Y-90480952D01*
%TO.C,Q13*%
X133228571Y-93347619D02*
X133133333Y-93300000D01*
X133038095Y-93204761D01*
X132895238Y-93061904D01*
X132800000Y-93014285D01*
X132704761Y-93014285D01*
X132752380Y-93252380D02*
X132657142Y-93204761D01*
X132561904Y-93109523D01*
X132514285Y-92919047D01*
X132514285Y-92585714D01*
X132561904Y-92395238D01*
X132657142Y-92300000D01*
X132752380Y-92252380D01*
X132942857Y-92252380D01*
X133038095Y-92300000D01*
X133133333Y-92395238D01*
X133180952Y-92585714D01*
X133180952Y-92919047D01*
X133133333Y-93109523D01*
X133038095Y-93204761D01*
X132942857Y-93252380D01*
X132752380Y-93252380D01*
X134133333Y-93252380D02*
X133561904Y-93252380D01*
X133847619Y-93252380D02*
X133847619Y-92252380D01*
X133752380Y-92395238D01*
X133657142Y-92490476D01*
X133561904Y-92538095D01*
X134466666Y-92252380D02*
X135085714Y-92252380D01*
X134752380Y-92633333D01*
X134895238Y-92633333D01*
X134990476Y-92680952D01*
X135038095Y-92728571D01*
X135085714Y-92823809D01*
X135085714Y-93061904D01*
X135038095Y-93157142D01*
X134990476Y-93204761D01*
X134895238Y-93252380D01*
X134609523Y-93252380D01*
X134514285Y-93204761D01*
X134466666Y-93157142D01*
%TO.C,R20*%
X142462642Y-93252380D02*
X142129309Y-92776190D01*
X141891214Y-93252380D02*
X141891214Y-92252380D01*
X142272166Y-92252380D01*
X142367404Y-92300000D01*
X142415023Y-92347619D01*
X142462642Y-92442857D01*
X142462642Y-92585714D01*
X142415023Y-92680952D01*
X142367404Y-92728571D01*
X142272166Y-92776190D01*
X141891214Y-92776190D01*
X142843595Y-92347619D02*
X142891214Y-92300000D01*
X142986452Y-92252380D01*
X143224547Y-92252380D01*
X143319785Y-92300000D01*
X143367404Y-92347619D01*
X143415023Y-92442857D01*
X143415023Y-92538095D01*
X143367404Y-92680952D01*
X142795976Y-93252380D01*
X143415023Y-93252380D01*
X144034071Y-92252380D02*
X144129309Y-92252380D01*
X144224547Y-92300000D01*
X144272166Y-92347619D01*
X144319785Y-92442857D01*
X144367404Y-92633333D01*
X144367404Y-92871428D01*
X144319785Y-93061904D01*
X144272166Y-93157142D01*
X144224547Y-93204761D01*
X144129309Y-93252380D01*
X144034071Y-93252380D01*
X143938833Y-93204761D01*
X143891214Y-93157142D01*
X143843595Y-93061904D01*
X143795976Y-92871428D01*
X143795976Y-92633333D01*
X143843595Y-92442857D01*
X143891214Y-92347619D01*
X143938833Y-92300000D01*
X144034071Y-92252380D01*
%TO.C,R10*%
X138906642Y-65985380D02*
X138573309Y-65509190D01*
X138335214Y-65985380D02*
X138335214Y-64985380D01*
X138716166Y-64985380D01*
X138811404Y-65033000D01*
X138859023Y-65080619D01*
X138906642Y-65175857D01*
X138906642Y-65318714D01*
X138859023Y-65413952D01*
X138811404Y-65461571D01*
X138716166Y-65509190D01*
X138335214Y-65509190D01*
X139859023Y-65985380D02*
X139287595Y-65985380D01*
X139573309Y-65985380D02*
X139573309Y-64985380D01*
X139478071Y-65128238D01*
X139382833Y-65223476D01*
X139287595Y-65271095D01*
X140478071Y-64985380D02*
X140573309Y-64985380D01*
X140668547Y-65033000D01*
X140716166Y-65080619D01*
X140763785Y-65175857D01*
X140811404Y-65366333D01*
X140811404Y-65604428D01*
X140763785Y-65794904D01*
X140716166Y-65890142D01*
X140668547Y-65937761D01*
X140573309Y-65985380D01*
X140478071Y-65985380D01*
X140382833Y-65937761D01*
X140335214Y-65890142D01*
X140287595Y-65794904D01*
X140239976Y-65604428D01*
X140239976Y-65366333D01*
X140287595Y-65175857D01*
X140335214Y-65080619D01*
X140382833Y-65033000D01*
X140478071Y-64985380D01*
%TO.C,R16*%
X142157142Y-82252380D02*
X141823809Y-81776190D01*
X141585714Y-82252380D02*
X141585714Y-81252380D01*
X141966666Y-81252380D01*
X142061904Y-81300000D01*
X142109523Y-81347619D01*
X142157142Y-81442857D01*
X142157142Y-81585714D01*
X142109523Y-81680952D01*
X142061904Y-81728571D01*
X141966666Y-81776190D01*
X141585714Y-81776190D01*
X143109523Y-82252380D02*
X142538095Y-82252380D01*
X142823809Y-82252380D02*
X142823809Y-81252380D01*
X142728571Y-81395238D01*
X142633333Y-81490476D01*
X142538095Y-81538095D01*
X143966666Y-81252380D02*
X143776190Y-81252380D01*
X143680952Y-81300000D01*
X143633333Y-81347619D01*
X143538095Y-81490476D01*
X143490476Y-81680952D01*
X143490476Y-82061904D01*
X143538095Y-82157142D01*
X143585714Y-82204761D01*
X143680952Y-82252380D01*
X143871428Y-82252380D01*
X143966666Y-82204761D01*
X144014285Y-82157142D01*
X144061904Y-82061904D01*
X144061904Y-81823809D01*
X144014285Y-81728571D01*
X143966666Y-81680952D01*
X143871428Y-81633333D01*
X143680952Y-81633333D01*
X143585714Y-81680952D01*
X143538095Y-81728571D01*
X143490476Y-81823809D01*
%TO.C,R33*%
X108402380Y-58197357D02*
X107926190Y-58530690D01*
X108402380Y-58768785D02*
X107402380Y-58768785D01*
X107402380Y-58387833D01*
X107450000Y-58292595D01*
X107497619Y-58244976D01*
X107592857Y-58197357D01*
X107735714Y-58197357D01*
X107830952Y-58244976D01*
X107878571Y-58292595D01*
X107926190Y-58387833D01*
X107926190Y-58768785D01*
X107402380Y-57864023D02*
X107402380Y-57244976D01*
X107783333Y-57578309D01*
X107783333Y-57435452D01*
X107830952Y-57340214D01*
X107878571Y-57292595D01*
X107973809Y-57244976D01*
X108211904Y-57244976D01*
X108307142Y-57292595D01*
X108354761Y-57340214D01*
X108402380Y-57435452D01*
X108402380Y-57721166D01*
X108354761Y-57816404D01*
X108307142Y-57864023D01*
X107402380Y-56911642D02*
X107402380Y-56292595D01*
X107783333Y-56625928D01*
X107783333Y-56483071D01*
X107830952Y-56387833D01*
X107878571Y-56340214D01*
X107973809Y-56292595D01*
X108211904Y-56292595D01*
X108307142Y-56340214D01*
X108354761Y-56387833D01*
X108402380Y-56483071D01*
X108402380Y-56768785D01*
X108354761Y-56864023D01*
X108307142Y-56911642D01*
%TO.C,Q12*%
X160047619Y-85271428D02*
X160000000Y-85366666D01*
X159904761Y-85461904D01*
X159761904Y-85604761D01*
X159714285Y-85700000D01*
X159714285Y-85795238D01*
X159952380Y-85747619D02*
X159904761Y-85842857D01*
X159809523Y-85938095D01*
X159619047Y-85985714D01*
X159285714Y-85985714D01*
X159095238Y-85938095D01*
X159000000Y-85842857D01*
X158952380Y-85747619D01*
X158952380Y-85557142D01*
X159000000Y-85461904D01*
X159095238Y-85366666D01*
X159285714Y-85319047D01*
X159619047Y-85319047D01*
X159809523Y-85366666D01*
X159904761Y-85461904D01*
X159952380Y-85557142D01*
X159952380Y-85747619D01*
X159952380Y-84366666D02*
X159952380Y-84938095D01*
X159952380Y-84652380D02*
X158952380Y-84652380D01*
X159095238Y-84747619D01*
X159190476Y-84842857D01*
X159238095Y-84938095D01*
X159047619Y-83985714D02*
X159000000Y-83938095D01*
X158952380Y-83842857D01*
X158952380Y-83604761D01*
X159000000Y-83509523D01*
X159047619Y-83461904D01*
X159142857Y-83414285D01*
X159238095Y-83414285D01*
X159380952Y-83461904D01*
X159952380Y-84033333D01*
X159952380Y-83414285D01*
%TO.C,R28*%
X117357142Y-88952416D02*
X117023809Y-88476226D01*
X116785714Y-88952416D02*
X116785714Y-87952416D01*
X117166666Y-87952416D01*
X117261904Y-88000036D01*
X117309523Y-88047655D01*
X117357142Y-88142893D01*
X117357142Y-88285750D01*
X117309523Y-88380988D01*
X117261904Y-88428607D01*
X117166666Y-88476226D01*
X116785714Y-88476226D01*
X117738095Y-88047655D02*
X117785714Y-88000036D01*
X117880952Y-87952416D01*
X118119047Y-87952416D01*
X118214285Y-88000036D01*
X118261904Y-88047655D01*
X118309523Y-88142893D01*
X118309523Y-88238131D01*
X118261904Y-88380988D01*
X117690476Y-88952416D01*
X118309523Y-88952416D01*
X118880952Y-88380988D02*
X118785714Y-88333369D01*
X118738095Y-88285750D01*
X118690476Y-88190512D01*
X118690476Y-88142893D01*
X118738095Y-88047655D01*
X118785714Y-88000036D01*
X118880952Y-87952416D01*
X119071428Y-87952416D01*
X119166666Y-88000036D01*
X119214285Y-88047655D01*
X119261904Y-88142893D01*
X119261904Y-88190512D01*
X119214285Y-88285750D01*
X119166666Y-88333369D01*
X119071428Y-88380988D01*
X118880952Y-88380988D01*
X118785714Y-88428607D01*
X118738095Y-88476226D01*
X118690476Y-88571464D01*
X118690476Y-88761940D01*
X118738095Y-88857178D01*
X118785714Y-88904797D01*
X118880952Y-88952416D01*
X119071428Y-88952416D01*
X119166666Y-88904797D01*
X119214285Y-88857178D01*
X119261904Y-88761940D01*
X119261904Y-88571464D01*
X119214285Y-88476226D01*
X119166666Y-88428607D01*
X119071428Y-88380988D01*
%TO.C,Q6*%
X159504761Y-60547619D02*
X159409523Y-60500000D01*
X159314285Y-60404761D01*
X159171428Y-60261904D01*
X159076190Y-60214285D01*
X158980952Y-60214285D01*
X159028571Y-60452380D02*
X158933333Y-60404761D01*
X158838095Y-60309523D01*
X158790476Y-60119047D01*
X158790476Y-59785714D01*
X158838095Y-59595238D01*
X158933333Y-59500000D01*
X159028571Y-59452380D01*
X159219047Y-59452380D01*
X159314285Y-59500000D01*
X159409523Y-59595238D01*
X159457142Y-59785714D01*
X159457142Y-60119047D01*
X159409523Y-60309523D01*
X159314285Y-60404761D01*
X159219047Y-60452380D01*
X159028571Y-60452380D01*
X160314285Y-59452380D02*
X160123809Y-59452380D01*
X160028571Y-59500000D01*
X159980952Y-59547619D01*
X159885714Y-59690476D01*
X159838095Y-59880952D01*
X159838095Y-60261904D01*
X159885714Y-60357142D01*
X159933333Y-60404761D01*
X160028571Y-60452380D01*
X160219047Y-60452380D01*
X160314285Y-60404761D01*
X160361904Y-60357142D01*
X160409523Y-60261904D01*
X160409523Y-60023809D01*
X160361904Y-59928571D01*
X160314285Y-59880952D01*
X160219047Y-59833333D01*
X160028571Y-59833333D01*
X159933333Y-59880952D01*
X159885714Y-59928571D01*
X159838095Y-60023809D01*
%TO.C,Q4*%
X133304761Y-67547619D02*
X133209523Y-67500000D01*
X133114285Y-67404761D01*
X132971428Y-67261904D01*
X132876190Y-67214285D01*
X132780952Y-67214285D01*
X132828571Y-67452380D02*
X132733333Y-67404761D01*
X132638095Y-67309523D01*
X132590476Y-67119047D01*
X132590476Y-66785714D01*
X132638095Y-66595238D01*
X132733333Y-66500000D01*
X132828571Y-66452380D01*
X133019047Y-66452380D01*
X133114285Y-66500000D01*
X133209523Y-66595238D01*
X133257142Y-66785714D01*
X133257142Y-67119047D01*
X133209523Y-67309523D01*
X133114285Y-67404761D01*
X133019047Y-67452380D01*
X132828571Y-67452380D01*
X134114285Y-66785714D02*
X134114285Y-67452380D01*
X133876190Y-66404761D02*
X133638095Y-67119047D01*
X134257142Y-67119047D01*
%TO.C,R18*%
X138906642Y-93290380D02*
X138573309Y-92814190D01*
X138335214Y-93290380D02*
X138335214Y-92290380D01*
X138716166Y-92290380D01*
X138811404Y-92338000D01*
X138859023Y-92385619D01*
X138906642Y-92480857D01*
X138906642Y-92623714D01*
X138859023Y-92718952D01*
X138811404Y-92766571D01*
X138716166Y-92814190D01*
X138335214Y-92814190D01*
X139859023Y-93290380D02*
X139287595Y-93290380D01*
X139573309Y-93290380D02*
X139573309Y-92290380D01*
X139478071Y-92433238D01*
X139382833Y-92528476D01*
X139287595Y-92576095D01*
X140430452Y-92718952D02*
X140335214Y-92671333D01*
X140287595Y-92623714D01*
X140239976Y-92528476D01*
X140239976Y-92480857D01*
X140287595Y-92385619D01*
X140335214Y-92338000D01*
X140430452Y-92290380D01*
X140620928Y-92290380D01*
X140716166Y-92338000D01*
X140763785Y-92385619D01*
X140811404Y-92480857D01*
X140811404Y-92528476D01*
X140763785Y-92623714D01*
X140716166Y-92671333D01*
X140620928Y-92718952D01*
X140430452Y-92718952D01*
X140335214Y-92766571D01*
X140287595Y-92814190D01*
X140239976Y-92909428D01*
X140239976Y-93099904D01*
X140287595Y-93195142D01*
X140335214Y-93242761D01*
X140430452Y-93290380D01*
X140620928Y-93290380D01*
X140716166Y-93242761D01*
X140763785Y-93195142D01*
X140811404Y-93099904D01*
X140811404Y-92909428D01*
X140763785Y-92814190D01*
X140716166Y-92766571D01*
X140620928Y-92718952D01*
%TO.C,D4*%
X109252380Y-99284095D02*
X108252380Y-99284095D01*
X108252380Y-99046000D01*
X108300000Y-98903142D01*
X108395238Y-98807904D01*
X108490476Y-98760285D01*
X108680952Y-98712666D01*
X108823809Y-98712666D01*
X109014285Y-98760285D01*
X109109523Y-98807904D01*
X109204761Y-98903142D01*
X109252380Y-99046000D01*
X109252380Y-99284095D01*
X108585714Y-97855523D02*
X109252380Y-97855523D01*
X108204761Y-98093619D02*
X108919047Y-98331714D01*
X108919047Y-97712666D01*
%TO.C,Q5*%
X145904761Y-49947619D02*
X145809523Y-49900000D01*
X145714285Y-49804761D01*
X145571428Y-49661904D01*
X145476190Y-49614285D01*
X145380952Y-49614285D01*
X145428571Y-49852380D02*
X145333333Y-49804761D01*
X145238095Y-49709523D01*
X145190476Y-49519047D01*
X145190476Y-49185714D01*
X145238095Y-48995238D01*
X145333333Y-48900000D01*
X145428571Y-48852380D01*
X145619047Y-48852380D01*
X145714285Y-48900000D01*
X145809523Y-48995238D01*
X145857142Y-49185714D01*
X145857142Y-49519047D01*
X145809523Y-49709523D01*
X145714285Y-49804761D01*
X145619047Y-49852380D01*
X145428571Y-49852380D01*
X146761904Y-48852380D02*
X146285714Y-48852380D01*
X146238095Y-49328571D01*
X146285714Y-49280952D01*
X146380952Y-49233333D01*
X146619047Y-49233333D01*
X146714285Y-49280952D01*
X146761904Y-49328571D01*
X146809523Y-49423809D01*
X146809523Y-49661904D01*
X146761904Y-49757142D01*
X146714285Y-49804761D01*
X146619047Y-49852380D01*
X146380952Y-49852380D01*
X146285714Y-49804761D01*
X146238095Y-49757142D01*
%TO.C,R6*%
X114037333Y-74663680D02*
X113704000Y-74187490D01*
X113465904Y-74663680D02*
X113465904Y-73663680D01*
X113846857Y-73663680D01*
X113942095Y-73711300D01*
X113989714Y-73758919D01*
X114037333Y-73854157D01*
X114037333Y-73997014D01*
X113989714Y-74092252D01*
X113942095Y-74139871D01*
X113846857Y-74187490D01*
X113465904Y-74187490D01*
X114894476Y-73663680D02*
X114704000Y-73663680D01*
X114608761Y-73711300D01*
X114561142Y-73758919D01*
X114465904Y-73901776D01*
X114418285Y-74092252D01*
X114418285Y-74473204D01*
X114465904Y-74568442D01*
X114513523Y-74616061D01*
X114608761Y-74663680D01*
X114799238Y-74663680D01*
X114894476Y-74616061D01*
X114942095Y-74568442D01*
X114989714Y-74473204D01*
X114989714Y-74235109D01*
X114942095Y-74139871D01*
X114894476Y-74092252D01*
X114799238Y-74044633D01*
X114608761Y-74044633D01*
X114513523Y-74092252D01*
X114465904Y-74139871D01*
X114418285Y-74235109D01*
%TO.C,D2*%
X105804404Y-51452380D02*
X105804404Y-50452380D01*
X106042500Y-50452380D01*
X106185357Y-50500000D01*
X106280595Y-50595238D01*
X106328214Y-50690476D01*
X106375833Y-50880952D01*
X106375833Y-51023809D01*
X106328214Y-51214285D01*
X106280595Y-51309523D01*
X106185357Y-51404761D01*
X106042500Y-51452380D01*
X105804404Y-51452380D01*
X106756785Y-50547619D02*
X106804404Y-50500000D01*
X106899642Y-50452380D01*
X107137738Y-50452380D01*
X107232976Y-50500000D01*
X107280595Y-50547619D01*
X107328214Y-50642857D01*
X107328214Y-50738095D01*
X107280595Y-50880952D01*
X106709166Y-51452380D01*
X107328214Y-51452380D01*
%TO.C,R31*%
X117543706Y-81986381D02*
X117210373Y-81510191D01*
X116972278Y-81986381D02*
X116972278Y-80986381D01*
X117353230Y-80986381D01*
X117448468Y-81034001D01*
X117496087Y-81081620D01*
X117543706Y-81176858D01*
X117543706Y-81319715D01*
X117496087Y-81414953D01*
X117448468Y-81462572D01*
X117353230Y-81510191D01*
X116972278Y-81510191D01*
X117877040Y-80986381D02*
X118496087Y-80986381D01*
X118162754Y-81367334D01*
X118305611Y-81367334D01*
X118400849Y-81414953D01*
X118448468Y-81462572D01*
X118496087Y-81557810D01*
X118496087Y-81795905D01*
X118448468Y-81891143D01*
X118400849Y-81938762D01*
X118305611Y-81986381D01*
X118019897Y-81986381D01*
X117924659Y-81938762D01*
X117877040Y-81891143D01*
X119448468Y-81986381D02*
X118877040Y-81986381D01*
X119162754Y-81986381D02*
X119162754Y-80986381D01*
X119067516Y-81129239D01*
X118972278Y-81224477D01*
X118877040Y-81272096D01*
%TO.C,Q10*%
X159428571Y-95747619D02*
X159333333Y-95700000D01*
X159238095Y-95604761D01*
X159095238Y-95461904D01*
X159000000Y-95414285D01*
X158904761Y-95414285D01*
X158952380Y-95652380D02*
X158857142Y-95604761D01*
X158761904Y-95509523D01*
X158714285Y-95319047D01*
X158714285Y-94985714D01*
X158761904Y-94795238D01*
X158857142Y-94700000D01*
X158952380Y-94652380D01*
X159142857Y-94652380D01*
X159238095Y-94700000D01*
X159333333Y-94795238D01*
X159380952Y-94985714D01*
X159380952Y-95319047D01*
X159333333Y-95509523D01*
X159238095Y-95604761D01*
X159142857Y-95652380D01*
X158952380Y-95652380D01*
X160333333Y-95652380D02*
X159761904Y-95652380D01*
X160047619Y-95652380D02*
X160047619Y-94652380D01*
X159952380Y-94795238D01*
X159857142Y-94890476D01*
X159761904Y-94938095D01*
X160952380Y-94652380D02*
X161047619Y-94652380D01*
X161142857Y-94700000D01*
X161190476Y-94747619D01*
X161238095Y-94842857D01*
X161285714Y-95033333D01*
X161285714Y-95271428D01*
X161238095Y-95461904D01*
X161190476Y-95557142D01*
X161142857Y-95604761D01*
X161047619Y-95652380D01*
X160952380Y-95652380D01*
X160857142Y-95604761D01*
X160809523Y-95557142D01*
X160761904Y-95461904D01*
X160714285Y-95271428D01*
X160714285Y-95033333D01*
X160761904Y-94842857D01*
X160809523Y-94747619D01*
X160857142Y-94700000D01*
X160952380Y-94652380D01*
%TO.C,R15*%
X142357142Y-71452380D02*
X142023809Y-70976190D01*
X141785714Y-71452380D02*
X141785714Y-70452380D01*
X142166666Y-70452380D01*
X142261904Y-70500000D01*
X142309523Y-70547619D01*
X142357142Y-70642857D01*
X142357142Y-70785714D01*
X142309523Y-70880952D01*
X142261904Y-70928571D01*
X142166666Y-70976190D01*
X141785714Y-70976190D01*
X143309523Y-71452380D02*
X142738095Y-71452380D01*
X143023809Y-71452380D02*
X143023809Y-70452380D01*
X142928571Y-70595238D01*
X142833333Y-70690476D01*
X142738095Y-70738095D01*
X144214285Y-70452380D02*
X143738095Y-70452380D01*
X143690476Y-70928571D01*
X143738095Y-70880952D01*
X143833333Y-70833333D01*
X144071428Y-70833333D01*
X144166666Y-70880952D01*
X144214285Y-70928571D01*
X144261904Y-71023809D01*
X144261904Y-71261904D01*
X144214285Y-71357142D01*
X144166666Y-71404761D01*
X144071428Y-71452380D01*
X143833333Y-71452380D01*
X143738095Y-71404761D01*
X143690476Y-71357142D01*
%TO.C,R4*%
X117272269Y-67508347D02*
X116938936Y-67032157D01*
X116700840Y-67508347D02*
X116700840Y-66508347D01*
X117081793Y-66508347D01*
X117177031Y-66555967D01*
X117224650Y-66603586D01*
X117272269Y-66698824D01*
X117272269Y-66841681D01*
X117224650Y-66936919D01*
X117177031Y-66984538D01*
X117081793Y-67032157D01*
X116700840Y-67032157D01*
X118129412Y-66841681D02*
X118129412Y-67508347D01*
X117891316Y-66460728D02*
X117653221Y-67175014D01*
X118272269Y-67175014D01*
%TO.C,D1*%
X98261904Y-51452380D02*
X98261904Y-50452380D01*
X98500000Y-50452380D01*
X98642857Y-50500000D01*
X98738095Y-50595238D01*
X98785714Y-50690476D01*
X98833333Y-50880952D01*
X98833333Y-51023809D01*
X98785714Y-51214285D01*
X98738095Y-51309523D01*
X98642857Y-51404761D01*
X98500000Y-51452380D01*
X98261904Y-51452380D01*
X99785714Y-51452380D02*
X99214285Y-51452380D01*
X99500000Y-51452380D02*
X99500000Y-50452380D01*
X99404761Y-50595238D01*
X99309523Y-50690476D01*
X99214285Y-50738095D01*
%TO.C,U2*%
X101413095Y-75477380D02*
X101413095Y-76286904D01*
X101460714Y-76382142D01*
X101508333Y-76429761D01*
X101603571Y-76477380D01*
X101794047Y-76477380D01*
X101889285Y-76429761D01*
X101936904Y-76382142D01*
X101984523Y-76286904D01*
X101984523Y-75477380D01*
X102413095Y-75572619D02*
X102460714Y-75525000D01*
X102555952Y-75477380D01*
X102794047Y-75477380D01*
X102889285Y-75525000D01*
X102936904Y-75572619D01*
X102984523Y-75667857D01*
X102984523Y-75763095D01*
X102936904Y-75905952D01*
X102365476Y-76477380D01*
X102984523Y-76477380D01*
%TO.C,R23*%
X142462642Y-98852380D02*
X142129309Y-98376190D01*
X141891214Y-98852380D02*
X141891214Y-97852380D01*
X142272166Y-97852380D01*
X142367404Y-97900000D01*
X142415023Y-97947619D01*
X142462642Y-98042857D01*
X142462642Y-98185714D01*
X142415023Y-98280952D01*
X142367404Y-98328571D01*
X142272166Y-98376190D01*
X141891214Y-98376190D01*
X142843595Y-97947619D02*
X142891214Y-97900000D01*
X142986452Y-97852380D01*
X143224547Y-97852380D01*
X143319785Y-97900000D01*
X143367404Y-97947619D01*
X143415023Y-98042857D01*
X143415023Y-98138095D01*
X143367404Y-98280952D01*
X142795976Y-98852380D01*
X143415023Y-98852380D01*
X143748357Y-97852380D02*
X144367404Y-97852380D01*
X144034071Y-98233333D01*
X144176928Y-98233333D01*
X144272166Y-98280952D01*
X144319785Y-98328571D01*
X144367404Y-98423809D01*
X144367404Y-98661904D01*
X144319785Y-98757142D01*
X144272166Y-98804761D01*
X144176928Y-98852380D01*
X143891214Y-98852380D01*
X143795976Y-98804761D01*
X143748357Y-98757142D01*
%TO.C,C3*%
X91257142Y-81604166D02*
X91304761Y-81651785D01*
X91352380Y-81794642D01*
X91352380Y-81889880D01*
X91304761Y-82032738D01*
X91209523Y-82127976D01*
X91114285Y-82175595D01*
X90923809Y-82223214D01*
X90780952Y-82223214D01*
X90590476Y-82175595D01*
X90495238Y-82127976D01*
X90400000Y-82032738D01*
X90352380Y-81889880D01*
X90352380Y-81794642D01*
X90400000Y-81651785D01*
X90447619Y-81604166D01*
X90352380Y-81270833D02*
X90352380Y-80651785D01*
X90733333Y-80985119D01*
X90733333Y-80842261D01*
X90780952Y-80747023D01*
X90828571Y-80699404D01*
X90923809Y-80651785D01*
X91161904Y-80651785D01*
X91257142Y-80699404D01*
X91304761Y-80747023D01*
X91352380Y-80842261D01*
X91352380Y-81127976D01*
X91304761Y-81223214D01*
X91257142Y-81270833D01*
%TO.C,Q8*%
X146104761Y-83747619D02*
X146009523Y-83700000D01*
X145914285Y-83604761D01*
X145771428Y-83461904D01*
X145676190Y-83414285D01*
X145580952Y-83414285D01*
X145628571Y-83652380D02*
X145533333Y-83604761D01*
X145438095Y-83509523D01*
X145390476Y-83319047D01*
X145390476Y-82985714D01*
X145438095Y-82795238D01*
X145533333Y-82700000D01*
X145628571Y-82652380D01*
X145819047Y-82652380D01*
X145914285Y-82700000D01*
X146009523Y-82795238D01*
X146057142Y-82985714D01*
X146057142Y-83319047D01*
X146009523Y-83509523D01*
X145914285Y-83604761D01*
X145819047Y-83652380D01*
X145628571Y-83652380D01*
X146628571Y-83080952D02*
X146533333Y-83033333D01*
X146485714Y-82985714D01*
X146438095Y-82890476D01*
X146438095Y-82842857D01*
X146485714Y-82747619D01*
X146533333Y-82700000D01*
X146628571Y-82652380D01*
X146819047Y-82652380D01*
X146914285Y-82700000D01*
X146961904Y-82747619D01*
X147009523Y-82842857D01*
X147009523Y-82890476D01*
X146961904Y-82985714D01*
X146914285Y-83033333D01*
X146819047Y-83080952D01*
X146628571Y-83080952D01*
X146533333Y-83128571D01*
X146485714Y-83176190D01*
X146438095Y-83271428D01*
X146438095Y-83461904D01*
X146485714Y-83557142D01*
X146533333Y-83604761D01*
X146628571Y-83652380D01*
X146819047Y-83652380D01*
X146914285Y-83604761D01*
X146961904Y-83557142D01*
X147009523Y-83461904D01*
X147009523Y-83271428D01*
X146961904Y-83176190D01*
X146914285Y-83128571D01*
X146819047Y-83080952D01*
%TO.C,R2*%
X114037333Y-67696180D02*
X113704000Y-67219990D01*
X113465904Y-67696180D02*
X113465904Y-66696180D01*
X113846857Y-66696180D01*
X113942095Y-66743800D01*
X113989714Y-66791419D01*
X114037333Y-66886657D01*
X114037333Y-67029514D01*
X113989714Y-67124752D01*
X113942095Y-67172371D01*
X113846857Y-67219990D01*
X113465904Y-67219990D01*
X114418285Y-66791419D02*
X114465904Y-66743800D01*
X114561142Y-66696180D01*
X114799238Y-66696180D01*
X114894476Y-66743800D01*
X114942095Y-66791419D01*
X114989714Y-66886657D01*
X114989714Y-66981895D01*
X114942095Y-67124752D01*
X114370666Y-67696180D01*
X114989714Y-67696180D01*
%TO.C,R5*%
X114037333Y-60270380D02*
X113704000Y-59794190D01*
X113465904Y-60270380D02*
X113465904Y-59270380D01*
X113846857Y-59270380D01*
X113942095Y-59318000D01*
X113989714Y-59365619D01*
X114037333Y-59460857D01*
X114037333Y-59603714D01*
X113989714Y-59698952D01*
X113942095Y-59746571D01*
X113846857Y-59794190D01*
X113465904Y-59794190D01*
X114942095Y-59270380D02*
X114465904Y-59270380D01*
X114418285Y-59746571D01*
X114465904Y-59698952D01*
X114561142Y-59651333D01*
X114799238Y-59651333D01*
X114894476Y-59698952D01*
X114942095Y-59746571D01*
X114989714Y-59841809D01*
X114989714Y-60079904D01*
X114942095Y-60175142D01*
X114894476Y-60222761D01*
X114799238Y-60270380D01*
X114561142Y-60270380D01*
X114465904Y-60222761D01*
X114418285Y-60175142D01*
%TO.C,R19*%
X142357142Y-87852380D02*
X142023809Y-87376190D01*
X141785714Y-87852380D02*
X141785714Y-86852380D01*
X142166666Y-86852380D01*
X142261904Y-86900000D01*
X142309523Y-86947619D01*
X142357142Y-87042857D01*
X142357142Y-87185714D01*
X142309523Y-87280952D01*
X142261904Y-87328571D01*
X142166666Y-87376190D01*
X141785714Y-87376190D01*
X143309523Y-87852380D02*
X142738095Y-87852380D01*
X143023809Y-87852380D02*
X143023809Y-86852380D01*
X142928571Y-86995238D01*
X142833333Y-87090476D01*
X142738095Y-87138095D01*
X143785714Y-87852380D02*
X143976190Y-87852380D01*
X144071428Y-87804761D01*
X144119047Y-87757142D01*
X144214285Y-87614285D01*
X144261904Y-87423809D01*
X144261904Y-87042857D01*
X144214285Y-86947619D01*
X144166666Y-86900000D01*
X144071428Y-86852380D01*
X143880952Y-86852380D01*
X143785714Y-86900000D01*
X143738095Y-86947619D01*
X143690476Y-87042857D01*
X143690476Y-87280952D01*
X143738095Y-87376190D01*
X143785714Y-87423809D01*
X143880952Y-87471428D01*
X144071428Y-87471428D01*
X144166666Y-87423809D01*
X144214285Y-87376190D01*
X144261904Y-87280952D01*
%TO.C,SW1*%
X141466666Y-57004761D02*
X141609523Y-57052380D01*
X141847619Y-57052380D01*
X141942857Y-57004761D01*
X141990476Y-56957142D01*
X142038095Y-56861904D01*
X142038095Y-56766666D01*
X141990476Y-56671428D01*
X141942857Y-56623809D01*
X141847619Y-56576190D01*
X141657142Y-56528571D01*
X141561904Y-56480952D01*
X141514285Y-56433333D01*
X141466666Y-56338095D01*
X141466666Y-56242857D01*
X141514285Y-56147619D01*
X141561904Y-56100000D01*
X141657142Y-56052380D01*
X141895238Y-56052380D01*
X142038095Y-56100000D01*
X142371428Y-56052380D02*
X142609523Y-57052380D01*
X142800000Y-56338095D01*
X142990476Y-57052380D01*
X143228571Y-56052380D01*
X144133333Y-57052380D02*
X143561904Y-57052380D01*
X143847619Y-57052380D02*
X143847619Y-56052380D01*
X143752380Y-56195238D01*
X143657142Y-56290476D01*
X143561904Y-56338095D01*
%TO.C,F1*%
X103298666Y-59660571D02*
X102965333Y-59660571D01*
X102965333Y-60184380D02*
X102965333Y-59184380D01*
X103441523Y-59184380D01*
X104346285Y-60184380D02*
X103774857Y-60184380D01*
X104060571Y-60184380D02*
X104060571Y-59184380D01*
X103965333Y-59327238D01*
X103870095Y-59422476D01*
X103774857Y-59470095D01*
%TO.C,Q11*%
X159428571Y-102947619D02*
X159333333Y-102900000D01*
X159238095Y-102804761D01*
X159095238Y-102661904D01*
X159000000Y-102614285D01*
X158904761Y-102614285D01*
X158952380Y-102852380D02*
X158857142Y-102804761D01*
X158761904Y-102709523D01*
X158714285Y-102519047D01*
X158714285Y-102185714D01*
X158761904Y-101995238D01*
X158857142Y-101900000D01*
X158952380Y-101852380D01*
X159142857Y-101852380D01*
X159238095Y-101900000D01*
X159333333Y-101995238D01*
X159380952Y-102185714D01*
X159380952Y-102519047D01*
X159333333Y-102709523D01*
X159238095Y-102804761D01*
X159142857Y-102852380D01*
X158952380Y-102852380D01*
X160333333Y-102852380D02*
X159761904Y-102852380D01*
X160047619Y-102852380D02*
X160047619Y-101852380D01*
X159952380Y-101995238D01*
X159857142Y-102090476D01*
X159761904Y-102138095D01*
X161285714Y-102852380D02*
X160714285Y-102852380D01*
X161000000Y-102852380D02*
X161000000Y-101852380D01*
X160904761Y-101995238D01*
X160809523Y-102090476D01*
X160714285Y-102138095D01*
%TO.C,Q7*%
X159304761Y-65347619D02*
X159209523Y-65300000D01*
X159114285Y-65204761D01*
X158971428Y-65061904D01*
X158876190Y-65014285D01*
X158780952Y-65014285D01*
X158828571Y-65252380D02*
X158733333Y-65204761D01*
X158638095Y-65109523D01*
X158590476Y-64919047D01*
X158590476Y-64585714D01*
X158638095Y-64395238D01*
X158733333Y-64300000D01*
X158828571Y-64252380D01*
X159019047Y-64252380D01*
X159114285Y-64300000D01*
X159209523Y-64395238D01*
X159257142Y-64585714D01*
X159257142Y-64919047D01*
X159209523Y-65109523D01*
X159114285Y-65204761D01*
X159019047Y-65252380D01*
X158828571Y-65252380D01*
X159590476Y-64252380D02*
X160257142Y-64252380D01*
X159828571Y-65252380D01*
%TO.C,Q2*%
X133304761Y-59147619D02*
X133209523Y-59100000D01*
X133114285Y-59004761D01*
X132971428Y-58861904D01*
X132876190Y-58814285D01*
X132780952Y-58814285D01*
X132828571Y-59052380D02*
X132733333Y-59004761D01*
X132638095Y-58909523D01*
X132590476Y-58719047D01*
X132590476Y-58385714D01*
X132638095Y-58195238D01*
X132733333Y-58100000D01*
X132828571Y-58052380D01*
X133019047Y-58052380D01*
X133114285Y-58100000D01*
X133209523Y-58195238D01*
X133257142Y-58385714D01*
X133257142Y-58719047D01*
X133209523Y-58909523D01*
X133114285Y-59004761D01*
X133019047Y-59052380D01*
X132828571Y-59052380D01*
X133638095Y-58147619D02*
X133685714Y-58100000D01*
X133780952Y-58052380D01*
X134019047Y-58052380D01*
X134114285Y-58100000D01*
X134161904Y-58147619D01*
X134209523Y-58242857D01*
X134209523Y-58338095D01*
X134161904Y-58480952D01*
X133590476Y-59052380D01*
X134209523Y-59052380D01*
%TO.C,R34*%
X113002380Y-58197357D02*
X112526190Y-58530690D01*
X113002380Y-58768785D02*
X112002380Y-58768785D01*
X112002380Y-58387833D01*
X112050000Y-58292595D01*
X112097619Y-58244976D01*
X112192857Y-58197357D01*
X112335714Y-58197357D01*
X112430952Y-58244976D01*
X112478571Y-58292595D01*
X112526190Y-58387833D01*
X112526190Y-58768785D01*
X112002380Y-57864023D02*
X112002380Y-57244976D01*
X112383333Y-57578309D01*
X112383333Y-57435452D01*
X112430952Y-57340214D01*
X112478571Y-57292595D01*
X112573809Y-57244976D01*
X112811904Y-57244976D01*
X112907142Y-57292595D01*
X112954761Y-57340214D01*
X113002380Y-57435452D01*
X113002380Y-57721166D01*
X112954761Y-57816404D01*
X112907142Y-57864023D01*
X112335714Y-56387833D02*
X113002380Y-56387833D01*
X111954761Y-56625928D02*
X112669047Y-56864023D01*
X112669047Y-56244976D01*
%TO.C,R27*%
X116857142Y-96252350D02*
X116523809Y-95776160D01*
X116285714Y-96252350D02*
X116285714Y-95252350D01*
X116666666Y-95252350D01*
X116761904Y-95299970D01*
X116809523Y-95347589D01*
X116857142Y-95442827D01*
X116857142Y-95585684D01*
X116809523Y-95680922D01*
X116761904Y-95728541D01*
X116666666Y-95776160D01*
X116285714Y-95776160D01*
X117238095Y-95347589D02*
X117285714Y-95299970D01*
X117380952Y-95252350D01*
X117619047Y-95252350D01*
X117714285Y-95299970D01*
X117761904Y-95347589D01*
X117809523Y-95442827D01*
X117809523Y-95538065D01*
X117761904Y-95680922D01*
X117190476Y-96252350D01*
X117809523Y-96252350D01*
X118142857Y-95252350D02*
X118809523Y-95252350D01*
X118380952Y-96252350D01*
%TO.C,R32*%
X116957142Y-103452380D02*
X116623809Y-102976190D01*
X116385714Y-103452380D02*
X116385714Y-102452380D01*
X116766666Y-102452380D01*
X116861904Y-102500000D01*
X116909523Y-102547619D01*
X116957142Y-102642857D01*
X116957142Y-102785714D01*
X116909523Y-102880952D01*
X116861904Y-102928571D01*
X116766666Y-102976190D01*
X116385714Y-102976190D01*
X117290476Y-102452380D02*
X117909523Y-102452380D01*
X117576190Y-102833333D01*
X117719047Y-102833333D01*
X117814285Y-102880952D01*
X117861904Y-102928571D01*
X117909523Y-103023809D01*
X117909523Y-103261904D01*
X117861904Y-103357142D01*
X117814285Y-103404761D01*
X117719047Y-103452380D01*
X117433333Y-103452380D01*
X117338095Y-103404761D01*
X117290476Y-103357142D01*
X118290476Y-102547619D02*
X118338095Y-102500000D01*
X118433333Y-102452380D01*
X118671428Y-102452380D01*
X118766666Y-102500000D01*
X118814285Y-102547619D01*
X118861904Y-102642857D01*
X118861904Y-102738095D01*
X118814285Y-102880952D01*
X118242857Y-103452380D01*
X118861904Y-103452380D01*
%TO.C,R22*%
X138906642Y-104212380D02*
X138573309Y-103736190D01*
X138335214Y-104212380D02*
X138335214Y-103212380D01*
X138716166Y-103212380D01*
X138811404Y-103260000D01*
X138859023Y-103307619D01*
X138906642Y-103402857D01*
X138906642Y-103545714D01*
X138859023Y-103640952D01*
X138811404Y-103688571D01*
X138716166Y-103736190D01*
X138335214Y-103736190D01*
X139287595Y-103307619D02*
X139335214Y-103260000D01*
X139430452Y-103212380D01*
X139668547Y-103212380D01*
X139763785Y-103260000D01*
X139811404Y-103307619D01*
X139859023Y-103402857D01*
X139859023Y-103498095D01*
X139811404Y-103640952D01*
X139239976Y-104212380D01*
X139859023Y-104212380D01*
X140239976Y-103307619D02*
X140287595Y-103260000D01*
X140382833Y-103212380D01*
X140620928Y-103212380D01*
X140716166Y-103260000D01*
X140763785Y-103307619D01*
X140811404Y-103402857D01*
X140811404Y-103498095D01*
X140763785Y-103640952D01*
X140192357Y-104212380D01*
X140811404Y-104212380D01*
%TO.C,Q14*%
X133228571Y-84747619D02*
X133133333Y-84700000D01*
X133038095Y-84604761D01*
X132895238Y-84461904D01*
X132800000Y-84414285D01*
X132704761Y-84414285D01*
X132752380Y-84652380D02*
X132657142Y-84604761D01*
X132561904Y-84509523D01*
X132514285Y-84319047D01*
X132514285Y-83985714D01*
X132561904Y-83795238D01*
X132657142Y-83700000D01*
X132752380Y-83652380D01*
X132942857Y-83652380D01*
X133038095Y-83700000D01*
X133133333Y-83795238D01*
X133180952Y-83985714D01*
X133180952Y-84319047D01*
X133133333Y-84509523D01*
X133038095Y-84604761D01*
X132942857Y-84652380D01*
X132752380Y-84652380D01*
X134133333Y-84652380D02*
X133561904Y-84652380D01*
X133847619Y-84652380D02*
X133847619Y-83652380D01*
X133752380Y-83795238D01*
X133657142Y-83890476D01*
X133561904Y-83938095D01*
X134990476Y-83985714D02*
X134990476Y-84652380D01*
X134752380Y-83604761D02*
X134514285Y-84319047D01*
X135133333Y-84319047D01*
%TO.C,R24*%
X142462642Y-104052380D02*
X142129309Y-103576190D01*
X141891214Y-104052380D02*
X141891214Y-103052380D01*
X142272166Y-103052380D01*
X142367404Y-103100000D01*
X142415023Y-103147619D01*
X142462642Y-103242857D01*
X142462642Y-103385714D01*
X142415023Y-103480952D01*
X142367404Y-103528571D01*
X142272166Y-103576190D01*
X141891214Y-103576190D01*
X142843595Y-103147619D02*
X142891214Y-103100000D01*
X142986452Y-103052380D01*
X143224547Y-103052380D01*
X143319785Y-103100000D01*
X143367404Y-103147619D01*
X143415023Y-103242857D01*
X143415023Y-103338095D01*
X143367404Y-103480952D01*
X142795976Y-104052380D01*
X143415023Y-104052380D01*
X144272166Y-103385714D02*
X144272166Y-104052380D01*
X144034071Y-103004761D02*
X143795976Y-103719047D01*
X144415023Y-103719047D01*
%TO.C,R1*%
X139472333Y-76774380D02*
X139139000Y-76298190D01*
X138900904Y-76774380D02*
X138900904Y-75774380D01*
X139281857Y-75774380D01*
X139377095Y-75822000D01*
X139424714Y-75869619D01*
X139472333Y-75964857D01*
X139472333Y-76107714D01*
X139424714Y-76202952D01*
X139377095Y-76250571D01*
X139281857Y-76298190D01*
X138900904Y-76298190D01*
X140424714Y-76774380D02*
X139853285Y-76774380D01*
X140139000Y-76774380D02*
X140139000Y-75774380D01*
X140043761Y-75917238D01*
X139948523Y-76012476D01*
X139853285Y-76060095D01*
%TO.C,R3*%
X142833333Y-76852380D02*
X142500000Y-76376190D01*
X142261904Y-76852380D02*
X142261904Y-75852380D01*
X142642857Y-75852380D01*
X142738095Y-75900000D01*
X142785714Y-75947619D01*
X142833333Y-76042857D01*
X142833333Y-76185714D01*
X142785714Y-76280952D01*
X142738095Y-76328571D01*
X142642857Y-76376190D01*
X142261904Y-76376190D01*
X143166666Y-75852380D02*
X143785714Y-75852380D01*
X143452380Y-76233333D01*
X143595238Y-76233333D01*
X143690476Y-76280952D01*
X143738095Y-76328571D01*
X143785714Y-76423809D01*
X143785714Y-76661904D01*
X143738095Y-76757142D01*
X143690476Y-76804761D01*
X143595238Y-76852380D01*
X143309523Y-76852380D01*
X143214285Y-76804761D01*
X143166666Y-76757142D01*
%TO.C,R21*%
X138906642Y-98751380D02*
X138573309Y-98275190D01*
X138335214Y-98751380D02*
X138335214Y-97751380D01*
X138716166Y-97751380D01*
X138811404Y-97799000D01*
X138859023Y-97846619D01*
X138906642Y-97941857D01*
X138906642Y-98084714D01*
X138859023Y-98179952D01*
X138811404Y-98227571D01*
X138716166Y-98275190D01*
X138335214Y-98275190D01*
X139287595Y-97846619D02*
X139335214Y-97799000D01*
X139430452Y-97751380D01*
X139668547Y-97751380D01*
X139763785Y-97799000D01*
X139811404Y-97846619D01*
X139859023Y-97941857D01*
X139859023Y-98037095D01*
X139811404Y-98179952D01*
X139239976Y-98751380D01*
X139859023Y-98751380D01*
X140811404Y-98751380D02*
X140239976Y-98751380D01*
X140525690Y-98751380D02*
X140525690Y-97751380D01*
X140430452Y-97894238D01*
X140335214Y-97989476D01*
X140239976Y-98037095D01*
%TO.C,R9*%
X139279333Y-60524380D02*
X138946000Y-60048190D01*
X138707904Y-60524380D02*
X138707904Y-59524380D01*
X139088857Y-59524380D01*
X139184095Y-59572000D01*
X139231714Y-59619619D01*
X139279333Y-59714857D01*
X139279333Y-59857714D01*
X139231714Y-59952952D01*
X139184095Y-60000571D01*
X139088857Y-60048190D01*
X138707904Y-60048190D01*
X139755523Y-60524380D02*
X139946000Y-60524380D01*
X140041238Y-60476761D01*
X140088857Y-60429142D01*
X140184095Y-60286285D01*
X140231714Y-60095809D01*
X140231714Y-59714857D01*
X140184095Y-59619619D01*
X140136476Y-59572000D01*
X140041238Y-59524380D01*
X139850761Y-59524380D01*
X139755523Y-59572000D01*
X139707904Y-59619619D01*
X139660285Y-59714857D01*
X139660285Y-59952952D01*
X139707904Y-60048190D01*
X139755523Y-60095809D01*
X139850761Y-60143428D01*
X140041238Y-60143428D01*
X140136476Y-60095809D01*
X140184095Y-60048190D01*
X140231714Y-59952952D01*
D11*
%TO.C,R13*%
X139322436Y-73379000D02*
X139776564Y-73379000D01*
X139322436Y-71909000D02*
X139776564Y-71909000D01*
%TO.C,C2*%
X94098752Y-87910000D02*
X92676248Y-87910000D01*
X94098752Y-86090000D02*
X92676248Y-86090000D01*
%TO.C,R26*%
X113976936Y-90989700D02*
X114431064Y-90989700D01*
X113976936Y-89519700D02*
X114431064Y-89519700D01*
%TO.C,R12*%
X143332564Y-67918000D02*
X142878436Y-67918000D01*
X143332564Y-66448000D02*
X142878436Y-66448000D01*
%TO.C,R7*%
X117860064Y-60733000D02*
X117405936Y-60733000D01*
X117860064Y-62203000D02*
X117405936Y-62203000D01*
%TO.C,R30*%
X113976936Y-103913000D02*
X114431064Y-103913000D01*
X113976936Y-105383000D02*
X114431064Y-105383000D01*
%TO.C,R17*%
X139322436Y-88292000D02*
X139776564Y-88292000D01*
X139322436Y-89762000D02*
X139776564Y-89762000D01*
%TO.C,R35*%
X117865000Y-57758064D02*
X117865000Y-57303936D01*
X119335000Y-57758064D02*
X119335000Y-57303936D01*
%TO.C,R25*%
X113976936Y-98186300D02*
X114431064Y-98186300D01*
X113976936Y-96716300D02*
X114431064Y-96716300D01*
%TO.C,Q1*%
X151930000Y-78392900D02*
X150430000Y-78392900D01*
X151930000Y-71492900D02*
X150430000Y-71492900D01*
X150430000Y-78392900D02*
X150430000Y-78122900D01*
X150430000Y-71492900D02*
X150430000Y-71762900D01*
X150430000Y-71762900D02*
X147600000Y-71762900D01*
X150430000Y-78122900D02*
X149330000Y-78122900D01*
%TO.C,R11*%
X143332564Y-62457000D02*
X142878436Y-62457000D01*
X143332564Y-60987000D02*
X142878436Y-60987000D01*
%TO.C,D3*%
X103400000Y-87450000D02*
X105950000Y-87450000D01*
X103400000Y-85750000D02*
X103400000Y-87450000D01*
X103400000Y-85750000D02*
X105950000Y-85750000D01*
%TO.C,C1*%
X101290000Y-66511252D02*
X101290000Y-65088748D01*
X103110000Y-66511252D02*
X103110000Y-65088748D01*
%TO.C,Q17*%
X106600000Y-62440000D02*
X107250000Y-62440000D01*
X106600000Y-62440000D02*
X104925000Y-62440000D01*
X106600000Y-65560000D02*
X105950000Y-65560000D01*
X106600000Y-65560000D02*
X107250000Y-65560000D01*
%TO.C,R14*%
X139322436Y-84301000D02*
X139776564Y-84301000D01*
X139322436Y-82831000D02*
X139776564Y-82831000D01*
%TO.C,R37*%
X91177064Y-75465000D02*
X90722936Y-75465000D01*
X91177064Y-76935000D02*
X90722936Y-76935000D01*
%TO.C,R36*%
X94577064Y-76935000D02*
X94122936Y-76935000D01*
X94577064Y-75465000D02*
X94122936Y-75465000D01*
%TO.C,R29*%
X113976936Y-82460500D02*
X114431064Y-82460500D01*
X113976936Y-83930500D02*
X114431064Y-83930500D01*
%TO.C,Q15*%
X124355000Y-81794500D02*
X123255000Y-81794500D01*
X124355000Y-75164500D02*
X124355000Y-75434500D01*
X124355000Y-75434500D02*
X121525000Y-75434500D01*
X125855000Y-75164500D02*
X124355000Y-75164500D01*
X125855000Y-82064500D02*
X124355000Y-82064500D01*
X124355000Y-82064500D02*
X124355000Y-81794500D01*
%TO.C,D5*%
X100650000Y-85950000D02*
X98100000Y-85950000D01*
X100650000Y-87650000D02*
X98100000Y-87650000D01*
X100650000Y-87650000D02*
X100650000Y-85950000D01*
%TO.C,R8*%
X117932564Y-76596300D02*
X117478436Y-76596300D01*
X117932564Y-75126300D02*
X117478436Y-75126300D01*
D12*
%TO.C,J3*%
X95750000Y-110000000D02*
X96750000Y-110000000D01*
X157500000Y-110000000D02*
X156500000Y-110000000D01*
X157500000Y-110000000D02*
X157500000Y-119200000D01*
X157500000Y-119200000D02*
X95750000Y-119200000D01*
X95750000Y-119200000D02*
X95750000Y-110000000D01*
D13*
X155300000Y-109000000D02*
G75*
G03*
X155300000Y-109000000I-100000J0D01*
G01*
D11*
%TO.C,Q16*%
X125855000Y-107604000D02*
X124355000Y-107604000D01*
X124355000Y-107334000D02*
X123255000Y-107334000D01*
X124355000Y-100704000D02*
X124355000Y-100974000D01*
X125855000Y-100704000D02*
X124355000Y-100704000D01*
X124355000Y-100974000D02*
X121525000Y-100974000D01*
X124355000Y-107604000D02*
X124355000Y-107334000D01*
%TO.C,Q3*%
X124155000Y-56255000D02*
X123055000Y-56255000D01*
X124155000Y-49895000D02*
X121325000Y-49895000D01*
X124155000Y-49625000D02*
X124155000Y-49895000D01*
X125655000Y-49625000D02*
X124155000Y-49625000D01*
X125655000Y-56525000D02*
X124155000Y-56525000D01*
X124155000Y-56525000D02*
X124155000Y-56255000D01*
%TO.C,Q9*%
X150430000Y-86791400D02*
X147600000Y-86791400D01*
X150430000Y-86521400D02*
X150430000Y-86791400D01*
X151930000Y-93421400D02*
X150430000Y-93421400D01*
X150430000Y-93151400D02*
X149330000Y-93151400D01*
X150430000Y-93421400D02*
X150430000Y-93151400D01*
X151930000Y-86521400D02*
X150430000Y-86521400D01*
%TO.C,Q13*%
X125855000Y-99090800D02*
X124355000Y-99090800D01*
X124355000Y-92460800D02*
X121525000Y-92460800D01*
X125855000Y-92190800D02*
X124355000Y-92190800D01*
X124355000Y-99090800D02*
X124355000Y-98820800D01*
X124355000Y-92190800D02*
X124355000Y-92460800D01*
X124355000Y-98820800D02*
X123255000Y-98820800D01*
%TO.C,R20*%
X143332564Y-93753000D02*
X142878436Y-93753000D01*
X143332564Y-95223000D02*
X142878436Y-95223000D01*
%TO.C,R10*%
X139322436Y-67918000D02*
X139776564Y-67918000D01*
X139322436Y-66448000D02*
X139776564Y-66448000D01*
%TO.C,R16*%
X143332564Y-82831000D02*
X142878436Y-82831000D01*
X143332564Y-84301000D02*
X142878436Y-84301000D01*
%TO.C,R33*%
X108865000Y-57781564D02*
X108865000Y-57327436D01*
X110335000Y-57781564D02*
X110335000Y-57327436D01*
%TO.C,Q12*%
X167450000Y-87170000D02*
X167180000Y-87170000D01*
X160550000Y-87170000D02*
X160820000Y-87170000D01*
X167450000Y-85670000D02*
X167450000Y-87170000D01*
X167180000Y-87170000D02*
X167180000Y-88270000D01*
X160550000Y-85670000D02*
X160550000Y-87170000D01*
X160820000Y-87170000D02*
X160820000Y-90000000D01*
%TO.C,R28*%
X118186564Y-89519700D02*
X117732436Y-89519700D01*
X118186564Y-90989700D02*
X117732436Y-90989700D01*
%TO.C,Q6*%
X150430000Y-56464300D02*
X150430000Y-56734300D01*
X150430000Y-63094300D02*
X149330000Y-63094300D01*
X151930000Y-56464300D02*
X150430000Y-56464300D01*
X150430000Y-63364300D02*
X150430000Y-63094300D01*
X151930000Y-63364300D02*
X150430000Y-63364300D01*
X150430000Y-56734300D02*
X147600000Y-56734300D01*
%TO.C,Q4*%
X124355000Y-73551300D02*
X124355000Y-73281300D01*
X125855000Y-73551300D02*
X124355000Y-73551300D01*
X125855000Y-66651300D02*
X124355000Y-66651300D01*
X124355000Y-66921300D02*
X121525000Y-66921300D01*
X124355000Y-66651300D02*
X124355000Y-66921300D01*
X124355000Y-73281300D02*
X123255000Y-73281300D01*
%TO.C,R18*%
X139322436Y-93753000D02*
X139776564Y-93753000D01*
X139322436Y-95223000D02*
X139776564Y-95223000D01*
%TO.C,D4*%
X104350000Y-95400000D02*
X104350000Y-100800000D01*
X107650000Y-95400000D02*
X104350000Y-95400000D01*
X107650000Y-95400000D02*
X107650000Y-100800000D01*
%TO.C,Q5*%
X151930000Y-48950000D02*
X150430000Y-48950000D01*
X150430000Y-55580000D02*
X149330000Y-55580000D01*
X151930000Y-55850000D02*
X150430000Y-55850000D01*
X150430000Y-49220000D02*
X147600000Y-49220000D01*
X150430000Y-55850000D02*
X150430000Y-55580000D01*
X150430000Y-48950000D02*
X150430000Y-49220000D01*
%TO.C,R6*%
X113976936Y-75126300D02*
X114431064Y-75126300D01*
X113976936Y-76596300D02*
X114431064Y-76596300D01*
%TO.C,D2*%
X107885000Y-53960000D02*
X107885000Y-52040000D01*
X105200000Y-53960000D02*
X107885000Y-53960000D01*
X107885000Y-52040000D02*
X105200000Y-52040000D01*
%TO.C,R31*%
X118186564Y-82460500D02*
X117732436Y-82460500D01*
X118186564Y-83930500D02*
X117732436Y-83930500D01*
%TO.C,Q10*%
X151930000Y-94035700D02*
X150430000Y-94035700D01*
X150430000Y-94035700D02*
X150430000Y-94305700D01*
X150430000Y-100665700D02*
X149330000Y-100665700D01*
X150430000Y-94305700D02*
X147600000Y-94305700D01*
X150430000Y-100935700D02*
X150430000Y-100665700D01*
X151930000Y-100935700D02*
X150430000Y-100935700D01*
%TO.C,R15*%
X143332564Y-73379000D02*
X142878436Y-73379000D01*
X143332564Y-71909000D02*
X142878436Y-71909000D01*
%TO.C,R4*%
X117893064Y-68158800D02*
X117438936Y-68158800D01*
X117893064Y-69628800D02*
X117438936Y-69628800D01*
%TO.C,D1*%
X100685000Y-52040000D02*
X98000000Y-52040000D01*
X100685000Y-53960000D02*
X100685000Y-52040000D01*
X98000000Y-53960000D02*
X100685000Y-53960000D01*
%TO.C,U2*%
X99705000Y-77345000D02*
X96875000Y-77345000D01*
X99705000Y-77075000D02*
X99705000Y-77345000D01*
X101205000Y-83975000D02*
X99705000Y-83975000D01*
X99705000Y-83705000D02*
X98605000Y-83705000D01*
X101205000Y-77075000D02*
X99705000Y-77075000D01*
X99705000Y-83975000D02*
X99705000Y-83705000D01*
%TO.C,R23*%
X143332564Y-99214000D02*
X142878436Y-99214000D01*
X143332564Y-100684000D02*
X142878436Y-100684000D01*
%TO.C,C3*%
X91840000Y-82148752D02*
X91840000Y-80726248D01*
X93660000Y-82148752D02*
X93660000Y-80726248D01*
%TO.C,Q8*%
X151930000Y-85907100D02*
X150430000Y-85907100D01*
X150430000Y-79277100D02*
X147600000Y-79277100D01*
X150430000Y-85637100D02*
X149330000Y-85637100D01*
X151930000Y-79007100D02*
X150430000Y-79007100D01*
X150430000Y-85907100D02*
X150430000Y-85637100D01*
X150430000Y-79007100D02*
X150430000Y-79277100D01*
%TO.C,R2*%
X113976936Y-69628800D02*
X114431064Y-69628800D01*
X113976936Y-68158800D02*
X114431064Y-68158800D01*
%TO.C,R5*%
X113976936Y-60733000D02*
X114431064Y-60733000D01*
X113976936Y-62203000D02*
X114431064Y-62203000D01*
%TO.C,R19*%
X143332564Y-89762000D02*
X142878436Y-89762000D01*
X143332564Y-88292000D02*
X142878436Y-88292000D01*
%TO.C,SW1*%
X141060000Y-55650000D02*
X134940000Y-55650000D01*
X134940000Y-51950000D02*
X141060000Y-51950000D01*
X141060000Y-51950000D02*
X141060000Y-55650000D01*
X134940000Y-55650000D02*
X134940000Y-51950000D01*
%TO.C,F1*%
X104234064Y-58822000D02*
X103029936Y-58822000D01*
X104234064Y-57002000D02*
X103029936Y-57002000D01*
%TO.C,Q11*%
X150430000Y-101820000D02*
X147600000Y-101820000D01*
X150430000Y-101550000D02*
X150430000Y-101820000D01*
X151930000Y-101550000D02*
X150430000Y-101550000D01*
X150430000Y-108180000D02*
X149330000Y-108180000D01*
X151930000Y-108450000D02*
X150430000Y-108450000D01*
X150430000Y-108450000D02*
X150430000Y-108180000D01*
%TO.C,Q7*%
X151930000Y-70878600D02*
X150430000Y-70878600D01*
X150430000Y-63978600D02*
X150430000Y-64248600D01*
X150430000Y-70608600D02*
X149330000Y-70608600D01*
X150430000Y-70878600D02*
X150430000Y-70608600D01*
X151930000Y-63978600D02*
X150430000Y-63978600D01*
X150430000Y-64248600D02*
X147600000Y-64248600D01*
%TO.C,Q2*%
X124155000Y-58408200D02*
X121325000Y-58408200D01*
X124155000Y-65038200D02*
X124155000Y-64768200D01*
X125655000Y-65038200D02*
X124155000Y-65038200D01*
X124155000Y-64768200D02*
X123055000Y-64768200D01*
X124155000Y-58138200D02*
X124155000Y-58408200D01*
X125655000Y-58138200D02*
X124155000Y-58138200D01*
%TO.C,R34*%
X114935000Y-57781564D02*
X114935000Y-57327436D01*
X113465000Y-57781564D02*
X113465000Y-57327436D01*
%TO.C,R27*%
X117979564Y-96716300D02*
X117525436Y-96716300D01*
X117979564Y-98186300D02*
X117525436Y-98186300D01*
%TO.C,R32*%
X117909064Y-105383000D02*
X117454936Y-105383000D01*
X117909064Y-103913000D02*
X117454936Y-103913000D01*
%TO.C,R22*%
X139322436Y-106145000D02*
X139776564Y-106145000D01*
X139322436Y-104675000D02*
X139776564Y-104675000D01*
%TO.C,Q14*%
X125855000Y-90577700D02*
X124355000Y-90577700D01*
X124355000Y-83677700D02*
X124355000Y-83947700D01*
X124355000Y-90307700D02*
X123255000Y-90307700D01*
X124355000Y-90577700D02*
X124355000Y-90307700D01*
X124355000Y-83947700D02*
X121525000Y-83947700D01*
X125855000Y-83677700D02*
X124355000Y-83677700D01*
%TO.C,R24*%
X143332564Y-104675000D02*
X142878436Y-104675000D01*
X143332564Y-106145000D02*
X142878436Y-106145000D01*
%TO.C,R1*%
X139322436Y-78840000D02*
X139776564Y-78840000D01*
X139322436Y-77370000D02*
X139776564Y-77370000D01*
%TO.C,R3*%
X143332564Y-77370000D02*
X142878436Y-77370000D01*
X143332564Y-78840000D02*
X142878436Y-78840000D01*
%TO.C,R21*%
X139322436Y-100684000D02*
X139776564Y-100684000D01*
X139322436Y-99214000D02*
X139776564Y-99214000D01*
%TO.C,R9*%
X139218936Y-62457000D02*
X139673064Y-62457000D01*
X139218936Y-60987000D02*
X139673064Y-60987000D01*
%TD*%
%LPC*%
D14*
%TO.C,R13*%
X138637000Y-72644000D03*
X140462000Y-72644000D03*
%TD*%
D15*
%TO.C,C2*%
X94950000Y-87000000D03*
X91825000Y-87000000D03*
%TD*%
D14*
%TO.C,R26*%
X113291500Y-90254700D03*
X115116500Y-90254700D03*
%TD*%
D16*
%TO.C,R12*%
X144018000Y-67183000D03*
X142193000Y-67183000D03*
%TD*%
%TO.C,R7*%
X118545500Y-61468000D03*
X116720500Y-61468000D03*
%TD*%
D14*
%TO.C,R30*%
X113291500Y-104648000D03*
X115116500Y-104648000D03*
%TD*%
%TO.C,R17*%
X138637000Y-89027000D03*
X140462000Y-89027000D03*
%TD*%
D17*
%TO.C,R35*%
X118600000Y-58443500D03*
X118600000Y-56618500D03*
%TD*%
D14*
%TO.C,R25*%
X113291500Y-97451300D03*
X115116500Y-97451300D03*
%TD*%
D18*
%TO.C,Q1*%
X148700000Y-72662900D03*
D19*
X155000000Y-74942900D03*
D18*
X148700000Y-77222900D03*
%TD*%
D16*
%TO.C,R11*%
X144018000Y-61722000D03*
X142193000Y-61722000D03*
%TD*%
D20*
%TO.C,MH1*%
X93091000Y-54864000D03*
%TD*%
D21*
%TO.C,D3*%
X103850000Y-86600000D03*
X105950000Y-86600000D03*
%TD*%
D22*
%TO.C,C1*%
X102200000Y-67362500D03*
X102200000Y-64237500D03*
%TD*%
D23*
%TO.C,Q17*%
X105662500Y-63050000D03*
X105662500Y-64950000D03*
X107537500Y-64000000D03*
%TD*%
D14*
%TO.C,R14*%
X138637000Y-83566000D03*
X140462000Y-83566000D03*
%TD*%
D16*
%TO.C,R37*%
X91862500Y-76200000D03*
X90037500Y-76200000D03*
%TD*%
%TO.C,R36*%
X95262500Y-76200000D03*
X93437500Y-76200000D03*
%TD*%
D14*
%TO.C,R29*%
X113291500Y-83195500D03*
X115116500Y-83195500D03*
%TD*%
D18*
%TO.C,Q15*%
X122625000Y-76334500D03*
D19*
X128925000Y-78614500D03*
D18*
X122625000Y-80894500D03*
%TD*%
D21*
%TO.C,D5*%
X100200000Y-86800000D03*
X98100000Y-86800000D03*
%TD*%
D16*
%TO.C,R8*%
X118618000Y-75861300D03*
X116793000Y-75861300D03*
%TD*%
D24*
%TO.C,J3*%
X155200000Y-111200000D03*
D25*
X151390000Y-111200000D03*
X147580000Y-111200000D03*
X143770000Y-111200000D03*
X139960000Y-111200000D03*
X136150000Y-111200000D03*
X132340000Y-111200000D03*
X128530000Y-111200000D03*
X124720000Y-111200000D03*
X120910000Y-111200000D03*
X117100000Y-111200000D03*
X113290000Y-111200000D03*
X109480000Y-111200000D03*
X105670000Y-111200000D03*
X101860000Y-111200000D03*
X98050000Y-111200000D03*
%TD*%
D18*
%TO.C,Q16*%
X122625000Y-101874000D03*
D19*
X128925000Y-104154000D03*
D18*
X122625000Y-106434000D03*
%TD*%
%TO.C,Q3*%
X122425000Y-50795000D03*
D19*
X128725000Y-53075000D03*
D18*
X122425000Y-55355000D03*
%TD*%
%TO.C,Q9*%
X148700000Y-87691400D03*
D19*
X155000000Y-89971400D03*
D18*
X148700000Y-92251400D03*
%TD*%
%TO.C,Q13*%
X122625000Y-93360800D03*
D19*
X128925000Y-95640800D03*
D18*
X122625000Y-97920800D03*
%TD*%
D16*
%TO.C,R20*%
X144018000Y-94488000D03*
X142193000Y-94488000D03*
%TD*%
D14*
%TO.C,R10*%
X138637000Y-67183000D03*
X140462000Y-67183000D03*
%TD*%
D16*
%TO.C,R16*%
X144018000Y-83566000D03*
X142193000Y-83566000D03*
%TD*%
D17*
%TO.C,R33*%
X109600000Y-58467000D03*
X109600000Y-56642000D03*
%TD*%
D26*
%TO.C,Q12*%
X161720000Y-88900000D03*
D27*
X164000000Y-82600000D03*
D26*
X166280000Y-88900000D03*
%TD*%
D16*
%TO.C,R28*%
X118872000Y-90254700D03*
X117047000Y-90254700D03*
%TD*%
D18*
%TO.C,Q6*%
X148700000Y-57634300D03*
D19*
X155000000Y-59914300D03*
D18*
X148700000Y-62194300D03*
%TD*%
%TO.C,Q4*%
X122625000Y-67821300D03*
D19*
X128925000Y-70101300D03*
D18*
X122625000Y-72381300D03*
%TD*%
D14*
%TO.C,R18*%
X138637000Y-94488000D03*
X140462000Y-94488000D03*
%TD*%
D28*
%TO.C,D4*%
X106000000Y-96800000D03*
X106000000Y-100800000D03*
%TD*%
D18*
%TO.C,Q5*%
X148700000Y-50120000D03*
D19*
X155000000Y-52400000D03*
D18*
X148700000Y-54680000D03*
%TD*%
D14*
%TO.C,R6*%
X113291500Y-75861300D03*
X115116500Y-75861300D03*
%TD*%
D29*
%TO.C,D2*%
X107137500Y-53000000D03*
X105262500Y-53000000D03*
%TD*%
D16*
%TO.C,R31*%
X118872000Y-83195500D03*
X117047000Y-83195500D03*
%TD*%
D18*
%TO.C,Q10*%
X148700000Y-95205700D03*
D19*
X155000000Y-97485700D03*
D18*
X148700000Y-99765700D03*
%TD*%
D16*
%TO.C,R15*%
X144018000Y-72644000D03*
X142193000Y-72644000D03*
%TD*%
%TO.C,R4*%
X118578500Y-68893800D03*
X116753500Y-68893800D03*
%TD*%
D29*
%TO.C,D1*%
X99937500Y-53000000D03*
X98062500Y-53000000D03*
%TD*%
D18*
%TO.C,U2*%
X97975000Y-78245000D03*
D19*
X104275000Y-80525000D03*
D18*
X97975000Y-82805000D03*
%TD*%
D16*
%TO.C,R23*%
X144018000Y-99949000D03*
X142193000Y-99949000D03*
%TD*%
D22*
%TO.C,C3*%
X92750000Y-83000000D03*
X92750000Y-79875000D03*
%TD*%
D18*
%TO.C,Q8*%
X148700000Y-80177100D03*
D19*
X155000000Y-82457100D03*
D18*
X148700000Y-84737100D03*
%TD*%
D14*
%TO.C,R2*%
X113291500Y-68893800D03*
X115116500Y-68893800D03*
%TD*%
%TO.C,R5*%
X113291500Y-61468000D03*
X115116500Y-61468000D03*
%TD*%
D20*
%TO.C,MH3*%
X90800000Y-110000000D03*
X90800000Y-110000000D03*
%TD*%
D16*
%TO.C,R19*%
X144018000Y-89027000D03*
X142193000Y-89027000D03*
%TD*%
D30*
%TO.C,SW1*%
X134100000Y-53800000D03*
X141900000Y-53800000D03*
%TD*%
D31*
%TO.C,F1*%
X105032000Y-57912000D03*
X102232000Y-57912000D03*
%TD*%
D18*
%TO.C,Q11*%
X148700000Y-102720000D03*
D19*
X155000000Y-105000000D03*
D18*
X148700000Y-107280000D03*
%TD*%
%TO.C,Q7*%
X148700000Y-65148600D03*
D19*
X155000000Y-67428600D03*
D18*
X148700000Y-69708600D03*
%TD*%
D20*
%TO.C,MH4*%
X163200000Y-111800000D03*
%TD*%
D18*
%TO.C,Q2*%
X122425000Y-59308200D03*
D19*
X128725000Y-61588200D03*
D18*
X122425000Y-63868200D03*
%TD*%
D17*
%TO.C,R34*%
X114200000Y-58467000D03*
X114200000Y-56642000D03*
%TD*%
D20*
%TO.C,MH2*%
X162800000Y-53800000D03*
%TD*%
D16*
%TO.C,R27*%
X118665000Y-97451300D03*
X116840000Y-97451300D03*
%TD*%
%TO.C,R32*%
X118594500Y-104648000D03*
X116769500Y-104648000D03*
%TD*%
D14*
%TO.C,R22*%
X138637000Y-105410000D03*
X140462000Y-105410000D03*
%TD*%
D18*
%TO.C,Q14*%
X122625000Y-84847700D03*
D19*
X128925000Y-87127700D03*
D18*
X122625000Y-89407700D03*
%TD*%
D16*
%TO.C,R24*%
X144018000Y-105410000D03*
X142193000Y-105410000D03*
%TD*%
D14*
%TO.C,R1*%
X138637000Y-78105000D03*
X140462000Y-78105000D03*
%TD*%
D16*
%TO.C,R3*%
X144018000Y-78105000D03*
X142193000Y-78105000D03*
%TD*%
D14*
%TO.C,R21*%
X138637000Y-99949000D03*
X140462000Y-99949000D03*
%TD*%
%TO.C,R9*%
X138533500Y-61722000D03*
X140358500Y-61722000D03*
%TD*%
D32*
%TO.C,J2*%
X97877500Y-101400000D03*
D33*
X97877500Y-96320000D03*
%TD*%
D34*
%TO.C,U1*%
X111125000Y-96926000D03*
D35*
X111125000Y-94386000D03*
X111125000Y-91846000D03*
X111125000Y-89306000D03*
X111125000Y-86766000D03*
X111125000Y-84226000D03*
X111125000Y-81686000D03*
X111125000Y-79146000D03*
X111125000Y-76606000D03*
X111125000Y-74066000D03*
X111125000Y-71526000D03*
X111125000Y-68986000D03*
X111125000Y-66446000D03*
X111125000Y-63906000D03*
X111125000Y-61366000D03*
X136525000Y-61366000D03*
X136525000Y-63906000D03*
X136525000Y-66446000D03*
X136525000Y-68986000D03*
X136525000Y-71526000D03*
X136525000Y-74066000D03*
X136525000Y-76606000D03*
X136525000Y-79146000D03*
X136525000Y-81686000D03*
X136525000Y-84226000D03*
X136525000Y-86766000D03*
X136525000Y-89306000D03*
X136525000Y-91846000D03*
X136525000Y-94386000D03*
X136525000Y-96926000D03*
%TD*%
D32*
%TO.C,J1*%
X97877500Y-68680000D03*
D33*
X97877500Y-63600000D03*
%TD*%
M02*
