%TF.GenerationSoftware,KiCad,Pcbnew,(6.0.10)*%
%TF.CreationDate,2023-03-20T01:14:19-04:00*%
%TF.ProjectId,pwm_pcb_larger,70776d5f-7063-4625-9f6c-61726765722e,rev?*%
%TF.SameCoordinates,Original*%
%TF.FileFunction,Soldermask,Bot*%
%TF.FilePolarity,Negative*%
%FSLAX46Y46*%
G04 Gerber Fmt 4.6, Leading zero omitted, Abs format (unit mm)*
G04 Created by KiCad (PCBNEW (6.0.10)) date 2023-03-20 01:14:19*
%MOMM*%
%LPD*%
G01*
G04 APERTURE LIST*
G04 Aperture macros list*
%AMRoundRect*
0 Rectangle with rounded corners*
0 $1 Rounding radius*
0 $2 $3 $4 $5 $6 $7 $8 $9 X,Y pos of 4 corners*
0 Add a 4 corners polygon primitive as box body*
4,1,4,$2,$3,$4,$5,$6,$7,$8,$9,$2,$3,0*
0 Add four circle primitives for the rounded corners*
1,1,$1+$1,$2,$3*
1,1,$1+$1,$4,$5*
1,1,$1+$1,$6,$7*
1,1,$1+$1,$8,$9*
0 Add four rect primitives between the rounded corners*
20,1,$1+$1,$2,$3,$4,$5,0*
20,1,$1+$1,$4,$5,$6,$7,0*
20,1,$1+$1,$6,$7,$8,$9,0*
20,1,$1+$1,$8,$9,$2,$3,0*%
G04 Aperture macros list end*
%ADD10C,0.500000*%
%ADD11C,0.250000*%
%ADD12R,2.100000X2.100000*%
%ADD13C,2.100000*%
%ADD14C,3.200000*%
%ADD15RoundRect,0.249999X1.550001X-0.790001X1.550001X0.790001X-1.550001X0.790001X-1.550001X-0.790001X0*%
%ADD16O,3.600000X2.080000*%
%ADD17R,1.524000X1.524000*%
%ADD18C,1.524000*%
G04 APERTURE END LIST*
D10*
X142704761Y-53324940D02*
X142704761Y-52372559D01*
X140704761Y-52622559D01*
X142133333Y-53967797D02*
X142133333Y-54920178D01*
X142704761Y-53705892D02*
X140704761Y-54622559D01*
X142704761Y-55039226D01*
X142704761Y-56848750D02*
X141752380Y-56301130D01*
X142704761Y-55705892D02*
X140704761Y-55955892D01*
X140704761Y-56717797D01*
X140800000Y-56896369D01*
X140895238Y-56979702D01*
X141085714Y-57051130D01*
X141371428Y-57015416D01*
X141561904Y-56896369D01*
X141657142Y-56789226D01*
X141752380Y-56586845D01*
X141752380Y-55824940D01*
X140800000Y-58991607D02*
X140704761Y-58813035D01*
X140704761Y-58527321D01*
X140800000Y-58229702D01*
X140990476Y-58015416D01*
X141180952Y-57896369D01*
X141561904Y-57753511D01*
X141847619Y-57717797D01*
X142228571Y-57765416D01*
X142419047Y-57836845D01*
X142609523Y-58003511D01*
X142704761Y-58277321D01*
X142704761Y-58467797D01*
X142609523Y-58765416D01*
X142514285Y-58872559D01*
X141847619Y-58955892D01*
X141847619Y-58574940D01*
X141657142Y-59836845D02*
X141657142Y-60503511D01*
X142704761Y-60658273D02*
X142704761Y-59705892D01*
X140704761Y-59955892D01*
X140704761Y-60908273D01*
X140704761Y-63003511D02*
X140704761Y-64146369D01*
X142704761Y-63324940D02*
X140704761Y-63574940D01*
X142704761Y-65705892D02*
X141752380Y-65158273D01*
X142704761Y-64563035D02*
X140704761Y-64813035D01*
X140704761Y-65574940D01*
X140800000Y-65753511D01*
X140895238Y-65836845D01*
X141085714Y-65908273D01*
X141371428Y-65872559D01*
X141561904Y-65753511D01*
X141657142Y-65646369D01*
X141752380Y-65443988D01*
X141752380Y-64682083D01*
X142133333Y-66539226D02*
X142133333Y-67491607D01*
X142704761Y-66277321D02*
X140704761Y-67193988D01*
X142704761Y-67610654D01*
X142704761Y-68277321D02*
X140704761Y-68527321D01*
X142704761Y-69420178D01*
X140704761Y-69670178D01*
X142609523Y-70289226D02*
X142704761Y-70563035D01*
X142704761Y-71039226D01*
X142609523Y-71241607D01*
X142514285Y-71348750D01*
X142323809Y-71467797D01*
X142133333Y-71491607D01*
X141942857Y-71420178D01*
X141847619Y-71336845D01*
X141752380Y-71158273D01*
X141657142Y-70789226D01*
X141561904Y-70610654D01*
X141466666Y-70527321D01*
X141276190Y-70455892D01*
X141085714Y-70479702D01*
X140895238Y-70598750D01*
X140800000Y-70705892D01*
X140704761Y-70908273D01*
X140704761Y-71384464D01*
X140800000Y-71658273D01*
X142704761Y-72277321D02*
X140704761Y-72527321D01*
X142609523Y-73146369D02*
X142704761Y-73420178D01*
X142704761Y-73896369D01*
X142609523Y-74098750D01*
X142514285Y-74205892D01*
X142323809Y-74324940D01*
X142133333Y-74348750D01*
X141942857Y-74277321D01*
X141847619Y-74193988D01*
X141752380Y-74015416D01*
X141657142Y-73646369D01*
X141561904Y-73467797D01*
X141466666Y-73384464D01*
X141276190Y-73313035D01*
X141085714Y-73336845D01*
X140895238Y-73455892D01*
X140800000Y-73563035D01*
X140704761Y-73765416D01*
X140704761Y-74241607D01*
X140800000Y-74515416D01*
X140704761Y-75098750D02*
X140704761Y-76241607D01*
X142704761Y-75420178D02*
X140704761Y-75670178D01*
X140704761Y-77289226D02*
X140704761Y-77670178D01*
X140800000Y-77848750D01*
X140990476Y-78015416D01*
X141371428Y-78063035D01*
X142038095Y-77979702D01*
X142419047Y-77836845D01*
X142609523Y-77622559D01*
X142704761Y-77420178D01*
X142704761Y-77039226D01*
X142609523Y-76860654D01*
X142419047Y-76693988D01*
X142038095Y-76646369D01*
X141371428Y-76729702D01*
X140990476Y-76872559D01*
X140800000Y-77086845D01*
X140704761Y-77289226D01*
X142704761Y-79896369D02*
X141752380Y-79348750D01*
X142704761Y-78753511D02*
X140704761Y-79003511D01*
X140704761Y-79765416D01*
X140800000Y-79943988D01*
X140895238Y-80027321D01*
X141085714Y-80098750D01*
X141371428Y-80063035D01*
X141561904Y-79943988D01*
X141657142Y-79836845D01*
X141752380Y-79634464D01*
X141752380Y-78872559D01*
X140704761Y-82241607D02*
X142704761Y-82658273D01*
X140704761Y-83574940D01*
X141657142Y-84122559D02*
X141657142Y-84789226D01*
X142704761Y-84943988D02*
X142704761Y-83991607D01*
X140704761Y-84241607D01*
X140704761Y-85193988D01*
X142704761Y-86943988D02*
X141752380Y-86396369D01*
X142704761Y-85801130D02*
X140704761Y-86051130D01*
X140704761Y-86813035D01*
X140800000Y-86991607D01*
X140895238Y-87074940D01*
X141085714Y-87146369D01*
X141371428Y-87110654D01*
X141561904Y-86991607D01*
X141657142Y-86884464D01*
X141752380Y-86682083D01*
X141752380Y-85920178D01*
X142609523Y-87717797D02*
X142704761Y-87991607D01*
X142704761Y-88467797D01*
X142609523Y-88670178D01*
X142514285Y-88777321D01*
X142323809Y-88896369D01*
X142133333Y-88920178D01*
X141942857Y-88848749D01*
X141847619Y-88765416D01*
X141752380Y-88586845D01*
X141657142Y-88217797D01*
X141561904Y-88039226D01*
X141466666Y-87955892D01*
X141276190Y-87884464D01*
X141085714Y-87908273D01*
X140895238Y-88027321D01*
X140800000Y-88134464D01*
X140704761Y-88336845D01*
X140704761Y-88813035D01*
X140800000Y-89086845D01*
X142704761Y-89705892D02*
X140704761Y-89955892D01*
X140704761Y-91289226D02*
X140704761Y-91670178D01*
X140800000Y-91848749D01*
X140990476Y-92015416D01*
X141371428Y-92063035D01*
X142038095Y-91979702D01*
X142419047Y-91836845D01*
X142609523Y-91622559D01*
X142704761Y-91420178D01*
X142704761Y-91039226D01*
X142609523Y-90860654D01*
X142419047Y-90693988D01*
X142038095Y-90646369D01*
X141371428Y-90729702D01*
X140990476Y-90872559D01*
X140800000Y-91086845D01*
X140704761Y-91289226D01*
X142704761Y-92753511D02*
X140704761Y-93003511D01*
X142704761Y-93896369D01*
X140704761Y-94146369D01*
X142514285Y-94872559D02*
X142609523Y-94955892D01*
X142704761Y-94848749D01*
X142609523Y-94765416D01*
X142514285Y-94872559D01*
X142704761Y-94848749D01*
X141942857Y-94943988D02*
X140800000Y-94991607D01*
X140704761Y-95098749D01*
X140800000Y-95182083D01*
X141942857Y-94943988D01*
X140704761Y-95098749D01*
D11*
X152247380Y-74148184D02*
X151580714Y-74231517D01*
X151675952Y-74219613D02*
X151628333Y-74273184D01*
X151580714Y-74374375D01*
X151580714Y-74517232D01*
X151628333Y-74606517D01*
X151723571Y-74642232D01*
X152247380Y-74576755D01*
X151723571Y-74642232D02*
X151628333Y-74701755D01*
X151580714Y-74802946D01*
X151580714Y-74945803D01*
X151628333Y-75035089D01*
X151723571Y-75070803D01*
X152247380Y-75005327D01*
X152247380Y-75910089D02*
X151723571Y-75975565D01*
X151628333Y-75939851D01*
X151580714Y-75850565D01*
X151580714Y-75660089D01*
X151628333Y-75558898D01*
X152199761Y-75916041D02*
X152247380Y-75814851D01*
X152247380Y-75576755D01*
X152199761Y-75487470D01*
X152104523Y-75451755D01*
X152009285Y-75463660D01*
X151914047Y-75523184D01*
X151866428Y-75624375D01*
X151866428Y-75862470D01*
X151818809Y-75963660D01*
X152247380Y-76386279D02*
X151580714Y-76469613D01*
X151771190Y-76445803D02*
X151675952Y-76505327D01*
X151628333Y-76558898D01*
X151580714Y-76660089D01*
X151580714Y-76755327D01*
X152199761Y-77439851D02*
X152247380Y-77338660D01*
X152247380Y-77148184D01*
X152199761Y-77058898D01*
X152152142Y-77017232D01*
X152056904Y-76981517D01*
X151771190Y-77017232D01*
X151675952Y-77076755D01*
X151628333Y-77130327D01*
X151580714Y-77231517D01*
X151580714Y-77421994D01*
X151628333Y-77511279D01*
X152247380Y-77862470D02*
X151247380Y-77987470D01*
X152247380Y-78291041D02*
X151723571Y-78356517D01*
X151628333Y-78320803D01*
X151580714Y-78231517D01*
X151580714Y-78088660D01*
X151628333Y-77987470D01*
X151675952Y-77933898D01*
X151342619Y-79594613D02*
X151295000Y-79648184D01*
X151247380Y-79749375D01*
X151247380Y-79987470D01*
X151295000Y-80076755D01*
X151342619Y-80118422D01*
X151437857Y-80154136D01*
X151533095Y-80142232D01*
X151675952Y-80076755D01*
X152247380Y-79433898D01*
X152247380Y-80052946D01*
X151247380Y-80796994D02*
X151247380Y-80892232D01*
X151295000Y-80981517D01*
X151342619Y-81023184D01*
X151437857Y-81058898D01*
X151628333Y-81082708D01*
X151866428Y-81052946D01*
X152056904Y-80981517D01*
X152152142Y-80921994D01*
X152199761Y-80868422D01*
X152247380Y-80767232D01*
X152247380Y-80671994D01*
X152199761Y-80582708D01*
X152152142Y-80541041D01*
X152056904Y-80505327D01*
X151866428Y-80481517D01*
X151628333Y-80511279D01*
X151437857Y-80582708D01*
X151342619Y-80642232D01*
X151295000Y-80695803D01*
X151247380Y-80796994D01*
X151342619Y-81499375D02*
X151295000Y-81552946D01*
X151247380Y-81654136D01*
X151247380Y-81892232D01*
X151295000Y-81981517D01*
X151342619Y-82023184D01*
X151437857Y-82058898D01*
X151533095Y-82046994D01*
X151675952Y-81981517D01*
X152247380Y-81338660D01*
X152247380Y-81957708D01*
X151247380Y-82416041D02*
X151247380Y-83035089D01*
X151628333Y-82654136D01*
X151628333Y-82796994D01*
X151675952Y-82886279D01*
X151723571Y-82927946D01*
X151818809Y-82963660D01*
X152056904Y-82933898D01*
X152152142Y-82874375D01*
X152199761Y-82820803D01*
X152247380Y-82719613D01*
X152247380Y-82433898D01*
X152199761Y-82344613D01*
X152152142Y-82302946D01*
X153857380Y-76910089D02*
X153190714Y-76993422D01*
X153381190Y-76969613D02*
X153285952Y-77029136D01*
X153238333Y-77082708D01*
X153190714Y-77183898D01*
X153190714Y-77279136D01*
X153809761Y-77916041D02*
X153857380Y-77814851D01*
X153857380Y-77624375D01*
X153809761Y-77535089D01*
X153714523Y-77499375D01*
X153333571Y-77546994D01*
X153238333Y-77606517D01*
X153190714Y-77707708D01*
X153190714Y-77898184D01*
X153238333Y-77987470D01*
X153333571Y-78023184D01*
X153428809Y-78011279D01*
X153524047Y-77523184D01*
X153190714Y-78374375D02*
X153857380Y-78529136D01*
X153190714Y-78850565D01*
X153762142Y-79160089D02*
X153809761Y-79201755D01*
X153857380Y-79148184D01*
X153809761Y-79106517D01*
X153762142Y-79160089D01*
X153857380Y-79148184D01*
X153857380Y-80148184D02*
X153857380Y-79576755D01*
X153857380Y-79862470D02*
X152857380Y-79987470D01*
X153000238Y-79874375D01*
X153095476Y-79767232D01*
X153143095Y-79666041D01*
D12*
%TO.C,J3*%
X155200000Y-111200000D03*
D13*
X151390000Y-111200000D03*
X147580000Y-111200000D03*
X143770000Y-111200000D03*
X139960000Y-111200000D03*
X136150000Y-111200000D03*
X132340000Y-111200000D03*
X128530000Y-111200000D03*
X124720000Y-111200000D03*
X120910000Y-111200000D03*
X117100000Y-111200000D03*
X113290000Y-111200000D03*
X109480000Y-111200000D03*
X105670000Y-111200000D03*
X101860000Y-111200000D03*
X98050000Y-111200000D03*
%TD*%
D14*
%TO.C,MH1*%
X93091000Y-54864000D03*
%TD*%
%TO.C,MH3*%
X90800000Y-110000000D03*
X90800000Y-110000000D03*
%TD*%
%TO.C,MH4*%
X163200000Y-111800000D03*
%TD*%
%TO.C,MH2*%
X162800000Y-53800000D03*
%TD*%
D15*
%TO.C,J2*%
X97877500Y-101400000D03*
D16*
X97877500Y-96320000D03*
%TD*%
D17*
%TO.C,U1*%
X111125000Y-96926000D03*
D18*
X111125000Y-94386000D03*
X111125000Y-91846000D03*
X111125000Y-89306000D03*
X111125000Y-86766000D03*
X111125000Y-84226000D03*
X111125000Y-81686000D03*
X111125000Y-79146000D03*
X111125000Y-76606000D03*
X111125000Y-74066000D03*
X111125000Y-71526000D03*
X111125000Y-68986000D03*
X111125000Y-66446000D03*
X111125000Y-63906000D03*
X111125000Y-61366000D03*
X136525000Y-61366000D03*
X136525000Y-63906000D03*
X136525000Y-66446000D03*
X136525000Y-68986000D03*
X136525000Y-71526000D03*
X136525000Y-74066000D03*
X136525000Y-76606000D03*
X136525000Y-79146000D03*
X136525000Y-81686000D03*
X136525000Y-84226000D03*
X136525000Y-86766000D03*
X136525000Y-89306000D03*
X136525000Y-91846000D03*
X136525000Y-94386000D03*
X136525000Y-96926000D03*
%TD*%
D15*
%TO.C,J1*%
X97877500Y-68680000D03*
D16*
X97877500Y-63600000D03*
%TD*%
M02*
