M48
; DRILL file {KiCad 8.0.1-rc1} date 2024-05-22T00:49:17-0700
; FORMAT={-:-/ absolute / inch / decimal}
; #@! TF.CreationDate,2024-05-22T00:49:17-07:00
; #@! TF.GenerationSoftware,Kicad,Pcbnew,8.0.1-rc1
; #@! TF.FileFunction,NonPlated,1,2,NPTH
FMAT,2
INCH
; #@! TA.AperFunction,NonPlated,NPTH,ComponentDrill
T1C0.0402
; #@! TA.AperFunction,NonPlated,NPTH,ComponentDrill
T2C0.1260
%
G90
G05
T1
X3.1862Y-4.648
X3.1862Y-5.2386
X3.4224Y-4.648
X3.4224Y-5.2386
X3.6362Y-4.648
X3.6366Y-5.2386
X3.8724Y-4.648
X3.8728Y-5.2386
X4.0861Y-4.648
X4.0869Y-5.2386
X4.3223Y-4.648
X4.3231Y-5.2386
X4.5361Y-4.648
X4.5372Y-5.2386
X4.7723Y-4.648
X4.7735Y-5.2386
X4.986Y-4.648
X4.9876Y-5.2362
X5.2222Y-4.648
X5.2238Y-5.2362
X5.4359Y-4.648
X5.4379Y-5.2362
X5.6722Y-4.648
X5.6741Y-5.2362
X5.8859Y-4.648
X5.8882Y-5.2362
X6.1221Y-4.648
X6.1245Y-5.2362
X6.3358Y-4.648
X6.3386Y-5.2362
X6.572Y-4.648
X6.5748Y-5.2362
T2
X2.9921Y-5.315
X3.3898Y-2.063
X6.4382Y-2.1327
X6.7717Y-5.2756
M30
