M48
; DRILL file {KiCad 8.0.1-rc1} date 2024-05-22T00:49:17-0700
; FORMAT={-:-/ absolute / inch / decimal}
; #@! TF.CreationDate,2024-05-22T00:49:17-07:00
; #@! TF.GenerationSoftware,Kicad,Pcbnew,8.0.1-rc1
; #@! TF.FileFunction,Plated,1,2,PTH
FMAT,2
INCH
; #@! TA.AperFunction,Plated,PTH,ViaDrill
T1C0.0157
; #@! TA.AperFunction,Plated,PTH,ComponentDrill
T2C0.0300
; #@! TA.AperFunction,Plated,PTH,ComponentDrill
T3C0.0402
; #@! TA.AperFunction,Plated,PTH,ComponentDrill
T4C0.0650
%
G90
G05
T1
X3.5433Y-2.9134
X4.0285Y-2.3858
X4.1142Y-2.3967
X4.1598Y-3.0316
X4.2126Y-4.8425
X4.4472Y-2.4726
X4.4603Y-3.7843
X4.5669Y-4.8425
X4.6075Y-2.3676
X4.609Y-2.6608
X4.7484Y-1.9953
X4.8083Y-2.3826
X4.9213Y-4.8819
X5.2258Y-2.1181
X5.2362Y-2.7756
X5.2953Y-3.2677
X5.4409Y-2.4813
X5.5512Y-4.8819
X5.6594Y-2.0167
X5.748Y-4.5276
X5.748Y-4.8819
X5.9282Y-3.2758
X5.9527Y-2.6547
X5.9821Y-2.5144
X6.0467Y-2.2029
X6.1614Y-4.2913
X6.2523Y-2.9505
X6.2795Y-3.563
X6.3238Y-2.0443
T2
X4.375Y-2.416
X4.375Y-2.516
X4.375Y-2.616
X4.375Y-2.716
X4.375Y-2.816
X4.375Y-2.916
X4.375Y-3.016
X4.375Y-3.116
X4.375Y-3.216
X4.375Y-3.316
X4.375Y-3.416
X4.375Y-3.516
X4.375Y-3.616
X4.375Y-3.716
X4.375Y-3.816
X5.375Y-2.416
X5.375Y-2.516
X5.375Y-2.616
X5.375Y-2.716
X5.375Y-2.816
X5.375Y-2.916
X5.375Y-3.016
X5.375Y-3.116
X5.375Y-3.216
X5.375Y-3.316
X5.375Y-3.416
X5.375Y-3.516
X5.375Y-3.616
X5.375Y-3.716
X5.375Y-3.816
T3
X3.3043Y-4.4929
X3.3043Y-4.611
X3.3043Y-5.0835
X3.3043Y-5.2016
X3.7543Y-4.4929
X3.7543Y-4.611
X3.7547Y-5.0835
X3.7547Y-5.2016
X4.2042Y-4.4929
X4.2042Y-4.611
X4.205Y-5.0835
X4.205Y-5.2016
X4.6542Y-4.4929
X4.6542Y-4.611
X4.6553Y-5.0835
X4.6553Y-5.2016
X5.1041Y-4.4929
X5.1041Y-4.611
X5.1057Y-5.0811
X5.1057Y-5.1992
X5.554Y-4.4929
X5.554Y-4.611
X5.556Y-5.0811
X5.556Y-5.1992
X6.004Y-4.4929
X6.004Y-4.611
X6.0064Y-5.0811
X6.0064Y-5.1992
X6.4539Y-4.4929
X6.4539Y-4.611
X6.4567Y-5.0811
X6.4567Y-5.1992
T4
X3.4646Y-2.4311
X3.4646Y-2.7559
X3.4646Y-3.6122
X3.4646Y-3.937
M30
