%TF.GenerationSoftware,KiCad,Pcbnew,8.0.1-rc1*%
%TF.CreationDate,2024-05-22T00:49:17-07:00*%
%TF.ProjectId,pwm_pcb_larger,70776d5f-7063-4625-9f6c-61726765722e,rev?*%
%TF.SameCoordinates,Original*%
%TF.FileFunction,Paste,Top*%
%TF.FilePolarity,Positive*%
%FSLAX46Y46*%
G04 Gerber Fmt 4.6, Leading zero omitted, Abs format (unit mm)*
G04 Created by KiCad (PCBNEW 8.0.1-rc1) date 2024-05-22 00:49:17*
%MOMM*%
%LPD*%
G01*
G04 APERTURE LIST*
G04 Aperture macros list*
%AMRoundRect*
0 Rectangle with rounded corners*
0 $1 Rounding radius*
0 $2 $3 $4 $5 $6 $7 $8 $9 X,Y pos of 4 corners*
0 Add a 4 corners polygon primitive as box body*
4,1,4,$2,$3,$4,$5,$6,$7,$8,$9,$2,$3,0*
0 Add four circle primitives for the rounded corners*
1,1,$1+$1,$2,$3*
1,1,$1+$1,$4,$5*
1,1,$1+$1,$6,$7*
1,1,$1+$1,$8,$9*
0 Add four rect primitives between the rounded corners*
20,1,$1+$1,$2,$3,$4,$5,0*
20,1,$1+$1,$4,$5,$6,$7,0*
20,1,$1+$1,$6,$7,$8,$9,0*
20,1,$1+$1,$8,$9,$2,$3,0*%
G04 Aperture macros list end*
%ADD10RoundRect,0.250000X-0.262500X-0.450000X0.262500X-0.450000X0.262500X0.450000X-0.262500X0.450000X0*%
%ADD11RoundRect,0.250000X0.412500X0.650000X-0.412500X0.650000X-0.412500X-0.650000X0.412500X-0.650000X0*%
%ADD12RoundRect,0.250000X0.262500X0.450000X-0.262500X0.450000X-0.262500X-0.450000X0.262500X-0.450000X0*%
%ADD13RoundRect,0.250000X0.450000X-0.262500X0.450000X0.262500X-0.450000X0.262500X-0.450000X-0.262500X0*%
%ADD14R,3.050000X2.750000*%
%ADD15R,2.200000X1.200000*%
%ADD16R,0.600000X0.450000*%
%ADD17RoundRect,0.250000X0.650000X-0.412500X0.650000X0.412500X-0.650000X0.412500X-0.650000X-0.412500X0*%
%ADD18RoundRect,0.150000X-0.587500X-0.150000X0.587500X-0.150000X0.587500X0.150000X-0.587500X0.150000X0*%
%ADD19R,2.750000X3.050000*%
%ADD20R,1.200000X2.200000*%
%ADD21R,1.800000X2.500000*%
%ADD22RoundRect,0.243750X0.243750X0.456250X-0.243750X0.456250X-0.243750X-0.456250X0.243750X-0.456250X0*%
%ADD23RoundRect,0.250000X0.375000X0.625000X-0.375000X0.625000X-0.375000X-0.625000X0.375000X-0.625000X0*%
G04 APERTURE END LIST*
D10*
%TO.C,R13*%
X138637000Y-72644000D03*
X140462000Y-72644000D03*
%TD*%
D11*
%TO.C,C2*%
X94950000Y-87000000D03*
X91825000Y-87000000D03*
%TD*%
D10*
%TO.C,R26*%
X113291500Y-90254700D03*
X115116500Y-90254700D03*
%TD*%
D12*
%TO.C,R12*%
X144018000Y-67183000D03*
X142193000Y-67183000D03*
%TD*%
%TO.C,R7*%
X118545500Y-61468000D03*
X116720500Y-61468000D03*
%TD*%
D10*
%TO.C,R30*%
X113291500Y-104648000D03*
X115116500Y-104648000D03*
%TD*%
%TO.C,R17*%
X138637000Y-89027000D03*
X140462000Y-89027000D03*
%TD*%
D13*
%TO.C,R35*%
X118600000Y-58443500D03*
X118600000Y-56618500D03*
%TD*%
D10*
%TO.C,R25*%
X113291500Y-97451300D03*
X115116500Y-97451300D03*
%TD*%
D14*
%TO.C,Q1*%
X153325000Y-73417900D03*
X153325000Y-76467900D03*
X156675000Y-73417900D03*
X156675000Y-76467900D03*
D15*
X148700000Y-72662900D03*
X148700000Y-77222900D03*
%TD*%
D12*
%TO.C,R11*%
X144018000Y-61722000D03*
X142193000Y-61722000D03*
%TD*%
D16*
%TO.C,D3*%
X103850000Y-86600000D03*
X105950000Y-86600000D03*
%TD*%
D17*
%TO.C,C1*%
X102200000Y-67362500D03*
X102200000Y-64237500D03*
%TD*%
D18*
%TO.C,Q17*%
X105662500Y-63050000D03*
X105662500Y-64950000D03*
X107537500Y-64000000D03*
%TD*%
D10*
%TO.C,R14*%
X138637000Y-83566000D03*
X140462000Y-83566000D03*
%TD*%
D12*
%TO.C,R37*%
X91862500Y-76200000D03*
X90037500Y-76200000D03*
%TD*%
%TO.C,R36*%
X95262500Y-76200000D03*
X93437500Y-76200000D03*
%TD*%
D10*
%TO.C,R29*%
X113291500Y-83195500D03*
X115116500Y-83195500D03*
%TD*%
D14*
%TO.C,Q15*%
X127250000Y-77089500D03*
X127250000Y-80139500D03*
X130600000Y-77089500D03*
X130600000Y-80139500D03*
D15*
X122625000Y-76334500D03*
X122625000Y-80894500D03*
%TD*%
D16*
%TO.C,D5*%
X100200000Y-86800000D03*
X98100000Y-86800000D03*
%TD*%
D12*
%TO.C,R8*%
X118618000Y-75861300D03*
X116793000Y-75861300D03*
%TD*%
D14*
%TO.C,Q16*%
X127250000Y-102629000D03*
X127250000Y-105679000D03*
X130600000Y-102629000D03*
X130600000Y-105679000D03*
D15*
X122625000Y-101874000D03*
X122625000Y-106434000D03*
%TD*%
D14*
%TO.C,Q3*%
X127050000Y-51550000D03*
X127050000Y-54600000D03*
X130400000Y-51550000D03*
X130400000Y-54600000D03*
D15*
X122425000Y-50795000D03*
X122425000Y-55355000D03*
%TD*%
D14*
%TO.C,Q9*%
X153325000Y-88446400D03*
X153325000Y-91496400D03*
X156675000Y-88446400D03*
X156675000Y-91496400D03*
D15*
X148700000Y-87691400D03*
X148700000Y-92251400D03*
%TD*%
D14*
%TO.C,Q13*%
X127250000Y-94115800D03*
X127250000Y-97165800D03*
X130600000Y-94115800D03*
X130600000Y-97165800D03*
D15*
X122625000Y-93360800D03*
X122625000Y-97920800D03*
%TD*%
D12*
%TO.C,R20*%
X144018000Y-94488000D03*
X142193000Y-94488000D03*
%TD*%
D10*
%TO.C,R10*%
X138637000Y-67183000D03*
X140462000Y-67183000D03*
%TD*%
D12*
%TO.C,R16*%
X144018000Y-83566000D03*
X142193000Y-83566000D03*
%TD*%
D13*
%TO.C,R33*%
X109600000Y-58467000D03*
X109600000Y-56642000D03*
%TD*%
D19*
%TO.C,Q12*%
X162475000Y-84275000D03*
X165525000Y-84275000D03*
X162475000Y-80925000D03*
X165525000Y-80925000D03*
D20*
X161720000Y-88900000D03*
X166280000Y-88900000D03*
%TD*%
D12*
%TO.C,R28*%
X118872000Y-90254700D03*
X117047000Y-90254700D03*
%TD*%
D14*
%TO.C,Q6*%
X153325000Y-58389300D03*
X153325000Y-61439300D03*
X156675000Y-58389300D03*
X156675000Y-61439300D03*
D15*
X148700000Y-57634300D03*
X148700000Y-62194300D03*
%TD*%
D14*
%TO.C,Q4*%
X127250000Y-68576300D03*
X127250000Y-71626300D03*
X130600000Y-68576300D03*
X130600000Y-71626300D03*
D15*
X122625000Y-67821300D03*
X122625000Y-72381300D03*
%TD*%
D10*
%TO.C,R18*%
X138637000Y-94488000D03*
X140462000Y-94488000D03*
%TD*%
D21*
%TO.C,D4*%
X106000000Y-96800000D03*
X106000000Y-100800000D03*
%TD*%
D14*
%TO.C,Q5*%
X153325000Y-50875000D03*
X153325000Y-53925000D03*
X156675000Y-50875000D03*
X156675000Y-53925000D03*
D15*
X148700000Y-50120000D03*
X148700000Y-54680000D03*
%TD*%
D10*
%TO.C,R6*%
X113291500Y-75861300D03*
X115116500Y-75861300D03*
%TD*%
D22*
%TO.C,D2*%
X107137500Y-53000000D03*
X105262500Y-53000000D03*
%TD*%
D12*
%TO.C,R31*%
X118872000Y-83195500D03*
X117047000Y-83195500D03*
%TD*%
D14*
%TO.C,Q10*%
X153325000Y-95960700D03*
X153325000Y-99010700D03*
X156675000Y-95960700D03*
X156675000Y-99010700D03*
D15*
X148700000Y-95205700D03*
X148700000Y-99765700D03*
%TD*%
D12*
%TO.C,R15*%
X144018000Y-72644000D03*
X142193000Y-72644000D03*
%TD*%
%TO.C,R4*%
X118578500Y-68893800D03*
X116753500Y-68893800D03*
%TD*%
D22*
%TO.C,D1*%
X99937500Y-53000000D03*
X98062500Y-53000000D03*
%TD*%
D14*
%TO.C,U2*%
X102600000Y-79000000D03*
X102600000Y-82050000D03*
X105950000Y-79000000D03*
X105950000Y-82050000D03*
D15*
X97975000Y-78245000D03*
X97975000Y-82805000D03*
%TD*%
D12*
%TO.C,R23*%
X144018000Y-99949000D03*
X142193000Y-99949000D03*
%TD*%
D17*
%TO.C,C3*%
X92750000Y-83000000D03*
X92750000Y-79875000D03*
%TD*%
D14*
%TO.C,Q8*%
X153325000Y-80932100D03*
X153325000Y-83982100D03*
X156675000Y-80932100D03*
X156675000Y-83982100D03*
D15*
X148700000Y-80177100D03*
X148700000Y-84737100D03*
%TD*%
D10*
%TO.C,R2*%
X113291500Y-68893800D03*
X115116500Y-68893800D03*
%TD*%
%TO.C,R5*%
X113291500Y-61468000D03*
X115116500Y-61468000D03*
%TD*%
D12*
%TO.C,R19*%
X144018000Y-89027000D03*
X142193000Y-89027000D03*
%TD*%
D23*
%TO.C,F1*%
X105032000Y-57912000D03*
X102232000Y-57912000D03*
%TD*%
D14*
%TO.C,Q11*%
X153325000Y-103475000D03*
X153325000Y-106525000D03*
X156675000Y-103475000D03*
X156675000Y-106525000D03*
D15*
X148700000Y-102720000D03*
X148700000Y-107280000D03*
%TD*%
D14*
%TO.C,Q7*%
X153325000Y-65903600D03*
X153325000Y-68953600D03*
X156675000Y-65903600D03*
X156675000Y-68953600D03*
D15*
X148700000Y-65148600D03*
X148700000Y-69708600D03*
%TD*%
D14*
%TO.C,Q2*%
X127050000Y-60063200D03*
X127050000Y-63113200D03*
X130400000Y-60063200D03*
X130400000Y-63113200D03*
D15*
X122425000Y-59308200D03*
X122425000Y-63868200D03*
%TD*%
D13*
%TO.C,R34*%
X114200000Y-58467000D03*
X114200000Y-56642000D03*
%TD*%
D12*
%TO.C,R27*%
X118665000Y-97451300D03*
X116840000Y-97451300D03*
%TD*%
%TO.C,R32*%
X118594500Y-104648000D03*
X116769500Y-104648000D03*
%TD*%
D10*
%TO.C,R22*%
X138637000Y-105410000D03*
X140462000Y-105410000D03*
%TD*%
D14*
%TO.C,Q14*%
X127250000Y-85602700D03*
X127250000Y-88652700D03*
X130600000Y-85602700D03*
X130600000Y-88652700D03*
D15*
X122625000Y-84847700D03*
X122625000Y-89407700D03*
%TD*%
D12*
%TO.C,R24*%
X144018000Y-105410000D03*
X142193000Y-105410000D03*
%TD*%
D10*
%TO.C,R1*%
X138637000Y-78105000D03*
X140462000Y-78105000D03*
%TD*%
D12*
%TO.C,R3*%
X144018000Y-78105000D03*
X142193000Y-78105000D03*
%TD*%
D10*
%TO.C,R21*%
X138637000Y-99949000D03*
X140462000Y-99949000D03*
%TD*%
%TO.C,R9*%
X138533500Y-61722000D03*
X140358500Y-61722000D03*
%TD*%
M02*
