M48
; DRILL file {KiCad (6.0.10)} date Sat Apr 15 00:37:08 2023
; FORMAT={-:-/ absolute / inch / decimal}
; #@! TF.CreationDate,2023-04-15T00:37:08-04:00
; #@! TF.GenerationSoftware,Kicad,Pcbnew,(6.0.10)
; #@! TF.FileFunction,Plated,1,2,PTH
FMAT,2
INCH
; #@! TA.AperFunction,Plated,PTH,ViaDrill
T1C0.0157
; #@! TA.AperFunction,Plated,PTH,ComponentDrill
T2C0.0300
; #@! TA.AperFunction,Plated,PTH,ComponentDrill
T3C0.0551
%
G90
G05
T1
X4.1598Y-3.0316
X4.4472Y-2.4726
X4.4603Y-3.7843
X4.6075Y-2.3676
X4.609Y-2.6608
X4.7484Y-1.9953
X4.8083Y-2.3826
X4.9863Y-2.8991
X5.2223Y-4.3127
X5.2258Y-2.1181
X5.4409Y-2.4813
X5.8926Y-3.583
X5.9282Y-3.2758
X5.9527Y-2.6547
X5.9821Y-2.5144
X6.0467Y-2.2029
X6.2523Y-2.9505
T2
X4.375Y-2.416
X4.375Y-2.516
X4.375Y-2.616
X4.375Y-2.716
X4.375Y-2.816
X4.375Y-2.916
X4.375Y-3.016
X4.375Y-3.116
X4.375Y-3.216
X4.375Y-3.316
X4.375Y-3.416
X4.375Y-3.516
X4.375Y-3.616
X4.375Y-3.716
X4.375Y-3.816
X5.375Y-2.416
X5.375Y-2.516
X5.375Y-2.616
X5.375Y-2.716
X5.375Y-2.816
X5.375Y-2.916
X5.375Y-3.016
X5.375Y-3.116
X5.375Y-3.216
X5.375Y-3.316
X5.375Y-3.416
X5.375Y-3.516
X5.375Y-3.616
X5.375Y-3.716
X5.375Y-3.816
T3
X3.8534Y-2.5039
X3.8534Y-2.7039
X3.8534Y-3.7921
X3.8534Y-3.9921
X3.8602Y-4.378
X4.0102Y-4.378
X4.1602Y-4.378
X4.3102Y-4.378
X4.4602Y-4.378
X4.6102Y-4.378
X4.7602Y-4.378
X4.9102Y-4.378
X5.0602Y-4.378
X5.2102Y-4.378
X5.3602Y-4.378
X5.5102Y-4.378
X5.6602Y-4.378
X5.8102Y-4.378
X5.9602Y-4.378
X6.1102Y-4.378
T0
M30
