%TF.GenerationSoftware,KiCad,Pcbnew,(6.0.10)*%
%TF.CreationDate,2023-04-15T00:37:08-04:00*%
%TF.ProjectId,pwm_pcb_larger,70776d5f-7063-4625-9f6c-61726765722e,rev?*%
%TF.SameCoordinates,Original*%
%TF.FileFunction,Soldermask,Bot*%
%TF.FilePolarity,Negative*%
%FSLAX46Y46*%
G04 Gerber Fmt 4.6, Leading zero omitted, Abs format (unit mm)*
G04 Created by KiCad (PCBNEW (6.0.10)) date 2023-04-15 00:37:08*
%MOMM*%
%LPD*%
G01*
G04 APERTURE LIST*
G04 Aperture macros list*
%AMRoundRect*
0 Rectangle with rounded corners*
0 $1 Rounding radius*
0 $2 $3 $4 $5 $6 $7 $8 $9 X,Y pos of 4 corners*
0 Add a 4 corners polygon primitive as box body*
4,1,4,$2,$3,$4,$5,$6,$7,$8,$9,$2,$3,0*
0 Add four circle primitives for the rounded corners*
1,1,$1+$1,$2,$3*
1,1,$1+$1,$4,$5*
1,1,$1+$1,$6,$7*
1,1,$1+$1,$8,$9*
0 Add four rect primitives between the rounded corners*
20,1,$1+$1,$2,$3,$4,$5,0*
20,1,$1+$1,$4,$5,$6,$7,0*
20,1,$1+$1,$6,$7,$8,$9,0*
20,1,$1+$1,$8,$9,$2,$3,0*%
G04 Aperture macros list end*
%ADD10C,0.150000*%
%ADD11C,0.500000*%
%ADD12C,0.250000*%
%ADD13C,3.200000*%
%ADD14R,2.100000X2.100000*%
%ADD15C,2.100000*%
%ADD16RoundRect,0.249999X1.550001X-0.790001X1.550001X0.790001X-1.550001X0.790001X-1.550001X-0.790001X0*%
%ADD17O,3.600000X2.080000*%
%ADD18R,1.524000X1.524000*%
%ADD19C,1.524000*%
G04 APERTURE END LIST*
D10*
X107696000Y-51308000D02*
X97536000Y-51562000D01*
X107442000Y-56134000D02*
X107696000Y-51308000D01*
X97282000Y-56134000D02*
X107442000Y-56134000D01*
X97536000Y-51562000D02*
X97282000Y-56134000D01*
D11*
X142704761Y-53324940D02*
X142704761Y-52372559D01*
X140704761Y-52622559D01*
X142133333Y-53967797D02*
X142133333Y-54920178D01*
X142704761Y-53705892D02*
X140704761Y-54622559D01*
X142704761Y-55039226D01*
X142704761Y-56848750D02*
X141752380Y-56301130D01*
X142704761Y-55705892D02*
X140704761Y-55955892D01*
X140704761Y-56717797D01*
X140800000Y-56896369D01*
X140895238Y-56979702D01*
X141085714Y-57051130D01*
X141371428Y-57015416D01*
X141561904Y-56896369D01*
X141657142Y-56789226D01*
X141752380Y-56586845D01*
X141752380Y-55824940D01*
X140800000Y-58991607D02*
X140704761Y-58813035D01*
X140704761Y-58527321D01*
X140800000Y-58229702D01*
X140990476Y-58015416D01*
X141180952Y-57896369D01*
X141561904Y-57753511D01*
X141847619Y-57717797D01*
X142228571Y-57765416D01*
X142419047Y-57836845D01*
X142609523Y-58003511D01*
X142704761Y-58277321D01*
X142704761Y-58467797D01*
X142609523Y-58765416D01*
X142514285Y-58872559D01*
X141847619Y-58955892D01*
X141847619Y-58574940D01*
X141657142Y-59836845D02*
X141657142Y-60503511D01*
X142704761Y-60658273D02*
X142704761Y-59705892D01*
X140704761Y-59955892D01*
X140704761Y-60908273D01*
X140704761Y-63003511D02*
X140704761Y-64146369D01*
X142704761Y-63324940D02*
X140704761Y-63574940D01*
X142704761Y-65705892D02*
X141752380Y-65158273D01*
X142704761Y-64563035D02*
X140704761Y-64813035D01*
X140704761Y-65574940D01*
X140800000Y-65753511D01*
X140895238Y-65836845D01*
X141085714Y-65908273D01*
X141371428Y-65872559D01*
X141561904Y-65753511D01*
X141657142Y-65646369D01*
X141752380Y-65443988D01*
X141752380Y-64682083D01*
X142133333Y-66539226D02*
X142133333Y-67491607D01*
X142704761Y-66277321D02*
X140704761Y-67193988D01*
X142704761Y-67610654D01*
X142704761Y-68277321D02*
X140704761Y-68527321D01*
X142704761Y-69420178D01*
X140704761Y-69670178D01*
X142609523Y-70289226D02*
X142704761Y-70563035D01*
X142704761Y-71039226D01*
X142609523Y-71241607D01*
X142514285Y-71348750D01*
X142323809Y-71467797D01*
X142133333Y-71491607D01*
X141942857Y-71420178D01*
X141847619Y-71336845D01*
X141752380Y-71158273D01*
X141657142Y-70789226D01*
X141561904Y-70610654D01*
X141466666Y-70527321D01*
X141276190Y-70455892D01*
X141085714Y-70479702D01*
X140895238Y-70598750D01*
X140800000Y-70705892D01*
X140704761Y-70908273D01*
X140704761Y-71384464D01*
X140800000Y-71658273D01*
X142704761Y-72277321D02*
X140704761Y-72527321D01*
X142609523Y-73146369D02*
X142704761Y-73420178D01*
X142704761Y-73896369D01*
X142609523Y-74098750D01*
X142514285Y-74205892D01*
X142323809Y-74324940D01*
X142133333Y-74348750D01*
X141942857Y-74277321D01*
X141847619Y-74193988D01*
X141752380Y-74015416D01*
X141657142Y-73646369D01*
X141561904Y-73467797D01*
X141466666Y-73384464D01*
X141276190Y-73313035D01*
X141085714Y-73336845D01*
X140895238Y-73455892D01*
X140800000Y-73563035D01*
X140704761Y-73765416D01*
X140704761Y-74241607D01*
X140800000Y-74515416D01*
X140704761Y-75098750D02*
X140704761Y-76241607D01*
X142704761Y-75420178D02*
X140704761Y-75670178D01*
X140704761Y-77289226D02*
X140704761Y-77670178D01*
X140800000Y-77848750D01*
X140990476Y-78015416D01*
X141371428Y-78063035D01*
X142038095Y-77979702D01*
X142419047Y-77836845D01*
X142609523Y-77622559D01*
X142704761Y-77420178D01*
X142704761Y-77039226D01*
X142609523Y-76860654D01*
X142419047Y-76693988D01*
X142038095Y-76646369D01*
X141371428Y-76729702D01*
X140990476Y-76872559D01*
X140800000Y-77086845D01*
X140704761Y-77289226D01*
X142704761Y-79896369D02*
X141752380Y-79348750D01*
X142704761Y-78753511D02*
X140704761Y-79003511D01*
X140704761Y-79765416D01*
X140800000Y-79943988D01*
X140895238Y-80027321D01*
X141085714Y-80098750D01*
X141371428Y-80063035D01*
X141561904Y-79943988D01*
X141657142Y-79836845D01*
X141752380Y-79634464D01*
X141752380Y-78872559D01*
X140704761Y-82241607D02*
X142704761Y-82658273D01*
X140704761Y-83574940D01*
X141657142Y-84122559D02*
X141657142Y-84789226D01*
X142704761Y-84943988D02*
X142704761Y-83991607D01*
X140704761Y-84241607D01*
X140704761Y-85193988D01*
X142704761Y-86943988D02*
X141752380Y-86396369D01*
X142704761Y-85801130D02*
X140704761Y-86051130D01*
X140704761Y-86813035D01*
X140800000Y-86991607D01*
X140895238Y-87074940D01*
X141085714Y-87146369D01*
X141371428Y-87110654D01*
X141561904Y-86991607D01*
X141657142Y-86884464D01*
X141752380Y-86682083D01*
X141752380Y-85920178D01*
X142609523Y-87717797D02*
X142704761Y-87991607D01*
X142704761Y-88467797D01*
X142609523Y-88670178D01*
X142514285Y-88777321D01*
X142323809Y-88896369D01*
X142133333Y-88920178D01*
X141942857Y-88848749D01*
X141847619Y-88765416D01*
X141752380Y-88586845D01*
X141657142Y-88217797D01*
X141561904Y-88039226D01*
X141466666Y-87955892D01*
X141276190Y-87884464D01*
X141085714Y-87908273D01*
X140895238Y-88027321D01*
X140800000Y-88134464D01*
X140704761Y-88336845D01*
X140704761Y-88813035D01*
X140800000Y-89086845D01*
X142704761Y-89705892D02*
X140704761Y-89955892D01*
X140704761Y-91289226D02*
X140704761Y-91670178D01*
X140800000Y-91848749D01*
X140990476Y-92015416D01*
X141371428Y-92063035D01*
X142038095Y-91979702D01*
X142419047Y-91836845D01*
X142609523Y-91622559D01*
X142704761Y-91420178D01*
X142704761Y-91039226D01*
X142609523Y-90860654D01*
X142419047Y-90693988D01*
X142038095Y-90646369D01*
X141371428Y-90729702D01*
X140990476Y-90872559D01*
X140800000Y-91086845D01*
X140704761Y-91289226D01*
X142704761Y-92753511D02*
X140704761Y-93003511D01*
X142704761Y-93896369D01*
X140704761Y-94146369D01*
X142514285Y-94872559D02*
X142609523Y-94955892D01*
X142704761Y-94848749D01*
X142609523Y-94765416D01*
X142514285Y-94872559D01*
X142704761Y-94848749D01*
X141942857Y-94943988D02*
X140800000Y-94991607D01*
X140704761Y-95098749D01*
X140800000Y-95182083D01*
X141942857Y-94943988D01*
X140704761Y-95098749D01*
D12*
X162207380Y-77089994D02*
X161683571Y-77155470D01*
X161588333Y-77119755D01*
X161540714Y-77030470D01*
X161540714Y-76839994D01*
X161588333Y-76738803D01*
X162159761Y-77095946D02*
X162207380Y-76994755D01*
X162207380Y-76756660D01*
X162159761Y-76667375D01*
X162064523Y-76631660D01*
X161969285Y-76643565D01*
X161874047Y-76703089D01*
X161826428Y-76804279D01*
X161826428Y-77042375D01*
X161778809Y-77143565D01*
X161540714Y-77649517D02*
X162540714Y-77524517D01*
X161588333Y-77643565D02*
X161540714Y-77744755D01*
X161540714Y-77935232D01*
X161588333Y-78024517D01*
X161635952Y-78066184D01*
X161731190Y-78101898D01*
X162016904Y-78066184D01*
X162112142Y-78006660D01*
X162159761Y-77953089D01*
X162207380Y-77851898D01*
X162207380Y-77661422D01*
X162159761Y-77572136D01*
X162207380Y-78470946D02*
X161540714Y-78554279D01*
X161731190Y-78530470D02*
X161635952Y-78589994D01*
X161588333Y-78643565D01*
X161540714Y-78744755D01*
X161540714Y-78839994D01*
X162207380Y-79089994D02*
X161540714Y-79173327D01*
X161207380Y-79214994D02*
X161255000Y-79161422D01*
X161302619Y-79203089D01*
X161255000Y-79256660D01*
X161207380Y-79214994D01*
X161302619Y-79203089D01*
X162207380Y-79709041D02*
X162159761Y-79619755D01*
X162064523Y-79584041D01*
X161207380Y-79691184D01*
X161302619Y-80917375D02*
X161255000Y-80970946D01*
X161207380Y-81072136D01*
X161207380Y-81310232D01*
X161255000Y-81399517D01*
X161302619Y-81441184D01*
X161397857Y-81476898D01*
X161493095Y-81464994D01*
X161635952Y-81399517D01*
X162207380Y-80756660D01*
X162207380Y-81375708D01*
X161207380Y-82119755D02*
X161207380Y-82214994D01*
X161255000Y-82304279D01*
X161302619Y-82345946D01*
X161397857Y-82381660D01*
X161588333Y-82405470D01*
X161826428Y-82375708D01*
X162016904Y-82304279D01*
X162112142Y-82244755D01*
X162159761Y-82191184D01*
X162207380Y-82089994D01*
X162207380Y-81994755D01*
X162159761Y-81905470D01*
X162112142Y-81863803D01*
X162016904Y-81828089D01*
X161826428Y-81804279D01*
X161588333Y-81834041D01*
X161397857Y-81905470D01*
X161302619Y-81964994D01*
X161255000Y-82018565D01*
X161207380Y-82119755D01*
X161302619Y-82822136D02*
X161255000Y-82875708D01*
X161207380Y-82976898D01*
X161207380Y-83214994D01*
X161255000Y-83304279D01*
X161302619Y-83345946D01*
X161397857Y-83381660D01*
X161493095Y-83369755D01*
X161635952Y-83304279D01*
X162207380Y-82661422D01*
X162207380Y-83280470D01*
X161207380Y-83738803D02*
X161207380Y-84357851D01*
X161588333Y-83976898D01*
X161588333Y-84119755D01*
X161635952Y-84209041D01*
X161683571Y-84250708D01*
X161778809Y-84286422D01*
X162016904Y-84256660D01*
X162112142Y-84197136D01*
X162159761Y-84143565D01*
X162207380Y-84042375D01*
X162207380Y-83756660D01*
X162159761Y-83667375D01*
X162112142Y-83625708D01*
X163817380Y-78828089D02*
X163150714Y-78911422D01*
X163341190Y-78887613D02*
X163245952Y-78947136D01*
X163198333Y-79000708D01*
X163150714Y-79101898D01*
X163150714Y-79197136D01*
X163769761Y-79834041D02*
X163817380Y-79732851D01*
X163817380Y-79542375D01*
X163769761Y-79453089D01*
X163674523Y-79417375D01*
X163293571Y-79464994D01*
X163198333Y-79524517D01*
X163150714Y-79625708D01*
X163150714Y-79816184D01*
X163198333Y-79905470D01*
X163293571Y-79941184D01*
X163388809Y-79929279D01*
X163484047Y-79441184D01*
X163150714Y-80292375D02*
X163817380Y-80447136D01*
X163150714Y-80768565D01*
X163722142Y-81078089D02*
X163769761Y-81119755D01*
X163817380Y-81066184D01*
X163769761Y-81024517D01*
X163722142Y-81078089D01*
X163817380Y-81066184D01*
X162912619Y-81607851D02*
X162865000Y-81661422D01*
X162817380Y-81762613D01*
X162817380Y-82000708D01*
X162865000Y-82089994D01*
X162912619Y-82131660D01*
X163007857Y-82167375D01*
X163103095Y-82155470D01*
X163245952Y-82089994D01*
X163817380Y-81447136D01*
X163817380Y-82066184D01*
D13*
%TO.C,MH1*%
X93091000Y-54864000D03*
%TD*%
D14*
%TO.C,J3*%
X155200000Y-111200000D03*
D15*
X151390000Y-111200000D03*
X147580000Y-111200000D03*
X143770000Y-111200000D03*
X139960000Y-111200000D03*
X136150000Y-111200000D03*
X132340000Y-111200000D03*
X128530000Y-111200000D03*
X124720000Y-111200000D03*
X120910000Y-111200000D03*
X117100000Y-111200000D03*
X113290000Y-111200000D03*
X109480000Y-111200000D03*
X105670000Y-111200000D03*
X101860000Y-111200000D03*
X98050000Y-111200000D03*
%TD*%
D13*
%TO.C,MH3*%
X90800000Y-110000000D03*
X90800000Y-110000000D03*
%TD*%
%TO.C,MH4*%
X163200000Y-111800000D03*
%TD*%
%TO.C,MH2*%
X162800000Y-53800000D03*
%TD*%
D16*
%TO.C,J2*%
X97877500Y-101400000D03*
D17*
X97877500Y-96320000D03*
%TD*%
D18*
%TO.C,U1*%
X111125000Y-96926000D03*
D19*
X111125000Y-94386000D03*
X111125000Y-91846000D03*
X111125000Y-89306000D03*
X111125000Y-86766000D03*
X111125000Y-84226000D03*
X111125000Y-81686000D03*
X111125000Y-79146000D03*
X111125000Y-76606000D03*
X111125000Y-74066000D03*
X111125000Y-71526000D03*
X111125000Y-68986000D03*
X111125000Y-66446000D03*
X111125000Y-63906000D03*
X111125000Y-61366000D03*
X136525000Y-61366000D03*
X136525000Y-63906000D03*
X136525000Y-66446000D03*
X136525000Y-68986000D03*
X136525000Y-71526000D03*
X136525000Y-74066000D03*
X136525000Y-76606000D03*
X136525000Y-79146000D03*
X136525000Y-81686000D03*
X136525000Y-84226000D03*
X136525000Y-86766000D03*
X136525000Y-89306000D03*
X136525000Y-91846000D03*
X136525000Y-94386000D03*
X136525000Y-96926000D03*
%TD*%
D16*
%TO.C,J1*%
X97877500Y-68680000D03*
D17*
X97877500Y-63600000D03*
%TD*%
G36*
X107628467Y-51329697D02*
G01*
X107676287Y-51382174D01*
X107688843Y-51443986D01*
X107448283Y-56014622D01*
X107424728Y-56081598D01*
X107368703Y-56125206D01*
X107322457Y-56134000D01*
X97401194Y-56134000D01*
X97333073Y-56113998D01*
X97286580Y-56060342D01*
X97275388Y-56014989D01*
X97035388Y-51694989D01*
X97051581Y-51625864D01*
X97102575Y-51576466D01*
X97161194Y-51562000D01*
X97535247Y-51562000D01*
X97536739Y-51561982D01*
X107559868Y-51311403D01*
X107628467Y-51329697D01*
G37*
M02*
