M48
; DRILL file {KiCad (6.0.10)} date Wed Apr  5 19:00:52 2023
; FORMAT={-:-/ absolute / inch / decimal}
; #@! TF.CreationDate,2023-04-05T19:00:52-05:00
; #@! TF.GenerationSoftware,Kicad,Pcbnew,(6.0.10)
; #@! TF.FileFunction,Plated,1,2,PTH
FMAT,2
INCH
; #@! TA.AperFunction,Plated,PTH,ViaDrill
T1C0.0157
; #@! TA.AperFunction,Plated,PTH,ComponentDrill
T2C0.0300
; #@! TA.AperFunction,Plated,PTH,ComponentDrill
T3C0.0394
; #@! TA.AperFunction,Plated,PTH,ComponentDrill
T4C0.0551
%
G90
G05
T1
X3.8583Y-2.1969
X3.9015Y-3.1879
X4.1019Y-2.5547
X4.1488Y-2.923
X4.2677Y-2.3465
X4.4178Y-3.6726
X4.7965Y-3.8211
X4.8308Y-3.6182
X4.8685Y-2.8995
X5.2919Y-4.11
X5.4556Y-2.4816
X5.7176Y-3.4912
X5.7477Y-3.3405
X5.8559Y-2.9451
X5.8845Y-2.6624
X5.9114Y-2.4468
X5.9409Y-3.1064
T2
X4.375Y-2.416
X4.375Y-2.516
X4.375Y-2.616
X4.375Y-2.716
X4.375Y-2.816
X4.375Y-2.916
X4.375Y-3.016
X4.375Y-3.116
X4.375Y-3.216
X4.375Y-3.316
X4.375Y-3.416
X4.375Y-3.516
X4.375Y-3.616
X4.375Y-3.716
X4.375Y-3.816
X5.375Y-2.416
X5.375Y-2.516
X5.375Y-2.616
X5.375Y-2.716
X5.375Y-2.816
X5.375Y-2.916
X5.375Y-3.016
X5.375Y-3.116
X5.375Y-3.216
X5.375Y-3.316
X5.375Y-3.416
X5.375Y-3.516
X5.375Y-3.616
X5.375Y-3.716
X5.375Y-3.816
T3
X3.945Y-4.43
X4.045Y-4.43
X4.145Y-4.43
X4.245Y-4.43
X4.345Y-4.43
X4.445Y-4.43
X4.545Y-4.43
X4.645Y-4.43
X4.745Y-4.43
X4.845Y-4.43
X4.945Y-4.43
X5.045Y-4.43
X5.145Y-4.43
X5.245Y-4.43
X5.345Y-4.43
X5.445Y-4.43
T4
X3.8534Y-2.5039
X3.8534Y-2.7039
X3.8534Y-3.7921
X3.8534Y-3.9921
T0
M30
