%TF.GenerationSoftware,KiCad,Pcbnew,(6.0.10)*%
%TF.CreationDate,2023-04-05T19:00:52-05:00*%
%TF.ProjectId,pwm_pcb_v2,70776d5f-7063-4625-9f76-322e6b696361,rev?*%
%TF.SameCoordinates,Original*%
%TF.FileFunction,Copper,L2,Bot*%
%TF.FilePolarity,Positive*%
%FSLAX46Y46*%
G04 Gerber Fmt 4.6, Leading zero omitted, Abs format (unit mm)*
G04 Created by KiCad (PCBNEW (6.0.10)) date 2023-04-05 19:00:52*
%MOMM*%
%LPD*%
G01*
G04 APERTURE LIST*
G04 Aperture macros list*
%AMRoundRect*
0 Rectangle with rounded corners*
0 $1 Rounding radius*
0 $2 $3 $4 $5 $6 $7 $8 $9 X,Y pos of 4 corners*
0 Add a 4 corners polygon primitive as box body*
4,1,4,$2,$3,$4,$5,$6,$7,$8,$9,$2,$3,0*
0 Add four circle primitives for the rounded corners*
1,1,$1+$1,$2,$3*
1,1,$1+$1,$4,$5*
1,1,$1+$1,$6,$7*
1,1,$1+$1,$8,$9*
0 Add four rect primitives between the rounded corners*
20,1,$1+$1,$2,$3,$4,$5,0*
20,1,$1+$1,$4,$5,$6,$7,0*
20,1,$1+$1,$6,$7,$8,$9,0*
20,1,$1+$1,$8,$9,$2,$3,0*%
G04 Aperture macros list end*
%TA.AperFunction,ComponentPad*%
%ADD10R,1.700000X1.700000*%
%TD*%
%TA.AperFunction,ComponentPad*%
%ADD11O,1.700000X1.700000*%
%TD*%
%TA.AperFunction,ComponentPad*%
%ADD12RoundRect,0.249999X1.550001X-0.790001X1.550001X0.790001X-1.550001X0.790001X-1.550001X-0.790001X0*%
%TD*%
%TA.AperFunction,ComponentPad*%
%ADD13O,3.600000X2.080000*%
%TD*%
%TA.AperFunction,ComponentPad*%
%ADD14R,1.524000X1.524000*%
%TD*%
%TA.AperFunction,ComponentPad*%
%ADD15C,1.524000*%
%TD*%
%TA.AperFunction,ViaPad*%
%ADD16C,0.800000*%
%TD*%
%TA.AperFunction,Conductor*%
%ADD17C,0.250000*%
%TD*%
%TA.AperFunction,Conductor*%
%ADD18C,0.500000*%
%TD*%
G04 APERTURE END LIST*
D10*
%TO.P,J3,1,Pin_1*%
%TO.N,LED_1*%
X138303000Y-112522000D03*
D11*
%TO.P,J3,2,Pin_2*%
%TO.N,LED_2*%
X135763000Y-112522000D03*
%TO.P,J3,3,Pin_3*%
%TO.N,LED_3*%
X133223000Y-112522000D03*
%TO.P,J3,4,Pin_4*%
%TO.N,LED_4*%
X130683000Y-112522000D03*
%TO.P,J3,5,Pin_5*%
%TO.N,LED_5*%
X128143000Y-112522000D03*
%TO.P,J3,6,Pin_6*%
%TO.N,LED_6*%
X125603000Y-112522000D03*
%TO.P,J3,7,Pin_7*%
%TO.N,LED_7*%
X123063000Y-112522000D03*
%TO.P,J3,8,Pin_8*%
%TO.N,LED_8*%
X120523000Y-112522000D03*
%TO.P,J3,9,Pin_9*%
%TO.N,LED_9*%
X117983000Y-112522000D03*
%TO.P,J3,10,Pin_10*%
%TO.N,LED_10*%
X115443000Y-112522000D03*
%TO.P,J3,11,Pin_11*%
%TO.N,LED_11*%
X112903000Y-112522000D03*
%TO.P,J3,12,Pin_12*%
%TO.N,LED_12*%
X110363000Y-112522000D03*
%TO.P,J3,13,Pin_13*%
%TO.N,LED_13*%
X107823000Y-112522000D03*
%TO.P,J3,14,Pin_14*%
%TO.N,LED_14*%
X105283000Y-112522000D03*
%TO.P,J3,15,Pin_15*%
%TO.N,LED_15*%
X102743000Y-112522000D03*
%TO.P,J3,16,Pin_16*%
%TO.N,LED_16*%
X100203000Y-112522000D03*
%TD*%
D12*
%TO.P,J2,1,Pin_1*%
%TO.N,Net-(D4-Pad2)*%
X97877500Y-101400000D03*
D13*
%TO.P,J2,2,Pin_2*%
%TO.N,GND*%
X97877500Y-96320000D03*
%TD*%
D14*
%TO.P,U1,1,EN*%
%TO.N,unconnected-(U1-Pad1)*%
X111125000Y-96926000D03*
D15*
%TO.P,U1,2,SENSOR_VP*%
%TO.N,unconnected-(U1-Pad2)*%
X111125000Y-94386000D03*
%TO.P,U1,3,SENSOR_VN*%
%TO.N,unconnected-(U1-Pad3)*%
X111125000Y-91846000D03*
%TO.P,U1,4,IO34*%
%TO.N,unconnected-(U1-Pad4)*%
X111125000Y-89306000D03*
%TO.P,U1,5,IO35*%
%TO.N,unconnected-(U1-Pad5)*%
X111125000Y-86766000D03*
%TO.P,U1,6,IO32*%
%TO.N,PWM_16*%
X111125000Y-84226000D03*
%TO.P,U1,7,IO33*%
%TO.N,unconnected-(U1-Pad7)*%
X111125000Y-81686000D03*
%TO.P,U1,8,IO25*%
%TO.N,PWM_13*%
X111125000Y-79146000D03*
%TO.P,U1,9,IO26*%
%TO.N,PWM_14*%
X111125000Y-76606000D03*
%TO.P,U1,10,IO27*%
%TO.N,PWM_15*%
X111125000Y-74066000D03*
%TO.P,U1,11,IO14*%
%TO.N,PWM_4*%
X111125000Y-71526000D03*
%TO.P,U1,12,IO12*%
%TO.N,PWM_2*%
X111125000Y-68986000D03*
%TO.P,U1,13,IO13*%
%TO.N,PWM_3*%
X111125000Y-66446000D03*
%TO.P,U1,14,GND*%
%TO.N,GND*%
X111125000Y-63906000D03*
%TO.P,U1,15,VIN*%
%TO.N,+5V*%
X111125000Y-61366000D03*
%TO.P,U1,16,3V3*%
%TO.N,unconnected-(U1-Pad16)*%
X136525000Y-61366000D03*
%TO.P,U1,17,GND*%
%TO.N,GND*%
X136525000Y-63906000D03*
%TO.P,U1,18,IO15*%
%TO.N,PWM_5*%
X136525000Y-66446000D03*
%TO.P,U1,19,IO2*%
%TO.N,unconnected-(U1-Pad19)*%
X136525000Y-68986000D03*
%TO.P,U1,20,IO4*%
%TO.N,unconnected-(U1-Pad20)*%
X136525000Y-71526000D03*
%TO.P,U1,21,IO16*%
%TO.N,PWM_6*%
X136525000Y-74066000D03*
%TO.P,U1,22,IO17*%
%TO.N,PWM_7*%
X136525000Y-76606000D03*
%TO.P,U1,23,IO5*%
%TO.N,PWM_1*%
X136525000Y-79146000D03*
%TO.P,U1,24,IO18*%
%TO.N,PWM_8*%
X136525000Y-81686000D03*
%TO.P,U1,25,IO19*%
%TO.N,PWM_9*%
X136525000Y-84226000D03*
%TO.P,U1,26,IO21*%
%TO.N,PWM_10*%
X136525000Y-86766000D03*
%TO.P,U1,27,RXD0/IO3*%
%TO.N,unconnected-(U1-Pad27)*%
X136525000Y-89306000D03*
%TO.P,U1,28,TXD0/IO1*%
%TO.N,unconnected-(U1-Pad28)*%
X136525000Y-91846000D03*
%TO.P,U1,29,IO22*%
%TO.N,PWM_11*%
X136525000Y-94386000D03*
%TO.P,U1,30,IO23*%
%TO.N,PWM_12*%
X136525000Y-96926000D03*
%TD*%
D12*
%TO.P,J1,1,Pin_1*%
%TO.N,Net-(C1-Pad1)*%
X97877500Y-68680000D03*
D13*
%TO.P,J1,2,Pin_2*%
%TO.N,GND*%
X97877500Y-63600000D03*
%TD*%
D16*
%TO.N,Net-(D1-Pad2)*%
X98000000Y-55800000D03*
X108400000Y-59600000D03*
%TO.N,PWM_13*%
X112212100Y-93283400D03*
%TO.N,PWM_5*%
X138571100Y-63031700D03*
%TO.N,LED_14*%
X122702800Y-91902300D03*
%TO.N,LED_13*%
X121832100Y-97056000D03*
%TO.N,LED_9*%
X145228000Y-88677700D03*
%TO.N,LED_8*%
X145992000Y-84848400D03*
%TO.N,LED_7*%
X148738900Y-74806400D03*
%TO.N,LED_6*%
X149465700Y-67625600D03*
%TO.N,LED_5*%
X150149000Y-62147600D03*
%TO.N,LED_4*%
X123659900Y-73647700D03*
%TO.N,LED_2*%
X134415200Y-104393500D03*
%TO.N,LED_1*%
X150899300Y-78902600D03*
%TO.N,+5V*%
X105379200Y-74245400D03*
%TO.N,Net-(C2-Pad1)*%
X104187700Y-64889400D03*
X99098400Y-80972200D03*
%TD*%
D17*
%TO.N,Net-(D1-Pad2)*%
X101800000Y-59600000D02*
X98000000Y-55800000D01*
X108400000Y-59600000D02*
X101800000Y-59600000D01*
%TO.N,PWM_13*%
X112212100Y-80233100D02*
X112212100Y-93283400D01*
X111125000Y-79146000D02*
X112212100Y-80233100D01*
%TO.N,PWM_5*%
X138571100Y-64399900D02*
X138571100Y-63031700D01*
X136525000Y-66446000D02*
X138571100Y-64399900D01*
%TO.N,LED_14*%
X122702800Y-93927100D02*
X122702800Y-91902300D01*
X105283000Y-111346900D02*
X122702800Y-93927100D01*
X105283000Y-112522000D02*
X105283000Y-111346900D01*
%TO.N,LED_13*%
X107823000Y-111065100D02*
X121832100Y-97056000D01*
X107823000Y-112522000D02*
X107823000Y-111065100D01*
%TO.N,LED_9*%
X138249700Y-95656000D02*
X145228000Y-88677700D01*
X135656900Y-95656000D02*
X138249700Y-95656000D01*
X119158100Y-112154800D02*
X135656900Y-95656000D01*
X119158100Y-112522000D02*
X119158100Y-112154800D01*
X117983000Y-112522000D02*
X119158100Y-112522000D01*
%TO.N,LED_8*%
X120523000Y-112522000D02*
X121698100Y-112522000D01*
X145992000Y-88996400D02*
X145992000Y-84848400D01*
X123641500Y-111346900D02*
X145992000Y-88996400D01*
X122505900Y-111346900D02*
X123641500Y-111346900D01*
X121698100Y-112154700D02*
X122505900Y-111346900D01*
X121698100Y-112522000D02*
X121698100Y-112154700D01*
%TO.N,LED_7*%
X123063000Y-112522000D02*
X124238100Y-112522000D01*
X124238100Y-111772700D02*
X124238100Y-112522000D01*
X148738900Y-87271900D02*
X124238100Y-111772700D01*
X148738900Y-74806400D02*
X148738900Y-87271900D01*
%TO.N,LED_6*%
X125603000Y-112522000D02*
X125603000Y-111346900D01*
X149465700Y-87484200D02*
X125603000Y-111346900D01*
X149465700Y-67625600D02*
X149465700Y-87484200D01*
%TO.N,LED_5*%
X150201000Y-62199600D02*
X150149000Y-62147600D01*
X150201000Y-68896000D02*
X150201000Y-62199600D01*
X149915900Y-69181100D02*
X150201000Y-68896000D01*
X149915900Y-87867400D02*
X149915900Y-69181100D01*
X128143000Y-109640300D02*
X149915900Y-87867400D01*
X128143000Y-112522000D02*
X128143000Y-109640300D01*
%TO.N,LED_4*%
X123659900Y-96454700D02*
X123659900Y-73647700D01*
X116802900Y-103311700D02*
X123659900Y-96454700D01*
X116802900Y-113025400D02*
X116802900Y-103311700D01*
X117479600Y-113702100D02*
X116802900Y-113025400D01*
X128695000Y-113702100D02*
X117479600Y-113702100D01*
X129507900Y-112889200D02*
X128695000Y-113702100D01*
X129507900Y-112522000D02*
X129507900Y-112889200D01*
X130683000Y-112522000D02*
X129507900Y-112522000D01*
%TO.N,LED_2*%
X135763000Y-112522000D02*
X135763000Y-111346900D01*
X134415200Y-109999100D02*
X134415200Y-104393500D01*
X135763000Y-111346900D02*
X134415200Y-109999100D01*
%TO.N,LED_1*%
X150899300Y-98750600D02*
X150899300Y-78902600D01*
X138303000Y-111346900D02*
X150899300Y-98750600D01*
X138303000Y-112522000D02*
X138303000Y-111346900D01*
%TO.N,+5V*%
X105379200Y-70616500D02*
X105379200Y-74245400D01*
X110819700Y-65176000D02*
X105379200Y-70616500D01*
X111427900Y-65176000D02*
X110819700Y-65176000D01*
X112213900Y-64390000D02*
X111427900Y-65176000D01*
X112213900Y-62454900D02*
X112213900Y-64390000D01*
X111125000Y-61366000D02*
X112213900Y-62454900D01*
D18*
%TO.N,GND*%
X110819000Y-63600000D02*
X111125000Y-63906000D01*
X97877500Y-63600000D02*
X110819000Y-63600000D01*
D17*
%TO.N,Net-(C2-Pad1)*%
X104187700Y-75882900D02*
X99098400Y-80972200D01*
X104187700Y-64889400D02*
X104187700Y-75882900D01*
%TD*%
M02*
